<svg width="17" height="16" viewBox="0 0 17 16" fill="none" xmlns="http://www.w3.org/2000/svg">
<g clip-path="url(#clip0_8504_12766)">
<path d="M8.20581 16.0002C12.6241 16.0002 16.2058 12.4185 16.2058 8.00024C16.2058 3.58197 12.6241 0.000244141 8.20581 0.000244141C3.78753 0.000244141 0.205811 3.58197 0.205811 8.00024C0.205811 12.4185 3.78753 16.0002 8.20581 16.0002Z" fill="#6916FF"/>
<path d="M8.77771 3.21217C8.74991 3.19212 8.73044 3.16257 8.72297 3.12912C8.71551 3.09567 8.72058 3.06064 8.73721 3.03067C8.76049 3.01575 8.78756 3.00781 8.81521 3.00781C8.84286 3.00781 8.86994 3.01575 8.89321 3.03067C9.24558 3.17695 9.56454 3.39333 9.83071 3.66667C9.98221 3.80717 10.1092 3.97117 10.2057 4.15167C10.3077 4.33567 10.3912 4.52817 10.4557 4.72767C10.5172 4.93417 10.5492 5.14867 10.5497 5.36367C10.5182 5.57617 10.4872 6.60617 9.89321 7.09117C9.81761 7.13663 9.72785 7.15249 9.64125 7.13569C9.55464 7.11888 9.47733 7.07061 9.42421 7.00017C9.38176 6.95039 9.35595 6.88858 9.35039 6.8234C9.34483 6.75821 9.35981 6.69292 9.39321 6.63667C9.64575 6.24572 9.78525 5.79253 9.79628 5.32724C9.80731 4.86194 9.68944 4.40266 9.45571 4.00017C9.25571 3.71717 9.02871 3.45367 8.77771 3.21217ZM7.85571 12.5032C7.91821 12.5637 7.91821 12.6242 7.88721 12.6547C7.85621 12.6852 7.79321 12.7152 7.76221 12.6847C7.40984 12.5384 7.09088 12.322 6.82471 12.0487C6.67367 11.9089 6.54694 11.745 6.44971 11.5637C6.34791 11.3804 6.26418 11.1877 6.19971 10.9882C6.13793 10.7816 6.10627 10.5673 6.10571 10.3517C6.13721 10.1397 6.16821 9.10917 6.76221 8.62417C6.83777 8.57886 6.92742 8.56308 7.0139 8.57988C7.10039 8.59668 7.17761 8.64487 7.23071 8.71517C7.27621 8.76486 7.30145 8.8298 7.30145 8.89717C7.30145 8.96455 7.27621 9.02948 7.23071 9.07917C6.97827 9.47007 6.83883 9.92316 6.8278 10.3884C6.81677 10.8536 6.93458 11.3127 7.16821 11.7152C7.37071 11.9987 7.60121 12.2627 7.85571 12.5032Z" fill="white" fill-opacity="0.5"/>
<path d="M10.5527 10.0029C10.5074 9.42117 10.2774 8.86914 9.89622 8.42739C9.5103 8.03953 9.06777 7.71247 8.58372 7.45739C8.16149 7.22401 7.76368 6.94898 7.39621 6.63639C7.09401 6.35236 6.88675 5.98203 6.80272 5.57589C6.72809 5.15657 6.7814 4.7245 6.95572 4.33589C7.16456 3.90356 7.46401 3.52124 7.83371 3.21489C7.85451 3.19635 7.86879 3.17162 7.87446 3.14434C7.88013 3.11707 7.87689 3.08869 7.86522 3.06339C7.8563 3.04745 7.84388 3.03373 7.8289 3.02327C7.81392 3.01281 7.79677 3.00587 7.77873 3.00298C7.76069 3.0001 7.74223 3.00133 7.72473 3.0066C7.70724 3.01187 7.69116 3.02103 7.67772 3.03339C7.17971 3.25064 6.75603 3.60864 6.45871 4.06339C6.12621 4.54115 5.97046 5.11978 6.01822 5.69989C6.04316 5.993 6.11719 6.27983 6.23721 6.54839C6.3671 6.81422 6.53559 7.05938 6.73721 7.27589C7.13456 7.65556 7.58763 7.97222 8.08072 8.21489C8.50472 8.43489 8.90322 8.69939 9.26822 9.00289C9.5893 9.28464 9.79983 9.6713 9.86222 10.0939C9.95022 10.5334 9.89522 10.9889 9.70572 11.3969C9.49301 11.8264 9.18253 12.2001 8.79922 12.4879C8.78654 12.4952 8.77555 12.5051 8.76697 12.5169C8.75839 12.5287 8.75242 12.5423 8.74944 12.5566C8.74646 12.5709 8.74655 12.5857 8.7497 12.5999C8.75285 12.6142 8.75899 12.6277 8.76772 12.6394C8.78522 12.6714 8.81772 12.6944 8.85422 12.6999C8.89072 12.7054 8.92872 12.6949 8.95572 12.6699C9.4203 12.4017 9.82456 12.0405 10.1432 11.6089C10.4532 11.1299 10.5962 10.5669 10.5527 10.0029Z" fill="white"/>
</g>
<defs>
<clipPath id="clip0_8504_12766">
<rect width="16" height="16" fill="white" transform="translate(0.205811 0.000244141)"/>
</clipPath>
</defs>
</svg>
