<svg width="17" height="16" viewBox="0 0 17 16" fill="none" xmlns="http://www.w3.org/2000/svg">
<g clip-path="url(#clip0_8504_10357)">
<path d="M8.2373 16C12.6556 16 16.2373 12.4183 16.2373 8C16.2373 3.58172 12.6556 0 8.2373 0C3.81903 0 0.237305 3.58172 0.237305 8C0.237305 12.4183 3.81903 16 8.2373 16Z" fill="#3C5BE0"/>
<path d="M13.7373 8.0075V8.0115C13.7357 8.05141 13.7249 8.09041 13.7058 8.1255C13.6358 8.253 11.9603 11.25 8.2378 11.25C4.5153 11.25 2.8388 8.253 2.7693 8.1255C2.75005 8.09045 2.7391 8.05145 2.7373 8.0115V7.989L2.7378 7.9775C2.74072 7.94457 2.74988 7.9125 2.7648 7.883L2.7658 7.881L2.7688 7.875C2.8388 7.747 4.5148 4.75 8.2373 4.75C11.9598 4.75 13.6358 7.7475 13.7053 7.875L13.7083 7.881L13.7098 7.8835C13.7245 7.91288 13.7335 7.94477 13.7363 7.9775V8.0005L13.7373 8.0075ZM13.1823 8C12.9008 7.563 11.8428 6.1035 9.9248 5.5165C10.5423 5.94914 10.9767 6.59615 11.1433 7.3315C11.2748 7.3615 11.3693 7.4795 11.3718 7.6165C11.3743 7.7535 11.2843 7.8745 11.1533 7.9095C11.0223 7.9445 10.8858 7.8845 10.8208 7.7645C10.7894 7.70606 10.7781 7.63885 10.7889 7.57337C10.7997 7.50788 10.8318 7.4478 10.8803 7.4025C10.6333 6.291 9.7193 5.4325 8.5933 5.283C8.58481 5.28197 8.57644 5.28013 8.56831 5.2775C8.34763 5.26566 8.12648 5.26566 7.9058 5.2775C7.89767 5.28013 7.88929 5.28197 7.8808 5.283C7.44202 5.34206 7.02464 5.50867 6.6658 5.768C6.64832 5.78042 6.62815 5.78854 6.60694 5.79168C6.58572 5.79482 6.56407 5.7929 6.54374 5.78607C6.52341 5.77924 6.50498 5.76771 6.48996 5.7524C6.47494 5.7371 6.46375 5.71845 6.4573 5.698C6.44856 5.67027 6.44873 5.6405 6.45779 5.61288C6.46685 5.58525 6.48434 5.56116 6.5078 5.544C6.51989 5.53523 6.53206 5.52656 6.5443 5.518C4.6293 6.1065 3.5733 7.563 3.2923 8C3.5708 8.4335 4.6123 9.87 6.4973 10.4675C5.87559 10.0136 5.4508 9.33927 5.3098 8.5825C5.1828 8.535 5.1048 8.406 5.1198 8.2695C5.1348 8.133 5.2398 8.0245 5.3738 8.007C5.5078 7.9895 5.6368 8.067 5.6858 8.1955C5.70947 8.25757 5.7119 8.32572 5.69273 8.38932C5.67355 8.45292 5.63384 8.50836 5.5798 8.547C5.7948 9.652 6.6538 10.5105 7.7458 10.712C8.07325 10.7389 8.40236 10.7389 8.7298 10.712C9.13722 10.6355 9.5214 10.4657 9.8523 10.216C9.87134 10.2012 9.894 10.1918 9.91792 10.1887C9.94183 10.1856 9.96614 10.189 9.98831 10.1985C10.0106 10.2084 10.0298 10.2239 10.0442 10.2436C10.0585 10.2632 10.0675 10.2863 10.0701 10.3105C10.0727 10.3347 10.069 10.3592 10.0592 10.3815C10.0494 10.4037 10.0339 10.4231 10.0143 10.4375L9.9708 10.47C11.8598 9.8735 12.9033 8.434 13.1823 8ZM10.6473 8.0085C10.6473 9.357 9.5663 10.4545 8.2373 10.4545C6.9083 10.4545 5.8273 9.357 5.8273 8.0085C5.8273 6.66 6.9083 5.563 8.2373 5.563C9.5663 5.563 10.6473 6.6595 10.6473 8.0085ZM10.3753 8.0085C10.3753 6.8125 9.4163 5.839 8.2373 5.839C7.0583 5.839 6.0988 6.812 6.0988 8.009C6.0988 9.206 7.0583 10.178 8.2373 10.178C9.4163 10.178 10.3753 9.205 10.3753 8.0085ZM9.0253 7.337C9.0253 7.599 8.8958 7.843 8.6803 7.987L8.8953 9.3005C8.90024 9.32378 8.89982 9.34788 8.89408 9.37097C8.88834 9.39406 8.87742 9.41555 8.86215 9.4338C8.84688 9.45206 8.82766 9.4666 8.80595 9.47634C8.78423 9.48607 8.76059 9.49075 8.7368 9.49H7.7768C7.75301 9.49073 7.72935 9.48605 7.70762 9.47631C7.68589 9.46658 7.66665 9.45205 7.65135 9.43381C7.63605 9.41557 7.62508 9.3941 7.61927 9.37101C7.61346 9.34792 7.61296 9.32381 7.6178 9.3005L7.8318 7.987C7.5258 7.7815 7.4058 7.3845 7.5453 7.04C7.6848 6.6955 8.0453 6.4995 8.4053 6.5715C8.7658 6.644 9.0253 6.9645 9.0253 7.337ZM11.1988 8.3585C11.129 8.98485 10.865 9.57368 10.4438 10.0425C10.4279 10.0607 10.4075 10.0743 10.3846 10.0819C10.3617 10.0894 10.3371 10.0908 10.3136 10.0857C10.29 10.0806 10.2682 10.0692 10.2505 10.0528C10.2327 10.0364 10.2197 10.0156 10.2128 9.9925C10.2055 9.96918 10.2044 9.94436 10.2097 9.9205C10.215 9.89665 10.2264 9.87458 10.2428 9.8565C10.6255 9.43053 10.8653 8.89557 10.9288 8.3265C10.9328 8.29055 10.9509 8.25764 10.9791 8.23497C11.0073 8.21231 11.0433 8.20171 11.0793 8.2055C11.1543 8.2145 11.2073 8.283 11.1988 8.3585ZM6.2638 5.9245C6.29007 5.94984 6.30532 5.98449 6.30625 6.02098C6.30719 6.05746 6.29374 6.09285 6.2688 6.1195C5.88526 6.53003 5.63692 7.04835 5.5573 7.6045C5.55199 7.64033 5.5327 7.6726 5.50365 7.69425C5.4746 7.71589 5.43816 7.72515 5.4023 7.72C5.36647 7.71421 5.33437 7.69454 5.31293 7.66525C5.2915 7.63596 5.28247 7.5994 5.2878 7.5635C5.37565 6.95165 5.64912 6.38149 6.0713 5.93C6.08353 5.91689 6.09825 5.90635 6.11459 5.899C6.13094 5.89164 6.14859 5.88761 6.16651 5.88714C6.18443 5.88668 6.20226 5.88979 6.21896 5.89629C6.23567 5.90278 6.25091 5.91255 6.2638 5.925V5.9245Z" fill="white"/>
</g>
<defs>
<clipPath id="clip0_8504_10357">
<rect width="16" height="16" fill="white" transform="translate(0.237305)"/>
</clipPath>
</defs>
</svg>
