<svg width="17" height="16" viewBox="0 0 17 16" fill="none" xmlns="http://www.w3.org/2000/svg">
<g clip-path="url(#clip0_8504_10367)">
<path d="M8.56714 16C12.9854 16 16.5671 12.4183 16.5671 8C16.5671 3.58172 12.9854 0 8.56714 0C4.14886 0 0.567139 3.58172 0.567139 8C0.567139 12.4183 4.14886 16 8.56714 16Z" fill="url(#paint0_linear_8504_10367)" fill-opacity="0.05"/>
<path d="M14.8171 7.46984C14.8721 6.31734 14.0671 5.55234 13.1571 5.02734L12.5671 8.49984C12.689 8.48292 12.813 8.49247 12.9308 8.52785C13.0485 8.56323 13.1573 8.6236 13.2496 8.70484C13.3554 8.80864 13.4187 8.94817 13.427 9.09613C13.4353 9.2441 13.3881 9.38984 13.2946 9.50484C13.8646 9.40984 14.7521 8.86234 14.8171 7.46984Z" fill="url(#paint1_linear_8504_10367)"/>
<path fill-rule="evenodd" clip-rule="evenodd" d="M7.06726 3.43287L6.36726 2.72537C7.42726 2.59537 10.2248 2.76037 12.9323 4.45787C12.957 4.60937 12.957 4.76388 12.9323 4.91537L13.1598 5.03037C13.3416 5.33205 13.4614 5.66701 13.5121 6.01561C13.5627 6.36421 13.5432 6.71941 13.4548 7.06037C13.2198 8.00037 12.8173 8.41537 12.6373 8.50037C12.2748 8.50037 11.6573 8.71037 11.4573 9.64037C11.2573 10.5704 10.8723 10.7729 10.7073 10.7579L6.70726 10.8054L4.06726 9.25037L3.68726 6.03287L4.43726 5.03287L5.77726 3.93787L6.73226 3.54787L7.06726 3.43287ZM11.7948 4.75037C11.6818 4.8701 11.5501 4.97059 11.4048 5.04787C10.3773 4.82787 10.0048 4.29787 10.0048 4.29787C10.8785 4.27178 11.7428 4.4844 12.5048 4.91287C12.2727 4.84007 12.0353 4.78573 11.7948 4.75037Z" fill="url(#paint2_linear_8504_10367)"/>
<path fill-rule="evenodd" clip-rule="evenodd" d="M11.422 9.6398C10.661 10.0058 9.82645 10.1931 8.98203 10.1873C6.45953 10.1873 4.41703 8.60229 4.41703 6.6498C4.41703 5.2048 5.53203 3.96479 7.12953 3.41479C4.08953 3.58979 1.64453 6.03229 1.64453 9.04729C1.64453 12.5273 4.74703 15.4023 8.56703 15.4023C9.89458 15.3913 11.1952 15.0267 12.335 14.3461C13.4749 13.6654 14.4127 12.6933 15.052 11.5298C13.3395 11.9148 11.317 11.1823 11.422 9.6398Z" fill="url(#paint3_linear_8504_10367)"/>
</g>
<defs>
<linearGradient id="paint0_linear_8504_10367" x1="8.56714" y1="5.5975" x2="8.56714" y2="16.21" gradientUnits="userSpaceOnUse">
<stop stop-color="#01E8F8"/>
<stop offset="1" stop-color="#01E8F8" stop-opacity="0"/>
</linearGradient>
<linearGradient id="paint1_linear_8504_10367" x1="13.5421" y1="6.04234" x2="13.8971" y2="10.2848" gradientUnits="userSpaceOnUse">
<stop stop-color="#01E8F7"/>
<stop offset="1" stop-color="#00C2FF"/>
</linearGradient>
<linearGradient id="paint2_linear_8504_10367" x1="6.55476" y1="3.76287" x2="10.6748" y2="10.3029" gradientUnits="userSpaceOnUse">
<stop stop-color="#01E8F7"/>
<stop offset="1" stop-color="#00B3EC"/>
</linearGradient>
<linearGradient id="paint3_linear_8504_10367" x1="412.316" y1="468.05" x2="428.075" y2="-38.1849" gradientUnits="userSpaceOnUse">
<stop stop-color="#01E8F7"/>
<stop offset="1" stop-color="#00C2FF"/>
</linearGradient>
<clipPath id="clip0_8504_10367">
<rect width="16" height="16" fill="white" transform="translate(0.567139)"/>
</clipPath>
</defs>
</svg>
