<svg width="17" height="16" viewBox="0 0 17 16" fill="none" xmlns="http://www.w3.org/2000/svg">
<g clip-path="url(#clip0_8504_10399)">
<path d="M16.659 10.0133L8.64841 15.9363C8.54226 16.0142 8.38657 16.0212 8.28043 15.9434L0.142436 10.1902C-0.0132477 10.077 -0.0486303 9.85051 0.078747 9.7019L8.08228 0.106148C8.19551 -0.0353826 8.4078 -0.0353826 8.52811 0.106148L16.7015 9.64529C16.7935 9.75851 16.7793 9.92835 16.659 10.0133Z" fill="#FFF4FC"/>
<path d="M16.2263 9.81573L8.61201 15.4416L8.56955 9.70958L8.51294 0.708252L16.0494 9.60343L16.2263 9.81573Z" fill="url(#paint0_linear_8504_10399)"/>
<path d="M0.452881 9.93603L8.26535 15.4416L8.08844 0.708252L0.452881 9.93603Z" fill="url(#paint1_linear_8504_10399)"/>
<path d="M8.20166 9.72314L0.509493 9.87175L0.452881 9.93544L8.26535 15.441L8.20166 9.72314Z" fill="url(#paint2_linear_8504_10399)"/>
<path d="M8.56958 9.70893L16.0495 9.60278L16.2264 9.81508L8.61204 15.4409L8.56958 9.70893Z" fill="url(#paint3_linear_8504_10399)"/>
<path d="M14.2167 11.2298C14.2804 11.1378 15.073 9.97016 14.5847 8.8733C14.2238 8.0595 13.3392 7.68444 13.2048 7.62783C13.0279 7.54999 13.0208 7.57122 12.1928 7.30231C11.6904 7.13248 11.4357 7.05463 11.2163 6.96972C10.8766 6.84234 10.2185 6.58758 9.46839 6.10638C9.22071 5.9507 8.90227 5.72425 8.54137 5.42704M8.56967 9.63756L16.0495 9.53141L8.56967 9.63756ZM8.20169 9.65171L0.509521 9.80032L8.20169 9.65171ZM8.16631 7.13955C6.51041 5.87286 5.80983 5.67471 5.548 5.88701C4.8262 6.48851 7.50112 10.4018 6.43256 11.3855C6.1212 11.6685 5.47723 11.7322 4.23884 11.8525C3.85671 11.8879 3.53827 11.902 3.33305 11.902L8.16631 7.13955ZM11.096 9.60218L8.55552 7.38015L11.096 9.60218ZM6.87838 2.10107C6.85716 2.44782 6.87131 3.13425 7.22513 3.89143C7.50819 4.50001 7.8974 4.8963 8.14508 5.11567L6.87838 2.10107Z" stroke="#98C9C0" stroke-width="0.14153" stroke-miterlimit="10"/>
</g>
<defs>
<linearGradient id="paint0_linear_8504_10399" x1="8.51174" y1="8.07525" x2="16.2281" y2="8.07525" gradientUnits="userSpaceOnUse">
<stop stop-color="#3B8270"/>
<stop offset="1" stop-color="#305C6E"/>
</linearGradient>
<linearGradient id="paint1_linear_8504_10399" x1="0.455881" y1="8.07525" x2="8.2671" y2="8.07525" gradientUnits="userSpaceOnUse">
<stop stop-color="#4E7F98"/>
<stop offset="1" stop-color="#3BC0B5"/>
</linearGradient>
<linearGradient id="paint2_linear_8504_10399" x1="0.455881" y1="12.5814" x2="8.2671" y2="12.5814" gradientUnits="userSpaceOnUse">
<stop stop-color="#30435C"/>
<stop offset="1" stop-color="#299AA9"/>
</linearGradient>
<linearGradient id="paint3_linear_8504_10399" x1="8.57122" y1="12.5243" x2="16.2281" y2="12.5243" gradientUnits="userSpaceOnUse">
<stop stop-color="#2E2C29"/>
<stop offset="1" stop-color="#323232"/>
</linearGradient>
<clipPath id="clip0_8504_10399">
<rect width="16.7643" height="16" fill="white"/>
</clipPath>
</defs>
</svg>
