<svg width="17" height="16" viewBox="0 0 17 16" fill="none" xmlns="http://www.w3.org/2000/svg">
<g clip-path="url(#clip0_8504_10341)">
<path d="M12.3443 11.9673L8.32591 15.9858L6.33259 13.9924C8.48209 13.8654 10.5575 13.1665 12.3443 11.9673ZM16.1536 7.8404L15.6612 7.35067L8.32591 0.0126953L0.987938 7.35067L0.35791 7.9807L0.585567 8.17659C0.842343 8.39101 1.10706 8.59484 1.37972 8.78544C4.28103 10.8291 7.87854 11.4459 11.2007 10.6332C12.5561 10.3049 13.8426 9.74107 15.0047 8.96809C15.2933 8.7775 15.5739 8.57102 15.8492 8.35395C16.0001 8.23218 16.1483 8.10776 16.2939 7.9807L16.1536 7.8404ZM10.261 9.68548C8.07178 8.34071 5.55167 7.63392 2.98391 7.6445C6.32994 6.18591 10.4357 5.98737 14.2 8.15276C13.0008 8.91515 11.6614 9.43664 10.261 9.68548Z" fill="#2B71FF"/>
</g>
<defs>
<clipPath id="clip0_8504_10341">
<rect width="15.936" height="16" fill="white" transform="translate(0.35791)"/>
</clipPath>
</defs>
</svg>
