<svg width="16" height="16" viewBox="0 0 16 16" fill="none" xmlns="http://www.w3.org/2000/svg">
<path d="M7.93566 15.9531C12.094 15.9531 15.4651 12.5821 15.4651 8.4237C15.4651 4.26532 12.094 0.894287 7.93566 0.894287C3.77728 0.894287 0.40625 4.26532 0.40625 8.4237C0.40625 12.5821 3.77728 15.9531 7.93566 15.9531Z" fill="#2E3148"/>
<path d="M7.93606 12.7923C10.349 12.7923 12.305 10.8363 12.305 8.42337C12.305 6.01048 10.349 4.05444 7.93606 4.05444C5.52317 4.05444 3.56714 6.01048 3.56714 8.42337C3.56714 10.8363 5.52317 12.7923 7.93606 12.7923Z" fill="#1B1E36"/>
<path d="M7.95085 1.85522C7.13806 1.85522 6.479 4.80314 6.479 8.4396C6.479 12.0761 7.13806 15.024 7.95085 15.024C8.76364 15.024 9.4227 12.0761 9.4227 8.4396C9.4227 4.80314 8.76364 1.85522 7.95085 1.85522ZM8.05247 14.6524C7.95952 14.7764 7.86658 14.6834 7.86658 14.6834C7.49226 14.2497 7.3051 13.444 7.3051 13.444C6.65038 11.337 6.80622 6.81313 6.80622 6.81313C7.11391 3.22166 7.67364 2.37325 7.86411 2.18489C7.88356 2.16567 7.90917 2.15392 7.93643 2.15172C7.96369 2.14951 7.99085 2.157 8.01314 2.17285C8.28951 2.36867 8.5213 3.18763 8.5213 3.18763C9.20578 5.72841 9.1438 8.11427 9.1438 8.11427C9.20578 10.1903 8.8008 12.5142 8.8008 12.5142C8.48907 14.2803 8.05247 14.6524 8.05247 14.6524Z" fill="#6F7390"/>
<path d="M13.6617 5.16234C13.2571 4.4571 10.3723 5.35256 7.21656 7.16215C4.06077 8.97174 1.83471 11.0105 2.23907 11.7155C2.64343 12.4204 5.52846 11.5252 8.68425 9.71564C11.84 7.90605 14.0661 5.86727 13.6617 5.16234ZM2.61241 11.6187C2.45749 11.5992 2.49248 11.4719 2.49248 11.4719C2.68253 10.9315 3.28729 10.3682 3.28729 10.3682C4.78974 8.7517 8.79153 6.63569 8.79153 6.63569C12.0595 5.11523 13.0746 5.17938 13.3321 5.25028C13.3586 5.25766 13.3815 5.27415 13.397 5.29684C13.4124 5.31953 13.4193 5.34695 13.4165 5.37424C13.3855 5.71156 12.789 6.31994 12.789 6.31994C10.927 8.17874 8.82653 9.31249 8.82653 9.31249C7.05663 10.3997 4.83937 11.2044 4.83937 11.2044C3.15224 11.8124 2.61247 11.6187 2.61247 11.6187H2.61241Z" fill="#6F7390"/>
<path d="M13.6478 11.7391C14.0556 11.0357 11.8351 8.98762 8.69046 7.16445C5.54578 5.34127 2.66144 4.43475 2.25402 5.13931C1.84659 5.84387 4.06666 7.89075 7.21314 9.71392C10.3596 11.5371 13.2403 12.4437 13.6478 11.7391ZM2.52423 5.41108C2.464 5.26827 2.59115 5.23388 2.59115 5.23388C3.1541 5.12756 3.94487 5.36982 3.94487 5.36982C6.09615 5.85971 9.93219 8.26258 9.93219 8.26258C12.8857 10.3293 13.3386 11.2396 13.4065 11.498C13.4134 11.5245 13.4108 11.5526 13.399 11.5773C13.3872 11.602 13.367 11.6218 13.3421 11.6331C13.0341 11.7741 12.2092 11.564 12.2092 11.564C9.66692 10.8823 7.6337 9.63339 7.6337 9.63339C5.80684 8.64808 4.0004 7.13198 4.0004 7.13198C2.62777 5.97626 2.52465 5.41265 2.52465 5.41265L2.52423 5.41108Z" fill="#6F7390"/>
<path d="M7.93527 9.19793C8.36308 9.19793 8.7099 8.85112 8.7099 8.42331C8.7099 7.99549 8.36308 7.64868 7.93527 7.64868C7.50746 7.64868 7.16064 7.99549 7.16064 8.42331C7.16064 8.85112 7.50746 9.19793 7.93527 9.19793Z" fill="#B7B9C8"/>
<path d="M11.1118 5.91417C11.3599 5.91417 11.5611 5.70608 11.5611 5.44939C11.5611 5.19271 11.3599 4.98462 11.1118 4.98462C10.8637 4.98462 10.6626 5.19271 10.6626 5.44939C10.6626 5.70608 10.8637 5.91417 11.1118 5.91417Z" fill="#B7B9C8"/>
<path d="M3.73666 7.49376C3.98481 7.49376 4.18597 7.28567 4.18597 7.02898C4.18597 6.7723 3.98481 6.56421 3.73666 6.56421C3.48852 6.56421 3.28735 6.7723 3.28735 7.02898C3.28735 7.28567 3.48852 7.49376 3.73666 7.49376Z" fill="#B7B9C8"/>
<path d="M7.02135 13.1952C7.2695 13.1952 7.47067 12.9871 7.47067 12.7304C7.47067 12.4737 7.2695 12.2656 7.02135 12.2656C6.77319 12.2656 6.57202 12.4737 6.57202 12.7304C6.57202 12.9871 6.77319 13.1952 7.02135 13.1952Z" fill="#B7B9C8"/>
</svg>
