<svg width="17" height="16" viewBox="0 0 17 16" fill="none" xmlns="http://www.w3.org/2000/svg">
<g clip-path="url(#clip0_8504_10560)">
<path d="M8.10327 16C12.5215 16 16.1033 12.4183 16.1033 8C16.1033 3.58172 12.5215 0 8.10327 0C3.68499 0 0.103271 3.58172 0.103271 8C0.103271 12.4183 3.68499 16 8.10327 16Z" fill="#404040"/>
<path d="M8.10327 13.5C5.06577 13.5 2.60327 11.0375 2.60327 8C2.60327 4.9625 5.06577 2.5 8.10327 2.5C11.1408 2.5 13.6033 4.9625 13.6033 8C13.6033 11.0375 11.1408 13.5 8.10327 13.5ZM8.10327 12.949C10.8363 12.949 13.0523 10.733 13.0523 8C13.0523 5.267 10.8363 3.051 8.10327 3.051C5.37027 3.051 3.15427 5.267 3.15427 8C3.15427 10.733 5.37027 12.949 8.10327 12.949ZM11.1248 6.06C11.2073 7.529 9.84977 7.917 9.84977 7.917C11.4013 8.1385 11.3183 9.469 11.3183 9.469C11.3183 11.63 8.90727 11.7145 8.90727 11.7145H5.52577V4.286H8.57477C11.1248 4.397 11.1248 6.06 11.1248 6.06ZM7.27177 5.6165V7.4175H8.49177C8.49177 7.4175 9.35077 7.39 9.40577 6.697V6.2535C9.40577 6.2535 9.40577 5.672 8.57427 5.6165H7.27177ZM9.57177 9.6915V9.2475C9.57177 9.2475 9.57177 8.665 8.74077 8.6095H7.27127V10.412H8.65777C8.65777 10.412 9.51677 10.3845 9.57227 9.691L9.57177 9.6915Z" fill="white"/>
</g>
<defs>
<clipPath id="clip0_8504_10560">
<rect width="16" height="16" fill="white" transform="translate(0.103271)"/>
</clipPath>
</defs>
</svg>
