<svg width="17" height="16" viewBox="0 0 17 16" fill="none" xmlns="http://www.w3.org/2000/svg">
<g clip-path="url(#clip0_8504_10464)">
<path d="M8.41577 16C12.834 16 16.4158 12.4183 16.4158 8C16.4158 3.58172 12.834 0 8.41577 0C3.99749 0 0.415771 3.58172 0.415771 8C0.415771 12.4183 3.99749 16 8.41577 16Z" fill="black"/>
<path d="M8.88627 12.2885C8.91227 12.3495 8.92627 12.416 8.92627 12.486C8.92627 12.77 8.69227 13 8.40377 13C8.11527 13 7.88127 12.77 7.88127 12.486C7.88127 12.418 7.89477 12.353 7.91927 12.2935L4.81427 10.53C4.76522 10.5799 4.70669 10.6195 4.64212 10.6465C4.57755 10.6734 4.50824 10.6872 4.43827 10.687C4.14977 10.687 3.91577 10.457 3.91577 10.173C3.91577 9.93301 4.08227 9.73201 4.30777 9.67501V6.16151C4.19635 6.13392 4.0973 6.06998 4.02631 5.97978C3.95531 5.88958 3.91641 5.77829 3.91577 5.66351C3.91577 5.37951 4.14977 5.14951 4.43827 5.14951C4.61127 5.14951 4.76477 5.23251 4.86027 5.36051L7.89627 3.63551C7.88619 3.5958 7.88115 3.55498 7.88127 3.51401C7.88127 3.23001 8.11577 3.00001 8.40377 3.00001C8.48177 2.9996 8.55886 3.0168 8.62929 3.05032C8.69973 3.08385 8.76169 3.13283 8.81056 3.19362C8.85944 3.25442 8.89396 3.32545 8.91157 3.40144C8.92918 3.47743 8.92942 3.55641 8.91227 3.63251L11.9663 5.36751C12.0613 5.23551 12.2168 5.14951 12.3933 5.14951C12.6818 5.14951 12.9158 5.37951 12.9158 5.66351C12.9158 5.90351 12.7483 6.10551 12.5223 6.16201L12.5133 9.67201C12.7438 9.72551 12.9158 9.92951 12.9158 10.173C12.9158 10.457 12.6818 10.687 12.3933 10.687C12.3203 10.6872 12.2482 10.6721 12.1814 10.6429C12.1146 10.6136 12.0546 10.5707 12.0053 10.517L8.88627 12.2885ZM8.74677 12.0985L11.8903 10.3125C11.8609 10.2104 11.8644 10.1016 11.9003 10.0015L8.86777 8.05151C8.80965 8.11297 8.73957 8.16188 8.66183 8.19525C8.5841 8.22861 8.50036 8.24571 8.41577 8.24551C8.32149 8.24574 8.2284 8.22447 8.14358 8.18332C8.05876 8.14216 7.98444 8.08221 7.92627 8.00801L4.93777 10.0215C4.96909 10.1219 4.96839 10.2295 4.93577 10.3295L8.05677 12.102C8.15279 12.0179 8.27615 11.9717 8.40377 11.972C8.53527 11.972 8.65527 12.0195 8.74677 12.098V12.0985ZM8.80627 3.84201C8.73516 3.92593 8.6395 3.98539 8.53277 4.01201L8.52477 7.04001C8.66631 7.06399 8.79487 7.13708 8.88787 7.24645C8.98087 7.35581 9.03235 7.49445 9.03327 7.63801C9.03327 7.71351 9.01927 7.78651 8.99327 7.85301L12.0283 9.80501C12.0958 9.74001 12.1808 9.69351 12.2758 9.67201L12.2848 6.16651C12.1556 6.14017 12.0414 6.06542 11.9655 5.95759C11.8897 5.84975 11.8579 5.71699 11.8768 5.58651L8.80627 3.84201ZM8.00377 3.84451L4.95327 5.57701C4.97493 5.70904 4.94451 5.84434 4.8684 5.95439C4.7923 6.06444 4.67646 6.14066 4.54527 6.16701V9.66951C4.65127 9.69151 4.74527 9.74451 4.81727 9.81951L7.81977 7.79701C7.79864 7.71678 7.79409 7.63309 7.8064 7.55105C7.81872 7.469 7.84764 7.39034 7.8914 7.31985C7.93516 7.24937 7.99284 7.18856 8.0609 7.14113C8.12897 7.0937 8.206 7.06065 8.28727 7.04401L8.29527 4.01701C8.18167 3.9934 8.07914 3.93272 8.00377 3.84451Z" fill="white"/>
</g>
<defs>
<clipPath id="clip0_8504_10464">
<rect width="16" height="16" fill="white" transform="translate(0.415771)"/>
</clipPath>
</defs>
</svg>
