<svg width="16" height="16" viewBox="0 0 16 16" fill="none" xmlns="http://www.w3.org/2000/svg">
<g clip-path="url(#clip0_8504_10615)">
<path d="M2.33079 11.4661C2.59049 11.2077 2.94212 11.063 3.30844 11.0637C3.67476 11.0644 4.02582 11.2105 4.28451 11.4699C4.5432 11.7293 4.68837 12.0807 4.68813 12.447C4.68789 12.8133 4.54227 13.1646 4.28324 13.4236C4.02421 13.6826 3.67296 13.8283 3.30664 13.8285C2.94032 13.8287 2.58888 13.6836 2.32951 13.4249C2.07015 13.1662 1.92406 12.8151 1.92334 12.4488C1.92263 12.0825 2.06733 11.7309 2.32569 11.4712L2.33079 11.4661Z" fill="#FDBA4D"/>
<path d="M11.7948 2.48125C11.9883 2.28772 12.2349 2.15592 12.5033 2.10252C12.7717 2.04912 13.05 2.07652 13.3028 2.18125C13.5557 2.28598 13.7718 2.46334 13.9239 2.6909C14.0759 2.91846 14.1571 3.186 14.1571 3.45969C14.1571 3.73337 14.0759 4.00091 13.9239 4.22847C13.7718 4.45603 13.5557 4.63339 13.3028 4.73812C13.05 4.84285 12.7717 4.87025 12.5033 4.81685C12.2349 4.76345 11.9883 4.63165 11.7948 4.43812C11.5357 4.17914 11.39 3.82791 11.3896 3.46157C11.3893 3.09523 11.5344 2.74374 11.7931 2.48432H11.7948" fill="#FDBA4D"/>
<path d="M4.10522 10.4017L5.56522 11.8617L6.90269 10.5242C6.57262 10.3917 6.2728 10.1937 6.0213 9.94218C5.76979 9.69068 5.57182 9.39086 5.43929 9.06079L4.10522 10.4017Z" fill="#FDBA4D"/>
<path d="M10.6704 6.82921L12.0079 5.49173L10.5479 4.03174L9.21045 5.36922C9.54056 5.50166 9.84041 5.69963 10.0919 5.95117C10.3431 6.20093 10.5401 6.49984 10.6704 6.82921Z" fill="#FDBA4D"/>
<path d="M11.7481 13.354C11.5546 13.1604 11.4228 12.9139 11.3694 12.6455C11.316 12.377 11.3434 12.0988 11.4481 11.8459C11.5528 11.5931 11.7302 11.377 11.9577 11.2249C12.1853 11.0729 12.4528 10.9917 12.7265 10.9917C13.0002 10.9917 13.2678 11.0729 13.4953 11.2249C13.7229 11.377 13.9002 11.5931 14.005 11.8459C14.1097 12.0988 14.1371 12.377 14.0837 12.6455C14.0303 12.9139 13.8985 13.1604 13.705 13.354C13.5767 13.4825 13.4244 13.5845 13.2567 13.6541C13.089 13.7237 12.9093 13.7596 12.7277 13.7598C12.5462 13.76 12.3664 13.7243 12.1986 13.655C12.0308 13.5857 11.8783 13.4839 11.7498 13.3557L11.7481 13.354Z" fill="#5DA9DD"/>
<path d="M2.46953 4.31489C2.276 4.12137 2.1442 3.87481 2.0908 3.60639C2.0374 3.33796 2.0648 3.05973 2.16953 2.80687C2.27426 2.55402 2.45162 2.3379 2.67918 2.18585C2.90674 2.0338 3.17428 1.95264 3.44796 1.95264C3.72165 1.95264 3.98919 2.0338 4.21675 2.18585C4.44431 2.3379 4.62166 2.55402 4.72639 2.80687C4.83113 3.05973 4.85852 3.33796 4.80512 3.60639C4.75172 3.87481 4.61992 4.12137 4.42639 4.31489C4.29802 4.44328 4.14562 4.54513 3.97789 4.61462C3.81015 4.6841 3.63037 4.71987 3.44881 4.71987C3.26726 4.71987 3.08748 4.6841 2.91974 4.61462C2.75201 4.54513 2.59961 4.44328 2.47124 4.31489" fill="#5DA9DD"/>
<path d="M10.4376 11.8036L11.8975 10.3436L10.5601 9.0061C10.4276 9.33617 10.2296 9.63599 9.97807 9.8875C9.72657 10.139 9.42675 10.337 9.09668 10.4695" fill="#5DA9DD"/>
<path d="M7.01427 5.29352L5.67679 3.95605L4.2168 5.41604L5.55427 6.75351C5.68672 6.4234 5.88469 6.12355 6.13623 5.87207C6.38599 5.62087 6.6849 5.42391 7.01427 5.29352Z" fill="#5DA9DD"/>
<path d="M9.45936 1.38512C9.45909 1.75212 9.31307 2.10398 9.05342 2.36334C8.79377 2.62271 8.44175 2.76833 8.07475 2.7682C7.70775 2.76806 7.35583 2.62218 7.09637 2.36262C6.83692 2.10307 6.69116 1.7511 6.69116 1.3841C6.69116 1.0171 6.83692 0.665128 7.09637 0.405574C7.35583 0.146019 7.70775 0.000135451 8.07475 9.42754e-08C8.44175 -0.000135262 8.79377 0.145489 9.05342 0.404852C9.31307 0.664214 9.45909 1.01608 9.45936 1.38308V1.38512Z" fill="#18568C"/>
<path d="M9.45936 14.6149C9.45909 14.9819 9.31307 15.3337 9.05342 15.5931C8.79377 15.8525 8.44175 15.9981 8.07475 15.9979C7.70775 15.9978 7.35583 15.8519 7.09637 15.5924C6.83692 15.3328 6.69116 14.9808 6.69116 14.6138C6.69116 14.2468 6.83692 13.8949 7.09637 13.6353C7.35583 13.3758 7.70775 13.2299 8.07475 13.2297C8.44175 13.2296 8.79377 13.3752 9.05342 13.6346C9.31307 13.894 9.45909 14.2458 9.45936 14.6128V14.6149Z" fill="#18568C"/>
<path d="M8.57727 3.49512H7.70605V5.21035C7.99431 5.16033 8.28902 5.16033 8.57727 5.21035" fill="#18568C"/>
<path d="M8.57727 10.8652C8.28902 10.9153 7.99431 10.9153 7.70605 10.8652V12.5805H8.57727" fill="#18568C"/>
<path d="M14.2029 9.00599C13.8359 9.00572 13.484 8.85971 13.2247 8.60006C12.9653 8.34041 12.8197 7.98838 12.8198 7.62138C12.82 7.25438 12.9658 6.90246 13.2254 6.64301C13.4849 6.38355 13.8369 6.23779 14.2039 6.23779C14.5709 6.23779 14.9229 6.38355 15.1824 6.64301C15.442 6.90246 15.5879 7.25438 15.588 7.62138C15.5881 7.98838 15.4425 8.34041 15.1832 8.60006C14.9238 8.85971 14.5719 9.00572 14.2049 9.00599H14.2029Z" fill="#18578C"/>
<path d="M1.48839 9.24119C1.21446 9.24119 0.94667 9.15996 0.718896 9.00778C0.491121 8.85559 0.313587 8.63929 0.208741 8.38621C0.103894 8.13313 0.0764443 7.85465 0.129862 7.58597C0.183279 7.31729 0.315165 7.07049 0.508844 6.87676C0.702522 6.68303 0.949295 6.55109 1.21796 6.4976C1.48662 6.44412 1.76511 6.4715 2.01822 6.57629C2.27132 6.68107 2.48767 6.85855 2.63991 7.08629C2.79215 7.31403 2.87344 7.58179 2.87351 7.85573C2.87356 8.03765 2.83776 8.2178 2.76817 8.38589C2.69858 8.55398 2.59656 8.70672 2.46794 8.83537C2.33931 8.96403 2.1866 9.06609 2.01853 9.13572C1.85046 9.20535 1.67032 9.24119 1.48839 9.24119Z" fill="#18578C"/>
<path d="M10.6809 8.29154H12.3961V7.41895H10.6809C10.7309 7.7072 10.7309 8.00192 10.6809 8.29018V8.29154Z" fill="#18578C"/>
<path d="M5.35146 8.29163C5.30144 8.00337 5.30144 7.70866 5.35146 7.42041H3.63623V8.29163" fill="#18578C"/>
<path d="M9.99642 7.9583C9.99642 8.34668 9.88125 8.72633 9.66548 9.04926C9.44971 9.37218 9.14303 9.62387 8.78422 9.77249C8.4254 9.92112 8.03058 9.96001 7.64966 9.88424C7.26875 9.80847 6.91886 9.62145 6.64424 9.34682C6.36961 9.0722 6.18259 8.72231 6.10682 8.34139C6.03106 7.96048 6.06994 7.56565 6.21857 7.20684C6.36719 6.84802 6.61888 6.54134 6.9418 6.32557C7.26473 6.1098 7.64438 5.99463 8.03276 5.99463C8.5535 5.99481 9.05286 6.20175 9.42108 6.56997C9.78929 6.93819 9.99624 7.43756 9.99642 7.9583Z" fill="#18568B"/>
</g>
<defs>
<clipPath id="clip0_8504_10615">
<rect width="15.4847" height="16" fill="white" transform="translate(0.103271)"/>
</clipPath>
</defs>
</svg>
