<svg width="17" height="16" viewBox="0 0 17 16" fill="none" xmlns="http://www.w3.org/2000/svg">
<g clip-path="url(#clip0_8504_10468)">
<path d="M5.0492 7.22213L7.97375 4.29758L10.8997 7.22339L12.6013 5.52174L7.97375 0.894287L3.34768 5.52036L5.04926 7.222L5.0492 7.22213ZM0.444336 8.4237L2.14604 6.72175L3.84763 8.42334L2.14592 10.125L0.444336 8.4237ZM5.0492 9.62545L7.97375 12.5498L10.8996 9.62407L12.6022 11.3248L12.6013 11.3257L7.97375 15.9531L3.34768 11.327L3.34527 11.3246L5.04938 9.62527L5.0492 9.62545ZM12.0999 8.42442L13.8016 6.72271L15.5032 8.4243L13.8015 10.126L12.0999 8.42442Z" fill="#F3BA2F"/>
<path d="M9.69938 8.42248H9.7001L7.97349 6.6958L6.69726 7.97162L6.55065 8.11829L6.24826 8.42073L6.24585 8.42308L6.24826 8.42555L7.97349 10.151L9.70022 8.42428L9.70106 8.42332L9.6995 8.42248" fill="#F3BA2F"/>
</g>
<defs>
<clipPath id="clip0_8504_10468">
<rect width="16" height="16" fill="white" transform="translate(0.415771)"/>
</clipPath>
</defs>
</svg>
