<svg width="17" height="16" viewBox="0 0 17 16" fill="none" xmlns="http://www.w3.org/2000/svg">
<g clip-path="url(#clip0_8504_10406)">
<path d="M8.76416 16C13.1824 16 16.7642 12.4183 16.7642 8C16.7642 3.58172 13.1824 0 8.76416 0C4.34588 0 0.76416 3.58172 0.76416 8C0.76416 12.4183 4.34588 16 8.76416 16Z" fill="#000D2B"/>
<path d="M8.72445 2.93994L6.46545 4.26344L8.72445 5.58744L11.0259 4.26344L8.72445 2.93994ZM9.09595 10.0069V12.6544L12.1644 10.9039V8.25594L9.09595 10.0069ZM11.3974 5.09594V7.74394L9.09545 9.06794V6.41994L11.3974 5.09594ZM5.85645 7.74394L8.15845 9.06794V6.41994L5.85645 5.09594V7.74394ZM5.85645 11.3309L8.15845 12.6544V10.0069L5.85645 8.68344V11.3304V11.3309Z" fill="white"/>
</g>
<defs>
<clipPath id="clip0_8504_10406">
<rect width="16" height="16" fill="white" transform="translate(0.76416)"/>
</clipPath>
</defs>
</svg>
