<svg width="17" height="16" viewBox="0 0 17 16" fill="none" xmlns="http://www.w3.org/2000/svg">
<g clip-path="url(#clip0_8504_10861)">
<path d="M8.66235 16C13.0806 16 16.6624 12.4183 16.6624 8C16.6624 3.58172 13.0806 0 8.66235 0C4.24408 0 0.662354 3.58172 0.662354 8C0.662354 12.4183 4.24408 16 8.66235 16Z" fill="#FE5D86"/>
<path d="M4.66235 4.5195C4.66235 4.2325 4.89835 4 5.18935 4H8.98335C11.2214 4 12.0109 4.264 12.5549 4.8005C12.7231 4.97137 12.8536 5.17561 12.938 5.40005C13.0224 5.62448 13.0588 5.86412 13.0449 6.1035C13.0449 7.029 12.5464 7.6565 11.2014 7.932C12.5004 8.159 13.1599 8.687 13.1599 9.749C13.1722 9.99669 13.1332 10.2443 13.0455 10.4762C12.9577 10.7082 12.823 10.9195 12.6499 11.097C12.1174 11.622 11.2474 12 8.90585 12H5.18935C5.0506 12.0009 4.91715 11.9467 4.81833 11.8493C4.71951 11.7519 4.66341 11.6193 4.66235 11.4805V4.5195ZM7.54285 7.5005C7.54285 7.309 7.70035 7.154 7.89435 7.154H9.11585C9.81285 7.154 10.3344 7.12 10.5759 6.87C10.6321 6.81094 10.6755 6.74086 10.7033 6.66418C10.7311 6.5875 10.7427 6.50589 10.7374 6.4245C10.7524 6.2645 10.6984 6.1055 10.5874 5.987C10.3424 5.746 9.82135 5.7035 9.11585 5.7035H6.84235V10.3195H9.09235C9.85835 10.3195 10.4259 10.2625 10.6909 9.9985C10.8129 9.8735 10.8759 9.7035 10.8639 9.53C10.8749 9.3535 10.8124 9.18 10.6909 9.05C10.4229 8.7865 9.85585 8.7665 9.09235 8.7665H7.90235C7.85466 8.76768 7.80722 8.75921 7.76289 8.7416C7.71855 8.72398 7.67823 8.69759 7.64435 8.664C7.61073 8.6308 7.58431 8.59101 7.56676 8.54714C7.54921 8.50326 7.5409 8.45623 7.54235 8.409L7.54285 7.5005Z" fill="white"/>
</g>
<defs>
<clipPath id="clip0_8504_10861">
<rect width="16" height="16" fill="white" transform="translate(0.662354)"/>
</clipPath>
</defs>
</svg>
