<svg width="17" height="16" viewBox="0 0 17 16" fill="none" xmlns="http://www.w3.org/2000/svg">
<g clip-path="url(#clip0_8504_10486)">
<path d="M15.223 10.2595C14.2174 14.2932 10.1319 16.748 6.0978 15.7421C2.06536 14.7365 -0.389441 10.6508 0.616608 6.61747C1.62177 2.58338 5.70721 0.12839 9.74009 1.134C13.7739 2.1396 16.2286 6.22574 15.2229 10.2596L15.2229 10.2595H15.223Z" fill="#F7931A"/>
<path d="M11.2524 7.3594C11.4023 6.3574 10.6395 5.81878 9.59631 5.45948L9.93471 4.10218L9.10848 3.8963L8.77906 5.21786C8.56185 5.16369 8.33878 5.11264 8.11708 5.06204L8.4489 3.73176L7.62319 3.52588L7.2846 4.88273C7.10485 4.84181 6.92831 4.80136 6.75703 4.75874L6.75798 4.75448L5.6186 4.46995L5.39881 5.35242C5.39881 5.35242 6.0118 5.49293 5.99888 5.50158C6.33346 5.58508 6.39396 5.80657 6.38392 5.98212L5.99844 7.5284C6.02148 7.53425 6.05136 7.54271 6.08434 7.55596C6.05677 7.54912 6.02744 7.54165 5.997 7.53436L5.4567 9.70048C5.41581 9.80213 5.31203 9.95468 5.07811 9.89675C5.08639 9.90875 4.47759 9.74689 4.47759 9.74689L4.06738 10.6927L5.14258 10.9607C5.34261 11.0108 5.53862 11.0633 5.73165 11.1127L5.38975 12.4855L6.21503 12.6914L6.55361 11.3331C6.77907 11.3943 6.99786 11.4508 7.21206 11.504L6.87461 12.8559L7.70088 13.0618L8.04274 11.6915C9.45163 11.9581 10.511 11.8506 10.9569 10.5763C11.3162 9.55028 10.939 8.95849 10.1978 8.57257C10.7377 8.44807 11.1443 8.09299 11.2527 7.35951L11.2525 7.35932L11.2524 7.3594ZM9.36471 10.0065C9.10937 11.0325 7.3819 10.4779 6.82184 10.3388L7.27554 8.51998C7.83558 8.6598 9.63157 8.93648 9.36474 10.0065H9.36471ZM9.62023 7.34453C9.3873 8.27778 7.94952 7.80365 7.48311 7.68739L7.89446 6.03784C8.36087 6.1541 9.86287 6.37109 9.6203 7.34453H9.62023Z" fill="white"/>
</g>
<defs>
<clipPath id="clip0_8504_10486">
<rect width="16" height="16" fill="white" transform="translate(0.36792)"/>
</clipPath>
</defs>
</svg>
