<svg width="17" height="16" viewBox="0 0 17 16" fill="none" xmlns="http://www.w3.org/2000/svg">
<g clip-path="url(#clip0_8504_10533)">
<path d="M8.9458 16C13.3641 16 16.9458 12.4183 16.9458 8C16.9458 3.58172 13.3641 0 8.9458 0C4.52752 0 0.945801 3.58172 0.945801 8C0.945801 12.4183 4.52752 16 8.9458 16Z" fill="black"/>
<path d="M14.8172 6.76951C14.7382 6.38541 14.6213 6.01008 14.4682 5.64901C14.3174 5.29337 14.1329 4.95298 13.9172 4.63251C13.7034 4.3159 13.4594 4.0207 13.1887 3.75101C12.9189 3.48033 12.6235 3.23636 12.3067 3.02251C11.9858 2.8079 11.6457 2.62345 11.2907 2.47151C10.5567 2.16019 9.76756 1.99976 8.97024 1.99976C8.17293 1.99976 7.38377 2.16019 6.64974 2.47151C5.93997 2.77089 5.2953 3.20565 4.75174 3.75151C4.48111 4.02104 4.23715 4.31608 4.02324 4.63251C3.80861 4.95362 3.62415 5.2939 3.47224 5.64901C3.16092 6.38303 3.00049 7.1722 3.00049 7.96951C3.00049 8.76683 3.16092 9.55599 3.47224 10.29C3.61924 10.645 3.80924 10.9815 4.02324 11.306C4.23713 11.6228 4.4811 11.9181 4.75174 12.188C5.02159 12.4587 5.31696 12.7027 5.63374 12.9165C5.95174 13.1305 6.29474 13.3145 6.64974 13.4675C7.38377 13.7788 8.17293 13.9393 8.97024 13.9393C9.76756 13.9393 10.5567 13.7788 11.2907 13.4675C11.6457 13.3205 11.9822 13.1305 12.3067 12.9165C12.6235 12.7027 12.9189 12.4587 13.1887 12.188C13.4594 11.9182 13.7034 11.6228 13.9172 11.306C14.1312 10.988 14.3152 10.645 14.4682 10.29C14.9393 9.17915 15.061 7.95123 14.8172 6.76951ZM8.97574 13.192C6.09224 13.192 3.75974 10.853 3.75974 7.97551C3.75974 5.09801 6.09874 2.75901 8.97574 2.75901C11.8532 2.75901 14.1922 5.09801 14.1922 7.97551C14.1922 10.853 11.8537 13.192 8.97574 13.192Z" fill="white"/>
<path d="M9.06826 12.7389H9.20926C9.23376 12.7389 9.25776 12.7389 9.28226 12.7324H9.28876C9.31326 12.7324 9.33126 12.7324 9.35576 12.7264H9.37426C9.39276 12.7264 9.41126 12.7264 9.42926 12.7204H9.44776C9.46626 12.7204 9.48476 12.7144 9.50926 12.7144H9.52126C9.54576 12.7144 9.57026 12.7079 9.59476 12.7079C9.61926 12.7079 9.63776 12.7019 9.66226 12.6959H9.67426C9.69276 12.6959 9.71126 12.6899 9.72926 12.6899H9.74176C9.76626 12.6834 9.78476 12.6834 9.80926 12.6774C9.85776 12.6714 9.90676 12.6589 9.94976 12.6469H9.96226C9.98026 12.6409 10.0048 12.6409 10.0233 12.6344H10.0293C10.0783 12.6224 10.1213 12.6099 10.1703 12.5979C9.71168 12.6124 9.25308 12.5693 8.80526 12.4694C8.13126 12.3224 7.48876 12.0594 6.94376 11.6059C6.51411 11.2483 6.16929 10.7997 5.93426 10.2926C5.69922 9.78542 5.57985 9.23236 5.58476 8.6734C5.58917 7.83951 5.88589 7.03357 6.42326 6.3959C7.12126 5.5694 8.11326 5.1344 9.12926 5.1099H9.27026V4.2959H9.11126C8.80218 4.30156 8.49445 4.33841 8.19276 4.4059C7.88918 4.47455 7.5937 4.57511 7.31126 4.7059C7.02326 4.8409 6.75376 5.0059 6.50276 5.1959C6.24339 5.39306 6.00721 5.61901 5.79876 5.8694C5.60249 6.10114 5.43215 6.35364 5.29076 6.6224C5.15089 6.88149 5.03796 7.15425 4.95376 7.4364C4.87117 7.71418 4.81591 7.99937 4.78876 8.2879L4.77026 8.5569V8.7159C4.77626 9.0284 4.81326 9.3344 4.88026 9.6344C4.94776 9.9409 5.05176 10.2344 5.18026 10.5164C5.33376 10.8529 5.60926 11.3489 6.01926 11.7224C6.85642 12.3823 7.89177 12.7405 8.95776 12.7389H9.06826Z" fill="white"/>
<path d="M10.4027 11.9551C10.1007 11.9443 9.79992 11.9116 9.50269 11.8571C8.24169 11.6306 7.15769 10.8591 6.76019 9.69612C6.27619 8.28162 7.01719 6.75112 8.42519 6.28612C8.69352 6.1962 8.9747 6.15061 9.25769 6.15112C9.61919 6.15112 9.98019 6.22462 10.3112 6.35912L10.6537 5.63062C10.5507 5.58933 10.4467 5.55065 10.3417 5.51462C9.99091 5.40453 9.62535 5.34871 9.25769 5.34912C8.88935 5.34981 8.52351 5.40975 8.17419 5.52662C7.72837 5.67367 7.31778 5.91131 6.96819 6.22462C6.7996 6.37481 6.64588 6.54091 6.50919 6.72062C6.37407 6.89828 6.25715 7.08907 6.16019 7.29012C5.96277 7.69433 5.84625 8.13322 5.81719 8.58212C5.78669 9.04712 5.84769 9.51212 6.00069 9.95312C6.15659 10.4068 6.40712 10.8221 6.73569 11.1716C7.03569 11.4961 7.38469 11.7411 7.80669 11.9676C8.24769 12.2001 8.79269 12.3226 9.36169 12.4026C9.72919 12.4511 10.2192 12.4636 10.5067 12.4636C10.7577 12.3716 10.8617 12.3286 10.9967 12.2736C11.1132 12.2186 11.2292 12.1636 11.3457 12.0961C11.4622 12.0286 11.4807 12.0161 11.6762 11.8881C11.6936 11.8773 11.71 11.8649 11.7252 11.8511C11.0517 11.9676 10.8802 11.9611 10.4027 11.9551Z" fill="white"/>
<path d="M11.9094 11.043C11.7194 11.055 11.4499 11.073 11.1439 11.073C10.5989 11.073 9.93136 11.0245 9.36236 10.8345C8.48036 10.541 7.64786 9.78799 7.64786 8.85699C7.64766 8.63665 7.69091 8.41842 7.77515 8.21481C7.85938 8.0112 7.98293 7.82619 8.13874 7.67038C8.29455 7.51457 8.47956 7.39102 8.68317 7.30678C8.88678 7.22255 9.10501 7.1793 9.32536 7.17949C9.95586 7.17949 10.5009 7.52849 10.7889 8.03649L11.5174 7.67549C11.4031 7.46044 11.2564 7.2643 11.0824 7.09399C10.8517 6.86297 10.5778 6.6797 10.2763 6.55465C9.97476 6.4296 9.65154 6.36523 9.32511 6.36523C8.99868 6.36523 8.67545 6.4296 8.37392 6.55465C8.07239 6.6797 7.79848 6.86297 7.56786 7.09399C7.33691 7.32461 7.1537 7.59849 7.0287 7.89997C6.9037 8.20145 6.83935 8.52462 6.83936 8.85099C6.84099 9.19304 6.91423 9.53096 7.05436 9.84299C7.18236 10.1245 7.36036 10.388 7.58686 10.633C7.98486 11.061 8.52936 11.404 9.11136 11.6C9.66836 11.7835 10.4889 11.851 11.2849 11.796C11.5049 11.7775 11.6704 11.759 11.9519 11.698C12.2235 11.4836 12.4701 11.2392 12.6869 10.9695C12.4969 10.988 12.1479 11.0245 11.9094 11.043Z" fill="white"/>
</g>
<defs>
<clipPath id="clip0_8504_10533">
<rect width="16" height="16" fill="white" transform="translate(0.945801)"/>
</clipPath>
</defs>
</svg>
