<svg width="17" height="16" viewBox="0 0 17 16" fill="none" xmlns="http://www.w3.org/2000/svg">
<g clip-path="url(#clip0_8504_10611)">
<path d="M8.10327 16C12.5215 16 16.1033 12.4183 16.1033 8C16.1033 3.58172 12.5215 0 8.10327 0C3.68499 0 0.103271 3.58172 0.103271 8C0.103271 12.4183 3.68499 16 8.10327 16Z" fill="#272731"/>
<path d="M13.6033 8.015C13.6033 9.47 13.0308 10.865 12.0103 11.894C11.5069 12.4025 10.9078 12.8063 10.2475 13.082C9.58718 13.3576 8.8788 13.4997 8.16327 13.5V12.099C10.1373 12.105 11.8258 10.6705 12.1553 8.708H10.2103C10.2873 8.48 10.3268 8.241 10.3273 8C10.3241 7.75946 10.2847 7.52077 10.2103 7.292H12.1553C11.8213 5.332 10.1353 3.9 8.16327 3.901V2.5C11.1673 2.529 13.5908 4.986 13.6033 8.015ZM9.97627 9.1945H11.5123C10.9443 10.847 9.27627 11.8445 7.56577 11.5545C5.85577 11.2635 4.60327 9.7705 4.60327 8.0215C4.60327 6.2725 5.85577 4.78 7.56577 4.4895C9.27627 4.1995 10.9443 5.197 11.5123 6.8495H9.97627C9.80335 6.58669 9.57964 6.3611 9.31827 6.186C9.07931 6.03228 8.81224 5.92747 8.53252 5.87762C8.25279 5.82776 7.96596 5.83387 7.68861 5.89557C7.41126 5.95727 7.14889 6.07334 6.91668 6.23708C6.68447 6.40082 6.48703 6.60897 6.33577 6.8495C5.69377 7.863 5.98827 9.2095 6.99377 9.857C7.2327 10.0107 7.49974 10.1156 7.77945 10.1655C8.05915 10.2154 8.34597 10.2093 8.62332 10.1477C8.90067 10.086 9.16305 9.96997 9.39528 9.80628C9.6275 9.64259 9.82498 9.43449 9.97627 9.194V9.1945Z" fill="white"/>
</g>
<defs>
<clipPath id="clip0_8504_10611">
<rect width="16" height="16" fill="white" transform="translate(0.103271)"/>
</clipPath>
</defs>
</svg>
