<svg width="17" height="16" viewBox="0 0 17 16" fill="none" xmlns="http://www.w3.org/2000/svg">
<g clip-path="url(#clip0_8504_10893)">
<path fill-rule="evenodd" clip-rule="evenodd" d="M0.592773 0H16.5928V16H0.592773V0Z" fill="#0886FB"/>
<path fill-rule="evenodd" clip-rule="evenodd" d="M13.8533 8.28823C13.8629 8.19638 13.8436 8.10384 13.7981 8.02345C13.6712 7.7975 13.3569 7.70377 13.1474 7.80286C13.1011 7.82566 13.0599 7.85754 13.0262 7.89658L10.8648 9.80997V12.0173C10.8648 12.0173 8.73614 11.6919 8.26214 11.565C7.65559 11.405 7.22444 11.2892 6.82844 10.92C6.69053 10.7931 6.29921 10.4292 6.27712 9.91575V9.7062L6.26608 4.06513L9.06184 4.48891C9.28244 4.5274 9.8448 4.65427 10.286 5.05797C10.4283 5.19166 10.5521 5.34375 10.6542 5.51021C10.8253 5.78034 10.8527 5.93466 10.8581 6.03408V7.80821C10.8677 7.9157 10.91 8.01766 10.9792 8.10044C11.05 8.19045 11.1528 8.24968 11.2661 8.2658C11.3762 8.27685 11.4646 8.23233 11.553 8.19417C11.606 8.16861 11.656 8.13717 11.702 8.10044L13.9022 6.25333V4.35166C13.8801 3.79465 13.5932 3.39229 13.4058 3.12751C13.301 2.98424 12.7607 2.26187 11.7789 1.92545C11.6906 1.89801 11.6189 1.87591 11.5694 1.85851L9.15523 1.41765C8.96997 1.37961 8.78209 1.35566 8.5932 1.34602C8.48307 1.34066 8.03084 1.31254 7.60069 1.3902C6.7953 1.53983 5.71442 2.11793 5.5601 2.97253C5.55073 3.02719 5.54525 3.08245 5.5437 3.13789H5.28461C5.0356 3.22828 4.79853 3.34867 4.57864 3.4964C4.35805 3.64536 3.91686 3.94864 3.60253 4.5341C3.3979 4.92593 3.28838 5.36043 3.28285 5.80244V11.1503C3.28193 11.2423 3.28562 11.3344 3.2939 11.4261C3.2939 11.4261 3.32738 11.8783 3.44822 12.263C3.58613 12.6874 4.01058 13.388 4.76074 13.8346C4.98134 13.9685 5.47742 14.0826 6.47027 14.3143C7.07812 14.4602 7.69511 14.5651 8.31704 14.6282C8.70869 14.6667 8.89614 14.6667 9.06151 14.6557C9.38118 14.6393 9.81702 14.6115 10.3021 14.3799C11.1346 13.9782 11.5152 13.2548 11.6076 13.0673C11.635 13.0121 11.6571 12.9626 11.6745 12.9294H11.7846C12.3321 12.7613 12.82 12.4399 13.1905 12.0032C13.3338 11.8378 13.8192 11.2423 13.8687 10.3874C13.8742 10.2901 13.8742 10.1925 13.8687 10.0952C13.8523 9.48293 13.8523 8.88742 13.8523 8.28756L13.8533 8.28823ZM6.84484 2.90625C7.00899 2.7643 7.19054 2.64383 7.38512 2.54774C7.56722 2.45937 8.03586 2.23911 8.57077 2.36564C8.63772 2.38204 8.69195 2.39911 8.72509 2.40983L11.2176 2.8788C11.6601 2.93614 12.0693 3.14462 12.3758 3.46895C12.4695 3.56937 12.8391 3.97642 12.8833 4.57193C12.8889 4.64345 12.8889 4.7153 12.8833 4.78683V5.77398L11.8737 6.55695V6.06588C11.866 5.9642 11.8531 5.86298 11.8352 5.7626C11.762 5.37685 11.6017 5.01289 11.3665 4.69846C11.2782 4.57159 10.771 3.87131 9.85016 3.56803C9.80062 3.55163 9.76179 3.54059 9.72898 3.52954L6.7953 3.01671L6.84484 2.90658V2.90625ZM10.2693 13.1407C10.0155 13.5323 9.43675 13.5929 9.14988 13.6203C9.01797 13.6334 8.8853 13.6371 8.75287 13.6314L5.73651 13.1075L5.65383 13.069C5.44232 13.0271 5.24154 12.9426 5.06368 12.8206C4.87445 12.6898 4.7148 12.5207 4.59504 12.3242C4.48449 12.1517 4.40433 11.9615 4.35805 11.7618C4.32191 11.6027 4.30705 11.4395 4.31386 11.2765L4.3085 5.75156V5.66887C4.3306 5.09546 4.76074 4.65427 5.09716 4.38949L5.23507 4.31786C5.24043 6.10437 5.24043 7.89123 5.24612 9.67774C5.24612 9.72729 5.24076 9.79892 5.24612 9.88729C5.28461 10.7088 5.76999 11.2989 5.91895 11.47C6.53119 12.1866 7.33055 12.4072 7.84907 12.5451C8.1798 12.6335 10.3469 12.9974 10.3469 12.9974C10.3252 13.0472 10.2993 13.0951 10.2696 13.1407H10.2693ZM12.8829 10.2679C12.8488 10.6174 12.7126 10.9492 12.4913 11.2219C12.336 11.4088 12.1447 11.5626 11.9289 11.6741V10.1852C12.2486 9.92043 12.5686 9.65599 12.8829 9.39656C12.8883 9.68344 12.8883 9.97567 12.8829 10.2669V10.2679Z" fill="#FFFDFC"/>
</g>
<defs>
<clipPath id="clip0_8504_10893">
<rect width="16" height="16" fill="white" transform="translate(0.592773)"/>
</clipPath>
</defs>
</svg>
