<svg width="17" height="16" viewBox="0 0 17 16" fill="none" xmlns="http://www.w3.org/2000/svg">
<g clip-path="url(#clip0_8504_10904)">
<path d="M10.2039 8.37336C10.2039 8.26669 10.2039 8.21336 10.0972 8.16003C9.72387 7.89336 9.2972 7.62669 8.92387 7.36003C8.8844 7.33365 8.838 7.31958 8.79054 7.31958C8.74307 7.31958 8.69667 7.33365 8.6572 7.36003L7.48387 8.21336C7.43489 8.23834 7.39391 8.27659 7.36562 8.32374C7.33733 8.37089 7.32286 8.42505 7.32387 8.48002C7.32137 8.595 7.28419 8.70654 7.2172 8.80002C7.19083 8.83949 7.17676 8.88589 7.17676 8.93336C7.17676 8.98082 7.19083 9.02722 7.2172 9.06669C7.64387 9.92003 8.0172 10.7734 8.44387 11.6267C8.60387 11.8934 8.71054 12.2134 8.87054 12.5334C8.92387 12.48 8.92387 12.4267 8.9772 12.3734C9.4572 11.3067 9.88387 10.24 10.3639 9.17336C10.4172 9.06669 10.4172 9.01336 10.3105 8.96002C10.2506 8.87616 10.2099 8.78007 10.1915 8.67864C10.173 8.57721 10.1773 8.47296 10.2039 8.37336Z" fill="#CD0124"/>
<path d="M8.39043 6.98672C7.32376 6.24005 6.2571 5.49338 5.24376 4.80005L5.19043 4.85338C5.24376 4.96005 5.24376 5.01338 5.2971 5.12005L6.4171 7.52005C6.52376 7.73338 6.5771 7.94672 6.8971 8.00005C6.98927 8.00835 7.08187 7.98983 7.16376 7.94672C7.48376 7.68005 7.8571 7.46672 8.1771 7.20005L8.39043 6.98672Z" fill="#CD0124"/>
<path d="M8.71045 0C7.1282 0 5.58148 0.469192 4.26589 1.34824C2.9503 2.22729 1.92492 3.47672 1.31942 4.93853C0.713916 6.40034 0.555489 8.00887 0.864171 9.56072C1.17285 11.1126 1.93478 12.538 3.0536 13.6569C4.17242 14.7757 5.59788 15.5376 7.14973 15.8463C8.70158 16.155 10.3101 15.9965 11.7719 15.391C13.2337 14.7855 14.4832 13.7602 15.3622 12.4446C16.2413 11.129 16.7105 9.58225 16.7105 8C16.7105 5.87827 15.8676 3.84344 14.3673 2.34315C12.867 0.842855 10.8322 0 8.71045 0V0ZM13.0305 4.64C12.9238 4.64 12.8705 4.69333 12.8171 4.8C12.3905 5.86667 11.9105 6.93333 11.4838 8V8.21333C11.5264 8.3035 11.549 8.40179 11.5502 8.5015C11.5514 8.60121 11.531 8.7 11.4905 8.79113C11.45 8.88225 11.3903 8.96357 11.3155 9.02953C11.2407 9.09549 11.1526 9.14454 11.0571 9.17333C11.0038 9.17333 10.9505 9.22667 10.8971 9.33333C10.4171 10.4 9.93712 11.52 9.51045 12.5867C9.48408 12.6261 9.47001 12.6725 9.47001 12.72C9.47001 12.7675 9.48408 12.8139 9.51045 12.8533C9.61011 12.9901 9.65449 13.1595 9.63471 13.3276C9.61494 13.4956 9.53247 13.6501 9.40379 13.76C9.29198 13.8704 9.14397 13.9367 8.98711 13.9465C8.83025 13.9563 8.67514 13.909 8.55045 13.8133C8.48386 13.7679 8.42688 13.7097 8.38279 13.6422C8.33869 13.5747 8.30835 13.4991 8.29349 13.4198C8.27862 13.3406 8.27954 13.2592 8.29618 13.1803C8.31282 13.1014 8.34485 13.0265 8.39045 12.96C8.4166 12.9107 8.43028 12.8558 8.43028 12.8C8.43028 12.7442 8.4166 12.6893 8.39045 12.64C7.85712 11.5733 7.37712 10.5067 6.84379 9.44C6.81951 9.38579 6.78265 9.33816 6.73627 9.30105C6.6899 9.26395 6.63533 9.23845 6.57712 9.22667C6.46844 9.20859 6.36576 9.16448 6.27783 9.0981C6.18991 9.03173 6.11935 8.94506 6.07219 8.84549C6.02503 8.74593 6.00266 8.63643 6.007 8.52635C6.01134 8.41627 6.04226 8.30887 6.09712 8.21333C6.12349 8.17387 6.13756 8.12747 6.13756 8.08C6.13756 8.03253 6.12349 7.98613 6.09712 7.94667C5.61712 6.88 5.13712 5.86667 4.60379 4.8C4.60379 4.74667 4.55045 4.69333 4.39045 4.69333C4.2336 4.67128 4.0893 4.59537 3.98227 4.47861C3.87524 4.36185 3.81214 4.21151 3.80379 4.05333C3.81365 3.90517 3.86349 3.76245 3.94801 3.64036C4.03254 3.51827 4.14858 3.42138 4.28379 3.36C4.42733 3.3044 4.58577 3.30061 4.7318 3.34929C4.87784 3.39796 5.00232 3.49606 5.08379 3.62667C5.13712 3.73333 5.19045 3.73333 5.35045 3.73333H12.1238C12.2305 3.73333 12.3371 3.73333 12.3905 3.57333C12.4632 3.44771 12.5782 3.35196 12.7149 3.30313C12.8516 3.2543 13.0012 3.25556 13.1371 3.30667C13.2696 3.35683 13.3851 3.44363 13.4701 3.55696C13.5551 3.67028 13.6061 3.80544 13.6171 3.94667C13.6191 4.11348 13.5609 4.27541 13.4531 4.40277C13.3454 4.53012 13.1953 4.61435 13.0305 4.64Z" fill="#CD0124"/>
<path d="M8.71034 6.61327C8.74981 6.63964 8.79621 6.65371 8.84368 6.65371C8.89114 6.65371 8.93754 6.63964 8.97701 6.61327C9.99034 5.8666 11.0037 5.17327 11.9637 4.4266C12.017 4.37327 12.0703 4.37327 12.0703 4.31994V4.2666H5.35034C5.41137 4.28899 5.4662 4.32555 5.51034 4.37327L8.71034 6.61327Z" fill="#CD0124"/>
<path d="M9.2439 6.98674C9.67056 7.30674 10.0972 7.57341 10.5239 7.84007C10.6306 7.89341 10.7906 7.84007 10.9506 7.84007C11.0039 7.84007 11.0572 7.73341 11.0572 7.68007C11.4306 6.82674 11.8039 5.92007 12.1772 5.06674C12.1772 5.01341 12.2306 4.96007 12.2306 4.90674H12.1772C11.2706 5.54674 10.2572 6.24007 9.2439 6.98674Z" fill="#CD0124"/>
</g>
<defs>
<clipPath id="clip0_8504_10904">
<rect width="16" height="16" fill="white" transform="translate(0.710449)"/>
</clipPath>
</defs>
</svg>
