<svg width="17" height="16" viewBox="0 0 17 16" fill="none" xmlns="http://www.w3.org/2000/svg">
<g clip-path="url(#clip0_8504_10910)">
<path d="M8.70973 16.0001C7.12778 15.9998 5.58144 15.5304 4.26623 14.6513C2.95102 13.7722 1.92599 12.5229 1.32075 11.0613C0.715515 9.59972 0.557241 7.99148 0.865943 6.43994C1.17464 4.8884 1.93646 3.46323 3.05507 2.34462C4.17368 1.22601 5.59885 0.464196 7.15039 0.155494C8.70193 -0.153208 10.3102 0.00506593 11.7718 0.610305C13.2334 1.21554 14.4827 2.24057 15.3618 3.55578C16.2408 4.87099 16.7102 6.41733 16.7105 7.99929C16.7107 9.05003 16.5039 10.0905 16.1019 11.0613C15.6999 12.0321 15.1106 12.9142 14.3676 13.6572C13.6246 14.4002 12.7426 14.9895 11.7718 15.3915C10.801 15.7935 9.76047 16.0003 8.70973 16.0001ZM8.70973 15.3757C10.1683 15.3757 11.594 14.9432 12.8068 14.1329C14.0195 13.3226 14.9648 12.171 15.523 10.8235C16.0812 9.47601 16.2274 7.99327 15.9429 6.56275C15.6585 5.13223 14.9563 3.81816 13.9251 2.78672C12.8938 1.75527 11.5799 1.05276 10.1495 0.76802C8.71901 0.48328 7.23624 0.629094 5.88865 1.18703C4.54105 1.74496 3.38916 2.68995 2.57861 3.90252C1.76806 5.11508 1.33527 6.54076 1.33495 7.99929C1.33709 9.95395 2.11497 11.8278 3.49773 13.2094C4.88049 14.5909 6.75507 15.3672 8.70973 15.3676V15.3757Z" fill="black"/>
<path d="M8.72582 8.70287C9.10552 8.70287 9.41332 8.39507 9.41332 8.01537C9.41332 7.63568 9.10552 7.32788 8.72582 7.32788C8.34613 7.32788 8.03833 7.63568 8.03833 8.01537C8.03833 8.39507 8.34613 8.70287 8.72582 8.70287Z" fill="black"/>
</g>
<defs>
<clipPath id="clip0_8504_10910">
<rect width="16" height="16" fill="white" transform="translate(0.710449)"/>
</clipPath>
</defs>
</svg>
