<svg width="17" height="16" viewBox="0 0 17 16" fill="none" xmlns="http://www.w3.org/2000/svg">
<g clip-path="url(#clip0_8504_10963)">
<path fill-rule="evenodd" clip-rule="evenodd" d="M0.806396 0H16.8064V16H0.806396V0Z" fill="#2992FB"/>
<path fill-rule="evenodd" clip-rule="evenodd" d="M11.8763 4.64267L11.5888 4.93017C10.877 4.34063 9.9805 4.02027 9.05629 4.02517C8.04749 4.02525 7.07627 4.40793 6.33855 5.096C5.60084 5.78407 5.15154 6.72632 5.08129 7.73267H4.66879C4.73581 6.61558 5.22765 5.56646 6.04344 4.8004C6.85924 4.03434 7.9372 3.60938 9.05629 3.61267C10.0882 3.61798 11.086 3.98213 11.8788 4.64267H11.8763ZM9.05629 5.07517C9.52221 5.07512 9.98154 5.18514 10.3969 5.39628C10.8122 5.60743 11.1718 5.91371 11.4463 6.29017L11.7338 6.00017C11.3122 5.43816 10.7245 5.02305 10.0539 4.81362C9.38325 4.60418 8.66375 4.61105 7.99725 4.83325C7.33076 5.05545 6.75107 5.48171 6.3403 6.05167C5.92952 6.62162 5.70847 7.30636 5.70847 8.00892C5.70847 8.71147 5.92952 9.39622 6.3403 9.96617C6.75107 10.5361 7.33076 10.9624 7.99725 11.1846C8.66375 11.4068 9.38325 11.4137 10.0539 11.2042C10.7245 10.9948 11.3122 10.5797 11.7338 10.0177L11.4463 9.73017C11.1527 10.1404 10.7586 10.4683 10.3017 10.6823C9.8449 10.8963 9.34072 10.9892 8.83761 10.9522C8.3345 10.9152 7.84935 10.7495 7.42875 10.471C7.00815 10.1924 6.66623 9.81041 6.43581 9.36164C6.2054 8.91286 6.09423 8.41238 6.11299 7.90826C6.13175 7.40413 6.2798 6.9133 6.54293 6.48289C6.80605 6.05248 7.17542 5.69694 7.61556 5.45042C8.05569 5.2039 8.55182 5.07468 9.05629 5.07517ZM12.2088 4.95267L11.9188 5.25017C12.0138 5.34833 12.1031 5.45183 12.1863 5.56017L12.4738 5.25017C12.3906 5.1418 12.3013 5.0383 12.2063 4.94017L12.2088 4.95267ZM4.64629 8.28767C4.69678 9.09932 4.9716 9.88103 5.44014 10.5457C5.90869 11.2104 6.55255 11.7319 7.30002 12.0523C8.04749 12.3726 8.86922 12.4792 9.67367 12.3601C10.4781 12.241 11.2337 11.9009 11.8563 11.3777L11.5563 11.0902C10.8478 11.6793 9.95519 12.0013 9.03379 12.0002C8.02376 12.0006 7.05123 11.6175 6.31286 10.9284C5.57448 10.2392 5.12535 9.29534 5.05629 8.28767H4.64629ZM11.9163 10.7877L12.2038 11.0752C12.3001 10.9722 12.3903 10.8637 12.4738 10.7502L12.1863 10.4627C12.1031 10.571 12.0138 10.6745 11.9188 10.7727L11.9163 10.7877ZM9.05629 12.9852C7.73418 12.9852 6.46623 12.46 5.53136 11.5251C4.59649 10.5902 4.07129 9.32227 4.07129 8.00017C4.07129 6.67807 4.59649 5.41011 5.53136 4.47524C6.46623 3.54037 7.73418 3.01517 9.05629 3.01517C9.78907 3.0148 10.5128 3.1772 11.1751 3.49065C11.8375 3.80411 12.422 4.26078 12.8863 4.82767L13.1738 4.54017C12.5906 3.84614 11.8418 3.31042 10.9966 2.98255C10.1515 2.65469 9.2373 2.54528 8.33865 2.66446C7.44 2.78363 6.58592 3.12753 5.85543 3.66434C5.12495 4.20116 4.54166 4.91354 4.15952 5.73558C3.77739 6.55762 3.60876 7.46276 3.66924 8.36726C3.72971 9.27176 4.01734 10.1464 4.50551 10.9102C4.99368 11.6741 5.66662 12.3025 6.46206 12.7373C7.25751 13.1721 8.14977 13.3992 9.05629 13.3977C9.84363 13.3999 10.6216 13.2272 11.3341 12.8922C12.0466 12.5571 12.6758 12.068 13.1763 11.4602L12.8888 11.1727C12.4273 11.7434 11.8431 12.2028 11.1795 12.5166C10.516 12.8304 9.79026 12.9906 9.05629 12.9852Z" fill="white"/>
</g>
<defs>
<clipPath id="clip0_8504_10963">
<rect width="16" height="16" fill="white" transform="translate(0.806396)"/>
</clipPath>
</defs>
</svg>
