<svg width="17" height="16" viewBox="0 0 17 16" fill="none" xmlns="http://www.w3.org/2000/svg">
<g clip-path="url(#clip0_8504_10914)">
<path d="M9.62668 8.6228C9.94157 8.46806 10.2067 8.22811 10.3921 7.9302C10.5774 7.63229 10.6755 7.28838 10.6752 6.93752C10.6752 5.90224 9.83812 5.0632 8.80645 5.0632C7.77477 5.0632 6.93734 5.90216 6.93734 6.93744C6.93694 7.28841 7.03507 7.63244 7.22057 7.93039C7.40607 8.22833 7.67149 8.4682 7.98661 8.62272V10.9376H9.6266V8.6228H9.62668ZM8.80653 14C5.50839 14 2.82553 11.3086 2.82553 8C2.82553 4.69136 5.50879 2.00048 8.80653 2.00048C11.4979 2.00048 13.7791 3.79248 14.5276 6.24976H16.5889C15.7936 2.67336 12.6112 0 8.80653 0C4.40224 0 0.831787 3.58168 0.831787 8C0.831787 12.4183 4.40224 16 8.80653 16C12.6112 16 15.7936 13.3266 16.589 9.75016H14.5277C13.7786 12.208 11.4979 14 8.80653 14Z" fill="#3AB03E"/>
</g>
<defs>
<clipPath id="clip0_8504_10914">
<rect width="16" height="16" fill="white" transform="translate(0.710449)"/>
</clipPath>
</defs>
</svg>
