<svg width="17" height="16" viewBox="0 0 17 16" fill="none" xmlns="http://www.w3.org/2000/svg">
<g clip-path="url(#clip0_8504_12108)">
<path d="M8.90088 0.000244141C13.3196 0.000244141 16.9009 3.58228 16.9009 8.00024C16.9009 12.4189 13.3196 16.0002 8.90088 16.0002C4.48291 16.0002 0.900879 12.4186 0.900879 8.00024C0.900879 3.58228 4.48291 0.000244141 8.90088 0.000244141Z" fill="#F5AC37"/>
<path d="M9.19332 8.56516H12.2332C12.298 8.56516 12.3286 8.56516 12.3333 8.4802C12.3581 8.17095 12.3581 7.85991 12.3333 7.55031C12.3333 7.49019 12.3034 7.46534 12.2382 7.46534H6.18837C6.11349 7.46534 6.09333 7.49018 6.09333 7.56039V8.45031C6.09333 8.56516 6.09333 8.56516 6.21321 8.56516H9.19332ZM11.9938 6.42529C12.0024 6.40261 12.0024 6.37777 11.9938 6.35545C11.943 6.24493 11.8829 6.13945 11.8131 6.04045C11.7079 5.87125 11.5841 5.71537 11.443 5.57533C11.3764 5.49072 11.2993 5.41476 11.2129 5.35032C10.7802 4.98204 10.2658 4.7214 9.7128 4.59036C9.4338 4.52772 9.14868 4.49783 8.86283 4.50036H6.17793C6.10305 4.50036 6.09297 4.53024 6.09297 4.5954V6.37021C6.09297 6.44509 6.09297 6.46525 6.18801 6.46525H11.9578C11.9578 6.46525 12.0078 6.45517 12.0179 6.42529H11.9934H11.9938ZM11.9938 9.60521C11.9088 9.59585 11.8231 9.59585 11.7382 9.60521H6.19341C6.11853 9.60521 6.09333 9.60521 6.09333 9.70529V11.4405C6.09333 11.5204 6.09333 11.5406 6.19341 11.5406H8.75339C8.87579 11.5499 8.9982 11.5413 9.11808 11.5157C9.4896 11.4891 9.855 11.4085 10.2035 11.2756C10.3302 11.2317 10.4526 11.1745 10.5682 11.1057H10.6031C11.2032 10.7936 11.6907 10.3033 11.9981 9.70133C11.9981 9.70133 12.033 9.62573 11.9938 9.60593V9.60521ZM5.08856 12.4402V12.4104V11.2454V10.8505V9.67541C5.08856 9.61025 5.08856 9.60053 5.00863 9.60053H3.92358C3.86346 9.60053 3.83862 9.60053 3.83862 9.52061V8.57056H4.99855C5.06336 8.57056 5.08856 8.57056 5.08856 8.48559V7.54563C5.08856 7.4855 5.08856 7.47074 5.00863 7.47074H3.92358C3.86346 7.47074 3.83862 7.47074 3.83862 7.39082V6.51098C3.83862 6.45589 3.83862 6.44113 3.91854 6.44113H4.99351C5.0684 6.44113 5.08856 6.44113 5.08856 6.34609V3.65111C5.08856 3.57119 5.08856 3.55103 5.18864 3.55103H8.93843C9.2106 3.56183 9.48096 3.59171 9.74844 3.64103C10.2996 3.74291 10.8292 3.93983 11.3134 4.22099C11.6345 4.40999 11.9301 4.63824 12.1932 4.90104C12.3912 5.1066 12.5698 5.32908 12.7282 5.56597C12.8855 5.80609 13.0162 6.06277 13.1188 6.33097C13.1314 6.40081 13.1984 6.44797 13.2682 6.43609H14.1632C14.278 6.43609 14.278 6.43609 14.283 6.54626V7.36634C14.283 7.44626 14.2532 7.46642 14.1729 7.46642H13.4828C13.4129 7.46642 13.3928 7.46642 13.3978 7.55643C13.4252 7.86099 13.4252 8.16663 13.3978 8.4712C13.3978 8.55616 13.3978 8.56624 13.4932 8.56624H14.2827C14.3176 8.61124 14.2827 8.65624 14.2827 8.7016C14.2877 8.75956 14.2877 8.81824 14.2827 8.8762V9.48136C14.2827 9.56632 14.2578 9.59153 14.1826 9.59153H13.2376C13.1717 9.57893 13.1076 9.62105 13.0925 9.68657C12.8675 10.2716 12.5075 10.7961 12.0424 11.2166C11.8725 11.3696 11.6939 11.5136 11.5074 11.6464C11.3073 11.7616 11.1125 11.8815 10.9073 11.9766C10.5297 12.1465 10.1336 12.2718 9.7272 12.3513C9.34128 12.4204 8.94995 12.4518 8.55719 12.4464H5.08712V12.4413L5.08856 12.4402Z" fill="#FEFEFD"/>
</g>
<defs>
<clipPath id="clip0_8504_12108">
<rect width="16" height="16" fill="white" transform="translate(0.900879 0.000244141)"/>
</clipPath>
</defs>
</svg>
