<svg width="17" height="16" viewBox="0 0 17 16" fill="none" xmlns="http://www.w3.org/2000/svg">
<g clip-path="url(#clip0_8504_11019)">
<path d="M8.38354 16C12.8018 16 16.3835 12.4183 16.3835 8C16.3835 3.58172 12.8018 0 8.38354 0C3.96527 0 0.383545 3.58172 0.383545 8C0.383545 12.4183 3.96527 16 8.38354 16Z" fill="#666666"/>
<path fill-rule="evenodd" clip-rule="evenodd" d="M12.9245 10.575C12.8216 10.7467 12.6556 10.8713 12.462 10.9223C12.2684 10.9732 12.0626 10.9464 11.8885 10.8475L9.49898 9.4925V8.6325L10.258 8.2025L12.647 9.557C13.01 9.7625 13.134 10.2185 12.9245 10.5745V10.575ZM9.14198 12.4045C9.14198 12.816 8.80248 13.1495 8.38348 13.1495C7.96448 13.1495 7.62498 12.816 7.62498 12.4045V9.695L8.38348 9.265L9.14198 9.695V12.4045ZM4.87848 10.8475C4.70435 10.9463 4.49847 10.9731 4.30487 10.9221C4.11126 10.871 3.9453 10.7463 3.84248 10.5745C3.79285 10.4897 3.76064 10.3959 3.74773 10.2985C3.73483 10.2012 3.7415 10.1022 3.76734 10.0074C3.79319 9.91265 3.83769 9.824 3.89825 9.74665C3.9588 9.66931 4.03418 9.60483 4.11998 9.557L6.50898 8.202L7.26798 8.6325V9.4925L4.87848 10.8475ZM4.11998 6.443C4.03418 6.39517 3.9588 6.33069 3.89825 6.25335C3.83769 6.176 3.79319 6.08735 3.76734 5.99258C3.7415 5.89782 3.73483 5.79884 3.74773 5.70147C3.76064 5.60409 3.79285 5.51027 3.84248 5.4255C3.9453 5.25371 4.11126 5.12896 4.30487 5.07794C4.49847 5.02693 4.70435 5.05369 4.87848 5.1525L7.26798 6.5075V7.3675L6.50898 7.7975L4.11998 6.443ZM7.62498 3.5955C7.62498 3.184 7.96498 2.8505 8.38348 2.8505C8.80248 2.8505 9.14198 3.184 9.14198 3.5955V6.3045L8.38348 6.735L7.62498 6.305V3.5955ZM9.49898 7.7725L9.90098 8L9.49898 8.2275V7.7725ZM8.74048 6.9375L9.14198 6.7095V7.165L8.74048 6.9375ZM7.62498 7.165V6.71L8.02648 6.9375L7.62498 7.165ZM7.26798 8.2275L6.86598 8L7.26798 7.7725V8.2275ZM8.02648 9.0625L7.62498 9.2905V8.835L8.02648 9.0625ZM9.14198 8.835V9.29L8.74048 9.0625L9.14198 8.835ZM8.38348 8.86L7.62498 8.43V7.57L8.38348 7.14L9.14198 7.57V8.43L8.38348 8.86ZM11.8885 5.1525C12.0626 5.05369 12.2685 5.02693 12.4621 5.07794C12.6557 5.12896 12.8217 5.25371 12.9245 5.4255C13.1345 5.7815 13.0095 6.2375 12.647 6.443L10.258 7.798L9.49898 7.3675V6.5075L11.8885 5.1525ZM12.8255 9.2535L10.615 8L12.8255 6.7465C12.9517 6.67623 13.0627 6.58144 13.1518 6.4677C13.2409 6.35397 13.3065 6.22357 13.3445 6.08418C13.3826 5.94478 13.3924 5.79918 13.3734 5.65594C13.3544 5.51269 13.307 5.37468 13.234 5.25C12.926 4.726 12.2435 4.5465 11.71 4.849L9.49898 6.1025V3.595C9.49898 2.9905 8.99948 2.5 8.38348 2.5C7.76748 2.5 7.26798 2.9905 7.26798 3.5955V6.1025L5.05698 4.849C4.52348 4.5465 3.84098 4.726 3.53348 5.25C3.46044 5.37468 3.41304 5.51269 3.39406 5.65594C3.37508 5.79918 3.3849 5.94478 3.42295 6.08418C3.461 6.22357 3.52651 6.35397 3.61564 6.4677C3.70477 6.58144 3.81572 6.67623 3.94198 6.7465L6.15198 8L3.94198 9.2535C3.81568 9.32373 3.70468 9.41849 3.6155 9.5322C3.52632 9.64592 3.46076 9.77631 3.42266 9.91571C3.38456 10.0551 3.3747 10.2007 3.39364 10.344C3.41258 10.4873 3.45996 10.6253 3.53298 10.75C3.84098 11.274 4.52348 11.4535 5.05698 11.151L7.26798 9.8975V12.4045C7.26798 13.0095 7.76748 13.5 8.38348 13.5C8.99948 13.5 9.49898 13.0095 9.49898 12.4045V9.8975L11.71 11.151C12.2435 11.4535 12.926 11.274 13.234 10.75C13.307 10.6253 13.3544 10.4873 13.3734 10.3441C13.3924 10.2008 13.3826 10.0552 13.3445 9.91582C13.3065 9.77643 13.2409 9.64603 13.1518 9.5323C13.0627 9.41856 12.9517 9.32377 12.8255 9.2535Z" fill="white"/>
</g>
<defs>
<clipPath id="clip0_8504_11019">
<rect width="16" height="16" fill="white" transform="translate(0.383545)"/>
</clipPath>
</defs>
</svg>
