<svg width="17" height="16" viewBox="0 0 17 16" fill="none" xmlns="http://www.w3.org/2000/svg">
<g clip-path="url(#clip0_8504_10313)">
<path d="M16.604 0H1.05277C0.928836 0 0.828369 0.100467 0.828369 0.2244V15.7756C0.828369 15.8995 0.928836 16 1.05277 16H16.604C16.7279 16 16.8284 15.8995 16.8284 15.7756V0.2244C16.8284 0.100467 16.7279 0 16.604 0Z" fill="#322A3F"/>
<path d="M8.73118 4.26175L5.65492 10.6758H10.762C10.8344 10.6758 10.9052 10.697 10.9656 10.7368C11.026 10.7767 11.0735 10.8333 11.102 10.8998L11.1074 10.9122C11.1263 10.9563 11.1347 11.0041 11.132 11.0519C11.1293 11.0997 11.1155 11.1463 11.0918 11.1879C11.0492 11.2621 10.9878 11.3238 10.9137 11.3667C10.8397 11.4096 10.7556 11.4322 10.6701 11.4322H5.24252C5.1588 11.4322 5.07696 11.4074 5.00732 11.361L4.97868 11.342C4.89357 11.285 4.83189 11.1992 4.80498 11.1004C4.77807 11.0016 4.78773 10.8964 4.83219 10.8042L8.46198 3.33471C8.49994 3.25675 8.55394 3.1877 8.62046 3.13207C8.68349 3.07951 8.76275 3.05036 8.84481 3.04958C8.92688 3.04879 9.00669 3.07641 9.07071 3.12775C9.09944 3.15039 9.12271 3.17921 9.13879 3.21207L12.8205 10.7331C12.8704 10.8353 12.8808 10.9524 12.8497 11.0618C12.8326 11.1219 12.7963 11.1749 12.7463 11.2126C12.6964 11.2502 12.6355 11.2705 12.5729 11.2704H12.5307C12.4466 11.2704 12.3642 11.2465 12.2932 11.2014C12.2222 11.1563 12.1655 11.092 12.1297 11.0158L8.95447 4.26287C8.94465 4.2416 8.92897 4.22357 8.90926 4.21089C8.88956 4.19821 8.86665 4.19142 8.84322 4.1913C8.81979 4.19118 8.79682 4.19775 8.77699 4.21023C8.75716 4.22271 8.7413 4.24058 8.73126 4.26175H8.73118Z" fill="#F4AE95"/>
</g>
<defs>
<clipPath id="clip0_8504_10313">
<rect width="16" height="16" fill="white" transform="translate(0.828369)"/>
</clipPath>
</defs>
</svg>
