<svg width="16" height="16" viewBox="0 0 16 16" fill="none" xmlns="http://www.w3.org/2000/svg">
<g clip-path="url(#clip0_8504_11044)">
<path d="M15.7288 6.49331C15.6197 5.96785 15.4269 5.4633 15.1579 4.99893C14.6038 4.07543 13.3949 2.73216 11.8837 1.67434C11.8837 1.67434 10.7419 0.935541 10.2046 0.683679C8.24008 -0.223027 6.04048 -0.407727 4.1599 1.25457C1.00322 4.05864 -0.575116 7.97091 1.00322 11.8664C1.03681 11.9503 1.90993 14.3346 7.14867 15.9298C9.44902 15.9969 10.7923 15.8626 12.2699 15.0063C14.2008 13.8981 15.3258 11.8832 15.7288 9.83469C15.8463 9.21343 15.8631 7.11457 15.7288 6.49331Z" fill="#04FFCC"/>
<path d="M9.61873 0.969003V4.71336L5.28669 4.44471L3.50686 6.69468L3.28857 10.9428L4.76617 12.5211L6.98256 13.6293L9.88738 13.9483L13.0441 13.1424V5.33462L12.4396 2.09399C12.4396 2.09399 10.7437 0.767512 9.63552 0.448486" fill="#7DF8FB"/>
<path d="M14.6878 10.2545C14.0833 10.2209 14.4191 9.2638 14.1505 8.1724C13.8314 6.96346 14.3016 6.12391 14.9228 6.1575C15.2145 6.20341 15.4908 6.31857 15.7288 6.49331C15.6197 5.96785 15.4269 5.4633 15.1579 4.99893C14.6038 4.07543 13.3949 2.73216 11.8837 1.67434V11.7992C11.8839 12.0317 11.8049 12.2574 11.6597 12.439C11.5144 12.6205 11.3117 12.7472 11.0848 12.7981C10.8579 12.8489 10.6204 12.8209 10.4116 12.7187C10.2028 12.6165 10.035 12.4462 9.93596 12.2358C9.33672 12.6072 8.64967 12.8129 7.94494 12.8321C7.2402 12.8512 6.54301 12.683 5.92453 12.3446C5.30604 12.0062 4.78841 11.5098 4.42445 10.906C4.0605 10.3022 3.86326 9.6127 3.85287 8.90778C3.84248 8.20286 4.0193 7.50781 4.3653 6.89356C4.7113 6.2793 5.21407 5.76785 5.82232 5.4114C6.43056 5.05495 7.12249 4.86626 7.82748 4.86459C8.53247 4.86292 9.22529 5.04834 9.83521 5.40191V1.47285C9.83231 1.32181 9.8641 1.17212 9.92814 1.03531C9.99218 0.898491 10.0868 0.778194 10.2046 0.683679C8.24008 -0.223027 6.04048 -0.407727 4.1599 1.25457C1.00322 4.05864 -0.575116 7.97091 1.00322 11.8664C1.03681 11.9503 1.07039 12.0343 1.10397 12.1015C1.14944 12.0068 1.21207 11.9214 1.28867 11.8496C2.11142 11.0101 3.01813 12.7227 4.94907 13.7134C6.17481 14.3346 6.88002 15.1574 7.14867 15.9298C8.9453 16.1481 10.7923 15.8626 12.2699 15.0063C14.2008 13.8981 15.3258 11.8832 15.7288 9.83469C15.4391 10.088 15.0722 10.236 14.6878 10.2545ZM8.10743 2.2956C8.56078 2.27881 8.98056 2.81612 8.99735 3.06798C9.01414 3.31984 8.61116 3.2191 8.1746 3.37021C7.68766 3.53812 7.33505 3.38701 7.31826 3.13514C7.30147 2.88328 7.63561 2.31239 8.10743 2.2956Z" fill="#2C398F"/>
<path d="M7.11508 10.3216C8.08895 10.8757 9.26431 10.6574 9.48259 9.41488C9.60013 8.69288 9.53296 7.56789 8.89491 7.21528C6.77926 6.00634 4.99943 9.11265 7.11508 10.3216Z" fill="#2C398F"/>
</g>
<defs>
<clipPath id="clip0_8504_11044">
<rect width="15.4392" height="16" fill="white" transform="translate(0.383545)"/>
</clipPath>
</defs>
</svg>
