<svg width="17" height="16" viewBox="0 0 17 16" fill="none" xmlns="http://www.w3.org/2000/svg">
<g clip-path="url(#clip0_8504_11058)">
<path d="M8.427 16C12.8453 16 16.427 12.4183 16.427 8C16.427 3.58172 12.8453 0 8.427 0C4.00872 0 0.427002 3.58172 0.427002 8C0.427002 12.4183 4.00872 16 8.427 16Z" fill="#786DBC"/>
<path d="M8.39246 5.38551L7.57796 4.56901C7.46829 4.46412 7.40478 4.31996 7.40141 4.16824C7.39803 4.01652 7.45506 3.86968 7.55996 3.76001C7.66485 3.65034 7.80901 3.58684 7.96073 3.58346C8.11245 3.58009 8.25929 3.63712 8.36896 3.74201L8.38796 3.76101L10.206 5.57901C10.4295 5.80251 10.4295 6.16401 10.206 6.38751L8.38596 8.20551C8.27797 8.30854 8.13397 8.36523 7.98474 8.36348C7.8355 8.36173 7.69287 8.30166 7.58734 8.19613C7.48181 8.0906 7.42174 7.94797 7.41999 7.79873C7.41824 7.6495 7.47493 7.50549 7.57796 7.39751L8.43146 6.54401C7.85643 6.44251 7.26409 6.52024 6.73472 6.76668C6.20535 7.01312 5.76454 7.41635 5.47202 7.92172C5.17951 8.42709 5.04944 9.01018 5.09943 9.59196C5.14943 10.1737 5.37707 10.7261 5.75151 11.1741C6.12596 11.6222 6.6291 11.9443 7.19275 12.0968C7.75641 12.2493 8.35332 12.2249 8.90261 12.0268C9.45189 11.8286 9.92699 11.4664 10.2635 10.9892C10.6 10.512 10.7817 9.94293 10.784 9.35901V3.07101C10.784 2.91944 10.8442 2.77408 10.9513 2.6669C11.0585 2.55972 11.2039 2.49951 11.3555 2.49951C11.507 2.49951 11.6524 2.55972 11.7596 2.6669C11.8667 2.77408 11.927 2.91944 11.927 3.07101V9.43551C11.911 10.2429 11.651 11.0266 11.1812 11.6835C10.7114 12.3403 10.0538 12.8396 9.29482 13.1156C8.53587 13.3916 7.71115 13.4314 6.92914 13.2298C6.14713 13.0282 5.44447 12.5946 4.91356 11.9861C4.38266 11.3775 4.0484 10.6225 3.95473 9.8204C3.86107 9.01827 4.0124 8.20658 4.38881 7.49209C4.76522 6.7776 5.34909 6.19377 6.06361 5.81741C6.77813 5.44105 7.58983 5.28979 8.39196 5.38351L8.39246 5.38551Z" fill="white"/>
</g>
<defs>
<clipPath id="clip0_8504_11058">
<rect width="16" height="16" fill="white" transform="translate(0.427002)"/>
</clipPath>
</defs>
</svg>
