<svg width="17" height="16" viewBox="0 0 17 16" fill="none" xmlns="http://www.w3.org/2000/svg">
<g clip-path="url(#clip0_8504_11062)">
<path d="M8.427 16C12.8453 16 16.427 12.4183 16.427 8C16.427 3.58172 12.8453 0 8.427 0C4.00872 0 0.427002 3.58172 0.427002 8C0.427002 12.4183 4.00872 16 8.427 16Z" fill="#988430"/>
<path d="M8.42708 15.7438C12.7038 15.7438 16.1708 12.2768 16.1708 8.00009C16.1708 3.72334 12.7038 0.256348 8.42708 0.256348C4.15033 0.256348 0.68335 3.72334 0.68335 8.00009C0.68335 12.2768 4.15033 15.7438 8.42708 15.7438Z" fill="#7A6A2A"/>
<path d="M8.42701 15.5806C12.6136 15.5806 16.0076 12.1867 16.0076 8.00002C16.0076 3.81338 12.6136 0.419434 8.42701 0.419434C4.24037 0.419434 0.846436 3.81338 0.846436 8.00002C0.846436 12.1867 4.24037 15.5806 8.42701 15.5806Z" fill="#BA9F33"/>
<path fill-rule="evenodd" clip-rule="evenodd" d="M3.92481 7.14553C3.87949 7.10415 3.83162 7.06268 3.78759 7.02129C3.74356 6.97991 3.69833 6.93844 3.65302 6.89705L3.51836 6.76905C3.49635 6.74704 3.47305 6.72767 3.45104 6.70557C3.42902 6.6862 3.40316 6.66418 3.38115 6.64473C3.20246 6.47518 3.02275 6.30562 2.84653 6.13599C3.02906 6.30298 3.20775 6.46878 3.39028 6.63824L3.45368 6.70173C3.4757 6.72366 3.49899 6.74311 3.52101 6.76513L3.65558 6.88937C3.70089 6.93076 3.74492 6.97223 3.79024 7.01737C3.83555 7.06251 3.87958 7.10406 3.92489 7.14536L3.92481 7.14553ZM1.55331 7.11993C1.55331 7.11993 2.20312 7.18718 2.52031 7.23249C2.81411 7.27396 3.73323 7.41501 3.73323 7.41501L1.55331 7.11993ZM1.55331 7.11993C1.73584 7.13546 1.91836 7.15483 2.10089 7.17429C2.19408 7.18334 2.28342 7.19366 2.37276 7.20271L2.50989 7.21832C2.55521 7.22472 2.59924 7.23121 2.64455 7.23769L3.18829 7.32439L3.46008 7.3697C3.54943 7.38523 3.63877 7.40212 3.73195 7.41765C3.64261 7.40861 3.54943 7.39564 3.46008 7.38267L3.18829 7.34384L2.64455 7.26363C2.59924 7.25715 2.55521 7.24802 2.50989 7.24162L2.37268 7.22583C2.28333 7.21678 2.19015 7.20381 2.10081 7.1934C1.91828 7.17147 1.73575 7.14809 1.55322 7.11968L1.55331 7.11993ZM3.66855 7.5843C3.66855 7.5843 2.97471 7.76043 2.74038 7.82775C2.50998 7.89115 1.81221 8.10346 1.81221 8.10346L3.66847 7.58439L3.66855 7.5843Z" fill="#CFB66C"/>
<path fill-rule="evenodd" clip-rule="evenodd" d="M3.66843 7.58447C3.51441 7.62978 3.36123 7.67382 3.20499 7.71529L2.74154 7.83953C2.58752 7.88485 2.43434 7.92888 2.28074 7.97419L2.05034 8.03759C1.97397 8.05961 1.89632 8.07898 1.81738 8.10108C1.89367 8.07548 1.97141 8.04928 2.04778 8.02727L2.27818 7.95354C2.43221 7.90558 2.58538 7.86027 2.73898 7.8124C2.89557 7.77357 3.04968 7.7321 3.20627 7.69455C3.35509 7.65701 3.51176 7.61954 3.66843 7.58456V7.58447ZM1.90929 8.53082C1.98557 8.50232 2.86587 8.09204 3.07042 7.99621C3.17282 7.94825 3.47046 7.84261 3.47046 7.84261L1.90929 8.53082Z" fill="#CFB66C"/>
<path fill-rule="evenodd" clip-rule="evenodd" d="M1.90926 8.53069C1.97651 8.50509 2.04 8.47377 2.10468 8.44399L2.29625 8.35466L2.68076 8.16958C2.80876 8.10874 2.93318 8.04159 3.06519 7.98442C3.13252 7.956 3.19985 7.93271 3.26709 7.91069L3.36949 7.87835C3.40439 7.86931 3.43682 7.8589 3.47189 7.84985C3.34389 7.91069 3.20915 7.96249 3.08098 8.02196C2.95298 8.08545 2.82208 8.13724 2.68998 8.19415L2.29907 8.36626C2.16783 8.41942 2.03983 8.47633 1.90918 8.53069H1.90926ZM1.9946 8.88907C1.9946 8.88907 2.79195 8.42181 3.06638 8.27163C3.21009 8.19142 3.67481 7.96095 3.67481 7.96095L1.9946 8.88907Z" fill="#CFB66C"/>
<path fill-rule="evenodd" clip-rule="evenodd" d="M1.99463 8.88923C2.1292 8.80637 2.26642 8.72223 2.40364 8.63681L2.60844 8.51248C2.67833 8.47109 2.74565 8.43227 2.81691 8.39088C2.8868 8.34941 2.95413 8.30802 3.02529 8.26919C3.05917 8.24828 3.09467 8.2301 3.13145 8.21484L3.24017 8.16048C3.38387 8.09059 3.52757 8.01934 3.67904 7.9585C3.54182 8.04528 3.40068 8.11909 3.25962 8.19538C3.18973 8.23421 3.11848 8.26919 3.04859 8.30802C2.9787 8.34685 2.91137 8.38832 2.84012 8.42587C2.77023 8.46725 2.7029 8.50608 2.63173 8.54363L2.4207 8.65883L1.9948 8.88923H1.99463ZM3.66837 8.06329C3.66837 8.06329 3.17258 8.44387 3.01207 8.56556C2.85155 8.68724 2.37906 9.029 2.37906 9.029L3.66837 8.06329Z" fill="#CFB66C"/>
<path fill-rule="evenodd" clip-rule="evenodd" d="M6.51371 11.1328L6.26001 10.6525L6.40755 10.0518L7.45997 9.6454L7.01205 8.72636L7.23341 7.79819L7.64898 6.96705L8.93316 6.76515L9.87678 5.86548L11.9144 6.01951L12.3143 8.19815L11.5441 10.9412L11.1053 12.3613L9.32663 12.4286L8.50078 11.8565L7.53378 11.4525L6.51371 11.1328Z" fill="#E2CC85"/>
<path fill-rule="evenodd" clip-rule="evenodd" d="M9.63351 11.1171C9.63351 11.1171 9.38749 11.2297 8.96791 11.2038C8.84648 11.0407 7.99605 10.9643 7.99605 10.9643C7.99605 10.9643 7.88989 10.932 7.70216 11.0096C7.51323 11.0864 7.33454 11.077 7.16754 11.1184C7.00055 11.1597 6.83474 10.9423 6.70674 10.897C6.57874 10.8491 6.40902 10.7339 6.40902 10.7339L6.05062 10.6989L5.33092 10.3947L4.18753 9.25562L3.87684 9.74202L3.78101 10.344L4.12669 11.0573L5.05742 11.9051L6.87229 12.3659L7.948 12.049L9.29559 11.4794L9.63351 11.117V11.1171Z" fill="#F1D789"/>
<path fill-rule="evenodd" clip-rule="evenodd" d="M3.18554 7.09118L3.41594 6.39351L3.69046 5.94295L4.57453 5.86914L4.30914 6.64327L3.57006 7.95849L3.87683 9.13257L3.33317 9.40435L3.16608 9.1481L3.03151 8.56042L3.02246 7.90021L3.18554 7.09118Z" fill="#F4ECB4"/>
<path fill-rule="evenodd" clip-rule="evenodd" d="M4.17701 11.0692L4.00745 10.8323C4.00745 10.8323 3.96214 10.7196 3.98808 10.6213C4.01368 10.5216 4.01001 10.5151 3.99712 10.4775C3.98424 10.44 3.87544 10.3106 3.88192 10.1992C3.88832 10.0866 3.87288 10.049 3.95565 9.95975C4.04235 9.87305 4.01649 9.72286 4.01649 9.72286L4.12913 9.79275L4.15473 9.75392C4.15473 9.75392 4.19612 9.78626 4.19612 9.83678C4.20517 9.76689 4.16762 9.44322 4.25304 9.3695C4.33846 9.29577 4.48992 9.7151 4.48992 9.7151L4.39674 9.10667L4.15721 8.4828L3.73131 7.9132L3.70571 7.28531V7.23096C3.70571 7.23096 3.51021 7.53133 3.45585 7.76856C3.41703 7.93163 3.51021 8.12969 3.49084 8.36401C3.47522 8.59706 3.45585 8.57888 3.51277 8.67121C3.56969 8.76354 3.70827 8.95341 3.65391 9.09063C3.60604 9.20847 3.44288 9.12561 3.44288 9.12561C3.44288 9.12561 3.41054 9.22136 3.36651 9.25634C3.35098 9.19943 3.33417 9.16316 3.30311 9.12834C3.30046 9.15036 3.29406 9.18014 3.29406 9.18014C3.29406 9.18014 3.26556 9.0908 3.23706 8.97816C3.19832 8.82806 3.15685 8.63 3.1193 8.52384C3.10377 8.58469 3.06494 8.76977 3.06494 8.76977L3.08696 9.05462L3.19311 9.44553L3.29551 9.70153L3.39518 10.0148L3.48179 10.2252L3.55168 10.3857L3.61253 10.7469L3.90633 11.0576L4.063 11.1275L4.17683 11.0693L4.17701 11.0692Z" fill="#F3E19D"/>
<path fill-rule="evenodd" clip-rule="evenodd" d="M3.33968 6.52168C3.33968 6.52168 3.12865 6.88008 3.06789 7.24137C3.00713 7.60267 2.95269 7.98445 2.99109 8.4763C3.02991 8.97217 3.10373 9.27629 3.16329 9.4938C3.26569 9.85501 3.53091 10.3573 3.53091 10.3573L3.53996 10.3378C3.49538 10.2533 3.4598 10.1644 3.4338 10.0724C3.39881 9.93522 3.38584 9.77216 3.3535 9.69834C3.325 9.62462 3.27713 9.56113 3.25383 9.47051C3.23182 9.38381 3.22823 9.24659 3.16065 9.14437C3.13214 9.1029 3.09716 8.99418 3.08683 8.88547C3.07386 8.72231 3.09332 8.53979 3.07779 8.38969C3.04929 8.13984 3.02991 7.97028 3.05577 7.83947C3.08163 7.70865 3.21637 7.33729 3.29923 7.04212C3.35359 6.85311 3.32116 6.69388 3.42083 6.52945C3.5205 6.36638 3.58143 6.22268 3.60336 6.12301C3.62896 6.03239 3.33934 6.52168 3.33934 6.52168H3.33968Z" fill="#F2E8B0"/>
<path fill-rule="evenodd" clip-rule="evenodd" d="M4.34041 6.37793C4.34041 6.37793 4.23169 6.41036 4.17989 6.46727C4.12809 6.52163 4.10608 6.56694 4.03619 6.65885C3.9663 6.75075 3.96237 6.82585 3.90537 6.94105C3.84845 7.05369 3.72284 7.22325 3.70731 7.28409C3.69178 7.34493 3.66592 7.62969 3.63358 7.76435C3.60507 7.89901 3.66592 8.06473 3.66592 8.06473L3.73965 8.04911C3.73965 8.04911 3.73965 8.14494 3.81346 8.20971C3.88719 8.27311 3.90016 7.99475 3.90016 7.99475L4.17588 7.06402L4.59138 6.78182L4.63669 6.55397L4.34024 6.37793H4.34041Z" fill="#F5EEC0"/>
<path fill-rule="evenodd" clip-rule="evenodd" d="M4.54217 6.80001C4.54217 6.80001 4.34667 6.8129 4.25093 6.88287C4.21211 6.91129 4.19658 6.93459 4.15519 6.96957C4.07882 7.03298 4.00108 7.09126 3.96362 7.17438C3.92215 7.25716 3.87684 7.38277 3.84578 7.61967C3.83281 7.71934 3.83281 7.81125 3.82376 7.89155C3.81079 8.00027 3.79142 8.08697 3.80175 8.14756C3.81472 8.27181 3.94289 8.33658 3.95535 8.47764L4.22072 8.34306L4.47057 7.35785L5.00133 7.02504L4.70097 6.68848L4.54183 6.79941L4.54217 6.80001Z" fill="#E6DB9D"/>
<path fill-rule="evenodd" clip-rule="evenodd" d="M3.14218 13.4338C3.14328 13.4241 3.14439 13.4144 3.1455 13.4044C3.18424 13.0716 3.19082 12.8194 3.21923 12.6614C3.26062 12.4375 3.28912 12.3542 3.28264 12.2704C3.27359 12.1358 3.26326 12.0375 3.27624 11.9339C3.29561 11.7966 3.43026 11.6336 3.42642 11.5209C3.42378 11.4316 3.37847 11.3734 3.33964 11.319C3.30081 11.2647 3.26975 11.2194 3.26975 11.2194C3.26975 11.2194 3.53514 11.0368 3.53258 10.3015C3.538 10.303 3.54321 10.3052 3.54811 10.308L3.67884 10.6795L3.76819 10.7882L4.11123 11.4277L4.55267 11.8562L5.20505 12.295L5.61414 12.7402L5.65553 13.9272L5.12091 14.6211L5.03336 14.7796C4.33777 14.4304 3.69992 13.9765 3.14209 13.4338L3.14218 13.4338Z" fill="#E5CB7A"/>
<path fill-rule="evenodd" clip-rule="evenodd" d="M4.77539 14.5694C4.77539 14.5694 4.78444 14.4218 4.90612 14.326C4.92558 14.3583 4.93846 14.3895 4.93462 14.4127C4.95664 14.374 5.11066 14.1254 5.4589 14.0606C5.80715 13.9972 5.89128 13.7435 5.89128 13.7435L6.63035 13.0717L7.47565 12.2937L8.50348 11.9325L8.98382 11.8146C8.98382 11.8146 8.99286 11.8496 8.97477 11.9273C9.06403 11.9209 9.26209 11.8756 9.46791 11.803C9.55077 11.7707 9.6285 11.7577 9.66989 11.8005C9.73073 11.8574 9.73978 11.992 9.74362 12.0723C9.84329 12.0502 9.95848 11.9545 10.0508 11.9635C10.1984 11.9791 10.3292 12.1526 10.4794 12.1526C10.6774 12.1526 10.7667 12.0309 10.9052 11.935C10.9881 11.8781 11.1071 11.807 11.1745 11.759C11.335 11.6412 13.0334 11.1221 13.0334 11.1221L13.6288 11.1609L13.7246 11.8004L13.6734 13.4721C13.6671 13.4781 13.6608 13.4844 13.6544 13.4905L10.947 14.9046L7.19405 15.4799C6.35338 15.3425 5.54213 15.0635 4.79485 14.6546L4.77565 14.5693L4.77539 14.5694Z" fill="#D8C173"/>
<path fill-rule="evenodd" clip-rule="evenodd" d="M3.36987 13.6466C3.42321 13.5351 3.47116 13.4418 3.47961 13.4084C3.48627 13.4757 3.49847 13.6232 3.52305 13.7801C3.47145 13.7362 3.42039 13.6917 3.36987 13.6465V13.6466Z" fill="#F1D789"/>
<path fill-rule="evenodd" clip-rule="evenodd" d="M6.11119 15.2196L6.59657 15.0846L6.63796 15.0976C6.63796 15.0976 6.65997 15.1106 6.65997 15.1545C6.72081 15.1196 6.77261 15.126 6.81016 15.1028C6.82953 15.1442 6.8489 15.2814 6.9344 15.2982C7.02366 15.3177 7.11949 15.2594 7.2166 15.1857C7.31234 15.1093 7.4214 15.0135 7.50392 14.9746C7.53419 15.0303 7.56101 15.0878 7.58422 15.1468C7.69293 15.0601 7.88195 14.708 8.15117 14.7144C8.22899 14.5305 8.35899 14.3734 8.5251 14.2626C8.77496 14.0931 8.93155 14.0801 9.12704 14.0956C9.20469 13.9948 9.30038 13.9092 9.40924 13.8432C9.44158 13.8562 9.53093 13.9105 9.64229 13.8587C9.75493 13.807 9.88173 13.6063 10.0487 13.5805C10.1387 13.5681 10.2302 13.5873 10.3076 13.6348C10.3076 13.6348 10.794 13.1519 11.1296 12.9914C11.1167 12.9526 11.0908 12.8063 11.4843 12.4826C11.5063 12.5021 11.4908 12.5565 11.5063 12.5594C11.5127 12.5594 11.6087 12.5181 11.7302 12.4248C11.8804 12.3122 12.0603 12.1944 12.169 12.162C12.3738 12.1012 12.5911 12.2254 12.5911 12.2254C12.6095 12.2125 12.6301 12.2028 12.6519 12.1969C12.7036 12.1879 12.7412 12.1814 12.7697 12.1713C12.7671 12.2387 12.8047 12.3539 12.7697 12.4535C12.8102 12.4763 12.8531 12.4946 12.8977 12.5079C12.8757 12.5558 12.8278 12.6775 12.7476 12.7357C12.8148 12.7681 12.8239 12.8056 12.9197 12.8381C12.8809 12.8925 12.8173 12.9858 12.789 13.0429C12.7605 13.1038 12.6581 13.3562 12.6128 13.4519C12.565 13.5478 12.5003 13.7238 12.4691 13.7592C12.438 13.7945 12.3254 13.9442 12.2387 14.018C12.3155 13.9895 12.6297 13.8937 12.763 13.8575C12.7233 13.9157 12.5222 14.2141 12.3288 14.501C11.403 15.056 10.3695 15.4072 9.29732 15.5313C8.22509 15.6555 7.13872 15.5496 6.1106 15.2209L6.11119 15.2196Z" fill="#E0CD81"/>
<path fill-rule="evenodd" clip-rule="evenodd" d="M4.57424 6.7651C4.57424 6.7651 4.46169 6.7651 4.43967 6.78063C4.41765 6.79616 4.55231 6.82859 4.5937 6.84412C4.63509 6.85965 4.72443 6.93082 4.74773 6.98782C4.76974 7.04218 5.55678 7.35927 5.55678 7.35927L6.11341 7.33077L6.30533 7.06564L5.94027 6.7459L6.19627 5.99121L5.85715 6.04557L5.04162 6.53197L4.63253 6.68864L4.57424 6.7651Z" fill="#DFC57C"/>
<path fill-rule="evenodd" clip-rule="evenodd" d="M5.79663 7.01495C5.80468 7.02798 5.81601 7.03866 5.82949 7.04593C5.84297 7.05319 5.85812 7.05678 5.87343 7.05634C5.98863 7.05634 6.0947 7.08484 6.13873 7.14304C6.21254 7.23631 6.41709 7.53404 6.41709 7.53404L6.90639 7.71008L6.93796 7.13391L6.40335 6.76245L5.79492 6.98637V7.01487H5.79629L5.79663 7.01495Z" fill="#E5CC7C"/>
<path fill-rule="evenodd" clip-rule="evenodd" d="M5.70058 7.22853C5.70058 7.22853 5.78984 7.23502 5.90248 7.19354C6.01512 7.15207 6.2002 7.06281 6.2805 7.0978C6.39306 7.14567 6.36976 7.29586 6.49153 7.4306C6.56526 7.51346 6.69992 7.5109 6.77629 7.60024C6.85266 7.68959 7.1154 7.64812 7.1154 7.64812L7.21507 8.18572L6.81512 8.6984L6.6843 9.33524H6.14346L5.64938 9.13923L5.40601 8.55043L5.52769 7.95497L5.70058 7.22853Z" fill="#D2C281"/>
<path fill-rule="evenodd" clip-rule="evenodd" d="M6.74683 7.25433C6.76024 7.25847 6.77418 7.26065 6.78822 7.26082C6.77269 7.27379 6.74026 7.3022 6.75323 7.37601C6.7662 7.44983 6.80759 7.54301 6.77269 7.59992C6.80055 7.63038 6.82133 7.66663 6.83353 7.70607C6.85555 7.76956 6.86203 7.82775 7.00565 7.83688C6.98492 7.84964 6.96581 7.86485 6.94873 7.88219C6.94873 7.88219 7.0484 7.96889 7.09892 8.0491C7.15063 8.04688 7.28784 8.00421 7.28784 8.00421L7.31635 8.02367L7.37719 7.99807C7.37719 7.99807 7.32027 7.97606 7.36166 7.83756C7.40049 7.71588 7.43547 7.72237 7.43846 7.71332C7.44145 7.70428 7.46696 7.57611 7.46696 7.52432C7.48633 7.45708 7.50186 7.25254 7.50186 7.25254L7.46047 6.8008L7.22751 6.65967L7.03807 6.47681L6.85939 6.81335L6.74171 6.93068L6.73267 7.22191L6.74683 7.25433Z" fill="#E2C270"/>
<path fill-rule="evenodd" clip-rule="evenodd" d="M7.30737 6.87636C7.30737 6.87636 7.34876 6.99412 7.36438 7.08474C7.36988 7.06713 7.37292 7.04884 7.37342 7.03039C7.37342 7.03039 7.40576 7.20907 7.41216 7.28289C7.42513 7.28024 7.43776 7.2764 7.44066 7.28929C7.44357 7.30217 7.47309 7.44596 7.46626 7.52617C7.52017 7.43724 7.59476 7.36265 7.68369 7.30874C7.73549 7.27632 7.79633 7.24142 7.85982 7.23877C7.95949 7.23621 8.03194 7.30226 8.15106 7.30226C8.43838 7.30226 8.69865 7.09123 8.89022 7.02655C9.03128 6.97859 9.15296 6.94369 9.23838 6.86595C9.27985 6.83105 9.35367 6.75339 9.42091 6.63811C9.51025 6.48451 9.60344 6.35079 9.69671 6.33398C9.65451 6.34173 9.61158 6.34477 9.56871 6.34303C9.56871 6.34303 9.59721 6.31452 9.64551 6.2757C9.69381 6.23687 9.75166 6.189 9.83443 6.189C9.98206 6.189 10.0558 6.21093 10.1386 6.21093C10.2215 6.20837 10.2694 6.189 10.2694 6.189C10.2694 6.189 10.3562 6.24984 10.5516 6.24984C10.7471 6.2524 10.8778 6.26921 10.9801 6.27834C11.0824 6.28747 11.4254 6.24984 11.5238 6.25274C11.5879 6.25522 11.6509 6.27063 11.709 6.29806L11.3918 5.37646L10.2524 4.38062L9.57408 4.86087L8.53063 5.90424L7.52096 6.27834L7.30993 6.51523V6.87636H7.30737Z" fill="#CCB360"/>
<path fill-rule="evenodd" clip-rule="evenodd" d="M9.57268 6.34829C9.57268 6.34829 9.60119 6.31987 9.64897 6.28104C9.69676 6.24222 9.75522 6.19426 9.83799 6.19426C9.98554 6.19426 10.0594 6.21628 10.1422 6.21628C10.2251 6.21372 10.2729 6.19426 10.2729 6.19426C10.2729 6.19426 10.3598 6.25502 10.5552 6.25502C10.7507 6.25758 10.8814 6.27439 10.9837 6.28343C11.086 6.29248 11.429 6.25502 11.5274 6.25783C11.5915 6.26025 11.6545 6.27566 11.7125 6.30315L11.5688 5.88757L11.4018 5.57047L10.9254 5.04875C10.9254 5.04875 10.3537 4.71219 10.3493 4.70963C10.3468 4.70707 10.1513 4.65527 10.1513 4.65527L9.63344 4.96853L9.16359 6.18411L9.15454 6.44011L9.45868 6.58381C9.53505 6.45581 9.61928 6.35341 9.69821 6.34044C9.62696 6.3482 9.5726 6.3482 9.5726 6.3482L9.57268 6.34829Z" fill="#D5B457"/>
<path fill-rule="evenodd" clip-rule="evenodd" d="M9.56623 6.43509C9.52092 6.43765 9.48346 6.42861 9.47305 6.39627C9.43423 6.28755 9.40317 6.27202 9.37066 6.27202C9.33815 6.27202 9.29429 6.34191 9.26826 6.34831C9.24224 6.35471 9.21135 6.2681 9.21135 6.2681L9.18285 6.25513C9.18285 6.25513 9.01586 6.36384 8.8981 6.49201C8.78035 6.62018 8.58741 6.8377 8.50072 6.87644C8.41402 6.91518 8.11622 6.92824 8.01434 6.95025C7.91246 6.97227 7.79948 7.04608 7.78395 7.06289C7.76842 7.0797 7.82935 7.09779 7.83839 7.1146C7.84743 7.13013 7.73864 7.12365 7.72959 7.1402C7.72319 7.15317 7.75519 7.2269 7.77106 7.26445C7.79884 7.25064 7.82931 7.24312 7.86032 7.24243C7.95998 7.23987 8.03252 7.30592 8.15155 7.30592C8.43894 7.30592 8.69911 7.09489 8.89068 7.03012C9.03181 6.98225 9.15349 6.94727 9.23891 6.86961C9.28029 6.83471 9.3541 6.75697 9.42143 6.64177C9.47058 6.56284 9.51853 6.48903 9.56649 6.43467L9.56623 6.43509Z" fill="#D2B257"/>
<path fill-rule="evenodd" clip-rule="evenodd" d="M5.44462 12.8416C5.44462 12.8416 5.41902 12.7458 5.18179 12.4986C5.11446 12.4287 5.07308 12.3706 5.02777 12.329C4.91512 12.2228 4.84908 12.1944 4.76886 12.1335C4.59282 12.0028 4.40124 12.0028 4.2537 11.8423C4.10616 11.6818 3.93421 11.3751 3.81474 11.0616C3.69698 10.7484 3.66455 10.6487 3.66455 10.6396C3.66455 10.6306 3.69698 10.5697 3.73836 10.5788C3.77975 10.5878 3.77975 10.6681 3.79016 10.6875C3.81078 10.7193 3.83417 10.7491 3.86005 10.7768C3.92089 10.8467 4.00759 10.9304 4.05163 11.0551C4.04258 10.949 4.00631 10.8312 4.00631 10.8312C4.00631 10.8312 4.23416 10.9749 4.42829 11.125C4.62379 11.2752 4.70401 11.327 4.7611 11.4228C4.81818 11.5185 4.95267 11.771 5.0171 11.8448C5.08153 11.9186 5.96431 12.1969 5.96431 12.1969L6.38424 12.51L6.59271 12.967L6.42955 13.223L6.11629 13.2903L5.60753 13.0625L5.44462 12.8415V12.8416Z" fill="#D2B159"/>
<path fill-rule="evenodd" clip-rule="evenodd" d="M4.31445 11.2674C4.31445 11.2674 4.42061 11.4369 4.67951 11.5974C4.91255 11.7386 5.28145 11.8667 5.61032 11.9431C5.79925 11.9884 5.98827 12.0233 6.15782 12.026C6.61478 12.0324 6.92932 11.9017 7.31904 11.859C7.53007 11.837 7.78897 11.8201 8.0582 11.7566C8.4038 11.6737 8.60834 11.5804 8.8867 11.4494C9.0886 11.3562 9.27377 11.2863 9.42387 11.197C9.6349 11.0727 9.78893 10.9342 9.96762 10.8928C9.9456 10.9537 9.9223 11.0624 9.74626 11.175C9.83945 11.1724 9.96762 11.166 9.96762 11.166C9.96762 11.166 9.84337 11.2397 9.62458 11.4054C9.48992 11.5078 9.31132 11.6811 9.12879 11.7963C9.01094 11.8701 8.88277 11.9243 8.79863 11.9685C8.59383 12.0812 8.51123 12.1381 8.37666 12.2757C8.42453 12.2732 8.42846 12.2757 8.42846 12.2757C8.42846 12.2757 8.25882 12.2977 8.13722 12.3624C8.11162 12.3624 8.06724 12.3534 7.98959 12.3754C7.92875 12.3948 7.84845 12.4389 7.76567 12.4621C7.64783 12.4971 7.60909 12.4816 7.60909 12.4816L7.62846 12.5204C7.62846 12.5204 7.47486 12.5177 7.42366 12.5229C7.4327 12.5255 7.43014 12.5294 7.43014 12.5294C7.42115 12.5309 7.41249 12.534 7.40454 12.5385C7.37991 12.5544 7.3528 12.5662 7.32433 12.5734C7.3088 12.5759 7.29583 12.5759 7.27637 12.5799C7.28286 12.5954 7.33338 12.6823 7.35667 12.7335C7.3373 12.7464 7.04597 12.9665 7.04597 12.9665C7.05501 12.9807 7.06239 12.9959 7.06799 13.0118C7.07703 13.0402 7.08096 13.0817 7.09001 13.1011C7.11194 13.1399 7.12491 13.1464 7.12491 13.1464C7.12491 13.1464 7.09001 13.1529 7.02908 13.1684C6.97737 13.1814 6.91388 13.2033 6.82428 13.2163C6.79679 13.2199 6.76913 13.222 6.74142 13.2228C6.75439 13.2513 6.81131 13.36 6.70643 13.4855C6.60156 13.611 6.56922 13.6293 6.53687 13.7095C6.5206 13.6972 6.50326 13.6863 6.48508 13.6771C6.45018 13.6615 6.40222 13.6383 6.38541 13.6072C6.37561 13.6487 6.36263 13.6894 6.34658 13.7289C6.31424 13.8156 6.26637 13.9011 6.25732 13.9658C6.22234 13.9269 6.15765 13.8506 6.06831 13.8661C5.97897 13.8816 5.9078 14.0033 5.89227 14.0383C5.89227 14.0163 5.87674 13.9995 5.8729 14.0253C5.87025 14.0538 5.8211 14.3515 5.54667 14.5923C5.54411 14.5314 5.54411 14.3968 5.53762 14.3528C5.51202 14.3784 5.4807 14.4162 5.29425 14.4965C5.11172 14.5767 5.14065 14.657 5.14065 14.657C5.14065 14.657 5.12512 14.529 5.22351 14.3942C5.32318 14.2596 5.38402 14.1962 5.38402 14.1858C5.38241 14.1753 5.37792 14.1655 5.37105 14.1573C5.35808 14.1444 5.33222 14.1288 5.33222 14.1185C5.34775 14.1121 5.50178 14.0383 5.49274 13.8855C5.48369 13.7483 5.42549 13.6771 5.38402 13.6266C5.37762 13.6202 5.44495 13.5723 5.43582 13.5568C5.42933 13.5477 5.34656 13.4868 5.33615 13.4544C5.3386 13.435 5.34294 13.4159 5.34912 13.3974C5.35817 13.3689 5.36465 13.3495 5.36209 13.3301C5.35561 13.2978 5.32062 13.2084 5.31029 13.1994C5.31934 13.2019 5.38402 13.1994 5.38402 13.1994C5.38402 13.1994 5.33231 13.1165 5.32318 13.0777C5.31405 13.0389 5.29468 12.9366 5.28435 12.9172C5.30637 12.9197 5.36073 12.9236 5.36073 12.9172C5.36337 12.8977 5.31285 12.8654 5.33512 12.8404C5.35066 12.8429 5.38044 12.8559 5.40885 12.8922C5.39332 12.8507 5.36747 12.7705 5.31302 12.7382C5.33862 12.7291 5.42566 12.7057 5.50204 12.751C5.57841 12.7964 5.60444 12.8598 5.60444 12.8598C5.60444 12.8598 5.64975 12.8947 5.71972 12.9465C5.79994 13.0099 5.90217 13.1001 6.06532 13.164C6.10031 13.1834 6.18957 13.1834 6.25434 13.1705C6.28254 13.1637 6.30957 13.1528 6.33455 13.1381C6.34357 13.1328 6.35312 13.1285 6.36305 13.1251C6.34914 13.0972 6.33313 13.0704 6.31518 13.0448C6.33719 13.0448 6.36305 13.0475 6.36305 13.0475C6.36305 13.0475 6.37858 13.0125 6.30869 12.9451C6.32422 12.9296 6.34368 12.9195 6.34368 12.8933C6.32166 12.8907 6.28284 12.8584 6.27379 12.8454C6.28668 12.8364 6.30613 12.8066 6.32815 12.7975C6.30869 12.782 6.26082 12.7172 6.23881 12.7108C6.25984 12.703 6.28019 12.6935 6.29965 12.6823C6.29965 12.6823 6.19093 12.6538 6.15595 12.6306C6.12096 12.605 6.06925 12.5607 6.03819 12.5477C6.00576 12.5347 5.94884 12.5283 5.92555 12.5024C5.94748 12.5089 5.98246 12.5024 6.00841 12.5024C6.02778 12.5024 6.03691 12.5049 6.04331 12.5049C6.04075 12.4959 6.04075 12.4764 6.09126 12.47C6.11556 12.4664 6.13914 12.4589 6.16115 12.448C6.16115 12.448 6.11319 12.4455 6.05875 12.3937C6.00431 12.3419 5.95908 12.3005 5.92802 12.294C5.89568 12.2875 5.83484 12.316 5.79729 12.3134C5.74549 12.307 5.72348 12.281 5.72348 12.281C5.72348 12.281 5.55136 12.2966 5.16949 12.0636C4.83934 11.8616 4.69564 11.683 4.69564 11.683C4.66474 11.6718 4.63487 11.6579 4.60638 11.6415C4.48213 11.5769 4.30993 11.4422 4.31514 11.2661L4.31445 11.2674Z" fill="#C2A44D"/>
<path fill-rule="evenodd" clip-rule="evenodd" d="M9.07675 3.49765C9.1067 3.50738 9.13331 3.52533 9.15355 3.54945C9.21439 3.61933 9.25322 3.75135 9.11472 3.89249C9.16908 3.91186 9.19152 3.91809 9.23897 3.91186C9.1911 3.96886 9.08238 4.09055 9.07589 4.1967C9.06941 4.2834 9.12377 4.30934 9.12377 4.30934C9.12377 4.30934 9.04091 4.40508 9.03707 4.56534C9.0762 4.52121 9.11902 4.4805 9.16507 4.44365C9.2609 4.36728 9.39291 4.28058 9.48226 4.22623C9.48105 4.24901 9.48411 4.27182 9.4913 4.29347C9.4913 4.29347 9.65822 4.15625 9.79851 4.21718C9.86191 4.24568 9.83341 4.33494 9.83341 4.33494C9.83341 4.33494 9.9202 4.3026 9.98104 4.36344C10.0419 4.42428 10.1279 4.58121 10.172 4.64205C10.1914 4.67056 10.2419 4.72491 10.2936 4.80905C10.3643 4.92685 10.4233 5.05126 10.4698 5.18051C10.4723 5.11318 10.4891 5.00839 10.6808 5.07435C10.8724 5.14168 11.0898 5.28282 11.2723 5.56075C11.4549 5.83868 11.5001 6.15245 11.592 6.27192C11.6852 6.38712 11.781 6.57869 11.7875 6.65899C11.794 6.73929 11.759 6.99811 11.9506 7.69844C12.0049 7.48101 12.0878 6.99811 12.0878 6.99811L12.1331 6.57221L12.1849 5.25441L10.8088 4.1112L9.73306 3.33057L9.03271 3.39789L9.07666 3.49756L9.07675 3.49765Z" fill="#CAA13E"/>
<path fill-rule="evenodd" clip-rule="evenodd" d="M11.6334 5.45895C11.6334 5.45895 11.6139 5.33095 11.2903 5.11335C10.9667 4.89848 10.7142 4.89848 10.4813 4.71595C10.3026 4.57225 10.1162 4.24209 9.99488 4.13338C9.87704 4.02594 9.85767 3.71524 9.85767 3.71524L10.2551 3.38244L10.8461 2.52817L11.3457 1.97803L11.5852 2.31083L11.918 2.70174L12.103 3.48621L12.1704 4.63445L11.6328 5.45903L11.6334 5.45895Z" fill="#B59544"/>
<path fill-rule="evenodd" clip-rule="evenodd" d="M12.0336 6.8353C12.0434 6.66117 12.0219 6.48669 11.9701 6.32014C11.8848 6.05476 11.6983 5.58355 11.6117 5.40708C11.5767 5.21158 11.6027 5.19605 11.6402 5.17403C11.6778 5.15202 11.8189 5.07163 11.8962 4.78961C11.9735 4.50758 12.2134 4.49836 12.2134 4.49836L12.361 4.38965L12.585 4.95012L12.7804 5.45632L12.8412 5.84339L12.8865 6.17346L12.7804 6.87123L12.2562 7.345L12.0335 6.8353H12.0336Z" fill="#C89D3A"/>
<path fill-rule="evenodd" clip-rule="evenodd" d="M4.71826 14.6125V14.5982C4.72915 14.5914 4.73877 14.5827 4.74668 14.5726C4.75572 14.5596 4.76229 14.5441 4.76869 14.5402C4.78166 14.5337 4.84251 14.5146 4.87485 14.5208C4.90719 14.5269 4.99269 14.5622 5.03801 14.5596C5.13119 14.557 5.2399 14.4858 5.41211 14.5182C5.67101 14.5661 5.73185 14.7421 5.88204 14.8418C5.98444 14.9118 6.09042 14.8806 6.10595 14.8806H6.14085C6.14734 14.8806 6.19521 14.8263 6.22115 14.8289C6.27295 14.8315 6.27807 14.8742 6.31041 14.8768C6.38678 14.8858 6.53441 14.838 6.60822 14.8574C6.63011 14.8643 6.65002 14.8763 6.66624 14.8925C6.68247 14.9087 6.69453 14.9286 6.70141 14.9505C6.71694 14.9984 6.70397 15.0592 6.66642 15.0942C6.58621 15.168 6.50984 15.2379 6.4943 15.299C6.51406 15.3141 6.53303 15.3302 6.55114 15.3472C5.91064 15.184 5.29439 14.9372 4.71826 14.6133V14.6125Z" fill="#CEB052"/>
<path fill-rule="evenodd" clip-rule="evenodd" d="M11.6116 12.026C11.6116 12.026 11.8135 11.7568 11.8835 11.6234C11.9533 11.4859 11.6621 9.74512 11.6621 9.74512L12.2472 7.82802L12.2316 7.20406C12.2316 7.20406 12.2601 6.62797 12.3275 6.37812C12.4078 6.52182 12.6576 6.6953 12.712 6.78721C12.7376 6.61108 12.8245 6.23962 12.8117 5.84351C12.8595 5.91723 12.9747 6.65904 12.9747 6.65904L13.0899 7.15866L13.2401 7.68944L13.4071 8.24999L13.5068 8.63706L13.5637 8.73025L13.6117 8.89332L13.657 9.06945L13.7877 9.48237L13.8645 9.82149L13.9254 10.4364C13.9386 10.4835 13.9482 10.5315 13.9539 10.5801C13.9565 10.6474 13.9448 10.6863 13.9448 10.6979C13.9448 10.7096 13.9669 10.8455 13.9578 10.9478C13.9448 11.0502 13.9448 11.1303 13.8645 11.2038C13.7842 11.2773 13.7338 11.7164 13.7338 11.7164L13.5901 11.6207C13.5901 11.6207 13.6186 11.4898 13.5513 11.3708C13.4839 11.2518 13.3532 11.2271 13.2794 11.2466C13.2057 11.2621 13.0581 11.2853 13.0102 11.3268C12.9648 11.3682 12.8536 11.4963 12.7512 11.5546C12.6232 11.6314 12.4147 11.6375 12.3034 11.6633C12.1908 11.6889 12.0665 11.7657 11.9357 11.8549C11.8331 11.9213 11.7248 11.9784 11.6121 12.0256L11.6116 12.026Z" fill="#CCA847"/>
<path fill-rule="evenodd" clip-rule="evenodd" d="M11.6116 14.8543C11.6116 14.8543 11.6201 14.8598 11.6366 14.8689C12.5563 14.438 13.3803 13.8272 14.06 13.0726C14.0526 12.8106 14.043 12.5421 14.0324 12.4426C14.0105 12.2316 14.026 12.0167 14.0195 11.8925C14.013 11.7682 13.9431 11.262 13.9108 11.1313C13.8758 11.0006 13.8084 10.9358 13.7982 10.9358C13.7891 10.9384 13.7347 11.1818 13.7347 11.243C13.7347 11.3042 13.7217 11.4515 13.7217 11.489C13.7126 11.4864 13.7088 11.4634 13.7088 11.454C13.6958 11.4864 13.6803 11.5434 13.6738 11.5498C13.6673 11.5563 13.6829 11.4955 13.6738 11.4825C13.6648 11.4696 13.6482 11.476 13.6518 11.4437C13.6533 11.4245 13.6564 11.4055 13.6609 11.3868C13.6609 11.3868 13.622 11.4437 13.5936 11.5887C13.5651 11.7324 13.5651 11.7363 13.5548 11.7492C13.5457 11.7648 13.4939 11.8165 13.4913 11.836C13.4887 11.8709 13.5393 11.9059 13.5431 11.9252C13.5457 11.9577 13.4978 12.1078 13.4822 12.1812C13.4667 12.2547 13.4732 12.3987 13.4566 12.4725C13.4437 12.5398 13.431 12.5786 13.3868 12.607C13.4191 12.6135 13.4502 12.6226 13.4502 12.6226C13.4502 12.6226 13.4955 12.8141 13.3803 12.9773C13.3389 13.0342 13.3286 13.0602 13.2845 13.112C13.1977 13.2077 13.1304 13.3168 13.1239 13.3877C13.1195 13.3667 13.1164 13.3455 13.1149 13.3242C13.1149 13.3242 12.9803 13.4809 12.9233 13.5702C12.8496 13.6854 12.7473 13.6789 12.7185 13.7074C12.6898 13.7359 12.6835 13.7876 12.6929 13.8291C12.6673 13.8355 12.6192 13.8446 12.5868 13.9443C12.5712 13.996 12.5324 14.0467 12.4716 14.0815C12.4107 14.1163 12.3369 14.1268 12.2994 14.1359C12.3317 14.1449 12.3447 14.1449 12.3602 14.1552C12.3408 14.1876 12.2515 14.2381 12.1518 14.3029C12.0521 14.3637 12.0042 14.453 11.9796 14.5113C11.954 14.5656 11.9162 14.6006 11.8554 14.6071C11.881 14.6226 11.9189 14.6588 11.9382 14.6705C11.9097 14.677 11.8614 14.677 11.7752 14.7508C11.6845 14.8259 11.6535 14.8479 11.612 14.8544L11.6116 14.8543Z" fill="#C39D3C"/>
<path fill-rule="evenodd" clip-rule="evenodd" d="M9.81024 15.4544C9.85981 15.4196 9.91349 15.3912 9.97007 15.3696C10.172 15.2894 10.3856 15.2739 10.4697 15.248C10.55 15.2224 10.6134 15.1871 10.7131 15.1677C10.7104 15.1904 10.7082 15.2118 10.7058 15.2319C10.412 15.3243 10.1127 15.3986 9.80981 15.4544H9.81024Z" fill="#D2BA6B"/>
<path fill-rule="evenodd" clip-rule="evenodd" d="M13.5343 10.1437C13.5343 10.1437 13.4929 10.3677 13.4191 10.5088C13.3453 10.6499 13.2655 10.8454 13.2655 10.8454C13.266 10.8013 13.2712 10.7575 13.281 10.7145C13.1878 10.7689 12.9613 10.8997 12.897 10.9579C12.8362 11.0123 12.7338 11.1081 12.708 11.1534C12.7688 10.9748 12.8322 10.8143 12.8426 10.7405C12.7495 10.8078 12.3144 11.1664 12.088 11.4033L11.3824 11.9741C11.301 12.0181 11.2172 12.0573 11.1313 12.0917C11.0097 12.1434 10.866 12.1875 10.7598 12.2289C10.7883 12.1526 10.8336 12.0851 10.897 12.0205C10.9644 11.9571 11.1663 11.7383 11.1973 11.6365C11.2258 11.5303 11.2323 11.4669 11.1948 11.3776C11.1598 11.3866 11.0796 11.3905 11.0252 11.4061C10.9709 11.4216 10.9126 11.4798 10.9126 11.4798C10.9126 11.4798 10.954 11.2429 11.0433 11.019C10.976 11.0216 10.8608 11.0409 10.8608 11.0409C10.8608 11.0409 11.0213 10.7717 11.296 10.5841C11.2119 10.602 11.1295 10.6275 11.05 10.6604C10.8895 10.7277 10.7135 10.8273 10.5828 10.8817C10.6565 10.7793 11.1743 10.0403 11.4824 9.35161C11.7896 8.66426 11.9044 8.48822 11.9717 8.11932C12.0066 7.9368 11.9973 7.66706 12.0066 7.42549C12.0157 7.18596 12.0455 6.97109 12.0261 6.82739C12.1063 6.92706 12.4067 7.20797 12.417 7.83585C12.426 8.46364 12.1297 9.31159 11.8151 9.76846C11.8919 9.79047 12.0909 9.81641 12.2953 9.46126C12.4998 9.10611 12.4973 9.00695 12.5711 8.85933C12.5802 8.93314 12.5775 8.95899 12.5775 8.95899C12.5775 8.95899 12.8753 8.59787 13.0164 8.14347C13.0449 8.33897 13.129 8.51117 12.9969 8.86974C12.8792 9.19332 12.7251 9.27234 12.7251 9.27234C12.7251 9.27234 12.8015 9.25936 12.9141 9.19204C12.9335 9.23991 12.9297 9.29444 12.962 9.31372C12.9944 9.33301 13.0384 9.36552 13.0449 9.39658C13.0798 9.34478 13.1341 9.27873 13.151 9.22958C13.1381 9.33198 13.129 9.77972 13.1766 10.0076C13.2764 9.99851 13.3786 9.99203 13.4485 9.81206C13.4006 9.98819 13.4006 10.0943 13.433 10.2444C13.4861 10.2083 13.5339 10.1435 13.5339 10.1435L13.5343 10.1437Z" fill="#C0993A"/>
<path fill-rule="evenodd" clip-rule="evenodd" d="M10.1708 3.00845C10.1708 3.00845 10.0711 3.04984 9.90152 3.04984C9.75397 3.04984 9.79536 2.99292 9.56496 2.99292C9.2103 2.99292 7.9714 3.19772 7.75388 3.19482C7.61274 3.19226 8.23023 3.25566 8.23023 3.25566L9.80833 3.27768L10.1254 3.25208L10.2433 3.01229L10.1708 3.00845Z" fill="#A88F33"/>
<path fill-rule="evenodd" clip-rule="evenodd" d="M6.07872 6.09312C6.07872 6.09312 5.87674 6.24715 5.79132 6.36499C5.7059 6.48284 5.66059 6.5604 5.56348 6.65623C5.58627 6.6571 5.60905 6.65404 5.6308 6.64719C5.6308 6.64719 5.6308 6.67279 5.61527 6.67953C5.62869 6.67803 5.64228 6.67955 5.65504 6.68398C5.6678 6.68841 5.6794 6.69563 5.689 6.70513C5.6605 6.72066 5.58285 6.7984 5.64369 6.8903C5.689 6.96019 5.78483 6.96659 5.78483 6.96659C5.78483 6.96659 5.76282 7.03008 5.85472 7.02359C6.05278 7.01455 6.27413 6.92776 6.37636 6.94978C6.47876 6.97538 6.53696 6.98477 6.60941 7.11038C6.68621 7.23462 6.75311 7.25408 6.75311 7.25408C6.75311 7.25408 6.79842 7.13879 6.7881 6.96668C6.82525 6.8739 6.84584 6.77532 6.84894 6.67543L6.78161 6.17965L6.48781 5.80811L6.10722 6.01913L6.07872 6.09286V6.09312Z" fill="#E3C571"/>
<path fill-rule="evenodd" clip-rule="evenodd" d="M6.43994 6.01953C6.43994 6.01953 6.46844 6.08685 6.58757 6.09325C6.5746 6.12175 6.5746 6.12568 6.57852 6.14761C6.58108 6.16963 6.58492 6.20197 6.58492 6.20197C6.59804 6.19562 6.60989 6.18695 6.61991 6.17637C6.62639 6.20487 6.61342 6.2501 6.61991 6.28252C6.62391 6.30224 6.63042 6.32137 6.63928 6.33944C6.64117 6.33501 6.64333 6.33071 6.64577 6.32655C6.64833 6.32007 6.67137 6.39644 6.73511 6.45455C6.73505 6.44562 6.73725 6.43681 6.74151 6.42895C6.74249 6.44519 6.74785 6.46085 6.75704 6.47427C6.75227 6.47199 6.74791 6.46894 6.74415 6.46522C6.74415 6.46522 6.75055 6.67002 6.78554 6.77592C6.79139 6.76908 6.79659 6.76171 6.80107 6.7539C6.80107 6.7475 6.79851 6.81091 6.79203 6.8563C6.78298 6.90162 6.78947 6.96502 6.78947 6.96502C6.81281 6.94664 6.83845 6.93141 6.86575 6.91971C6.90458 6.90409 6.96815 6.85622 7.0069 6.75006C7.02937 6.68995 7.0467 6.62803 7.05869 6.56498C7.07121 6.58907 7.07985 6.61499 7.08429 6.64178C7.08694 6.67412 7.14778 6.65731 7.14778 6.65731L7.16075 6.51617L7.23755 6.19642L7.30744 5.99836L7.64399 5.47416L8.25208 5.00585L8.78285 5.12754L9.23068 4.51911L8.45918 4.05566L7.72907 4.13204L7.06646 5.0498L6.53577 5.88222L6.43994 6.01944V6.01953Z" fill="#D8B65B"/>
<path fill-rule="evenodd" clip-rule="evenodd" d="M10.2639 4.69119C10.2639 4.69119 10.2186 4.70024 10.0879 4.76799C9.95715 4.83575 9.86653 4.85725 9.81602 4.95692C9.7655 5.05659 9.76166 5.13561 9.76166 5.13561C9.76166 5.13561 9.851 5.09679 9.9028 5.08381C9.95715 5.07093 10.018 5.07477 10.0115 5.09679C10.0053 5.11188 9.99664 5.12586 9.98591 5.13817C9.98591 5.13817 10.0883 5.13561 10.0856 5.18613C10.0828 5.23665 10.0662 5.29229 10.0468 5.31686C10.0274 5.34246 9.94717 5.38035 9.93813 5.41013C9.91611 5.47098 9.94717 5.47354 9.93548 5.52269C9.92644 5.57065 9.88377 5.66383 9.74391 5.82691C9.60021 5.99006 9.53911 6.10527 9.53911 6.10527C9.53911 6.10527 9.46922 5.97453 9.43296 5.86189C9.40736 5.87478 9.26989 5.95115 9.26989 5.95115L8.95143 4.84181L8.95783 4.76799C8.95783 4.76799 8.98633 4.73309 8.99281 4.66832C8.94494 4.65279 8.93846 4.63982 8.87497 4.57906C8.81148 4.5183 8.75977 4.4444 8.6537 4.39389C8.63817 4.36538 8.61871 4.32664 8.54106 4.31103C8.46341 4.29541 8.41682 4.28261 8.41682 4.28261C8.41682 4.28261 8.4582 4.26699 8.47766 4.23465C8.4297 4.24114 8.39096 4.25667 8.28609 4.25411C8.17993 4.25146 8.16824 4.24762 8.11005 4.25667C8.05185 4.26571 7.98205 4.29166 7.95602 4.20231C7.92752 4.18029 7.86668 4.19975 7.81488 4.27604C7.76309 4.35233 7.745 4.41326 7.64533 4.44304C7.63832 4.48697 7.62294 4.52915 7.60002 4.56729C7.57151 4.61524 7.5262 4.66312 7.46536 4.73429C7.36953 4.84693 7.38506 5.03202 7.23232 5.17316C7.07829 5.31422 7.25792 4.78216 7.25792 4.78216L7.50385 4.19335L8.20417 3.50854L9.29156 3.43481L9.39771 3.99802L9.92848 4.18055L10.2638 4.69187L10.2639 4.69119Z" fill="#D3AE4D"/>
<path fill-rule="evenodd" clip-rule="evenodd" d="M10.436 4.81555L9.97908 4.1567L9.65935 3.91069C9.65935 3.91069 9.43152 3.49137 9.41599 3.4784C9.40302 3.46935 9.18816 3.44606 9.05094 3.43701L9.07654 3.50041C9.10649 3.51014 9.1331 3.52809 9.15334 3.55221C9.21418 3.6221 9.25301 3.7541 9.11452 3.89524C9.16887 3.91461 9.19131 3.92084 9.23876 3.91461C9.19089 3.97162 9.08218 4.0933 9.07569 4.19945C9.06921 4.28615 9.12356 4.312 9.12356 4.312C9.12356 4.312 9.04071 4.40783 9.03687 4.568C9.07599 4.52387 9.11881 4.48317 9.16486 4.44632C9.26069 4.36952 9.39269 4.28316 9.48203 4.22881C9.48081 4.25162 9.48388 4.27445 9.49108 4.29613C9.49108 4.29613 9.65798 4.15892 9.79826 4.21976C9.86166 4.24826 9.83317 4.3376 9.83317 4.3376C9.83317 4.3376 9.91995 4.30526 9.98079 4.3661C10.0416 4.42695 10.1283 4.58353 10.1724 4.64446C10.1917 4.67296 10.2422 4.72731 10.2939 4.81137C10.3646 4.92918 10.4236 5.05362 10.4701 5.1829C10.4726 5.1311 10.483 5.05866 10.5725 5.05866L10.4365 4.81529L10.436 4.81555Z" fill="#CAA13E"/>
<path fill-rule="evenodd" clip-rule="evenodd" d="M3.58566 6.68737C3.58566 6.68737 3.55332 6.60708 3.58566 6.45049C3.618 6.2939 3.66852 6.22009 3.68533 5.98969C3.70214 5.75929 3.85233 5.47189 3.85233 5.47189L4.26781 5.28296L4.5617 5.36317L4.6484 5.75673L4.27686 5.96153C4.27686 5.96153 4.25749 6.04823 4.15261 6.11812C4.04774 6.188 3.90276 6.24236 3.86786 6.31361C3.84699 6.35725 3.83177 6.40336 3.82255 6.45083C3.82255 6.45083 3.71639 6.42882 3.65299 6.4987C3.58566 6.56996 3.58822 6.63336 3.58566 6.68772V6.68737Z" fill="#F4EFC8"/>
<path fill-rule="evenodd" clip-rule="evenodd" d="M4.42433 6.58263C4.42433 6.58263 4.38935 6.60464 4.36349 6.65943C4.33789 6.61804 4.27671 6.37203 4.27415 6.15068C4.27159 5.92932 4.25836 5.87446 4.30956 5.79817C4.36076 5.72188 4.56155 5.6415 4.53305 5.50411C4.50455 5.37338 4.38542 5.31903 4.23916 5.35657C4.13676 5.38217 4.06056 5.59994 3.9544 5.70865C3.8741 5.79151 3.77836 5.77854 3.7525 5.82385C3.71752 5.8847 3.74986 5.94554 3.73953 5.98436C3.73689 5.99733 3.70455 6.06722 3.64626 6.15136C3.5285 6.32091 3.32916 6.56044 3.30322 6.77531C3.31227 6.65363 3.30587 6.65107 3.33821 6.51641L3.31875 6.48407L3.44675 6.06466L3.52961 5.71907L3.71479 5.14034L4.04093 4.54882L4.35811 4.19409L4.68818 4.21611L4.72701 4.71189L4.91602 5.64269L5.31342 6.13199L4.67649 6.56061L4.42408 6.58263H4.42433Z" fill="#EBCC73"/>
<path fill-rule="evenodd" clip-rule="evenodd" d="M4.62243 6.75841C4.62243 6.75841 4.56807 6.77138 4.54861 6.76105C4.52916 6.75073 4.50987 6.73903 4.51627 6.72606C4.52267 6.71309 4.55766 6.69116 4.55766 6.68075C4.55838 6.67134 4.5554 6.66202 4.54936 6.65478C4.54332 6.64753 4.5347 6.64292 4.52532 6.64192C4.49554 6.63808 4.48649 6.65745 4.48649 6.65745C4.48649 6.65745 4.45799 6.63552 4.43478 6.63185C4.44851 6.63017 4.46233 6.62929 4.47617 6.62921C4.44039 6.613 4.40245 6.60211 4.36353 6.59686C4.39587 6.57749 4.45935 6.52049 4.50074 6.52049C4.54213 6.52049 4.56807 6.51409 4.56158 6.49207C4.5551 6.47005 4.52276 6.43771 4.48786 6.42474C4.50074 6.40921 4.50987 6.38591 4.47881 6.32234C4.44638 6.25893 4.45935 6.21618 4.46977 6.20073C4.47881 6.18127 4.51115 6.14637 4.52668 6.12435C4.54221 6.10234 4.55518 6.07256 4.58104 6.05702C4.59401 6.04798 4.6354 6.03142 4.67687 6.01564C4.72218 6.0001 4.75973 5.98065 4.78558 6.0001C4.81409 6.01948 4.80111 6.04542 4.80111 6.04542C4.80111 6.04542 4.89046 6.01299 4.97067 6.05446C5.05097 6.09321 5.24647 6.11787 5.24647 6.11787L5.31653 6.25902L4.85308 6.65643L4.66151 6.75226L4.62268 6.75866L4.62243 6.75841Z" fill="#E5C66B"/>
<path fill-rule="evenodd" clip-rule="evenodd" d="M5.26571 6.10874C5.26571 6.10874 5.12201 6.20457 5.08967 6.23947C5.10904 6.24212 5.14138 6.25509 5.12841 6.27446C5.11288 6.29383 5.01969 6.36116 4.9679 6.42464C4.91354 6.48805 4.86174 6.56835 4.84365 6.60717C4.82428 6.64207 4.67665 6.74439 4.62622 6.75727C4.73238 6.75727 4.94596 6.62654 5.02618 6.62654C5.02362 6.66537 5.04819 6.7094 5.09351 6.71324C5.13882 6.71708 5.26955 6.74174 5.44559 6.63303C5.62163 6.52687 5.56344 6.44785 5.63717 6.39614C5.77831 6.30287 5.83522 6.22001 5.91288 6.1683C5.99053 6.11659 6.03072 6.10481 6.03072 6.10481C6.03072 6.10481 6.03328 6.06599 6.05632 6.06991C6.06263 6.07064 6.06862 6.07307 6.07364 6.07695C6.07866 6.08083 6.08253 6.08601 6.08482 6.09193C6.08482 6.09193 6.21948 5.9961 6.39202 5.97024C6.388 5.96844 6.38478 5.96522 6.38298 5.9612C6.38298 5.9612 6.39586 5.95471 6.39851 5.94823C6.39851 5.94823 6.40755 5.93526 6.41404 5.94174C6.42052 5.94823 6.42957 5.9961 6.44254 6.01556C6.47104 6.00259 6.5254 5.8809 6.5254 5.8809L6.65622 5.5068V5.16504L6.55382 5.18449L5.78582 5.51064L5.31972 5.99354L5.26537 6.10874H5.26571Z" fill="#E6BD62"/>
<path fill-rule="evenodd" clip-rule="evenodd" d="M7.47693 4.43241C7.51848 4.42233 7.5583 4.40617 7.59512 4.38445C7.57959 4.42593 7.57959 4.47124 7.51226 4.56963C7.44493 4.66802 7.44237 4.68227 7.38802 4.7845C7.33366 4.89066 7.32717 5.04341 7.27538 5.11065C7.29859 5.09937 7.3235 5.09196 7.3491 5.08872C7.3491 5.08872 7.29739 5.13403 7.27538 5.18191C7.25336 5.22978 7.21453 5.32945 7.11879 5.39038C7.02305 5.45131 6.90127 5.49005 6.77054 5.63375C6.63973 5.77481 6.50516 5.9535 6.43774 6.01776C6.47273 5.95692 6.5206 5.83523 6.53357 5.75501C6.54654 5.6748 6.53093 5.57888 6.55294 5.47281C6.57496 5.36674 6.57496 5.29028 6.68094 5.10511C6.78693 4.91993 6.96835 4.27659 6.96835 4.27659L7.35926 4.15234L7.4771 4.43199L7.47693 4.43241Z" fill="#B6933F"/>
<path fill-rule="evenodd" clip-rule="evenodd" d="M7.19472 4.19547C7.19472 4.19547 7.07696 4.36503 7.04462 4.51521C7.01228 4.6654 7.04198 4.65243 7.02261 4.72624C7.01102 4.77125 7.01102 4.81845 7.02261 4.86346C7.06339 4.79776 7.11923 4.74271 7.1855 4.70286C7.29686 4.63562 7.38749 4.58766 7.4415 4.53074C7.49586 4.4699 7.54117 4.37023 7.65893 4.29386C7.61106 4.28737 7.54373 4.26536 7.53093 4.26826C7.57889 4.2139 7.7225 4.13104 7.86748 4.03137C8.01118 3.92897 8.00214 3.88767 8.23518 3.78544C8.15881 3.79841 8.12254 3.77896 8.05905 3.78544C8.08465 3.73109 8.17425 3.70514 8.26385 3.61589C8.35345 3.52663 8.20693 3.39453 8.20693 3.39453L7.52427 3.80746L7.19421 4.19581L7.19472 4.19547Z" fill="#C49937"/>
<path fill-rule="evenodd" clip-rule="evenodd" d="M5.34229 3.88733L5.35782 3.76309L5.55331 3.44983L5.75786 2.89969V2.14756L5.74233 1.71261L5.77467 1.42777L5.79924 1.33723L5.82519 1.30225L5.9921 1.38894L6.22258 1.7022L6.2446 2.30679L6.0206 3.26082L5.38111 3.95859L5.34229 3.88733Z" fill="#DFC068"/>
<path fill-rule="evenodd" clip-rule="evenodd" d="M5.85095 1.26737C5.85095 1.26737 5.74855 1.27001 5.72671 1.69591C5.70486 2.12181 5.69428 2.34573 5.67875 2.55676C5.66322 2.76778 5.62704 2.89587 5.60886 3.0202C5.59069 3.14453 5.58036 3.314 5.52216 3.4176C5.49656 3.46547 5.44187 3.61566 5.3137 3.7283C5.17 3.85254 4.9553 3.93933 4.92279 3.94581C4.86579 3.9587 4.57711 3.9872 4.45935 4.05197C4.41796 4.07398 4.34671 4.09984 4.26778 4.17365C4.11111 4.31471 3.90273 4.56712 3.75254 4.87134C3.52215 5.32574 3.29175 6.60855 3.29175 6.60855L3.34354 6.52185C3.34354 6.52185 3.35003 6.40665 3.46523 6.20467C3.57787 6.00277 3.54553 5.77621 3.70211 5.38914C3.76295 5.2416 3.83933 5.05002 3.93251 4.88687C4.08013 4.62148 4.25873 4.39364 4.4387 4.2694C4.7325 4.0675 5.05616 4.02346 5.05616 4.02346L5.40441 3.79306C5.40441 3.79306 5.46525 3.6753 5.54555 3.54065C5.6581 3.35172 5.80154 3.14069 5.83286 2.83392C5.88082 2.37952 5.76553 2.08179 5.77202 1.81256C5.7785 1.54334 5.78106 1.34528 5.8355 1.29732C5.88995 1.24936 5.85104 1.26754 5.85104 1.26754L5.85095 1.26737Z" fill="#A88F33"/>
<path fill-rule="evenodd" clip-rule="evenodd" d="M5.851 3.2998C5.851 3.2998 6.00461 2.92177 6.07492 2.5865C6.08789 2.51917 6.11375 2.45193 6.12024 2.39757C6.15258 2.08039 6.16162 1.94966 6.12024 1.77617C6.08789 1.64817 5.96364 1.5328 5.89887 1.44337C5.83547 1.3501 5.80569 1.31537 5.81866 1.29575C5.83163 1.27612 5.88206 1.24403 5.93122 1.24787C5.98347 1.24939 6.03486 1.26153 6.08228 1.28353C6.12969 1.30554 6.17213 1.33695 6.20702 1.37587C6.3067 1.49107 6.38563 1.88207 6.38563 1.88207L6.46866 2.398L6.6797 3.04781L5.85117 3.30031L5.851 3.2998Z" fill="#C99E3D"/>
<path fill-rule="evenodd" clip-rule="evenodd" d="M7.29427 2.90624C7.29427 2.90624 7.26576 2.91912 7.21405 2.90624C7.21626 2.92737 7.21259 2.9487 7.20345 2.96788C7.19431 2.98706 7.18006 3.00335 7.16225 3.01495C7.1079 2.99294 6.59905 3.03697 6.59905 3.03697C6.59905 3.03697 6.36217 2.9955 6.28836 2.68224C6.23664 2.47377 6.32718 2.18645 6.2974 1.99744C6.25209 1.71908 6.18869 1.66464 6.1822 1.57802C6.17572 1.49141 6.16923 1.46931 6.16923 1.41495C6.14073 1.40847 6.12392 1.39942 6.0955 1.39942C6.08902 1.37382 6.1019 1.35146 6.07349 1.30615C6.08902 1.31264 6.19517 1.32561 6.31942 1.44337C6.42182 1.5392 6.42182 1.5741 6.43726 1.59356C6.45663 1.61293 6.6133 1.74716 6.68063 1.88096C6.74796 2.01476 6.87869 2.44143 6.90847 2.51132C6.91752 2.53982 6.93697 2.56832 6.98527 2.633C7.06037 2.72627 7.17036 2.88047 7.29461 2.90607L7.29427 2.90624Z" fill="#B58634"/>
<path fill-rule="evenodd" clip-rule="evenodd" d="M6.45557 1.6001C6.53399 1.72678 6.60444 1.85822 6.66651 1.99365C6.74288 2.16577 6.7882 2.30691 6.88403 2.42211C6.83223 2.27201 6.74032 1.97684 6.68597 1.87197C6.62512 1.76104 6.50088 1.64157 6.45557 1.60018V1.6001Z" fill="#A88F33"/>
<path fill-rule="evenodd" clip-rule="evenodd" d="M5.57517 3.72811C5.57517 3.72811 5.44444 3.76045 5.20108 3.88862C5.12078 3.93001 5.0445 3.96491 4.97069 3.99734C4.77895 4.08404 4.5733 4.16417 4.41015 4.20837C4.42312 4.2239 4.42952 4.2303 4.42952 4.2303C4.42952 4.2303 4.42952 4.29379 4.46451 4.32997C4.44514 4.34942 4.18616 4.52547 4.26261 5.11444C4.31432 5.09507 4.37516 5.06913 4.38421 5.06913C4.39982 5.07177 4.40366 5.11444 4.42303 5.11444C4.4424 5.11444 4.50589 5.08884 4.57322 5.0018C4.57066 5.03678 4.53183 5.38887 4.74021 5.62576C4.77903 5.58044 4.87742 5.43026 4.87742 5.43026L4.87998 5.38238C4.87998 5.38238 4.88903 5.21539 4.94347 5.06264C4.99791 4.90989 5.10397 4.79725 5.10397 4.79725L5.65785 4.0063L5.575 3.72803L5.57517 3.72811Z" fill="#E6C367"/>
<path fill-rule="evenodd" clip-rule="evenodd" d="M5.05733 4.88977C5.03197 4.90769 5.00403 4.92164 4.97447 4.93116C4.96543 4.89881 4.95246 4.78745 5.02883 4.67874C5.11818 4.54792 5.31359 4.37836 5.36795 4.24353C5.40293 4.15674 5.3874 3.93931 5.6981 3.66095C6.0088 3.38259 6.1304 3.28684 6.1304 3.28684L6.63267 3.03442L7.25014 3.2778L6.94337 4.48016L6.70521 5.04337L5.758 4.86477L5.05725 4.88977H5.05733Z" fill="#DCBA5A"/>
<path fill-rule="evenodd" clip-rule="evenodd" d="M5.41895 4.56322L5.53679 4.41567V4.3108C5.53679 4.3108 5.66752 4.27581 5.80858 4.1321C5.94964 3.9884 6.14514 3.71268 6.31735 3.72949C6.48955 3.74895 6.50636 4.1036 6.51285 4.20336C6.51933 4.30312 6.54135 4.52951 6.57625 4.65128C6.61508 4.77297 6.15683 5.23378 6.15683 5.23378L5.84562 5.47067L5.41895 4.56322Z" fill="#E9CE77"/>
<path fill-rule="evenodd" clip-rule="evenodd" d="M5.78369 5.79161C5.78369 5.79161 5.87952 5.64142 5.80929 5.60908C5.85068 5.51589 5.92705 5.4175 5.92705 5.4175C5.92705 5.4175 5.9814 5.28293 6.15744 5.11722C6.33347 4.9515 6.44227 4.84142 6.47077 4.73014C6.48834 4.65762 6.49789 4.58339 6.49927 4.50879C6.5183 4.52434 6.53866 4.53819 6.56011 4.55018C6.58861 4.56315 6.72317 4.67442 6.7038 4.89842C6.68443 5.12242 6.60141 5.21561 6.60141 5.21561C6.60141 5.21561 6.5212 5.29582 6.46428 5.33729C6.40336 5.37868 6.38143 5.42655 6.27912 5.43047C6.28963 5.42211 6.30145 5.41554 6.3141 5.41102C6.3141 5.41102 6.20795 5.39813 6.15095 5.44985C6.09395 5.50156 5.97278 5.66087 5.91194 5.70883C5.8511 5.74766 5.78395 5.79169 5.78395 5.79169L5.78369 5.79161Z" fill="#CDAE50"/>
<path fill-rule="evenodd" clip-rule="evenodd" d="M10.0879 3.27376C9.93492 3.21802 9.7742 3.18658 9.61153 3.18058C9.33966 3.17153 8.94226 3.18706 8.55263 3.18962C8.13322 3.19218 7.75263 3.04592 7.2245 3.02006C7.1378 2.96827 6.9173 2.7417 6.229 3.22197C6.27039 3.21941 6.72872 3.11581 6.88786 3.31524C7.04837 3.5133 7.00306 3.84986 6.98113 3.93007C6.93966 4.10876 6.805 4.36895 6.75073 4.55148C6.69646 4.73401 6.70926 4.82992 6.67043 4.95792C6.63161 5.08593 6.54619 5.1495 6.59662 5.29704C6.66395 5.25566 6.69902 5.25566 6.81149 5.00324C6.92396 4.75082 6.90083 4.57085 7.08729 4.35725C7.26981 4.14238 7.57369 3.84849 7.68923 3.77468C7.80477 3.70086 8.72219 3.22453 9.68279 3.67893C9.91447 3.65436 10.0879 3.27368 10.0879 3.27368L10.0879 3.27376Z" fill="#D2A83E"/>
<path fill-rule="evenodd" clip-rule="evenodd" d="M6.61593 3.09762C6.61498 3.08789 6.61283 3.07832 6.60953 3.06911C6.60055 3.05018 6.58875 3.03272 6.57455 3.01732C6.57455 3.01732 6.3467 2.97593 6.23149 2.98881C6.0295 3.01083 5.84697 3.26069 5.76154 3.38886C5.67612 3.51704 5.56996 3.71501 5.45476 3.81733C5.45602 3.80736 5.45372 3.79727 5.44827 3.78883C5.44827 3.78883 5.45476 3.79787 5.44187 3.81085C5.42899 3.82382 5.4289 3.83022 5.43539 3.83645L5.45484 3.85582C5.46124 3.85582 5.63994 3.77552 5.88332 3.54861C6.14223 3.31172 6.3403 3.1902 6.44389 3.14856C6.49914 3.12508 6.55689 3.10799 6.61602 3.09762H6.61593Z" fill="#C29637"/>
<path fill-rule="evenodd" clip-rule="evenodd" d="M11.0354 2.12427C11.0354 2.12427 10.9939 2.17598 10.9421 2.23298C10.8269 2.35467 10.6767 2.4918 10.5485 2.63294C10.4269 2.7676 10.2897 2.87248 10.1356 3.04852C9.9815 3.22456 9.80281 3.41998 9.75759 3.47698C9.7162 3.53399 9.68386 3.62717 9.68386 3.67504C9.66184 3.65951 9.63599 3.6427 9.63599 3.6427C9.64687 3.66303 9.65989 3.68213 9.67481 3.6997C9.70715 3.74502 9.75759 3.80211 9.78353 3.83692C9.81535 3.88124 9.8382 3.93137 9.85077 3.98446C9.8663 3.98702 9.96597 4.00648 10.0903 3.80193C10.2146 3.59739 10.3776 3.37347 10.3776 3.37347L10.6365 2.98896L10.7997 2.66281L11.0045 2.29775L11.0356 2.12427H11.0354Z" fill="#AC8132"/>
<path fill-rule="evenodd" clip-rule="evenodd" d="M11.301 1.86279C11.301 1.86279 11.1443 1.9908 11.0835 2.0676C11.0226 2.1444 10.8787 2.34597 10.8787 2.34597L10.9305 2.33948L11.1933 2.10651L11.2957 1.92398L11.3009 1.86313L11.301 1.86279Z" fill="#A88F33"/>
<path fill-rule="evenodd" clip-rule="evenodd" d="M11.2529 12.1501C11.2529 12.1501 11.2503 12.0439 11.3099 11.9805C11.3707 11.917 11.5248 11.8239 11.6749 11.4743C11.8251 11.1248 11.8419 11.0459 11.8419 11.0459C11.8419 11.0459 11.5726 11.2763 11.4067 11.3306C11.4455 11.2503 11.4675 11.1934 11.4869 11.152C11.4649 11.1326 11.3717 11.1106 11.3627 11.1002C11.4144 11.0484 11.4429 10.9216 11.5478 10.8374C11.6824 10.735 11.9284 10.5591 12.1195 10.4022C12.3107 10.2454 12.6865 9.88057 12.7344 9.77441C12.7629 9.8158 12.7693 9.84166 12.7693 9.84166C12.7693 9.84166 12.5804 10.0877 12.482 10.2443C12.3952 10.3789 12.4017 10.4553 12.4017 10.4553L12.5804 10.3785C12.5804 10.3785 12.6321 10.5701 12.3979 10.8614C12.5003 10.8226 12.5416 10.8459 12.5998 10.8134C12.504 10.8744 12.3719 10.9572 12.2477 11.185C12.126 11.4128 11.9603 11.6782 11.6807 11.8438C11.4089 12.0186 11.2522 12.1493 11.2522 12.1493L11.2529 12.1501Z" fill="#A67A2E"/>
<path fill-rule="evenodd" clip-rule="evenodd" d="M10.5512 3.40843C10.5512 3.40843 10.445 3.62969 10.4295 3.80189C10.4269 3.84336 10.4165 3.8757 10.4165 3.92358C10.414 4.0776 10.4256 4.2498 10.3909 4.33001C10.378 4.29767 10.3715 4.27566 10.3585 4.26277C10.3391 4.31713 10.3042 4.48668 10.2757 4.55008C10.2628 4.5087 10.2343 4.365 10.2369 4.19544C10.2396 4.02589 10.2433 3.99346 10.2433 3.95856C10.2369 4.01027 10.2019 4.08025 10.189 4.12163C10.1696 4.08673 10.1476 4.04142 10.1216 4.00387C10.1061 4.02947 10.0867 4.06727 10.0699 4.08673C10.0673 4.0712 10.0609 4.02973 10.057 3.97153C10.0544 3.90421 10.0505 3.81751 10.0544 3.79933C10.0608 3.76443 10.1152 3.62722 10.2304 3.50161C10.3676 3.35142 10.5088 3.06283 10.5502 2.97349C10.5915 2.88415 10.7676 2.5127 10.7676 2.5127H10.9022L10.7067 2.95796C10.7067 2.95796 10.589 3.20133 10.5281 3.29075C10.4673 3.38018 10.3391 3.63643 10.2821 3.7361C10.3235 3.68174 10.3585 3.65324 10.4 3.60145C10.4401 3.56518 10.5514 3.4086 10.5514 3.4086L10.5512 3.40843Z" fill="#8C6228"/>
<path fill-rule="evenodd" clip-rule="evenodd" d="M11.3033 1.84595C11.2813 1.91364 11.2465 1.9765 11.2009 2.03112C11.1206 2.12695 10.9484 2.25504 10.8644 2.35726C10.7876 2.45693 10.634 2.72881 10.7038 3.05111C10.7294 2.98122 10.7776 2.84273 10.9057 2.68605C11.0339 2.52938 11.1711 2.3495 11.2385 2.20972C11.3058 2.06858 11.3148 1.95731 11.3148 1.95731L11.3404 1.92497L11.3249 1.85115L11.3029 1.84595H11.3033Z" fill="#CBA94C"/>
<path fill-rule="evenodd" clip-rule="evenodd" d="M13.9248 10.4323C13.9248 10.4323 13.873 10.2913 13.8574 10.1631C13.8419 10.0349 13.883 10.0095 13.8354 9.86281C13.8069 9.77346 13.7552 9.78601 13.7422 9.77346C13.7293 9.76092 13.7202 9.62592 13.7228 9.55211C13.7253 9.47829 13.7202 9.38255 13.7072 9.34108C13.6879 9.32555 13.6749 9.31258 13.6464 9.21683C13.6141 9.121 13.5985 9.07313 13.583 9.04471C13.5675 9.0163 13.5221 8.99036 13.5221 8.96186C13.5221 8.90485 13.5739 8.87516 13.5739 8.85946C13.5713 8.82711 13.5325 8.85306 13.5221 8.84393C13.5092 8.82839 13.5545 8.73521 13.5377 8.72224C13.5312 8.71584 13.4859 8.7702 13.4742 8.75467C13.4612 8.73905 13.4457 8.58502 13.4224 8.48279C13.4005 8.38313 13.3771 8.31068 13.3745 8.2809C13.372 8.25239 13.1958 7.75012 13.1532 7.62844C13.1188 7.52561 13.0898 7.42105 13.0665 7.31518C13.0535 7.25434 13.0445 7.13001 13.038 7.14298C13.0315 7.15595 13.0354 7.21935 13.025 7.21679C13.016 7.21414 12.9836 6.99287 12.9733 6.95789C12.9642 6.9229 12.9098 6.80429 12.8965 6.71844C12.8835 6.63166 12.8551 6.4051 12.8356 6.25107C12.8162 6.09704 12.8071 6.03364 12.8071 5.99507C12.8103 5.90073 12.8051 5.8063 12.7916 5.71287C12.766 5.54972 12.7148 5.35166 12.6699 5.23654C12.5832 5.01903 12.3527 4.4624 12.3115 4.3239C12.3115 4.28892 12.3568 4.30837 12.3568 4.30837C12.3568 4.30837 12.4694 4.59057 12.5523 4.808C12.6326 5.02551 12.7089 5.21709 12.7284 5.23654C12.7439 5.25591 12.8656 5.4695 12.92 5.81903C12.9743 6.16855 12.9937 6.49086 13.0261 6.70573C13.0416 6.80813 13.0546 6.91676 13.087 7.02547C13.1219 7.14332 13.1762 7.265 13.2475 7.45137C13.3083 7.60804 13.3536 7.73877 13.3782 7.85141C13.4067 7.99511 13.4067 8.10383 13.4235 8.17508C13.4391 8.23593 13.4623 8.35753 13.5168 8.53348C13.5712 8.70944 13.6514 8.93609 13.7057 9.07714C13.812 9.35934 13.8593 9.59494 13.8754 9.72055C13.8895 9.85001 13.9375 10.2979 13.9245 10.4325L13.9248 10.4323Z" fill="#A88F33"/>
<path fill-rule="evenodd" clip-rule="evenodd" d="M11.3099 1.83043L11.3034 1.84596C11.3034 1.84596 11.3228 1.85244 11.3189 1.87838C11.3192 1.91388 11.317 1.94935 11.3124 1.98454C11.306 2.02985 11.2931 2.06475 11.2905 2.09326C11.2905 2.1541 11.2996 2.22399 11.2137 2.39747C11.1881 2.44534 11.1723 2.48673 11.1594 2.51523C11.127 2.58512 11.1205 2.59553 11.092 2.62787C11.1374 2.60227 11.3005 2.49987 11.3833 2.51523C11.3264 2.54757 11.2396 2.61106 11.1852 2.69392C11.1982 2.69648 11.2525 2.70689 11.3388 2.69392C11.4825 2.67191 11.643 2.62011 11.7841 2.63043C11.9382 2.63948 11.8773 2.44534 11.8773 2.44534L11.6995 2.05443L11.363 1.81763L11.3099 1.83051V1.83043Z" fill="#BE9C44"/>
<path fill-rule="evenodd" clip-rule="evenodd" d="M12.1877 4.7585C12.1877 4.7585 12.0375 4.60831 11.9766 4.0929C11.9158 3.57509 11.9288 2.8129 11.9288 2.8129L11.8071 2.51517C11.8071 2.51517 11.7815 2.31711 11.7177 2.24338C11.654 2.16965 11.5288 2.04532 11.4718 1.98448C11.4148 1.92364 11.3501 1.84078 11.3113 1.82781C11.3306 1.79547 11.4174 1.61294 11.7501 1.61038C12.0827 1.60782 12.1853 1.79291 12.22 1.86023C12.2547 1.92756 12.4116 2.21863 12.4698 2.7733C12.5241 3.32728 12.5268 3.36876 12.5177 3.56033C12.5112 3.66648 12.4763 3.91242 12.4153 4.17516C12.3597 4.39788 12.2988 4.64645 12.1875 4.75901L12.1877 4.7585Z" fill="#A17C34"/>
<path fill-rule="evenodd" clip-rule="evenodd" d="M11.7166 5.2001C11.7667 5.20372 11.8167 5.19243 11.8603 5.16768C11.9082 5.16512 12.0817 5.18713 12.215 5.01758C12.2241 5.05632 12.2474 5.16128 12.1865 5.25446C12.2189 5.22203 12.2668 5.20915 12.2733 5.2001C12.2759 5.24798 12.3212 5.39551 12.1296 5.75408C12.1813 5.69716 12.2422 5.69972 12.2965 5.69324C12.2992 5.76057 12.3353 5.98704 12.2396 6.10881C12.1762 6.19166 12.0726 6.16572 12.0726 6.16572C12.0741 6.14764 12.0741 6.12945 12.0726 6.11137C12.07 6.07638 12.057 6.04148 12.0662 6.01818C12.0161 5.99532 11.9705 5.96374 11.9315 5.92492C11.8189 5.81876 11.6726 5.6376 11.6623 5.50295C11.6493 5.35276 11.784 5.32042 11.784 5.32042C11.7727 5.31033 11.7631 5.29852 11.7555 5.28544C11.749 5.26351 11.7425 5.22852 11.7166 5.2001Z" fill="#8C6228"/>
<path fill-rule="evenodd" clip-rule="evenodd" d="M10.7181 3.57155C10.7181 3.57155 10.7117 3.5625 10.6768 3.60389C10.6832 3.5625 10.6897 3.52359 10.6923 3.48605C10.7088 3.45128 10.7302 3.41905 10.7558 3.3903C10.7363 3.42904 10.7233 3.46403 10.7233 3.46403C10.7233 3.46403 10.7713 3.37469 10.8412 3.32033C10.8891 3.2815 10.9499 3.26341 10.9758 3.22714C11.0043 3.18832 10.9978 3.18183 11.0043 3.17535C11.0043 3.17535 11.0677 3.13396 11.1648 3.01219C11.1777 2.99666 11.1972 2.97985 11.2102 2.96432C11.2321 2.95527 11.2839 2.93198 11.3447 2.90083C11.4082 2.86593 11.4794 2.81806 11.5234 2.79843C11.6101 2.7596 11.7021 2.76353 11.7447 2.7026C11.7771 2.69355 11.812 2.59645 11.8056 2.51367C11.8535 2.53304 12.0994 2.68579 12.1836 3.01978C12.2444 3.25667 12.1356 3.62173 12.0903 3.79785C12.045 3.97398 12.0386 4.10463 11.9751 4.18484C11.8948 4.29108 11.636 4.44084 11.5726 4.51499C11.5182 4.57584 11.3551 4.72986 11.3615 4.84114C11.368 4.924 11.4702 4.96914 11.4923 4.98484C11.5144 5.00054 11.5143 5.01983 11.5557 5.01044C11.5972 5.00105 11.6127 4.98194 11.6296 4.98194C11.6489 4.9845 11.6489 4.98842 11.658 4.98842C11.6645 4.98823 11.671 4.98734 11.6774 4.98578C11.6774 4.98578 11.6709 5.10362 11.3952 5.13938C11.3758 5.14202 11.3564 5.14842 11.3318 5.15235C11.3642 5.13682 11.3835 5.13682 11.4185 5.08895C11.3797 5.08246 11.2684 5.07598 11.2399 5.06693C11.2489 5.0514 11.2787 5.00993 11.3032 4.99056C11.3253 4.97119 11.3007 4.96496 11.2813 4.97503C11.248 4.99772 11.216 5.02234 11.1855 5.04875C11.1532 5.07726 11.1247 5.11608 11.0729 5.15115C11.0573 5.09936 11.0599 5.00097 11.1208 4.9298C11.1052 4.93236 11.0754 4.97767 11.047 4.96863C11.0419 4.92141 11.0449 4.87366 11.056 4.82749C11.0716 4.7692 11.1557 4.66697 11.1557 4.66697L11.5621 3.9407L11.6488 3.39056L10.7181 3.57138V3.57155Z" fill="#92723A"/>
<path fill-rule="evenodd" clip-rule="evenodd" d="M10.6963 3.60256C10.6963 3.60256 10.6743 3.61809 10.7183 3.64788C10.7119 3.65692 10.6963 3.68926 10.6769 3.71128C10.6549 3.73688 10.6316 3.75275 10.6225 3.77477C10.6031 3.82008 10.5876 3.85114 10.5876 3.8706C10.5876 3.89005 10.5811 4.0143 10.5268 4.09451C10.5073 4.12301 10.4853 4.17088 10.4697 4.20323C10.4374 4.26014 10.4089 4.30563 10.4024 4.33123C10.3895 4.37654 10.3805 4.50078 10.3805 4.50078C10.3805 4.50078 10.409 4.4658 10.4193 4.45291C10.4037 4.48525 10.3869 4.52015 10.3623 4.54609C10.3778 4.53312 10.4232 4.50078 10.4995 4.43345C10.6057 4.3442 10.7714 4.19401 10.9734 4.07505C10.9125 4.09707 10.8608 4.09707 10.8194 4.10356C10.8517 4.07121 11.143 3.72945 11.2958 3.69711C11.305 3.68535 11.3097 3.67059 11.3087 3.65564L11.1779 3.64276L10.9125 3.69967L10.8738 3.49487L10.6963 3.60231V3.60256Z" fill="#B18E3E"/>
<path fill-rule="evenodd" clip-rule="evenodd" d="M11.1184 4.76778C11.1184 4.76778 11.0834 4.80268 11.0511 4.88946C11.0262 4.86346 11.0048 4.83428 10.9876 4.80268C10.9397 4.72247 10.866 4.62015 10.6938 4.67843C10.6912 4.62408 10.6873 4.59558 10.6938 4.55675C10.7223 4.55035 10.809 4.48046 10.8957 4.37815C10.9566 4.30826 11.0135 4.22796 11.0523 4.12573C11.0779 4.10627 11.1222 4.07393 11.1803 4.03639C11.2632 3.97947 11.3629 3.90173 11.3784 3.81503C11.3396 3.83056 11.2567 3.86939 11.1324 3.86299C11.1803 3.84097 11.2541 3.81768 11.245 3.72185C11.2645 3.70888 11.28 3.69983 11.28 3.69983C11.2654 3.69496 11.2501 3.69277 11.2347 3.69335C11.232 3.6843 11.2282 3.67142 11.2062 3.67782C11.1842 3.68422 11.1806 3.6843 11.1777 3.69335C11.1686 3.69599 11.1389 3.69335 11.1168 3.70896C11.0948 3.72458 11.034 3.7762 11.0107 3.78525C11.0197 3.76972 11.0326 3.74651 11.0326 3.74651C11.0326 3.74651 10.9692 3.75291 10.9239 3.77211C10.841 3.80061 10.7453 3.85241 10.6482 3.90284C10.6572 3.88731 10.6612 3.87724 10.6676 3.87434C10.674 3.87144 10.6896 3.86794 10.6896 3.86529C10.6896 3.86265 10.6832 3.83969 10.687 3.83039C10.716 3.76889 10.7503 3.70999 10.7894 3.65435C10.8347 3.59342 10.8438 3.50672 10.8438 3.50672L11.0418 3.40705L11.5985 3.27905L11.9597 3.30107L11.9144 3.55092L11.701 3.98715L11.5185 4.38455L11.31 4.628L11.1185 4.76778H11.1184Z" fill="#543E26"/>
<path fill-rule="evenodd" clip-rule="evenodd" d="M12.0204 3.68643C12.0204 3.68643 11.8029 3.95566 11.7421 3.99713C11.7809 3.91427 12.0204 3.42105 12.1071 3.28383C12.0877 3.2683 12.0618 3.2683 12.1226 3.02783C12.0709 3.14943 12.0528 3.21292 12.0101 3.24526C11.9674 3.2776 11.9621 3.26728 11.9333 3.26728C11.9387 3.25743 11.941 3.24612 11.9397 3.23494C11.9397 3.23494 11.7572 3.21292 11.6325 3.21292C11.5078 3.21292 11.2611 3.28025 11.1238 3.33461C11.0151 3.37992 10.9542 3.37992 10.9154 3.40833C10.8766 3.44067 10.8546 3.47566 10.8351 3.48471C10.8196 3.49375 10.7458 3.51705 10.7289 3.54162C10.7134 3.56722 10.6876 3.59598 10.6876 3.60247C10.6876 3.60895 10.6811 3.61808 10.7005 3.61151C10.7069 3.60895 10.7549 3.58301 10.8092 3.55067C10.883 3.50928 10.9723 3.46141 11.0371 3.43291C11.2222 3.3591 11.2804 3.37207 11.3632 3.35654C11.4499 3.34101 11.5742 3.30474 11.657 3.30474C11.7398 3.30218 11.8965 3.30474 11.9328 3.31122C11.9172 3.32419 11.9043 3.33973 11.9108 3.39408C11.9108 3.40961 11.8978 3.42642 11.8852 3.46397C11.8464 3.57013 11.7726 3.74617 11.7316 3.83551C11.6747 3.95711 11.61 4.05943 11.578 4.12283C11.546 4.18623 11.4756 4.35323 11.4059 4.44257C11.3362 4.53192 11.2997 4.58627 11.2779 4.60573C11.256 4.62519 11.0992 4.7403 11.1109 4.78177C11.1394 4.77273 11.3193 4.70497 11.45 4.55786C11.5806 4.41074 11.6066 4.32097 11.7089 4.24067C11.8111 4.16038 11.8914 4.02581 11.9393 3.91453C11.9794 3.81094 11.9703 3.77859 12.0208 3.68669L12.0204 3.68643Z" fill="#806031"/>
<path fill-rule="evenodd" clip-rule="evenodd" d="M7.33332 5.69574C7.33332 5.69574 7.30482 5.8135 7.24005 5.87179C7.17664 5.92879 7.064 5.97794 7.05111 6.07377C7.03558 6.16952 7.16376 6.21747 7.16376 6.21747C7.16376 6.21747 7.09378 6.33267 7.09378 6.41937C7.09378 6.50872 7.09122 6.52553 7.10026 6.61094C7.09 6.61755 7.08127 6.62628 7.07466 6.63654C7.07466 6.63654 7.08106 6.7194 7.14455 6.77112C7.20805 6.82283 7.26232 6.85397 7.29466 6.841C7.2996 6.85156 7.30393 6.86238 7.30763 6.87343C7.30763 6.87343 7.35559 6.75174 7.38794 6.64559C7.42028 6.53688 7.44878 6.55232 7.46167 6.40606C7.47455 6.2598 7.61527 6.00866 7.61527 6.00866L7.71128 5.79405L7.55469 5.67236L7.33332 5.69566V5.69574Z" fill="#B6903C"/>
<path fill-rule="evenodd" clip-rule="evenodd" d="M7.62429 5.90674C7.592 5.93989 7.56219 5.97537 7.53511 6.01289C7.49373 6.0699 7.46138 6.12161 7.40054 6.14371C7.33969 6.16581 7.30086 6.16564 7.3047 6.22657C7.30854 6.2875 7.36555 6.31327 7.39789 6.34433C7.43288 6.37667 7.46138 6.43103 7.44585 6.49195C7.46522 6.48291 7.50021 6.4725 7.53255 6.40261C7.5649 6.33272 7.79112 5.90682 7.79112 5.90682H7.62429V5.90674Z" fill="#685026"/>
<path fill-rule="evenodd" clip-rule="evenodd" d="M8.51657 4.92425C8.51657 4.92425 8.53594 4.87254 8.51657 4.835C8.49712 4.79617 8.37936 4.7832 8.32107 4.73917C8.26023 4.69386 8.18642 4.66237 8.12558 4.68225C8.13462 4.66024 8.17089 4.61228 8.14111 4.60195C8.11261 4.59291 8.00654 4.64078 7.97804 4.6628C7.94954 4.68481 7.88477 4.71067 7.87189 4.72628C7.859 4.7419 7.8369 4.77159 7.82393 4.75862C7.81096 4.74958 7.80456 4.72628 7.78254 4.73917C7.76053 4.75205 7.65454 4.83884 7.635 4.88935C7.61546 4.93987 7.57152 5.05251 7.43951 5.18059C7.3075 5.30868 7.25049 5.39162 7.28932 5.43949C7.32815 5.48736 7.34632 5.45246 7.35281 5.49385C7.3578 5.53448 7.3556 5.57566 7.34632 5.61553C7.33079 5.68286 7.30494 5.74626 7.33984 5.75923C7.42918 5.78773 7.51596 5.73363 7.53533 5.75019C7.57416 5.78509 7.51332 5.9107 7.60522 5.93527C7.69849 5.96087 7.79039 5.91326 7.79039 5.91326L8.1295 5.73073L8.45573 5.55862L8.62264 5.22846L8.53313 4.95276L8.51606 4.92425H8.51657Z" fill="#D4B968"/>
<path fill-rule="evenodd" clip-rule="evenodd" d="M8.19645 5.71251C8.19645 5.71251 8.13945 5.62582 8.20942 5.54936C8.27939 5.4729 8.37897 5.44064 8.41779 5.39277C8.4104 5.38366 8.40049 5.37692 8.38929 5.3734C8.41507 5.32728 8.45439 5.2902 8.50193 5.26716C8.48256 5.24779 8.45662 5.23226 8.4282 5.23226C8.36472 5.23226 8.32581 5.27109 8.26761 5.27109C8.2107 5.27109 8.20421 5.24259 8.20421 5.24259C8.20421 5.24259 8.30004 5.23354 8.29091 5.19079C8.28186 5.14548 8.26531 5.14548 8.26531 5.14548C8.26531 5.14548 8.45039 5.06868 8.48273 5.02772C8.51507 4.98676 8.51123 4.93838 8.51772 4.91901C8.53965 4.91901 8.66781 4.85168 8.71961 4.88018C8.7714 4.90868 8.73514 4.98633 8.73514 4.98633C8.73514 4.98633 8.89189 4.86849 8.97176 4.75295C9.04164 4.75943 9.07415 4.70508 9.12535 4.70508C9.18884 4.70508 9.2885 4.79178 9.30787 4.97686C9.32084 5.08302 9.34021 5.14386 9.32084 5.33159C9.3118 5.43774 9.31436 5.66439 9.34644 5.77685C9.36837 5.8662 9.42017 5.85715 9.42017 5.85715C9.41222 5.88438 9.39647 5.90867 9.37486 5.92704C9.33987 5.95938 9.33603 6.04488 9.33987 6.07722C9.34503 6.10087 9.35153 6.1242 9.35933 6.14711C9.35933 6.14711 9.31794 6.19498 9.30753 6.22741C9.29849 6.25975 9.25582 6.28177 9.22468 6.28177C9.19353 6.28177 9.20915 6.27912 9.16776 6.28177C9.12638 6.28441 9.11341 6.29081 9.08747 6.28177C9.06153 6.27272 9.04216 6.26231 9.05257 6.17937C9.06161 6.09651 8.73283 5.90366 8.73283 5.90366L8.19525 5.71209L8.19645 5.71251Z" fill="#CCA849"/>
<path fill-rule="evenodd" clip-rule="evenodd" d="M7.57904 6.53083C7.57904 6.53083 7.6968 6.6875 8.18099 6.6875C8.41139 6.6875 8.49169 6.66549 8.53939 6.65252C8.59119 6.63954 8.78532 6.56326 8.98082 6.33277C9.15687 6.12439 9.11804 6.03897 9.11804 6.03897L9.01564 6.02344L8.68284 6.06875L7.69808 6.48816L7.57861 6.53083H7.57904Z" fill="#585136"/>
<path fill-rule="evenodd" clip-rule="evenodd" d="M7.94017 6.56943C7.94017 6.56943 7.52075 6.66269 7.52075 6.39732C7.52075 6.13843 7.77965 5.86657 7.84442 5.8187C7.91175 5.77075 8.07226 5.71631 8.07226 5.71631H8.45933L8.53306 5.9118L8.50072 6.33375L7.94017 6.56934V6.56943Z" fill="#252211"/>
<path fill-rule="evenodd" clip-rule="evenodd" d="M8.32744 5.7954C8.32744 5.7954 8.24723 5.72159 8.0647 5.821C7.88217 5.92042 7.73454 6.12821 7.72549 6.31689C7.71645 6.48381 7.86271 6.60814 8.09055 6.61462C8.26011 6.62102 8.36243 6.60165 8.41423 6.58902C8.40126 6.57349 8.33393 6.48935 8.33393 6.48935L8.32753 5.79549L8.32744 5.7954Z" fill="#C3B378"/>
<path fill-rule="evenodd" clip-rule="evenodd" d="M8.24826 5.83689C8.24826 5.83689 8.22889 5.82136 8.17146 5.85242C8.12359 5.87802 8.0537 5.94568 7.99935 5.99355C7.96436 6.02205 7.94234 6.03494 7.92255 6.05695C7.84225 6.15278 7.77492 6.30944 7.81383 6.38709C7.85275 6.46474 7.98083 6.55408 8.30705 6.49324L8.24732 5.83698L8.24826 5.83689Z" fill="#E6D89C"/>
<path fill-rule="evenodd" clip-rule="evenodd" d="M8.14222 5.99734C8.14222 5.99734 8.09042 6.07764 8.09042 6.20581C8.09042 6.33654 8.16423 6.54493 8.43609 6.56046C8.64446 6.57343 8.78423 6.26017 8.93569 6.13848C9.05089 6.04529 9.12077 6.04265 9.12077 6.04265C9.12077 6.04265 9.00302 5.91465 8.68849 5.74884C8.37781 5.58184 8.02958 5.55982 7.84058 5.81617C7.92992 5.80968 8.21858 5.73587 8.21858 5.73587L8.35972 5.78118L8.14222 5.99742V5.99734Z" fill="#252211"/>
<path fill-rule="evenodd" clip-rule="evenodd" d="M8.54862 6.16701C8.53957 6.14764 8.53309 6.12169 8.57063 6.1153C8.60816 6.1089 8.62497 6.11265 8.63793 6.14089C8.6509 6.16914 8.66353 6.19269 8.64433 6.20438C8.62497 6.21471 8.57446 6.20438 8.54853 6.16683L8.54862 6.16701ZM8.48779 5.98448C8.48779 5.98448 8.47482 5.99353 8.48131 5.97544C8.48387 5.95351 8.50076 5.9146 8.54213 5.92373C8.58351 5.93286 8.57455 5.97808 8.56772 5.99105C8.5609 6.00402 8.52635 6.02595 8.50042 6.01665C8.49713 6.01581 8.49409 6.01421 8.49153 6.01197C8.48898 6.00973 8.48699 6.00692 8.48573 6.00377C8.48447 6.00062 8.48397 5.99722 8.48426 5.99384C8.48456 5.99046 8.48565 5.98719 8.48745 5.98431L8.48779 5.98448Z" fill="#6F674D"/>
<path fill-rule="evenodd" clip-rule="evenodd" d="M4.98389 6.0673C4.98389 6.0673 5.08629 6.1441 5.20524 6.14112C5.323 6.13847 5.47447 6.01687 5.54436 5.93913C5.58574 5.89382 5.62116 5.84595 5.65956 5.8084C5.69198 5.77606 5.71391 5.76053 5.72944 5.73851C5.75146 5.71291 5.77476 5.66479 5.78645 5.64917C5.75795 5.67119 5.71656 5.7101 5.67381 5.73595C5.63242 5.76155 5.54308 5.80968 5.50681 5.82265C5.47191 5.83562 5.10941 6.02745 5.10941 6.02745L4.98389 6.0673Z" fill="#AC924C"/>
<path fill-rule="evenodd" clip-rule="evenodd" d="M5.14038 5.11075C5.14038 5.11075 5.1973 5.07193 5.30738 5.04727C5.41353 5.02167 5.62712 5.00195 5.62712 5.00195L5.80316 5.07875L5.87305 5.34414L5.74505 5.61994L5.58198 5.72234L5.39681 5.42461L5.14081 5.11127L5.14038 5.11075Z" fill="#9F8E57"/>
<path fill-rule="evenodd" clip-rule="evenodd" d="M4.90981 5.34753L4.84888 5.39301C4.84888 5.39301 4.86449 5.36451 4.87738 5.27781C4.89026 5.19111 4.95768 4.98007 5.05607 4.85838C5.15446 4.73669 5.1519 4.74318 5.1519 4.74318C5.14284 4.74152 5.13354 4.74182 5.12461 4.74404C5.11568 4.74626 5.10732 4.75036 5.1001 4.75607C5.11307 4.72739 5.19593 4.62499 5.27879 4.57379C5.36165 4.52259 5.39399 4.50646 5.48069 4.54819C5.56739 4.58992 5.58941 4.61159 5.65289 4.60903C5.71638 4.60647 5.77066 4.53914 5.77066 4.53914C5.77066 4.53914 5.78363 4.58053 5.73575 4.67636C5.68788 4.77219 5.49887 4.96761 5.49887 4.96761L5.10531 5.23685L4.90981 5.34778V5.34753Z" fill="#EAC970"/>
<path fill-rule="evenodd" clip-rule="evenodd" d="M5.20103 5.07849C5.20103 5.07849 5.48587 5.11731 5.57257 5.0371C5.57513 5.04615 5.58554 5.04615 5.58554 5.05263C5.58484 5.05752 5.58256 5.06204 5.57905 5.06552C5.58848 5.06401 5.598 5.06316 5.60755 5.06296C5.61895 5.06635 5.63068 5.06852 5.64254 5.06944C5.65209 5.06924 5.66161 5.06835 5.67104 5.0668C5.67014 5.07323 5.66795 5.07942 5.66461 5.08499C5.66127 5.09056 5.65684 5.0954 5.65159 5.09922C5.66456 5.09922 5.67718 5.10178 5.67718 5.11211C5.67718 5.12243 5.67974 5.15358 5.66421 5.16007C5.65135 5.16362 5.63765 5.16269 5.62539 5.15742C5.62641 5.18193 5.63307 5.20587 5.64484 5.22739C5.67044 5.27527 5.72506 5.32979 5.79844 5.31409C5.79844 5.31409 5.83719 5.40728 5.67411 5.61438C5.65218 5.64288 5.6288 5.68171 5.60039 5.71405C5.58916 5.73852 5.58058 5.76413 5.57479 5.79042C5.57479 5.79042 5.85058 5.68427 5.92952 5.44218C6.00981 5.19881 6.02534 4.95936 6.00981 4.73545C6.00717 4.67196 5.99684 4.62673 5.98131 4.59431C5.94249 4.51401 5.83369 4.52698 5.78974 4.57229C5.72625 4.63578 5.6201 4.79364 5.47256 4.90236C5.32237 5.01107 5.31597 5.03036 5.20068 5.07849H5.20103Z" fill="#D7BC6B"/>
<path fill-rule="evenodd" clip-rule="evenodd" d="M4.85945 5.42779C4.85945 5.42779 4.80509 5.46013 4.77659 5.58139C4.74809 5.70563 4.80219 5.8571 4.83351 5.90497C4.86482 5.95284 4.93591 6.08366 5.08337 6.09014C5.11987 6.08995 5.15596 6.08246 5.18953 6.06813C5.241 6.04452 5.28929 6.0145 5.33323 5.97878C5.39672 5.93091 5.44843 5.88952 5.44195 5.8856C5.42642 5.87911 5.05103 5.56841 5.05103 5.56841L4.90988 5.41089L4.85936 5.42796L4.85945 5.42779Z" fill="#585136"/>
<path fill-rule="evenodd" clip-rule="evenodd" d="M5.21427 5.94299C5.21427 5.94299 5.29064 5.93659 5.33596 5.90809C5.38127 5.87959 5.07056 5.57153 5.07056 5.57153L5.09257 5.90433L5.21427 5.94299Z" fill="#453A25"/>
<path fill-rule="evenodd" clip-rule="evenodd" d="M4.88386 5.40453C4.88386 5.40453 4.84503 5.47834 4.84503 5.49779C4.83855 5.5612 4.858 5.76054 4.87353 5.82394C4.88906 5.89127 4.9732 5.9935 5.082 5.9935C5.14924 5.9935 5.24251 5.95211 5.24251 5.94178C5.24251 5.92881 5.14668 5.91618 5.12082 5.86797C5.10529 5.84237 5.09881 5.77871 5.09522 5.71437C5.09266 5.67298 5.09266 5.62767 5.1082 5.61197C5.14318 5.57314 5.14958 5.46178 5.14958 5.46178L5.27382 5.23096H5.11041L4.91492 5.35264L4.88386 5.40453Z" fill="#84754B"/>
<path fill-rule="evenodd" clip-rule="evenodd" d="M4.83618 5.47582C4.83618 5.47582 4.96418 5.30626 5.07954 5.26735C5.19491 5.22844 5.24653 5.25182 5.24653 5.25182L5.17921 5.42402L5.08338 5.53017L5.08987 5.58453C5.08987 5.58453 5.07425 5.72823 5.17008 5.8279C5.2659 5.92757 5.33707 5.92373 5.37854 5.92373C5.42001 5.92373 5.53905 5.88874 5.59989 5.74504C5.65424 5.61047 5.69955 5.43785 5.59084 5.26479C5.48461 5.09259 5.29696 5.08594 5.2607 5.08594C5.22443 5.08594 4.93969 5.10019 4.83618 5.47556V5.47582Z" fill="#252211"/>
<path fill-rule="evenodd" clip-rule="evenodd" d="M8.12267 6.05163C8.07479 6.02962 8.12011 5.89505 8.16798 5.85358C8.21585 5.81211 8.2767 5.76432 8.38294 5.75775C8.42168 5.75519 8.45923 5.77977 8.45283 5.80571C8.44378 5.85358 8.37645 5.92091 8.31561 5.96878C8.23147 6.03482 8.17703 6.07621 8.12267 6.05163Z" fill="#F7F7E7"/>
<path fill-rule="evenodd" clip-rule="evenodd" d="M5.53379 5.31779C5.56878 5.31523 5.6141 5.34339 5.62315 5.38128C5.63219 5.42267 5.60113 5.50553 5.53379 5.50553C5.47943 5.50553 5.45093 5.4382 5.45093 5.41883C5.45154 5.4029 5.45599 5.38736 5.4639 5.37351C5.46646 5.36959 5.47295 5.32427 5.53379 5.31779Z" fill="#F8F6DE"/>
<path fill-rule="evenodd" clip-rule="evenodd" d="M5.02903 5.34766C5.02903 5.34766 4.93969 5.38904 4.8983 5.47565C4.86873 5.5396 4.85978 5.61117 4.8727 5.68043C4.87919 5.71277 4.91153 5.79298 4.93354 5.82148C4.95556 5.84998 4.98534 5.86944 5.00736 5.86679C5.02937 5.86415 5.0746 5.80595 5.0746 5.77105C5.0746 5.73615 5.07725 5.58854 5.11991 5.50824C5.15746 5.42804 5.02929 5.34774 5.02929 5.34774L5.02903 5.34766Z" fill="#D4C38B"/>
<path fill-rule="evenodd" clip-rule="evenodd" d="M5.04184 5.34104C5.02631 5.35008 5.00046 5.36305 5.00686 5.37986C5.01334 5.39539 5.0677 5.40546 5.08716 5.44334C5.10917 5.48217 5.10917 5.52355 5.10269 5.543C5.1196 5.53497 5.13494 5.52399 5.148 5.51058C5.1765 5.47824 5.2114 5.4343 5.24119 5.4343C5.26064 5.4343 5.28001 5.44334 5.29819 5.44334C5.32669 5.44334 5.35511 5.4343 5.35903 5.40452C5.36543 5.3657 5.30467 5.33071 5.26969 5.3372C5.27617 5.3116 5.28522 5.2738 5.25672 5.24786C5.22821 5.22192 5.13896 5.26731 5.1195 5.28028C5.10004 5.29325 5.04184 5.34112 5.04184 5.34112V5.34104Z" fill="#E2D59D"/>
<path fill-rule="evenodd" clip-rule="evenodd" d="M7.09879 8.06073L7.29036 8.00415L7.34472 8.04298C7.34472 8.04298 7.38346 8.12584 7.44439 8.13616C7.42493 8.17755 7.37442 8.21296 7.37706 8.24232C7.37971 8.27167 7.40556 8.29411 7.40556 8.29411C7.40556 8.29411 7.23336 8.57887 7.57256 8.86585C7.49226 8.89819 7.39003 8.94265 7.33567 8.96825C7.37442 8.97729 7.45727 8.99385 7.49226 9.02525C7.52725 9.05665 7.52725 9.06664 7.55959 9.08609C7.59193 9.10555 7.6113 9.1314 7.6049 9.14301C7.58288 9.13004 7.50907 9.0913 7.49619 9.12748C7.4833 9.16366 7.17644 9.14949 7.17644 9.14949L6.65864 9.24916C6.65864 9.24916 6.67801 9.19737 6.62365 9.14949C6.56025 9.09258 6.4826 9.15205 6.39974 9.08865C6.29102 9.00579 6.2871 8.90996 6.2522 8.87378C6.2871 8.85177 6.35835 8.81943 6.52791 8.79698C6.52142 8.78401 6.49941 8.74518 6.51238 8.71028C6.52791 8.66497 6.59259 8.63647 6.57322 8.58228C6.60172 8.5758 6.61461 8.5758 6.68586 8.48645C6.75319 8.39711 6.79458 8.37774 6.84637 8.37125C6.89817 8.36477 6.92923 8.37125 7.02506 8.28191C7.0923 8.21851 7.07037 8.16415 7.07037 8.16415C7.07037 8.16415 7.11432 8.1499 7.09887 8.06056L7.09879 8.06073Z" fill="#CBAC5A"/>
<path fill-rule="evenodd" clip-rule="evenodd" d="M6.53326 8.08977C6.53582 8.0768 6.54623 8.07031 6.61612 8.0768C6.68601 8.08328 7.12872 8.03542 7.24913 8.02893C7.37082 8.01989 7.79928 8.02629 8.00775 8.07031C8.21623 8.11434 8.42717 8.16613 8.5294 8.19198C8.63181 8.22048 8.66406 8.23072 8.66014 8.24368C8.65758 8.25665 8.63454 8.26928 8.62131 8.2657C8.60842 8.26314 8.26922 8.15956 8.16443 8.13772C8.05964 8.11587 7.69705 8.05743 7.49882 8.06093C7.31373 8.06357 7.23991 8.05837 7.08333 8.07646C6.92665 8.09591 6.66775 8.12176 6.59009 8.11144C6.51329 8.10239 6.52916 8.10239 6.53309 8.08942L6.53326 8.08977Z" fill="#D6BC6F"/>
<path fill-rule="evenodd" clip-rule="evenodd" d="M7.57511 9.10421C7.57511 9.10421 7.84049 9.2479 7.93632 9.42394C8.00621 9.55467 7.89494 9.61944 7.89494 9.61944C7.89494 9.61944 8.04512 9.61944 8.02567 9.70229C8.01662 9.754 7.76677 9.89378 7.59977 9.96759C7.43021 10.0414 7.4367 10.0376 7.35384 10.0504C7.27354 10.0634 7.05347 10.0248 7.00816 10.0893C6.96285 10.1537 6.98256 10.2201 6.99519 10.2304C7.00816 10.2395 7.11303 10.2524 7.11303 10.2524C7.11303 10.2524 7.09102 10.3133 6.87359 10.3198C6.65616 10.3262 6.60172 10.3417 6.58875 10.3651C6.57578 10.387 6.63014 10.3741 6.72989 10.3907C6.82956 10.4062 6.96933 10.4163 6.96933 10.4163C6.96933 10.4163 6.92402 10.4551 6.80626 10.4861C6.67161 10.521 6.46058 10.5535 6.39718 10.5923C6.42952 10.6143 6.47748 10.6467 6.49958 10.6492C6.44522 10.6622 6.36876 10.6907 6.35588 10.701C6.37525 10.714 6.40119 10.7295 6.40119 10.7295C6.40119 10.7295 6.29239 10.8602 6.22899 10.8927C6.16559 10.9251 5.80053 11.0946 5.67492 11.0622C5.36167 10.9794 5.32284 10.6363 5.24647 10.6105C5.13127 10.5717 5.07691 10.6492 4.9746 10.5949C5.01991 10.5625 5.04457 10.5431 5.09244 10.5211C5.04064 10.4955 4.7727 10.3256 4.7727 10.3256C4.74468 10.2646 4.71358 10.205 4.67952 10.147C4.62772 10.0577 4.55152 9.93858 4.49435 9.8337C4.3701 9.60331 4.36362 9.49716 4.25098 9.36643C4.27043 9.34083 4.33767 9.34441 4.33767 9.34441L5.28145 9.6551L6.95491 9.70357L7.39011 9.08228L7.5752 9.10429L7.57511 9.10421Z" fill="#DFC677"/>
<path fill-rule="evenodd" clip-rule="evenodd" d="M5.09619 10.0517C5.10629 10.063 5.11806 10.0726 5.13109 10.0802C5.16352 10.1023 5.21139 10.1282 5.24373 10.1669C5.2567 10.1476 5.28904 10.1126 5.34613 10.1669C5.40322 10.2213 5.47413 10.1826 5.51825 10.1954C5.56356 10.2111 5.56612 10.2175 5.56612 10.2175C5.56612 10.2175 5.59172 10.1954 5.64898 10.1721C5.68397 10.1592 5.72535 10.1501 5.77067 10.1372C5.81205 10.1282 5.85737 10.1152 5.88851 10.1152C5.91701 10.1346 6.01924 10.2432 6.42961 10.0829C6.81668 9.93269 6.90594 9.91588 6.97071 9.93909C6.97719 9.92356 6.98368 9.89378 7.08335 9.89771C7.08335 9.85632 7.00049 9.71518 7.00049 9.71518L6.54353 9.55859H6.29359L5.54411 9.69581L5.12879 9.93278L5.09645 10.0522L5.09619 10.0517Z" fill="#C4A859"/>
<path fill-rule="evenodd" clip-rule="evenodd" d="M4.84644 9.78905C4.84644 9.78905 4.85548 9.85893 4.95908 9.93275C5.06148 10.0065 5.09365 10.0505 5.09365 10.0505C5.09365 10.0505 5.1131 10.0249 5.12863 9.99879C5.14416 9.97029 5.15713 9.93795 5.18299 9.92891C5.23479 9.90689 5.35255 9.94828 5.37849 9.94179C5.4005 9.93539 5.39402 9.89008 5.41732 9.89008C5.47167 9.88743 5.50657 9.92498 5.52603 9.92498C5.54549 9.92498 5.59327 9.92242 5.59976 9.9121C5.60624 9.90177 5.6088 9.79425 5.68262 9.74245C5.76292 9.68554 5.8613 9.71011 5.88742 9.72308C5.88742 9.74245 5.88998 9.79041 5.94177 9.79297C5.99357 9.79553 5.99869 9.78649 6.04417 9.80202C6.08966 9.81755 6.14384 9.79946 6.16842 9.87574C6.19044 9.86934 6.24223 9.86286 6.22926 9.78905C6.25486 9.76967 6.27722 9.7567 6.33166 9.68033C6.34463 9.66096 6.36656 9.63894 6.38346 9.61044C6.42877 9.61044 6.48313 9.6014 6.55558 9.6648C6.53356 9.68033 6.52059 9.6904 6.51419 9.70619C6.53314 9.72495 6.55044 9.7453 6.5659 9.76703C6.58536 9.79263 6.59833 9.82403 6.6229 9.83052C6.67726 9.84605 6.76661 9.82403 6.86627 9.83052C6.9621 9.837 7.04232 9.8719 7.0773 9.89392C7.09028 9.88752 7.09028 9.88487 7.12262 9.89136C7.15496 9.89785 7.17953 9.9004 7.14463 9.85902C7.164 9.86806 7.18602 9.88752 7.20547 9.86806C7.22493 9.84861 7.24038 9.82019 7.29473 9.81371C7.34909 9.80722 7.36855 9.81627 7.39056 9.75935C7.41906 9.68946 7.32067 9.68946 7.32067 9.68946C7.32067 9.68946 7.36599 9.64799 7.4165 9.59363C7.47735 9.53671 7.54724 9.4629 7.56405 9.37228C7.59255 9.20528 7.42947 9.18335 7.42947 9.18335L6.63852 9.42672L5.67152 9.37876L4.84695 9.78913L4.84644 9.78905Z" fill="#927D49"/>
<path fill-rule="evenodd" clip-rule="evenodd" d="M4.13584 7.50428C4.13584 7.50428 4.11024 7.53662 4.09445 7.613C4.07867 7.68937 4.08541 7.68033 4.07244 7.73469C4.05947 7.78904 3.90015 8.33016 3.95988 8.5127C4.01962 8.69523 4.12304 8.76256 4.18772 8.91011C4.20069 8.94245 4.21332 8.96191 4.22006 8.99041C4.24208 9.08616 4.22271 9.15997 4.24856 9.25581C4.25761 9.28815 4.28099 9.3257 4.31589 9.36452C4.39269 9.44474 4.51787 9.52112 4.57189 9.57548C4.64818 9.65578 4.75698 9.81894 4.89547 9.83439C4.96928 9.84343 5.07416 9.81237 5.16085 9.76066C5.23765 9.7127 5.2851 9.64545 5.36565 9.60705C5.42257 9.57855 5.48341 9.56822 5.53777 9.55525C5.65041 9.53323 5.75272 9.52965 5.81356 9.54228C5.90675 9.56174 6.12682 9.62907 6.24876 9.62907C6.34405 9.62753 6.4388 9.61449 6.53096 9.59024C6.71604 9.53588 6.93995 9.44261 7.08758 9.40122C7.17428 9.37562 7.24417 9.36888 7.31542 9.35334C7.4371 9.32484 7.53933 9.28602 7.59761 9.2122C7.55879 9.16689 7.51092 9.09699 7.25193 9.09955C6.95813 9.10604 6.61893 9.26912 6.45194 9.29506C6.28494 9.321 6.21249 9.34293 6.02604 9.2756C5.84326 9.20759 5.8372 9.16262 5.8372 9.16262C5.8372 9.16262 5.64529 9.02838 5.56499 8.68619C5.48469 8.34399 5.56499 8.09463 5.77346 7.85765C5.82781 7.79681 5.81484 7.74245 5.81484 7.74245C5.81484 7.74245 5.95206 7.55736 5.91451 7.38404C5.87313 7.21183 5.60774 7.24682 5.60774 7.24682L4.13592 7.50428H4.13584Z" fill="#6E6342"/>
<path fill-rule="evenodd" clip-rule="evenodd" d="M4.35702 8.08032C4.3456 8.10178 4.34024 8.12593 4.34149 8.1502C4.34405 8.1851 4.35446 8.2304 4.45925 8.3327C4.54859 8.42195 4.52913 8.5216 4.52913 8.5216C4.52913 8.5216 4.5741 8.53064 4.69613 8.47356C4.79196 8.42826 4.82413 8.50855 4.82413 8.50855C4.85202 8.49392 4.88226 8.48428 4.91347 8.48005C4.94175 8.47744 4.96912 8.46871 4.99368 8.45445C4.99368 8.45445 5.10632 8.56964 5.20471 8.62398C5.29406 8.67193 5.34585 8.70427 5.38988 8.67193C5.43127 8.64344 5.43127 8.58516 5.42863 8.55931C5.41836 8.53545 5.40536 8.51286 5.38988 8.49199C5.36138 8.45061 5.31607 8.40266 5.31308 8.36401C5.3066 8.27477 5.38041 8.16854 5.3648 8.14269C5.34918 8.11684 5.29107 8.11036 5.14737 8.16214C4.99855 8.21129 4.35642 8.08058 4.35642 8.08058L4.35702 8.08032Z" fill="#39331F"/>
<path fill-rule="evenodd" clip-rule="evenodd" d="M4.69616 8.65887C4.69616 8.65887 4.62248 8.58898 4.64832 8.2498C4.6796 8.24934 4.71084 8.25238 4.74145 8.25885C4.74145 8.25885 4.78162 8.52166 4.69616 8.65887Z" fill="#292311"/>
<path fill-rule="evenodd" clip-rule="evenodd" d="M4.17085 7.24534C4.18114 7.23773 4.19068 7.22916 4.19935 7.21974C4.17375 7.26761 4.05556 7.45918 4.15139 7.76083C4.24722 8.06111 4.48795 8.28502 4.7844 8.29543C5.08084 8.30584 5.23666 8.16078 5.41484 7.94335C5.48473 7.85666 5.56502 7.74786 5.63619 7.67413C5.74235 7.55885 5.82521 7.52651 5.82521 7.41524C5.82521 7.1874 5.59216 7.08509 5.24912 6.98286C4.90608 6.88063 4.59666 6.89326 4.43615 6.96324C4.27956 7.03952 4.21224 7.11982 4.17076 7.24543L4.17085 7.24534Z" fill="#252211"/>
<path fill-rule="evenodd" clip-rule="evenodd" d="M5.27223 8.76114L5.29782 8.74817C5.29782 8.74817 5.30422 8.64576 5.34569 8.64849C5.38707 8.65498 5.40652 8.70942 5.40259 8.7288C5.40003 8.74817 5.38971 8.7806 5.34825 8.77667C5.2939 8.77795 5.27197 8.76114 5.27197 8.76114H5.27223Z" fill="#3F3824"/>
<path fill-rule="evenodd" clip-rule="evenodd" d="M5.15723 8.32618C5.15723 8.32618 5.18283 8.31712 5.21414 8.34822C5.23974 8.34822 5.35136 8.33523 5.38635 8.35728C5.42133 8.37932 5.43166 8.39871 5.43166 8.39871C5.43166 8.39871 5.30093 8.42725 5.22967 8.39871C5.15723 8.37411 5.15723 8.32618 5.15723 8.32618Z" fill="#2D2815"/>
<path fill-rule="evenodd" clip-rule="evenodd" d="M5.73321 8.34548C5.73321 8.339 5.66331 8.29114 5.58949 8.27553C5.57652 8.27298 5.57387 8.28202 5.56389 8.28202C5.5574 8.27946 5.55484 8.26001 5.55484 8.26001L5.51285 8.2821C5.51285 8.2821 5.50637 8.29114 5.52839 8.30769C5.54776 8.32322 5.58019 8.33618 5.58924 8.36203C5.59828 8.38787 5.59828 8.39692 5.60221 8.40084C5.60477 8.4034 5.65008 8.40084 5.6721 8.38787C5.69412 8.37491 5.7356 8.35375 5.73295 8.34522L5.73321 8.34548Z" fill="#82764F"/>
<path fill-rule="evenodd" clip-rule="evenodd" d="M5.07935 8.60859C5.07935 8.60859 5.09223 8.51941 5.17902 8.51548C5.26827 8.509 5.28517 8.59563 5.28517 8.59563L5.23337 8.64739C5.23337 8.64611 5.19455 8.5918 5.07977 8.60859H5.07935Z" fill="#2D2816"/>
<path fill-rule="evenodd" clip-rule="evenodd" d="M5.64258 8.22396C5.64258 8.22396 5.59462 8.27579 5.48856 8.29133C5.47951 8.27835 5.46006 8.25248 5.48856 8.21107C5.51706 8.16966 5.5494 8.15668 5.58174 8.16957C5.59601 8.17189 5.60932 8.17824 5.6201 8.18788C5.63088 8.19751 5.63868 8.21003 5.64258 8.22396Z" fill="#574F35"/>
<path fill-rule="evenodd" clip-rule="evenodd" d="M5.83809 8.28738C5.84074 8.27441 5.83169 8.27185 5.83809 8.26537C5.84449 8.25888 5.87956 8.246 5.88605 8.2524C5.88861 8.25504 5.88605 8.26537 5.88605 8.278C5.88605 8.29062 5.88605 8.30359 5.87956 8.31289C5.87052 8.32586 5.84466 8.33234 5.83169 8.3285C5.81872 8.32466 5.81616 8.30649 5.81616 8.30291C5.82256 8.30035 5.83809 8.29386 5.83809 8.28738ZM6.05911 8.14763C6.05911 8.14114 6.08112 8.12817 6.09409 8.12817C6.11346 8.12817 6.11346 8.1437 6.11611 8.14763C6.12251 8.15019 6.12251 8.14498 6.12899 8.15667C6.13548 8.16836 6.14461 8.18901 6.13804 8.20198C6.13147 8.21494 6.1057 8.2239 6.0993 8.22134C6.09025 8.21486 6.06175 8.15667 6.05911 8.14763Z" fill="#82764F"/>
<path fill-rule="evenodd" clip-rule="evenodd" d="M5.61401 8.31722C5.61401 8.31722 5.64252 8.32362 5.68134 8.35605C5.66837 8.3651 5.64892 8.37542 5.64892 8.37542C5.64892 8.37542 5.64635 8.34564 5.61401 8.31714V8.31722Z" fill="#6E6342"/>
<path fill-rule="evenodd" clip-rule="evenodd" d="M5.55058 8.03234C5.5441 8.02594 5.56996 8.01041 5.58549 8.01297C5.60102 8.01553 5.6075 8.02594 5.62432 8.0285C5.64113 8.03106 5.64377 8.02201 5.64992 8.01553C5.65606 8.00904 5.67842 8.01297 5.68226 8.01553C5.68465 8.01837 5.68682 8.0214 5.68875 8.02457C5.68902 8.01965 5.6903 8.01483 5.69252 8.01043C5.69474 8.00602 5.69784 8.00212 5.70163 7.99897C5.7066 7.99533 5.71232 7.99285 5.71838 7.99172C5.72444 7.9906 5.73068 7.99086 5.73662 7.99249C5.73918 8.00153 5.75215 8.03387 5.74959 8.04036C5.74703 8.04684 5.7082 8.05598 5.70163 8.0494C5.70812 8.06502 5.73662 8.09736 5.74046 8.10376C5.7443 8.11016 5.71196 8.12578 5.69907 8.12322C5.68098 8.12194 5.56961 8.05717 5.55024 8.03259L5.55058 8.03234ZM5.72015 7.81747C5.71775 7.81095 5.71317 7.80546 5.70718 7.80194C5.69813 7.79938 5.66835 7.80194 5.66835 7.81747C5.66835 7.833 5.69395 7.91987 5.72271 7.9651C5.75514 8.01041 5.77707 8.04787 5.79909 8.05828C5.806 8.06143 5.81385 8.06184 5.82105 8.05943C5.82826 8.05703 5.83428 8.05198 5.83792 8.04531C5.84048 8.03882 5.84696 7.99095 5.8444 7.87831C5.84184 7.76567 5.83792 7.65696 5.83143 7.65047C5.82494 7.64399 5.79909 7.64407 5.79004 7.65696C5.781 7.66985 5.72271 7.7981 5.72006 7.81747H5.72015Z" fill="#585136"/>
<path fill-rule="evenodd" clip-rule="evenodd" d="M5.60504 8.4802C5.60504 8.4802 5.55972 8.4517 5.51567 8.47115C5.47428 8.49061 5.47684 8.56698 5.47684 8.56698C5.48615 8.57063 5.49621 8.57194 5.50615 8.57081C5.51609 8.56968 5.5256 8.56614 5.53386 8.5605C5.56236 8.54113 5.59856 8.50878 5.60504 8.48028V8.4802Z" fill="#574F35"/>
<path fill-rule="evenodd" clip-rule="evenodd" d="M5.69039 8.58259C5.68783 8.55699 5.66479 8.55699 5.66479 8.54376C5.66638 8.53744 5.67004 8.53183 5.6752 8.52784C5.68035 8.52385 5.68669 8.5217 5.69321 8.52174C5.70618 8.52174 5.71881 8.53727 5.73468 8.54734C5.75021 8.55639 5.77351 8.57295 5.77607 8.59266C5.77863 8.61237 5.75047 8.66639 5.71915 8.66639C5.68783 8.66639 5.69714 8.6081 5.69065 8.58225L5.69039 8.58259ZM5.94025 8.5476C5.94025 8.5476 5.88845 8.56313 5.89229 8.5476C5.89613 8.53207 5.90791 8.52823 5.92472 8.52823C5.93326 8.51929 5.94475 8.51374 5.95706 8.51261C5.9641 8.51226 5.97102 8.51458 5.97643 8.5191C5.97643 8.5191 6.01142 8.50357 6.02174 8.51261C6.03207 8.52166 6.02439 8.52166 6.03079 8.53207C6.03894 8.54362 6.04429 8.55692 6.04641 8.5709C6.04641 8.58122 6.00758 8.60324 5.97643 8.5994C5.94025 8.59163 5.94665 8.55409 5.94025 8.5476ZM6.24182 8.48931C6.24182 8.48931 6.25735 8.49836 6.24446 8.50877C6.23542 8.51782 6.19011 8.53437 6.15119 8.53727C6.11237 8.53727 6.07747 8.54367 6.07747 8.53079C6.07747 8.5179 6.10981 8.49196 6.12918 8.48547C6.13306 8.48061 6.138 8.47668 6.14361 8.47399C6.14923 8.4713 6.15538 8.46992 6.16161 8.46994C6.17714 8.46994 6.23789 8.46346 6.25479 8.4609C6.27032 8.45825 6.28329 8.4673 6.27416 8.48027C6.27032 8.48931 6.24182 8.48931 6.24182 8.48931ZM6.33116 8.08959C6.33116 8.08959 6.31171 8.13098 6.28978 8.13098C6.26776 8.12842 6.26776 8.12193 6.26776 8.11545C6.26776 8.1064 6.28978 8.0831 6.28713 8.07662C6.28073 8.07662 6.26511 8.07662 6.26776 8.06109C6.26776 8.04811 6.28978 8.03258 6.30915 8.03548C6.32378 8.02346 6.34201 8.01664 6.36094 8.01611C6.38296 8.01611 6.40233 8.02251 6.40233 8.03548C6.40233 8.04846 6.37673 8.07687 6.36734 8.08345C6.35702 8.09377 6.34405 8.10051 6.33116 8.08985V8.08959ZM6.03599 8.85465C6.03599 8.85465 6.01039 8.85729 6.01039 8.87018C6.01039 8.87666 6.01679 8.87666 6.02593 8.87282C6.03119 8.87253 6.03639 8.87164 6.04146 8.87018C6.04402 8.87282 6.04402 8.88571 6.06347 8.88571C6.07945 8.88355 6.09484 8.87828 6.10878 8.87018C6.12432 8.86378 6.13729 8.85721 6.13729 8.84458C6.1308 8.82256 6.11783 8.81215 6.09846 8.81215C6.08853 8.81152 6.07863 8.81377 6.06996 8.81863C6.06996 8.81863 6.06347 8.80566 6.04146 8.81863C6.01944 8.83161 6.022 8.83161 6.02849 8.83809C6.04009 8.84842 6.03625 8.85516 6.03625 8.85516L6.03599 8.85465ZM5.88973 8.98931C5.88973 8.98283 5.92208 8.96985 5.93112 8.97378C5.94017 8.97634 5.96602 9.02549 5.96602 9.0307C5.96602 9.03719 5.93368 9.05272 5.92071 9.05272C5.90774 9.05272 5.88581 9.0307 5.88581 9.02712C5.88581 9.02456 5.90134 9.02072 5.90134 9.01807C5.90518 9.01167 5.88973 8.99605 5.88973 8.98957V8.98931ZM5.78733 8.80029C5.79382 8.79773 5.79382 8.79124 5.80286 8.78475C5.8057 8.78287 5.80892 8.78166 5.81229 8.78122C5.81567 8.78077 5.8191 8.78111 5.82232 8.7822C5.8246 8.77812 5.82776 8.77461 5.83157 8.77191C5.83538 8.76921 5.83974 8.76739 5.84434 8.76658C5.85987 8.76402 5.87284 8.76658 5.86994 8.77306C5.86994 8.79252 5.88291 8.80541 5.88291 8.82094C5.88291 8.83647 5.87386 8.85593 5.84152 8.8689C5.80918 8.87794 5.76515 8.87794 5.75866 8.87538C5.75218 8.87282 5.74569 8.84688 5.75218 8.83391C5.75866 8.82094 5.77675 8.80677 5.78716 8.80029H5.78733Z" fill="#82764F"/>
<path fill-rule="evenodd" clip-rule="evenodd" d="M5.8286 8.80908C5.8286 8.80908 5.80656 8.82205 5.80656 8.82853C5.80461 8.83479 5.80374 8.84134 5.804 8.84789C5.804 8.85173 5.83253 8.84533 5.83637 8.84141C5.83765 8.83885 5.8286 8.81582 5.8286 8.80908Z" fill="#6E6342"/>
<path fill-rule="evenodd" clip-rule="evenodd" d="M5.63599 8.74822C5.64887 8.75086 5.67089 8.74822 5.6877 8.7547C5.70066 8.76118 5.70971 8.77415 5.69674 8.78967C5.68377 8.80519 5.67114 8.82848 5.64239 8.82456C5.61005 8.822 5.57899 8.80519 5.57899 8.79223C5.57845 8.78403 5.57954 8.7758 5.58221 8.76803C5.58487 8.76025 5.58906 8.75308 5.59452 8.74694C5.60749 8.73662 5.61389 8.7431 5.6359 8.74822H5.63599Z" fill="#585136"/>
<path fill-rule="evenodd" clip-rule="evenodd" d="M5.62048 8.76123C5.62048 8.76123 5.5791 8.79357 5.56869 8.80919C5.55573 8.82472 5.49233 8.90493 5.47297 8.92174C5.4794 8.91039 5.48673 8.89958 5.49489 8.8894C5.4693 8.90577 5.45011 8.93045 5.44055 8.95929C5.42502 9.00725 5.52731 9.0331 5.59454 9.05256C5.66178 9.07201 5.6878 9.07816 5.6878 9.07816C5.66304 9.04095 5.64179 9.00153 5.62432 8.9604C5.59873 8.89956 5.5855 8.89307 5.60231 8.86457C5.61528 8.83607 5.63473 8.8167 5.63473 8.79468C5.62697 8.7742 5.62048 8.76123 5.62048 8.76123Z" fill="#574F35"/>
<path fill-rule="evenodd" clip-rule="evenodd" d="M4.1447 8.86343C4.15412 8.86516 4.16378 8.86516 4.1732 8.86343C4.19257 8.86078 4.39456 8.78663 4.60558 8.79994C4.76356 8.80948 4.92014 8.83522 5.07286 8.87674C5.33825 8.94664 5.66831 9.08514 5.8819 9.16417C5.93882 9.1861 5.99454 9.22502 6.0355 9.24046C6.19866 9.30395 6.20506 9.30396 6.30088 9.32077C6.41352 9.3363 6.52872 9.29875 6.64913 9.27289C6.79667 9.24046 7.04908 9.22493 7.27043 9.19259C7.34201 9.18267 7.41261 9.16665 7.48146 9.14471C7.48146 9.14471 7.30542 9.32077 6.88337 9.38417C6.71277 9.41008 6.53941 9.41226 6.36821 9.39066C6.23356 9.37769 6.1443 9.35823 6.07697 9.33886C6.0006 9.31684 5.84393 9.25855 5.65108 9.21085C5.51642 9.17586 5.36624 9.15 5.19412 9.11766C4.76951 9.03991 4.30871 8.95065 4.14453 8.86394L4.1447 8.86343Z" fill="#252211"/>
<path fill-rule="evenodd" clip-rule="evenodd" d="M3.6683 8.06372C3.5659 8.15042 3.45727 8.23328 3.3512 8.31349L3.03146 8.55917C2.92275 8.63938 2.8166 8.72224 2.7078 8.80254C2.599 8.88284 2.49037 8.95912 2.375 9.03294C2.4774 8.94624 2.58603 8.86594 2.69474 8.78701C2.80345 8.70807 2.91618 8.63068 3.02105 8.55063L3.34079 8.30462C3.45079 8.2244 3.55694 8.14154 3.6683 8.06389V8.06372ZM3.10263 8.96988C3.10263 8.96988 3.21783 8.87405 3.36153 8.73948C3.54013 8.57256 3.75892 8.35889 3.82881 8.32015L3.10254 8.96996L3.10263 8.96988Z" fill="#CFB66C"/>
<path fill-rule="evenodd" clip-rule="evenodd" d="M3.10278 8.96954C3.15979 8.91263 3.22063 8.85699 3.28147 8.80256L3.37466 8.72235C3.40316 8.69675 3.43558 8.668 3.464 8.6395C3.52092 8.58259 3.57664 8.52166 3.63356 8.46347C3.66177 8.43421 3.6916 8.40655 3.7229 8.38062C3.73855 8.36677 3.75593 8.35501 3.77461 8.34564C3.79023 8.33659 3.80704 8.32004 3.82897 8.31714C3.81608 8.33659 3.80055 8.34564 3.78758 8.36245C3.77205 8.37542 3.75908 8.39095 3.7462 8.40383C3.7177 8.43233 3.68535 8.45818 3.65685 8.48412C3.59601 8.53591 3.53261 8.58651 3.47176 8.64069C3.41092 8.69487 3.354 8.75332 3.29308 8.80768C3.22711 8.86339 3.16627 8.91774 3.10278 8.96979V8.96954ZM3.87693 8.45178C3.87693 8.45178 3.45495 8.86476 3.36817 8.93199L3.87693 8.45178Z" fill="#CFB66C"/>
<path fill-rule="evenodd" clip-rule="evenodd" d="M3.87692 8.45166C3.83896 8.4956 3.79826 8.5371 3.75507 8.57591L3.62707 8.69759C3.58568 8.73898 3.54677 8.78045 3.50282 8.82184C3.45751 8.86066 3.41612 8.89864 3.36816 8.93448L3.49241 8.81279C3.53388 8.7714 3.57919 8.7365 3.62323 8.69503L3.74747 8.57335C3.79014 8.53068 3.83161 8.48921 3.87692 8.45166ZM3.89629 8.67557C3.8574 8.78413 3.81156 8.89008 3.75908 8.99276C3.65036 9.21027 3.48729 9.48206 3.41604 9.62064L3.89629 8.67557Z" fill="#CFB66C"/>
<path fill-rule="evenodd" clip-rule="evenodd" d="M3.89621 8.67578C3.89621 8.72366 3.88324 8.76514 3.86771 8.80653C3.85257 8.84796 3.83531 8.88858 3.816 8.92823C3.79654 8.96706 3.77453 9.00854 3.75251 9.04609C3.73049 9.08364 3.70464 9.12239 3.68518 9.1613L3.55445 9.39173C3.50914 9.46854 3.46511 9.54578 3.41724 9.6196C3.44958 9.53673 3.49361 9.45907 3.53508 9.38269C3.58039 9.30588 3.62178 9.22907 3.66308 9.14961C3.68325 9.11002 3.70139 9.06943 3.71744 9.028C3.73681 8.98652 3.75618 8.94769 3.7718 8.91014C3.79117 8.86874 3.8067 8.82983 3.82615 8.79236C3.84808 8.75216 3.86626 8.71333 3.89604 8.67578H3.89621Z" fill="#CFB66C"/>
<path fill-rule="evenodd" clip-rule="evenodd" d="M4.35706 9.7373C4.35706 9.7373 4.22907 9.90686 4.24187 10.1217C4.27677 10.0092 4.3208 9.83697 4.35706 9.7373ZM4.47875 9.90729C4.47875 9.90729 4.43344 10.3681 4.39589 10.5946C4.44897 10.3328 4.45929 10.3548 4.47875 9.90729ZM5.3266 10.6219C5.3266 10.6219 5.13503 11.1851 5.13111 11.3416C5.17258 11.1806 5.25279 10.8518 5.3266 10.6214V10.6219Z" fill="#DEC270"/>
<path fill-rule="evenodd" clip-rule="evenodd" d="M5.77466 9.70239C5.77466 9.70239 6.08536 10.215 6.3184 10.6525C6.25534 10.4323 6.11027 10.0285 5.77466 9.70239Z" fill="#CBAF59"/>
<path fill-rule="evenodd" clip-rule="evenodd" d="M6.60962 10.457C6.78021 10.7586 6.93404 11.0693 7.07042 11.3878C7.04456 11.1677 6.97459 10.791 6.60962 10.457Z" fill="#E3C677"/>
<path fill-rule="evenodd" clip-rule="evenodd" d="M9.06382 11.2129C9.11553 11.1806 9.21785 11.0045 9.30719 10.9605C9.39645 10.9152 9.46377 10.9062 9.54407 10.8168C9.62428 10.7236 9.64647 10.6666 9.82234 10.5929C10.0684 10.4867 9.89914 10.3495 9.89914 10.3495C9.92624 10.3228 9.95521 10.2982 9.98584 10.2757C10.0493 10.2279 10.1231 10.1696 10.1167 10.0673C10.1076 9.89514 10.0753 9.64528 9.93413 9.5003C10.0713 9.4718 10.3341 9.45243 10.4973 9.41104C10.6862 9.36309 10.773 9.29576 10.773 9.29576C10.773 9.29576 10.6643 9.11067 10.8404 8.9243C11.0164 8.73793 11.1601 8.62657 11.2663 8.41811C11.1446 8.40257 10.9591 8.33789 10.4856 8.51777C10.5112 8.5298 10.5359 8.54363 10.5594 8.55916C10.5594 8.55916 10.2682 8.63946 10.1621 8.7288C9.97688 8.88539 9.95358 9.01356 9.75297 9.10939C9.55235 9.20522 9.35037 9.17928 9.18346 9.25693C9.01655 9.33459 8.99189 9.40063 8.93096 9.42913C8.94393 9.44466 8.9284 9.47052 8.95297 9.49254C8.93744 9.51455 8.84682 9.66209 8.75492 9.66209C8.76396 9.69708 8.84161 9.72294 8.84161 9.72294C8.84161 9.72294 8.7847 9.76441 8.63972 9.77473C8.71344 9.85153 8.78342 9.93525 8.97627 10.0569C8.96074 10.0893 8.89597 10.1372 8.92191 10.1981C8.95041 10.2589 9.02431 10.3418 9.31931 10.4091C9.16912 10.4155 8.99317 10.4505 8.75611 10.4181C8.51923 10.3896 8.4804 10.3728 8.33414 10.4091C8.34967 10.4246 8.39106 10.4246 8.42732 10.466C8.3885 10.4686 8.14513 10.4375 8.06227 10.5463C7.97557 10.6589 7.93803 10.844 7.94451 10.9683C7.8992 10.9903 7.85517 11.0291 7.87719 11.1094C7.8992 11.1897 8.0144 11.2156 8.08821 11.266C8.16194 11.3204 8.16843 11.3397 8.2384 11.3269C8.31213 11.3113 8.42084 11.2376 8.48433 11.2376C8.54781 11.2376 8.59304 11.2855 8.59304 11.2855C8.59304 11.2855 8.76524 11.2026 8.78205 11.2181C8.79758 11.2337 8.78461 11.3333 8.80142 11.3489C8.81849 11.3606 9.01245 11.2454 9.06425 11.2129H9.06382Z" fill="#ECD592"/>
<path fill-rule="evenodd" clip-rule="evenodd" d="M12.8271 6.03253C12.0181 3.94322 10.018 3.55615 10.018 3.55615H4.31185L4.33387 5.68428H5.47025V10.4364H4.31177V12.5607H9.86006C11.1972 12.5607 12.2691 11.217 12.2691 11.217C13.9856 8.78077 12.827 6.03253 12.827 6.03253H12.8271ZM9.88984 9.78523C9.88984 9.78523 9.45464 10.4131 8.98112 10.4131H8.03392L8.01148 5.68949H9.22705C9.22705 5.68949 9.79025 5.80725 10.1837 6.92178C10.1837 6.92178 10.7054 8.51752 9.88984 9.78523Z" fill="white" fill-opacity="0.8"/>
</g>
<defs>
<clipPath id="clip0_8504_11062">
<rect width="16" height="16" fill="white" transform="translate(0.427002)"/>
</clipPath>
</defs>
</svg>
