<svg width="14" height="16" viewBox="0 0 14 16" fill="none" xmlns="http://www.w3.org/2000/svg">
<g clip-path="url(#clip0_8504_11191)">
<path d="M5.77111 4.86711C5.52048 4.85902 5.27794 4.9237 5.05964 5.05306C4.70391 5.27135 4.27541 5.60283 3.88734 6.08792C2.86864 7.36534 2.87672 8.81253 2.89289 9.24912C2.90906 9.58868 3.05459 11.4482 4.63115 12.7903C5.86005 13.8332 7.21831 13.9464 7.66298 13.9626C7.98637 13.9788 9.67612 14.0111 11.0991 12.7094C12.5786 11.3593 12.6514 9.5806 12.6594 9.27337C12.6756 9.01465 12.6837 8.67509 12.619 8.27893C12.5624 7.92319 12.4654 7.62405 12.3765 7.38959C12.1339 7.26023 11.7863 7.05003 11.4467 6.70238C11.091 6.33856 10.8808 5.96665 10.7595 5.70793C10.7352 5.60283 10.6948 5.4573 10.5978 5.30369C10.4361 5.04497 10.2259 4.91561 10.1127 4.85902C10.3229 4.82668 10.7837 4.79434 11.285 5.02072C11.5518 5.14199 11.7458 5.30369 11.8752 5.42496C11.8995 5.36028 11.9399 5.22284 11.9156 5.06114C11.8914 4.8671 11.8024 4.72966 11.7539 4.67307C11.9156 4.75392 12.4816 5.05306 12.7645 5.7241C12.9505 6.17686 12.9343 6.5811 12.9101 6.77514C13.1041 7.07428 13.3467 7.51895 13.5164 8.09298C13.6781 8.62658 13.7186 9.10359 13.7186 9.45124C13.7347 9.8474 13.7913 11.998 12.142 13.7443C10.1612 15.8383 7.42043 15.5392 7.12938 15.4987C7.29916 15.5958 7.51745 15.6928 7.77617 15.7655C8.42296 15.9434 8.98082 15.8464 9.29613 15.7655C8.60891 15.9596 7.30724 16.2102 5.83579 15.7575C2.44822 14.7064 1.49421 10.9227 1.42953 10.6721C1.48612 11.1006 1.57506 11.5614 1.69633 12.0465C1.88228 12.8307 2.12483 13.5179 2.36738 14.1081C1.9793 13.6877 1.46187 13.0167 1.04954 12.0869C0.564445 10.9955 0.451257 10.0253 0.427002 9.41081C0.435087 8.73977 0.54019 7.56746 1.15464 6.29813C2.02781 4.48711 3.41841 3.54927 4.02478 3.18545C3.97627 3.18545 3.91159 3.16928 3.83883 3.13694C3.6933 3.07226 3.61245 2.96716 3.58011 2.91865C3.80649 2.88631 4.08946 2.82163 4.40477 2.70035C4.72008 2.57908 4.97071 2.43355 5.15666 2.31228C4.6554 2.11016 4.08137 1.85144 3.47501 1.49571C2.89289 1.15614 2.39163 0.800404 1.98739 0.477009L2.77971 0.905508L2.17334 0.37999C2.69077 0.72764 3.34565 1.09955 4.12988 1.42294C4.67157 1.64932 5.18092 1.81102 5.63367 1.93229C5.38304 1.79485 5.0839 1.60081 4.78476 1.33401C4.2835 0.897423 3.9601 0.428499 3.76606 0.0808489C3.97627 0.266801 4.19456 0.444669 4.40477 0.630622L3.855 0C4.30775 0.444669 4.94646 0.978272 5.78728 1.43911C6.26429 1.69783 6.71705 1.89186 7.11321 2.03739C7.46086 2.09399 7.80042 2.15058 8.14807 2.20718C8.25318 2.22335 8.43913 2.27185 8.617 2.41738C8.68976 2.47398 8.74636 2.53866 8.78678 2.58717C8.83529 2.65184 8.89997 2.72461 8.97273 2.79737C9.094 2.91865 9.20719 3.01566 9.32038 3.08843L10.9535 3.06417C11.0586 3.06417 11.1314 3.16119 11.1071 3.25821C11.0263 3.58161 10.8565 4.04245 10.4442 4.40627C10.3472 4.4952 10.2421 4.56796 10.145 4.62456C10.2097 4.53562 10.2987 4.40627 10.3552 4.2284C10.3957 4.09904 10.4199 3.98585 10.428 3.89692C10.3633 3.9616 10.2906 4.03436 10.1855 4.09904C10.0319 4.20414 9.87824 4.26074 9.77314 4.29308C9.82973 4.22031 9.88632 4.12329 9.94292 4.01819C9.99951 3.91309 10.0399 3.80798 10.0723 3.71905C9.95909 3.72714 9.79739 3.7433 9.60335 3.82415C9.39315 3.905 9.24762 4.01819 9.15868 4.09904C9.15868 4.02628 9.17485 3.93734 9.20719 3.83224C9.23145 3.75947 9.26379 3.6948 9.28804 3.64629C9.23953 3.61395 9.19102 3.58969 9.13443 3.55735C8.93231 3.46842 8.74636 3.46842 8.62508 3.4765C8.50381 3.4765 8.18041 3.50076 7.8651 3.72713C7.75191 3.80798 7.66298 3.89692 7.59022 3.98585C7.4366 4.17989 7.44469 4.46286 7.61447 4.64881V4.6569C7.68723 4.72966 7.76808 4.78626 7.84085 4.8186C8.09148 4.93987 8.38253 4.91561 8.62508 4.78626C8.63317 4.77817 8.64125 4.77817 8.64934 4.77009C8.74635 4.71349 8.81912 4.64881 8.86763 4.59222C8.87571 4.64881 8.8838 4.762 8.84337 4.89944C8.81103 5.01263 8.75444 5.09348 8.71402 5.13391C8.81103 5.15008 8.92422 5.15816 9.05358 5.15816C9.27996 5.15008 9.45782 5.09348 9.5791 5.04497C9.49825 5.22284 9.32038 5.57049 8.94039 5.86155C8.64934 6.08792 8.35828 6.19303 8.18041 6.23345C8.24509 6.13643 8.31786 5.99899 8.36636 5.82112C8.38253 5.77261 8.39062 5.7241 8.3987 5.68368C8.42296 5.56241 8.37445 5.44113 8.27743 5.36028C8.16424 5.26326 8.04297 5.25518 8.00254 5.24709H7.3315C7.09704 5.24709 6.87066 5.27943 6.64428 5.34411C6.52301 5.37645 6.39365 5.40879 6.25621 5.43305C5.91664 5.49773 5.60942 5.53007 5.3507 5.53815C5.53665 5.50581 5.86005 5.42496 6.16727 5.18242C6.28046 5.09348 6.3694 4.99646 6.43408 4.91561L5.77111 4.86711Z" fill="#EFB13B"/>
</g>
<defs>
<clipPath id="clip0_8504_11191">
<rect width="13.2835" height="16" fill="white" transform="translate(0.427002)"/>
</clipPath>
</defs>
</svg>
