<svg width="18" height="16" viewBox="0 0 18 16" fill="none" xmlns="http://www.w3.org/2000/svg">
<g clip-path="url(#clip0_8504_10295)">
<path d="M13.7088 11.4135C15.5962 11.4135 17.1263 9.88339 17.1263 7.99592C17.1263 6.10846 15.5962 4.57837 13.7088 4.57837C11.8213 4.57837 10.2913 6.10846 10.2913 7.99592C10.2913 9.88339 11.8213 11.4135 13.7088 11.4135Z" fill="black"/>
<path d="M9.3903 3.2958C10.3004 3.2958 11.0382 2.55801 11.0382 1.6479C11.0382 0.737791 10.3004 0 9.3903 0C8.48021 0 7.74243 0.737791 7.74243 1.6479C7.74243 2.55801 8.48021 3.2958 9.3903 3.2958Z" fill="black"/>
<path d="M9.3903 15.9999C10.3004 15.9999 11.0382 15.2621 11.0382 14.352C11.0382 13.4419 10.3004 12.7041 9.3903 12.7041C8.48021 12.7041 7.74243 13.4419 7.74243 14.352C7.74243 15.2621 8.48021 15.9999 9.3903 15.9999Z" fill="black"/>
<path d="M8.63517 10.4637C8.73259 10.4962 8.83812 10.5124 8.94365 10.5124C9.51188 10.5124 9.9746 10.0497 9.9746 9.48149C9.9746 8.91325 9.51188 8.45054 8.94365 8.45054C8.57835 8.45054 8.26176 8.63725 8.07505 8.92137V8.92949C8.04258 8.97008 8.01823 9.01878 8.00199 9.06749C6.86551 11.0726 4.58444 9.73314 4.58444 9.73314C4.21102 9.51397 3.78078 9.38408 3.30996 9.38408C1.93806 9.38408 0.825939 10.4962 0.825939 11.8681C0.825939 13.24 1.93806 14.3521 3.30996 14.3521C4.26785 14.3521 5.10397 13.8083 5.50986 13.0127V13.0046C5.58292 12.8666 5.63974 12.7205 5.68845 12.5662C6.87363 9.84679 8.63517 10.4637 8.63517 10.4637ZM8.0507 6.81887C8.0994 6.90817 8.16435 6.99746 8.23741 7.07052C8.64329 7.47641 9.29271 7.47641 9.69047 7.07052C10.0964 6.66464 10.0964 6.01522 9.69047 5.61745C9.43071 5.35768 9.07353 5.26838 8.74882 5.34144H8.7407C8.692 5.34956 8.63517 5.3658 8.58647 5.39015C6.36222 6.0071 5.69656 3.44189 5.69656 3.44189C5.59103 3.01977 5.37185 2.622 5.04715 2.29729C4.07302 1.32316 2.5063 1.32316 1.5403 2.28917C0.57429 3.25518 0.566172 4.83003 1.5403 5.79604C2.22218 6.47793 3.18819 6.68087 4.04867 6.40487H4.05679C4.2029 6.35616 4.34902 6.29122 4.49514 6.21816C7.24705 5.13038 8.0507 6.81887 8.0507 6.81887Z" fill="black"/>
</g>
<defs>
<clipPath id="clip0_8504_10295">
<rect width="16.3199" height="16" fill="white" transform="translate(0.808105)"/>
</clipPath>
</defs>
</svg>
