<svg width="15" height="16" viewBox="0 0 15 16" fill="none" xmlns="http://www.w3.org/2000/svg">
<g clip-path="url(#clip0_8504_11376)">
<path d="M7.08006 4.10889L10.3376 6.07369L7.08006 7.93609L3.67529 6.07369L7.08006 4.10889Z" fill="#EA259E"/>
<path d="M3.67529 6.14404L7.08003 8.00004L7.06083 11.7888L3.67529 9.99684V6.14404Z" fill="#014C99"/>
<path d="M7.08008 8.00008L10.3761 6.14404L10.4721 9.99693L7.12488 11.8594L7.08008 8.00008Z" fill="#08B0F9"/>
<path d="M13.8508 3.87206L13.7996 3.84006L10.5484 1.97763L7.1437 0.0256004L7.0989 0L7.0605 0.0192003C6.99656 0.0420412 6.9345 0.0698602 6.87491 0.102402L3.90536 1.83683L0.231823 3.98726C0.0782256 4.05766 0.0846255 4.21766 0.0846255 4.31367V4.38407L0.0782256 9.83695L0.0718257 11.8594C0.0654258 11.981 0.116625 12.0898 0.206223 12.1282L4.43015 14.5282L6.92611 15.949C6.97731 15.981 7.0349 16.0002 7.0861 16.0002C7.1299 16.0022 7.17298 15.9886 7.2077 15.9618L10.8172 13.8818L13.8892 12.1154C14.0044 12.0642 14.0748 11.949 14.0556 11.8402L14.0684 4.17926C14.0876 4.00006 13.9404 3.91686 13.8508 3.87206ZM7.0733 4.35847L10.0493 6.08649L7.0797 7.79532L6.06852 7.22571L4.07176 6.09289L7.0733 4.35847ZM10.4524 5.84969L7.2269 3.97446C7.18446 3.94322 7.13341 3.92584 7.08072 3.92469C7.02803 3.92355 6.97627 3.93869 6.93251 3.96806L3.66856 5.86249L0.699015 4.17926L2.77258 2.96965L7.0797 0.454407L11.0412 2.72644L13.4604 4.11526L10.4524 5.84969ZM0.494218 4.53127L3.45097 6.20809L3.50857 9.89455C3.50217 10.0098 3.55977 10.1122 3.64936 10.157L5.61413 11.2834L6.87491 12.0066V15.4562L0.481419 11.821L0.494218 4.53127ZM3.86056 6.4385L6.88131 8.14732L6.87491 11.5394L3.91816 9.84335L3.86056 6.4385ZM7.2845 12.013L8.54528 11.2834L10.4908 10.1698L10.51 10.157C10.5484 10.1378 10.5932 10.1058 10.6252 10.061L10.6444 10.0354V10.0034L10.638 7.55851V6.21449L13.6588 4.46727V7.44331L13.6524 11.7826L9.60126 14.1122L7.2781 15.4498L7.2845 12.013ZM7.2845 11.5458V8.14732L10.2604 6.4321V9.83695L7.2845 11.5458Z" fill="#2F2F2F"/>
<path d="M6.99026 0.851024C6.90066 0.863824 6.82386 0.921424 6.78546 0.998224C6.74706 1.08782 6.75346 1.18382 6.79826 1.24782C6.84946 1.32462 6.93266 1.36942 7.02866 1.36942C7.04583 1.36824 7.06293 1.3661 7.07986 1.36302C7.18866 1.35022 7.27186 1.27342 7.29106 1.17742C7.30437 1.13547 7.30604 1.09069 7.29589 1.04786C7.28575 1.00503 7.26417 0.965755 7.23346 0.934224C7.20346 0.90066 7.16534 0.875377 7.12275 0.860806C7.08016 0.846236 7.03453 0.842867 6.99026 0.851024ZM7.16306 1.97102C7.06706 1.91982 6.95826 1.92622 6.88146 1.97742C6.81106 2.01582 6.76626 2.09262 6.75346 2.17582C6.74706 2.26542 6.78546 2.34222 6.83666 2.38702C6.86135 2.41052 6.89049 2.42886 6.92236 2.44095C6.95423 2.45303 6.9882 2.45864 7.02226 2.45742C7.062 2.45675 7.10118 2.44804 7.13746 2.43182C7.23986 2.39342 7.29746 2.29742 7.29746 2.20142C7.30386 2.11182 7.24626 2.02222 7.16306 1.97102ZM7.16946 3.07182C7.07986 3.01422 6.97106 3.01422 6.88786 3.05902C6.81106 3.09742 6.75986 3.17422 6.75346 3.26382C6.74706 3.35342 6.78546 3.44942 6.85586 3.49422C6.90389 3.52973 6.96258 3.54779 7.02226 3.54542C7.062 3.54475 7.10118 3.53604 7.13746 3.51982C7.18097 3.50243 7.21871 3.47313 7.24635 3.43529C7.27399 3.39745 7.29042 3.35259 7.29376 3.30585C7.2971 3.2591 7.28721 3.21236 7.26523 3.17098C7.24325 3.12959 7.21006 3.09523 7.16946 3.07182ZM2.82386 10.2462C2.72786 10.2718 2.65746 10.3486 2.63826 10.4446C2.61906 10.547 2.65106 10.643 2.72146 10.7006C2.76582 10.739 2.82284 10.7595 2.88146 10.7582C2.90084 10.7583 2.92018 10.7562 2.93906 10.7518C3.02226 10.7326 3.09266 10.675 3.11826 10.6046C3.16306 10.515 3.15026 10.4062 3.07346 10.323C3.04397 10.2872 3.00458 10.2608 2.96021 10.2471C2.91583 10.2335 2.86841 10.2331 2.82386 10.2462ZM11.0927 10.7646C11.1145 10.7635 11.1361 10.7592 11.1567 10.7518C11.2399 10.7326 11.3103 10.675 11.3295 10.611C11.3743 10.515 11.3551 10.3998 11.2847 10.3166C11.2524 10.2808 11.2104 10.2551 11.1639 10.2426C11.1173 10.2301 11.0681 10.2314 11.0223 10.2462C10.9327 10.2718 10.8623 10.3486 10.8431 10.4446C10.8239 10.547 10.8623 10.643 10.9327 10.7006C10.9711 10.7454 11.0287 10.7646 11.0927 10.7646ZM1.88946 10.7966C1.79346 10.8286 1.72946 10.9182 1.72306 11.0206C1.71026 11.1294 1.76146 11.2318 1.84466 11.2766C1.88291 11.3011 1.92725 11.3144 1.97266 11.315C2.01032 11.3142 2.04739 11.3055 2.08146 11.2894C2.16466 11.251 2.22226 11.1742 2.22866 11.1038C2.24786 11.0078 2.20946 10.9054 2.13266 10.8414C2.10057 10.8116 2.06065 10.7916 2.01758 10.7836C1.97451 10.7757 1.93006 10.7802 1.88946 10.7966ZM12.0015 11.3086C12.0319 11.3099 12.0622 11.3055 12.0911 11.2958C12.1807 11.2638 12.2447 11.187 12.2511 11.1102C12.2767 11.0142 12.2511 10.9182 12.1743 10.8478C12.1409 10.8158 12.0991 10.794 12.0537 10.785C12.0084 10.7759 11.9614 10.7799 11.9183 10.7966C11.8751 10.8145 11.8371 10.843 11.808 10.8796C11.7789 10.9162 11.7596 10.9596 11.7519 11.0057C11.7443 11.0518 11.7484 11.0991 11.7641 11.1432C11.7798 11.1872 11.8064 11.2265 11.8415 11.2574C11.8875 11.292 11.9439 11.31 12.0015 11.3086ZM1.18546 11.3662C1.10866 11.3214 1.01266 11.3214 0.942261 11.3662C0.859061 11.411 0.807861 11.4942 0.807861 11.5966C0.807861 11.699 0.859061 11.7886 0.942261 11.827C0.977053 11.8479 1.01687 11.859 1.05746 11.859C1.10708 11.8598 1.1559 11.8465 1.19826 11.8206C1.28146 11.763 1.32626 11.667 1.31986 11.5838C1.31986 11.4942 1.26866 11.411 1.18546 11.3598V11.3662ZM12.7631 11.8014C12.8055 11.8388 12.8601 11.8593 12.9167 11.859C12.9496 11.859 12.9822 11.8525 13.0127 11.8398C13.1023 11.8014 13.1663 11.7118 13.1727 11.635C13.1919 11.5326 13.1471 11.4302 13.0575 11.3726C12.9743 11.315 12.8719 11.315 12.7951 11.3662C12.7575 11.3892 12.7262 11.4211 12.7039 11.4591C12.6816 11.497 12.6689 11.5398 12.6671 11.5838C12.6607 11.6734 12.6991 11.7566 12.7631 11.8014Z" fill="#2F2F2F"/>
</g>
<defs>
<clipPath id="clip0_8504_11376">
<rect width="13.9968" height="16" fill="white" transform="translate(0.0720215)"/>
</clipPath>
</defs>
</svg>
