<svg width="17" height="16" viewBox="0 0 17 16" fill="none" xmlns="http://www.w3.org/2000/svg">
<g clip-path="url(#clip0_8504_11383)">
<path d="M8.07449 16.0113C12.4959 16.0113 16.0801 12.427 16.0801 8.00565C16.0801 3.58425 12.4959 0 8.07449 0C3.6531 0 0.0688477 3.58425 0.0688477 8.00565C0.0688477 12.427 3.6531 16.0113 8.07449 16.0113Z" fill="#7866D5"/>
<path d="M11.315 4.11017C11.586 4.14404 11.8683 4.16663 12.1393 4.21179C12.67 4.31341 12.8507 4.58441 12.7603 5.1264C12.7378 5.32965 12.5797 5.48773 12.3764 5.5216C12.2522 5.54418 12.1167 5.55548 11.9925 5.54418C10.2311 5.54418 8.48088 5.55548 6.71941 5.55548C6.4597 5.55548 6.18871 5.57806 5.929 5.62322C5.05956 5.75872 4.72082 6.12005 4.65307 7.00078C4.61919 7.40727 4.61919 7.40727 5.03698 7.40727H12.0377C12.1054 7.40727 12.1732 7.40727 12.2409 7.40727C12.3538 7.40727 12.4555 7.44115 12.5571 7.49761C12.8733 7.70085 12.7942 8.02831 12.7829 8.32188C12.7716 8.559 12.6248 8.6945 12.3764 8.73967C12.2748 8.76225 12.1732 8.76225 12.0603 8.76225C9.66648 8.76225 7.27269 8.76225 4.8789 8.76225C4.61919 8.76225 4.61919 8.76225 4.64178 9.02195C4.65307 9.25907 4.67565 9.49619 4.73211 9.73332C4.84502 10.1624 5.10473 10.4334 5.54509 10.5576C6.01934 10.6931 6.51616 10.7157 7.00169 10.727C8.7067 10.727 10.423 10.727 12.1393 10.727C12.3538 10.727 12.5571 10.7495 12.6926 10.9528C12.9071 11.2915 12.7942 11.7319 12.4555 11.9464C12.4103 11.9803 12.3651 12.0029 12.3087 12.0142C11.9361 12.1384 11.5522 12.161 11.1569 12.1723C9.54227 12.2061 7.93888 12.2061 6.3355 12.1723C5.83867 12.161 5.34185 12.1045 4.85632 12.0029C3.71588 11.7658 3.14001 11.1786 2.94806 10.0269C2.90289 9.76719 2.88031 9.49619 2.84644 9.2252V7.12499C2.86902 6.92174 2.8916 6.7072 2.91418 6.50396C3.06097 5.20544 3.64813 4.56183 4.92406 4.26825C5.37572 4.16663 5.84996 4.14404 6.30162 4.09888L11.315 4.11017Z" fill="white"/>
<path d="M8.7407 12.398C7.92771 12.398 7.12602 12.3867 6.32433 12.3754C5.81621 12.3641 5.3081 12.3076 4.81127 12.1947C3.5805 11.935 2.94818 11.2801 2.74493 10.0606C2.71106 9.86869 2.68848 9.67674 2.67719 9.49607C2.66589 9.41703 2.6546 9.33799 2.64331 9.24766V9.22508V7.10228L2.66589 6.89904C2.67719 6.75225 2.69977 6.61675 2.71106 6.48125C2.86914 5.0924 3.52404 4.38104 4.89031 4.07617C5.25164 3.99713 5.60167 3.96326 5.95171 3.92938C6.06462 3.91809 6.17754 3.9068 6.29045 3.89551H6.31304H11.3377H11.349C11.4281 3.9068 11.5184 3.91809 11.5974 3.91809C11.7894 3.94067 11.9813 3.95197 12.1846 3.99713C12.8282 4.12134 13.0766 4.48266 12.9637 5.13757C12.9298 5.41985 12.704 5.65698 12.3991 5.70214C12.2636 5.72472 12.1281 5.73602 11.9813 5.73602C10.2312 5.74731 8.4697 5.7586 6.71953 5.7586C6.47112 5.7586 6.21141 5.78118 5.963 5.82635C5.18389 5.95055 4.92419 6.23284 4.85644 7.02324C4.85644 7.09099 4.84515 7.15874 4.84515 7.2152C4.89031 7.2152 4.96935 7.2152 5.0371 7.2152H12.2411C12.3878 7.2152 12.5346 7.26036 12.6588 7.32811C13.0427 7.57652 13.0089 7.94914 12.9863 8.22014C12.9863 8.25401 12.975 8.29918 12.975 8.33305C12.9524 8.64921 12.7605 8.86375 12.4104 8.9315C12.2862 8.95408 12.1733 8.95408 12.0604 8.95408H4.89031C4.87902 8.95408 4.85644 8.95408 4.84515 8.95408C4.84515 8.96537 4.84515 8.97667 4.84515 8.98796V8.99925C4.85644 9.23637 4.87902 9.4622 4.93548 9.68803C5.02581 10.0381 5.24035 10.2526 5.60167 10.3542C6.08721 10.4897 6.58403 10.5123 7.01311 10.5123C8.3455 10.5236 9.70047 10.5236 11.0216 10.5236H12.1507C12.3201 10.5236 12.6701 10.5236 12.8734 10.851C13.0089 11.0656 13.0427 11.314 12.9863 11.5511C12.9298 11.7882 12.783 11.9915 12.5685 12.127C12.512 12.1609 12.4443 12.1947 12.3765 12.2173C11.9588 12.3528 11.5297 12.3754 11.1684 12.3867C10.3667 12.3867 9.55368 12.398 8.7407 12.398ZM3.0498 9.21379C3.06109 9.29283 3.07239 9.37187 3.07239 9.45091C3.09497 9.63157 3.11755 9.81223 3.14013 9.9929C3.3208 11.0543 3.82891 11.5737 4.89031 11.7995C5.36455 11.9012 5.85009 11.9576 6.33562 11.9689C7.92771 12.0028 9.55368 12.0028 11.1571 11.9689C11.4845 11.9576 11.8797 11.935 12.2411 11.8221C12.2749 11.8108 12.3088 11.7882 12.3427 11.7769C12.4556 11.6979 12.5459 11.585 12.5798 11.4495C12.6137 11.314 12.5911 11.1785 12.512 11.0543C12.4443 10.9527 12.354 10.9188 12.1394 10.9188H11.0103C9.70047 10.9188 8.33421 10.9188 7.00181 10.9075C6.55016 10.9075 6.01946 10.8849 5.48876 10.7268C4.98064 10.5913 4.66448 10.2639 4.54028 9.75578C4.48382 9.50736 4.44994 9.24766 4.44994 8.99925V8.98796C4.43865 8.82988 4.42736 8.71696 4.51769 8.61534C4.60802 8.51372 4.73223 8.51372 4.89031 8.51372H12.0717C12.162 8.51372 12.2636 8.51371 12.354 8.49113C12.5346 8.45726 12.5798 8.37822 12.5911 8.2653C12.5911 8.22014 12.6024 8.18626 12.6024 8.1411C12.625 7.85881 12.625 7.72331 12.4669 7.62169C12.4104 7.58782 12.3314 7.56523 12.2636 7.56523H5.0371C4.78869 7.56523 4.6419 7.56523 4.52898 7.45232C4.41607 7.3394 4.43865 7.18132 4.44994 6.9442C4.52898 5.97314 4.93548 5.53277 5.89525 5.38598C6.16625 5.34081 6.43724 5.31823 6.71953 5.30694C8.481 5.30694 10.2312 5.29565 11.9926 5.29565C12.1168 5.29565 12.2298 5.29565 12.3427 5.27307C12.4556 5.26177 12.5459 5.17144 12.5572 5.05853C12.6363 4.60687 12.5233 4.46008 12.0943 4.36975C11.9136 4.33587 11.7329 4.31329 11.5523 4.302C11.4732 4.29071 11.3829 4.27942 11.3039 4.27942H6.31304C6.20012 4.29071 6.08721 4.302 5.97429 4.31329C5.62426 4.34717 5.2968 4.36975 4.95806 4.44879C3.77246 4.74237 3.25305 5.31823 3.11755 6.53771C3.10626 6.67321 3.08368 6.8087 3.07239 6.95549L3.0498 7.14745V9.21379Z" fill="white"/>
</g>
<defs>
<clipPath id="clip0_8504_11383">
<rect width="16" height="16" fill="white" transform="translate(0.0688477)"/>
</clipPath>
</defs>
</svg>
