<svg width="16" height="16" viewBox="0 0 16 16" fill="none" xmlns="http://www.w3.org/2000/svg">
<g clip-path="url(#clip0_8504_11422)">
<path d="M8 16.0002C12.4183 16.0002 16 12.4185 16 8.00024C16 3.58197 12.4183 0.000244141 8 0.000244141C3.58172 0.000244141 0 3.58197 0 8.00024C0 12.4185 3.58172 16.0002 8 16.0002Z" fill="#044AAC"/>
<path fill-rule="evenodd" clip-rule="evenodd" d="M5.041 8.60524L3.732 9.91524L3.117 10.5302C2.71061 9.7489 2.49894 8.88096 2.5 8.00024C2.5 4.96774 4.9675 2.50024 8 2.50024C11.0325 2.50024 13.5 4.96774 13.5 8.00024C13.5 11.0327 11.0325 13.5002 8 13.5002C6.827 13.5002 5.739 13.1307 4.845 12.5027C4.61945 12.3444 4.40602 12.1694 4.2065 11.9792L4.7875 11.3977L8.996 7.18924C9.01245 6.98644 9.10457 6.79723 9.25408 6.65921C9.40358 6.52119 9.59953 6.44446 9.803 6.44424C10.0034 6.44444 10.1966 6.51892 10.3453 6.65329C10.494 6.78766 10.5876 6.97238 10.608 7.17174L12.545 9.10874C12.6335 8.74589 12.6781 8.37373 12.678 8.00024C12.678 5.42024 10.5795 3.32224 8 3.32224C5.4205 3.32224 3.322 5.42024 3.322 8.00024C3.322 8.35924 3.3625 8.70874 3.4395 9.04474L4.6835 7.80024C4.71393 7.61003 4.8111 7.43687 4.95761 7.31181C5.10411 7.18674 5.29037 7.11794 5.483 7.11774C5.67289 7.11793 5.85668 7.18482 6.00227 7.30673C6.14786 7.42865 6.24598 7.59784 6.2795 7.78474L7.071 8.57574L6.4895 9.15674L5.9325 8.59974C5.80093 8.68831 5.64612 8.73603 5.48751 8.73692C5.3289 8.73781 5.17357 8.69183 5.041 8.60474V8.60524ZM9.3955 7.95224L5.4365 11.9112C6.19741 12.4125 7.08882 12.6792 8 12.6782C9.8765 12.6782 11.4985 11.5677 12.243 9.96924L10.2205 7.94624C10.0963 8.02163 9.95408 8.06199 9.80883 8.06305C9.66358 8.06411 9.52075 8.02582 9.3955 7.95224ZM9.8175 6.89424C9.7686 6.8925 9.71984 6.90063 9.67416 6.91816C9.62847 6.93569 9.58678 6.96225 9.55159 6.99625C9.5164 7.03026 9.48842 7.07101 9.46934 7.11607C9.45026 7.16113 9.44046 7.20958 9.44053 7.25851C9.44059 7.30745 9.45053 7.35587 9.46973 7.40088C9.48894 7.44589 9.51702 7.48656 9.55231 7.52047C9.58759 7.55438 9.62935 7.58082 9.67509 7.59822C9.72083 7.61562 9.7696 7.62362 9.8185 7.62174C9.91264 7.61813 10.0017 7.57815 10.067 7.51023C10.1323 7.4423 10.1687 7.35172 10.1685 7.25751C10.1684 7.16331 10.1317 7.07282 10.0663 7.00508C10.0008 6.93733 9.91165 6.8976 9.8175 6.89424ZM5.4875 7.55774C5.39097 7.55774 5.29838 7.59609 5.23012 7.66436C5.16185 7.73262 5.1235 7.82521 5.1235 7.92174C5.1235 8.01828 5.16185 8.11087 5.23012 8.17913C5.29838 8.24739 5.39097 8.28574 5.4875 8.28574C5.58404 8.28574 5.67663 8.24739 5.74489 8.17913C5.81315 8.11087 5.8515 8.01828 5.8515 7.92174C5.8515 7.82521 5.81315 7.73262 5.74489 7.66436C5.67663 7.59609 5.58404 7.55774 5.4875 7.55774Z" fill="white"/>
</g>
<defs>
<clipPath id="clip0_8504_11422">
<rect width="16" height="16" fill="white" transform="translate(0 0.000244141)"/>
</clipPath>
</defs>
</svg>
