<svg width="17" height="16" viewBox="0 0 17 16" fill="none" xmlns="http://www.w3.org/2000/svg">
<g clip-path="url(#clip0_8504_11479)">
<path d="M0.748535 0.000244141V16.0002H16.4925V0.000244141H0.748535ZM6.25254 1.85624H7.72453V3.39224H6.25254V1.85624ZM2.54054 1.85624H4.07653V3.39224H2.54054V1.85624ZM4.01254 5.56824V7.10424H2.47654V5.56824H4.01254ZM3.62854 14.0162H2.98854V13.4402H3.56454V14.0162H3.62854ZM4.07653 10.9442H2.54054V9.47224H4.07653V10.9442ZM7.34054 14.0162H6.76453V13.4402H7.34054V14.0162ZM7.34054 10.4322H6.76453V9.85624H7.34054V10.4322ZM7.78854 7.16824H6.25254V5.63224H7.78854V7.16824ZM11.0525 14.0162H10.4765V13.4402H11.0525V14.0162ZM11.0525 10.4322H10.4765V9.85624H11.0525V10.4322ZM11.0525 6.65624H10.4765V6.08024H11.0525V6.65624ZM11.5645 3.39224H10.0285V1.85624H11.5645V3.39224ZM14.8285 14.0162H14.2525V13.4402H14.8285V14.0162ZM14.8285 10.4322H14.2525V9.85624H14.8285V10.4322ZM14.8285 6.65624H14.2525V6.08024H14.8285V6.65624ZM14.8285 2.94424H14.2525V2.36824H14.8285V2.94424Z" fill="#202944"/>
</g>
<defs>
<clipPath id="clip0_8504_11479">
<rect width="15.744" height="16" fill="white" transform="translate(0.748535 0.000244141)"/>
</clipPath>
</defs>
</svg>
