<svg width="17" height="16" viewBox="0 0 17 16" fill="none" xmlns="http://www.w3.org/2000/svg">
<mask id="mask0_8504_11481" style="mask-type:alpha" maskUnits="userSpaceOnUse" x="0" y="0" width="17" height="17">
<path fill-rule="evenodd" clip-rule="evenodd" d="M0.492432 0.000244141H16.4924V16.0002H0.492432V0.000244141Z" fill="white"/>
</mask>
<g mask="url(#mask0_8504_11481)">
<path fill-rule="evenodd" clip-rule="evenodd" d="M8.49243 15.9998C4.09243 15.9998 0.492432 12.3998 0.492432 7.95984C0.532432 3.55984 4.09243 -0.0401581 8.53243 -0.000158138C12.9324 0.0398419 16.4924 3.59984 16.4924 8.07984C16.4524 12.4398 12.8924 15.9998 8.49243 15.9998Z" fill="#0090FF"/>
<path fill-rule="evenodd" clip-rule="evenodd" d="M9.25259 7.04032L9.01259 8.32032L11.2926 8.64033L11.1326 9.24032L8.89259 8.92032C8.73259 9.44032 8.65259 10.0003 8.45259 10.4803C8.25259 11.0403 8.05259 11.6003 7.81259 12.1203C7.49259 12.8003 6.93259 13.2803 6.17259 13.4003C5.73259 13.4803 5.25259 13.4403 4.89259 13.1603C4.77259 13.0803 4.65259 12.9203 4.65259 12.8003C4.65259 12.6403 4.73259 12.4403 4.85259 12.3603C4.93259 12.3203 5.13259 12.3603 5.25259 12.4003C5.37259 12.5203 5.49259 12.6803 5.57259 12.8403C5.81259 13.1603 6.13259 13.2003 6.45259 12.9603C6.81259 12.6403 7.01259 12.2003 7.13259 11.7603C7.37259 10.8003 7.61259 9.88032 7.81259 8.92032V8.76032L5.69259 8.44032L5.77259 7.84032L7.97259 8.16032L8.25259 6.92032L5.97259 6.56032L6.05259 5.92032L8.41259 6.24032C8.49259 6.00032 8.53259 5.80032 8.61259 5.60032C8.81259 4.88032 9.01259 4.16032 9.49259 3.52032C9.97259 2.88032 10.5326 2.48032 11.3726 2.52032C11.7326 2.52032 12.0926 2.64032 12.3326 2.92032C12.3726 2.96032 12.4526 3.04032 12.4526 3.12032C12.4526 3.28032 12.4526 3.48032 12.3326 3.60032C12.1726 3.72032 11.9726 3.68032 11.8126 3.52032C11.6926 3.40032 11.6126 3.28032 11.4926 3.16032C11.2526 2.84032 10.8926 2.80032 10.6126 3.08032C10.4126 3.28032 10.2126 3.56032 10.0926 3.84032C9.81259 4.68032 9.61259 5.56032 9.33259 6.44032L11.5326 6.76032L11.3726 7.36032L9.25259 7.04032Z" fill="white"/>
</g>
</svg>
