<svg width="17" height="16" viewBox="0 0 17 16" fill="none" xmlns="http://www.w3.org/2000/svg">
<g clip-path="url(#clip0_8504_11511)">
<path fill-rule="evenodd" clip-rule="evenodd" d="M8.73584 0.000244141C10.3181 0.000244141 11.8648 0.469436 13.1804 1.34849C14.496 2.22754 15.5214 3.47697 16.1269 4.93878C16.7324 6.40059 16.8908 8.00912 16.5821 9.56097C16.2734 11.1128 15.5115 12.5383 14.3927 13.6571C13.2739 14.7759 11.8484 15.5378 10.2966 15.8465C8.74471 16.1552 7.13618 15.9968 5.67437 15.3913C4.21256 14.7858 2.96313 13.7604 2.08408 12.4448C1.20503 11.1292 0.73584 9.58249 0.73584 8.00024C0.73584 5.87851 1.57869 3.84368 3.07899 2.34339C4.57928 0.8431 6.61411 0.000244141 8.73584 0.000244141Z" fill="#1E9ADA"/>
<path d="M6.95007 4.4684C4.96582 7.51179 3.74699 11.7381 3.27162 13.1738C3.00427 10.4636 4.41573 6.77493 5.44924 4.59438C4.97387 4.61635 2.43954 4.79507 1.0354 6.24609C1.0354 6.24609 1.7935 3.91685 6.17072 3.21002L6.18537 3.17999C9.61112 -1.82789 12.1821 1.16351 12.1821 1.16351C10.6212 0.902748 9.26173 1.68429 8.10224 2.95658C8.66697 2.93461 12.3234 2.88993 13.376 5.7839C13.376 5.7839 11.2577 4.26623 6.94787 4.46546L6.95007 4.4684ZM9.42507 7.95787C9.11004 7.95743 8.80195 8.05045 8.53979 8.22516C8.27764 8.39987 8.0732 8.64841 7.95234 8.93935C7.83148 9.23028 7.79963 9.55052 7.86082 9.85956C7.92202 10.1686 8.0735 10.4525 8.29611 10.6755C8.51872 10.8984 8.80246 11.0502 9.11141 11.1119C9.42036 11.1735 9.74065 11.1421 10.0317 11.0216C10.3228 10.9012 10.5717 10.6971 10.7467 10.4352C10.9218 10.1732 11.0153 9.86529 11.0153 9.55025C11.0157 9.34118 10.975 9.13408 10.8952 8.94081C10.8155 8.74754 10.6984 8.5719 10.5507 8.42397C10.403 8.27603 10.2275 8.15871 10.0343 8.07873C9.84119 7.99874 9.63414 7.95767 9.42507 7.95787Z" fill="#FEFEFE"/>
</g>
<defs>
<clipPath id="clip0_8504_11511">
<rect width="16" height="16" fill="white" transform="translate(0.73584 0.000244141)"/>
</clipPath>
</defs>
</svg>
