<svg width="17" height="16" viewBox="0 0 17 16" fill="none" xmlns="http://www.w3.org/2000/svg">
<g clip-path="url(#clip0_8504_11466)">
<path d="M8.74854 16.0002C13.1668 16.0002 16.7485 12.4185 16.7485 8.00024C16.7485 3.58197 13.1668 0.000244141 8.74854 0.000244141C4.33026 0.000244141 0.748535 3.58197 0.748535 8.00024C0.748535 12.4185 4.33026 16.0002 8.74854 16.0002Z" fill="#13B5EC"/>
<path fill-rule="evenodd" clip-rule="evenodd" d="M9.34854 6.45024L11.1485 5.40024V7.50024L9.34854 6.45024ZM11.1485 10.9502L8.74854 12.3502L6.34854 10.9502V8.50024L8.74854 9.90024L11.1485 8.50024V10.9502ZM6.34854 5.40024L8.14854 6.45024L6.34854 7.50024V5.40024ZM9.04854 6.95024L10.8485 8.00024L9.04854 9.05024V6.95024ZM8.44853 9.05024L6.64854 8.00024L8.44853 6.95024V9.05024ZM10.8485 4.90024L8.74854 6.10024L6.64854 4.90024L8.74854 3.65024L10.8485 4.90024ZM5.74854 4.70024V11.2502L8.74854 12.9502L11.7485 11.2502V4.70024L8.74854 3.00024L5.74854 4.70024Z" fill="white"/>
</g>
<defs>
<clipPath id="clip0_8504_11466">
<rect width="16" height="16" fill="white" transform="translate(0.748535 0.000244141)"/>
</clipPath>
</defs>
</svg>
