<svg width="17" height="16" viewBox="0 0 17 16" fill="none" xmlns="http://www.w3.org/2000/svg">
<g clip-path="url(#clip0_8504_11507)">
<path d="M8.73584 16.0002C13.1541 16.0002 16.7358 12.4185 16.7358 8.00024C16.7358 3.58197 13.1541 0.000244141 8.73584 0.000244141C4.31756 0.000244141 0.73584 3.58197 0.73584 8.00024C0.73584 12.4185 4.31756 16.0002 8.73584 16.0002Z" fill="#ED1968"/>
<path d="M7.08577 13.4501C6.44696 13.2731 5.85132 12.9668 5.33577 12.5501C4.82778 12.1588 4.38845 11.6857 4.03577 11.1501C3.65971 10.5868 3.38867 9.96002 3.23577 9.30015C3.06073 8.50972 3.06073 7.69057 3.23577 6.90015C3.38495 6.23151 3.63802 5.5904 3.98577 5.00015C4.49488 4.18336 5.22228 3.52524 6.08577 3.10015C6.38901 2.93694 6.70712 2.803 7.03577 2.70015C7.53577 3.30015 8.03577 3.95015 8.53577 4.60015C8.58577 4.70015 8.68577 4.75015 8.73577 4.85015C8.23425 4.87117 7.74167 4.99007 7.28577 5.20015C6.88274 5.41085 6.52578 5.69982 6.23577 6.05015C5.95043 6.42734 5.73069 6.84993 5.58577 7.30015C5.45225 7.84448 5.46954 8.4149 5.63577 8.95015L7.78577 7.25015C8.28577 7.90015 8.78577 8.50015 9.28577 9.15015C8.58577 9.70015 7.83577 10.2501 7.13577 10.8501C7.83577 11.7501 8.58577 12.7001 9.28577 13.6501C8.54652 13.7376 7.79715 13.6694 7.08577 13.4501ZM11.8508 7.39315C11.8324 7.3113 11.8107 7.23023 11.7858 7.15015C11.7183 7.20315 10.2308 8.34015 9.63577 8.85015C9.13577 8.20015 8.63577 7.60015 8.13577 6.95015C8.83577 6.40015 9.58577 5.85015 10.2858 5.25015C9.58577 4.35015 8.88577 3.45015 8.13577 2.50015C8.13577 2.45015 8.08577 2.45015 8.08577 2.40015H8.78577C10.0683 2.41212 11.3064 2.87196 12.2858 3.70015C12.7631 4.09456 13.169 4.56813 13.4858 5.10015C13.8589 5.67286 14.0981 6.32227 14.1858 7.00015C14.3197 7.77946 14.3028 8.57724 14.1358 9.35015C13.9926 9.99777 13.7206 10.6099 13.3358 11.1501C13 11.6688 12.5771 12.1255 12.0858 12.5001C11.6073 12.9159 11.0444 13.2229 10.4358 13.4001C9.98577 12.8501 9.58577 12.3501 9.18577 11.8001C9.03633 11.6291 8.90247 11.445 8.78577 11.2501C9.25888 11.2517 9.726 11.1443 10.1509 10.9362C10.5758 10.7281 10.947 10.4249 11.2358 10.0501C11.5238 9.68174 11.7285 9.25528 11.8358 8.80015C11.9288 8.42065 11.9338 7.95165 11.8508 7.39315ZM9.48927 11.5796C9.83457 12.0513 10.193 12.5131 10.5643 12.9646C11.0392 12.7929 11.478 12.5344 11.8583 12.2021C12.3194 11.8497 12.7159 11.42 13.0303 10.9321C13.3855 10.4337 13.6368 9.86878 13.7693 9.27115C13.9263 8.54515 13.9418 7.79565 13.8143 7.04815C13.7325 6.42128 13.5101 5.821 13.1638 5.29215C12.8681 4.79592 12.4893 4.3543 12.0438 3.98665C11.1438 3.22529 10.0089 2.79758 8.83027 2.77565C9.29377 3.36565 9.76327 3.96715 10.5818 5.02015L10.8018 5.30215L10.5298 5.53465C10.1741 5.83713 9.81102 6.13072 9.44077 6.41515C9.40577 6.44265 8.98077 6.76915 8.66177 7.01615C8.79327 7.18365 8.94577 7.37465 9.17877 7.66615C9.40877 7.95365 9.56127 8.14515 9.69277 8.31265C9.92477 8.12115 10.1778 7.92015 10.4808 7.68515C10.5298 7.64715 11.3288 7.03215 11.5543 6.85515L11.9823 6.51865L12.1438 7.03865C12.3301 7.63789 12.3498 8.27655 12.2008 8.88615C12.0813 9.39327 11.8534 9.86851 11.5328 10.2791C11.0229 10.9408 10.2905 11.3954 9.47127 11.5586L9.48927 11.5796Z" fill="white"/>
</g>
<defs>
<clipPath id="clip0_8504_11507">
<rect width="16" height="16" fill="white" transform="translate(0.73584 0.000244141)"/>
</clipPath>
</defs>
</svg>
