<svg width="17" height="16" viewBox="0 0 17 16" fill="none" xmlns="http://www.w3.org/2000/svg">
<g clip-path="url(#clip0_8504_11514)">
<path d="M8.73584 16.0002C13.1541 16.0002 16.7358 12.4185 16.7358 8.00024C16.7358 3.58197 13.1541 0.000244141 8.73584 0.000244141C4.31756 0.000244141 0.73584 3.58197 0.73584 8.00024C0.73584 12.4185 4.31756 16.0002 8.73584 16.0002Z" fill="#2D475B"/>
<path d="M7.17026 6.34302H12.7128V7.58702H7.17026V6.34302ZM12.7128 8.41502H12.7358V11.6865C12.7358 11.6865 8.41226 14.819 5.05426 11.4105C5.05426 11.4105 3.21426 9.54452 3.88126 6.82652C3.88126 6.82652 4.41026 3.44102 8.43526 3.02652C8.43526 3.02652 10.9188 2.68052 12.5288 4.52352L11.5628 5.46752C11.5628 5.46752 9.51576 3.34852 6.77926 5.00752C6.77926 5.00752 4.54826 6.25102 5.46826 9.38352C5.46826 9.38352 6.48026 12.1015 9.65376 11.5485C9.65376 11.5485 10.7348 11.3025 11.2868 10.8265V9.65902H7.17076V8.41502H12.7128Z" fill="white"/>
</g>
<defs>
<clipPath id="clip0_8504_11514">
<rect width="16" height="16" fill="white" transform="translate(0.73584 0.000244141)"/>
</clipPath>
</defs>
</svg>
