<svg width="41" height="16" viewBox="0 0 41 16" fill="none" xmlns="http://www.w3.org/2000/svg">
<g clip-path="url(#clip0_8504_11546)">
<path d="M26.9077 4.00019L26.3191 4.58882C26.5611 4.96102 26.7136 5.38419 26.7646 5.82518C26.8157 6.26617 26.7639 6.71299 26.6134 7.13063C26.3528 7.85326 25.8167 8.44329 25.1223 8.7717C24.4279 9.10012 23.6316 9.14018 22.9077 8.88314C22.7002 8.80949 22.5025 8.71065 22.3191 8.58883L20.4328 10.4751L18.7873 8.81625C18.3999 9.07447 17.9577 9.2391 17.4956 9.29714C17.0336 9.35518 16.5644 9.30505 16.1251 9.1507C15.7574 9.01976 15.4191 8.81744 15.1298 8.55538C14.8405 8.29331 14.6058 7.97665 14.4392 7.62361C14.2726 7.27056 14.1774 6.88808 14.1591 6.49813C14.1408 6.10819 14.1997 5.71847 14.3325 5.35137C14.4141 5.11886 14.5266 4.89839 14.6669 4.69585L13.9579 3.98682L13.8241 4.21424C13.1069 5.38742 12.7149 6.73037 12.6884 8.10515C12.662 9.47993 13.0019 10.837 13.6734 12.0369C14.3449 13.2369 15.3236 14.2364 16.5092 14.9329C17.6948 15.6295 19.0444 15.9978 20.4194 16.0002H20.4328C21.8066 16.0009 23.1558 15.6361 24.342 14.9432C25.5282 14.2503 26.5087 13.2542 27.1828 12.0572C27.8568 10.8602 28.2003 9.50535 28.1778 8.13177C28.1553 6.75819 27.7678 5.41532 27.0549 4.241L26.9077 4.00019Z" fill="#00A6C4"/>
<path d="M15.5366 5.56543C15.3282 5.84331 15.2156 6.18129 15.2156 6.52864C15.2163 6.94709 15.3828 7.3482 15.6787 7.6441C15.9746 7.93999 16.3757 8.10653 16.7942 8.10724C17.144 8.10902 17.4839 7.991 17.7574 7.77279L15.5366 5.56543Z" fill="#00A6C4"/>
<path d="M23.2822 7.63905C23.542 7.81693 23.8503 7.91037 24.1652 7.90661C24.5836 7.9059 24.9847 7.73936 25.2806 7.44347C25.5765 7.14757 25.7431 6.74646 25.7438 6.32801C25.7456 6.01346 25.6523 5.70571 25.4762 5.44507L23.2822 7.63905Z" fill="#00A6C4"/>
<path d="M20.4593 9.29794L14.0647 2.87653L14.3189 2.60898C15.0938 1.78249 16.0306 1.12437 17.0709 0.675573C18.1112 0.226774 19.2327 -0.00309277 20.3657 0.000280741H20.3791C21.5395 0.00194887 22.6867 0.24687 23.7467 0.719241C24.8066 1.19161 25.7558 1.88094 26.5329 2.74276L26.7737 3.01031L20.4593 9.29794ZM15.1082 2.87653L20.4593 8.24108L25.7436 2.98356C24.326 1.55977 22.4016 0.756328 20.3925 0.749445H20.3791C18.4109 0.738563 16.5175 1.50265 15.1082 2.87653Z" fill="#00A6C4"/>
<path d="M13.4093 13.4318L12.6601 13.3783C9.47617 13.1776 5.08821 12.3883 2.25209 9.83314C0.499577 8.26792 0.165129 6.78297 0.151751 6.71608L0.0581055 6.26123H11.6434L11.5765 6.68932C11.5231 7.07948 11.4963 7.4728 11.4962 7.86658C11.49 9.62302 12.007 11.3415 12.9812 12.803L13.4093 13.4318Z" fill="#00A6C4"/>
<path d="M27.4292 13.4318L27.8439 12.803C28.816 11.3505 29.3331 9.64115 29.3289 7.89334C29.3292 7.49065 29.3024 7.0884 29.2486 6.68932L29.1951 6.26123H40.7803L40.6867 6.71608C40.6733 6.78297 40.3389 8.26792 38.5997 9.83314C35.7636 12.3883 31.3623 13.1776 28.1784 13.3783L27.4292 13.4318Z" fill="#00A6C4"/>
</g>
<defs>
<clipPath id="clip0_8504_11546">
<rect width="40.7224" height="16" fill="white" transform="translate(0.0581055 0.000244141)"/>
</clipPath>
</defs>
</svg>
