<svg width="17" height="16" viewBox="0 0 17 16" fill="none" xmlns="http://www.w3.org/2000/svg">
<g clip-path="url(#clip0_8504_11573)">
<path d="M8.78076 16.0002C13.199 16.0002 16.7808 12.4185 16.7808 8.00024C16.7808 3.58197 13.199 0.000244141 8.78076 0.000244141C4.36248 0.000244141 0.780762 3.58197 0.780762 8.00024C0.780762 12.4185 4.36248 16.0002 8.78076 16.0002Z" fill="#001D57"/>
<path d="M11.0303 2.64429L11.6318 3.24629L10.4933 4.41629C10.7333 4.78129 10.8623 5.21179 10.8623 5.65579C10.8664 6.23998 10.6404 6.80232 10.2333 7.22129C9.93604 7.53529 9.54877 7.74945 9.12479 7.83429V8.85379C9.54669 8.94091 9.93239 9.15355 10.2313 9.46379C10.6396 9.88314 10.8663 10.4465 10.8623 11.0318C10.8662 11.6169 10.6395 12.1801 10.2313 12.5993C10.0323 12.8054 9.79384 12.9693 9.5301 13.0811C9.26636 13.193 8.98277 13.2505 8.69629 13.2503C8.40971 13.2512 8.12593 13.1939 7.8621 13.082C7.59827 12.9701 7.35986 12.8059 7.16129 12.5993C6.7543 12.1793 6.52797 11.6166 6.53079 11.0318C6.53079 10.4418 6.75479 9.88229 7.15979 9.46579C7.45711 9.15197 7.84437 8.93799 8.26829 8.85329V7.83329C7.8464 7.74613 7.46071 7.5335 7.16179 7.22329C6.7545 6.80325 6.52798 6.24036 6.53079 5.65529C6.53079 5.06529 6.75479 4.50579 7.16179 4.08779C7.36071 3.88158 7.59917 3.7176 7.86292 3.60566C8.12666 3.49372 8.41027 3.43611 8.69679 3.43629C9.12679 3.43629 9.54029 3.56729 9.89429 3.81079L11.0308 2.64429H11.0303ZM8.69679 9.67279C8.5232 9.6714 8.35119 9.70575 8.19145 9.7737C8.03171 9.84166 7.88767 9.94176 7.76829 10.0678C7.51806 10.3261 7.37896 10.6722 7.38079 11.0318C7.38079 11.3943 7.51829 11.7328 7.76829 11.9953C7.88857 12.1201 8.03278 12.2195 8.19231 12.2873C8.35185 12.3552 8.52342 12.3902 8.69679 12.3903C8.87029 12.3916 9.04221 12.3572 9.20186 12.2893C9.3615 12.2213 9.50546 12.1212 9.62479 11.9953C9.87489 11.7371 10.014 11.3912 10.0123 11.0318C10.0123 10.6693 9.87479 10.3308 9.62329 10.0663C9.50406 9.94071 9.3603 9.84098 9.20092 9.77329C9.04154 9.7056 8.86994 9.67139 8.69679 9.67279ZM9.62329 6.62779C9.87429 6.36925 10.0139 6.02262 10.0123 5.66229C10.0146 5.48397 9.9815 5.30698 9.91499 5.14152C9.84848 4.97606 9.74985 4.82541 9.62479 4.69829C9.5046 4.57345 9.36047 4.47413 9.20102 4.40626C9.04158 4.33839 8.87008 4.30337 8.69679 4.30329C8.5232 4.3019 8.35119 4.33625 8.19145 4.4042C8.03171 4.47216 7.88767 4.57226 7.76829 4.69829C7.51806 4.95661 7.37896 5.30265 7.38079 5.66229C7.38079 6.02479 7.51829 6.36329 7.76829 6.62579C7.88857 6.75064 8.03278 6.84997 8.19231 6.91784C8.35185 6.9857 8.52342 7.02072 8.69679 7.02079C9.05229 7.02079 9.38029 6.88279 9.62329 6.62779Z" fill="white"/>
</g>
<defs>
<clipPath id="clip0_8504_11573">
<rect width="16" height="16" fill="white" transform="translate(0.780762 0.000244141)"/>
</clipPath>
</defs>
</svg>
