<svg width="17" height="16" viewBox="0 0 17 16" fill="none" xmlns="http://www.w3.org/2000/svg">
<g clip-path="url(#clip0_8504_11542)">
<path d="M8.05811 16.0002C12.4764 16.0002 16.0581 12.4185 16.0581 8.00024C16.0581 3.58197 12.4764 0.000244141 8.05811 0.000244141C3.63983 0.000244141 0.0581055 3.58197 0.0581055 8.00024C0.0581055 12.4185 3.63983 16.0002 8.05811 16.0002Z" fill="#FF0060"/>
<path d="M12.5931 6.02374H8.01911C7.66495 6.02319 7.31741 6.1197 7.01424 6.30278C6.71107 6.48587 6.46387 6.74853 6.29949 7.06223C6.13511 7.37593 6.05983 7.72868 6.08184 8.08216C6.10384 8.43563 6.22229 8.77632 6.42431 9.06721C6.62633 9.35811 6.9042 9.58808 7.22773 9.73215C7.55127 9.87622 7.90809 9.92887 8.25945 9.8844C8.61081 9.83993 8.94326 9.70002 9.2207 9.47989C9.49813 9.25975 9.70994 8.9678 9.83311 8.63574H8.01911C7.95192 8.63581 7.88538 8.62262 7.82329 8.59694C7.7612 8.57126 7.70479 8.53359 7.65728 8.48608C7.60977 8.43857 7.57209 8.38215 7.54641 8.32006C7.52073 8.25798 7.50755 8.19143 7.50761 8.12424V8.06224C7.50755 7.99505 7.52073 7.92851 7.54641 7.86642C7.57209 7.80434 7.60977 7.74792 7.65728 7.70041C7.70479 7.6529 7.7612 7.61523 7.82329 7.58955C7.88538 7.56386 7.95192 7.55068 8.01911 7.55074H11.0426C11.0646 7.69174 11.0751 7.83424 11.0736 7.97674C11.0706 8.58022 10.889 9.16929 10.5516 9.66963C10.2141 10.17 9.73605 10.5591 9.17766 10.788C8.61927 11.0169 8.00559 11.0753 7.41407 10.9557C6.82254 10.8362 6.27969 10.5441 5.85401 10.1163C5.42833 9.68853 5.1389 9.14425 5.02225 8.55215C4.9056 7.96005 4.96696 7.34666 5.19858 6.7894C5.43021 6.23214 5.82171 5.75597 6.32369 5.421C6.82567 5.08602 7.41563 4.90725 8.01911 4.90724L8.11261 4.89174C8.13211 4.90074 8.15261 4.90574 8.17461 4.90724H10.8876C12.3681 4.90724 12.9726 4.11674 12.9726 3.00024H8.01911C5.28311 3.00024 3.06311 5.21674 3.05811 7.95374C3.05411 10.6907 5.26711 12.9137 8.00411 12.9227C10.7411 12.9312 12.9676 10.7217 12.9806 7.98474V6.41874C12.9816 6.36723 12.9723 6.31603 12.9533 6.26815C12.9343 6.22027 12.9059 6.17666 12.8698 6.13988C12.8337 6.1031 12.7907 6.07388 12.7432 6.05394C12.6956 6.034 12.6446 6.02373 12.5931 6.02374Z" fill="white"/>
</g>
<defs>
<clipPath id="clip0_8504_11542">
<rect width="16" height="16" fill="white" transform="translate(0.0581055 0.000244141)"/>
</clipPath>
</defs>
</svg>
