<svg width="16" height="16" viewBox="0 0 16 16" fill="none" xmlns="http://www.w3.org/2000/svg">
<g clip-path="url(#clip0_8504_11593)">
<path d="M8 16.0002C12.4183 16.0002 16 12.4185 16 8.00024C16 3.58197 12.4183 0.000244141 8 0.000244141C3.58172 0.000244141 0 3.58197 0 8.00024C0 12.4185 3.58172 16.0002 8 16.0002Z" fill="#37DCD8"/>
<path d="M7.99505 6.33974L6.60305 4.93774C7.02067 4.25859 7.48759 3.61101 8.00005 3.00024C8.51166 3.60839 8.97791 4.25329 9.39505 4.92974L7.99505 6.33974ZM10.8541 7.74474C11.2471 8.84574 11.8236 9.94674 11.2741 11.0037C10.9244 11.6705 10.3823 12.2167 9.71805 12.5712C7.90855 13.5312 5.66855 12.8262 4.71555 11.0037C4.16055 9.94674 4.80705 8.75874 5.20055 7.65824C5.56105 6.84674 5.92555 6.09874 6.33955 5.37974L7.99455 7.04674L9.65905 5.37074C10.0966 6.12774 10.4746 6.90674 10.8541 7.74524V7.74474Z" fill="white"/>
</g>
<defs>
<clipPath id="clip0_8504_11593">
<rect width="16" height="16" fill="white" transform="translate(0 0.000244141)"/>
</clipPath>
</defs>
</svg>
