<svg width="17" height="16" viewBox="0 0 17 16" fill="none" xmlns="http://www.w3.org/2000/svg">
<g clip-path="url(#clip0_8504_11524)">
<path d="M8.05811 16.0002C12.4764 16.0002 16.0581 12.4185 16.0581 8.00024C16.0581 3.58197 12.4764 0.000244141 8.05811 0.000244141C3.63983 0.000244141 0.0581055 3.58197 0.0581055 8.00024C0.0581055 12.4185 3.63983 16.0002 8.05811 16.0002Z" fill="#00DCFA"/>
<path d="M9.74711 2.50024C7.81211 2.50024 6.16861 3.98824 5.96211 5.90374C4.04561 6.11074 2.55811 7.75424 2.55811 9.68874C2.55864 10.6994 2.9603 11.6685 3.67488 12.3831C4.38945 13.0978 5.35848 13.4996 6.36911 13.5002C8.30411 13.5002 9.95411 12.0122 10.1541 10.0967C12.0701 9.88974 13.5581 8.24624 13.5581 6.31174C13.5576 5.30112 13.1559 4.33203 12.4413 3.61737C11.7268 2.9027 10.7577 2.50091 9.74711 2.50024ZM12.6651 6.73824C12.57 7.36328 12.2775 7.94153 11.8304 8.38859C11.3834 8.83564 10.8051 9.12809 10.1801 9.22324V6.73824H12.6651ZM3.45111 9.26224C3.54498 8.63603 3.83687 8.05632 4.28403 7.60799C4.73119 7.15966 5.31014 6.86626 5.93611 6.77074V9.25574H3.45111V9.26224ZM9.28761 10.1222C9.18437 10.8223 8.8327 11.4619 8.29686 11.9241C7.76102 12.3863 7.07676 12.6404 6.36911 12.6397C5.66158 12.6404 4.97745 12.3864 4.4417 11.9243C3.90595 11.4621 3.55434 10.8227 3.45111 10.1227H9.28761V10.1222ZM9.32011 6.73824V9.25574H6.79611V6.73824H9.32011ZM12.6651 5.87824H6.82861C6.93184 5.17816 7.28351 4.53858 7.81935 4.07636C8.3552 3.61414 9.03945 3.36014 9.74711 3.36074C10.4546 3.36013 11.1388 3.61409 11.6745 4.07622C12.2103 4.53834 12.5619 5.17779 12.6651 5.87774V5.87824Z" fill="white"/>
</g>
<defs>
<clipPath id="clip0_8504_11524">
<rect width="16" height="16" fill="white" transform="translate(0.0581055 0.000244141)"/>
</clipPath>
</defs>
</svg>
