<svg width="23" height="16" viewBox="0 0 23 16" fill="none" xmlns="http://www.w3.org/2000/svg">
<g clip-path="url(#clip0_8504_11620)">
<path d="M1.1501 0.0178633C0.814178 0.044284 0.555632 0.0971254 0.570164 0.136756C0.704154 0.455692 1.53263 2.33345 1.54396 2.34477C1.55528 2.3561 1.74777 2.36931 1.97424 2.37874C2.97822 2.41649 3.77273 2.61275 4.6314 3.03737C5.24852 3.34121 5.70522 3.66769 6.18079 4.14138C6.88094 4.83964 7.33764 5.61528 7.60562 6.56454C7.63581 6.67399 7.66035 6.77213 7.66035 6.78723C7.66035 6.80798 7.50748 6.81176 6.83187 6.81176C6.37517 6.81176 5.98263 6.81931 5.9581 6.82874C5.92224 6.84195 5.82788 7.04577 5.43535 7.94596C5.17114 8.55175 4.95223 9.06129 4.94845 9.07828C4.93524 9.12735 5.09377 9.17075 5.49008 9.22925C5.57123 9.24246 6.05812 9.25567 6.63371 9.26322L7.63581 9.27455L7.57542 9.48214C6.89981 11.7732 4.80314 13.3754 2.23467 13.5679C2.08935 13.5773 1.89875 13.5868 1.81005 13.5868H1.64964L1.15519 14.7248C0.730575 15.6967 0.664523 15.8627 0.692831 15.8722C0.82116 15.9194 1.10801 15.9363 1.77231 15.9363C2.62154 15.9363 3.03484 15.8986 3.73499 15.7552C6.59408 15.1683 8.97006 13.349 10.0458 10.9183C10.2534 10.4503 10.4968 9.68029 10.5402 9.35758L10.5534 9.26511H12.6992L12.7067 9.30663C12.8615 10.0653 13.0294 10.5767 13.32 11.1806C14.1938 12.9999 15.8319 14.4851 17.8606 15.3004C19.0926 15.7937 20.4122 16.0307 21.7388 15.9967C22.2936 15.9797 22.7352 15.9175 22.7126 15.859C22.6937 15.8099 21.7539 13.6528 21.7482 13.6472C21.7426 13.6415 21.5482 13.634 21.3123 13.6245C20.6499 13.5981 20.1517 13.5207 19.5893 13.3603C18.7231 13.1112 17.8663 12.6602 17.2095 12.1091C16.383 11.4127 15.7847 10.5465 15.4677 9.58593C15.4318 9.47648 15.396 9.36136 15.3903 9.32739L15.3771 9.267L16.1848 9.26134C16.6283 9.25756 17.0057 9.24813 17.0208 9.24058C17.0454 9.22737 18.0116 7.03633 18.0116 6.99293C18.0116 6.96462 17.7682 6.89291 17.5474 6.85705C17.3851 6.83063 17.1793 6.82308 16.3584 6.81742L15.3639 6.80798L15.4016 6.67399C15.9527 4.72264 17.6436 3.17325 19.8233 2.62408C20.3045 2.5033 20.7726 2.44102 21.3802 2.41649C21.7426 2.40139 21.7879 2.39573 21.8105 2.36553C21.8256 2.34477 22.0483 1.84467 22.305 1.25397C22.6201 0.53118 22.7654 0.1745 22.7522 0.165064C22.7107 0.142418 22.4465 0.0952382 22.2389 0.0744791C21.937 0.0423968 21.0556 0.0480584 20.6669 0.0820279C18.4438 0.280183 16.4396 1.1766 14.9374 2.64106C14.0202 3.53559 13.3767 4.53958 12.9803 5.69831C12.8784 5.99083 12.7558 6.4513 12.718 6.67399L12.6954 6.81176H10.5861L10.5785 6.76835C10.5729 6.74571 10.5521 6.63814 10.5294 6.52868C10.2181 4.98118 9.33863 3.47709 8.09685 2.36931C6.68335 1.10677 4.92071 0.31604 2.98068 0.0758001C2.39753 0.00465296 1.64586 -0.0198806 1.1501 0.0178633Z" fill="#007F88"/>
</g>
<defs>
<clipPath id="clip0_8504_11620">
<rect width="22.1836" height="16" fill="white" transform="translate(0.570068 0.000244141)"/>
</clipPath>
</defs>
</svg>
