<svg width="11" height="16" viewBox="0 0 11 16" fill="none" xmlns="http://www.w3.org/2000/svg">
<g clip-path="url(#clip0_8504_11628)">
<path d="M7.05156 5.26353C7.05156 3.22281 6.06783 1.46465 5.31434 0.889067C5.31434 0.889067 5.26201 0.857672 5.26201 0.941393C5.19922 4.88678 3.20037 5.9647 2.09106 7.39843C-0.451989 10.7264 1.91315 14.3683 4.32015 15.038C5.67016 15.4148 4.00619 14.3683 3.79689 12.1706C3.54572 9.50194 7.05156 7.47169 7.05156 5.26353Z" fill="#282E5B"/>
<path d="M8.36974 6.61356C8.35928 6.6031 8.33835 6.6031 8.31742 6.61356C8.31742 6.61356 8.31742 6.61356 8.30695 6.62403C8.26509 7.11589 7.7209 8.18334 7.04066 9.15661C4.72785 12.4636 6.04647 14.0543 6.7895 14.9125C7.21857 15.4148 6.7895 14.9125 7.86741 14.3997C7.95113 14.3578 9.96045 13.2904 10.1802 10.8729C10.4 8.51823 8.90347 7.04264 8.36974 6.61356Z" fill="#059BDC"/>
</g>
<defs>
<clipPath id="clip0_8504_11628">
<rect width="9.77778" height="16" fill="white" transform="translate(0.753418 0.000244141)"/>
</clipPath>
</defs>
</svg>
