<svg width="17" height="16" viewBox="0 0 17 16" fill="none" xmlns="http://www.w3.org/2000/svg">
<g clip-path="url(#clip0_8504_11653)">
<path d="M8.34379 15.7818C12.6414 15.7818 16.1253 12.2979 16.1253 8.00029C16.1253 3.70266 12.6414 0.21875 8.34379 0.21875C4.04617 0.21875 0.562256 3.70266 0.562256 8.00029C0.562256 12.2979 4.04617 15.7818 8.34379 15.7818Z" fill="white"/>
<path d="M8.34375 2.67111e-05C9.926 2.67111e-05 11.4727 0.469219 12.7883 1.34827C14.1039 2.22732 15.1293 3.47675 15.7348 4.93856C16.3403 6.40037 16.4987 8.00891 16.19 9.56076C15.8814 11.1126 15.1194 12.5381 14.0006 13.6569C12.8818 14.7757 11.4563 15.5376 9.90447 15.8463C8.35262 16.155 6.74409 15.9966 5.28228 15.3911C3.82047 14.7856 2.57104 13.7602 1.69199 12.4446C0.812942 11.129 0.34375 9.58229 0.34375 8.00003L0.34375 7.91491C0.386827 3.55285 3.95196 -0.0112553 8.34375 2.67111e-05ZM8.51401 0.58054C4.2658 0.581566 0.946827 3.89747 0.929391 7.95388C0.91093 12.0503 4.24119 15.4206 8.34375 15.4062C10.3755 15.399 12.1304 14.68 13.5663 13.2472C15.2002 11.6175 15.9161 9.6185 15.7294 7.32926C15.5987 5.59961 14.8395 3.97759 13.595 2.76926C12.1479 1.33336 10.3879 0.607207 8.51196 0.58054H8.51401Z" fill="#333333"/>
<path d="M15.5313 7.21461C15.3782 5.58288 14.6514 4.05832 13.48 2.91205C12.0636 1.49051 10.3374 0.768458 8.32514 0.765381C6.4368 0.803623 4.63833 1.579 3.31414 2.92578C1.98995 4.27256 1.24511 6.08389 1.23881 7.97261C1.23251 9.86133 1.96527 11.6776 3.28045 13.0332C4.59563 14.3887 6.38889 15.1761 8.27694 15.2269C10.281 15.2413 12.0195 14.5397 13.4349 13.1223C15.0605 11.4956 15.7621 9.50897 15.5313 7.21461ZM11.4667 2.37256C11.5103 2.37338 11.5527 2.38711 11.5885 2.41201C11.6243 2.43691 11.6519 2.47187 11.6678 2.51247C11.6837 2.55306 11.6873 2.59747 11.678 2.64008C11.6687 2.68269 11.6469 2.72158 11.6155 2.75183C11.5841 2.78209 11.5445 2.80236 11.5015 2.81007C11.4586 2.81778 11.4144 2.8126 11.3744 2.79516C11.3344 2.77773 11.3005 2.74884 11.277 2.71214C11.2534 2.67544 11.2413 2.63257 11.2421 2.58897C11.2434 2.53057 11.2678 2.47507 11.3098 2.43454C11.3519 2.39401 11.4083 2.37173 11.4667 2.37256ZM10.4769 1.91205C10.5369 1.91232 10.5943 1.93632 10.6366 1.9788C10.6788 2.02128 10.7026 2.07878 10.7026 2.13871C10.7018 2.16754 10.6953 2.19593 10.6835 2.22225C10.6718 2.24858 10.6549 2.27233 10.634 2.29214C10.613 2.31195 10.5884 2.32744 10.5614 2.33772C10.5345 2.348 10.5058 2.35287 10.4769 2.35205C10.4489 2.35245 10.4211 2.34734 10.3951 2.33699C10.369 2.32665 10.3453 2.31127 10.3252 2.29175C10.3051 2.27222 10.289 2.24893 10.2779 2.2232C10.2668 2.19747 10.2609 2.16981 10.2605 2.14179V2.13153C10.261 2.07401 10.2839 2.01895 10.3243 1.97799C10.3647 1.93702 10.4194 1.91338 10.4769 1.91205ZM9.43488 1.62897C9.49145 1.63433 9.5445 1.65878 9.58532 1.6983C9.62614 1.73782 9.6523 1.79005 9.6595 1.84641C9.65555 1.90753 9.62819 1.96477 9.5831 2.00622C9.53802 2.04768 9.47868 2.07015 9.41745 2.06897C9.35995 2.06684 9.30553 2.04242 9.26572 2.00088C9.2259 1.95934 9.20381 1.90394 9.20412 1.84641C9.20678 1.78728 9.23235 1.73151 9.27543 1.69092C9.31851 1.65033 9.3757 1.62811 9.43488 1.62897ZM8.3436 1.53871C8.38697 1.53851 8.42942 1.55116 8.4656 1.57507C8.50179 1.59897 8.53008 1.63306 8.54691 1.67303C8.56373 1.713 8.56835 1.75705 8.56016 1.79964C8.55197 1.84223 8.53135 1.88143 8.5009 1.91231C8.47045 1.94319 8.43154 1.96436 8.38907 1.97314C8.3466 1.98192 8.30248 1.97793 8.26228 1.96166C8.22209 1.94539 8.18761 1.91758 8.1632 1.88173C8.13879 1.84589 8.12555 1.80362 8.12514 1.76025C8.12514 1.70203 8.14805 1.64614 8.18894 1.60468C8.22982 1.56322 8.28538 1.53952 8.3436 1.53871ZM7.26565 1.63C7.32209 1.63296 7.37543 1.65671 7.41539 1.69667C7.45535 1.73663 7.4791 1.78997 7.48206 1.84641C7.48206 1.87532 7.47635 1.90394 7.46526 1.93064C7.45416 1.95733 7.43791 1.98158 7.41742 2.00197C7.39693 2.02237 7.37261 2.03851 7.34586 2.04948C7.31911 2.06045 7.29046 2.06603 7.26155 2.06589H7.25335C7.22479 2.06563 7.19657 2.05974 7.17029 2.04856C7.14401 2.03738 7.12019 2.02114 7.10019 2.00076C7.08019 1.98038 7.0644 1.95626 7.05373 1.92977C7.04305 1.90329 7.03769 1.87496 7.03796 1.84641C7.04056 1.78852 7.06514 1.7338 7.10668 1.6934C7.14823 1.653 7.20361 1.62996 7.26155 1.62897L7.26565 1.63ZM6.2113 1.91205C6.26942 1.91286 6.32488 1.93659 6.3656 1.97808C6.40632 2.01956 6.42901 2.07545 6.42873 2.13359C6.43012 2.18965 6.40937 2.24401 6.37098 2.2849C6.33259 2.32578 6.27965 2.34991 6.2236 2.35205H6.21335C6.18422 2.35314 6.15516 2.34845 6.12785 2.33825C6.10055 2.32804 6.07554 2.31252 6.05427 2.29259C6.033 2.27265 6.01589 2.2487 6.00394 2.22211C5.99198 2.19552 5.98542 2.16683 5.98463 2.13769C5.98413 2.13463 5.98413 2.13151 5.98463 2.12846C5.98752 2.07022 6.01264 2.01532 6.05481 1.97505C6.09698 1.93479 6.15299 1.91224 6.2113 1.91205ZM5.22053 2.37256C5.24942 2.37054 5.27842 2.37423 5.30589 2.38342C5.33335 2.39261 5.35874 2.40712 5.3806 2.42612C5.40245 2.44512 5.42035 2.46824 5.43328 2.49416C5.4462 2.52007 5.45389 2.54828 5.45591 2.57718C5.45793 2.60607 5.45424 2.63507 5.44505 2.66254C5.43586 2.69 5.42135 2.71539 5.40235 2.73725C5.38335 2.7591 5.36023 2.777 5.33431 2.78993C5.3084 2.80285 5.28019 2.81054 5.2513 2.81256H5.22053C5.16477 2.80875 5.11255 2.78392 5.0744 2.74308C5.03626 2.70224 5.01504 2.64844 5.01504 2.59256C5.01504 2.53668 5.03626 2.48288 5.0744 2.44204C5.11255 2.4012 5.16477 2.37637 5.22053 2.37256ZM4.3354 2.99512C4.39355 2.99645 4.44892 3.02028 4.48985 3.06159C4.53079 3.10291 4.5541 3.1585 4.55489 3.21666C4.55462 3.27479 4.5314 3.33046 4.4903 3.37157C4.4492 3.41267 4.39353 3.43588 4.3354 3.43615C4.30743 3.43725 4.27952 3.4328 4.25327 3.42307C4.22703 3.41334 4.20297 3.39852 4.18247 3.37945C4.16198 3.36039 4.14546 3.33746 4.13386 3.31199C4.12226 3.28651 4.11581 3.259 4.11489 3.23102C4.11432 3.22728 4.11432 3.22348 4.11489 3.21974C4.11294 3.16186 4.13395 3.10556 4.17333 3.0631C4.21272 3.02065 4.26728 2.99548 4.32514 2.99307L4.3354 2.99512ZM3.57027 3.76333C3.62849 3.76547 3.68352 3.79046 3.72345 3.83288C3.76338 3.87531 3.78499 3.93175 3.7836 3.99C3.78252 4.04803 3.7585 4.10327 3.71679 4.14364C3.67508 4.18401 3.61908 4.2062 3.56104 4.20538C3.50295 4.20357 3.44776 4.17962 3.40676 4.13843C3.36577 4.09724 3.34207 4.04194 3.34053 3.98384C3.3429 3.9247 3.36801 3.86876 3.41062 3.82768C3.45323 3.7866 3.51006 3.76355 3.56924 3.76333H3.57027ZM2.94155 4.65769C2.99744 4.65657 3.05154 4.67744 3.0922 4.7158C3.13287 4.75416 3.15685 4.80695 3.15899 4.86282C3.16 4.86581 3.16 4.86905 3.15899 4.87205C3.15981 4.93036 3.1375 4.98662 3.09695 5.02852C3.05639 5.07043 3.00088 5.09456 2.94258 5.09564C2.88289 5.09458 2.82596 5.07032 2.78384 5.02801C2.74172 4.98571 2.71773 4.92866 2.71694 4.86897C2.71906 4.8111 2.74355 4.75632 2.78526 4.71615C2.82696 4.67597 2.88262 4.65355 2.94053 4.65359L2.94155 4.65769ZM2.48206 5.64128C2.54101 5.64209 2.59725 5.66614 2.63854 5.70821C2.67984 5.75027 2.70285 5.80695 2.70258 5.86589V5.87102C2.69743 5.92747 2.67094 5.97983 2.62851 6.01741C2.58608 6.055 2.53091 6.07498 2.47425 6.07328C2.4176 6.07158 2.36372 6.04832 2.32363 6.00826C2.28353 5.9682 2.26023 5.91434 2.25847 5.85769C2.26084 5.79981 2.28538 5.74506 2.327 5.70478C2.36862 5.66449 2.42414 5.64176 2.48206 5.64128ZM2.19489 6.69051C2.25457 6.69077 2.31176 6.71446 2.35415 6.75647C2.39654 6.79847 2.42075 6.85545 2.42155 6.91512C2.41994 6.97316 2.39561 7.02825 2.3538 7.06853C2.31198 7.10881 2.25602 7.13107 2.19796 7.13051C2.17008 7.13064 2.14245 7.12529 2.11664 7.11474C2.09083 7.1042 2.06735 7.08867 2.04754 7.06905C2.02773 7.04943 2.01198 7.0261 2.00118 7.0004C1.99039 6.97469 1.98476 6.94711 1.98463 6.91923C1.98405 6.86195 2.00577 6.8067 2.0452 6.76516C2.08464 6.72362 2.13869 6.69906 2.19591 6.69666L2.19489 6.69051ZM1.88206 8.00025C1.88357 7.94213 1.90705 7.88673 1.94778 7.84524C1.98851 7.80375 2.04346 7.77924 2.10155 7.77666C2.13038 7.77639 2.15897 7.7818 2.1857 7.79258C2.21244 7.80336 2.23678 7.8193 2.25736 7.8395C2.27793 7.85969 2.29432 7.88373 2.3056 7.91026C2.31688 7.93679 2.32282 7.96527 2.32309 7.9941C2.32588 8.05134 2.30585 8.10735 2.2674 8.14985C2.22894 8.19234 2.1752 8.21785 2.11796 8.22077H2.0954C2.03875 8.21721 1.98548 8.19263 1.94601 8.15184C1.90655 8.11104 1.88374 8.05698 1.88206 8.00025ZM1.98463 9.0823C1.98462 9.02425 2.0074 8.96852 2.04806 8.92708C2.08872 8.88565 2.14402 8.86184 2.20206 8.86077C2.26166 8.86183 2.31848 8.88612 2.36043 8.92846C2.40239 8.97079 2.42615 9.02783 2.42668 9.08743C2.42588 9.11626 2.41941 9.14465 2.40764 9.17097C2.39587 9.1973 2.37902 9.22104 2.35807 9.24086C2.33711 9.26067 2.31246 9.27616 2.28551 9.28644C2.25857 9.29672 2.22987 9.30158 2.20104 9.30077C2.14517 9.30215 2.09103 9.28133 2.05047 9.24289C2.00992 9.20444 1.98624 9.1515 1.98463 9.09564V9.08333V9.0823ZM2.48719 10.352C2.42895 10.3532 2.37262 10.3313 2.33039 10.2912C2.28816 10.251 2.26343 10.1959 2.26155 10.1377C2.26207 10.078 2.28581 10.0208 2.32773 9.97834C2.36966 9.93584 2.42648 9.91133 2.48617 9.91C2.54344 9.91257 2.59761 9.93675 2.63776 9.97767C2.67792 10.0186 2.70108 10.0732 2.70258 10.1305C2.70231 10.1886 2.6791 10.2443 2.63799 10.2854C2.59689 10.3265 2.54122 10.3497 2.48309 10.35L2.48719 10.352ZM2.94565 11.3397C2.88764 11.339 2.83211 11.316 2.79052 11.2756C2.74892 11.2351 2.72442 11.1803 2.72206 11.1223C2.72206 11.0636 2.74523 11.0073 2.78653 10.9656C2.82782 10.924 2.88391 10.9003 2.94258 10.8997H2.94771C3.0036 10.8986 3.05769 10.9195 3.09836 10.9579C3.13902 10.9962 3.163 11.049 3.16514 11.1049C3.16565 11.1086 3.16565 11.1124 3.16514 11.1161C3.16528 11.1448 3.15975 11.1732 3.14889 11.1997C3.13802 11.2262 3.12202 11.2503 3.10182 11.2706C3.08162 11.2909 3.0576 11.307 3.03115 11.318C3.0047 11.329 2.97635 11.3346 2.94771 11.3346H2.94155L2.94565 11.3397ZM2.94565 9.61666L2.95694 9.57666H5.2954C5.90258 9.57666 5.90258 9.57666 5.90258 8.96128C5.90258 8.44846 5.90258 7.93564 5.90258 7.42282C5.90258 7.25564 5.92514 7.17769 6.12514 7.18589C6.56514 7.20435 7.00719 7.1982 7.44719 7.18589C7.60104 7.18589 7.65232 7.23307 7.65232 7.38384C7.64822 8.24401 7.64822 9.10521 7.65232 9.96743C7.65232 10.1315 7.60104 10.2146 7.42771 10.1982C7.37724 10.1931 7.32638 10.1931 7.27591 10.1982C7.07796 10.2197 7.01027 10.1428 7.01027 9.94897C7.0195 9.32641 7.01027 8.70487 7.01027 8.0823C7.01027 7.91102 6.95694 7.83205 6.77335 7.83205C6.58976 7.83205 6.52924 7.88948 6.53232 8.07205C6.54053 8.69461 6.53232 9.31718 6.5395 9.93871C6.5395 10.1438 6.47694 10.2013 6.27899 10.1982C5.64924 10.1879 5.01745 10.2269 4.39181 10.1808C4.09642 10.1592 3.81027 9.99307 3.52412 9.88025C3.33027 9.80435 3.13745 9.70487 2.94155 9.61461L2.94565 9.61666ZM3.59283 12.2341C3.56333 12.2375 3.53344 12.2351 3.50487 12.2269C3.47631 12.2188 3.44964 12.2051 3.42638 12.1866C3.40313 12.1681 3.38376 12.1452 3.36938 12.1192C3.355 12.0932 3.34589 12.0646 3.34258 12.0351C3.34159 12.0235 3.34159 12.0119 3.34258 12.0003C3.34614 11.9406 3.37192 11.8845 3.41482 11.8429C3.45773 11.8013 3.51465 11.7773 3.57437 11.7756C3.63423 11.7835 3.68941 11.8122 3.73028 11.8566C3.77116 11.901 3.79511 11.9584 3.79796 12.0187C3.78964 12.0711 3.76555 12.1196 3.72889 12.1579C3.69224 12.1962 3.64478 12.2225 3.59283 12.2331V12.2341ZM4.3313 12.9961C4.27499 12.9961 4.22099 12.9738 4.18117 12.934C4.14136 12.8942 4.11899 12.8401 4.11899 12.7838V12.7736C4.11939 12.7445 4.12552 12.7158 4.13702 12.689C4.14853 12.6623 4.16519 12.6381 4.18604 12.6178C4.2069 12.5975 4.23155 12.5816 4.25859 12.5708C4.28562 12.56 4.31451 12.5547 4.3436 12.5551C4.40176 12.557 4.45699 12.5811 4.49785 12.6225C4.53871 12.664 4.56207 12.7195 4.56309 12.7777C4.56296 12.8064 4.55717 12.8348 4.54607 12.8612C4.53497 12.8877 4.51876 12.9117 4.49838 12.9319C4.478 12.9521 4.45384 12.968 4.42728 12.9789C4.40073 12.9897 4.37229 12.9953 4.3436 12.9951H4.3354L4.3313 12.9961ZM5.23181 13.6208C5.20379 13.6219 5.17583 13.6174 5.14952 13.6077C5.12322 13.598 5.09909 13.5832 5.07851 13.5641C5.05793 13.5451 5.04132 13.5222 5.02961 13.4967C5.0179 13.4712 5.01133 13.4437 5.01027 13.4156C5.00977 13.4129 5.00977 13.4101 5.01027 13.4074C5.00861 13.3487 5.0302 13.2918 5.07035 13.2489C5.1105 13.2061 5.16595 13.1809 5.22463 13.1787H5.23078C5.28893 13.18 5.3443 13.2039 5.38524 13.2452C5.42618 13.2865 5.44949 13.3421 5.45027 13.4003C5.45068 13.429 5.44539 13.4575 5.43471 13.4842C5.42403 13.5108 5.40817 13.5351 5.38804 13.5556C5.36792 13.5761 5.34393 13.5924 5.31747 13.6036C5.29101 13.6148 5.26259 13.6206 5.23386 13.6208H5.23181ZM6.21847 14.0792C6.16047 14.0826 6.10348 14.063 6.05988 14.0245C6.01628 13.9861 5.98961 13.9321 5.98565 13.8741C5.98565 13.8741 5.98565 13.8659 5.98565 13.8618C5.9882 13.8038 6.01253 13.7488 6.05378 13.708C6.09503 13.6671 6.15018 13.6433 6.20822 13.6413C6.26644 13.6415 6.32222 13.6647 6.36349 13.7058C6.40476 13.7469 6.42819 13.8025 6.42873 13.8608C6.43012 13.9167 6.40934 13.971 6.37092 14.0117C6.3325 14.0524 6.27956 14.0763 6.2236 14.0782L6.21847 14.0792ZM5.3836 10.7469C5.18873 10.669 5.00206 10.5705 4.8113 10.4813L4.83489 10.4187H7.83078C8.29437 10.4187 8.23488 10.4597 8.24104 10.0085C8.24104 8.67512 8.24104 7.33051 8.24104 5.99205C8.24104 5.77153 8.30155 5.70487 8.52206 5.71307C8.94873 5.72948 9.3754 5.72333 9.80309 5.71307C9.95694 5.71307 10.0257 5.75307 10.0257 5.9182C10.0257 7.57564 10.0257 9.23273 10.0257 10.8895C10.0257 11.0679 9.94976 11.1233 9.78565 11.0946C9.73001 11.0798 9.67292 11.0712 9.6154 11.069C9.3436 11.0782 9.34258 11.0803 9.34258 10.7951V6.69256C9.34258 6.57974 9.38565 6.4341 9.19796 6.40436C8.97847 6.36948 8.91283 6.42076 8.91283 6.65051V10.8187C8.91283 11.1018 8.91283 11.1028 8.62155 11.1028C7.89745 11.1028 7.17437 11.0926 6.45027 11.1028C6.04001 11.1192 5.73232 10.8844 5.38565 10.7469H5.3836ZM7.26565 14.3592C7.20761 14.3612 7.15115 14.34 7.10867 14.3004C7.06618 14.2608 7.04113 14.206 7.03899 14.1479C7.03849 14.1452 7.03849 14.1425 7.03899 14.1397C7.03839 14.0958 7.05082 14.0526 7.07473 14.0157C7.09864 13.9788 7.13294 13.9498 7.17331 13.9324C7.21368 13.9149 7.25831 13.9099 7.30157 13.9178C7.34482 13.9257 7.38477 13.9462 7.41636 13.9768C7.44795 14.0074 7.46976 14.0467 7.47906 14.0896C7.48836 14.1326 7.48472 14.1774 7.4686 14.2183C7.45247 14.2592 7.4246 14.2944 7.38848 14.3195C7.35236 14.3446 7.30962 14.3584 7.26565 14.3592ZM8.3436 14.4618C8.28394 14.4607 8.22713 14.436 8.18561 14.3932C8.14409 14.3503 8.12124 14.2927 8.12206 14.2331C8.12327 14.1893 8.13738 14.1468 8.1626 14.111C8.18783 14.0752 8.22306 14.0477 8.26387 14.0318C8.30469 14.0159 8.34929 14.0124 8.39208 14.0218C8.43486 14.0312 8.47394 14.0529 8.50441 14.0844C8.53488 14.1158 8.55539 14.1556 8.56338 14.1987C8.57136 14.2417 8.56646 14.2862 8.5493 14.3265C8.53213 14.3668 8.50345 14.4011 8.46687 14.4252C8.43028 14.4492 8.3874 14.462 8.3436 14.4618ZM9.41027 14.3592C9.35378 14.3553 9.30096 14.3298 9.26278 14.2879C9.22459 14.2461 9.20395 14.1912 9.20514 14.1346C9.20622 14.1054 9.21304 14.0767 9.22522 14.0501C9.2374 14.0235 9.2547 13.9995 9.27613 13.9796C9.29756 13.9597 9.3227 13.9442 9.35011 13.9341C9.37753 13.9239 9.40668 13.9192 9.43591 13.9203C9.46514 13.9213 9.49387 13.9282 9.52046 13.9403C9.54705 13.9525 9.57098 13.9698 9.59088 13.9912C9.61079 14.0127 9.62628 14.0378 9.63647 14.0652C9.64666 14.0926 9.65135 14.1218 9.65027 14.151C9.64657 14.2083 9.62054 14.2619 9.57778 14.3003C9.53502 14.3386 9.47893 14.3587 9.42155 14.3561L9.41027 14.3592ZM10.4759 14.0782C10.4201 14.0791 10.3661 14.0581 10.3255 14.0198C10.2849 13.9815 10.2609 13.9288 10.2585 13.8731V13.8628C10.2587 13.8048 10.2816 13.7493 10.3222 13.7079C10.3628 13.6665 10.418 13.6426 10.4759 13.6413C10.5355 13.6423 10.5923 13.6666 10.6343 13.709C10.6762 13.7513 10.7 13.8083 10.7005 13.8679C10.6979 13.9253 10.6729 13.9794 10.6309 14.0187C10.589 14.058 10.5334 14.0793 10.4759 14.0782ZM11.4657 13.6187C11.4371 13.6194 11.4087 13.6144 11.382 13.6041C11.3554 13.5938 11.3311 13.5784 11.3104 13.5587C11.2897 13.539 11.2731 13.5154 11.2616 13.4892C11.25 13.4631 11.2438 13.435 11.2431 13.4064C11.2428 13.3467 11.2662 13.2894 11.3081 13.2469C11.35 13.2044 11.407 13.1803 11.4667 13.1797C11.525 13.1808 11.5805 13.2049 11.621 13.2469C11.6616 13.2888 11.6839 13.345 11.6831 13.4033C11.6845 13.4595 11.6638 13.514 11.6254 13.555C11.587 13.5961 11.5341 13.6204 11.478 13.6228H11.4687L11.4657 13.6187ZM11.6513 11.5028C11.6841 11.1767 11.6369 6.59307 11.638 5.20333C11.638 5.06897 11.6523 4.94384 11.4462 4.94692C11.28 4.94692 11.241 5.00743 11.241 5.16435C11.2472 5.8823 11.2298 11.2854 11.2298 11.2854V11.9644C11.1528 11.9726 11.0903 11.9838 11.0246 11.9849C10.0851 11.9849 9.14463 12.0033 8.20617 11.9746C7.97027 11.9674 7.7354 11.8177 7.50565 11.7213C7.23892 11.6147 6.98333 11.4821 6.74258 11.3254C6.80412 11.3254 6.86565 11.3141 6.92719 11.3141L10.0739 11.3274C10.5559 11.3274 10.5487 11.3274 10.5487 10.8638V4.52436C10.5487 4.34692 10.5887 4.26487 10.7898 4.27102C11.2451 4.28538 11.7016 4.28025 12.1569 4.27102C12.3098 4.27102 12.3621 4.32333 12.3621 4.47615V11.6926C12.3621 11.9849 12.3621 11.9849 12.0605 11.9859C11.5949 11.9859 11.6021 11.9777 11.6503 11.5049L11.6513 11.5028ZM12.3539 12.9941C12.2959 12.9944 12.2402 12.9718 12.1987 12.9313C12.1572 12.8908 12.1334 12.8356 12.1323 12.7777C12.1334 12.7181 12.1577 12.6613 12.2 12.6193C12.2423 12.5774 12.2994 12.5536 12.359 12.5531C12.3878 12.5537 12.4162 12.5601 12.4426 12.5717C12.469 12.5834 12.4928 12.6001 12.5127 12.621C12.5326 12.6418 12.5482 12.6664 12.5586 12.6933C12.569 12.7202 12.574 12.7489 12.5733 12.7777C12.575 12.8056 12.571 12.8336 12.5614 12.86C12.5519 12.8863 12.537 12.9104 12.5178 12.9308C12.4986 12.9511 12.4754 12.9674 12.4497 12.9784C12.4239 12.9895 12.3962 12.9952 12.3682 12.9951H12.3528L12.3539 12.9941ZM12.361 3.43512C12.3036 3.4357 12.2482 3.41383 12.2066 3.37418C12.1651 3.33453 12.1406 3.28022 12.1385 3.22282C12.138 3.22045 12.138 3.218 12.1385 3.21564C12.1398 3.15764 12.1632 3.10234 12.2041 3.06112C12.2449 3.01991 12.3 2.99592 12.358 2.9941C12.3867 2.99383 12.4153 2.99925 12.442 3.01004C12.4686 3.02083 12.4929 3.03679 12.5134 3.05699C12.5339 3.0772 12.5502 3.10125 12.5614 3.12777C12.5725 3.15429 12.5783 3.18276 12.5785 3.21153C12.5818 3.2677 12.5628 3.3229 12.5255 3.36502C12.4882 3.40713 12.4357 3.43272 12.3795 3.43615H12.3672L12.361 3.43512ZM13.12 12.2269C13.0643 12.2231 13.012 12.1983 12.9739 12.1574C12.9357 12.1166 12.9145 12.0628 12.9145 12.0069C12.9145 11.951 12.9357 11.8972 12.9739 11.8564C13.012 11.8156 13.0643 11.7907 13.12 11.7869C13.1502 11.7849 13.1804 11.789 13.2089 11.7991C13.2374 11.8093 13.2635 11.8251 13.2856 11.8458C13.3076 11.8664 13.3253 11.8913 13.3373 11.9191C13.3493 11.9468 13.3556 11.9767 13.3556 12.0069C13.3556 12.0371 13.3493 12.067 13.3373 12.0948C13.3253 12.1225 13.3076 12.1474 13.2856 12.1681C13.2635 12.1887 13.2374 12.2046 13.2089 12.2147C13.1804 12.2248 13.1502 12.229 13.12 12.2269ZM13.12 4.20846C13.076 4.20846 13.033 4.1954 12.9964 4.17095C12.9598 4.14649 12.9312 4.11173 12.9144 4.07107C12.8975 4.0304 12.8931 3.98565 12.9017 3.94247C12.9103 3.8993 12.9315 3.85964 12.9626 3.82852C12.9938 3.79739 13.0334 3.77619 13.0766 3.76761C13.1198 3.75902 13.1645 3.76343 13.2052 3.78027C13.2459 3.79712 13.2806 3.82564 13.3051 3.86224C13.3295 3.89884 13.3426 3.94187 13.3426 3.98589C13.3418 4.04439 13.318 4.10021 13.2763 4.14128C13.2347 4.18236 13.1785 4.20539 13.12 4.20538V4.20846ZM14.7026 6.91615C14.704 6.97202 14.6831 7.02615 14.6447 7.06671C14.6063 7.10727 14.5533 7.13095 14.4974 7.13256H14.4851C14.4269 7.13284 14.3709 7.11018 14.3293 7.06949C14.2876 7.0288 14.2637 6.97334 14.2626 6.91512C14.2632 6.88495 14.2698 6.85521 14.282 6.82759C14.2942 6.79997 14.3117 6.77501 14.3335 6.75416C14.3553 6.7333 14.381 6.71694 14.4091 6.70602C14.4373 6.6951 14.4673 6.68983 14.4974 6.69051C14.5541 6.69445 14.6071 6.72012 14.6453 6.76216C14.6835 6.80419 14.704 6.85936 14.7026 6.91615ZM13.7446 4.65974C13.8028 4.66 13.8585 4.683 13.8999 4.72383C13.9413 4.76466 13.9651 4.82006 13.9662 4.8782C13.9648 4.93779 13.9403 4.9945 13.8978 5.03627C13.8552 5.07803 13.7981 5.10154 13.7385 5.10179C13.6804 5.09965 13.6256 5.0748 13.5857 5.0326C13.5458 4.9904 13.524 4.93422 13.5251 4.87615C13.524 4.82016 13.5449 4.76595 13.5832 4.72512C13.6215 4.68429 13.6743 4.66009 13.7303 4.65769H13.7457L13.7446 4.65974ZM13.7446 11.3397C13.6867 11.3397 13.6311 11.3167 13.5902 11.2758C13.5492 11.2348 13.5262 11.1792 13.5262 11.1213C13.5242 11.0649 13.5447 11.01 13.5832 10.9686C13.6216 10.9273 13.6749 10.9029 13.7313 10.9008H13.7426C13.7717 10.8999 13.8007 10.9049 13.8279 10.9154C13.8551 10.9258 13.88 10.9416 13.901 10.9617C13.9221 10.9818 13.939 11.0059 13.9507 11.0326C13.9624 11.0593 13.9687 11.088 13.9692 11.1172V11.1223C13.9671 11.1799 13.943 11.2345 13.9017 11.2748C13.8605 11.3151 13.8053 11.338 13.7477 11.3387L13.7446 11.3397ZM14.2041 5.64128C14.2477 5.64128 14.2902 5.65424 14.3264 5.67849C14.3625 5.70275 14.3907 5.73721 14.4072 5.7775C14.4237 5.81778 14.4279 5.86207 14.4191 5.90473C14.4104 5.94739 14.3892 5.98649 14.3582 6.01706C14.3272 6.04763 14.2878 6.06829 14.245 6.0764C14.2022 6.08452 14.158 6.07973 14.118 6.06265C14.0779 6.04556 14.0439 6.01695 14.0201 5.98046C13.9964 5.94396 13.984 5.90122 13.9846 5.85769C13.9867 5.80043 14.0106 5.74612 14.0514 5.70589C14.0922 5.66566 14.1468 5.64255 14.2041 5.64128ZM14.2113 10.35C14.1532 10.3514 14.0969 10.3299 14.0545 10.2902C14.0121 10.2505 13.987 10.1957 13.9846 10.1377C13.9796 10.0788 13.9982 10.0203 14.0362 9.97512C14.0743 9.92992 14.1288 9.90169 14.1877 9.89666C14.2466 9.89163 14.3051 9.9102 14.3503 9.94828C14.3955 9.98637 14.4237 10.0408 14.4287 10.0997C14.4298 10.1093 14.4298 10.1189 14.4287 10.1285C14.4287 10.1865 14.406 10.2422 14.3653 10.2837C14.3246 10.3251 14.2693 10.3489 14.2113 10.35ZM14.4831 9.29871C14.4252 9.29739 14.3701 9.27367 14.3294 9.23254C14.2886 9.19142 14.2654 9.13609 14.2646 9.0782C14.267 9.01844 14.2927 8.962 14.3363 8.92097C14.3798 8.87994 14.4376 8.85759 14.4974 8.85871C14.5545 8.86267 14.6078 8.88862 14.646 8.9311C14.6843 8.97358 14.7046 9.02926 14.7026 9.08641C14.7027 9.11424 14.6973 9.14182 14.6868 9.16758C14.6762 9.19333 14.6607 9.21674 14.6411 9.23647C14.6214 9.2562 14.5981 9.27185 14.5724 9.28253C14.5467 9.29322 14.5191 9.29871 14.4913 9.29871H14.4831ZM14.5857 8.21564C14.5577 8.21673 14.5298 8.21229 14.5035 8.20256C14.4773 8.19283 14.4532 8.17801 14.4327 8.15894C14.4122 8.13988 14.3957 8.11695 14.3841 8.09147C14.3725 8.066 14.3661 8.03848 14.3651 8.01051C14.3646 8.00642 14.3646 8.00229 14.3651 7.9982C14.3624 7.9714 14.3651 7.94433 14.3728 7.91853C14.3806 7.89274 14.3934 7.86873 14.4104 7.84787C14.4275 7.82701 14.4485 7.80972 14.4722 7.79697C14.4959 7.78423 14.5219 7.77628 14.5487 7.77359H14.5631C14.5939 7.77135 14.6248 7.7752 14.6541 7.78492C14.6834 7.79464 14.7105 7.81004 14.7338 7.83023C14.7571 7.85042 14.7763 7.87502 14.7901 7.90261C14.8039 7.9302 14.8122 7.96024 14.8144 7.99102V8.00025C14.8146 8.02853 14.8093 8.05657 14.7986 8.08276C14.788 8.10895 14.7722 8.13275 14.7523 8.15279C14.7323 8.17284 14.7086 8.18871 14.6824 8.1995C14.6563 8.21029 14.6283 8.21577 14.6 8.21564H14.5867H14.5857Z" fill="#004B6A"/>
</g>
<defs>
<clipPath id="clip0_8504_11653">
<rect width="16" height="16" fill="white" transform="translate(0.34375 0.000244141)"/>
</clipPath>
</defs>
</svg>
