<svg width="17" height="16" viewBox="0 0 17 16" fill="none" xmlns="http://www.w3.org/2000/svg">
<g clip-path="url(#clip0_8504_11668)">
<path d="M3.71144 2.32482C5.03682 1.21973 6.76318 0.598063 8.49034 0.634846C10.5983 0.629187 12.671 1.61706 14.0287 3.22377C16.6678 6.32482 16.2923 10.9784 13.1916 13.6175C12.1776 14.4801 10.9488 15.0521 9.63591 15.2727C8.32297 15.4933 6.9748 15.3543 5.73448 14.8705C5.10554 14.6229 4.51267 14.292 3.97175 13.8867C4.10028 12.919 4.57805 12.0059 5.27571 11.326C6.0427 10.5754 7.05388 10.1254 8.12494 10.058C8.40788 10.0318 8.69082 10.0548 8.97579 10.0415C10.0711 10.0141 11.1546 10.2729 12.1193 10.7925C12.249 10.8608 12.4204 10.9336 12.4285 11.1045C12.4503 11.3236 12.2187 11.4178 12.0841 11.5427C12.4358 11.5298 12.7636 11.3685 13.0611 11.1922C13.344 11.0306 13.4281 10.5985 13.1993 10.3559C12.8105 9.92264 12.3909 9.51924 11.996 9.09079C11.8873 8.96953 11.7365 8.86363 11.7058 8.69103C11.3586 7.38901 10.5274 6.26866 9.38201 5.55886C8.68395 5.11059 7.8707 4.85312 7.04652 4.77632C5.27773 4.56007 3.48185 4.62474 1.72559 4.91658C2.16698 3.91213 2.8715 3.03177 3.71144 2.32482Z" fill="white"/>
<path d="M9.16577 6.81909C9.28483 6.90493 9.39433 7.00331 9.49237 7.11254C9.84968 7.46904 10.2086 7.82393 10.5631 8.18367C10.639 8.25355 10.7068 8.33179 10.7652 8.41689C10.4863 8.42659 10.2074 8.42336 9.92891 8.41689C9.76076 8.05311 9.56957 7.69903 9.39495 7.33768C9.31452 7.1667 9.21266 7.00381 9.16577 6.81909Z" fill="white"/>
<path d="M8.02212 0.00985111C9.21788 -0.0488113 10.4116 0.161747 11.5151 0.625991C12.6186 1.09023 13.6038 1.79632 14.398 2.69215C17.3309 5.99328 17.0322 11.047 13.7307 13.9799C13.247 14.4097 12.7129 14.7792 12.1401 15.0802C10.1414 16.1485 7.68339 16.2928 5.56941 15.4795C4.25083 14.9768 3.08843 14.1347 2.19986 13.0385C1.31128 11.9422 0.728045 10.6307 0.509183 9.23661C0.202392 7.30694 0.632869 5.26935 1.70926 3.63798C2.69759 2.12235 4.16916 0.985242 5.88509 0.411225C6.57627 0.182436 7.29503 0.0474396 8.02212 0.00985111ZM3.71169 2.32473C2.87175 3.03168 2.16723 3.91203 1.72584 4.91891C3.4821 4.62707 5.27798 4.5624 7.04677 4.77865C7.87094 4.85545 8.6842 5.11292 9.38226 5.56119C10.5277 6.27099 11.3589 7.39134 11.706 8.69336C11.7367 8.86596 11.8875 8.96984 11.9962 9.09312C12.3903 9.52157 12.8107 9.92497 13.1996 10.3583C13.4283 10.6008 13.3459 11.0325 13.0613 11.1946C12.7638 11.3708 12.436 11.5321 12.0844 11.545C12.219 11.4201 12.4506 11.3259 12.4287 11.1069C12.4207 10.9359 12.2493 10.8643 12.1195 10.7948C11.155 10.2745 10.0712 10.0151 8.97563 10.0422C8.69269 10.0555 8.40975 10.0325 8.12681 10.0588C7.05575 10.1261 6.04457 10.5761 5.27757 11.3267C4.57992 12.0058 4.10215 12.9197 3.97361 13.8874C4.51454 14.2927 5.1074 14.6236 5.73635 14.8712C9.53101 16.3494 13.8059 14.471 15.2836 10.676C15.7666 9.43631 15.9051 8.08908 15.6845 6.77709C15.4639 5.4651 14.8924 4.23724 14.0306 3.22368C12.6729 1.61656 10.5997 0.629091 8.49301 0.636771C6.76585 0.599989 5.0395 1.22165 3.71411 2.32675L3.71169 2.32473ZM9.16682 6.82109C9.21371 7.00581 9.31557 7.1687 9.39681 7.33928C9.57143 7.70064 9.7606 8.05391 9.93077 8.4185C10.2093 8.42537 10.4882 8.42861 10.7671 8.4185C10.7087 8.3334 10.6409 8.25516 10.565 8.18528C10.2105 7.82554 9.85154 7.47064 9.49423 7.11414C9.39571 7.00416 9.28552 6.90522 9.16561 6.81907L9.16682 6.82109Z" fill="#333333"/>
</g>
<defs>
<clipPath id="clip0_8504_11668">
<rect width="16.0032" height="16" fill="white" transform="translate(0.412598 0.000244141)"/>
</clipPath>
</defs>
</svg>
