<svg width="15" height="16" viewBox="0 0 15 16" fill="none" xmlns="http://www.w3.org/2000/svg">
<g clip-path="url(#clip0_8504_11719)">
<path d="M7.34442 0.000244141L0.416016 4.00024V12.0002L7.34442 16.0002L14.2728 12.0002V4.00024L7.34442 0.000244141ZM7.48607 12.9579L2.16813 9.9248L2.18969 8.44982L7.48299 11.4798L10.0357 10.0079L8.32364 9.01949L7.68314 9.38901L6.48222 8.69924L7.12579 8.32665L6.28515 7.84012L5.77706 8.13573L4.57306 7.44597L5.08422 7.15036L2.37137 5.583L7.48299 2.63304L12.3052 5.38285L11.0119 6.13419L7.48299 4.1111L4.93026 5.583L6.35905 6.40825L7.08884 5.98331L8.29284 6.67307L7.55689 7.09801L8.39754 7.58454L8.99492 7.23658L10.1989 7.92634L9.59538 8.27738L12.5885 10.0049L7.48607 12.9579Z" fill="black"/>
</g>
<defs>
<clipPath id="clip0_8504_11719">
<rect width="13.8568" height="16" fill="white" transform="translate(0.416016 0.000244141)"/>
</clipPath>
</defs>
</svg>
