<svg width="17" height="16" viewBox="0 0 17 16" fill="none" xmlns="http://www.w3.org/2000/svg">
<g clip-path="url(#clip0_8504_11725)">
<path d="M12.2993 1.85619C12.8038 1.85619 13.2137 1.43964 13.2137 0.927886C13.2137 0.416129 12.8038 0.000244141 12.2993 0.000244141C11.7948 0.00288888 11.3849 0.418774 11.3849 0.93053C11.3849 1.44229 11.7948 1.85619 12.2993 1.85619ZM12.569 4.26819C12.776 4.26662 12.9738 4.18292 13.119 4.0355C13.2642 3.88808 13.3449 3.68902 13.3433 3.48211C13.3433 3.04969 12.9968 2.69596 12.569 2.69596C12.1413 2.69596 11.7948 3.04705 11.7948 3.48211C11.7948 3.91717 12.1406 4.26819 12.569 4.26819ZM14.6948 4.57564C15.1206 4.57564 15.467 4.22455 15.467 3.79148C15.467 3.3584 15.1206 3.00731 14.6948 3.00731C14.269 3.00731 13.9225 3.3584 13.9225 3.79148C13.9225 4.22455 14.2696 4.57564 14.6948 4.57564ZM14.4395 6.6392C14.8045 6.6392 15.1001 6.33902 15.1001 5.96942C15.1001 5.59981 14.8045 5.29964 14.4395 5.29964C14.0746 5.29964 13.779 5.59981 13.779 5.96942C13.779 6.33902 14.0746 6.6392 14.4395 6.6392ZM16.1414 7.30832C16.509 7.30832 16.8066 7.00615 16.8066 6.63391C16.8066 6.26166 16.509 5.9595 16.1414 5.9595C16.0535 5.9601 15.9665 5.97803 15.8855 6.01225C15.8044 6.04647 15.7309 6.09632 15.6692 6.15894C15.6074 6.22157 15.5586 6.29574 15.5255 6.37724C15.4924 6.45873 15.4757 6.54595 15.4763 6.63391C15.4763 7.00615 15.7745 7.30832 16.1414 7.30832ZM12.3006 6.36018C12.39 6.35966 12.4785 6.34153 12.5609 6.30682C12.6433 6.27212 12.7181 6.22152 12.781 6.15791C12.8439 6.0943 12.8936 6.01893 12.9273 5.93611C12.9611 5.85328 12.9782 5.76462 12.9777 5.67519V5.67387C12.9777 5.29501 12.6755 4.98756 12.3006 4.98756C11.9257 4.98756 11.6236 5.29435 11.6236 5.67387C11.6236 6.05074 11.9264 6.36018 12.3006 6.36018ZM11.687 8.0019C12.0011 8.0019 12.2543 7.74404 12.2543 7.42733C12.2556 7.27618 12.1967 7.13073 12.0907 7.02298C11.9847 6.91523 11.8402 6.854 11.6891 6.85276H11.687C11.373 6.85276 11.1197 7.11062 11.1197 7.42733C11.1197 7.74404 11.373 8.0019 11.687 8.0019ZM13.816 8.29216C13.8904 8.29165 13.964 8.27649 14.0326 8.24754C14.1011 8.2186 14.1633 8.17643 14.2155 8.12346C14.2678 8.07049 14.3091 8.00774 14.3371 7.9388C14.3651 7.86987 14.3792 7.79609 14.3787 7.72169V7.7203C14.3787 7.40425 14.1275 7.14837 13.816 7.14837C13.5046 7.14837 13.2534 7.40425 13.2534 7.7203C13.2524 7.79444 13.2661 7.86804 13.2935 7.9369C13.321 8.00576 13.3618 8.06854 13.4136 8.12164C13.4653 8.17474 13.527 8.21713 13.5951 8.24639C13.6633 8.27565 13.7365 8.2912 13.8106 8.29216H13.816ZM15.5133 8.95863C15.8274 8.95863 16.0806 8.70077 16.0806 8.38208C16.0806 8.06339 15.8274 7.80553 15.5133 7.80553C15.1992 7.80553 14.946 8.06339 14.946 8.38208C14.9444 8.5334 15.003 8.67916 15.1089 8.78728C15.2148 8.89541 15.3593 8.95704 15.5106 8.95863H15.5133ZM14.6749 10.2043C14.9401 10.2043 15.1543 9.98545 15.1543 9.71833C15.1543 9.45121 14.9401 9.23236 14.6749 9.23236C14.4098 9.23236 14.1956 9.45121 14.1956 9.71833C14.1956 9.98545 14.4098 10.2043 14.6749 10.2043ZM12.9697 9.54841C13.2395 9.54841 13.4603 9.32493 13.4603 9.05054C13.4603 8.77614 13.2415 8.55266 12.9697 8.55266C12.698 8.55266 12.4791 8.77614 12.4791 9.05054C12.4791 9.32493 12.7 9.54841 12.9697 9.54841ZM10.8434 9.24426C10.9728 9.24223 11.0962 9.18942 11.187 9.09721C11.2779 9.005 11.3288 8.88078 11.3289 8.75134C11.329 8.62191 11.2782 8.49762 11.1875 8.40529C11.0968 8.31296 10.9734 8.25998 10.844 8.25778H10.8434C10.7139 8.25981 10.5905 8.31262 10.4997 8.40483C10.4088 8.49704 10.3579 8.62126 10.3578 8.75069C10.3577 8.88013 10.4085 9.00441 10.4992 9.09675C10.5899 9.18908 10.7133 9.24206 10.8427 9.24426H10.8434ZM12.0256 10.4146C12.2603 10.4146 12.4487 10.2215 12.4487 9.98677C12.4498 9.87438 12.4061 9.76617 12.3274 9.68594C12.2487 9.60572 12.1413 9.56005 12.0289 9.55899H12.0256C11.7908 9.55899 11.6024 9.75205 11.6024 9.98677C11.6012 10.099 11.6446 10.2071 11.723 10.2873C11.8015 10.3676 11.9086 10.4133 12.0209 10.4146H12.0256ZM13.7301 11.0817C13.9648 11.0817 14.1579 10.8886 14.1579 10.6493C14.1579 10.4099 13.9675 10.2169 13.7301 10.2169C13.6154 10.2169 13.5054 10.2624 13.4243 10.3435C13.3432 10.4246 13.2977 10.5346 13.2977 10.6493C13.2977 10.764 13.3432 10.8739 13.4243 10.955C13.5054 11.0361 13.6154 11.0817 13.7301 11.0817ZM12.77 11.5822C12.9558 11.5822 13.1073 11.4288 13.1073 11.2404C13.1078 11.1504 13.0726 11.0638 13.0093 10.9997C12.9461 10.9356 12.8601 10.8992 12.77 10.8985C12.5843 10.8985 12.4328 11.0519 12.4328 11.2404C12.4327 11.3303 12.468 11.4166 12.5311 11.4807C12.5943 11.5447 12.6801 11.5812 12.77 11.5822ZM11.8603 11.8507C11.9005 11.8504 11.9404 11.8422 11.9775 11.8266C12.0146 11.8109 12.0483 11.7881 12.0766 11.7595C12.1049 11.7308 12.1273 11.6968 12.1425 11.6595C12.1576 11.6222 12.1653 11.5823 12.1651 11.542V11.5412C12.1651 11.3693 12.0275 11.2318 11.8603 11.2318C11.82 11.232 11.7801 11.2402 11.743 11.2559C11.7059 11.2715 11.6722 11.2943 11.6439 11.323C11.6156 11.3516 11.5932 11.3856 11.5781 11.4229C11.5629 11.4602 11.5552 11.5001 11.5555 11.5404V11.5412C11.5541 11.6219 11.5847 11.6998 11.6408 11.7578C11.6968 11.8158 11.7736 11.8492 11.8542 11.8506L11.8603 11.8507ZM11.0635 10.9607C11.2639 10.9607 11.4265 10.7954 11.4265 10.5931C11.4265 10.3908 11.2639 10.2255 11.0635 10.2255C10.8632 10.2255 10.7005 10.3908 10.7005 10.5931C10.7003 10.6898 10.7384 10.7828 10.8064 10.8516C10.8743 10.9205 10.9668 10.9597 11.0635 10.9607ZM9.89456 10.1177C10.1273 10.1177 10.3177 9.92727 10.3177 9.6899C10.3177 9.45254 10.1293 9.26211 9.89456 9.26211C9.66182 9.26211 9.4714 9.45254 9.4714 9.6899C9.47122 9.80261 9.5156 9.91082 9.59486 9.99096C9.67413 10.0711 9.78185 10.1166 9.89456 10.1177ZM13.3611 15.4772C13.8636 15.4772 14.2709 15.0633 14.2709 14.5536C14.2709 14.0438 13.8636 13.6299 13.3611 13.6299C12.8586 13.6299 12.4514 14.0438 12.4514 14.5536C12.4514 15.0633 12.8586 15.4772 13.3611 15.4772ZM11.0503 14.3083C11.4688 14.3083 11.8087 13.9638 11.8087 13.5387C11.8087 13.1135 11.4688 12.769 11.0503 12.769C10.6318 12.769 10.2919 13.1135 10.2919 13.5387C10.2919 13.9638 10.6311 14.3083 11.0503 14.3083ZM9.72992 16.0002C10.1531 16.0002 10.4949 15.6538 10.4949 15.2234C10.4949 14.7956 10.1531 14.4465 9.72992 14.4465C9.30676 14.4465 8.96493 14.7929 8.96493 15.2234C8.96335 15.4278 9.04305 15.6245 9.1865 15.7702C9.32995 15.9159 9.5254 15.9987 9.72985 16.0002H9.72992ZM9.33255 12.8828C9.42025 12.8822 9.50696 12.8643 9.58775 12.8302C9.66854 12.796 9.74182 12.7463 9.8034 12.6839C9.86498 12.6215 9.91366 12.5475 9.94666 12.4662C9.97966 12.385 9.99633 12.298 9.99572 12.2103C9.99633 12.1226 9.97966 12.0357 9.94666 11.9544C9.91366 11.8732 9.86498 11.7992 9.8034 11.7368C9.74182 11.6743 9.66854 11.6246 9.58775 11.5905C9.50696 11.5564 9.42025 11.5385 9.33255 11.5379C9.24485 11.5385 9.15813 11.5564 9.07734 11.5905C8.99656 11.6246 8.92328 11.6743 8.8617 11.7368C8.80012 11.7992 8.75144 11.8732 8.71844 11.9544C8.68544 12.0357 8.66877 12.1226 8.66938 12.2103C8.67004 12.5806 8.96758 12.8828 9.33255 12.8828ZM8.01547 14.5979C8.38044 14.5979 8.67599 14.2977 8.67599 13.9281C8.67599 13.5585 8.38044 13.2583 8.01547 13.2583C7.6505 13.2583 7.35495 13.5585 7.35495 13.9281C7.3532 14.104 7.42138 14.2733 7.5445 14.3989C7.66761 14.5245 7.83557 14.5961 8.01144 14.5979H8.01547ZM6.59591 15.7616C6.96088 15.7616 7.25445 15.4614 7.25445 15.0938C7.25445 14.7242 6.9589 14.426 6.59591 14.426C6.23093 14.426 5.93737 14.7261 5.93737 15.0938C5.93737 15.4614 6.23292 15.7616 6.59591 15.7616ZM5.41437 14.2468C5.56443 14.2454 5.70785 14.1847 5.81328 14.0779C5.91871 13.9711 5.97759 13.8269 5.97704 13.6768C5.97704 13.3628 5.72579 13.1069 5.41437 13.1069C5.26472 13.1092 5.12196 13.1702 5.01694 13.2769C4.91191 13.3835 4.85304 13.5272 4.85304 13.6768C4.85304 13.8265 4.91191 13.9702 5.01694 14.0768C5.12196 14.1835 5.26472 14.2445 5.41437 14.2468ZM6.83658 13.0778C6.98674 13.0768 7.13035 13.0161 7.23586 12.9093C7.34136 12.8024 7.40013 12.658 7.39925 12.5079C7.39925 12.1918 7.148 11.9379 6.83658 11.9379C6.68691 11.9399 6.54404 12.0007 6.43881 12.1072C6.33359 12.2136 6.27447 12.3572 6.2742 12.5069C6.27394 12.6566 6.33257 12.8004 6.43742 12.9072C6.54227 13.014 6.68493 13.0753 6.83459 13.0778H6.83658ZM8.16358 11.3634C8.23798 11.3628 8.31155 11.3477 8.3801 11.3187C8.44864 11.2898 8.51081 11.2476 8.56306 11.1947C8.61531 11.1417 8.65661 11.0789 8.68461 11.01C8.71261 10.9411 8.72676 10.8673 8.72624 10.7929V10.7915C8.72624 10.4755 8.47499 10.2196 8.16358 10.2196C8.08917 10.2201 8.0156 10.2352 7.94705 10.2642C7.87851 10.2931 7.81634 10.3353 7.76409 10.3883C7.71184 10.4412 7.67054 10.504 7.64254 10.5729C7.61454 10.6419 7.60039 10.7156 7.60091 10.79V10.7914C7.60091 11.1075 7.85216 11.3634 8.16358 11.3634ZM6.13374 11.5994C6.4035 11.5994 6.62235 11.3786 6.62235 11.1042C6.62235 10.8298 6.4035 10.6089 6.13374 10.6089C5.86398 10.6089 5.64512 10.8298 5.64512 11.1042C5.64512 11.3786 5.86398 11.5994 6.13374 11.5994ZM4.7188 12.7637C4.78271 12.7634 4.84592 12.7505 4.90483 12.7257C4.96374 12.7009 5.01719 12.6648 5.06213 12.6193C5.10707 12.5739 5.14263 12.5201 5.16676 12.4609C5.1909 12.4017 5.20314 12.3384 5.20279 12.2745V12.2731C5.20402 12.1443 5.15401 12.0202 5.06376 11.9282C4.9735 11.8362 4.85039 11.7838 4.72152 11.7825H4.7188C4.6549 11.7829 4.59169 11.7958 4.53278 11.8206C4.47387 11.8454 4.42042 11.8815 4.37548 11.9269C4.33053 11.9724 4.29498 12.0262 4.27085 12.0854C4.24671 12.1446 4.23447 12.2079 4.23482 12.2718V12.2731C4.23438 12.3371 4.24656 12.4006 4.27064 12.4599C4.29473 12.5192 4.33026 12.5731 4.3752 12.6187C4.42014 12.6642 4.47362 12.7005 4.53258 12.7254C4.59153 12.7503 4.65481 12.7633 4.7188 12.7637ZM4.3935 11.3991C4.50503 11.3982 4.61168 11.3532 4.69012 11.2739C4.76855 11.1946 4.81238 11.0874 4.81203 10.9759C4.81203 10.7412 4.62359 10.5527 4.3935 10.5527C4.16341 10.5527 3.97497 10.7432 3.97497 10.9759C3.97497 11.2106 4.16341 11.3991 4.3935 11.3991ZM4.3816 10.2017C4.4291 10.2012 4.47604 10.1914 4.51976 10.1729C4.56347 10.1543 4.6031 10.1273 4.63637 10.0934C4.66965 10.0595 4.69593 10.0194 4.7137 9.97534C4.73147 9.9313 4.7404 9.88418 4.73996 9.83668C4.73996 9.63634 4.57929 9.47171 4.3816 9.47171C4.18391 9.47171 4.02324 9.63436 4.02324 9.83668C4.02324 10.039 4.18391 10.2017 4.3816 10.2017ZM4.57863 9.20591C4.74856 9.20591 4.88344 9.0664 4.88344 8.89648C4.88344 8.72655 4.74591 8.58704 4.57863 8.58704C4.40871 8.58704 4.27383 8.72655 4.27383 8.89648C4.27383 9.0664 4.40871 9.20591 4.57863 9.20591ZM5.79852 9.0393C5.99886 9.0393 6.16151 8.874 6.16151 8.67168C6.16151 8.46935 5.99886 8.30406 5.79852 8.30406C5.59818 8.30406 5.43553 8.46935 5.43553 8.67168C5.43517 8.76848 5.47316 8.86149 5.54118 8.93038C5.60919 8.99926 5.70171 9.03842 5.79852 9.0393ZM7.13742 8.51762C7.37015 8.51762 7.56057 8.32456 7.56057 8.08984C7.56163 7.97744 7.518 7.86923 7.43928 7.78901C7.36055 7.70878 7.25318 7.66311 7.14079 7.66205H7.13742C6.90468 7.66205 6.71426 7.85511 6.71426 8.08984C6.71382 8.14558 6.72437 8.20086 6.7453 8.25253C6.76623 8.3042 6.79713 8.35124 6.83625 8.39096C6.87535 8.43068 6.92191 8.46231 6.97324 8.48405C7.02458 8.50578 7.07969 8.51719 7.13543 8.51762H7.13742ZM7.45611 9.87569C7.58344 9.87543 7.70545 9.82463 7.79535 9.73446C7.88524 9.64428 7.93566 9.52211 7.93553 9.39478C7.9354 9.26745 7.88473 9.14539 7.79465 9.0554C7.70457 8.96541 7.58244 8.91486 7.45512 8.91486C7.32779 8.91486 7.20567 8.96541 7.11559 9.0554C7.0255 9.14539 6.97483 9.26745 6.9747 9.39478C6.97457 9.52211 7.02499 9.64428 7.11488 9.73446C7.20478 9.82463 7.3268 9.87543 7.45412 9.87569H7.45611ZM5.81571 10.2374C6.04845 10.2374 6.23424 10.0469 6.23424 9.81156C6.23424 9.57618 6.0458 9.38576 5.81571 9.38576C5.7604 9.38609 5.7057 9.39732 5.65474 9.4188C5.60377 9.44028 5.55754 9.47159 5.51867 9.51094C5.4798 9.55029 5.44907 9.59691 5.42823 9.64814C5.40738 9.69937 5.39683 9.7542 5.39718 9.80951V9.81156C5.39639 9.86668 5.40647 9.92142 5.42684 9.97265C5.44721 10.0239 5.47747 10.0706 5.51589 10.1101C5.55431 10.1497 5.60014 10.1812 5.65077 10.2031C5.7014 10.2249 5.75583 10.2365 5.81095 10.2373H5.81571V10.2374ZM1.18742 9.60593C1.68727 9.60593 2.09456 9.19401 2.09456 8.68688C2.09456 8.17976 1.68727 7.76784 1.18742 7.76784C0.687563 7.76784 0.280273 8.18042 0.280273 8.68755C0.280273 9.19467 0.687563 9.60593 1.18742 9.60593ZM3.24635 7.96487C3.67678 7.96487 4.02324 7.61114 4.02324 7.17608C4.02324 6.74102 3.67413 6.38729 3.24635 6.38729C3.03891 6.38868 2.84052 6.47243 2.69483 6.62009C2.54913 6.76776 2.46807 6.96725 2.46946 7.17469V7.17608C2.46946 7.61378 2.81856 7.96487 3.24635 7.96487ZM2.44301 5.94165C2.87079 5.94165 3.21527 5.59056 3.21527 5.15748C3.21527 4.72441 2.86881 4.37332 2.44301 4.37332C2.3409 4.374 2.23993 4.39479 2.14586 4.4345C2.05178 4.47421 1.96646 4.53206 1.89474 4.60475C1.82303 4.67744 1.76634 4.76354 1.7279 4.85814C1.68947 4.95274 1.67005 5.05399 1.67074 5.15609V5.15748C1.66865 5.36334 1.7484 5.5616 1.89247 5.70865C2.03654 5.85571 2.23312 5.93952 2.43897 5.94165H2.44301ZM4.42788 4.98293C4.79286 4.98293 5.09105 4.68275 5.09105 4.3105C5.09105 3.93826 4.79352 3.63808 4.42788 3.63808C4.06225 3.63808 3.76472 3.93826 3.76472 4.3105C3.76472 4.68275 4.06291 4.98293 4.42788 4.98293ZM5.23916 7.00153C5.60677 7.00153 5.90431 6.69936 5.90431 6.32712C5.90431 5.95487 5.60677 5.65271 5.23916 5.65271C4.87154 5.65271 4.57401 5.95487 4.57401 6.32712C4.57401 6.69936 4.87154 7.00153 5.23916 7.00153ZM7.04551 6.58233C7.19665 6.58109 7.34112 6.51988 7.44713 6.41214C7.55314 6.3044 7.61202 6.15897 7.61082 6.00783C7.61196 5.93359 7.59847 5.85986 7.57111 5.79084C7.54375 5.72181 7.50306 5.65886 7.45137 5.60556C7.39968 5.55226 7.338 5.50966 7.26985 5.4802C7.2017 5.45074 7.12841 5.43499 7.05417 5.43386C6.97994 5.43272 6.9062 5.44622 6.83718 5.47357C6.76816 5.50093 6.7052 5.54162 6.6519 5.59331C6.5986 5.645 6.55601 5.70668 6.52655 5.77483C6.49709 5.84298 6.48134 5.91627 6.4802 5.99051C6.4802 5.99633 6.4802 6.00208 6.4802 6.00783C6.47845 6.15845 6.5366 6.30359 6.64186 6.41134C6.74712 6.51909 6.89086 6.58062 7.04148 6.5824L7.04551 6.58233ZM8.60591 6.58762C8.87567 6.58762 9.09452 6.36679 9.09452 6.09438C9.09452 5.82197 8.87567 5.60114 8.60591 5.60114C8.47509 5.60114 8.34963 5.6531 8.25713 5.7456C8.16463 5.83811 8.11266 5.96356 8.11266 6.09438C8.11266 6.2252 8.16463 6.35066 8.25713 6.44316C8.34963 6.53566 8.47509 6.58762 8.60591 6.58762ZM9.89522 6.8845C10.1207 6.8845 10.3071 6.6987 10.3071 6.46795C10.3071 6.2372 10.1233 6.0514 9.89522 6.0514C9.78543 6.05226 9.68046 6.09657 9.60326 6.17463C9.52606 6.2527 9.48293 6.35816 9.4833 6.46795C9.48594 6.69606 9.66909 6.8845 9.89522 6.8845ZM10.0632 5.36509C10.1588 5.36441 10.2502 5.3258 10.3174 5.25774C10.3846 5.18968 10.4221 5.09774 10.4215 5.0021C10.4215 4.80176 10.2609 4.63911 10.0632 4.63911C9.86546 4.63911 9.7048 4.80176 9.7048 5.0021C9.70425 5.09774 9.74168 5.18968 9.80887 5.25774C9.87607 5.3258 9.96752 5.36441 10.0632 5.36509ZM9.07138 4.86788C9.18082 4.86761 9.28568 4.82391 9.36292 4.74638C9.44016 4.66885 9.48347 4.56384 9.48333 4.4544C9.4832 4.34496 9.43963 4.24005 9.36219 4.16271C9.28476 4.08537 9.1798 4.04193 9.07036 4.04193C8.96092 4.04193 8.85595 4.08537 8.77852 4.16271C8.70109 4.24005 8.65752 4.34496 8.65738 4.4544C8.65725 4.56384 8.70055 4.66885 8.7778 4.74638C8.85504 4.82391 8.95989 4.86761 9.06933 4.86788H9.07138ZM7.79728 4.56638C7.92646 4.56533 8.04996 4.5131 8.14069 4.42113C8.23142 4.32916 8.28197 4.20497 8.28127 4.07578C8.28127 3.80338 8.06506 3.58519 7.79728 3.58519C7.5295 3.58519 7.31329 3.80602 7.31329 4.07578C7.31277 4.13969 7.32484 4.20307 7.34881 4.26232C7.37279 4.32156 7.40819 4.37549 7.45301 4.42105C7.49783 4.46661 7.55119 4.50289 7.61003 4.52783C7.66887 4.55276 7.73205 4.56586 7.79596 4.56638H7.79728ZM6.23953 4.56837C6.55359 4.56837 6.80682 4.3105 6.80682 3.9938C6.80682 3.67709 6.55359 3.41923 6.23953 3.41923C5.92547 3.41923 5.67223 3.67709 5.67223 3.9938C5.6717 4.14509 5.73107 4.29044 5.83736 4.3981C5.94366 4.50576 6.08824 4.56697 6.23953 4.56837ZM4.14159 3.13161C4.49731 3.13161 4.7836 2.84069 4.7836 2.48035C4.7836 2.12 4.49532 1.82908 4.14159 1.82908C3.78587 1.82908 3.49958 2.12 3.49958 2.48035C3.49958 2.84069 3.78786 3.13161 4.14159 3.13161ZM5.94728 2.73689C6.26135 2.73689 6.51458 2.47902 6.51458 2.16232C6.51458 1.84561 6.26135 1.58775 5.94728 1.58775C5.63322 1.58775 5.37999 1.84561 5.37999 2.16232C5.37999 2.47902 5.63322 2.73689 5.94728 2.73689ZM7.50702 2.74416C7.77678 2.74416 7.99563 2.52332 7.99563 2.24893C7.99563 1.97454 7.77678 1.75371 7.50702 1.75371C7.44251 1.75405 7.37869 1.7671 7.31922 1.79211C7.25975 1.81712 7.20579 1.8536 7.16042 1.89946C7.11505 1.94532 7.07915 1.99967 7.05478 2.05941C7.03042 2.11915 7.01806 2.1831 7.0184 2.24761V2.24893C7.01786 2.3793 7.06895 2.50458 7.16051 2.59738C7.25207 2.69018 7.37666 2.74295 7.50702 2.74416ZM8.78707 3.03905C9.01518 3.03905 9.19899 2.85325 9.19899 2.6225C9.19899 2.39175 9.01518 2.20596 8.78707 2.20596C8.6766 2.20596 8.57065 2.24984 8.49253 2.32796C8.41441 2.40608 8.37053 2.51203 8.37053 2.6225C8.37053 2.73298 8.41441 2.83893 8.49253 2.91704C8.57065 2.99516 8.6766 3.03905 8.78707 3.03905ZM9.77025 3.54948C9.86834 3.54878 9.96214 3.50919 10.0311 3.4394C10.1 3.36961 10.1384 3.27532 10.1379 3.17723C10.1379 2.97028 9.97258 2.80499 9.77025 2.80499C9.56793 2.80499 9.40263 2.97227 9.40263 3.17723C9.40263 3.3822 9.56793 3.54948 9.77025 3.54948ZM10.4916 4.13529C10.5315 4.13503 10.571 4.12691 10.6078 4.11138C10.6446 4.09586 10.678 4.07324 10.7061 4.04481C10.7341 4.01638 10.7563 3.98271 10.7714 3.94571C10.7864 3.90871 10.794 3.8691 10.7938 3.82916V3.8285C10.7941 3.78856 10.7866 3.74894 10.7716 3.71191C10.7567 3.67487 10.7346 3.64115 10.7066 3.61266C10.6786 3.58417 10.6452 3.56148 10.6085 3.54587C10.5717 3.53027 10.5322 3.52206 10.4923 3.52171H10.4916C10.4517 3.52197 10.4122 3.5301 10.3754 3.54562C10.3386 3.56115 10.3052 3.58377 10.2771 3.61219C10.2491 3.64062 10.2269 3.6743 10.2118 3.7113C10.1968 3.7483 10.1892 3.7879 10.1894 3.82784V3.8285C10.1888 3.86818 10.196 3.90759 10.2107 3.94448C10.2253 3.98137 10.247 4.01502 10.2747 4.0435C10.3023 4.07199 10.3353 4.09475 10.3717 4.11049C10.4081 4.12622 10.4473 4.13463 10.487 4.13523H10.4917L10.4916 4.13529Z" fill="black"/>
</g>
<defs>
<clipPath id="clip0_8504_11725">
<rect width="17" height="16" fill="white" transform="translate(0 0.000244141)"/>
</clipPath>
</defs>
</svg>
