<svg width="16" height="16" viewBox="0 0 16 16" fill="none" xmlns="http://www.w3.org/2000/svg">
<g clip-path="url(#clip0_8504_11729)">
<path d="M8 16.0002C12.4183 16.0002 16 12.4185 16 8.00024C16 3.58197 12.4183 0.000244141 8 0.000244141C3.58172 0.000244141 0 3.58197 0 8.00024C0 12.4185 3.58172 16.0002 8 16.0002Z" fill="#00D4D5"/>
<path d="M8.25952 2.50024V5.22874L10.6285 3.86624L8.25952 2.50024Z" fill="white"/>
<path opacity="0.9" d="M10.6284 3.86621V6.59471L12.9969 5.22871L10.6284 3.86621Z" fill="white"/>
<path opacity="0.8" d="M8.25952 5.22876V7.95726L10.6285 6.59476L8.25952 5.22876ZM10.6285 6.59526V9.32326L12.997 7.95726L10.6285 6.59526Z" fill="white"/>
<path opacity="0.8" d="M8.25952 7.95728V10.6858L10.6285 9.32328L8.25952 7.95728Z" fill="white"/>
<path d="M10.6284 9.32324V12.0517L12.9969 10.6857L10.6284 9.32324Z" fill="white"/>
<path opacity="0.4" d="M2.13647 5.13672V7.86522L4.50547 6.49922L2.13647 5.13672Z" fill="white"/>
<path opacity="0.2" d="M5.125 6.15112V8.87962L7.49 7.51712L5.125 6.15112Z" fill="white"/>
<path opacity="0.3" d="M3.3689 7.87671V10.6052L5.7374 9.23921L3.3689 7.87671Z" fill="white"/>
<path opacity="0.9" d="M4.92993 9.93579V12.6643L7.29493 11.2983L4.92993 9.93579Z" fill="white"/>
<path opacity="0.7" d="M8.23999 11.1104V13.8394L10.605 12.4729L8.23999 11.1104Z" fill="white"/>
<path opacity="0.9" d="M5.51953 4.80371V7.53271L7.88453 6.17021L5.51953 4.80371Z" fill="white"/>
<path opacity="0.8" d="M8.25938 2.50024V5.22874L5.89038 3.86624L8.25938 2.50024Z" fill="white"/>
<path opacity="0.6" d="M5.5194 3.66016V6.38816L3.1499 5.02216L5.5194 3.66016Z" fill="white"/>
<path opacity="0.6" d="M7.88853 5.01025V7.73925L5.51953 6.37275L7.88853 5.01025Z" fill="white"/>
<path opacity="0.95" d="M5.11412 6.15112V8.87962L2.74512 7.51712L5.11412 6.15112Z" fill="white"/>
<path opacity="0.6" d="M8.25953 7.95728V10.6858L5.89453 9.32328L8.25953 7.95728Z" fill="white"/>
<path opacity="0.55" d="M3.369 8.59277V11.3213L1 9.95477L3.369 8.59277Z" fill="white"/>
<path d="M12.9969 5.22876V7.95726L10.6284 6.59476L12.9969 5.22876Z" fill="white"/>
<path opacity="0.95" d="M10.6285 6.59521V9.32321L8.25952 7.95721L10.6285 6.59521Z" fill="white"/>
<path opacity="0.9" d="M12.9969 7.95728V10.6858L10.6284 9.32328L12.9969 7.95728Z" fill="white"/>
<path opacity="0.7" d="M10.6285 9.32324V12.0517L8.25952 10.6857L10.6285 9.32324Z" fill="white"/>
<path opacity="0.4" d="M7.73496 10.4602V13.1887L5.36646 11.8262L7.73496 10.4602Z" fill="white"/>
<path d="M10.6285 3.86621V6.59471L8.25952 5.22871L10.6285 3.86621Z" fill="white"/>
</g>
<defs>
<clipPath id="clip0_8504_11729">
<rect width="16" height="16" fill="white" transform="translate(0 0.000244141)"/>
</clipPath>
</defs>
</svg>
