<svg width="17" height="16" viewBox="0 0 17 16" fill="none" xmlns="http://www.w3.org/2000/svg">
<g clip-path="url(#clip0_8504_11842)">
<path d="M12.1865 5.81821H11.153V4.78485C11.153 4.60875 11.223 4.43986 11.3475 4.31533C11.472 4.19081 11.6409 4.12085 11.817 4.12085H12.1865C12.3626 4.12085 12.5315 4.19081 12.6561 4.31533C12.7806 4.43986 12.8505 4.60875 12.8505 4.78485V5.15445C12.8505 5.33051 12.7805 5.49934 12.656 5.62381C12.5315 5.74829 12.3626 5.81821 12.1865 5.81821ZM6.30502 5.81821H5.27142C5.09532 5.81821 4.92643 5.74825 4.8019 5.62373C4.67738 5.4992 4.60742 5.33031 4.60742 5.15421V4.78485C4.60736 4.69763 4.62449 4.61126 4.65784 4.53067C4.69118 4.45008 4.74009 4.37686 4.80176 4.31519C4.86343 4.25352 4.93666 4.20461 5.01725 4.17127C5.09783 4.13792 5.18421 4.12079 5.27142 4.12085H5.64102C5.81713 4.12085 5.98602 4.19081 6.11054 4.31533C6.23507 4.43986 6.30502 4.60875 6.30502 4.78485V5.81821ZM5.64102 12.1212H5.2715C5.1843 12.1212 5.09796 12.1041 5.0174 12.0707C4.93684 12.0373 4.86364 11.9884 4.80198 11.9268C4.74033 11.8651 4.69142 11.7919 4.65805 11.7114C4.62468 11.6308 4.6075 11.5444 4.6075 11.4572V11.088C4.6075 11.0009 4.62468 10.9145 4.65805 10.8339C4.69142 10.7534 4.74033 10.6802 4.80198 10.6185C4.86364 10.5569 4.93684 10.508 5.0174 10.4746C5.09796 10.4412 5.1843 10.424 5.2715 10.424H6.30502V11.4572C6.30502 11.6334 6.23507 11.8022 6.11054 11.9268C5.98602 12.0513 5.81713 12.1212 5.64102 12.1212ZM12.1865 12.1212H11.817C11.6409 12.1212 11.472 12.0513 11.3475 11.9268C11.223 11.8022 11.153 11.6334 11.153 11.4572V10.424H12.1863C12.3624 10.424 12.5313 10.494 12.6558 10.6185C12.7803 10.7431 12.8503 10.9119 12.8503 11.088V11.4576C12.8503 11.6338 12.7803 11.8026 12.6558 11.9272C12.5313 12.0517 12.3624 12.1216 12.1863 12.1216" fill="#005FFF"/>
<path d="M9.03508 4.12152H8.66548C8.48937 4.12152 8.32048 4.05156 8.19596 3.92704C8.07143 3.80251 8.00148 3.63362 8.00148 3.45752V3.08832C8.00148 2.91221 8.07143 2.74332 8.19596 2.6188C8.32048 2.49427 8.48937 2.42432 8.66548 2.42432H9.035C9.2111 2.42432 9.37999 2.49427 9.50452 2.6188C9.62904 2.74332 9.699 2.91221 9.699 3.08832V3.45792C9.699 3.63402 9.62904 3.80291 9.50452 3.92744C9.37999 4.05196 9.2111 4.12192 9.035 4.12192L9.03508 4.12152ZM9.03508 13.8185H8.66548C8.48937 13.8185 8.32048 13.7485 8.19596 13.624C8.07143 13.4995 8.00148 13.3306 8.00148 13.1545V12.7849C8.00148 12.6088 8.07143 12.4399 8.19596 12.3154C8.32048 12.1908 8.48937 12.1209 8.66548 12.1209H9.035C9.2111 12.1209 9.37999 12.1908 9.50452 12.3154C9.62904 12.4399 9.699 12.6088 9.699 12.7849V13.1545C9.699 13.3306 9.62904 13.4995 9.50452 13.624C9.37999 13.7485 9.2111 13.8185 9.035 13.8185H9.03508ZM13.8836 8.97H13.514C13.3379 8.97 13.169 8.90004 13.0445 8.77552C12.92 8.65099 12.85 8.4821 12.85 8.306V7.93632C12.85 7.76021 12.92 7.59132 13.0445 7.4668C13.169 7.34227 13.3379 7.27232 13.514 7.27232H13.8836C14.0597 7.27232 14.2286 7.34227 14.3531 7.4668C14.4776 7.59132 14.5476 7.76021 14.5476 7.93632V8.30592C14.5476 8.48202 14.4776 8.65091 14.3531 8.77544C14.2286 8.89996 14.0597 8.96992 13.8836 8.96992V8.97ZM4.1866 8.97H3.81708C3.64097 8.97 3.47208 8.90004 3.34756 8.77552C3.22303 8.65099 3.15308 8.4821 3.15308 8.306V7.93632C3.15308 7.76021 3.22303 7.59132 3.34756 7.4668C3.47208 7.34227 3.64097 7.27232 3.81708 7.27232H4.1866C4.27379 7.27232 4.36014 7.28949 4.4407 7.32286C4.52126 7.35623 4.59446 7.40514 4.65612 7.4668C4.71777 7.52846 4.76668 7.60166 4.80005 7.68222C4.83342 7.76278 4.8506 7.84912 4.8506 7.93632V8.30592C4.8506 8.39311 4.83342 8.47946 4.80005 8.56002C4.76668 8.64058 4.71777 8.71378 4.65612 8.77544C4.59446 8.83709 4.52126 8.886 4.4407 8.91937C4.36014 8.95274 4.27379 8.96992 4.1866 8.96992" fill="#00CCEE"/>
<path d="M10.705 14.4888C10.6683 14.4002 10.6587 14.3028 10.6774 14.2087C10.6961 14.1147 10.7422 14.0283 10.81 13.9605C10.8778 13.8927 10.9641 13.8466 11.0582 13.8278C11.1522 13.8091 11.2496 13.8187 11.3382 13.8554C11.4268 13.8921 11.5025 13.9542 11.5558 14.0339C11.6091 14.1136 11.6375 14.2073 11.6375 14.3032C11.6375 14.399 11.6091 14.4928 11.5559 14.5725C11.5026 14.6522 11.4269 14.7143 11.3383 14.751C11.2196 14.8002 11.0861 14.8002 10.9674 14.751C10.8486 14.7018 10.7542 14.6075 10.705 14.4888ZM5.61451 2.12511C5.57781 2.03654 5.5682 1.93908 5.58689 1.84506C5.60558 1.75103 5.65173 1.66465 5.71951 1.59685C5.78729 1.52905 5.87365 1.48288 5.96768 1.46416C6.0617 1.44545 6.15916 1.45503 6.24774 1.4917C6.33631 1.52838 6.41202 1.5905 6.4653 1.6702C6.51857 1.7499 6.54701 1.84361 6.54703 1.93948C6.54704 2.03535 6.51863 2.12907 6.46538 2.20879C6.41213 2.28851 6.33643 2.35065 6.24787 2.38735C6.1291 2.43652 5.99567 2.43652 5.8769 2.38734C5.75814 2.33817 5.66376 2.24385 5.61451 2.12511ZM14.9751 6.02423C14.8865 6.06093 14.789 6.07054 14.695 6.05185C14.601 6.03316 14.5146 5.98701 14.4468 5.91923C14.379 5.85145 14.3328 5.76509 14.3141 5.67106C14.2954 5.57704 14.305 5.47958 14.3417 5.391C14.3783 5.30243 14.4405 5.22671 14.5202 5.17344C14.5999 5.12017 14.6936 5.09173 14.7894 5.09171C14.8853 5.0917 14.979 5.12011 15.0587 5.17336C15.1385 5.22661 15.2006 5.3023 15.2373 5.39087C15.2865 5.50964 15.2865 5.64307 15.2373 5.76184C15.1881 5.8806 15.0938 5.97498 14.9751 6.02423ZM2.85387 11.1147C2.7653 11.1514 2.66784 11.161 2.57381 11.1423C2.47979 11.1236 2.39341 11.0775 2.32561 11.0097C2.25781 10.9419 2.21164 10.8556 2.19292 10.7615C2.1742 10.6675 2.18379 10.5701 2.22046 10.4815C2.25714 10.3929 2.31926 10.3172 2.39896 10.2639C2.47866 10.2106 2.57237 10.1822 2.66824 10.1822C2.76411 10.1822 2.85783 10.2106 2.93755 10.2638C3.01727 10.3171 3.07941 10.3928 3.11611 10.4813C3.16528 10.6001 3.16528 10.7335 3.1161 10.8523C3.06693 10.9711 2.97261 11.0655 2.85387 11.1147Z" fill="#005FFF"/>
<path d="M14.604 11.1149C14.5154 11.0782 14.4397 11.0161 14.3865 10.9364C14.3332 10.8567 14.3048 10.763 14.3048 10.6671C14.3048 10.5712 14.3332 10.4775 14.3865 10.3978C14.4398 10.3181 14.5155 10.256 14.604 10.2193C14.6926 10.1826 14.7901 10.173 14.8841 10.1917C14.9781 10.2104 15.0645 10.2566 15.1323 10.3244C15.2001 10.3922 15.2462 10.4785 15.2649 10.5726C15.2836 10.6666 15.274 10.764 15.2373 10.8526C15.213 10.9114 15.1773 10.9649 15.1323 11.0099C15.0873 11.0549 15.0338 11.0906 14.975 11.115C14.9162 11.1393 14.8531 11.1519 14.7895 11.1519C14.7258 11.1519 14.6628 11.1393 14.604 11.1149ZM2.48278 6.02445C2.39421 5.98776 2.31852 5.92563 2.26526 5.84591C2.21201 5.7662 2.18359 5.67248 2.18359 5.57662C2.1836 5.48075 2.21203 5.38704 2.2653 5.30733C2.31856 5.22762 2.39427 5.1655 2.48284 5.12882C2.57141 5.09213 2.66886 5.08254 2.76289 5.10124C2.85691 5.11995 2.94328 5.16611 3.01107 5.2339C3.07885 5.30169 3.12502 5.38806 3.14372 5.48208C3.16242 5.5761 3.15282 5.67356 3.11614 5.76213C3.09179 5.82095 3.05609 5.8744 3.01107 5.91942C2.96606 5.96444 2.91262 6.00015 2.8538 6.02451C2.79499 6.04887 2.73195 6.0614 2.66829 6.06139C2.60463 6.06138 2.54159 6.04883 2.48278 6.02445ZM11.6009 2.12533C11.5642 2.2139 11.502 2.28959 11.4223 2.34285C11.3426 2.3961 11.2489 2.42452 11.153 2.42452C11.0572 2.42451 10.9634 2.39608 10.8837 2.34282C10.804 2.28955 10.7419 2.21385 10.7052 2.12528C10.6685 2.03671 10.6589 1.93925 10.6776 1.84522C10.6964 1.7512 10.7425 1.66483 10.8103 1.59705C10.8781 1.52926 10.9645 1.4831 11.0585 1.46439C11.1525 1.44569 11.25 1.45529 11.3385 1.49197C11.3974 1.51632 11.4508 1.55203 11.4958 1.59704C11.5408 1.64205 11.5766 1.69549 11.6009 1.75431C11.6253 1.81312 11.6378 1.87616 11.6378 1.93983C11.6378 2.00349 11.6252 2.06652 11.6009 2.12533ZM6.51006 14.489C6.47337 14.5776 6.41123 14.6533 6.33152 14.7065C6.25181 14.7598 6.15809 14.7882 6.06222 14.7882C5.96636 14.7882 5.87265 14.7598 5.79294 14.7065C5.71323 14.6532 5.65111 14.5775 5.61442 14.489C5.57774 14.4004 5.56814 14.3029 5.58685 14.2089C5.60555 14.1149 5.65172 14.0285 5.71951 13.9607C5.7873 13.8929 5.87366 13.8468 5.96769 13.8281C6.06171 13.8094 6.15917 13.819 6.24774 13.8557C6.30656 13.88 6.36001 13.9157 6.40503 13.9607C6.45004 14.0057 6.48575 14.0592 6.51011 14.118C6.53447 14.1768 6.54701 14.2398 6.547 14.3035C6.54699 14.3672 6.53444 14.4302 6.51006 14.489Z" fill="#002DAE"/>
<path d="M13.8909 13.7472C13.857 13.7133 13.8339 13.6701 13.8246 13.623C13.8152 13.576 13.82 13.5273 13.8384 13.483C13.8567 13.4387 13.8878 13.4008 13.9277 13.3742C13.9675 13.3476 14.0144 13.3334 14.0623 13.3334C14.1103 13.3334 14.1571 13.3476 14.197 13.3742C14.2369 13.4008 14.2679 13.4387 14.2863 13.483C14.3046 13.5273 14.3094 13.576 14.3001 13.623C14.2907 13.6701 14.2676 13.7133 14.2337 13.7472C14.2112 13.7697 14.1845 13.7875 14.1551 13.7997C14.1257 13.8119 14.0942 13.8182 14.0623 13.8182C14.0305 13.8182 13.999 13.8119 13.9696 13.7997C13.9402 13.7875 13.9134 13.7697 13.8909 13.7472ZM2.98189 2.83812C2.94799 2.80422 2.92491 2.76103 2.91555 2.71401C2.9062 2.66699 2.911 2.61825 2.92934 2.57396C2.94769 2.52966 2.97876 2.4918 3.01862 2.46517C3.05849 2.43853 3.10535 2.42432 3.15329 2.42432C3.20124 2.42432 3.2481 2.43853 3.28797 2.46517C3.32783 2.4918 3.3589 2.52966 3.37724 2.57396C3.39559 2.61825 3.40039 2.66699 3.39104 2.71401C3.38168 2.76103 3.3586 2.80422 3.32469 2.83812C3.30219 2.86064 3.27547 2.8785 3.24606 2.89069C3.21665 2.90288 3.18513 2.90915 3.15329 2.90915C3.12146 2.90915 3.08994 2.90288 3.06053 2.89069C3.03112 2.8785 3.0044 2.86064 2.98189 2.83812ZM14.2337 2.83812C14.1998 2.87202 14.1566 2.89511 14.1096 2.90446C14.0626 2.91382 14.0139 2.90902 13.9696 2.89067C13.9253 2.87232 13.8874 2.84126 13.8608 2.80139C13.8341 2.76153 13.8199 2.71466 13.8199 2.66672C13.8199 2.61878 13.8341 2.57191 13.8608 2.53205C13.8874 2.49219 13.9253 2.46112 13.9696 2.44277C14.0139 2.42443 14.0626 2.41963 14.1096 2.42898C14.1566 2.43833 14.1998 2.46142 14.2337 2.49532C14.2563 2.51783 14.2741 2.54455 14.2863 2.57395C14.2985 2.60336 14.3048 2.63489 14.3048 2.66672C14.3048 2.69856 14.2985 2.73008 14.2863 2.75949C14.2741 2.7889 14.2563 2.81562 14.2337 2.83812ZM3.32469 13.7472C3.29079 13.7811 3.2476 13.8042 3.20058 13.8135C3.15356 13.8229 3.10482 13.8181 3.06053 13.7997C3.01623 13.7814 2.97838 13.7503 2.95174 13.7104C2.92511 13.6706 2.91089 13.6237 2.91089 13.5758C2.91089 13.5278 2.92511 13.481 2.95174 13.4411C2.97838 13.4012 3.01623 13.3702 3.06053 13.3518C3.10482 13.3335 3.15356 13.3287 3.20058 13.338C3.2476 13.3474 3.29079 13.3705 3.32469 13.4044C3.34721 13.4269 3.36507 13.4536 3.37726 13.483C3.38945 13.5124 3.39572 13.5439 3.39572 13.5758C3.39572 13.6076 3.38945 13.6391 3.37726 13.6685C3.36507 13.6979 3.34721 13.7247 3.32469 13.7472Z" fill="#0099C0"/>
<path d="M16.4865 8.24256C16.4386 8.24256 16.3917 8.22834 16.3519 8.20171C16.312 8.17508 16.2809 8.13722 16.2626 8.09294C16.2442 8.04865 16.2394 7.99991 16.2488 7.9529C16.2581 7.90588 16.2812 7.8627 16.3151 7.8288C16.349 7.7949 16.3922 7.77182 16.4392 7.76247C16.4862 7.75312 16.535 7.75792 16.5793 7.77626C16.6236 7.79461 16.6614 7.82567 16.688 7.86553C16.7147 7.90539 16.7289 7.95225 16.7289 8.00018C16.7289 8.06446 16.7033 8.12609 16.6579 8.17154C16.6124 8.21699 16.5508 8.24253 16.4865 8.24256Z" fill="#0029C0"/>
<path d="M0.971404 8.24256C0.923462 8.24256 0.876596 8.22834 0.836734 8.20171C0.796871 8.17508 0.765802 8.13722 0.747456 8.09294C0.729109 8.04865 0.724309 7.99991 0.733662 7.9529C0.743015 7.90588 0.766101 7.8627 0.800001 7.8288C0.833902 7.7949 0.877093 7.77182 0.924114 7.76247C0.971135 7.75312 1.01987 7.75792 1.06417 7.77626C1.10846 7.79461 1.14632 7.82567 1.17295 7.86553C1.19959 7.90539 1.2138 7.95225 1.2138 8.00018C1.21378 8.06446 1.18824 8.12609 1.14278 8.17154C1.09733 8.21699 1.03569 8.24253 0.971404 8.24256Z" fill="#0029C0"/>
<path d="M8.97132 0.242644C8.97132 0.290586 8.9571 0.337452 8.93047 0.377314C8.90384 0.417177 8.86598 0.448246 8.8217 0.466592C8.77741 0.484939 8.72867 0.48974 8.68166 0.480386C8.63464 0.471033 8.59146 0.447947 8.55756 0.414047C8.52366 0.380147 8.50058 0.336955 8.49123 0.289934C8.48188 0.242913 8.48668 0.194174 8.50502 0.149882C8.52337 0.105589 8.55443 0.0677312 8.59429 0.0410959C8.63415 0.0144607 8.68101 0.000244141 8.72894 0.000244141C8.79322 0.000265345 8.85485 0.0258107 8.9003 0.0712649C8.94575 0.116719 8.97129 0.178362 8.97132 0.242644Z" fill="#0029C0"/>
<path d="M8.97132 15.758C8.97132 15.8059 8.9571 15.8528 8.93047 15.8927C8.90384 15.9325 8.86598 15.9636 8.8217 15.9819C8.77741 16.0003 8.72867 16.0051 8.68166 15.9957C8.63464 15.9864 8.59146 15.9633 8.55756 15.9294C8.52366 15.8955 8.50058 15.8523 8.49123 15.8053C8.48188 15.7583 8.48668 15.7095 8.50502 15.6652C8.52337 15.621 8.55443 15.5831 8.59429 15.5565C8.63415 15.5298 8.68101 15.5156 8.72894 15.5156C8.79322 15.5156 8.85485 15.5412 8.9003 15.5866C8.94575 15.6321 8.97129 15.6937 8.97132 15.758Z" fill="#0029C0"/>
<path d="M10.3467 7.19217H10.7086C10.8265 7.19209 10.9395 7.1452 11.0228 7.06183C11.1061 6.97845 11.1529 6.8654 11.1529 6.74753V5.57617H9.98165C9.86375 5.57617 9.75067 5.62299 9.66727 5.70634C9.58388 5.78969 9.53699 5.90275 9.53693 6.02065V6.38417C9.53693 6.59847 9.4518 6.80398 9.30027 6.95551C9.14874 7.10704 8.94323 7.19217 8.72893 7.19217C8.51464 7.19217 8.30912 7.10704 8.15759 6.95551C8.00606 6.80398 7.92093 6.59847 7.92093 6.38417V6.00457C7.92085 5.89092 7.87564 5.78196 7.79525 5.70163C7.71486 5.6213 7.60586 5.57617 7.49221 5.57617H6.30493V10.4242H7.48333C7.59938 10.4241 7.71066 10.378 7.79271 10.296C7.87477 10.2139 7.92089 10.1026 7.92093 9.98657V9.61617C7.92093 9.40188 8.00606 9.19636 8.15759 9.04483C8.30912 8.8933 8.51464 8.80817 8.72893 8.80817V8.80977C8.94323 8.80977 9.14874 8.8949 9.30027 9.04643C9.4518 9.19796 9.53693 9.40348 9.53693 9.61777V9.98313C9.53693 10.1001 9.58341 10.2123 9.66613 10.2951C9.74886 10.3778 9.86106 10.4243 9.97805 10.4243H11.1529V9.24937C11.1529 9.19144 11.1415 9.13408 11.1194 9.08056C11.0972 9.02704 11.0647 8.97841 11.0237 8.93745C10.9828 8.89649 10.9341 8.864 10.8806 8.84183C10.8271 8.81966 10.7697 8.80825 10.7118 8.80825H10.3449C10.1306 8.80825 9.92512 8.72312 9.77359 8.57159C9.62206 8.42006 9.53693 8.21455 9.53693 8.00025H9.53853C9.53853 7.78596 9.62366 7.58044 9.77519 7.42891C9.92672 7.27738 10.1322 7.19225 10.3465 7.19225" fill="#003EC5"/>
</g>
<defs>
<clipPath id="clip0_8504_11842">
<rect width="16" height="16" fill="white" transform="translate(0.729004 0.000244141)"/>
</clipPath>
</defs>
</svg>
