<svg width="12" height="16" viewBox="0 0 12 16" fill="none" xmlns="http://www.w3.org/2000/svg">
<g clip-path="url(#clip0_8504_11872)">
<path d="M5.50146 7.99915L11.4672 11.4163C11.5151 11.4451 11.5699 11.4606 11.6258 11.4613C11.6817 11.4619 11.7368 11.4477 11.7854 11.42C11.834 11.3923 11.8744 11.3521 11.9023 11.3037C11.9302 11.2552 11.9448 11.2002 11.9444 11.1443V4.84926C11.9451 4.79323 11.9308 4.73804 11.9028 4.68946C11.8749 4.64089 11.8344 4.60072 11.7856 4.57315C11.7368 4.54559 11.6815 4.53164 11.6255 4.53278C11.5695 4.53391 11.5148 4.55009 11.4672 4.57961L5.50146 7.99915Z" fill="#31CB9E"/>
<path d="M11.3408 3.06666L7.26264 0.0671111C7.22041 0.0346937 7.17086 0.0131615 7.11835 0.0044127C7.06584 -0.00433613 7.01198 -3.30248e-05 6.96153 0.0169427C6.91107 0.0339185 6.86557 0.0630456 6.82902 0.101757C6.79248 0.140468 6.76602 0.187574 6.75198 0.238923L5.26294 6.9205L11.305 3.57971C11.351 3.55606 11.3901 3.52096 11.4185 3.47779C11.447 3.43462 11.4638 3.38485 11.4674 3.33327C11.471 3.2817 11.4612 3.23006 11.4391 3.18336C11.4169 3.13666 11.383 3.09647 11.3408 3.06666Z" fill="#31CB9E"/>
<path d="M7.25787 15.9287L11.3408 12.9291C11.3836 12.899 11.418 12.8584 11.4406 12.8113C11.4632 12.7641 11.4733 12.7119 11.47 12.6596C11.4666 12.6074 11.4499 12.5569 11.4214 12.513C11.393 12.4691 11.3537 12.4333 11.3074 12.4089L5.26294 9.06812L6.75198 15.7497C6.76433 15.8016 6.78938 15.8496 6.82489 15.8895C6.8604 15.9293 6.90524 15.9597 6.9554 15.9779C7.00556 15.9961 7.05945 16.0016 7.11225 15.9938C7.16504 15.9861 7.21508 15.9653 7.25787 15.9334" fill="#31CB9E"/>
<path d="M3.95058 7.87505L5.50166 0.620765C5.5135 0.560651 5.50714 0.498369 5.48338 0.441892C5.45963 0.385414 5.41956 0.337311 5.3683 0.30374C5.31705 0.270168 5.25694 0.252656 5.19568 0.253443C5.13441 0.254231 5.07478 0.273284 5.0244 0.308162L1.05125 3.35544C0.950639 3.43263 0.86922 3.53201 0.81334 3.64584C0.757461 3.75966 0.728631 3.88486 0.729099 4.01167V11.7432C0.727147 11.8716 0.755263 11.9987 0.811199 12.1143C0.867136 12.2299 0.949343 12.3308 1.05125 12.409L5.00531 15.4467C5.05569 15.4816 5.11532 15.5006 5.17659 15.5014C5.23785 15.5022 5.29796 15.4847 5.34921 15.4511C5.40047 15.4176 5.44054 15.3695 5.46429 15.313C5.48805 15.2565 5.49441 15.1942 5.48257 15.1341L3.95058 7.87505Z" fill="#31CB9E"/>
</g>
<defs>
<clipPath id="clip0_8504_11872">
<rect width="11.2155" height="16" fill="white" transform="translate(0.729004 0.000244141)"/>
</clipPath>
</defs>
</svg>
