<svg width="17" height="16" viewBox="0 0 17 16" fill="none" xmlns="http://www.w3.org/2000/svg">
<g clip-path="url(#clip0_8504_11867)">
<path d="M16.7108 0.0183105H0.74707V15.982H16.7108V0.0183105Z" fill="black" stroke="black" stroke-miterlimit="10"/>
<path d="M14.2837 4.62237C14.095 4.47362 13.8701 4.27044 13.4601 4.21965C13.0755 4.16886 12.6837 4.42645 12.4188 4.59697C12.154 4.76749 11.6533 5.26817 11.4465 5.42055C11.2397 5.57293 10.71 5.71443 9.85738 6.226C9.00477 6.73756 5.65964 8.8854 5.65964 8.8854L6.53039 8.89628L2.6483 10.8954H3.03651L2.47778 11.3199C2.47778 11.3199 2.97121 11.4505 3.38481 11.1893V11.309C3.38481 11.309 8.00704 9.48767 8.89955 9.95932L8.35533 10.119C8.4025 10.119 9.28051 10.177 9.28051 10.177C9.30182 10.3588 9.36293 10.5337 9.4595 10.6892C9.55607 10.8447 9.68572 10.9771 9.83924 11.0768C10.3689 11.4251 10.3798 11.6174 10.3798 11.6174C10.3798 11.6174 10.1041 11.7298 10.1041 11.8713C10.1041 11.8713 10.5104 11.748 10.8878 11.7589C11.1272 11.7679 11.3648 11.8057 11.5952 11.8713C11.5952 11.8713 11.5662 11.719 11.1998 11.6174C10.8333 11.5158 10.4705 11.1167 10.2928 10.899C10.1839 10.7604 10.1129 10.5959 10.0868 10.4216C10.0607 10.2473 10.0804 10.0693 10.144 9.9049C10.271 9.57474 10.7136 9.39334 11.6279 8.92168C12.7054 8.36295 12.9522 7.94935 13.1045 7.62645C13.2569 7.30354 13.4819 6.66137 13.6088 6.36024C13.7685 5.97203 13.9644 5.76522 14.1277 5.64187C14.2909 5.51851 15.0166 5.24641 15.0166 5.24641C15.0166 5.24641 14.4615 4.76387 14.2837 4.62237Z" fill="white"/>
</g>
<defs>
<clipPath id="clip0_8504_11867">
<rect width="16" height="16" fill="white" transform="translate(0.729004 0.000244141)"/>
</clipPath>
</defs>
</svg>
