<svg width="17" height="16" viewBox="0 0 17 16" fill="none" xmlns="http://www.w3.org/2000/svg">
<g clip-path="url(#clip0_8504_11911)">
<path fill-rule="evenodd" clip-rule="evenodd" d="M7.49278 6.5421C7.44585 6.54307 7.39978 6.52946 7.36091 6.50315C7.32203 6.47684 7.29227 6.43913 7.27573 6.3952C7.25918 6.35127 7.25666 6.3033 7.26852 6.25788C7.28038 6.21246 7.30602 6.17184 7.34193 6.1416C7.7233 5.82018 8.0529 5.44195 8.31915 5.0202C8.50738 4.69046 8.81177 4.52091 9.1295 4.56363C9.16079 4.56562 9.19135 4.57403 9.21925 4.58834C9.24715 4.60266 9.27181 4.62257 9.29168 4.64684C9.31154 4.6711 9.3262 4.6992 9.33473 4.72938C9.34326 4.75956 9.34547 4.79117 9.34125 4.82224C9.33702 4.85332 9.32643 4.88319 9.31015 4.90999C9.29386 4.93679 9.27223 4.95995 9.2466 4.97803C9.22097 4.9961 9.19189 5.0087 9.16118 5.01503C9.13047 5.02137 9.09878 5.02131 9.06809 5.01486C8.88252 4.9895 8.75837 5.16839 8.71298 5.24582C8.42383 5.71122 8.06345 6.12836 7.64497 6.48203C7.60369 6.52062 7.54929 6.54209 7.49278 6.5421ZM3.65865 10.3963C3.61241 10.3957 3.56744 10.381 3.5297 10.3543C3.49196 10.3276 3.46322 10.29 3.4473 10.2466C3.43138 10.2032 3.42902 10.1559 3.44054 10.1111C3.45206 10.0663 3.47691 10.0261 3.5118 9.99576C3.77615 9.78758 4.05647 9.60054 4.35019 9.43639C4.40181 9.4192 4.45789 9.42112 4.50822 9.44182C4.55854 9.46251 4.59975 9.5006 4.62435 9.54914C4.64894 9.59768 4.65527 9.65343 4.6422 9.70625C4.62912 9.75907 4.5975 9.80543 4.55311 9.83689C4.29138 9.98544 4.04104 10.1532 3.80417 10.3389C3.76338 10.3731 3.7119 10.392 3.65865 10.3923" fill="#28646E"/>
<path fill-rule="evenodd" clip-rule="evenodd" d="M9.37785 8.23681C9.46863 8.32091 9.57409 8.28487 9.67021 8.19275C10.3297 7.56263 11.0279 6.57873 11.2602 6.06609C11.2683 6.04052 11.2815 6.01685 11.299 5.99651C11.3165 5.97616 11.3379 5.95957 11.362 5.94772C11.386 5.93587 11.4123 5.92902 11.4391 5.92756C11.4658 5.92611 11.4926 5.93009 11.5179 5.93927C11.6447 5.99 11.6433 6.20627 11.5285 6.44523C11.1331 7.25436 10.6052 7.99166 9.96659 8.62663C9.94856 8.6429 9.93415 8.66277 9.92428 8.68496C9.91442 8.70716 9.90932 8.73117 9.90932 8.75545C9.90932 8.77974 9.91442 8.80375 9.92428 8.82594C9.93415 8.84814 9.94856 8.86801 9.96659 8.88428C10.04 8.9497 10.1602 8.94569 10.271 8.83222C10.6269 8.48004 10.9533 8.09917 11.2469 7.69346C11.2671 7.65423 11.2991 7.62226 11.3383 7.60194C11.3775 7.58162 11.422 7.57395 11.4658 7.57999C11.5753 7.60135 11.5926 7.70681 11.5592 7.83364C11.5045 8.03789 10.9291 8.7935 10.7008 9.04715C10.0827 9.73735 9.46463 10.1152 8.27514 10.7333C7.86396 10.9469 7.5529 11.1565 7.35933 11.4809C7.18711 11.7692 7.13638 11.864 7.11903 11.9001C7.08734 11.9684 7.08341 12.0464 7.10806 12.1176C7.13271 12.1888 7.18402 12.2477 7.25119 12.2819C7.28456 12.2979 7.32077 12.3072 7.35774 12.3091C7.39471 12.3111 7.4317 12.3057 7.46658 12.2933C7.50145 12.2809 7.53353 12.2617 7.56095 12.2368C7.58837 12.2119 7.61059 12.1819 7.62633 12.1484C7.62633 12.1484 7.62633 12.1377 7.62633 12.1337C7.62633 12.1297 7.61832 12.1337 7.8426 11.7599C8.01004 11.4891 8.25392 11.274 8.54347 11.1418C9.73697 10.5984 10.2242 10.1699 10.9158 9.47836C11.2416 9.10955 11.5325 8.71135 11.7849 8.28887C12.1173 7.72817 11.9424 7.2489 11.642 7.16747C11.6324 7.16466 11.6242 7.15822 11.6192 7.1495C11.6142 7.14079 11.6128 7.13048 11.6153 7.12074C11.6147 7.11721 11.6147 7.1136 11.6153 7.11006C11.7902 6.83729 11.9196 6.53791 11.9985 6.22362C12.0572 5.93393 11.9744 5.58149 11.5779 5.49605C11.5681 5.49381 11.5595 5.48781 11.554 5.47933C11.5485 5.47085 11.5466 5.46056 11.5486 5.45066C11.5739 5.35854 11.5993 5.2424 11.6153 5.1663C11.6568 5.00461 11.6341 4.83312 11.552 4.68779C11.4699 4.54245 11.3347 4.43454 11.1748 4.38666C11.0829 4.36668 10.9878 4.36635 10.8958 4.38567C10.8038 4.405 10.7169 4.44355 10.6408 4.4988C10.6302 4.50603 10.6173 4.5092 10.6046 4.50773C10.5918 4.50626 10.58 4.50024 10.5713 4.49079C10.5333 4.44959 10.4873 4.41652 10.4362 4.39357C10.385 4.37063 10.3297 4.35829 10.2736 4.35729C10.024 4.35729 9.77969 4.42938 9.60614 4.81253C9.47264 5.07953 9.28707 5.45466 8.7277 6.07544C8.21941 6.61356 7.65098 7.09151 7.03359 7.49989C6.95482 7.55062 6.84535 7.5386 6.85737 7.43447C6.87873 7.26759 7.05762 6.14085 7.09233 5.81511C7.14172 5.28111 6.85336 5.0328 6.52896 4.99008C6.26195 4.95404 5.86145 5.03013 5.63717 5.63756C5.38192 6.2485 5.17133 6.87716 5.00705 7.51858C4.83336 8.28104 4.8161 9.07082 4.95632 9.84014C4.96599 9.89346 4.95603 9.94847 4.92829 9.995C4.71315 10.3176 4.51916 10.6539 4.34756 11.0016C4.31889 11.0665 4.31516 11.1397 4.33708 11.2072C4.359 11.2747 4.40504 11.3317 4.46638 11.3674C4.53161 11.4028 4.60816 11.4109 4.67939 11.3902C4.75063 11.3695 4.81081 11.3214 4.84685 11.2566L4.85486 11.2406C4.9403 11.0603 5.12186 10.7199 5.18594 10.5731C5.27309 10.4077 5.35065 10.2374 5.41823 10.0631C5.4627 9.91733 5.4627 9.76162 5.41823 9.61586C5.30677 8.99615 5.32267 8.36023 5.46496 7.74686C5.64781 7.03795 5.87067 6.33996 6.13246 5.65625C6.20055 5.48804 6.29667 5.43597 6.39946 5.44532C6.50226 5.45466 6.67981 5.50005 6.62775 5.84582C6.53296 6.45858 6.39946 7.23689 6.36075 7.49989C6.33939 7.63339 6.31536 7.92842 6.55165 8.06593C6.73722 8.17273 6.94147 8.11399 7.16575 7.96313C7.86691 7.488 8.51381 6.93735 9.09483 6.32108C9.67022 5.67494 9.85311 5.28912 10.0013 4.94069C10.0278 4.88647 10.0726 4.84336 10.1278 4.81894C10.183 4.79452 10.245 4.79036 10.303 4.80719C10.3644 4.82454 10.4365 4.90731 10.3871 5.0822C10.2536 5.50806 9.73296 6.48128 8.72103 7.39442C8.69847 7.41011 8.67941 7.43029 8.66504 7.45371C8.65067 7.47713 8.64131 7.50328 8.63755 7.53049C8.63378 7.55771 8.6357 7.58541 8.64317 7.61185C8.65065 7.63829 8.66352 7.6629 8.68098 7.68412C8.69862 7.7036 8.72015 7.71916 8.74418 7.72982C8.76821 7.74047 8.7942 7.74598 8.82049 7.74598C8.84677 7.74598 8.87276 7.74047 8.89679 7.72982C8.92082 7.71916 8.94235 7.7036 8.95999 7.68412C9.6582 7.06973 10.221 6.31687 10.6127 5.47335C10.6905 5.30804 10.7569 5.13767 10.8116 4.96338C10.8228 4.90982 10.8531 4.86214 10.8968 4.82923C10.9405 4.79632 10.9947 4.78042 11.0493 4.78449C11.1601 4.80719 11.2335 4.91799 11.1988 5.1089C11.1419 5.34747 11.0586 5.57897 10.9505 5.79909C10.6595 6.41853 10.0427 7.24757 9.37785 7.95913C9.35922 7.97672 9.34439 7.99793 9.33424 8.02146C9.3241 8.04499 9.31887 8.07034 9.31887 8.09596C9.31887 8.12159 9.3241 8.14694 9.33424 8.17047C9.34439 8.194 9.35922 8.21521 9.37785 8.2328V8.23681ZM5.26471 5.15295C5.29942 5.12225 5.28607 5.0822 5.27672 5.05149C5.22733 4.89396 4.94831 4.23981 4.87622 4.10898C4.87139 4.09634 4.86405 4.0848 4.85464 4.07508C4.84523 4.06535 4.83394 4.05764 4.82146 4.0524C4.80898 4.04716 4.79557 4.0445 4.78204 4.04459C4.76851 4.04468 4.75513 4.04751 4.74272 4.05291C4.64415 4.10363 4.55407 4.16939 4.47572 4.24782C4.38693 4.31639 4.30984 4.3989 4.24744 4.49213C4.2411 4.50341 4.23708 4.51584 4.23559 4.52869C4.23411 4.54154 4.23521 4.55456 4.23881 4.56699C4.24241 4.57942 4.24846 4.591 4.25658 4.60107C4.26471 4.61114 4.27476 4.61948 4.28615 4.62563C4.4063 4.71641 5.01907 5.07819 5.16725 5.14628C5.19796 5.16096 5.23534 5.17965 5.27005 5.14628L5.26471 5.15295ZM3.92971 5.37323C3.85361 5.37323 3.82157 5.40527 3.81223 5.45733C3.80346 5.56922 3.81202 5.6818 3.83759 5.79108C3.85069 5.90229 3.88086 6.01081 3.92704 6.11282C3.93973 6.13553 3.96076 6.15241 3.98567 6.15989C4.01059 6.16736 4.03744 6.16484 4.06054 6.15287C4.19404 6.0968 4.82683 5.76171 4.963 5.67093C4.99103 5.65224 5.02574 5.62955 5.01773 5.58282L3.92971 5.37323ZM10.311 10.9469C10.2643 10.9469 10.2509 10.9909 10.2389 11.0216C10.1829 11.1751 10.008 11.8653 9.98528 12.0135C9.98126 12.0265 9.97995 12.0402 9.98145 12.0537C9.98295 12.0672 9.98721 12.0802 9.99398 12.092C10.0007 12.1038 10.0099 12.114 10.0208 12.1221C10.0317 12.1302 10.0441 12.136 10.0574 12.139C10.1678 12.1602 10.2809 12.1638 10.3925 12.1497C10.5045 12.1484 10.6157 12.1299 10.7222 12.095C10.7346 12.0899 10.7459 12.0823 10.7553 12.0728C10.7647 12.0633 10.7722 12.052 10.7772 12.0395C10.7821 12.0271 10.7846 12.0137 10.7843 12.0003C10.784 11.9869 10.7811 11.9737 10.7756 11.9615C10.7342 11.8173 10.4685 11.1605 10.3925 11.0123C10.3764 10.9829 10.3577 10.9455 10.311 10.9482V10.9469ZM10.7115 10.6278C10.6888 10.6692 10.7115 10.7012 10.7369 10.7266C10.8397 10.8601 11.3376 11.3634 11.4524 11.4595C11.4618 11.4694 11.4731 11.4773 11.4856 11.4827C11.4981 11.4881 11.5116 11.4908 11.5252 11.4908C11.5388 11.4908 11.5523 11.4881 11.5648 11.4827C11.5773 11.4773 11.5886 11.4694 11.598 11.4595C11.6728 11.3762 11.7341 11.2815 11.7795 11.1792C11.8357 11.0821 11.8759 10.9766 11.8983 10.8668C11.8983 10.8134 11.885 10.7706 11.8116 10.7506C11.6674 10.7106 10.9652 10.5958 10.801 10.5864C10.7676 10.5864 10.7262 10.5864 10.7048 10.6211L10.7115 10.6278ZM8.27113 14.4526C8.2714 14.5031 8.25663 14.5526 8.22872 14.5947C8.2008 14.6369 8.16099 14.6698 8.11434 14.6892C8.0677 14.7087 8.01632 14.7139 7.96673 14.7041C7.91715 14.6943 7.87159 14.6699 7.83585 14.6342C7.80011 14.5985 7.7758 14.5529 7.766 14.5033C7.7562 14.4537 7.76137 14.4024 7.78083 14.3557C7.8003 14.3091 7.83318 14.2693 7.87532 14.2413C7.91746 14.2134 7.96694 14.1987 8.01748 14.1989C8.05079 14.1989 8.08378 14.2055 8.11455 14.2182C8.14532 14.231 8.17329 14.2497 8.19684 14.2732C8.22039 14.2968 8.23908 14.3247 8.25183 14.3555C8.26457 14.3863 8.27113 14.4193 8.27113 14.4526ZM8.27113 1.54845C8.27113 1.59893 8.25614 1.64829 8.22807 1.69025C8.19999 1.73221 8.16009 1.76489 8.11342 1.78415C8.06675 1.80341 8.01541 1.80838 7.96591 1.79843C7.91641 1.78848 7.87098 1.76406 7.83537 1.72827C7.79977 1.69248 7.77559 1.64692 7.7659 1.59737C7.75621 1.54782 7.76145 1.49651 7.78096 1.44994C7.80046 1.40337 7.83335 1.36364 7.87546 1.33578C7.91757 1.30793 7.967 1.2932 8.01748 1.29346C8.05091 1.29346 8.084 1.30007 8.11486 1.3129C8.14572 1.32573 8.17374 1.34453 8.19731 1.36822C8.22089 1.39192 8.23954 1.42004 8.25221 1.45097C8.26488 1.4819 8.27131 1.51502 8.27113 1.54845ZM9.93188 14.1669C9.94467 14.2153 9.94282 14.2665 9.92656 14.3139C9.9103 14.3613 9.88035 14.4029 9.84051 14.4333C9.80067 14.4637 9.75271 14.4816 9.70269 14.4848C9.65267 14.4879 9.60283 14.4762 9.55946 14.4511C9.5161 14.426 9.48115 14.3886 9.45902 14.3436C9.4369 14.2986 9.4286 14.2481 9.43516 14.1984C9.44172 14.1487 9.46286 14.1021 9.49591 14.0644C9.52895 14.0267 9.57242 13.9997 9.62082 13.9867C9.65308 13.978 9.68673 13.9758 9.71985 13.9802C9.75296 13.9845 9.78489 13.9954 9.81379 14.0122C9.84269 14.0289 9.868 14.0512 9.88827 14.0777C9.90853 14.1043 9.92335 14.1346 9.93188 14.1669ZM6.59437 1.70197C6.60314 1.73423 6.60546 1.7679 6.60122 1.80105C6.59697 1.83421 6.58624 1.86621 6.56962 1.89522C6.55301 1.92422 6.53085 1.94968 6.5044 1.97012C6.47795 1.99056 6.44774 2.0056 6.41548 2.01436C6.38322 2.02313 6.34955 2.02545 6.3164 2.02121C6.28324 2.01696 6.25124 2.00623 6.22224 1.98961C6.19323 1.973 6.16778 1.95084 6.14733 1.92439C6.12689 1.89794 6.11186 1.86773 6.10309 1.83547C6.08539 1.77032 6.09429 1.70081 6.12784 1.64223C6.16139 1.58364 6.21683 1.54078 6.28198 1.52308C6.34713 1.50538 6.41664 1.51428 6.47522 1.54783C6.53381 1.58138 6.57667 1.63682 6.59437 1.70197ZM11.4645 13.4607C11.4819 13.4895 11.4934 13.5216 11.4984 13.555C11.5033 13.5884 11.5015 13.6224 11.4931 13.6551C11.4847 13.6878 11.4698 13.7184 11.4494 13.7453C11.429 13.7722 11.4035 13.7947 11.3743 13.8116C11.345 13.8285 11.3128 13.8393 11.2793 13.8436C11.2458 13.8478 11.2118 13.8453 11.1793 13.8363C11.1468 13.8272 11.1164 13.8118 11.09 13.7908C11.0635 13.7699 11.0415 13.7439 11.0252 13.7143C10.9932 13.6562 10.9853 13.5878 11.0031 13.5238C11.0209 13.4599 11.0631 13.4055 11.1206 13.3723C11.1781 13.3391 11.2463 13.3297 11.3106 13.3463C11.3749 13.3628 11.4301 13.4039 11.4645 13.4607ZM5.01106 2.28537C5.02806 2.31403 5.03926 2.34576 5.044 2.37875C5.04874 2.41174 5.04694 2.44534 5.03869 2.47764C5.03045 2.50993 5.01593 2.54028 4.99595 2.56696C4.97598 2.59364 4.95094 2.61613 4.92228 2.63314C4.86439 2.66748 4.79523 2.67742 4.73001 2.66077C4.66479 2.64412 4.60886 2.60225 4.57451 2.54436C4.54248 2.48621 4.53452 2.41783 4.55235 2.35388C4.57017 2.28993 4.61235 2.23552 4.66983 2.20232C4.72732 2.16912 4.79553 2.15978 4.85983 2.17631C4.92412 2.19283 4.97937 2.2339 5.01373 2.29071L5.01106 2.28537ZM12.7567 12.3887C12.8044 12.4363 12.8311 12.5009 12.8311 12.5682C12.8311 12.6356 12.8044 12.7002 12.7567 12.7478C12.7091 12.7954 12.6445 12.8222 12.5772 12.8222C12.5098 12.8222 12.4452 12.7954 12.3976 12.7478C12.35 12.7002 12.3232 12.6356 12.3232 12.5682C12.3232 12.5009 12.35 12.4363 12.3976 12.3887C12.4452 12.341 12.5098 12.3143 12.5772 12.3143C12.6445 12.3143 12.7091 12.341 12.7567 12.3887ZM3.63467 3.25858C3.68229 3.30621 3.70905 3.37079 3.70905 3.43814C3.70905 3.50549 3.68229 3.57008 3.63467 3.6177C3.58705 3.66532 3.52246 3.69207 3.45511 3.69207C3.38777 3.69207 3.32318 3.66532 3.27556 3.6177C3.22793 3.57008 3.20118 3.50549 3.20118 3.43814C3.20118 3.37079 3.22793 3.30621 3.27556 3.25858C3.32318 3.21096 3.38777 3.18421 3.45511 3.18421C3.52246 3.18421 3.58705 3.21096 3.63467 3.25858ZM13.7313 11.0016C13.7901 11.0345 13.8334 11.0895 13.8516 11.1543C13.8699 11.2191 13.8617 11.2886 13.8287 11.3474C13.7958 11.4061 13.7409 11.4494 13.676 11.4677C13.6112 11.486 13.5418 11.4777 13.483 11.4448C13.4246 11.4112 13.3819 11.3557 13.3644 11.2906C13.3468 11.2255 13.3559 11.1561 13.3895 11.0977C13.4232 11.0393 13.4786 10.9966 13.5437 10.9791C13.6088 10.9616 13.6782 10.9706 13.7366 11.0043L13.7313 11.0016ZM2.55332 4.55487C2.58287 4.57115 2.60888 4.59316 2.62982 4.61962C2.65076 4.64608 2.66622 4.67645 2.67527 4.70895C2.68433 4.74145 2.68681 4.77543 2.68257 4.80891C2.67834 4.84238 2.66746 4.87467 2.65059 4.90389C2.63371 4.93311 2.61118 4.95867 2.5843 4.97907C2.55743 4.99947 2.52675 5.01431 2.49408 5.02271C2.4614 5.03111 2.42737 5.0329 2.39399 5.02799C2.36061 5.02307 2.32854 5.01155 2.29967 4.99409C2.24287 4.95973 2.20179 4.90448 2.18527 4.84018C2.16874 4.77589 2.17808 4.70768 2.21128 4.65019C2.24448 4.5927 2.29889 4.55052 2.36284 4.5327C2.42679 4.51488 2.49517 4.52284 2.55332 4.55487ZM14.3147 9.42496C14.38 9.44125 14.4362 9.48282 14.4709 9.54052C14.5055 9.59823 14.5159 9.66735 14.4996 9.73268C14.4833 9.798 14.4417 9.85418 14.384 9.88886C14.3263 9.92353 14.2572 9.93386 14.1919 9.91757H14.1839C14.1517 9.90881 14.1216 9.89379 14.0952 9.87338C14.0688 9.85297 14.0467 9.82757 14.0302 9.79862C14.0136 9.76968 14.003 9.73775 13.9987 9.70468C13.9945 9.6716 13.9969 9.63802 14.0056 9.60585C14.0144 9.57368 14.0294 9.54355 14.0498 9.51718C14.0702 9.49082 14.0956 9.46873 14.1246 9.45218C14.1535 9.43563 14.1855 9.42494 14.2185 9.42073C14.2516 9.41652 14.2852 9.41886 14.3174 9.42763L14.3147 9.42496ZM1.85378 6.09012C1.9191 6.10783 1.97472 6.15075 2.00839 6.20946C2.04207 6.26817 2.05104 6.33786 2.03334 6.40318C2.01563 6.46851 1.9727 6.52412 1.91399 6.5578C1.85529 6.59147 1.7856 6.60044 1.72028 6.58274C1.65862 6.56204 1.6072 6.51856 1.57654 6.46119C1.54589 6.40383 1.53831 6.33691 1.55537 6.27415C1.57243 6.21138 1.61282 6.15751 1.6683 6.12354C1.72377 6.08958 1.79012 6.07811 1.85378 6.09146V6.09012ZM14.4695 7.74286C14.5197 7.74286 14.5688 7.75773 14.6105 7.7856C14.6522 7.81348 14.6847 7.85309 14.7039 7.89944C14.7231 7.94579 14.7281 7.99679 14.7183 8.04599C14.7085 8.09519 14.6844 8.14039 14.6489 8.17586C14.6134 8.21134 14.5682 8.2355 14.519 8.24528C14.4698 8.25507 14.4188 8.25005 14.3725 8.23085C14.3261 8.21165 14.2865 8.17914 14.2586 8.13743C14.2308 8.09571 14.2159 8.04667 14.2159 7.99651C14.2159 7.9632 14.2225 7.93021 14.2352 7.89944C14.248 7.86866 14.2666 7.8407 14.2902 7.81715C14.3137 7.79359 14.3417 7.77491 14.3725 7.76216C14.4033 7.74942 14.4362 7.74286 14.4695 7.74286ZM1.56542 7.74286C1.59873 7.74286 1.63171 7.74942 1.66249 7.76216C1.69326 7.77491 1.72122 7.79359 1.74478 7.81715C1.76833 7.8407 1.78701 7.86866 1.79976 7.89944C1.81251 7.93021 1.81907 7.9632 1.81907 7.99651C1.81907 8.02982 1.81251 8.0628 1.79976 8.09357C1.78701 8.12435 1.76833 8.15231 1.74478 8.17586C1.72122 8.19942 1.69326 8.2181 1.66249 8.23085C1.63171 8.2436 1.59873 8.25016 1.56542 8.25016C1.49815 8.25016 1.43363 8.22343 1.38606 8.17586C1.33849 8.1283 1.31177 8.06378 1.31177 7.99651C1.31177 7.92923 1.33849 7.86472 1.38606 7.81715C1.43363 7.76958 1.49815 7.74286 1.56542 7.74286ZM14.1839 6.08078C14.2473 6.06718 14.3134 6.07838 14.3688 6.11207C14.4242 6.14577 14.4646 6.19939 14.4817 6.26194C14.4988 6.32448 14.4913 6.3912 14.4607 6.44838C14.4302 6.50556 14.3789 6.54886 14.3174 6.56939H14.3107C14.2455 6.58709 14.176 6.57819 14.1174 6.54464C14.0589 6.51109 14.016 6.45565 13.9983 6.3905C13.9806 6.32535 13.9895 6.25584 14.023 6.19725C14.0566 6.13867 14.112 6.09581 14.1772 6.07811L14.1839 6.08078ZM1.71227 9.41561C1.74499 9.40469 1.77959 9.40056 1.81396 9.40346C1.84833 9.40637 1.88175 9.41626 1.91217 9.43252C1.94259 9.44878 1.96938 9.47108 1.99088 9.49805C2.01239 9.52501 2.02818 9.55608 2.03727 9.58936C2.04636 9.62263 2.04857 9.65741 2.04376 9.69157C2.03895 9.72573 2.02723 9.75854 2.0093 9.78802C1.99138 9.81749 1.96763 9.84299 1.93951 9.86298C1.91139 9.88296 1.8795 9.89699 1.84577 9.90422C1.7808 9.92193 1.71146 9.9131 1.653 9.87967C1.59454 9.84625 1.55175 9.79097 1.53405 9.726C1.51634 9.66103 1.52517 9.59169 1.5586 9.53323C1.59202 9.47477 1.6473 9.43198 1.71227 9.41428V9.41561ZM13.471 4.54419C13.4998 4.52673 13.5319 4.5152 13.5653 4.51029C13.5987 4.50537 13.6327 4.50717 13.6654 4.51557C13.6981 4.52397 13.7287 4.5388 13.7556 4.5592C13.7825 4.57961 13.805 4.60516 13.8219 4.63438C13.8388 4.6636 13.8496 4.69589 13.8539 4.72937C13.8581 4.76284 13.8556 4.79683 13.8466 4.82933C13.8375 4.86183 13.8221 4.8922 13.8011 4.91866C13.7802 4.94511 13.7542 4.96713 13.7246 4.98341C13.6665 5.01544 13.5981 5.02339 13.5341 5.00557C13.4702 4.98775 13.4158 4.94557 13.3826 4.88809C13.3494 4.8306 13.34 4.76239 13.3566 4.69809C13.3731 4.6338 13.4142 4.57854 13.471 4.54419ZM2.30234 11.0056C2.34573 10.9799 2.39582 10.9677 2.44619 10.9705C2.49656 10.9734 2.54493 10.9912 2.58511 11.0217C2.62529 11.0523 2.65546 11.0941 2.67177 11.1418C2.68807 11.1895 2.68977 11.2411 2.67664 11.2898C2.66351 11.3385 2.63615 11.3822 2.59806 11.4153C2.55997 11.4484 2.51288 11.4693 2.46281 11.4755C2.41273 11.4817 2.36196 11.4728 2.31696 11.45C2.27197 11.4271 2.23481 11.3914 2.21022 11.3474C2.17753 11.2893 2.16886 11.2207 2.18608 11.1564C2.20329 11.092 2.24502 11.0369 2.30234 11.0029V11.0056ZM12.4003 3.25992C12.4358 3.2245 12.481 3.2004 12.5302 3.19066C12.5794 3.18092 12.6303 3.18597 12.6767 3.20519C12.723 3.2244 12.7625 3.25691 12.7904 3.29861C12.8182 3.34031 12.8331 3.38933 12.8331 3.43948C12.8331 3.48962 12.8182 3.53864 12.7904 3.58034C12.7625 3.62204 12.723 3.65455 12.6767 3.67376C12.6303 3.69298 12.5794 3.69804 12.5302 3.68829C12.481 3.67855 12.4358 3.65445 12.4003 3.61903C12.3529 3.57128 12.3264 3.50674 12.3264 3.43948C12.3264 3.37221 12.3529 3.30768 12.4003 3.25992ZM3.27556 12.3833C3.31105 12.3479 3.35625 12.3238 3.40544 12.3141C3.45462 12.3043 3.5056 12.3094 3.55191 12.3286C3.59823 12.3478 3.63781 12.3803 3.66566 12.422C3.6935 12.4637 3.70836 12.5127 3.70836 12.5629C3.70836 12.613 3.6935 12.662 3.66566 12.7037C3.63781 12.7454 3.59823 12.778 3.55191 12.7972C3.5056 12.8164 3.45462 12.8214 3.40544 12.8117C3.35625 12.802 3.31105 12.7779 3.27556 12.7424C3.25178 12.719 3.2329 12.691 3.22002 12.6602C3.20714 12.6294 3.2005 12.5963 3.2005 12.5629C3.2005 12.5295 3.20714 12.4964 3.22002 12.4656C3.2329 12.4348 3.25178 12.4068 3.27556 12.3833ZM11.0186 2.28537C11.0437 2.24198 11.0811 2.20701 11.126 2.18485C11.171 2.1627 11.2215 2.15437 11.2712 2.1609C11.3209 2.16744 11.3675 2.18855 11.4052 2.22157C11.4429 2.25459 11.47 2.29804 11.4831 2.34644C11.4961 2.39484 11.4945 2.44602 11.4785 2.49351C11.4624 2.541 11.4327 2.58267 11.393 2.61327C11.3533 2.64388 11.3054 2.66203 11.2554 2.66545C11.2054 2.66886 11.1555 2.65739 11.112 2.63247C11.0538 2.59868 11.0112 2.54322 10.9937 2.47818C10.9762 2.41315 10.9851 2.34384 11.0186 2.28537ZM4.57184 13.4607C4.58735 13.4302 4.60886 13.4032 4.63508 13.3812C4.66129 13.3593 4.69167 13.3429 4.72439 13.333C4.75711 13.3231 4.79149 13.3199 4.82548 13.3236C4.85946 13.3273 4.89234 13.3379 4.92214 13.3546C4.95195 13.3714 4.97806 13.394 4.9989 13.4211C5.01975 13.4482 5.03491 13.4792 5.04346 13.5123C5.05202 13.5454 5.05379 13.5799 5.04868 13.6137C5.04357 13.6475 5.03168 13.6799 5.01373 13.709C4.97937 13.7658 4.92412 13.8069 4.85983 13.8234C4.79553 13.8399 4.72732 13.8306 4.66983 13.7974C4.61235 13.7642 4.57017 13.7098 4.55235 13.6458C4.53452 13.5819 4.54248 13.5135 4.57451 13.4553L4.57184 13.4607ZM9.44193 1.70197C9.44964 1.66954 9.46367 1.63894 9.48321 1.61193C9.50275 1.58492 9.52741 1.56202 9.5558 1.54454C9.58419 1.52706 9.61574 1.51534 9.64866 1.51006C9.68158 1.50477 9.71521 1.50602 9.74765 1.51374C9.78008 1.52145 9.81067 1.53548 9.83769 1.55501C9.8647 1.57455 9.8876 1.59922 9.90508 1.62761C9.92256 1.656 9.93428 1.68755 9.93956 1.72047C9.94485 1.75338 9.94359 1.78702 9.93588 1.81945V1.83414C9.91818 1.89911 9.87539 1.95438 9.81693 1.98781C9.75847 2.02123 9.68913 2.03006 9.62416 2.01236C9.55919 1.99466 9.50391 1.95187 9.47049 1.89341C9.43706 1.83495 9.42823 1.76561 9.44593 1.70064L9.44193 1.70197ZM6.10843 14.1656C6.11658 14.1332 6.13103 14.1028 6.15094 14.076C6.17084 14.0493 6.19583 14.0267 6.22447 14.0096C6.2531 13.9925 6.28483 13.9812 6.31783 13.9763C6.35083 13.9715 6.38447 13.9732 6.41682 13.9813C6.44916 13.9895 6.47958 14.0039 6.50635 14.0238C6.53311 14.0437 6.55569 14.0687 6.5728 14.0974C6.58991 14.126 6.60121 14.1577 6.60605 14.1907C6.6109 14.2237 6.6092 14.2574 6.60105 14.2897C6.58334 14.3547 6.54056 14.41 6.4821 14.4434C6.42364 14.4768 6.35429 14.4856 6.28932 14.4679C6.22435 14.4502 6.16907 14.4074 6.13565 14.349C6.10223 14.2905 6.0934 14.2212 6.1111 14.1562" fill="#28646E"/>
<path d="M8.01751 16.0001C9.59995 16.0001 11.1468 15.5309 12.4626 14.6517C13.7783 13.7725 14.8038 12.5229 15.4093 11.0609C16.0148 9.59886 16.1732 7.99012 15.8643 6.43811C15.5555 4.88609 14.7934 3.46051 13.6744 2.34165C12.5553 1.22279 11.1296 0.460908 9.57754 0.152351C8.02548 -0.156206 6.41677 0.00242441 4.95486 0.608181C3.49296 1.21394 2.24352 2.23961 1.36455 3.55549C0.485588 4.87137 0.0165818 6.41835 0.0168458 8.00079C0.0196723 10.1217 0.863547 12.1549 2.36339 13.6545C3.86323 15.1541 5.89659 15.9976 8.01751 16.0001ZM8.01751 0.676964C9.46602 0.676964 10.882 1.1065 12.0864 1.91125C13.2908 2.716 14.2295 3.85983 14.7838 5.19808C15.3382 6.53633 15.4832 8.00891 15.2006 9.42959C14.918 10.8503 14.2205 12.1553 13.1962 13.1795C12.172 14.2038 10.867 14.9013 9.44632 15.1839C8.02563 15.4665 6.55306 15.3214 5.21481 14.7671C3.87655 14.2128 2.73273 13.2741 1.92798 12.0697C1.12323 10.8653 0.693692 9.4493 0.693692 8.00079C0.695812 6.05904 1.46811 4.19743 2.84113 2.8244C4.21415 1.45138 6.07576 0.679084 8.01751 0.676964Z" fill="#28646E"/>
</g>
<defs>
<clipPath id="clip0_8504_11911">
<rect width="16" height="16" fill="white" transform="translate(0.0168457 0.000244141)"/>
</clipPath>
</defs>
</svg>
