<svg width="19" height="16" viewBox="0 0 19 16" fill="none" xmlns="http://www.w3.org/2000/svg">
<g clip-path="url(#clip0_8504_11935)">
<path d="M14.4619 16.0002L2.07266 7.30324C1.65016 7.00727 1.30522 6.61382 1.06708 6.15623C0.82893 5.69864 0.70459 5.19039 0.70459 4.67453C0.70459 4.15868 0.82893 3.65043 1.06708 3.19284C1.30522 2.73525 1.65016 2.3418 2.07266 2.04583L5.07365 -0.0507812L17.4629 8.64734C17.8852 8.94346 18.2299 9.33696 18.4679 9.79453C18.7059 10.2521 18.8302 10.7603 18.8302 11.276C18.8302 11.7918 18.7059 12.3 18.4679 12.7575C18.2299 13.2151 17.8852 13.6086 17.4629 13.9047L14.4619 16.0002ZM5.07252 1.34772L2.73337 2.98421C2.46146 3.17448 2.23944 3.42753 2.08615 3.72188C1.93286 4.01624 1.85282 4.34322 1.85282 4.6751C1.85282 5.00698 1.93286 5.33396 2.08615 5.62832C2.23944 5.92267 2.46146 6.17572 2.73337 6.36599L14.4653 14.6017L16.8045 12.9664C17.0762 12.7759 17.298 12.5228 17.4511 12.2285C17.6043 11.9342 17.6842 11.6073 17.6842 11.2755C17.6842 10.9437 17.6043 10.6168 17.4511 10.3224C17.298 10.0281 17.0762 9.77501 16.8045 9.58458L5.07252 1.34772Z" fill="#4BC0C8"/>
<path d="M5.06109 14.5937L2.72535 12.9539C2.45366 12.7634 2.23186 12.5103 2.07872 12.216C1.92559 11.9217 1.84564 11.5947 1.84564 11.263C1.84564 10.9312 1.92559 10.6043 2.07872 10.3099C2.23186 10.0156 2.45366 9.76251 2.72535 9.57207L8.77154 5.34484L7.77423 4.64673L2.07144 8.6337C1.64894 8.92966 1.304 9.32311 1.06586 9.7807C0.827709 10.2383 0.703369 10.7465 0.703369 11.2624C0.703369 11.7782 0.827709 12.2865 1.06586 12.7441C1.304 13.2017 1.64894 13.5951 2.07144 13.8911L5.06449 15.9922L8.767 13.4015L7.76969 12.7011L5.06109 14.5937Z" fill="#02819B"/>
<path d="M17.4687 2.05818L14.4745 -0.0429688L10.7686 2.55003L11.7659 3.25042L14.4734 1.36006L16.8103 2.99995C17.0819 3.19039 17.3038 3.44349 17.4569 3.73782C17.61 4.03216 17.69 4.35906 17.69 4.69085C17.69 5.02263 17.61 5.34953 17.4569 5.64387C17.3038 5.9382 17.0819 6.1913 16.8103 6.38174L10.7629 10.6056L11.7602 11.3059L17.4642 7.31558C17.8867 7.01961 18.2316 6.62617 18.4698 6.16857C18.7079 5.71098 18.8322 5.20273 18.8322 4.68688C18.8322 4.17103 18.7079 3.66278 18.4698 3.20518C18.2316 2.74759 17.8867 2.35415 17.4642 2.05818H17.4687Z" fill="#02819B"/>
<path d="M7.49601 4.83519L2.78442 8.13184L3.44128 9.07063L8.15287 5.77398L7.49601 4.83519Z" fill="#02819B"/>
<path d="M16.2005 6.80005L13.9055 8.40708L14.5617 9.34546L16.9416 7.67836C16.6923 7.3905 16.4464 7.09584 16.2005 6.80005Z" fill="#02819B"/>
</g>
<defs>
<clipPath id="clip0_8504_11935">
<rect width="18.1329" height="16" fill="white" transform="translate(0.701416 0.000244141)"/>
</clipPath>
</defs>
</svg>
