<svg width="20" height="16" viewBox="0 0 20 16" fill="none" xmlns="http://www.w3.org/2000/svg">
<g clip-path="url(#clip0_8504_11943)">
<path d="M11.9889 0.154834L10.2474 1.89633L10.605 2.25396C10.6528 2.30238 10.7097 2.34083 10.7724 2.36708C10.8351 2.39332 10.9024 2.40684 10.9704 2.40684C11.0384 2.40684 11.1058 2.39332 11.1685 2.36708C11.2312 2.34083 11.2881 2.30238 11.3358 2.25396L13.0773 0.512463L12.7197 0.154834C12.672 0.106411 12.6151 0.067959 12.5524 0.0417138C12.4896 0.0154685 12.4223 0.00195312 12.3543 0.00195312C12.2863 0.00195313 12.219 0.0154685 12.1563 0.0417138C12.0935 0.067959 12.0366 0.106411 11.9889 0.154834ZM7.55742 0.154834L7.1376 0.512463L8.95684 2.25396C9.00324 2.30192 9.05881 2.34006 9.12025 2.36611C9.18169 2.39216 9.24774 2.40558 9.31447 2.40558C9.3812 2.40558 9.44725 2.39216 9.50869 2.36611C9.57013 2.34006 9.6257 2.30192 9.6721 2.25396L10.0297 1.89633L8.27268 0.154834C8.22628 0.10687 8.17071 0.0687288 8.10928 0.0426804C8.04784 0.016632 7.98179 0.0032084 7.91505 0.0032084C7.84832 0.0032084 7.78227 0.016632 7.72083 0.0426804C7.65939 0.0687288 7.60382 0.10687 7.55742 0.154834ZM13.6371 2.44055L10.3252 5.7525L10.9938 6.43666C11.1767 6.61522 11.4223 6.71516 11.6779 6.71516C11.9336 6.71516 12.1791 6.61522 12.3621 6.43666L15.674 3.10916L15.0054 2.44055C14.8251 2.26297 14.5821 2.16344 14.329 2.16344C14.076 2.16344 13.833 2.26297 13.6527 2.44055H13.6371ZM5.25616 2.44055L4.58755 3.10916L7.8995 6.42111C7.98802 6.51329 8.09425 6.58664 8.21182 6.63674C8.32938 6.68684 8.45586 6.71267 8.58366 6.71267C8.71146 6.71267 8.83794 6.68684 8.95551 6.63674C9.07308 6.58664 9.17931 6.51329 9.26782 6.42111L9.93643 5.7525L6.62448 2.44055C6.44151 2.26199 6.19598 2.16205 5.94032 2.16205C5.68466 2.16205 5.43913 2.26199 5.25616 2.44055ZM9.76539 2.3628L9.42331 2.72043L10.1386 3.43569L10.8538 2.72043L10.4962 2.3628C10.4498 2.31484 10.3942 2.2767 10.3328 2.25065C10.2714 2.2246 10.2053 2.21118 10.1386 2.21118C10.0718 2.21118 10.0058 2.2246 9.94435 2.25065C9.88291 2.2767 9.82734 2.31484 9.78094 2.3628H9.76539ZM15.985 5.67476L10.4651 11.1791L11.5691 12.2987C11.7145 12.454 11.8903 12.5779 12.0856 12.6625C12.2808 12.7472 12.4914 12.7909 12.7042 12.7909C12.917 12.7909 13.1275 12.7472 13.3228 12.6625C13.518 12.5779 13.6938 12.454 13.8393 12.2987L19.3436 6.79429L18.2396 5.67476C18.0942 5.5194 17.9184 5.39556 17.7232 5.3109C17.5279 5.22623 17.3174 5.18255 17.1046 5.18255C16.8917 5.18255 16.6812 5.22623 16.486 5.3109C16.2907 5.39556 16.1149 5.5194 15.9695 5.67476H15.985ZM1.99086 5.67476L0.917969 6.77874L6.42234 12.2987C6.56779 12.454 6.74358 12.5779 6.93882 12.6625C7.13407 12.7472 7.34461 12.7909 7.55742 12.7909C7.77024 12.7909 7.98078 12.7472 8.17603 12.6625C8.37127 12.5779 8.54706 12.454 8.69251 12.2987L9.81204 11.1791L4.30767 5.67476C4.16222 5.5194 3.98643 5.39556 3.79119 5.3109C3.59594 5.22623 3.3854 5.18255 3.17259 5.18255C2.95977 5.18255 2.74923 5.22623 2.55398 5.3109C2.35874 5.39556 2.18295 5.5194 2.0375 5.67476H1.99086ZM9.40776 6.6388L8.73915 7.30741L10.0919 8.66018L11.4913 7.30741L10.8227 6.6388C10.7331 6.54853 10.6265 6.47689 10.5091 6.42801C10.3917 6.37912 10.2658 6.35395 10.1386 6.35395C10.0114 6.35395 9.88545 6.37912 9.76803 6.42801C9.65061 6.47689 9.54402 6.54853 9.45441 6.6388H9.40776ZM9.00349 12.6407L7.88396 13.7447L10.1386 15.9993L12.3776 13.7447L11.2737 12.6407C11.1282 12.4854 10.9524 12.3615 10.7572 12.2769C10.5619 12.1922 10.3514 12.1485 10.1386 12.1485C9.92576 12.1485 9.71521 12.1922 9.51997 12.2769C9.32472 12.3615 9.14893 12.4854 9.00349 12.6407Z" fill="url(#paint0_linear_8504_11943)"/>
</g>
<defs>
<linearGradient id="paint0_linear_8504_11943" x1="7.75568" y1="9.31806" x2="23.049" y2="9.31806" gradientUnits="userSpaceOnUse">
<stop stop-color="#7CB7FF"/>
<stop offset="1" stop-color="#BA6DF6"/>
</linearGradient>
<clipPath id="clip0_8504_11943">
<rect width="18.4257" height="16" fill="white" transform="translate(0.917969 0.000244141)"/>
</clipPath>
</defs>
</svg>
