<svg width="17" height="16" viewBox="0 0 17 16" fill="none" xmlns="http://www.w3.org/2000/svg">
<g clip-path="url(#clip0_8504_10997)">
<path d="M8.62988 16C13.0482 16 16.6299 12.4183 16.6299 8C16.6299 3.58172 13.0482 0 8.62988 0C4.2116 0 0.629883 3.58172 0.629883 8C0.629883 12.4183 4.2116 16 8.62988 16Z" fill="url(#paint0_linear_8504_10997)"/>
<path fill-rule="evenodd" clip-rule="evenodd" d="M6.29785 5.19995V11.2H11.2979L6.29785 5.19995Z" fill="url(#paint1_linear_8504_10997)"/>
<path fill-rule="evenodd" clip-rule="evenodd" d="M1.29785 11.2H6.29785V5.19995L1.29785 11.2Z" fill="white"/>
<path fill-rule="evenodd" clip-rule="evenodd" d="M2.22998 12.8C2.68598 13.404 3.22598 13.944 3.82998 14.4H13.43C14.034 13.944 14.574 13.404 15.03 12.8H2.22998Z" fill="#FC9965"/>
<path fill-rule="evenodd" clip-rule="evenodd" d="M3.82983 14.3999C5.16583 15.4039 6.82983 15.9999 8.62983 15.9999C10.4298 15.9999 12.0938 15.4039 13.4298 14.3999H3.82983Z" fill="#FF2D55"/>
<path fill-rule="evenodd" clip-rule="evenodd" d="M11.3618 8.3999V12.7999H15.0298L11.3618 8.3999Z" fill="url(#paint2_linear_8504_10997)"/>
<path fill-rule="evenodd" clip-rule="evenodd" d="M11.3619 11.2H1.29785C1.54585 11.772 1.86185 12.308 2.22985 12.8H11.3659V11.2H11.3619Z" fill="#FFBC5B"/>
<path fill-rule="evenodd" clip-rule="evenodd" d="M7.69775 12.7999H11.3617V8.3999L7.69775 12.7999Z" fill="white"/>
<path d="M11.3618 7.19995C12.4664 7.19995 13.3618 6.30452 13.3618 5.19995C13.3618 4.09538 12.4664 3.19995 11.3618 3.19995C10.2572 3.19995 9.36182 4.09538 9.36182 5.19995C9.36182 6.30452 10.2572 7.19995 11.3618 7.19995Z" fill="#FFC95B"/>
<path d="M6.29785 4C6.85014 4 7.29786 3.55228 7.29786 3C7.29786 2.44772 6.85014 2 6.29785 2C5.74557 2 5.29785 2.44772 5.29785 3C5.29785 3.55228 5.74557 4 6.29785 4Z" fill="#FFC95B"/>
</g>
<defs>
<linearGradient id="paint0_linear_8504_10997" x1="14.2867" y1="2.3432" x2="2.97308" y2="13.6568" gradientUnits="userSpaceOnUse">
<stop stop-color="#FF2D55"/>
<stop offset="1" stop-color="#FFBC5B"/>
</linearGradient>
<linearGradient id="paint1_linear_8504_10997" x1="8.79615" y1="5.19995" x2="8.79615" y2="11.2" gradientUnits="userSpaceOnUse">
<stop stop-color="#A524B3"/>
<stop offset="1" stop-color="#FF2D55"/>
</linearGradient>
<linearGradient id="paint2_linear_8504_10997" x1="13.1946" y1="8.3999" x2="13.1946" y2="12.7999" gradientUnits="userSpaceOnUse">
<stop stop-color="#A524B3"/>
<stop offset="1" stop-color="#FF2D55"/>
</linearGradient>
<clipPath id="clip0_8504_10997">
<rect width="16" height="16" fill="white" transform="translate(0.629883)"/>
</clipPath>
</defs>
</svg>
