<svg width="22" height="16" viewBox="0 0 22 16" fill="none" xmlns="http://www.w3.org/2000/svg">
<g clip-path="url(#clip0_8504_11976)">
<path d="M8.5127 6.64321L10.8137 11.6604L14.2314 9.71779H14.2379V5.83032L8.5127 6.64321Z" fill="#2BBDF7"/>
<path d="M18.6519 2.91528L16.5191 2.12643L14.2378 1.94287V5.83033V14.0554L17.6598 16.0002L20.3891 10.5241L18.6584 5.25563L18.6519 2.91528Z" fill="#2891F9"/>
<path d="M18.4531 1.94287L17.6599 3.8877V15.9696L21.0819 14.0248V1.94287H18.4531Z" fill="#2BBDF7"/>
<path d="M17.6598 0.000244141L14.2378 1.94288L17.6598 3.88771L21.0818 1.94288L17.6598 0.000244141Z" fill="#2B6DEF"/>
<path d="M10.8136 7.77297L7.39163 3.99695L0.54541 1.94287V14.0248L3.96743 15.9696L4.94858 9.28294L7.39163 9.7178L10.8136 11.6604V7.77297Z" fill="#2891F9"/>
<path d="M3.96743 0.000244141L0.54541 1.94288L10.8136 7.77298L12.3651 6.89454L14.2378 5.83035L3.96743 0.000244141Z" fill="#2B6DEF"/>
<path d="M3.96729 7.77295V15.9696L7.39149 14.0248V9.71777L3.96729 7.77295Z" fill="#2BBDF7"/>
</g>
<defs>
<clipPath id="clip0_8504_11976">
<rect width="20.5365" height="16" fill="white" transform="translate(0.54541 0.000244141)"/>
</clipPath>
</defs>
</svg>
