<svg width="17" height="16" viewBox="0 0 17 16" fill="none" xmlns="http://www.w3.org/2000/svg">
<g clip-path="url(#clip0_8504_10966)">
<path d="M8.8064 16C13.2247 16 16.8064 12.4183 16.8064 8C16.8064 3.58172 13.2247 0 8.8064 0C4.38812 0 0.806396 3.58172 0.806396 8C0.806396 12.4183 4.38812 16 8.8064 16Z" fill="#103F68"/>
<path d="M8.7964 2.50928L13.5564 5.25078V10.7508L8.8019 13.5003L8.7634 13.4908L4.0564 10.7508V5.25078L8.7634 2.50928H8.7964ZM8.7809 3.07828L4.5564 5.53828V10.4633L8.7804 12.9228L9.2964 12.6243L13.0564 10.4618V5.53928L9.2964 3.36428L8.7809 3.07828ZM5.2109 8.38328L6.4614 7.44828L7.5669 8.15428V9.42428L8.4034 10.2303L8.4029 10.6083L7.5969 11.3633H6.9164L5.2114 8.38328H5.2109ZM9.1624 10.6093L9.1609 10.2293L9.9944 9.42428V8.15428L11.0879 7.43928L12.3359 8.38378L10.6394 11.3548H9.9674L9.1624 10.6093ZM7.9774 8.15428L7.5704 7.08878H9.9894L9.5904 8.15428L9.7084 9.34528L8.7749 9.34728L7.8524 9.34878L7.9774 8.15428ZM8.7749 6.79678L6.4759 6.79578L6.9034 4.88578H10.6354L11.0854 6.79828L8.7749 6.79678Z" fill="white"/>
</g>
<defs>
<clipPath id="clip0_8504_10966">
<rect width="16" height="16" fill="white" transform="translate(0.806396)"/>
</clipPath>
</defs>
</svg>
