<svg width="17" height="16" viewBox="0 0 17 16" fill="none" xmlns="http://www.w3.org/2000/svg">
<g clip-path="url(#clip0_8504_12086)">
<path d="M8.47998 16.0002C12.8983 16.0002 16.48 12.4185 16.48 8.00024C16.48 3.58197 12.8983 0.000244141 8.47998 0.000244141C4.0617 0.000244141 0.47998 3.58197 0.47998 8.00024C0.47998 12.4185 4.0617 16.0002 8.47998 16.0002Z" fill="#01A64F"/>
<path d="M10.8115 3.99624C11.4195 4.64624 11.73 5.46224 11.73 6.41624C11.73 7.38474 11.4195 8.20124 10.811 8.85124C10.3245 9.36274 9.74348 9.66674 9.06798 9.77774V10.3447H10.446V10.9672H9.05398V11.2992H10.446V11.8797H9.06798V13.0002H7.89198V11.8802H6.52698V11.2992H7.90548V10.9672H6.52748V10.3447H7.89248V9.76374C7.22998 9.65324 6.64898 9.34874 6.16248 8.83724C5.54098 8.18724 5.22998 7.37074 5.22998 6.40274C5.22998 5.42074 5.52748 4.60474 6.14898 3.96824C6.76998 3.31824 7.54098 3.00024 8.48698 3.00024C9.41948 3.00024 10.1895 3.31824 10.8115 3.99624ZM9.54098 7.68924C9.79748 7.35724 9.93298 6.92824 9.93298 6.40274C9.93298 5.89124 9.79798 5.46274 9.51398 5.13024C9.24398 4.78474 8.89248 4.61874 8.48698 4.61874C8.06798 4.61874 7.71698 4.78474 7.44648 5.11674C7.17548 5.44874 7.04048 5.86324 7.04048 6.38924C7.04048 6.92824 7.17598 7.35724 7.44648 7.68924C7.71698 8.02124 8.06798 8.18724 8.48648 8.18724C8.91948 8.18724 9.28398 8.02124 9.54098 7.68924Z" fill="white"/>
</g>
<defs>
<clipPath id="clip0_8504_12086">
<rect width="16" height="16" fill="white" transform="translate(0.47998 0.000244141)"/>
</clipPath>
</defs>
</svg>
