<svg width="17" height="16" viewBox="0 0 17 16" fill="none" xmlns="http://www.w3.org/2000/svg">
<g clip-path="url(#clip0_8504_12040)">
<path d="M8.47998 16.0002C12.8983 16.0002 16.48 12.4185 16.48 8.00024C16.48 3.58197 12.8983 0.000244141 8.47998 0.000244141C4.0617 0.000244141 0.47998 3.58197 0.47998 8.00024C0.47998 12.4185 4.0617 16.0002 8.47998 16.0002Z" fill="#00316D"/>
<path d="M9.55789 9.94384C9.55139 9.93184 9.55039 9.92684 9.54789 9.92534C9.23789 9.77884 8.92789 9.63184 8.61689 9.48734C8.60039 9.47934 8.56689 9.48134 8.55639 9.49284C8.42139 9.63784 8.28939 9.78634 8.15539 9.93484C8.25239 10.0063 9.47689 10.0068 9.55789 9.94384ZM6.72089 6.36234L6.68989 6.29734C6.66389 6.31584 6.62989 6.32934 6.61289 6.35434C6.32646 6.7805 6.04179 7.20783 5.75889 7.63634C5.74139 7.66334 5.74239 7.70284 5.73389 7.73634C5.76889 7.72934 5.80789 7.73084 5.83639 7.71334C6.07928 7.56727 6.31997 7.41759 6.55839 7.26434C6.6003 7.2348 6.62915 7.19018 6.63889 7.13984C6.67089 6.88984 6.69289 6.63834 6.72089 6.36234ZM12.7194 9.98734H13.1324C13.2119 9.98734 13.2424 9.95734 13.1919 9.88084C12.9294 9.47984 12.6679 9.07834 12.4044 8.67884C12.3904 8.65684 12.3584 8.64734 12.3344 8.63234C12.3219 8.65734 12.3004 8.68234 12.2979 8.70884C12.2674 9.09984 12.2399 9.49084 12.2099 9.88184C12.2044 9.95634 12.2304 9.98984 12.3064 9.98834C12.4439 9.98534 12.5814 9.98734 12.7194 9.98734ZM3.85239 9.95734C3.91539 9.97234 3.94639 9.98634 3.97689 9.98684C4.42339 9.98784 4.86989 9.98684 5.31589 9.98784C5.40239 9.98784 5.42439 9.95734 5.38789 9.87384C5.24782 9.55617 5.11081 9.23716 4.97689 8.91684C4.93789 8.82334 4.90189 8.82784 4.84039 8.89384C4.60239 9.15084 4.36239 9.40534 4.12339 9.66084C4.03989 9.75084 3.95839 9.84084 3.85239 9.95734ZM10.4499 7.65084C10.4789 7.70734 10.4884 7.73184 10.5029 7.75284L11.1069 8.62984C11.3564 8.99234 11.6054 9.35484 11.8569 9.71584C11.8739 9.74084 11.9069 9.75434 11.9319 9.77284C11.9449 9.74284 11.9659 9.71434 11.9699 9.68334C11.9799 9.59834 11.9819 9.51334 11.9874 9.42834C12.0144 9.04084 12.0444 8.65384 12.0674 8.26684C12.0774 8.10184 12.0059 8.01684 11.8494 7.97784C11.4319 7.87334 11.0144 7.76834 10.5964 7.66484C10.5589 7.65584 10.5194 7.65734 10.4499 7.65084ZM10.3439 5.08334L10.3059 5.08984C10.3009 5.16634 10.2934 5.24334 10.2909 5.32084L10.2354 7.20634C10.2329 7.27534 10.2534 7.31134 10.3249 7.32834C10.7579 7.43334 11.1899 7.54384 11.6229 7.65034C11.6604 7.65934 11.7019 7.65084 11.7414 7.65034C11.7314 7.61184 11.7294 7.56834 11.7109 7.53434C11.2794 6.74934 10.8469 5.96434 10.4134 5.18034C10.3944 5.14584 10.3674 5.11534 10.3439 5.08334ZM8.40139 8.93684C8.41339 8.87034 8.42489 8.83034 8.42639 8.79034C8.43289 8.58084 8.43339 8.37134 8.44289 8.16184C8.45186 8.00222 8.40443 7.84453 8.30889 7.71634C7.9119 7.16551 7.51607 6.61384 7.12139 6.06134C7.10339 6.03634 7.09589 6.00384 7.08339 5.97484L7.03639 6.00284C7.02489 6.04484 7.00689 6.08634 7.00239 6.12884C6.96739 6.46884 6.93739 6.80884 6.89989 7.14784C6.89418 7.18351 6.89696 7.22003 6.90799 7.25443C6.91902 7.28883 6.938 7.32014 6.96339 7.34584C7.41089 7.84434 7.85539 8.34584 8.30189 8.84584C8.32589 8.87284 8.35489 8.89484 8.40139 8.93684ZM8.68989 8.83234L8.71989 8.85234C8.74739 8.83084 8.77989 8.81384 8.80189 8.78734C9.18206 8.32577 9.5609 7.8631 9.93839 7.39934C9.96154 7.36995 9.97515 7.33419 9.97739 7.29684C9.99539 6.67934 10.0109 6.06184 10.0249 5.44434C10.0259 5.41034 10.0064 5.37584 9.99589 5.34184C9.96839 5.36834 9.92989 5.38984 9.91439 5.42184C9.56439 6.16284 9.22989 6.91134 8.86289 7.64284C8.66889 8.02984 8.69989 8.42934 8.68989 8.83284V8.83234ZM6.93839 9.98784C7.17889 9.98784 7.41989 9.99134 7.66039 9.98484C7.71529 9.98224 7.76743 9.96007 7.80739 9.92234C7.97489 9.74684 8.13189 9.56084 8.29889 9.38484C8.36139 9.31984 8.34739 9.27984 8.29439 9.22184C8.01222 8.9158 7.73254 8.60745 7.45539 8.29684C7.38839 8.22184 7.34989 8.22234 7.28989 8.30434C6.90939 8.82484 6.52489 9.34184 6.14239 9.86134C6.12339 9.88734 6.11639 9.92184 6.10339 9.95234C6.13689 9.96434 6.17039 9.98584 6.20439 9.98584C6.44939 9.98884 6.69339 9.98784 6.93839 9.98784ZM7.18739 8.00484C7.05439 7.85034 6.92389 7.70484 6.80039 7.55234C6.74839 7.48884 6.70839 7.48234 6.63839 7.52584C6.22039 7.78884 5.79789 8.04484 5.38089 8.30934C5.30539 8.35734 5.24589 8.43184 5.18189 8.49734C5.12239 8.55834 5.13039 8.62534 5.16289 8.70034C5.32539 9.07184 5.48389 9.44484 5.64439 9.81734C5.70539 9.95734 5.72839 9.95984 5.82189 9.83484C6.06939 9.50484 6.31589 9.17334 6.56239 8.84284L7.18739 8.00484ZM10.0849 7.61084C10.0524 7.66334 10.0369 7.69534 10.0149 7.72134C9.61889 8.20434 9.22239 8.68734 8.82339 9.16834C8.75839 9.24684 8.79189 9.27784 8.86539 9.31134C9.32389 9.52134 9.78039 9.73484 10.2399 9.94384C10.2987 9.97035 10.3624 9.98464 10.4269 9.98584C10.8049 9.98934 11.1834 9.98834 11.5619 9.98634C11.5969 9.98634 11.6324 9.97034 11.6679 9.96134C11.6554 9.92434 11.6499 9.88184 11.6279 9.85034C11.2791 9.34097 10.9293 8.8323 10.5784 8.32434C10.4234 8.09934 10.2674 7.87434 10.0849 7.61084ZM8.47639 10.4993C6.75539 10.4993 5.03439 10.4988 3.31339 10.5003C3.17939 10.5003 3.05839 10.4853 3.00039 10.3413C2.94539 10.2048 3.00939 10.1038 3.09889 10.0083C3.61289 9.45934 4.13389 8.91634 4.63389 8.35534C4.82489 8.14134 4.97239 7.88684 5.13389 7.64634C5.65139 6.87234 6.16489 6.09534 6.68489 5.32334C6.73589 5.24784 6.81389 5.17134 6.89589 5.14134C7.00889 5.09934 7.10539 5.16434 7.17739 5.26734C7.59589 5.86534 8.01739 6.46134 8.43789 7.05834C8.52439 7.18034 8.55539 7.17634 8.61939 7.03734L9.91639 4.21234C9.96739 4.10134 10.0349 4.00684 10.1664 4.00084C10.3039 3.99434 10.3874 4.07784 10.4519 4.19584C11.1029 5.37684 11.7389 6.56784 12.4154 7.73384C12.8244 8.43884 13.2979 9.10434 13.7424 9.78784C13.7974 9.87184 13.8529 9.95534 13.9069 10.0403C13.9719 10.1428 14.0104 10.2553 13.9494 10.3688C13.8894 10.4788 13.7784 10.4998 13.6619 10.4998C11.9334 10.4988 10.2049 10.4993 8.47639 10.4993Z" fill="white"/>
</g>
<defs>
<clipPath id="clip0_8504_12040">
<rect width="16" height="16" fill="white" transform="translate(0.47998 0.000244141)"/>
</clipPath>
</defs>
</svg>
