<svg width="18" height="16" viewBox="0 0 18 16" fill="none" xmlns="http://www.w3.org/2000/svg">
<g clip-path="url(#clip0_8504_11965)">
<path d="M8.92627 16.0002C13.3445 16.0002 16.9263 12.4185 16.9263 8.00024C16.9263 3.58197 13.3445 0.000244141 8.92627 0.000244141C4.50799 0.000244141 0.92627 3.58197 0.92627 8.00024C0.92627 12.4185 4.50799 16.0002 8.92627 16.0002Z" fill="url(#paint0_linear_8504_11965)"/>
<path d="M4.98859 10.4003V6.63497L7.84406 8.78405V10.4003H8.57285V8.63231C8.57272 8.56662 8.55736 8.50185 8.52798 8.44308C8.4986 8.38432 8.456 8.33317 8.40352 8.29365L4.94059 5.68644C4.87725 5.63939 4.80211 5.61083 4.72351 5.60393C4.64491 5.59703 4.56594 5.61205 4.49537 5.64734C4.4248 5.68262 4.3654 5.73679 4.32376 5.8038C4.28213 5.87082 4.25989 5.94807 4.25952 6.02697V10.4003H4.98859ZM12.8857 10.4003V6.63497L10.0302 8.78405V10.4003H9.30139V8.63231C9.30152 8.56662 9.31688 8.50185 9.34626 8.44308C9.37564 8.38432 9.41825 8.33317 9.47072 8.29365L12.9337 5.6875C12.9969 5.64051 13.072 5.61196 13.1505 5.60502C13.229 5.59807 13.3079 5.61301 13.3784 5.64816C13.4489 5.68332 13.5084 5.73732 13.5501 5.80419C13.5918 5.87105 13.6142 5.94817 13.6147 6.02697V10.4003H12.8857Z" fill="white"/>
</g>
<defs>
<linearGradient id="paint0_linear_8504_11965" x1="8.92627" y1="0.000244141" x2="8.92627" y2="16.0002" gradientUnits="userSpaceOnUse">
<stop stop-color="#4FA89B"/>
<stop offset="1" stop-color="#6ACEBB"/>
</linearGradient>
<clipPath id="clip0_8504_11965">
<rect width="17" height="16" fill="white" transform="translate(0.54541 0.000244141)"/>
</clipPath>
</defs>
</svg>
