<svg width="17" height="16" viewBox="0 0 17 16" fill="none" xmlns="http://www.w3.org/2000/svg">
<g clip-path="url(#clip0_8504_11999)">
<path d="M8.08203 16.0002C12.5003 16.0002 16.082 12.4185 16.082 8.00024C16.082 3.58197 12.5003 0.000244141 8.08203 0.000244141C3.66375 0.000244141 0.0820312 3.58197 0.0820312 8.00024C0.0820312 12.4185 3.66375 16.0002 8.08203 16.0002Z" fill="#0B1529"/>
<path fill-rule="evenodd" clip-rule="evenodd" d="M4.39553 10.0622L7.03153 11.6082V12.4727L3.58203 10.4427V5.14774L8.08203 2.50024L12.582 5.14774V10.4427L9.13253 12.4727V11.6077L11.768 10.0622L11.088 9.66924L11.177 9.51474L11.8485 9.90274V5.97674L8.43853 7.99774V13.7777L8.08203 14.0002L7.72503 13.7777V7.99774L4.31553 5.97674V9.90224L4.98653 9.51474L5.07553 9.66974L4.39553 10.0622ZM7.98303 3.40724L4.67203 5.34974L8.08203 7.37124L11.492 5.34974L8.16153 3.39574V4.19774H7.98303V3.40724ZM7.98303 4.70324H8.16153V5.53174H7.98303V4.70324ZM7.98303 6.03724H8.16153V6.86574L8.07203 6.90624L7.98303 6.86624V6.03724ZM10.763 9.26224L10.674 9.41724L9.95603 9.00224L10.0455 8.84774L10.763 9.26274V9.26224ZM9.63053 8.59524L9.54103 8.75024L8.82353 8.33524L8.83353 8.23824L8.91253 8.18124L9.63053 8.59524ZM5.40053 9.26224L6.11803 8.84774L6.20753 9.00274L5.49003 9.41674L5.40053 9.26224ZM6.53353 8.59524L7.25103 8.18124L7.33103 8.23824L7.34003 8.33574L6.62253 8.74974L6.53353 8.59524Z" fill="white"/>
</g>
<defs>
<clipPath id="clip0_8504_11999">
<rect width="16" height="16" fill="white" transform="translate(0.0820312 0.000244141)"/>
</clipPath>
</defs>
</svg>
