<svg width="32" height="16" viewBox="0 0 32 16" fill="none" xmlns="http://www.w3.org/2000/svg">
<g clip-path="url(#clip0_8504_12138)">
<path d="M31.4891 10.3343L21.2482 0.09339C21.1263 -0.0285258 20.894 -0.0285258 20.7721 0.09339L15.7446 5.10355L10.8157 0.174668C10.6821 0.0411409 10.4731 0.0411409 10.3396 0.174668L8.80116 1.6841L3.14659 7.22837L1.91001 8.44172L0.0928886 10.2124C0.0232224 10.2821 0 10.3633 0 10.4562C0 10.5491 0.040639 10.6304 0.0928886 10.7001L5.20174 15.8089C5.33527 15.9424 5.55588 15.9424 5.67779 15.8089L10.5835 10.9091L15.553 15.8786C15.6865 16.0121 15.9071 16.0121 16.029 15.8786L20.9463 10.9613L25.8926 15.9076C25.9623 15.9773 26.0435 16.0005 26.1364 16.0005C26.2293 16.0005 26.3106 15.9715 26.3803 15.9076L31.4891 10.7988C31.5588 10.7291 31.582 10.6478 31.582 10.5549C31.582 10.4562 31.553 10.3866 31.4891 10.3343ZM30.5718 10.7581L27.6343 9.6783L26.2874 6.77554L27.0653 6.88584L30.7576 10.5782L30.5718 10.7581ZM28.9115 12.4185L28.0406 10.5549L30.0435 11.2922L28.9115 12.4185ZM8.69086 5.70152L4.55152 6.81618L8.69086 2.74651V5.70152ZM3.55298 7.7857L6.45573 7.00776L6.26415 10.2763L2.7344 8.59847L3.55298 7.7857ZM7.15239 6.82198L7.66909 6.68846L9.04499 8.80166L6.89115 11.1877L7.15239 6.82198ZM9.50363 8.26175L8.34833 6.49107L9.00435 6.3169L10.6531 6.99615L9.50363 8.26175ZM9.3701 5.73055V4.49397L13.2946 4.81908L14.2758 7.76248L9.3701 5.73055ZM12.6909 9.55638L14.0958 10.4156L14.328 13.6957L12.3425 11.7218L12.6909 9.55638ZM14.6009 9.92793L12.8186 8.82489L12.9521 7.96567L14.6299 8.66233C14.6705 8.69136 14.7112 8.71458 14.7634 8.71458L16.4528 9.42285L17.1611 11.5186L14.6009 9.92793ZM17.1437 9.32416L18.984 8.37206L17.6372 10.7697L17.1437 9.32416ZM19.6923 7.2574L17.9913 8.13983L18.3977 5.25449L20.7663 6.70007L19.6923 7.2574ZM21.4746 6.32851L18.299 4.39528L17.7417 4.05275L18.5776 3.22256L22.1887 4.39528L22.5312 5.78279L21.4746 6.32851ZM23.2046 5.66088L22.3628 2.16015L26.2874 6.08468L23.2046 5.66088ZM23.2337 6.34593L23.9536 6.43882L24.7315 13.7654L22.6589 11.6928L23.2337 6.34593ZM24.6386 6.54912L25.4978 6.67104L26.7228 9.31255L25.225 12.0934L24.6386 6.54912ZM20.9985 0.813274L21.4223 1.23708L21.9971 3.62314L19.1234 2.69426L20.9985 0.813274ZM15.9768 5.84085L17.2598 4.55783L17.7649 4.87133L17.2482 8.523L16.7199 8.79586L15.0885 8.12822L13.7533 4.11081L15.4949 5.85246C15.6343 5.96277 15.8374 5.96277 15.9768 5.84085ZM10.566 0.911968L12.6792 3.01937L13.045 4.12242L9.3701 3.80892V2.07888L10.566 0.911968ZM2.2061 9.10935L6.2119 11.002L6.1016 12.8017L2.51959 12.1747L0.818578 10.4737L2.2061 9.10935ZM5.43396 15.1006L3.34978 13.0165L6.04354 13.4925L5.97387 14.5433L5.43396 15.1006ZM10.3338 10.195L6.71118 13.8176L6.80406 12.2676L6.81567 12.2559L11.3091 7.28642L12.3019 7.69281L12.0987 8.9468L11.7446 11.1239L10.8157 10.195C10.688 10.0615 10.4731 10.0615 10.3338 10.195ZM15.7968 15.1703L15.0595 14.433L14.8157 10.851L17.5094 12.5114L17.7533 13.2197L15.7968 15.1703ZM20.9579 10.1543C20.8766 10.1543 20.7837 10.1834 20.7141 10.2472L18.2758 12.6856L17.9216 11.6348L20.0871 7.7915L22.5254 6.53751L22.0377 11.0716L21.2075 10.2414C21.1379 10.1834 21.0392 10.1543 20.9579 10.1543ZM26.1364 15.1935L25.4804 14.5375L25.3469 13.2835L27.0769 10.0673L28.4006 12.9294L26.1364 15.1935Z" fill="url(#paint0_linear_8504_12138)"/>
</g>
<defs>
<linearGradient id="paint0_linear_8504_12138" x1="-0.000586154" y1="8.00042" x2="31.5819" y2="8.00042" gradientUnits="userSpaceOnUse">
<stop stop-color="#C51F5D"/>
<stop offset="1" stop-color="#2F2361"/>
</linearGradient>
<clipPath id="clip0_8504_12138">
<rect width="31.582" height="16" fill="white" transform="translate(0 0.000244141)"/>
</clipPath>
</defs>
</svg>
