<svg width="17" height="16" viewBox="0 0 17 16" fill="none" xmlns="http://www.w3.org/2000/svg">
<g clip-path="url(#clip0_8504_12213)">
<path d="M8.52295 16.0002C12.9412 16.0002 16.5229 12.4185 16.5229 8.00024C16.5229 3.58197 12.9412 0.000244141 8.52295 0.000244141C4.10467 0.000244141 0.522949 3.58197 0.522949 8.00024C0.522949 12.4185 4.10467 16.0002 8.52295 16.0002Z" fill="#36A9CF"/>
<path fill-rule="evenodd" clip-rule="evenodd" d="M13.6778 9.23801C13.7658 9.27651 13.7983 9.39601 13.7508 9.50501C13.7367 9.54113 13.7133 9.57292 13.683 9.59721C13.6528 9.62151 13.6167 9.63747 13.5783 9.64351L12.4658 11.695C12.4757 11.7408 12.4734 11.7884 12.4592 11.833C12.445 11.8777 12.4193 11.9178 12.3848 11.9495C12.3573 11.9782 12.3239 12.0006 12.2868 12.015C12.2498 12.0294 12.21 12.0356 12.1703 12.033L10.0008 13.332C9.98398 13.3748 9.95616 13.4123 9.92017 13.441C9.88419 13.4696 9.84131 13.4882 9.79584 13.495C9.68884 13.5155 9.58684 13.4765 9.53785 13.404L6.98885 13.2255C6.95715 13.2497 6.92044 13.2664 6.88142 13.2746C6.8424 13.2827 6.80206 13.282 6.76335 13.2725C6.63735 13.245 6.55034 13.1445 6.55534 13.041L4.58585 11.62C4.5447 11.6274 4.5024 11.6249 4.46241 11.6127C4.42243 11.6005 4.3859 11.579 4.35584 11.55C4.26984 11.472 4.23885 11.3585 4.27185 11.2725L3.46184 9.39401C3.37334 9.37651 3.29684 9.28951 3.27684 9.17451C3.26034 9.07101 3.29435 8.97351 3.35785 8.92151L3.47734 6.07801C3.45045 6.04134 3.43315 5.99852 3.42704 5.95346C3.42093 5.90839 3.42619 5.86251 3.44235 5.82001C3.48235 5.70351 3.57885 5.63001 3.67385 5.63501L5.79984 3.40751C5.78134 3.30251 5.86135 3.19101 5.98685 3.15151C6.02578 3.13822 6.06727 3.13416 6.10805 3.13962C6.14883 3.14509 6.18778 3.15994 6.22184 3.18301L9.28085 2.62701C9.32035 2.53701 9.43235 2.48401 9.55335 2.50551C9.66335 2.52451 9.74585 2.60001 9.76535 2.68701L11.1783 3.49301C11.2175 3.48049 11.2589 3.4766 11.2998 3.4816C11.3406 3.48661 11.3799 3.50039 11.4148 3.52201C11.4534 3.54444 11.4863 3.57538 11.5111 3.61246C11.5359 3.64955 11.5519 3.6918 11.5578 3.73601L12.1658 4.14501C12.2051 4.13437 12.2462 4.13289 12.2861 4.1407C12.326 4.1485 12.3635 4.16537 12.3958 4.19001C12.5098 4.27201 12.5508 4.41501 12.4858 4.51001L12.4818 4.51501L13.3733 6.25501C13.4583 6.24351 13.5453 6.30951 13.5763 6.41401C13.6103 6.52851 13.5633 6.64501 13.4723 6.67401C13.3808 6.70401 13.2793 6.63501 13.2458 6.52101L13.2398 6.49601L11.4053 5.51351C11.3761 5.55459 11.3364 5.58705 11.2903 5.60751V10.5045C11.3503 10.5309 11.3992 10.5773 11.4287 10.6358C11.4582 10.6942 11.4666 10.7611 11.4523 10.825L12.1973 11.584C12.2355 11.5678 12.2772 11.562 12.3183 11.567L13.4433 9.57901C13.4239 9.54702 13.4128 9.5107 13.411 9.47334C13.4092 9.43597 13.4167 9.39874 13.4328 9.36501C13.4803 9.25601 13.5903 9.19951 13.6778 9.23801ZM13.6798 9.47551C13.6988 9.43151 13.6853 9.38401 13.6503 9.36851C13.6153 9.35351 13.5713 9.37601 13.5523 9.41951C13.5333 9.46301 13.5463 9.51051 13.5818 9.52651C13.6168 9.54151 13.6603 9.51901 13.6798 9.47551ZM12.3473 11.8715C12.3873 11.8315 12.3943 11.7725 12.3628 11.7395C12.3313 11.7065 12.2733 11.712 12.2328 11.7515C12.1928 11.7915 12.1858 11.851 12.2173 11.884C12.2488 11.917 12.3073 11.9115 12.3473 11.8715ZM12.0328 11.7465L12.0383 11.7345L11.3238 11.0075C11.2811 11.0342 11.2317 11.0484 11.1813 11.0485C11.1288 11.0484 11.0774 11.0333 11.0332 11.0049C10.989 10.9766 10.9539 10.9362 10.9318 10.8885H9.97284C9.94805 10.9406 9.90792 10.9839 9.85784 11.0125L9.95134 12.366C9.98835 12.382 10.0213 12.405 10.0463 12.4335L12.0328 11.7465ZM9.94884 13.1395L11.6823 12.1015L10.1023 12.6475C10.0919 12.687 10.0723 12.7235 10.0451 12.754C10.0179 12.7845 9.98389 12.8081 9.94585 12.823L9.89784 13.105C9.91638 13.1141 9.93355 13.1257 9.94884 13.1395ZM9.78635 13.4085C9.84134 13.3985 9.87884 13.3535 9.87084 13.3075C9.86284 13.2625 9.81084 13.2335 9.75584 13.2445C9.70134 13.2545 9.66335 13.2995 9.67135 13.345C9.67985 13.3905 9.73135 13.419 9.78635 13.4085ZM9.53435 13.2095C9.56753 13.1548 9.61939 13.114 9.68035 13.0945L9.72584 12.827C9.68531 12.8119 9.64885 12.7876 9.61935 12.756L7.63034 13.077L9.53435 13.2095ZM7.67384 11.0415L7.02685 12.95L9.53484 12.545L7.76034 11.005C7.7338 11.022 7.70455 11.0344 7.67384 11.0415ZM6.84135 12.819L7.45834 10.9995C7.4177 10.9713 7.38526 10.9328 7.36434 10.888H6.23635C6.22941 10.9018 6.22156 10.9152 6.21285 10.928L6.84135 12.819ZM6.76485 13.1865C6.81985 13.1985 6.87184 13.1715 6.88084 13.1265C6.89084 13.0815 6.85435 13.035 6.79935 13.0225C6.74435 13.011 6.69234 13.0375 6.68284 13.0825C6.67334 13.1285 6.70985 13.1745 6.76485 13.1865ZM4.72135 11.4805L6.62384 12.8535L6.02285 11.0455C5.97951 11.0512 5.93545 11.0464 5.89432 11.0316C5.85319 11.0168 5.81618 10.9924 5.78635 10.9605L4.72485 11.423C4.72637 11.4422 4.72536 11.4616 4.72184 11.4805H4.72135ZM4.54335 11.1815C4.57039 11.1934 4.59564 11.2091 4.61835 11.228L5.70984 10.753C5.71201 10.699 5.72933 10.6466 5.75985 10.602L4.07185 8.85751L4.54335 11.1815ZM4.53184 11.486C4.56184 11.452 4.55184 11.393 4.51034 11.355C4.46834 11.3175 4.41035 11.3145 4.38035 11.349C4.35035 11.384 4.35934 11.443 4.40135 11.4805C4.44335 11.518 4.50185 11.5205 4.53135 11.486H4.53184ZM3.63685 9.31951L4.21784 10.666L3.82835 8.74701L3.67484 9.07401C3.68731 9.11516 3.69036 9.15859 3.68378 9.20108C3.67721 9.24357 3.66117 9.28405 3.63685 9.31951ZM3.62284 7.14951L3.55284 8.82551L3.69184 8.53051C3.66889 8.48697 3.65787 8.43813 3.65989 8.38896C3.66191 8.33978 3.6769 8.29202 3.70335 8.25051L3.62284 7.14951ZM3.52285 5.82401C3.50385 5.87801 3.52434 5.93401 3.56684 5.94951C3.60984 5.96451 3.65885 5.93351 3.67735 5.87951C3.69585 5.82551 3.67635 5.76951 3.63335 5.75401C3.59035 5.73901 3.54135 5.77001 3.52235 5.82401H3.52285ZM3.94484 8.40051C3.94484 8.34351 3.90334 8.29751 3.85334 8.29751C3.80284 8.29751 3.76135 8.34351 3.76135 8.40051C3.76135 8.45801 3.80284 8.50401 3.85334 8.50401C3.90334 8.50401 3.94484 8.45801 3.94484 8.40051ZM3.82984 5.95751C3.81576 5.99997 3.79236 6.03875 3.76135 6.07101L3.90635 8.06601L4.79634 5.25151L3.84385 5.89801C3.84105 5.91823 3.83636 5.93815 3.82984 5.95751ZM5.34285 4.16501L4.12584 5.44001L4.74935 5.01701C4.75772 4.96006 4.78238 4.90676 4.82035 4.86351C4.85943 4.81705 4.91234 4.78429 4.97135 4.77001L5.34285 4.16501ZM5.96985 3.56151L5.17635 4.85251C5.19551 4.88818 5.20386 4.92866 5.20034 4.96901L5.78784 5.14951C5.81853 5.11661 5.85687 5.09181 5.89945 5.0773C5.94203 5.0628 5.98753 5.05904 6.03192 5.06636C6.0763 5.07369 6.11819 5.09187 6.15385 5.11928C6.18952 5.14669 6.21785 5.1825 6.23635 5.22351H7.21985C7.23809 5.18431 7.2652 5.14989 7.29905 5.12299C7.3329 5.09609 7.37254 5.07743 7.41484 5.06851L7.94934 3.93151C7.92053 3.89358 7.90163 3.84907 7.89434 3.80201L6.26035 3.44001C6.22331 3.49383 6.16896 3.53336 6.10634 3.55201C6.06228 3.56611 6.01549 3.56953 5.96985 3.56201V3.56151ZM5.99884 3.23501C5.94534 3.25151 5.91284 3.30101 5.92584 3.34501C5.93934 3.38951 5.99335 3.41151 6.04634 3.39501C6.09984 3.37851 6.13284 3.32901 6.11934 3.28501C6.10634 3.24051 6.05284 3.21801 5.99884 3.23501ZM9.12285 2.85301L6.65684 3.30201L7.94684 3.58751C7.98164 3.53996 8.03083 3.5049 8.08712 3.48752C8.14341 3.47013 8.2038 3.47136 8.25934 3.49101L9.12285 2.85301ZM9.42534 2.90151L8.50584 3.58151L11.0283 3.65151L11.0338 3.63251L9.69684 2.87051C9.66641 2.89281 9.63167 2.90855 9.59483 2.91672C9.55799 2.9249 9.51986 2.92534 9.48284 2.91801C9.46317 2.91447 9.4439 2.90894 9.42534 2.90151ZM9.54434 2.59201C9.48934 2.58201 9.43785 2.61101 9.43035 2.65701C9.42284 2.70201 9.46034 2.74701 9.51584 2.75701C9.57084 2.76701 9.62185 2.73801 9.62985 2.69201C9.63785 2.64701 9.59934 2.60201 9.54434 2.59201ZM11.1608 3.95451C11.1267 3.93342 11.097 3.90591 11.0733 3.87351L8.44184 3.80051C8.43984 3.81614 8.43632 3.83155 8.43134 3.84651L9.49334 5.07101C9.55471 5.05767 9.61877 5.06555 9.67508 5.09334C9.73139 5.12113 9.77661 5.16719 9.80335 5.22401H10.9318C10.9594 5.16534 11.0064 5.118 11.0648 5.09001L11.1608 3.95451ZM11.1808 5.23351C11.1203 5.23351 11.0708 5.28451 11.0708 5.34701C11.0708 5.40951 11.1203 5.46001 11.1808 5.46001C11.2423 5.46001 11.2923 5.40951 11.2923 5.34701C11.2923 5.28451 11.2423 5.23351 11.1813 5.23351H11.1808ZM11.2303 3.63351C11.2028 3.68151 11.2233 3.74651 11.2763 3.77751C11.3288 3.80951 11.3943 3.79601 11.4213 3.74751C11.4493 3.69951 11.4288 3.63501 11.3758 3.60351C11.3228 3.57201 11.2578 3.58551 11.2303 3.63351ZM13.1878 6.29251L11.3743 3.99901L11.2828 5.08351C11.3314 5.10336 11.3735 5.13632 11.4044 5.1787C11.4353 5.22108 11.4538 5.27121 11.4578 5.32351L13.1878 6.29251ZM12.0413 4.29401L11.6343 4.02101L12.9478 5.73101L12.3088 4.58751C12.2554 4.58336 12.2042 4.5645 12.1608 4.53301C12.0758 4.47251 12.0308 4.37801 12.0408 4.29401H12.0413ZM12.2313 4.26551C12.2053 4.30351 12.2213 4.36051 12.2673 4.39351C12.3128 4.42601 12.3713 4.42201 12.3973 4.38351C12.4233 4.34601 12.4073 4.28851 12.3618 4.25601C12.3153 4.22351 12.2573 4.22751 12.2318 4.26601L12.2313 4.26551ZM9.44634 5.34701C9.44634 5.40801 9.49384 5.45751 9.55434 5.45751C9.58334 5.45711 9.61101 5.44528 9.63133 5.42458C9.65165 5.40389 9.66298 5.37601 9.66285 5.34701C9.66311 5.31792 9.65185 5.28991 9.63151 5.2691C9.61118 5.2483 9.58343 5.2364 9.55434 5.23601C9.52526 5.2364 9.49751 5.2483 9.47718 5.2691C9.45684 5.28991 9.44558 5.31792 9.44585 5.34701H9.44634ZM9.50584 7.73351C9.49114 7.73364 9.4766 7.73666 9.46306 7.74241C9.44952 7.74816 9.43725 7.75652 9.42694 7.76702C9.41663 7.77751 9.40849 7.78993 9.40299 7.80357C9.39748 7.81721 9.39471 7.8318 9.39484 7.84651C9.39484 7.90901 9.44484 7.96001 9.50584 7.96001C9.52055 7.95981 9.53508 7.95672 9.54859 7.95091C9.56211 7.9451 9.57434 7.93668 9.5846 7.92614C9.59487 7.9156 9.60295 7.90315 9.6084 7.88948C9.61384 7.87582 9.61654 7.86121 9.61634 7.84651C9.61654 7.83182 9.61384 7.81724 9.60839 7.80361C9.60293 7.78997 9.59484 7.77755 9.58457 7.76705C9.57431 7.75655 9.56207 7.74818 9.54855 7.74242C9.53504 7.73667 9.52053 7.73364 9.50584 7.73351ZM8.05734 3.72151C8.05734 3.78401 8.10684 3.83451 8.16784 3.83451C8.18255 3.83437 8.19709 3.83135 8.21063 3.8256C8.22417 3.81985 8.23644 3.81149 8.24675 3.801C8.25706 3.7905 8.2652 3.77808 8.2707 3.76444C8.27621 3.7508 8.27898 3.73621 8.27884 3.72151C8.27884 3.65901 8.22884 3.60801 8.16784 3.60801C8.15314 3.6082 8.13861 3.61129 8.1251 3.6171C8.11158 3.62291 8.09935 3.63133 8.08909 3.64187C8.07882 3.65241 8.07074 3.66486 8.06529 3.67853C8.05985 3.69219 8.05715 3.7068 8.05734 3.72151ZM8.13834 4.04001L7.63134 5.11751C7.68803 5.15916 7.72723 5.22038 7.74136 5.28929C7.7555 5.3582 7.74355 5.4299 7.70784 5.49051L9.39784 7.58551C9.41336 7.57908 9.42943 7.57406 9.44585 7.57051V5.60751C9.40876 5.59136 9.37557 5.56745 9.34851 5.53739C9.32145 5.50733 9.30115 5.47182 9.28897 5.43325C9.2768 5.39468 9.27303 5.35395 9.27792 5.3138C9.28282 5.27365 9.29626 5.23502 9.31735 5.20051L8.28734 4.01351C8.24111 4.03602 8.18951 4.0452 8.13834 4.04001ZM7.35834 5.34701C7.35834 5.40951 7.40834 5.46001 7.46934 5.46001C7.52984 5.46001 7.57984 5.40951 7.57984 5.34701C7.57984 5.28451 7.52984 5.23351 7.46934 5.23351C7.43959 5.2339 7.41121 5.24607 7.39041 5.26734C7.36961 5.28861 7.35808 5.31725 7.35834 5.34701ZM5.87835 5.34701C5.87835 5.40801 5.92635 5.45751 5.98635 5.45751C6.04634 5.45751 6.09485 5.40801 6.09485 5.34701C6.09485 5.28551 6.04634 5.23601 5.98635 5.23601C5.92635 5.23601 5.87835 5.28601 5.87835 5.34701ZM5.98635 10.652C5.9717 10.6522 5.95724 10.6553 5.94379 10.6611C5.93034 10.6669 5.91815 10.6752 5.90794 10.6857C5.89772 10.6962 5.88968 10.7086 5.88426 10.7222C5.87883 10.7358 5.87615 10.7504 5.87634 10.765C5.87634 10.8275 5.92534 10.878 5.98635 10.878C6.00105 10.8779 6.01559 10.8748 6.02913 10.8691C6.04267 10.8633 6.05494 10.855 6.06525 10.8445C6.07556 10.834 6.0837 10.8216 6.0892 10.8079C6.09471 10.7943 6.09748 10.7797 6.09735 10.765C6.09754 10.7503 6.09482 10.7357 6.08934 10.722C6.08386 10.7083 6.07572 10.6959 6.0654 10.6854C6.05508 10.6749 6.04278 10.6665 6.02921 10.6608C6.01564 10.6551 6.00107 10.6521 5.98635 10.652ZM4.88835 4.92201C4.85185 4.96501 4.84884 5.02451 4.88334 5.05501C4.91684 5.08501 4.97435 5.07601 5.01135 5.03251C5.04835 4.99001 5.05085 4.93051 5.01684 4.90001C4.98284 4.86901 4.92585 4.87901 4.88835 4.92201ZM4.07585 8.25151C4.10387 8.29613 4.11861 8.34781 4.11835 8.40051C4.11835 8.45551 4.10335 8.50651 4.07735 8.54801L5.87835 10.409V5.60751C5.82944 5.58596 5.78765 5.55099 5.75783 5.50665C5.728 5.46231 5.71136 5.41042 5.70984 5.35701L5.09885 5.16951C5.07986 5.18673 5.05868 5.20136 5.03585 5.21301L4.07585 8.25151ZM9.72284 10.4815C9.84234 10.4815 9.94384 10.559 9.98284 10.6665H10.9218C10.9347 10.6307 10.9547 10.5978 10.9806 10.5699C11.0066 10.5421 11.038 10.5198 11.0728 10.5045V5.60751C11.038 5.59221 11.0066 5.56996 10.9806 5.5421C10.9546 5.51424 10.9346 5.48137 10.9218 5.44551H9.81385C9.80089 5.48129 9.78083 5.51408 9.75488 5.54192C9.72893 5.56976 9.69763 5.59207 9.66285 5.60751V7.61251C9.70017 7.63901 9.73056 7.67411 9.75145 7.71484C9.77234 7.75557 9.7831 7.80073 9.78285 7.84651C9.78365 7.92081 9.75493 7.9924 9.70299 8.04556C9.65106 8.09871 9.58015 8.12908 9.50584 8.13001C9.46903 8.12961 9.43266 8.12197 9.3988 8.1075C9.36495 8.09303 9.33428 8.07203 9.30855 8.0457C9.28282 8.01937 9.26254 7.98822 9.24886 7.95404C9.23519 7.91986 9.22838 7.88332 9.22885 7.84651C9.22885 7.81151 9.23484 7.77801 9.24684 7.74651L7.53285 5.62251C7.4666 5.63774 7.39707 5.62814 7.33744 5.59551C7.27781 5.56288 7.23223 5.50951 7.20935 5.44551H6.24634C6.23333 5.48133 6.2132 5.51416 6.18716 5.542C6.16112 5.56984 6.12972 5.59212 6.09485 5.60751V10.5045C6.16484 10.5345 6.21934 10.5935 6.24634 10.6665H7.35384C7.36686 10.6307 7.38699 10.5979 7.41303 10.57C7.43907 10.5422 7.47047 10.5199 7.50534 10.5045V8.46951C7.46456 8.4439 7.43096 8.40835 7.4077 8.3662C7.38443 8.32404 7.37227 8.27666 7.37234 8.22851C7.37188 8.19165 7.3787 8.15507 7.39241 8.12086C7.40612 8.08664 7.42645 8.05547 7.45223 8.02913C7.47801 8.00279 7.50874 7.9818 7.54265 7.96737C7.57656 7.95293 7.61299 7.94533 7.64984 7.94501C7.69529 7.94516 7.74002 7.95638 7.78017 7.97769C7.82031 7.999 7.85467 8.02976 7.88027 8.06732C7.90586 8.10488 7.92193 8.1481 7.92708 8.19326C7.93224 8.23841 7.92632 8.28415 7.90984 8.32651L9.65134 10.4915C9.67468 10.4853 9.69869 10.4819 9.72284 10.4815ZM9.84284 12.505C9.78284 12.505 9.73284 12.55 9.73284 12.606C9.73284 12.662 9.78284 12.7065 9.84284 12.7065C9.90434 12.7065 9.95435 12.6615 9.95435 12.6065C9.95435 12.5515 9.90435 12.505 9.84335 12.505H9.84284ZM9.61235 10.765C9.61235 10.8275 9.66184 10.878 9.72234 10.878C9.7371 10.8779 9.75169 10.875 9.76528 10.8692C9.77888 10.8635 9.79121 10.8552 9.80157 10.8447C9.81193 10.8342 9.82012 10.8217 9.82566 10.8081C9.83119 10.7944 9.83398 10.7798 9.83384 10.765C9.83398 10.7503 9.83121 10.7357 9.8257 10.7221C9.8202 10.7084 9.81206 10.696 9.80175 10.6855C9.79144 10.675 9.77917 10.6667 9.76563 10.6609C9.75209 10.6552 9.73755 10.6521 9.72284 10.652C9.69323 10.6524 9.66497 10.6645 9.64426 10.6857C9.62355 10.7069 9.61208 10.7354 9.61235 10.765ZM7.53884 8.22851C7.53884 8.29101 7.58884 8.34151 7.64984 8.34151C7.71084 8.34151 7.76034 8.29101 7.76034 8.22851C7.76034 8.16551 7.71084 8.11551 7.64984 8.11551C7.58884 8.11551 7.53884 8.16551 7.53884 8.22851ZM7.61384 10.652C7.59914 10.6521 7.5846 10.6552 7.57106 10.6609C7.55752 10.6667 7.54525 10.675 7.53494 10.6855C7.52463 10.696 7.51649 10.7084 7.51099 10.7221C7.50548 10.7357 7.50271 10.7503 7.50284 10.765C7.50284 10.8275 7.55285 10.878 7.61384 10.878C7.67484 10.878 7.72434 10.8275 7.72434 10.765C7.72454 10.7503 7.72184 10.7357 7.71639 10.7221C7.71093 10.7085 7.70284 10.696 7.69257 10.6855C7.68231 10.675 7.67007 10.6667 7.65656 10.6609C7.64304 10.6552 7.62853 10.6521 7.61384 10.652ZM7.72184 10.5045C7.78154 10.5307 7.83036 10.5767 7.86006 10.6347C7.88976 10.6928 7.89852 10.7593 7.88484 10.823L9.68134 12.3815C9.6977 12.372 9.71495 12.3641 9.73284 12.358L9.64084 11.036C9.58385 11.0173 9.53426 10.981 9.49922 10.9323C9.46418 10.8836 9.44549 10.825 9.44585 10.765C9.44585 10.715 9.45834 10.6685 9.48084 10.6285L7.75934 8.48851C7.74721 8.49384 7.73467 8.49818 7.72184 8.50151V10.5045ZM11.2918 10.7645C11.292 10.7499 11.2892 10.7353 11.2837 10.7218C11.2783 10.7082 11.2702 10.6958 11.2599 10.6854C11.2496 10.6749 11.2374 10.6666 11.2239 10.6609C11.2105 10.6552 11.196 10.6521 11.1813 10.652C11.1666 10.6521 11.1521 10.6552 11.1386 10.6609C11.125 10.6667 11.1127 10.675 11.1024 10.6855C11.0921 10.696 11.084 10.7084 11.0785 10.7221C11.073 10.7357 11.0702 10.7503 11.0703 10.765C11.0703 10.8275 11.1203 10.878 11.1813 10.878C11.2423 10.878 11.2923 10.8275 11.2923 10.765L11.2918 10.7645ZM3.43685 9.25401C3.48185 9.24651 3.51034 9.19451 3.50084 9.13851C3.49084 9.08201 3.44735 9.04251 3.40285 9.05051C3.35785 9.05801 3.32984 9.11051 3.33934 9.16651C3.34834 9.22301 3.39235 9.26251 3.43685 9.25401ZM13.4228 6.39701C13.3868 6.40851 13.3678 6.45551 13.3813 6.50101C13.3948 6.54651 13.4353 6.57401 13.4713 6.56251C13.5083 6.55101 13.5263 6.50401 13.5133 6.45851C13.5003 6.41251 13.4593 6.38551 13.4233 6.39701H13.4228Z" fill="white"/>
</g>
<defs>
<clipPath id="clip0_8504_12213">
<rect width="16" height="16" fill="white" transform="translate(0.522949 0.000244141)"/>
</clipPath>
</defs>
</svg>
