<svg width="20" height="16" viewBox="0 0 20 16" fill="none" xmlns="http://www.w3.org/2000/svg">
<g clip-path="url(#clip0_8504_12196)">
<path d="M5.55915 0.104861L14.6156 5.33118V10.662L0.765869 2.66576L5.20451 0.104861C5.25898 0.0754547 5.31992 0.0600586 5.38183 0.0600586C5.44374 0.0600586 5.50467 0.0754547 5.55915 0.104861Z" fill="#3CA9E5"/>
<path d="M14.6156 0.000244141L9.9978 2.66567L14.6156 5.33109V0.000244141Z" fill="#2853C3"/>
<path d="M14.6155 0.000244141L19.0579 2.56114C19.1113 2.59364 19.1557 2.63905 19.187 2.69319C19.2183 2.74733 19.2355 2.80846 19.237 2.87099V13.3236L14.6155 10.6619V0.000244141Z" fill="#1A4199"/>
<path d="M19.2333 13.3275L14.7947 15.8884C14.7379 15.9211 14.6736 15.9384 14.608 15.9384C14.5425 15.9384 14.4781 15.9211 14.4214 15.8884L5.36865 10.662V5.32373L19.2333 13.3275Z" fill="#2853C3"/>
<path d="M0.765875 2.66577V13.1184C0.7655 13.1828 0.781806 13.2463 0.813206 13.3025C0.844605 13.3588 0.890031 13.406 0.945064 13.4395L5.3837 16.0003V5.32373L0.765875 2.66577Z" fill="#60BEFF"/>
<path d="M5.38379 15.9927L9.99788 13.3273L5.38379 10.6619V15.9927Z" fill="#3CA9E5"/>
</g>
<defs>
<clipPath id="clip0_8504_12196">
<rect width="18.4713" height="16" fill="white" transform="translate(0.765869 0.000244141)"/>
</clipPath>
</defs>
</svg>
