<svg width="15" height="16" viewBox="0 0 15 16" fill="none" xmlns="http://www.w3.org/2000/svg">
<g clip-path="url(#clip0_8504_12221)">
<path d="M14.5696 10.6989C14.5701 8.89923 14.5701 7.09953 14.5696 5.29986C14.5769 5.11585 14.4845 4.93273 14.3368 4.82425C12.1922 3.25728 10.0476 1.69007 7.90302 0.122615C7.83816 0.0718978 7.76319 0.0356602 7.68315 0.0163408C7.60311 -0.00297862 7.51986 -0.0049318 7.43901 0.0106127C7.33909 0.0302132 7.249 0.0802143 7.16876 0.140376C5.03944 1.69673 2.91001 3.25301 0.780474 4.80921C0.700873 4.86453 0.635923 4.93839 0.591226 5.02441C0.546529 5.11044 0.523426 5.20604 0.523909 5.30298C0.522629 7.10222 0.522629 8.90138 0.523909 10.7005C0.521109 10.8954 0.622231 11.0845 0.782474 11.1942C2.9118 12.7498 5.04069 14.3057 7.16916 15.862C7.37285 16.0362 7.69237 16.05 7.90262 15.8801C10.0404 14.3192 12.1773 12.7575 14.3135 11.195C14.4743 11.0866 14.5784 10.8942 14.5695 10.699" fill="#050708"/>
<path d="M6.80488 1.29866C6.86136 1.23466 6.91864 1.13489 7.01792 1.14817C7.35561 1.15017 7.6941 1.14289 8.0317 1.15177C8.09018 1.1881 8.13499 1.24258 8.18499 1.28938C8.18371 1.63786 8.18371 1.98643 8.18499 2.33508C8.0845 2.33628 7.9837 2.34076 7.88322 2.33388C7.87714 2.30924 7.86506 2.26084 7.85922 2.23628C7.85922 1.97603 7.88178 1.71547 7.86002 1.45562C7.61186 1.45599 7.36385 1.45599 7.11601 1.45562C7.1148 1.54314 7.11441 1.63114 7.11361 1.71867C7.00912 1.71867 6.90424 1.71867 6.79936 1.71787C6.80008 1.57858 6.78472 1.43698 6.80488 1.29866Z" fill="white"/>
<path d="M5.96293 1.72399C6.07709 1.71959 6.19124 1.71959 6.3058 1.72239C6.3074 2.20448 6.3094 2.68617 6.3046 3.16786C6.19564 3.17026 6.08676 3.17026 5.97821 3.16946C5.94197 2.68945 5.97093 2.20568 5.96293 1.72399Z" fill="white"/>
<path d="M8.86696 2.24191C9.17096 2.23791 9.47449 2.23911 9.77833 2.24111C9.77993 2.35248 9.77993 2.46344 9.77833 2.57473C9.47433 2.57793 9.17032 2.57913 8.86632 2.57393C8.8652 2.46336 8.8652 2.35208 8.86632 2.24191" fill="white"/>
<path d="M7.02368 2.40598C7.14632 2.40318 7.26897 2.40358 7.39169 2.40358C7.50905 2.63191 7.65633 2.84495 7.7517 3.08415C7.63913 3.08943 7.52617 3.08943 7.41361 3.08983C7.27985 2.86399 7.15072 2.63551 7.02368 2.40598Z" fill="white"/>
<path d="M8.27596 2.80761C8.38204 2.80521 8.48812 2.80561 8.59468 2.80721C8.88348 3.25522 9.1642 3.70851 9.45516 4.15548C9.45516 4.29148 9.45516 4.42749 9.45276 4.56349C9.42124 4.55781 9.35916 4.54693 9.32812 4.54173C9.08124 4.17372 8.85412 3.79259 8.61004 3.42298C8.60604 3.83899 8.61124 4.255 8.60724 4.67101C8.49668 4.67304 8.38588 4.67304 8.27484 4.67101C8.27348 4.05012 8.27148 3.42882 8.27596 2.80761Z" fill="white"/>
<path d="M9.59444 3.05957C9.7074 3.05717 9.82076 3.05717 9.93371 3.06037C9.93451 3.16686 9.93451 3.27382 9.93371 3.38038C9.82076 3.38318 9.7074 3.38318 9.59484 3.38118C9.59404 3.27419 9.59404 3.16699 9.59484 3.05957" fill="white"/>
<path d="M4.00988 3.16478C4.099 3.16318 4.1882 3.16358 4.27732 3.16438C4.51533 3.14838 4.75293 3.1531 4.99102 3.16678C4.99182 3.27007 4.99102 3.37375 4.99022 3.47703C4.63821 3.6884 4.29996 3.9228 3.94291 4.12505C3.83763 4.08505 3.75731 4.0008 3.67139 3.93056C3.90499 3.78816 4.13372 3.63808 4.36972 3.49967C4.25028 3.49359 4.13052 3.49439 4.01108 3.49319C4.009 3.38343 4.0086 3.27396 4.00988 3.16478Z" fill="white"/>
<path d="M6.82565 3.28741C6.93501 3.28421 7.04469 3.28461 7.15366 3.28741C7.15646 3.39717 7.15646 3.50645 7.15366 3.61621C7.04432 3.61941 6.93499 3.61955 6.82565 3.61661C6.82309 3.50685 6.82309 3.39712 6.82565 3.28741Z" fill="white"/>
<path d="M5.22094 3.60863C5.39606 3.87408 5.5659 4.1432 5.74335 4.40705C5.92047 4.14 6.09151 3.86888 6.27023 3.60303C6.27023 3.77903 6.28191 3.95688 6.26663 4.13272C6.10447 4.41065 5.91687 4.6733 5.74215 4.94363C5.5703 4.67778 5.3883 4.41753 5.22534 4.14648C5.20686 3.96808 5.22014 3.78775 5.22094 3.60863Z" fill="white"/>
<path d="M10.0688 3.65356C10.5945 3.65116 11.1201 3.65129 11.6458 3.65396C11.6458 3.76044 11.6458 3.86741 11.6454 3.97397C11.1201 3.9752 10.5946 3.97533 10.0688 3.97437C10.0684 3.86741 10.068 3.7602 10.0688 3.65356Z" fill="white"/>
<path d="M7.28643 4.06973C7.39211 4.06773 7.49819 4.06773 7.60435 4.06893C7.60963 4.53526 7.60435 5.00207 7.60715 5.46896C7.55795 5.51576 7.50915 5.56336 7.46115 5.61096C7.09683 5.61496 6.73259 5.61096 6.36867 5.61296C6.32067 5.56696 6.27147 5.52296 6.22827 5.47336C6.20971 5.33055 6.22339 5.18487 6.22299 5.04135C6.32432 5.04055 6.42598 5.04055 6.52795 5.04135C6.53075 5.12367 6.53035 5.20591 6.52915 5.28823C6.77971 5.31647 7.03219 5.29623 7.28395 5.30231C7.28523 4.89151 7.28123 4.48006 7.28643 4.06973Z" fill="white"/>
<path d="M12.3682 5.44818C12.3649 5.09617 12.3649 4.74398 12.3682 4.3916C12.4784 4.3892 12.5884 4.3888 12.699 4.3916C12.7026 4.74361 12.7026 5.09593 12.699 5.44858C12.5888 5.45042 12.4787 5.45002 12.3685 5.44858" fill="white"/>
<path d="M10.7985 4.65754C11.0065 4.65554 11.2156 4.62322 11.4225 4.65674C11.558 5.09852 11.6743 5.54709 11.809 5.98967C11.7025 5.99047 11.5956 5.99047 11.489 5.99047C11.3873 5.64718 11.3006 5.2998 11.1957 4.95723C11.1372 4.95803 11.0788 4.95883 11.0202 4.95923C10.9331 5.305 10.8282 5.6455 10.7382 5.98999C10.6308 5.99036 10.5235 5.99023 10.4163 5.98959C10.5483 5.54709 10.6723 5.10156 10.7985 4.65754Z" fill="white"/>
<path d="M1.90586 4.8263C2.38516 4.8235 2.86485 4.8223 3.34406 4.8263C3.34686 4.93646 3.34686 5.04613 3.34446 5.15629C2.86445 5.16069 2.38508 5.15949 1.90538 5.15669C1.90386 5.04653 1.90386 4.93574 1.90586 4.8259" fill="white"/>
<path d="M3.57005 4.82669C3.67901 4.82589 3.7879 4.82549 3.89726 4.82669C3.89966 4.93725 3.89966 5.04813 3.89726 5.1587C3.7879 5.1599 3.67901 5.1595 3.57005 5.1587C3.56877 5.04813 3.56877 4.93797 3.57005 4.82749" fill="white"/>
<path d="M4.77447 4.84026C4.88136 4.83946 4.98872 4.83986 5.0956 4.84106C5.0988 5.09707 5.0972 5.3538 5.0972 5.61005C4.98864 5.61085 4.88016 5.61125 4.77207 5.61005C4.77095 5.35404 4.76759 5.09667 4.77447 4.83986" fill="white"/>
<path d="M13.1524 5.07027C13.2755 5.06787 13.3989 5.06827 13.522 5.06787C13.6438 5.2938 13.7919 5.50788 13.8826 5.74924C13.7706 5.75324 13.6579 5.75364 13.5457 5.75412C13.4131 5.527 13.2867 5.29612 13.1523 5.07027" fill="white"/>
<path d="M8.30187 5.34435C8.40855 5.34355 8.51524 5.34355 8.62192 5.34435C8.62433 5.69531 8.62264 6.04628 8.62264 6.39732C8.51535 6.39812 8.40837 6.39852 8.30115 6.39852C8.30115 6.04724 8.30059 5.69547 8.30187 5.34395" fill="white"/>
<path d="M9.42723 5.77103C9.42595 5.66127 9.42595 5.55126 9.42723 5.44102C9.53491 5.43942 9.64323 5.43942 9.75115 5.44222C9.75115 5.55198 9.75195 5.66167 9.75035 5.77143C9.64283 5.77183 9.53435 5.77143 9.42683 5.77143" fill="white"/>
<path d="M3.33838 6.2576C3.59694 6.0688 3.87294 5.90464 4.13839 5.72632C4.31391 5.72832 4.48895 5.72632 4.66447 5.72872C4.40383 5.91512 4.12671 6.07608 3.86446 6.26001C4.13399 6.42945 4.39823 6.60697 4.66607 6.77801C4.48575 6.78121 4.30543 6.77921 4.12511 6.77961C3.86486 6.60297 3.59454 6.44017 3.33838 6.2576Z" fill="white"/>
<path d="M12.3688 5.95142C12.4793 5.94902 12.5898 5.94862 12.7008 5.95142C12.7035 6.06198 12.7032 6.17207 12.7 6.28264C12.5898 6.28504 12.4794 6.28464 12.3692 6.28264C12.3668 6.17245 12.3668 6.0623 12.3692 5.95222" fill="white"/>
<path d="M1.01951 5.99665C1.57152 5.99345 2.12449 5.99225 2.67722 5.99745C2.67842 6.10193 2.67842 6.20682 2.67882 6.3117C2.43193 6.47346 2.18505 6.63603 1.93128 6.78612C1.824 6.74699 1.74288 6.65811 1.65128 6.59291C1.788 6.50659 1.9268 6.42306 2.05929 6.33066C1.71272 6.32906 1.36623 6.33266 1.01927 6.32866C1.01767 6.2181 1.01767 6.10743 1.01927 5.99665" fill="white"/>
<path d="M5.74594 6.31693C6.22403 6.31893 6.70204 6.31453 7.17973 6.31893C7.19134 6.42765 7.18987 6.53737 7.17533 6.64573C6.69884 6.64773 6.22283 6.64613 5.74682 6.64653C5.74597 6.53629 5.74568 6.42643 5.74594 6.31693Z" fill="white"/>
<path d="M7.49197 6.31902C7.60693 6.31662 7.72149 6.31662 7.83653 6.32062C7.8369 6.42794 7.83674 6.53498 7.83605 6.64177C7.72149 6.64497 7.60653 6.64497 7.49205 6.64297C7.49093 6.53488 7.49093 6.42695 7.49205 6.31902" fill="white"/>
<path d="M8.9957 6.78113C8.98074 6.66777 9.09698 6.60969 9.15667 6.53184C9.29707 6.53184 9.43739 6.53104 9.57788 6.53384C9.58108 6.63953 9.58108 6.74521 9.5794 6.85137C9.49076 6.85297 9.40147 6.85297 9.31283 6.85417V7.60699C9.72548 7.60979 10.1382 7.60539 10.5509 7.60939C10.5521 7.71627 10.5521 7.82324 10.5493 7.9294C10.0846 7.9326 9.6194 7.9298 9.15467 7.931C9.09538 7.85356 8.98162 7.795 8.9961 7.68251C8.99402 7.38219 8.99402 7.08172 8.9961 6.78113" fill="white"/>
<path d="M10.5606 6.68122C10.6743 6.67722 10.7889 6.67722 10.9031 6.68122C10.9043 6.79013 10.9043 6.89907 10.9031 7.00803C10.7889 7.01203 10.6751 7.01203 10.561 7.00803C10.5598 6.89867 10.5598 6.78979 10.561 6.68042" fill="white"/>
<path d="M11.6479 6.68127C12.1287 6.67479 12.6092 6.67927 13.0901 6.67887C13.0909 6.78984 13.0909 6.9012 13.0896 7.01208C12.6091 7.01208 12.1287 7.01608 11.6482 7.01008C11.6466 6.90032 11.6466 6.79072 11.6482 6.68127" fill="white"/>
<path d="M4.98623 7.06485C5.25576 7.06445 5.52481 7.06485 5.79425 7.06445C5.79665 7.17646 5.79665 7.28847 5.79425 7.40047C5.52513 7.4009 5.25616 7.4009 4.98735 7.40047C4.98266 7.28847 4.98242 7.17659 4.98663 7.06485" fill="white"/>
<path d="M6.76329 7.06473C7.1861 7.06433 7.60891 7.06473 8.03164 7.06393C8.18524 7.03993 8.33908 7.19945 8.31964 7.35113C8.31874 7.66169 8.31858 7.97259 8.31916 8.28384C8.26508 8.34232 8.21068 8.4 8.1562 8.45808C8.0162 8.45808 7.87667 8.45808 7.73667 8.45648C7.7355 8.34981 7.73536 8.24331 7.73627 8.13696C7.82379 8.13576 7.91147 8.13496 7.99892 8.13376C7.99892 7.88928 7.99892 7.64441 7.99972 7.39993C7.58899 7.36321 7.17514 7.39385 6.76321 7.38297C6.7622 7.2763 6.7622 7.17023 6.76321 7.06473" fill="white"/>
<path d="M3.78358 7.16336C3.99015 7.16216 4.19631 7.16096 4.40287 7.16416C4.52792 7.61074 4.66224 8.05492 4.78048 8.50358C4.67648 8.50358 4.57248 8.50358 4.46904 8.50438C4.36295 8.15981 4.28103 7.80883 4.17167 7.46594C4.11279 7.46954 4.05391 7.47394 3.99495 7.47842C3.9167 7.82379 3.80494 8.1602 3.71942 8.50398C3.61254 8.50398 3.50558 8.50398 3.39941 8.50278C3.52662 8.05628 3.65326 7.60914 3.78342 7.16336" fill="white"/>
<path d="M12.7952 7.56672C13.1552 7.56312 13.5157 7.55944 13.8753 7.56792C13.9661 7.62392 14.0685 7.7148 14.0487 7.83416C14.0487 8.09016 14.0471 8.34688 14.0487 8.60312C14.0455 8.72616 14.0511 8.8492 14.0475 8.97224C14.0532 9.07272 14.0257 9.17152 14.0315 9.27241C13.929 9.27241 13.8265 9.2724 13.724 9.2712C13.7252 8.80888 13.724 8.34616 13.7248 7.88384C13.4734 7.87696 13.2222 7.88224 12.9708 7.88024C12.9704 7.96616 12.9704 8.05208 12.9688 8.1384C12.8631 8.14 12.7573 8.14054 12.6516 8.14C12.6496 7.9984 12.6501 7.8564 12.6504 7.7148C12.6992 7.666 12.7472 7.61672 12.7952 7.56672" fill="white"/>
<path d="M2.55043 7.57959H2.88483C2.88563 7.93097 2.88483 8.28194 2.88483 8.633H2.54883C2.55043 8.28202 2.54923 7.93065 2.55003 7.57959" fill="white"/>
<path d="M1.50121 7.87345C1.61097 7.87185 1.72065 7.87505 1.83001 7.88233C1.83124 7.98637 1.83124 8.09057 1.83001 8.19493C1.71945 8.19613 1.60897 8.19653 1.49841 8.19493C1.49721 8.08758 1.49761 7.98072 1.50121 7.87385" fill="white"/>
<path d="M5.43049 9.79904C5.42761 9.17773 5.42747 8.55637 5.43009 7.93495C5.53905 7.93335 5.64793 7.93335 5.75689 7.93575C6.0129 8.34849 6.2769 8.75675 6.53835 9.16661C6.65131 9.31221 6.58355 9.5075 6.60171 9.67695C6.56379 9.67695 6.52587 9.67775 6.48835 9.67855C6.25314 9.30493 6.00746 8.9378 5.78233 8.5585C5.74161 8.97084 5.77505 9.38678 5.76177 9.80072C5.65097 9.80184 5.54057 9.80184 5.43049 9.79904Z" fill="white"/>
<path d="M6.88322 8.1739C6.9941 8.1715 7.10504 8.17123 7.21602 8.1731C7.21762 8.44464 7.21722 8.71617 7.21602 8.98763C7.10466 8.98963 6.9937 8.98963 6.88242 8.98683C6.88058 8.71577 6.8801 8.44464 6.88242 8.1739" fill="white"/>
<path d="M8.89451 8.53689C9.00309 8.53609 9.11198 8.53569 9.22095 8.53689C9.22298 8.64746 9.22298 8.758 9.22095 8.86851C9.11198 8.86894 9.00317 8.86894 8.89451 8.86851C8.89323 8.75837 8.89323 8.64796 8.89451 8.53729" fill="white"/>
<path d="M9.95241 8.5514C10.2905 8.547 10.6286 8.5494 10.9671 8.5502C10.9808 8.649 10.9892 8.74947 10.9796 8.84955C10.9476 8.9145 10.871 8.88866 10.8137 8.89474C10.5257 8.88626 10.2368 8.9113 9.95081 8.87874C9.94881 8.76923 9.94881 8.66036 9.95241 8.5514Z" fill="white"/>
<path d="M11.3168 8.59815C11.4258 8.59655 11.5359 8.58927 11.6448 8.60615C11.6553 8.98775 11.6492 9.37062 11.6472 9.7527C11.5371 9.75473 11.4271 9.75473 11.3172 9.7527C11.3135 9.36801 11.3135 8.98329 11.3172 8.59855" fill="white"/>
<path d="M8.30187 8.82437C8.40836 8.82437 8.51533 8.82358 8.6219 8.82437C8.6231 8.93413 8.62342 9.04421 8.6219 9.15477C8.51523 9.15637 8.40855 9.15637 8.30187 9.15477C8.30107 9.04469 8.30107 8.93413 8.30187 8.82397" fill="white"/>
<path d="M3.17255 9.05891C3.55255 9.01779 3.93624 9.05043 4.31785 9.03835C4.41618 9.03709 4.51451 9.04153 4.61233 9.05163C4.61393 9.16259 4.61353 9.27395 4.61233 9.38484C4.13233 9.38404 3.65336 9.38724 3.17415 9.38324C3.17127 9.27516 3.17127 9.16723 3.17215 9.05891" fill="white"/>
<path d="M1.01968 9.30435C1.07176 9.25355 1.12416 9.20227 1.17664 9.15147C1.31544 9.15067 1.45417 9.15027 1.59265 9.15307C1.59425 9.25795 1.59425 9.36324 1.59345 9.46812C1.50713 9.47012 1.42121 9.47052 1.33488 9.47132C1.33688 9.72149 1.33368 9.97158 1.33688 10.2217C1.74553 10.2229 2.15426 10.2189 2.56291 10.2237C2.56491 10.327 2.56491 10.4299 2.56411 10.5332C2.46283 10.5336 2.36115 10.534 2.2601 10.534C1.89746 10.5304 1.53433 10.5401 1.17208 10.5296C1.1116 10.4953 1.05064 10.4388 1.0232 10.3747C1.01368 10.0181 1.02208 9.66109 1.02008 9.30435" fill="white"/>
<path d="M9.49809 9.51235C9.55257 9.46115 9.60745 9.40986 9.66353 9.35986C10.0169 9.36266 10.3704 9.35986 10.7237 9.36106C10.777 9.41186 10.8302 9.46315 10.8837 9.51355C10.8842 9.86332 10.8842 10.213 10.8837 10.5625C10.776 10.5633 10.6683 10.5625 10.561 10.5597C10.561 10.2656 10.5586 9.97188 10.5622 9.67779C10.3142 9.67739 10.0672 9.67779 9.81986 9.67739C9.82026 9.76691 9.81986 9.85652 9.81786 9.94604C9.71178 9.94764 9.60569 9.94764 9.49993 9.94724C9.49649 9.80228 9.49729 9.65747 9.49769 9.51235" fill="white"/>
<path d="M11.7667 10.1298C12.1587 9.87446 12.5547 9.62582 12.95 9.37622C13.0444 9.43918 13.1372 9.50534 13.2292 9.5715C12.9447 9.75283 12.6604 9.93371 12.3764 10.1141C12.7939 10.1185 13.2115 10.1141 13.6294 10.1165C13.6302 10.2275 13.6302 10.3389 13.6294 10.4497C13.0088 10.4518 12.3883 10.4518 11.7679 10.4497C11.7663 10.3428 11.7663 10.2359 11.7671 10.1297" fill="white"/>
<path d="M7.33008 10.193C7.72345 9.93115 8.1293 9.68827 8.5226 9.42651C8.61612 9.49107 8.7086 9.55683 8.80381 9.61851C8.5318 9.80971 8.24307 9.97635 7.96586 10.1607C8.38099 10.1679 8.79613 10.1599 9.21126 10.1651C9.21406 10.2792 9.21406 10.3938 9.21126 10.5079C8.58996 10.5115 7.96858 10.5091 7.3472 10.5091C7.3312 10.4044 7.3312 10.2983 7.33048 10.1926" fill="white"/>
<path d="M3.24668 9.91062C3.41932 10.1746 3.59244 10.4386 3.76309 10.7034C3.94621 10.4419 4.11005 10.1673 4.29157 9.90454C4.29517 10.0825 4.29237 10.2608 4.29397 10.4387C4.11325 10.7034 3.94781 10.9785 3.76229 11.2395C3.59044 10.9773 3.4238 10.7115 3.24468 10.4541C3.24292 10.2729 3.24108 10.0914 3.24668 9.91062Z" fill="white"/>
<path d="M5.13891 10.588C5.13491 10.475 5.13451 10.3621 5.14091 10.2495C5.24947 10.2483 5.35876 10.2487 5.46732 10.2575C5.46972 10.3676 5.46972 10.4777 5.46732 10.5879C5.3582 10.5888 5.24883 10.5892 5.13931 10.5879" fill="white"/>
<path d="M6.67704 10.7511C6.7872 10.7499 6.89768 10.7495 7.00785 10.7511C7.01065 11.1613 7.00785 11.5717 7.00945 11.9819C6.93121 11.9851 6.85288 11.9888 6.77464 11.996C6.7496 11.9911 6.6996 11.9823 6.67456 11.9778C6.67704 11.5692 6.67256 11.1601 6.67704 10.7515" fill="white"/>
<path d="M8.95592 11.0083C9.16393 11.0043 9.37137 11.0071 9.57922 11.0059C9.70668 11.4524 9.83431 11.899 9.9621 12.3456C9.85482 12.3456 9.74746 12.3456 9.64058 12.3432C9.54937 12.002 9.45057 11.6627 9.35777 11.3218C9.29969 11.3182 9.24161 11.3157 9.18353 11.3129C9.08752 11.6574 8.99179 12.0018 8.89632 12.3461C8.78904 12.3461 8.68208 12.3461 8.5752 12.3445C8.70584 11.9 8.83576 11.4554 8.95592 11.0085" fill="white"/>
<path d="M4.24625 11.7483C4.64202 11.4941 5.03698 11.2384 5.43827 10.9927C5.53067 11.0576 5.62387 11.1207 5.71539 11.1872C5.42819 11.3659 5.14658 11.5539 4.8565 11.7278C5.27691 11.7358 5.69763 11.7266 6.11844 11.7326C6.12044 11.8432 6.12084 11.9537 6.11764 12.0642C5.49435 12.0662 4.87106 12.0691 4.24777 12.063C4.24465 11.9581 4.24505 11.8532 4.24625 11.7483Z" fill="white"/>
<path d="M7.51514 11.0737C7.63101 11.075 7.74682 11.068 7.86169 11.0527C7.99769 11.2767 8.15816 11.4989 8.228 11.7539C8.11944 11.7547 8.01097 11.7547 7.90289 11.7555C7.77521 11.5271 7.64596 11.2999 7.51514 11.0737Z" fill="white"/>
<path d="M12.0966 11.2104C12.21 11.2068 12.3237 11.2068 12.4374 11.2092C12.4379 11.3177 12.4379 11.4264 12.4374 11.5352C12.3237 11.538 12.2103 11.538 12.097 11.5332C12.095 11.4254 12.095 11.3182 12.097 11.2104" fill="white"/>
<path d="M11.2614 12.0785C11.3986 11.8579 11.5454 11.6436 11.6834 11.4234C11.6874 11.5868 11.6899 11.7506 11.6858 11.9144C11.6898 11.9757 11.6451 12.0233 11.6165 12.0729C11.4645 12.2977 11.3187 12.5268 11.1695 12.7529C10.99 12.4851 10.8162 12.2144 10.6386 11.9449C10.6378 11.7658 10.6362 11.5867 10.6406 11.408C10.8149 11.669 10.9795 11.9369 11.1578 12.1954C11.2082 12.1741 11.2308 12.1201 11.2618 12.0785" fill="white"/>
<path d="M2.81843 11.7612C3.10931 11.7515 3.4006 11.7563 3.69188 11.7584C3.69348 11.8661 3.70036 11.9744 3.6866 12.082C3.39772 12.096 3.10771 12.0892 2.81883 12.084C2.81763 11.9763 2.81763 11.8689 2.81843 11.7612Z" fill="white"/>
<path d="M6.36455 12.4643C6.83088 12.4574 7.29689 12.4643 7.76322 12.4607C7.81656 12.514 7.86989 12.5677 7.92322 12.6217C7.92122 12.9779 7.92202 13.3345 7.92242 13.6915C7.87565 13.7403 7.82938 13.7897 7.78362 13.8396C7.63434 13.8428 7.48506 13.8432 7.33561 13.8388C7.33761 13.7379 7.32473 13.635 7.34889 13.5362C7.43321 13.5273 7.51794 13.5305 7.60306 13.5297C7.60386 13.2801 7.60306 13.0307 7.60306 12.7814C7.18993 12.779 6.7764 12.7867 6.36375 12.7774C6.36247 12.6729 6.36247 12.5686 6.36375 12.4643" fill="white"/>
<path d="M4.12432 12.5831C4.23323 12.5815 4.34229 12.5817 4.45151 12.5839C4.45311 12.6927 4.45325 12.8019 4.45191 12.9114C4.34216 12.913 4.23283 12.9132 4.12392 12.9118C4.12243 12.8021 4.12243 12.6925 4.12392 12.5831" fill="white"/>
<path d="M9.89414 12.7592C10.0176 12.6552 10.1297 12.8286 10.2354 12.8792C10.2354 12.8889 10.2354 12.9086 10.2354 12.9183C9.9595 13.0962 9.67709 13.2645 9.40717 13.4517L9.56373 13.4505C9.64677 13.4505 9.73016 13.4514 9.8139 13.4533C9.8147 13.5623 9.8147 13.6715 9.8131 13.7805C9.47341 13.7854 9.13372 13.7841 8.79404 13.7813C8.78716 13.6784 8.78604 13.5751 8.78516 13.4727C9.1478 13.2247 9.52621 13.0006 9.89374 12.7592" fill="white"/>
<path d="M4.73686 13.0618C5.17783 13.0602 5.6192 13.0578 6.06009 13.063C6.06089 13.1715 6.06089 13.2802 6.06009 13.389C5.61872 13.3955 5.17775 13.3926 4.73646 13.3906C4.73446 13.2809 4.73486 13.1712 4.73646 13.0618" fill="white"/>
<path d="M5.91211 13.8994C6.03635 13.8982 6.16059 13.8978 6.28492 13.9002C6.39988 14.1289 6.55276 14.3396 6.64116 14.5812C6.5298 14.5873 6.41884 14.5873 6.30756 14.5881C6.17155 14.3609 6.04443 14.1284 5.91211 13.8994Z" fill="white"/>
<path d="M8.11454 14.247C8.2231 14.2462 8.33157 14.2478 8.43964 14.255C8.44164 14.3636 8.44084 14.4725 8.42716 14.5806C8.32349 14.5811 8.22008 14.5811 8.11694 14.5806C8.11294 14.4686 8.11294 14.358 8.11446 14.247" fill="white"/>
<path d="M7.3581 15.3266C7.3581 15.0733 7.35242 14.8195 7.3621 14.5662C7.47147 14.5662 7.58115 14.5722 7.69012 14.5822C7.69134 14.8303 7.69134 15.0785 7.69012 15.3269C7.57939 15.3286 7.46872 15.3286 7.3581 15.3269" fill="white"/>
</g>
<defs>
<clipPath id="clip0_8504_12221">
<rect width="14.0472" height="16" fill="white" transform="translate(0.522949 0.000244141)"/>
</clipPath>
</defs>
</svg>
