<svg width="17" height="16" viewBox="0 0 17 16" fill="none" xmlns="http://www.w3.org/2000/svg">
<g clip-path="url(#clip0_8504_12568)">
<path d="M8.02588 16.0002C12.4442 16.0002 16.0259 12.4185 16.0259 8.00024C16.0259 3.58197 12.4442 0.000244141 8.02588 0.000244141C3.6076 0.000244141 0.0258789 3.58197 0.0258789 8.00024C0.0258789 12.4185 3.6076 16.0002 8.02588 16.0002Z" fill="#181818"/>
<path d="M8.39066 7.04023L11.5715 3.85303L12.2179 4.50583L9.03707 7.68663L8.39066 7.04023ZM3.82739 11.597L7.01464 8.40983L7.66105 9.06263L4.4802 12.2434L3.82739 11.597ZM8.39066 9.06263L9.03707 8.40983L12.2243 11.597L11.5715 12.2434L8.39066 9.06263ZM3.82739 4.50583L4.4802 3.85303L7.66105 7.03383L7.01464 7.68663L3.82739 4.50583ZM7.37304 8.04503L8.02585 7.39223L8.67866 8.04503L8.02585 8.69783L7.37304 8.04503Z" fill="#F6D30C"/>
</g>
<defs>
<clipPath id="clip0_8504_12568">
<rect width="16" height="16" fill="white" transform="translate(0.0258789 0.000244141)"/>
</clipPath>
</defs>
</svg>
