<svg width="17" height="16" viewBox="0 0 17 16" fill="none" xmlns="http://www.w3.org/2000/svg">
<g clip-path="url(#clip0_8504_12297)">
<path d="M2.59309 7.70129C2.59317 7.86957 2.54335 8.0341 2.44992 8.17406C2.35648 8.31403 2.22364 8.42314 2.0682 8.4876C1.91275 8.55205 1.74168 8.56896 1.57662 8.53619C1.41156 8.50341 1.25993 8.42241 1.1409 8.30345C1.02188 8.18449 0.94081 8.0329 0.907949 7.86785C0.875087 7.70281 0.89191 7.53173 0.956289 7.37625C1.02067 7.22077 1.12971 7.08787 1.26963 6.99437C1.40954 6.90087 1.57405 6.85096 1.74233 6.85096C1.96789 6.85096 2.18422 6.94054 2.34375 7.09999C2.50329 7.25945 2.59297 7.47573 2.59309 7.70129ZM16.1103 7.70129C16.1104 7.86959 16.0606 8.03414 15.9671 8.17411C15.8737 8.31408 15.7408 8.42319 15.5854 8.48764C15.4299 8.55208 15.2588 8.56897 15.0937 8.53615C14.9287 8.50334 14.777 8.42231 14.658 8.3033C14.539 8.18429 14.458 8.03266 14.4252 7.86759C14.3923 7.70252 14.4092 7.53142 14.4737 7.37595C14.5381 7.22048 14.6472 7.08761 14.7872 6.99416C14.9272 6.90071 15.0917 6.85088 15.26 6.85096C15.4852 6.85153 15.701 6.94135 15.8601 7.10075C16.0191 7.26014 16.1085 7.4761 16.1086 7.70129H16.1103ZM9.35193 11.0575C9.35202 11.2258 9.30218 11.3904 9.20873 11.5304C9.11528 11.6703 8.98242 11.7794 8.82694 11.8439C8.67147 11.9083 8.50038 11.9252 8.3353 11.8924C8.17023 11.8596 8.0186 11.7786 7.8996 11.6595C7.78059 11.5405 7.69956 11.3889 7.66674 11.2238C7.63393 11.0588 7.65081 10.8877 7.71526 10.7322C7.7797 10.5767 7.88881 10.4439 8.02879 10.3504C8.16876 10.257 8.3333 10.2071 8.5016 10.2072C8.72709 10.2073 8.94331 10.297 9.10275 10.4564C9.26219 10.6158 9.35182 10.8321 9.35193 11.0575ZM5.94933 9.40066C5.94933 9.56893 5.89943 9.73341 5.80595 9.87332C5.71247 10.0132 5.5796 10.1223 5.42414 10.1867C5.26869 10.2511 5.09763 10.2679 4.9326 10.2351C4.76757 10.2022 4.61598 10.1212 4.497 10.0022C4.37801 9.88326 4.29699 9.73167 4.26416 9.56664C4.23133 9.40161 4.24818 9.23055 4.31257 9.07509C4.37697 8.91964 4.48601 8.78677 4.62592 8.69328C4.76582 8.5998 4.93031 8.5499 5.09857 8.5499C5.32421 8.5499 5.5406 8.63954 5.70015 8.79909C5.8597 8.95863 5.94933 9.17503 5.94933 9.40066ZM12.7082 9.40066C12.7086 9.56909 12.659 9.73386 12.5657 9.87408C12.4724 10.0143 12.3396 10.1237 12.1841 10.1884C12.0286 10.253 11.8573 10.2701 11.6921 10.2374C11.5269 10.2046 11.3751 10.1236 11.256 10.0045C11.1369 9.88547 11.0558 9.73372 11.023 9.56852C10.9902 9.40332 11.0071 9.2321 11.0717 9.07654C11.1363 8.92099 11.2456 8.78812 11.3858 8.69474C11.526 8.60137 11.6907 8.55171 11.8591 8.55205C12.0841 8.5525 12.2997 8.64204 12.4588 8.80108C12.618 8.96011 12.7076 9.1757 12.7082 9.40066ZM2.31708 10.2763C2.317 10.39 2.28321 10.5011 2.21998 10.5956C2.15676 10.69 2.06694 10.7636 1.96188 10.8071C1.85683 10.8505 1.74125 10.8618 1.62978 10.8395C1.5183 10.8173 1.41593 10.7624 1.33561 10.682C1.25529 10.6016 1.20063 10.4991 1.17853 10.3876C1.15644 10.2761 1.16791 10.1605 1.21149 10.0555C1.25507 9.95055 1.3288 9.86084 1.42337 9.79776C1.51793 9.73468 1.62908 9.70105 1.74276 9.70113C1.81823 9.70119 1.89296 9.71611 1.96267 9.74505C2.03238 9.77398 2.09571 9.81637 2.14904 9.86978C2.20238 9.92319 2.24466 9.98658 2.2735 10.0563C2.30233 10.1261 2.31714 10.2008 2.31708 10.2763ZM15.8343 10.2763C15.8343 10.39 15.8005 10.5011 15.7372 10.5956C15.674 10.69 15.5842 10.7636 15.4791 10.8071C15.3741 10.8505 15.2585 10.8618 15.147 10.8395C15.0356 10.8173 14.9332 10.7624 14.8529 10.682C14.7726 10.6016 14.7179 10.4991 14.6958 10.3876C14.6737 10.2761 14.6852 10.1605 14.7288 10.0555C14.7723 9.95055 14.8461 9.86084 14.9406 9.79776C15.0352 9.73468 15.1463 9.70105 15.26 9.70113C15.4124 9.70125 15.5585 9.76184 15.6663 9.8696C15.7741 9.97736 15.8347 10.1235 15.8348 10.2759L15.8343 10.2763ZM9.07593 13.6781C9.07601 13.7918 9.04237 13.903 8.97924 13.9975C8.91612 14.0921 8.82636 14.1659 8.72132 14.2094C8.61628 14.253 8.50068 14.2644 8.38915 14.2422C8.27762 14.2201 8.17517 14.1653 8.09476 14.0849C8.01435 14.0045 7.95961 13.9021 7.93744 13.7905C7.91528 13.679 7.9267 13.5634 7.97025 13.4584C8.01381 13.3533 8.08754 13.2636 8.18213 13.2004C8.27671 13.1373 8.38789 13.1037 8.5016 13.1037C8.65385 13.104 8.7998 13.1646 8.90746 13.2722C9.01512 13.3799 9.0757 13.5258 9.07593 13.6781ZM5.67376 11.9761C5.67376 12.0898 5.64004 12.201 5.57686 12.2955C5.51369 12.39 5.4239 12.4637 5.31885 12.5072C5.2138 12.5507 5.09822 12.562 4.98671 12.5398C4.87521 12.5176 4.7728 12.4628 4.69244 12.3824C4.61207 12.302 4.55737 12.1995 4.53524 12.088C4.51311 11.9765 4.52455 11.8609 4.56812 11.7559C4.61169 11.6509 4.68542 11.5611 4.78 11.498C4.87457 11.4349 4.98574 11.4013 5.09943 11.4014C5.17489 11.4014 5.24961 11.4162 5.31931 11.4451C5.38902 11.474 5.45236 11.5164 5.50569 11.5697C5.55903 11.6231 5.60132 11.6865 5.63016 11.7562C5.659 11.8259 5.67381 11.9007 5.67376 11.9761ZM12.4326 11.9761C12.4329 12.0899 12.3993 12.2012 12.3363 12.2959C12.2732 12.3906 12.1835 12.4645 12.0784 12.5082C11.9733 12.5518 11.8576 12.5633 11.746 12.5412C11.6344 12.519 11.5319 12.4643 11.4514 12.3838C11.371 12.3034 11.3162 12.2008 11.2941 12.0892C11.2719 11.9776 11.2834 11.8619 11.3271 11.7569C11.3708 11.6518 11.4446 11.562 11.5393 11.499C11.634 11.4359 11.7453 11.4024 11.8591 11.4027C12.011 11.4031 12.1566 11.4637 12.264 11.5711C12.3714 11.6786 12.4318 11.8242 12.4322 11.9761H12.4326ZM2.04151 12.2989C2.04151 12.3583 2.02389 12.4164 1.99087 12.4658C1.95786 12.5153 1.91093 12.5538 1.85602 12.5765C1.80112 12.5993 1.74071 12.6052 1.68242 12.5936C1.62414 12.582 1.5706 12.5534 1.52858 12.5114C1.48655 12.4694 1.45794 12.4158 1.44634 12.3575C1.43475 12.2992 1.4407 12.2388 1.46344 12.1839C1.48618 12.129 1.5247 12.0821 1.57411 12.0491C1.62352 12.0161 1.68161 11.9984 1.74104 11.9984C1.82073 11.9984 1.89716 12.0301 1.9535 12.0864C2.00985 12.1428 2.04151 12.2192 2.04151 12.2989ZM15.5588 12.2989C15.5588 12.3583 15.5412 12.4164 15.5081 12.4658C15.4751 12.5153 15.4282 12.5538 15.3733 12.5765C15.3184 12.5993 15.258 12.6052 15.1997 12.5936C15.1414 12.582 15.0879 12.5534 15.0458 12.5114C15.0038 12.4694 14.9752 12.4158 14.9636 12.3575C14.952 12.2992 14.958 12.2388 14.9807 12.1839C15.0034 12.129 15.042 12.0821 15.0914 12.0491C15.1408 12.0161 15.1989 11.9984 15.2583 11.9984C15.338 11.9984 15.4144 12.0301 15.4708 12.0864C15.5271 12.1428 15.5588 12.2192 15.5588 12.2989ZM8.79993 15.7015C8.79993 15.7609 8.7823 15.819 8.74929 15.8685C8.71627 15.9179 8.66934 15.9564 8.61444 15.9791C8.55954 16.0019 8.49912 16.0078 8.44084 15.9962C8.38255 15.9846 8.32901 15.956 8.28699 15.914C8.24497 15.872 8.21635 15.8184 8.20476 15.7601C8.19317 15.7019 8.19912 15.6414 8.22186 15.5865C8.2446 15.5316 8.28311 15.4847 8.33252 15.4517C8.38194 15.4187 8.44003 15.4011 8.49946 15.4011C8.57915 15.4011 8.65557 15.4327 8.71192 15.4891C8.76827 15.5454 8.79993 15.6218 8.79993 15.7015ZM5.39775 14.0004C5.39775 14.0599 5.38013 14.118 5.34712 14.1674C5.3141 14.2168 5.26717 14.2553 5.21227 14.278C5.15737 14.3008 5.09695 14.3067 5.03867 14.2951C4.98038 14.2835 4.92684 14.2549 4.88482 14.2129C4.8428 14.1709 4.81418 14.1173 4.80259 14.0591C4.79099 14.0008 4.79695 13.9403 4.81969 13.8854C4.84243 13.8305 4.88094 13.7836 4.93035 13.7506C4.97976 13.7176 5.03786 13.7 5.09728 13.7C5.17697 13.7 5.2534 13.7316 5.30975 13.788C5.3661 13.8443 5.39775 13.9207 5.39775 14.0004ZM12.1566 14.0004C12.1566 14.0599 12.139 14.118 12.106 14.1674C12.0729 14.2168 12.026 14.2553 11.9711 14.278C11.9162 14.3008 11.8558 14.3067 11.7975 14.2951C11.7392 14.2835 11.6857 14.2549 11.6437 14.2129C11.6016 14.1709 11.573 14.1173 11.5614 14.0591C11.5498 14.0008 11.5558 13.9403 11.5785 13.8854C11.6013 13.8305 11.6398 13.7836 11.6892 13.7506C11.7386 13.7176 11.7967 13.7 11.8561 13.7C11.9358 13.7 12.0122 13.7316 12.0686 13.788C12.1249 13.8443 12.1566 13.9207 12.1566 14.0004ZM9.62708 1.14976C9.62708 1.37715 9.55964 1.59943 9.43329 1.78848C9.30694 1.97754 9.12736 2.12487 8.91727 2.21185C8.70717 2.29883 8.476 2.32154 8.25299 2.27712C8.02998 2.23269 7.82516 2.12313 7.66444 1.96228C7.50371 1.80143 7.3943 1.59653 7.35004 1.37349C7.30578 1.15045 7.32867 0.919293 7.4158 0.709262C7.50294 0.499231 7.65041 0.319762 7.83956 0.193555C8.02871 0.067348 8.25104 7.46416e-05 8.47842 0.000244461C8.78314 0.000472035 9.07531 0.121682 9.2907 0.337232C9.50609 0.552783 9.62708 0.845036 9.62708 1.14976ZM9.62708 4.55022C9.62708 4.77759 9.55965 4.99985 9.43332 5.1889C9.30699 5.37794 9.12744 5.52528 8.91737 5.61227C8.70729 5.69926 8.47614 5.722 8.25315 5.67761C8.03015 5.63322 7.82533 5.5237 7.66459 5.3629C7.50384 5.20209 7.3944 4.99723 7.35009 4.77421C7.30579 4.5512 7.32861 4.32006 7.41568 4.11002C7.50275 3.89998 7.65015 3.72048 7.83924 3.59423C8.02834 3.46797 8.25062 3.40062 8.47799 3.40071C8.78279 3.40082 9.07506 3.52198 9.29054 3.73754C9.50603 3.95311 9.62708 4.24542 9.62708 4.55022ZM9.62708 7.9069C9.62708 8.13427 9.55965 8.35653 9.43332 8.54558C9.30699 8.73462 9.12744 8.88196 8.91737 8.96895C8.70729 9.05594 8.47614 9.07868 8.25315 9.03429C8.03015 8.9899 7.82533 8.88038 7.66459 8.71957C7.50384 8.55877 7.3944 8.35391 7.35009 8.13089C7.30579 7.90788 7.32861 7.67674 7.41568 7.4667C7.50275 7.25666 7.65015 7.07716 7.83924 6.9509C8.02834 6.82465 8.25062 6.7573 8.47799 6.75739C8.62906 6.75744 8.77863 6.78727 8.91816 6.84517C9.05769 6.90308 9.18443 6.98791 9.29115 7.09483C9.39787 7.20175 9.48247 7.32865 9.54011 7.46829C9.59775 7.60792 9.6273 7.75755 9.62708 7.90862V7.9069ZM16.3864 4.55022C16.3864 4.77757 16.3189 4.99982 16.1926 5.18885C16.0663 5.37789 15.8868 5.52523 15.6767 5.61223C15.4667 5.69923 15.2356 5.722 15.0126 5.67764C14.7896 5.63329 14.5848 5.52381 14.424 5.36305C14.2633 5.20229 14.1538 4.99746 14.1094 4.77448C14.0651 4.55149 14.0878 4.32037 14.1748 4.11032C14.2618 3.90027 14.4092 3.72074 14.5982 3.59443C14.7872 3.46812 15.0095 3.40071 15.2368 3.40071C15.5417 3.40071 15.8341 3.52182 16.0497 3.73739C16.2652 3.95297 16.3864 4.24535 16.3864 4.55022ZM2.86909 4.55022C2.86943 4.77764 2.8023 5.00006 2.6762 5.18932C2.55009 5.37858 2.37068 5.52619 2.16067 5.61345C1.95065 5.70072 1.71947 5.72373 1.49637 5.67957C1.27328 5.63541 1.06829 5.52607 0.90736 5.36537C0.746427 5.20468 0.636776 4.99986 0.592282 4.77683C0.547789 4.5538 0.570453 4.32258 0.657406 4.11243C0.744359 3.90229 0.891693 3.72266 1.08077 3.59627C1.26984 3.46989 1.49215 3.40242 1.71958 3.40242C2.02415 3.40242 2.31627 3.5233 2.5318 3.7385C2.74732 3.95371 2.86863 4.24565 2.86909 4.55022ZM6.27126 2.84913C6.2716 3.07648 6.20451 3.29883 6.07849 3.48805C5.95246 3.67728 5.77315 3.82488 5.56324 3.9122C5.35332 3.99952 5.12223 4.02263 4.89918 3.9786C4.67613 3.93458 4.47114 3.82541 4.31014 3.66489C4.14914 3.50436 4.03935 3.29971 3.99467 3.07679C3.94998 2.85387 3.9724 2.62271 4.05909 2.41253C4.14578 2.20236 4.29284 2.02261 4.48169 1.89602C4.67054 1.76942 4.89268 1.70167 5.12003 1.70133C5.4249 1.70133 5.71729 1.82244 5.93286 2.03802C6.14844 2.25359 6.26954 2.54598 6.26954 2.85085L6.27126 2.84913ZM6.26954 6.2071C6.26954 6.43445 6.20213 6.6567 6.07582 6.84573C5.94951 7.03477 5.76998 7.1821 5.55993 7.26911C5.34989 7.35611 5.11876 7.37888 4.89578 7.33452C4.67279 7.29017 4.46797 7.18069 4.30721 7.01992C4.14645 6.85916 4.03697 6.65434 3.99261 6.43136C3.94826 6.20837 3.97102 5.97724 4.05802 5.7672C4.14503 5.55715 4.29236 5.37762 4.4814 5.25131C4.67044 5.125 4.89268 5.05758 5.12003 5.05758C5.4249 5.05758 5.71729 5.17869 5.93286 5.39427C6.14844 5.60984 6.26954 5.90223 6.26954 6.2071ZM13.0301 2.85085C13.0301 3.0782 12.9627 3.30045 12.8364 3.48948C12.7101 3.67852 12.5305 3.82585 12.3205 3.91286C12.1104 3.99986 11.8793 4.02263 11.6563 3.97827C11.4334 3.93392 11.2285 3.82444 11.0678 3.66367C10.907 3.50291 10.7975 3.29809 10.7532 3.07511C10.7088 2.85212 10.7316 2.62099 10.8186 2.41095C10.9056 2.2009 11.0529 2.02137 11.242 1.89506C11.431 1.76875 11.6532 1.70133 11.8806 1.70133C12.1855 1.70133 12.4778 1.82244 12.6934 2.03802C12.909 2.25359 13.0301 2.54598 13.0301 2.85085ZM13.0301 6.2071C13.0301 6.43445 12.9627 6.6567 12.8364 6.84573C12.7101 7.03477 12.5305 7.1821 12.3205 7.26911C12.1104 7.35611 11.8793 7.37888 11.6563 7.33452C11.4334 7.29017 11.2285 7.18069 11.0678 7.01992C10.907 6.85916 10.7975 6.65434 10.7532 6.43136C10.7088 6.20837 10.7316 5.97724 10.8186 5.7672C10.9056 5.55715 11.0529 5.37762 11.242 5.25131C11.431 5.125 11.6532 5.05758 11.8806 5.05758C12.1855 5.05758 12.4778 5.17869 12.6934 5.39427C12.909 5.60984 13.0301 5.90223 13.0301 6.2071Z" fill="#141414"/>
</g>
<defs>
<clipPath id="clip0_8504_12297">
<rect width="15.8163" height="16" fill="white" transform="translate(0.570068 0.000244141)"/>
</clipPath>
</defs>
</svg>
