<svg width="17" height="16" viewBox="0 0 17 16" fill="none" xmlns="http://www.w3.org/2000/svg">
<g clip-path="url(#clip0_8504_12303)">
<path d="M8.00598 7.28076C9.88902 7.28076 11.4155 5.75425 11.4155 3.87121C11.4155 1.98818 9.88902 0.46167 8.00598 0.46167C6.12294 0.46167 4.59644 1.98818 4.59644 3.87121C4.59644 5.75425 6.12294 7.28076 8.00598 7.28076Z" fill="#88BDF3"/>
<path d="M8.00598 15.5205C9.88902 15.5205 11.4155 13.994 11.4155 12.111C11.4155 10.2279 9.88902 8.70142 8.00598 8.70142C6.12294 8.70142 4.59644 10.2279 4.59644 12.111C4.59644 13.994 6.12294 15.5205 8.00598 15.5205Z" fill="#3075EE"/>
<path d="M12.1259 11.4006C14.0089 11.4006 15.5354 9.87413 15.5354 7.99109C15.5354 6.10805 14.0089 4.58154 12.1259 4.58154C10.2428 4.58154 8.71631 6.10805 8.71631 7.99109C8.71631 9.87413 10.2428 11.4006 12.1259 11.4006Z" fill="#5795F1"/>
<path d="M3.88611 11.4006C5.76915 11.4006 7.29565 9.87413 7.29565 7.99109C7.29565 6.10805 5.76915 4.58154 3.88611 4.58154C2.00307 4.58154 0.476562 6.10805 0.476562 7.99109C0.476562 9.87413 2.00307 11.4006 3.88611 11.4006Z" fill="#205FEC"/>
<path d="M7.20348 7.18859C6.59576 7.04082 6.04039 6.72874 5.59814 6.28649C5.1559 5.84425 4.84382 5.28888 4.69604 4.68115C5.30269 4.83117 5.85686 5.144 6.29875 5.58589C6.74063 6.02778 7.05346 6.58194 7.20348 7.18859Z" fill="#134BEF"/>
<path d="M4.68896 11.3084C4.83674 10.7007 5.14882 10.1454 5.59106 9.70312C6.03331 9.26088 6.58868 8.9488 7.1964 8.80103C7.04638 9.40767 6.73355 9.96183 6.29166 10.4037C5.84978 10.8456 5.29561 11.1584 4.68896 11.3084Z" fill="#0932E8"/>
<path d="M8.80884 8.79395C9.41656 8.94172 9.97193 9.2538 10.4142 9.69604C10.8564 10.1383 11.1685 10.6937 11.3163 11.3014C10.7096 11.1514 10.1555 10.8385 9.71357 10.3966C9.27169 9.95476 8.95886 9.40059 8.80884 8.79395Z" fill="#164BEA"/>
<path d="M11.3233 4.67407C11.1756 5.28179 10.8635 5.83716 10.4212 6.27941C9.979 6.72166 9.42364 7.03374 8.81592 7.18151C8.96594 6.57486 9.27877 6.02069 9.72065 5.57881C10.1625 5.13692 10.7167 4.82409 11.3233 4.67407Z" fill="#3170F1"/>
</g>
<defs>
<clipPath id="clip0_8504_12303">
<rect width="16" height="16" fill="white" transform="translate(0.382324 0.000244141)"/>
</clipPath>
</defs>
</svg>
