<svg width="16" height="16" viewBox="0 0 16 16" fill="none" xmlns="http://www.w3.org/2000/svg">
<g clip-path="url(#clip0_8504_12317)">
<path d="M8 16.0002C12.4183 16.0002 16 12.4185 16 8.00024C16 3.58197 12.4183 0.000244141 8 0.000244141C3.58172 0.000244141 0 3.58197 0 8.00024C0 12.4185 3.58172 16.0002 8 16.0002Z" fill="#1A53F0"/>
<path d="M5.92808 8.64524C5.35092 8.64564 4.79755 8.87526 4.38967 9.28361C3.9818 9.69196 3.75281 10.2456 3.75308 10.8227C3.75281 11.3998 3.98173 11.9534 4.3895 12.3617C4.79727 12.77 5.35051 12.9997 5.92758 13.0002C6.21344 13.0002 6.49649 12.9438 6.76056 12.8343C7.02464 12.7249 7.26456 12.5644 7.46662 12.3622C7.66869 12.16 7.82895 11.92 7.93823 11.6558C8.04752 11.3917 8.10371 11.1086 8.10358 10.8227C8.10371 10.5369 8.04754 10.2539 7.93828 9.98976C7.82902 9.72564 7.66881 9.48563 7.4668 9.28343C7.26479 9.08123 7.02493 8.9208 6.76091 8.8113C6.4969 8.7018 6.2139 8.64538 5.92808 8.64524ZM5.92808 12.3417C5.5257 12.3415 5.1399 12.1814 4.85551 11.8967C4.57113 11.6121 4.41144 11.2261 4.41158 10.8237C4.41144 10.6245 4.45057 10.4271 4.52671 10.2429C4.60285 10.0588 4.71451 9.89142 4.85533 9.75042C4.99615 9.60941 5.16337 9.49752 5.34743 9.42114C5.53149 9.34476 5.7288 9.30538 5.92808 9.30524C6.1274 9.30531 6.32476 9.34464 6.50888 9.421C6.69299 9.49735 6.86027 9.60923 7.00114 9.75024C7.14201 9.89125 7.25373 10.0586 7.3299 10.2428C7.40607 10.427 7.44521 10.6244 7.44508 10.8237C7.44455 11.226 7.28458 11.6117 7.00023 11.8962C6.71588 12.1807 6.33034 12.341 5.92808 12.3417ZM10.5751 4.00024C10.2893 4.00038 10.0063 4.0568 9.74224 4.1663C9.47823 4.2758 9.23836 4.43623 9.03635 4.63843C8.83434 4.84063 8.67413 5.08064 8.56487 5.34476C8.45561 5.60887 8.39944 5.89192 8.39958 6.17774C8.39931 6.7549 8.6283 7.30853 9.03617 7.71688C9.44405 8.12522 9.99742 8.35485 10.5746 8.35524C10.8604 8.35518 11.1435 8.2988 11.4076 8.18933C11.6716 8.07986 11.9116 7.91944 12.1136 7.71723C12.3157 7.51503 12.4759 7.27499 12.5852 7.01085C12.6945 6.7467 12.7507 6.46361 12.7506 6.17774C12.7507 5.89188 12.6945 5.60879 12.5852 5.34464C12.4759 5.08049 12.3157 4.84046 12.1136 4.63826C11.9116 4.43605 11.6716 4.27563 11.4076 4.16616C11.1435 4.05669 10.8604 4.00031 10.5746 4.00024H10.5751ZM10.5751 7.69674C10.3758 7.69668 10.1785 7.65736 9.99439 7.58104C9.81031 7.50472 9.64305 7.39288 9.50219 7.25192C9.36132 7.11097 9.2496 6.94364 9.1734 6.7595C9.0972 6.57537 9.05801 6.37803 9.05808 6.17874C9.05794 5.97942 9.09708 5.78202 9.17325 5.59783C9.24942 5.41364 9.36114 5.24625 9.50201 5.10524C9.64288 4.96423 9.81016 4.85235 9.99428 4.776C10.1784 4.69964 10.3758 4.66031 10.5751 4.66024C10.7744 4.66038 10.9717 4.69976 11.1557 4.77614C11.3398 4.85252 11.507 4.96441 11.6478 5.10542C11.7886 5.24642 11.9003 5.41378 11.9764 5.59795C12.0526 5.78211 12.0917 5.97946 12.0916 6.17874C12.091 6.58092 11.9312 6.9665 11.6469 7.25102C11.3627 7.53554 10.9773 7.69582 10.5751 7.69674ZM5.92808 4.00024C5.42578 4.00091 4.93914 4.17508 4.55051 4.4933C4.16187 4.81151 3.89511 5.25422 3.79536 5.74651C3.69561 6.2388 3.76899 6.75043 4.0031 7.19483C4.23721 7.63923 4.61766 7.9891 5.08008 8.18524C5.54284 8.3808 6.05903 8.41016 6.54099 8.26834C7.02295 8.12652 7.44097 7.82227 7.72408 7.40724C8.00749 6.99199 8.13867 6.49154 8.09538 5.99065C8.0521 5.48976 7.83702 5.01923 7.48658 4.65874H8.10308V4.00024H5.92808ZM7.44508 6.17774C7.44514 6.37702 7.40596 6.57437 7.32975 6.7585C7.25355 6.94264 7.14183 7.10997 7.00096 7.25093C6.8601 7.39188 6.69285 7.50372 6.50876 7.58004C6.32467 7.65636 6.12736 7.69568 5.92808 7.69574C5.5257 7.69548 5.1399 7.53541 4.85551 7.25075C4.57113 6.96608 4.41144 6.58012 4.41158 6.17774C4.41144 5.77536 4.57113 5.38941 4.85551 5.10474C5.1399 4.82007 5.5257 4.66001 5.92808 4.65974C6.33043 4.66041 6.7161 4.82057 7.00056 5.10512C7.28501 5.38967 7.44505 5.77539 7.44558 6.17774H7.44508Z" fill="white"/>
</g>
<defs>
<clipPath id="clip0_8504_12317">
<rect width="16" height="16" fill="white" transform="translate(0 0.000244141)"/>
</clipPath>
</defs>
</svg>
