<svg width="17" height="16" viewBox="0 0 17 16" fill="none" xmlns="http://www.w3.org/2000/svg">
<g clip-path="url(#clip0_8504_11600)">
<path d="M12.5827 0.000245184C11.6663 -0.000466197 10.7871 0.362447 10.1381 1.00932C9.48905 1.6562 9.12319 2.53417 9.12083 3.45053V7.27605C8.7643 7.30012 8.39976 7.31527 8.02184 7.31527C7.64392 7.31527 7.28115 7.33042 6.92285 7.35181V3.45053C6.90827 2.54212 6.53717 1.67585 5.88962 1.0386C5.24206 0.401353 4.36995 0.0442047 3.46142 0.0442047C2.5529 0.0442047 1.68079 0.401353 1.03323 1.0386C0.385673 1.67585 0.0145775 2.54212 0 3.45053V12.5936C0.0145775 13.502 0.385673 14.3683 1.03323 15.0056C1.68079 15.6428 2.5529 16 3.46142 16C4.36995 16 5.24206 15.6428 5.88962 15.0056C6.53717 14.3683 6.90827 13.502 6.92285 12.5936V8.76811C7.27937 8.74405 7.64392 8.7289 8.02184 8.7289C8.39976 8.7289 8.76252 8.71374 9.12083 8.69235V12.5936C9.13541 13.502 9.5065 14.3683 10.1541 15.0056C10.8016 15.6428 11.6737 16 12.5823 16C13.4908 16 14.3629 15.6428 15.0104 15.0056C15.658 14.3683 16.0291 13.502 16.0437 12.5936V3.45053C16.0413 2.53433 15.6756 1.65649 15.0267 1.00964C14.3779 0.362788 13.4989 -0.000230004 12.5827 0.000245184ZM3.46098 1.41387C4.00178 1.41363 4.52059 1.62793 4.90358 2.00975C5.28657 2.39157 5.50246 2.90973 5.50387 3.45053V7.50155C4.49114 7.6483 3.50218 7.92791 2.56253 8.33315C2.15541 8.51183 1.77216 8.74059 1.42165 9.01412V3.45053C1.42306 2.91034 1.63846 2.39273 2.02068 2.01101C2.4029 1.62929 2.92079 1.41458 3.46098 1.41387ZM5.50387 12.5936C5.50387 13.1354 5.28864 13.6551 4.90552 14.0382C4.5224 14.4213 4.00279 14.6365 3.46098 14.6365C2.91917 14.6365 2.39955 14.4213 2.01643 14.0382C1.63332 13.6551 1.41808 13.1354 1.41808 12.5936V11.6765C1.41808 10.8663 2.05983 10.0988 3.13565 9.6211C3.89369 9.29406 4.68906 9.06147 5.50387 8.92855V12.5936ZM12.5827 14.6303C12.0419 14.6305 11.5231 14.4162 11.1401 14.0344C10.7571 13.6526 10.5412 13.1344 10.5398 12.5936V8.54261C11.5525 8.39586 12.5415 8.11625 13.4811 7.71101C13.8883 7.53233 14.2715 7.30358 14.622 7.03005V12.5936C14.6206 13.1338 14.4052 13.6514 14.023 14.0332C13.6408 14.4149 13.1229 14.6296 12.5827 14.6303ZM12.908 6.41772C12.15 6.74475 11.3546 6.97735 10.5398 7.11027V3.45053C10.5398 2.90872 10.755 2.3891 11.1382 2.00598C11.5213 1.62286 12.0409 1.40763 12.5827 1.40763C13.1245 1.40763 13.6441 1.62286 14.0272 2.00598C14.4104 2.3891 14.6256 2.90872 14.6256 3.45053V4.36769C14.6256 5.17433 13.9838 5.94175 12.908 6.41772Z" fill="url(#paint0_linear_8504_11600)"/>
</g>
<defs>
<linearGradient id="paint0_linear_8504_11600" x1="1.0161" y1="14.8079" x2="14.936" y2="0.849988" gradientUnits="userSpaceOnUse">
<stop stop-color="#00AEE9"/>
<stop offset="1" stop-color="#69FABD"/>
</linearGradient>
<clipPath id="clip0_8504_11600">
<rect width="16.0437" height="16" fill="white" transform="translate(0 0.000244141)"/>
</clipPath>
</defs>
</svg>
