<svg width="17" height="16" viewBox="0 0 17 16" fill="none" xmlns="http://www.w3.org/2000/svg">
<g clip-path="url(#clip0_8504_12325)">
<path d="M8.00488 16.0002C12.4232 16.0002 16.0049 12.4185 16.0049 8.00024C16.0049 3.58197 12.4232 0.000244141 8.00488 0.000244141C3.5866 0.000244141 0.00488281 3.58197 0.00488281 8.00024C0.00488281 12.4185 3.5866 16.0002 8.00488 16.0002Z" fill="black"/>
<path fill-rule="evenodd" clip-rule="evenodd" d="M7.97638 13.1556C10.8464 13.1556 13.0204 11.2326 13.4714 8.71655H11.0229C10.6569 10.0526 9.52088 11.0306 8.00538 11.0306C6.50088 11.0306 5.35038 10.0456 4.96888 8.71655H2.50488C2.93938 11.2416 5.09488 13.1556 7.97638 13.1556Z" fill="white"/>
<path d="M7.99031 5.02724C8.68812 5.02724 9.25381 4.46156 9.25381 3.76374C9.25381 3.06593 8.68812 2.50024 7.99031 2.50024C7.29249 2.50024 6.72681 3.06593 6.72681 3.76374C6.72681 4.46156 7.29249 5.02724 7.99031 5.02724Z" fill="white"/>
<path fill-rule="evenodd" clip-rule="evenodd" d="M4.83228 8.71647V8.69147C4.83228 6.89497 6.11927 5.42847 7.97477 5.42847C9.83077 5.42847 11.1448 6.91997 11.1478 8.71647H4.83228Z" fill="white"/>
</g>
<defs>
<clipPath id="clip0_8504_12325">
<rect width="16" height="16" fill="white" transform="translate(0.00488281 0.000244141)"/>
</clipPath>
</defs>
</svg>
