<svg width="17" height="16" viewBox="0 0 17 16" fill="none" xmlns="http://www.w3.org/2000/svg">
<g clip-path="url(#clip0_8504_12336)">
<path d="M4.63195 10.2343C4.62912 10.2711 4.61513 10.3062 4.59186 10.3348C4.56858 10.3635 4.53712 10.3843 4.50167 10.3946C4.46622 10.405 4.42847 10.4042 4.39345 10.3925C4.35844 10.3808 4.32782 10.3587 4.30569 10.3292L1.69557 7.89822C1.66301 7.87721 1.63742 7.84701 1.62204 7.81145C1.60666 7.77588 1.60218 7.73655 1.60917 7.69844C1.61615 7.66032 1.6343 7.62514 1.66129 7.59734C1.68829 7.56955 1.72293 7.55039 1.76083 7.5423L5.41498 6.08538C5.58464 6.01775 5.68667 6.10673 5.64159 6.2847L4.63195 10.2343Z" fill="#404A72"/>
<path d="M2.47264 12.5441C2.33383 12.6628 2.19383 12.6141 2.1618 12.4338L1.44995 8.48302C1.41673 8.30269 1.49978 8.2576 1.63384 8.38218L4.11345 10.6957C4.14503 10.7238 4.17015 10.7584 4.18709 10.7971C4.20403 10.8359 4.2124 10.8778 4.21161 10.92C4.21082 10.9623 4.2009 11.0039 4.18252 11.042C4.16414 11.08 4.13775 11.1137 4.10514 11.1406L2.47264 12.5441Z" fill="#556195"/>
<path d="M5.46234 5.2988C5.49083 5.3259 5.51165 5.36005 5.52269 5.39779C5.53373 5.43553 5.53459 5.47552 5.5252 5.5137C5.5158 5.55188 5.49648 5.5869 5.46919 5.61521C5.4419 5.64352 5.40762 5.66411 5.3698 5.6749L1.73819 7.12826C1.56734 7.19588 1.48073 7.11165 1.5448 6.93962L3.03731 2.92834C3.04358 2.89189 3.0609 2.85825 3.08693 2.83198C3.11296 2.8057 3.14644 2.78807 3.18283 2.78146C3.21923 2.77486 3.25677 2.7796 3.29037 2.79505C3.32398 2.8105 3.35202 2.83591 3.37069 2.86784L5.46234 5.2988Z" fill="#556195"/>
<path d="M1.6563 11.8725C1.68952 12.0529 1.63376 12.0742 1.53766 11.9212L0.123453 9.74412C0.0748869 9.66038 0.0509074 9.56466 0.054265 9.46792C0.0576226 9.37118 0.0881812 9.27734 0.142435 9.19718L0.771236 8.35364C0.881572 8.20652 0.997841 8.235 1.02987 8.41415L1.6563 11.8725Z" fill="#556195"/>
<path d="M1.21252 6.69291C1.14846 6.86494 1.0488 6.86375 0.990662 6.69291L0.510164 5.24429C0.48421 5.14984 0.483595 5.05022 0.50838 4.95545C0.533164 4.86069 0.582475 4.77413 0.651348 4.70447L2.36809 3.14908C2.50334 3.03044 2.56266 3.06604 2.4986 3.23807L1.21252 6.69291Z" fill="#556195"/>
<path d="M0.759479 7.25068C0.786056 7.34848 0.791443 7.45083 0.775279 7.55088C0.759116 7.65093 0.721774 7.74638 0.665752 7.83084L0.17339 8.49404C0.0630531 8.64116 -0.0105047 8.61269 0.00729154 8.42998L0.242202 6.13663C0.259998 5.95393 0.324064 5.94681 0.381012 6.12121L0.759479 7.25068Z" fill="#556195"/>
<path d="M2.69689 2.08594C2.75859 2.15594 2.69689 2.31492 2.56046 2.44187L1.78454 3.13829C1.6481 3.25693 1.62675 3.24151 1.7359 3.09439L2.37775 2.22475C2.49639 2.07764 2.63639 2.01713 2.69689 2.08594Z" fill="#556195"/>
<path d="M7.56935 14.2918C7.55503 14.3265 7.53103 14.3563 7.50022 14.3778C7.46942 14.3992 7.43309 14.4113 7.39559 14.4127C7.35808 14.4141 7.32096 14.4046 7.28867 14.3855C7.25637 14.3664 7.23026 14.3384 7.21343 14.3048L5.19652 11.3673C5.17062 11.341 5.15334 11.3074 5.14699 11.2711C5.14064 11.2347 5.14553 11.1973 5.16099 11.1638C5.17646 11.1303 5.20177 11.1023 5.23356 11.0835C5.26534 11.0648 5.30208 11.0562 5.33889 11.0588L9.39525 10.64C9.57677 10.621 9.65032 10.7349 9.55778 10.8939L7.56935 14.2918Z" fill="#556195"/>
<path d="M6.7236 14.294C6.828 14.4459 6.77105 14.5206 6.59665 14.4625L2.80012 13.1693C2.6269 13.11 2.59843 12.9641 2.73724 12.8442L4.36144 11.4419C4.39283 11.4136 4.42998 11.3924 4.47033 11.3798C4.51068 11.3672 4.55328 11.3635 4.59521 11.3689C4.63714 11.3743 4.6774 11.3887 4.71323 11.4111C4.74906 11.4336 4.77961 11.4635 4.80279 11.4988L6.7236 14.294Z" fill="#556195"/>
<path d="M9.47735 9.95784C9.59599 10.0966 9.54497 10.2248 9.35871 10.2438L5.24185 10.6685C5.20383 10.6765 5.16438 10.6741 5.1276 10.6616C5.09082 10.6491 5.05806 10.627 5.03273 10.5976C5.00741 10.5681 4.99044 10.5324 4.98361 10.4942C4.97678 10.456 4.98033 10.4166 4.99388 10.3802L6.02369 6.37249C6.06996 6.19571 6.20521 6.16368 6.32386 6.30249L9.47735 9.95784Z" fill="#6ECCE0"/>
<path d="M12.435 13.3912C12.4641 13.4143 12.4854 13.4459 12.4959 13.4815C12.5064 13.5172 12.5056 13.5552 12.4936 13.5904C12.4817 13.6256 12.4592 13.6562 12.4291 13.6781C12.3991 13.7 12.363 13.7121 12.3259 13.7127L8.13784 14.5931C7.95869 14.631 7.8875 14.5326 7.98004 14.3736L9.95542 10.9958C9.97199 10.9604 9.99756 10.9298 10.0296 10.9073C10.0616 10.8848 10.099 10.871 10.138 10.8674C10.177 10.8638 10.2163 10.8705 10.2519 10.8868C10.2875 10.9031 10.3182 10.9284 10.341 10.9603L12.435 13.3912Z" fill="#556195"/>
<path d="M5.69972 15.6456C5.61235 15.687 5.51509 15.7031 5.41901 15.692C5.32294 15.6809 5.23192 15.643 5.15634 15.5827L3.20824 13.8659C3.07181 13.7473 3.10147 13.6939 3.27468 13.7473L6.59665 14.8779C6.77105 14.9373 6.78054 15.0571 6.61919 15.1437L5.69972 15.6456Z" fill="#556195"/>
<path d="M10.2153 15.8091C10.1363 15.8669 10.0435 15.9027 9.9462 15.9131C9.84892 15.9236 9.75062 15.9081 9.66121 15.8685L8.30988 15.1791C8.14616 15.0949 8.15921 14.9964 8.33835 14.9585L11.9462 14.1992C12.1254 14.1612 12.1562 14.2253 12.0151 14.3415L10.2153 15.8091Z" fill="#556195"/>
<path d="M6.43651 15.8982C6.25261 15.8899 6.236 15.8115 6.39736 15.7249L7.12344 15.331C7.21599 15.2873 7.3169 15.264 7.41927 15.2627C7.52165 15.2615 7.62308 15.2824 7.71665 15.3239L8.77731 15.8638C8.94104 15.9468 8.92443 16.0073 8.74172 15.999L6.43651 15.8982Z" fill="#556195"/>
<path d="M13.1087 14.1745C13.1693 14.2445 13.0874 14.3738 12.926 14.4604L11.9698 14.9706C11.8072 15.0572 11.7906 15.0323 11.933 14.916L12.7398 14.2563C12.8821 14.1401 13.0482 14.1033 13.1087 14.1745Z" fill="#556195"/>
<path d="M10.6921 9.91515C10.5213 9.98278 10.4192 9.89379 10.4655 9.71583L11.4799 5.76744C11.4828 5.73058 11.4969 5.69549 11.5203 5.6668C11.5436 5.63811 11.5751 5.61717 11.6106 5.60676C11.646 5.59635 11.6838 5.59694 11.719 5.60848C11.7541 5.62001 11.7849 5.64193 11.8073 5.67134L14.4174 8.10349C14.4505 8.12415 14.4767 8.15428 14.4924 8.18997C14.5082 8.22566 14.5128 8.26526 14.5058 8.30364C14.4988 8.34201 14.4804 8.37738 14.453 8.40516C14.4256 8.43294 14.3905 8.45184 14.3522 8.45942L10.6921 9.91515Z" fill="#404A72"/>
<path d="M14.6595 7.51725C14.6916 7.69759 14.6097 7.74386 14.4757 7.6181L11.9949 5.30459C11.9634 5.2764 11.9383 5.24173 11.9215 5.20295C11.9046 5.16418 11.8964 5.12222 11.8973 5.07995C11.8982 5.03769 11.9082 4.99612 11.9267 4.95809C11.9452 4.92007 11.9717 4.8865 12.0043 4.85968L13.6333 3.45615C13.7721 3.33751 13.9133 3.38615 13.9453 3.56649L14.6595 7.51725Z" fill="#556195"/>
<path d="M13.0695 13.0732C13.0627 13.1095 13.0451 13.1429 13.0188 13.1689C12.9926 13.1949 12.9591 13.2122 12.9228 13.2187C12.8864 13.2251 12.849 13.2203 12.8154 13.2049C12.7818 13.1896 12.7538 13.1643 12.7349 13.1325L10.6421 10.7016C10.6127 10.6747 10.591 10.6404 10.5793 10.6022C10.5677 10.5641 10.5664 10.5236 10.5758 10.4848C10.5851 10.446 10.6046 10.4105 10.6324 10.3818C10.6601 10.3532 10.695 10.3325 10.7335 10.3219L14.3686 8.86856C14.5383 8.80094 14.6261 8.88517 14.562 9.0572L13.0695 13.0732Z" fill="#556195"/>
<path d="M15.981 6.25644C16.0295 6.34015 16.0535 6.43578 16.0504 6.53246C16.0472 6.62914 16.017 6.723 15.9632 6.80338L15.3333 7.64692C15.2241 7.79404 15.1078 7.76556 15.0746 7.58641L14.4494 4.12801C14.4173 3.94768 14.4719 3.92632 14.568 4.07937L15.981 6.25644Z" fill="#556195"/>
<path d="M15.5968 10.7564C15.6227 10.8508 15.6233 10.9505 15.5985 11.0452C15.5738 11.14 15.5244 11.2266 15.4556 11.2962L13.7388 12.8516C13.6024 12.9702 13.5443 12.9347 13.6083 12.7638L14.8944 9.30778C14.9573 9.13575 15.0569 9.13693 15.1151 9.30778L15.5968 10.7564Z" fill="#556195"/>
<path d="M15.8625 9.86408C15.8435 10.0468 15.7806 10.0527 15.7225 9.87951L15.3464 8.75004C15.3195 8.65188 15.3139 8.5491 15.3301 8.44861C15.3463 8.34812 15.3838 8.25226 15.4401 8.16751L15.9337 7.50668C16.0428 7.35956 16.1176 7.38803 16.0986 7.57074L15.8625 9.86408Z" fill="#556195"/>
<path d="M13.7198 13.7758C13.6095 13.9241 13.4707 13.9858 13.409 13.9147C13.3473 13.8435 13.409 13.6857 13.5454 13.5587L14.3178 12.8587C14.453 12.7401 14.4756 12.7555 14.3664 12.9026L13.7198 13.7758Z" fill="#556195"/>
<path d="M10.9129 4.63297C10.9389 4.65925 10.9561 4.69281 10.9625 4.72916C10.9688 4.76552 10.9639 4.80294 10.9485 4.83645C10.933 4.86996 10.9077 4.89796 10.8759 4.91671C10.8441 4.93547 10.8074 4.94409 10.7706 4.94143L6.71422 5.36024C6.53151 5.37922 6.45796 5.26533 6.5505 5.10753L8.53774 1.70845C8.55207 1.67376 8.57606 1.64391 8.60687 1.62248C8.63768 1.60104 8.674 1.58891 8.71151 1.58753C8.74902 1.58616 8.78613 1.5956 8.81843 1.61472C8.85072 1.63384 8.87684 1.66185 8.89367 1.6954L10.9129 4.63297Z" fill="#404A72"/>
<path d="M11.7505 4.55858C11.7191 4.58689 11.6819 4.60808 11.6416 4.62068C11.6012 4.63329 11.5586 4.63701 11.5167 4.6316C11.4748 4.62619 11.4345 4.61178 11.3987 4.58934C11.3628 4.56691 11.3323 4.53698 11.3091 4.50163L9.37764 1.70643C9.27442 1.55457 9.33137 1.47983 9.50458 1.53915L13.3011 2.82997C13.4743 2.88929 13.5028 3.03522 13.364 3.15505L11.7505 4.55858Z" fill="#556195"/>
<path d="M10.0777 9.62781C10.0326 9.80577 9.89739 9.83662 9.77756 9.6978L6.63 6.04364C6.51136 5.90483 6.56118 5.77551 6.74864 5.75653L10.8643 5.33179C10.9024 5.32357 10.942 5.32575 10.979 5.33812C11.0159 5.35048 11.0489 5.37257 11.0744 5.40206C11.0999 5.43154 11.1169 5.46735 11.1238 5.50571C11.1307 5.54408 11.1271 5.58358 11.1135 5.62009L10.0777 9.62781Z" fill="#556195"/>
<path d="M6.15038 5.00452C6.13408 5.04029 6.10863 5.07112 6.07658 5.09388C6.04454 5.11664 6.00705 5.13054 5.96791 5.13415C5.92877 5.13776 5.88937 5.13097 5.8537 5.11445C5.81804 5.09794 5.78736 5.0723 5.7648 5.04012L3.67196 2.61034C3.64293 2.58729 3.62171 2.55585 3.61118 2.52031C3.60066 2.48476 3.60134 2.44684 3.61314 2.4117C3.62494 2.37656 3.64728 2.34591 3.67713 2.32392C3.70697 2.30193 3.74286 2.28968 3.77992 2.28882L7.96797 1.40731C8.14831 1.36935 8.21949 1.46782 8.12695 1.6268L6.15038 5.00452Z" fill="#556195"/>
<path d="M9.50335 1.11772C9.33013 1.0584 9.32064 0.939761 9.482 0.851967L10.4098 0.356045C10.4971 0.314558 10.5944 0.298456 10.6905 0.309574C10.7866 0.320692 10.8776 0.358582 10.9532 0.418925L12.8965 2.13567C13.0341 2.25431 13.0045 2.3077 12.8312 2.25431L9.50335 1.11772Z" fill="#556195"/>
<path d="M4.1655 1.8011C3.98635 1.83907 3.9555 1.77974 4.09787 1.6611L5.89055 0.191134C5.96976 0.133421 6.06277 0.0975588 6.16023 0.0871467C6.25768 0.0767346 6.35616 0.0921388 6.44579 0.131813L7.80305 0.822307C7.96677 0.905356 7.95372 1.00383 7.77457 1.04179L4.1655 1.8011Z" fill="#556195"/>
<path d="M8.98354 0.669463C8.89099 0.713238 8.79008 0.736535 8.68771 0.737763C8.58534 0.738992 8.4839 0.718123 8.39033 0.676581L7.32256 0.136762C7.16832 0.0537133 7.18375 -0.00679389 7.36764 0.000324598L9.67047 0.107102C9.85199 0.118966 9.87097 0.19371 9.70962 0.280319L8.98354 0.669463Z" fill="#556195"/>
<path d="M3.36718 1.74443C3.22481 1.86307 3.05872 1.89748 2.99821 1.82748C2.9377 1.75748 3.01956 1.62698 3.18092 1.54155L4.13717 1.03021C4.29852 0.9436 4.31513 0.968515 4.17395 1.08478L3.36718 1.74443Z" fill="#556195"/>
<path d="M2.14058 13.357C2.21058 13.2953 2.36956 13.357 2.4965 13.4922L3.19649 14.2646C3.31513 14.401 3.29971 14.4224 3.15259 14.3132L2.28176 13.6666C2.1299 13.5575 2.06821 13.4175 2.14058 13.357Z" fill="#556195"/>
<path d="M14.2264 2.94498C14.2975 2.88328 14.4269 2.96633 14.5123 3.12769L15.0236 4.08394C15.109 4.24648 15.0853 4.2619 14.9691 4.12072L14.3094 3.31395C14.1931 3.17158 14.1564 3.00549 14.2264 2.94498Z" fill="#556195"/>
<path d="M13.8291 2.33416C13.9762 2.44331 14.0391 2.5833 13.9679 2.64381C13.8967 2.70432 13.7389 2.64381 13.6119 2.50856L12.912 1.7362C12.7933 1.59976 12.8087 1.57841 12.9559 1.68756L13.8291 2.33416Z" fill="#556195"/>
<path d="M1.79765 12.6866C1.91629 12.8289 1.9507 12.995 1.87952 13.0555C1.80833 13.116 1.6802 13.0342 1.59359 12.8728L1.08343 11.9166C0.996822 11.754 1.02174 11.7386 1.13801 11.8798L1.79765 12.6866Z" fill="#556195"/>
</g>
<defs>
<clipPath id="clip0_8504_12336">
<rect width="16.0973" height="16" fill="white" transform="translate(0.00488281 0.000244141)"/>
</clipPath>
</defs>
</svg>
