<svg width="17" height="16" viewBox="0 0 17 16" fill="none" xmlns="http://www.w3.org/2000/svg">
<g clip-path="url(#clip0_8504_12371)">
<path d="M8.10205 16.0002C12.5203 16.0002 16.1021 12.4185 16.1021 8.00024C16.1021 3.58197 12.5203 0.000244141 8.10205 0.000244141C3.68377 0.000244141 0.102051 3.58197 0.102051 8.00024C0.102051 12.4185 3.68377 16.0002 8.10205 16.0002Z" fill="#34445B"/>
<path d="M8.07047 5.11095L9.07547 3.54295C9.33334 3.58478 9.5974 3.52557 9.81272 3.37765C10.028 3.22972 10.178 3.00447 10.2315 2.74876C10.285 2.49305 10.2378 2.22658 10.0997 2.00478C9.96172 1.78298 9.74349 1.62294 9.49047 1.55795C9.28892 1.51622 9.07944 1.53674 8.88982 1.6168C8.70021 1.69687 8.53941 1.83269 8.42877 2.00625C8.31813 2.1798 8.26286 2.3829 8.27031 2.58859C8.27776 2.79428 8.34756 2.99285 8.47047 3.15795L7.22347 5.10345C6.70306 5.15464 6.19785 5.30788 5.73669 5.5544C5.27553 5.80093 4.86748 6.13592 4.53584 6.54023C4.20421 6.94453 3.9555 7.41022 3.80392 7.91069C3.65235 8.41116 3.60089 8.93659 3.65247 9.45695C3.75649 10.5076 4.27345 11.474 5.08972 12.1436C5.90599 12.8132 6.95475 13.1313 8.00547 13.028C9.05621 12.9241 10.0227 12.4071 10.6924 11.5909C11.3622 10.7746 11.6803 9.72575 11.577 8.67495C11.4872 7.76983 11.0904 6.92269 10.4525 6.27433C9.81459 5.62596 8.97401 5.21543 8.07047 5.11095ZM7.61297 11.172C7.33559 11.1722 7.06087 11.1178 6.80455 11.0118C6.54822 10.9058 6.31531 10.7502 6.11915 10.5541C5.92299 10.358 5.76742 10.1251 5.66134 9.86884C5.55527 9.61254 5.50077 9.33784 5.50097 9.06045C5.50071 8.78303 5.55516 8.50827 5.6612 8.25191C5.76724 7.99556 5.9228 7.76263 6.11897 7.56646C6.31514 7.37029 6.54807 7.21473 6.80443 7.10868C7.06079 7.00264 7.33554 6.94819 7.61297 6.94845C8.04201 6.94835 8.46088 7.07903 8.81375 7.32309C9.16661 7.56715 9.43669 7.91297 9.58797 8.31445C9.38953 8.0589 9.09776 7.89256 8.77677 7.85196C8.45577 7.81137 8.13178 7.89984 7.87597 8.09795C7.6203 8.29632 7.45387 8.58809 7.41327 8.90913C7.37267 9.23017 7.46123 9.55419 7.65947 9.80995C7.77334 9.95644 7.91911 10.075 8.0857 10.1567C8.2523 10.2384 8.43532 10.2811 8.62086 10.2814C8.80641 10.2817 8.98959 10.2398 9.15647 10.1587C9.32336 10.0776 9.46957 9.95953 9.58397 9.81345C9.43208 10.2131 9.16218 10.5571 8.81013 10.7998C8.45808 11.0424 8.04054 11.1722 7.61297 11.172Z" fill="white"/>
<path d="M8.07047 5.11095L9.07547 3.54295C9.33334 3.58478 9.5974 3.52557 9.81272 3.37765C10.028 3.22972 10.178 3.00447 10.2315 2.74876C10.285 2.49305 10.2378 2.22658 10.0997 2.00478C9.96172 1.78298 9.74349 1.62294 9.49047 1.55795C9.28892 1.51622 9.07944 1.53674 8.88982 1.6168C8.70021 1.69687 8.53941 1.83269 8.42877 2.00625C8.31813 2.1798 8.26286 2.3829 8.27031 2.58859C8.27776 2.79428 8.34756 2.99285 8.47047 3.15795L7.22347 5.10345C6.70306 5.15464 6.19785 5.30788 5.73669 5.5544C5.27553 5.80093 4.86748 6.13592 4.53584 6.54023C4.20421 6.94453 3.9555 7.41022 3.80392 7.91069C3.65235 8.41116 3.60089 8.93659 3.65247 9.45695C3.75649 10.5076 4.27345 11.474 5.08972 12.1436C5.90599 12.8132 6.95475 13.1313 8.00547 13.028C9.05621 12.9241 10.0227 12.4071 10.6924 11.5909C11.3622 10.7746 11.6803 9.72575 11.577 8.67495C11.4872 7.76983 11.0904 6.92269 10.4525 6.27433C9.81459 5.62596 8.97401 5.21543 8.07047 5.11095ZM7.61297 11.172C7.33559 11.1722 7.06087 11.1178 6.80455 11.0118C6.54822 10.9058 6.31531 10.7502 6.11915 10.5541C5.92299 10.358 5.76742 10.1251 5.66134 9.86884C5.55527 9.61254 5.50077 9.33784 5.50097 9.06045C5.50071 8.78303 5.55516 8.50827 5.6612 8.25191C5.76724 7.99556 5.9228 7.76263 6.11897 7.56646C6.31514 7.37029 6.54807 7.21473 6.80443 7.10868C7.06079 7.00264 7.33554 6.94819 7.61297 6.94845C8.04201 6.94835 8.46088 7.07903 8.81375 7.32309C9.16661 7.56715 9.43669 7.91297 9.58797 8.31445C9.38953 8.0589 9.09776 7.89256 8.77677 7.85196C8.45577 7.81137 8.13178 7.89984 7.87597 8.09795C7.6203 8.29632 7.45387 8.58809 7.41327 8.90913C7.37267 9.23017 7.46123 9.55419 7.65947 9.80995C7.77334 9.95644 7.91911 10.075 8.0857 10.1567C8.2523 10.2384 8.43532 10.2811 8.62086 10.2814C8.80641 10.2817 8.98959 10.2398 9.15647 10.1587C9.32336 10.0776 9.46957 9.95953 9.58397 9.81345C9.43208 10.2131 9.16218 10.5571 8.81013 10.7998C8.45808 11.0424 8.04054 11.1722 7.61297 11.172Z" fill="white"/>
</g>
<defs>
<clipPath id="clip0_8504_12371">
<rect width="16" height="16" fill="white" transform="translate(0.102051 0.000244141)"/>
</clipPath>
</defs>
</svg>
