<svg width="18" height="16" viewBox="0 0 18 16" fill="none" xmlns="http://www.w3.org/2000/svg">
<g clip-path="url(#clip0_8504_12397)">
<path d="M4.61597 14.0456C5.12013 14.6199 5.73332 15.0885 6.41997 15.424C7.10661 15.7595 7.85305 15.9553 8.61597 16.0001C9.52745 15.9517 10.3874 15.5623 11.0251 14.9092C12.2828 13.832 13.6033 12.8302 14.9796 11.9092L15.7523 11.591C16.0705 11.4547 16.616 11.1365 17.116 10.5456C17.6614 9.81832 17.7523 9.04559 17.7523 8.77286C17.6919 7.91271 17.41 7.08282 16.9341 6.36377C15.6923 8.57657 13.9125 10.4405 11.7595 11.7832C9.60636 13.1259 7.14946 13.904 4.61597 14.0456Z" fill="#0293D6"/>
<path d="M6.34326 1.13676C6.68258 0.778349 7.09131 0.492763 7.54455 0.297399C7.9978 0.102035 8.48607 0.000982755 8.97963 0.000397871C9.29233 -0.0205398 9.60608 0.0209204 9.90261 0.122366C10.1991 0.223812 10.4725 0.383217 10.7069 0.591307C12.0107 1.515 13.5638 2.02211 15.1614 2.04585C15.5705 2.09131 16.3887 2.22767 16.9342 2.90949C17.3433 3.45494 17.3887 4.04585 17.3887 4.31858C17.3521 5.02094 17.1985 5.71227 16.9342 6.36403L6.34326 1.13676Z" fill="#EBE638"/>
<path d="M4.61608 14.0458C4.20699 14.0004 3.66153 13.864 3.02517 13.5913C2.3888 13.3186 1.61608 13.0004 1.11608 12.1367C0.797896 11.5913 0.752441 11.0458 0.752441 10.6822C0.763539 9.71782 0.996856 8.769 1.43426 7.90946C1.86944 6.84707 2.15991 5.73102 2.2979 4.59128L2.52517 3.68219C2.66153 3.22764 2.75244 2.7731 3.07062 2.31855L3.57062 1.7731C4.39646 1.25388 5.37376 1.02958 6.34335 1.13673C5.04505 2.99396 4.2107 5.13526 3.91017 7.38127C3.60965 9.62728 3.85171 11.9126 4.61608 14.0458Z" fill="#BAD147"/>
<path d="M6.34333 1.13672C6.29788 1.13672 8.79788 1.27308 10.3433 1.81854L11.6161 2.36399C11.1161 2.31854 7.93424 2.18217 5.52515 4.59126C2.47969 7.68217 3.47969 11.9094 3.52514 12.1367C2.81939 11.2488 2.46361 10.1329 2.52514 9.00036C2.58498 7.49719 2.95507 6.02264 3.61215 4.66937C4.26923 3.3161 5.1991 2.11336 6.34333 1.13672Z" fill="#78B650"/>
<path d="M12.4341 12.3638C13.2941 10.8006 13.6751 9.01886 13.5296 7.24067C13.3841 5.46248 12.7186 3.76641 11.616 2.36377C12.9326 2.5839 14.1436 3.22129 15.0705 4.18195C15.616 4.6365 16.2978 5.31831 16.9341 6.36377C16.0354 8.75108 14.4743 10.8325 12.4341 12.3638Z" fill="#2F8260"/>
<path d="M13.8887 4.3638C13.1615 3.13653 12.116 2.59107 11.6615 2.3638C11.2978 2.27289 7.88874 1.72743 5.29783 4.22743C3.20692 6.22743 3.07056 8.81834 3.07056 9.31834C3.08018 11.0314 3.65544 12.6932 4.70692 14.0456C6.05815 14.3058 7.4466 14.3058 8.79783 14.0456C9.47965 13.9093 11.0706 13.6365 12.4342 12.4547C12.616 12.2729 14.616 10.4093 14.7524 7.45471C14.7524 6.95471 14.7524 5.68198 13.8887 4.3638ZM12.2524 10.9547C11.8303 11.4139 11.3174 11.7803 10.7461 12.0307C10.1749 12.2811 9.55788 12.41 8.93419 12.4093C8.66147 12.4093 6.84328 12.3638 5.57056 10.8638C5.38874 10.6365 4.47965 9.54562 4.5251 7.90925C4.61601 5.72743 6.34328 4.45471 6.70692 4.18198C7.0251 3.95471 7.79783 3.45471 8.93419 3.40925C9.20692 3.3638 10.1615 3.31834 11.116 3.8638C13.2069 5.00016 13.2978 7.72743 13.2978 7.90925C13.2978 8.40925 13.2978 9.77289 12.2524 10.9547Z" fill="#085229"/>
</g>
<defs>
<clipPath id="clip0_8504_12397">
<rect width="17" height="16" fill="white" transform="translate(0.752441 0.000244141)"/>
</clipPath>
</defs>
</svg>
