<svg width="18" height="16" viewBox="0 0 18 16" fill="none" xmlns="http://www.w3.org/2000/svg">
<g clip-path="url(#clip0_8504_12387)">
<path d="M5.50392 2.08322C5.82674 1.71562 6.12365 1.40457 6.40642 1.14066C1.63234 0.987491 3.02262 4.43963 1.45797 7.9436C-0.332903 11.9825 1.67004 13.5212 4.65325 14.0019C4.23665 13.5055 3.89671 12.9495 3.64471 12.3524C1.71953 9.91827 2.4995 5.48116 5.50392 2.08322Z" fill="#EFE812"/>
<path d="M16.9913 6.38599C16.4275 7.86091 15.6119 9.22671 14.5807 10.4225C13.754 11.4272 12.7638 12.2851 11.6517 12.9604C10.3601 13.7788 8.85899 14.2052 7.33005 14.188C6.43739 14.1961 5.54549 14.1338 4.6626 14.0019C5.15279 14.5874 5.76051 15.0635 6.4464 15.3992C10.7633 17.487 11.0343 13.6107 15.601 11.6431C18.1648 10.538 18.1742 8.37951 16.989 6.38599" fill="#EDE70A"/>
<path d="M11.6517 2.35673C12.2767 2.46612 12.8788 2.67959 13.4331 2.98825C14.8853 3.80473 16.1088 4.97319 16.9913 6.38619C17.7689 4.19473 17.406 2.47455 15.7071 2.16351C13.8361 1.82183 12.3751 1.71108 10.9707 0.730814C9.24109 -0.470953 7.72357 -0.0797899 6.40869 1.14319L6.69382 1.15497C8.51767 1.26336 10.2614 1.62625 11.6423 2.35202" fill="#EDE70A"/>
<path d="M5.50384 2.08336C2.49942 5.4813 1.71945 9.91841 3.65406 12.3526C3.20653 11.2959 3.01122 10.1496 3.08361 9.00436C3.15601 7.85914 3.49412 6.74651 4.07114 5.75464C5.69942 3.04006 8.96776 1.86186 11.6517 2.3567C10.2614 1.6215 8.51768 1.26804 6.70325 1.15965L6.41812 1.14551C6.12593 1.41414 5.82902 1.71576 5.50384 2.08336Z" fill="#DEC21C"/>
<path d="M13.4331 2.98349C12.8784 2.67647 12.2763 2.4646 11.6516 2.35669C13.4802 3.3181 14.6937 4.94874 14.6937 7.52665C14.6831 8.61485 14.399 9.68291 13.8673 10.6325C13.3357 11.5821 12.5738 12.3826 11.6516 12.9605C12.7643 12.286 13.7546 11.428 14.5806 10.4227C15.6118 9.22687 16.4275 7.86107 16.9912 6.38615C16.1094 4.97142 14.8858 3.80129 13.4331 2.98349Z" fill="#E5CB22"/>
<path d="M11.6517 2.35659C8.96776 1.86175 5.69943 3.03995 4.07115 5.74275C3.49171 6.7359 3.15225 7.85067 3.07984 8.99822C3.00743 10.1458 3.20406 11.2944 3.65407 12.3525C3.90517 12.95 4.24519 13.5061 4.66261 14.002C5.5455 14.1339 6.4374 14.1961 7.33006 14.1881C8.85901 14.2053 10.3601 13.7788 11.6517 12.9604C12.574 12.3827 13.3361 11.5822 13.8677 10.6326C14.3994 9.68294 14.6835 8.6148 14.6938 7.52655C14.6938 4.94864 13.4803 3.31801 11.6517 2.35659ZM11.3501 11.7351C10.3574 12.3727 9.15271 12.5913 7.99933 12.3431C6.84594 12.095 5.83774 11.4002 5.19516 10.4108C3.86143 8.35365 4.52123 5.69798 6.52181 4.28414C8.7604 2.69356 11.6305 3.32036 12.6767 5.60844C13.6971 7.8376 13.4167 10.4131 11.3501 11.7351Z" fill="#CCA727"/>
</g>
<defs>
<clipPath id="clip0_8504_12387">
<rect width="16.9614" height="16" fill="white" transform="translate(0.791016 0.000244141)"/>
</clipPath>
</defs>
</svg>
