<svg width="17" height="16" viewBox="0 0 17 16" fill="none" xmlns="http://www.w3.org/2000/svg">
<g clip-path="url(#clip0_8504_12892)">
<path d="M8.02124 16.0002C12.4395 16.0002 16.0212 12.4185 16.0212 8.00024C16.0212 3.58197 12.4395 0.000244141 8.02124 0.000244141C3.60296 0.000244141 0.0212402 3.58197 0.0212402 8.00024C0.0212402 12.4185 3.60296 16.0002 8.02124 16.0002Z" fill="#302C2C"/>
<path d="M13.4762 7.84824C13.4488 7.79272 13.4125 7.74206 13.3687 7.69824C12.4177 6.62124 10.4822 4.50024 10.4822 4.50024L8.02369 7.18924L5.53369 4.52574C5.53369 4.52574 3.57569 6.66524 2.61619 7.75374C2.49119 7.87674 2.49119 8.09874 2.60319 8.22974C3.10169 8.79774 5.55019 11.4977 5.55019 11.4977L8.02019 8.79074L10.4732 11.5002L13.4317 8.22724C13.4317 8.22724 13.4942 8.16224 13.5077 8.11874C13.5367 8.02874 13.5157 7.93074 13.4762 7.84824ZM3.98019 8.14774C3.90019 8.05324 3.92719 7.90474 4.00169 7.81524C4.31469 7.45874 5.56719 6.11524 5.56719 6.11524L7.31219 7.96774L5.56419 9.87974C5.56419 9.87974 4.49419 8.73774 3.98019 8.14774ZM11.9742 8.21074C11.9374 8.2739 11.8945 8.33334 11.8462 8.38824L10.4912 9.86074L8.74119 8.00024L10.4632 6.11274C10.4632 6.11274 11.4552 7.14024 11.9097 7.69274C11.9482 7.74074 11.9937 7.78624 12.0132 7.84724C12.0547 7.96674 12.0282 8.09974 11.9737 8.21024" fill="white"/>
</g>
<defs>
<clipPath id="clip0_8504_12892">
<rect width="16" height="16" fill="white" transform="translate(0.0212402 0.000244141)"/>
</clipPath>
</defs>
</svg>
