<svg width="24" height="24" viewBox="0 0 24 24" fill="none" xmlns="http://www.w3.org/2000/svg">
<path fill-rule="evenodd" clip-rule="evenodd" d="M22.5 12C22.5 17.799 17.799 22.5 12 22.5C6.20101 22.5 1.5 17.799 1.5 12C1.5 6.20101 6.20101 1.5 12 1.5C17.799 1.5 22.5 6.20101 22.5 12ZM12 20.25C16.5564 20.25 20.25 16.5563 20.25 12C20.25 7.44365 16.5564 3.75 12 3.75C7.44369 3.75 3.75004 7.44365 3.75004 12C3.75004 16.5563 7.44369 20.25 12 20.25ZM12 21C16.9706 21 21 16.9706 21 12C21 7.02944 16.9706 3 12 3C7.02947 3 3.00004 7.02944 3.00004 12C3.00004 16.9706 7.02947 21 12 21ZM11.212 7.71205L7.63563 12.066C7.32204 12.4478 7.58722 13.0306 8.07455 13.0306H11.6185C11.9862 13.0306 12.2589 13.3797 12.1779 13.7468L11.7288 15.7811C11.5967 16.3796 12.3372 16.758 12.7252 16.2903L16.3626 11.9065C16.6789 11.5253 16.4142 10.9397 15.9255 10.9397H12.289C11.917 10.9397 11.6435 10.5827 11.7321 10.2129L12.2077 8.22961C12.3524 7.62654 11.6024 7.23674 11.212 7.71205Z" fill="black"/>
</svg>
