<svg width="27" height="16" viewBox="0 0 27 16" fill="none" xmlns="http://www.w3.org/2000/svg">
<g clip-path="url(#clip0_8504_12481)">
<path d="M22.7549 2.54861L21.6902 1.77479L24.1804 0.518066L22.7549 2.54861Z" fill="#3F4B80"/>
<path d="M16.4246 0.000244141L19.5257 1.59443L19.898 4.16606L16.4246 0.000244141Z" fill="#313A62"/>
<path d="M19.898 4.16606L19.4035 6.3537L16.4246 0.000244141L19.898 4.16606Z" fill="#3F4B80"/>
<path d="M19.4036 6.35354L14.656 0.36081L16.4306 0.0117188L19.4036 6.35354Z" fill="#4B5897"/>
<path d="M19.4035 6.35357L14.2544 4.34048L14.6558 0.36084L19.4035 6.35357Z" fill="#5161A4"/>
<path d="M14.6559 0.36084L14.2544 4.34048L8.94824 5.0852L14.6559 0.36084Z" fill="#4B5897"/>
<path d="M19.4036 6.35366L13.7251 7.89548L14.2546 4.34058L19.4036 6.35366Z" fill="#4B5897"/>
<path d="M13.7251 7.89533L19.4036 6.35352L16.8436 7.54624L13.7251 7.89533Z" fill="#3F4B80"/>
<path d="M10.5889 8.43054L13.7249 7.89526L13.7772 8.96581L10.5889 8.43054Z" fill="#3F4B80"/>
<path d="M13.7775 8.96578L13.7251 7.89523L16.8436 7.54614L13.7775 8.96578Z" fill="#313A62"/>
<path d="M8.94824 5.0853L14.2544 4.34058L13.725 7.89548L8.94824 5.0853Z" fill="#3F4B80"/>
<path d="M8.94824 5.08545L13.725 7.89564L10.589 8.43091L8.94824 5.08545Z" fill="#4B5897"/>
<path d="M8.94824 5.08545L10.589 8.43091L9.00642 9.58873L8.94824 5.08545Z" fill="#313A62"/>
<path d="M6.25458 5.9873L6.88876 9.79821L5.14331 7.17421L6.25458 5.9873Z" fill="#5161A4"/>
<path d="M3.13013 7.19759L5.14322 7.17432L5.15485 8.40195L3.13013 7.19759Z" fill="#313A62"/>
<path d="M3.29304 8.02927L3.13013 7.19727L5.15485 8.40163L3.29304 8.02927Z" fill="#3F4B80"/>
<path d="M3.29311 8.02927L2.14111 9.04745L3.1302 7.19727L3.29311 8.02927Z" fill="#4B5897"/>
<path d="M2.14099 9.04761L2.05954 9.66434L0.744629 9.44906L2.14099 9.04761Z" fill="#313A62"/>
<path d="M2.14102 9.04748L3.29303 8.0293L2.05957 9.66421L2.14102 9.04748Z" fill="#5161A4"/>
<path d="M5.14331 7.17432L6.88876 9.79832L5.15495 10.1416L5.14331 7.17432Z" fill="#3F4B80"/>
<path d="M5.65527 12.0964L4.39272 14.7088L4.20654 12.6957L5.65527 12.0964Z" fill="#3F4B80"/>
<path d="M4.20638 12.6953L4.39256 14.7084L3.66528 15.0575L4.20638 12.6953Z" fill="#1F243E"/>
<path d="M4.39259 14.7087L4.58459 15.692L3.0835 16.0004L4.39259 14.7087Z" fill="#3F4B80"/>
<path d="M3.66532 15.0578L4.39259 14.7087L3.0835 16.0004L3.66532 15.0578Z" fill="#313A62"/>
<path d="M5.15491 10.1414L6.88872 9.7981L4.20654 12.6955L5.15491 10.1414Z" fill="#313A62"/>
<path d="M6.88872 9.7981L8.06982 11.1421L4.20654 12.6955L6.88872 9.7981Z" fill="#4B5897"/>
<path d="M6.25439 5.98727L8.94821 5.08545L6.88858 9.79817L6.25439 5.98727Z" fill="#4B5897"/>
<path d="M6.88867 9.79817L8.94832 5.08545L9.0065 9.58872L6.88867 9.79817Z" fill="#3F4B80"/>
<path d="M8.06977 11.1423L6.88867 9.79832L9.0065 9.58887L8.06977 11.1423Z" fill="#313A62"/>
<path d="M16.8435 7.54651L19.3395 7.52905L17.7453 9.96105L16.8435 7.54651Z" fill="#4B5897"/>
<path d="M16.8435 7.54624L19.4035 6.35352L19.3395 7.52879L16.8435 7.54624Z" fill="#5161A4"/>
<path d="M16.3547 9.69888L16.8435 7.54614L17.7453 9.9607L16.3547 9.69888Z" fill="#3F4B80"/>
<path d="M15.7556 10.8277L16.3549 9.69897L17.7454 9.96079L15.7556 10.8277Z" fill="#4B5897"/>
<path d="M14.5454 11.6364L14.9236 9.78625L16.3548 9.69897L14.5454 11.6364Z" fill="#3F4B80"/>
<path d="M14.5454 11.6364L16.3548 9.69897L15.7556 10.8277L14.5454 11.6364Z" fill="#313A62"/>
<path d="M21.6902 1.77484L24.064 0.11084L24.1804 0.518113L21.6902 1.77484Z" fill="#495692"/>
<path d="M24.064 0.110628L26.0072 0.0117188L24.1803 0.517901L24.064 0.110628Z" fill="#5D6CAC"/>
<path d="M22.8188 3.90989L21.7366 3.14771L25.3962 3.15352L22.8188 3.90989Z" fill="#4F60A3"/>
<path d="M21.7366 3.14775L24.8842 2.74048L25.3962 3.15357L21.7366 3.14775Z" fill="#495692"/>
<path d="M24.8843 2.74082L26.3272 1.47827L25.3963 3.15391L24.8843 2.74082Z" fill="#3F4B80"/>
<path d="M25.3962 3.15391L26.3271 1.47827L26.6355 1.62373L25.3962 3.15391Z" fill="#4F60A3"/>
<path d="M26.3271 1.47825L26.5831 0.750977L26.6355 1.6237L26.3271 1.47825Z" fill="#313A62"/>
<path d="M19.8981 4.16602L20.2472 7.22638L19.4036 6.35365L19.8981 4.16602Z" fill="#313A62"/>
<path d="M20.2473 7.22628L19.8982 4.16591L22.8189 3.90991L20.2473 7.22628Z" fill="#3F4B80"/>
<path d="M22.8187 3.91012L19.898 4.16612L19.5256 1.59448L22.8187 3.91012Z" fill="#4B5897"/>
<path d="M22.7548 2.54883L23.226 2.97356L21.7366 3.1481L22.7548 2.54883Z" fill="#313A62"/>
<path d="M19.5256 1.59448L22.7547 2.54866L21.7365 3.14794L19.5256 1.59448Z" fill="#3F4B80"/>
<path d="M19.5256 1.59448L21.69 1.77485L22.7547 2.54866L19.5256 1.59448Z" fill="#313A62"/>
<path d="M22.6851 8.75064L22.8189 3.90991L23.9825 4.85828L22.6851 8.75064Z" fill="#3F4B80"/>
<path d="M22.6851 8.75064L22.819 3.90991L20.2473 7.22628L22.6851 8.75064Z" fill="#495692"/>
<path d="M23.9825 4.85813L23.6101 3.64795L22.8188 3.90977L23.9825 4.85813Z" fill="#313A62"/>
<path d="M24.1396 8.08167L22.6851 8.75076L23.9825 4.8584L24.1396 8.08167Z" fill="#313A62"/>
</g>
<defs>
<clipPath id="clip0_8504_12481">
<rect width="25.8909" height="16" fill="white" transform="translate(0.744629 0.000244141)"/>
</clipPath>
</defs>
</svg>
