<svg width="16" height="16" viewBox="0 0 16 16" fill="none" xmlns="http://www.w3.org/2000/svg">
<g clip-path="url(#clip0_8504_12548)">
<path d="M15.8374 7.84055C15.3907 7.40977 14.9682 6.95532 14.5214 6.52455C14.3902 6.42342 14.3441 6.24611 14.4101 6.09378C14.5938 5.47162 14.7531 4.84947 14.9285 4.22731C14.9765 4.07561 14.9522 4.01225 14.7851 3.97192C14.147 3.81254 13.5172 3.62116 12.8707 3.46114C12.687 3.42146 12.6153 3.32544 12.5756 3.15774C12.4162 2.53559 12.2408 1.92944 12.0891 1.30728C12.0411 1.12358 11.9855 1.08389 11.8018 1.13958C11.1796 1.31496 10.5498 1.47434 9.92761 1.63436C9.82391 1.66636 9.7279 1.69005 9.63253 1.59468C9.12175 1.06917 8.58729 0.566712 8.09315 0.0162461C8.03682 0.0175262 7.98049 0.0124056 7.92545 0.000244141C7.92865 0.0424892 7.90688 0.0834541 7.86976 0.103937C7.39098 0.574393 6.91284 1.04485 6.44175 1.52363C6.3515 1.63436 6.19916 1.67341 6.06666 1.61964C5.44451 1.44426 4.82235 1.28488 4.2002 1.10886C4.02482 1.06085 3.95313 1.09286 3.90512 1.27656C3.74574 1.89871 3.56204 2.52087 3.40266 3.14302C3.38602 3.2736 3.28553 3.37793 3.15559 3.39841C2.52576 3.55779 1.91128 3.73317 1.28145 3.88487C1.07406 3.93288 1.01838 4.00457 1.08174 4.21963C1.26545 4.8341 1.40882 5.46394 1.5842 6.08609C1.64053 6.21859 1.60149 6.37157 1.48819 6.46118C1.01774 6.91563 0.562642 7.38673 0.0921852 7.84119C-0.0351901 7.96088 -0.0275092 8.03257 0.0921852 8.15226C0.554961 8.60672 1.00173 9.06949 1.46387 9.52395C1.5778 9.60844 1.62069 9.7595 1.56756 9.89071C1.39218 10.5052 1.24048 11.119 1.05678 11.7335C0.992773 11.9486 1.02478 12.0369 1.25648 12.0926C1.87864 12.2443 2.48479 12.4273 3.10695 12.579C3.29065 12.6187 3.36234 12.7147 3.40202 12.8824C3.5614 13.5123 3.73678 14.1267 3.8968 14.7566C3.93649 14.916 3.99281 14.9563 4.15219 14.9083C4.76667 14.7329 5.38818 14.5895 6.00266 14.4135C6.16587 14.352 6.35022 14.4039 6.45711 14.5409C6.89556 14.9953 7.34234 15.4344 7.78143 15.8889C7.91712 16.0322 7.99649 16.0406 8.14051 15.8966C8.57896 15.4338 9.04174 14.9953 9.48851 14.5325C9.58901 14.4001 9.76503 14.3514 9.91928 14.4129C10.5338 14.5966 11.1476 14.7476 11.7621 14.9236C11.9374 14.9716 12.0091 14.9396 12.0571 14.7559C12.2088 14.1415 12.4002 13.5276 12.5519 12.9132C12.5916 12.7295 12.6793 12.6578 12.8553 12.6181C13.4775 12.4664 14.0836 12.291 14.7058 12.1393C14.8895 12.0996 14.9452 12.0279 14.8895 11.8359C14.7141 11.2138 14.5547 10.5756 14.3787 9.94576C14.3224 9.81326 14.3614 9.66028 14.4747 9.57067C14.9292 9.13222 15.3759 8.66945 15.8387 8.23099C16.0051 8.07225 15.9891 7.99224 15.8374 7.84055ZM4.00882 7.4821C4.00882 7.48274 4.00882 7.48338 4.00882 7.48402C4.00626 7.75478 3.78479 7.97176 3.51404 7.9692H3.01926C2.81187 7.9692 2.60449 7.9692 2.38942 7.97688C2.27805 7.97688 2.24604 7.9372 2.26973 7.82518C2.32541 7.59412 2.3811 7.41041 2.6845 7.36241C3.07558 7.30672 3.45003 7.17103 3.83279 7.05901C3.96849 7.02701 4.02418 7.04301 4.00818 7.18639C4.00113 7.2824 4.00882 7.38609 4.00882 7.4821ZM3.98513 11.834C3.65613 11.5242 3.3617 11.2381 3.05958 10.952C3.31497 10.8086 3.56204 10.6729 3.80143 10.5295C3.93713 10.4495 3.98513 10.4655 3.98513 10.6332C3.97745 11.0224 3.98513 11.4205 3.98513 11.834ZM3.09991 10.7843C3.00389 10.8399 2.98021 10.8163 2.95653 10.7203C2.88484 10.4329 2.79715 10.1461 2.72546 9.85871C2.70946 9.7947 2.70178 9.71533 2.76515 9.67501C2.82915 9.63532 2.87652 9.69101 2.92453 9.71469C3.2516 9.89839 3.57868 10.0898 3.95377 10.2972C3.65037 10.4649 3.37066 10.6166 3.09991 10.7843ZM2.49375 6.50855C2.41374 6.70825 2.13467 6.73961 1.95161 6.86763C1.76791 6.39717 1.76791 6.39717 2.0873 6.07009C2.31069 5.84671 2.53408 5.63164 2.75747 5.40825C2.77795 5.39545 2.79907 5.38521 2.82147 5.37625C2.70882 5.77502 2.63713 6.15778 2.49375 6.50855ZM2.97189 5.28856C2.98789 5.21687 3.04358 5.23287 3.08326 5.25656C3.35466 5.41593 3.61773 5.57531 3.92049 5.75133C3.48971 5.9984 3.09863 6.22179 2.65249 6.46118C2.76451 6.03809 2.8682 5.663 2.97189 5.28856ZM2.13467 7.38609C2.04698 7.38609 2.04698 7.2984 2.03098 7.24271C1.94329 6.97964 1.95929 6.96364 2.43807 6.76394C2.39326 6.94764 2.35038 7.0987 2.31389 7.24271C2.30173 7.3304 2.223 7.39377 2.13467 7.38609ZM1.65589 7.52179C1.3525 7.6018 1.04974 7.67349 0.746344 7.74517L0.722661 7.71317L1.82359 7.06733C2.0073 7.41041 1.99897 7.4341 1.65589 7.52179ZM1.8876 7.58579C2.09499 7.53779 2.03098 7.7535 2.0713 7.84119C2.11099 7.92888 2.0553 7.96856 1.95993 7.96856H0.659293C0.659293 7.95256 0.651612 7.92888 0.651612 7.91287C1.05806 7.80918 1.46451 7.68949 1.8876 7.58579ZM2.19996 8.34045C2.27933 8.64192 2.3587 8.9434 2.44895 9.26856C1.84408 8.97412 1.92217 9.1399 2.19996 8.34045ZM1.99449 9.19687C2.1942 9.18919 2.55264 9.52395 2.55264 9.70765C2.50143 9.84335 2.39326 9.97072 2.28957 10.1147C2.28189 10.1147 2.27357 10.1224 2.26589 10.1224C2.18588 10.1384 1.79543 9.65964 1.81143 9.57195C1.81911 9.55595 1.81911 9.53995 1.82743 9.52395C1.88248 9.41193 1.81911 9.20455 1.99449 9.19687ZM2.16987 10.5129C2.24988 10.3932 2.30557 10.3452 2.41694 10.4809C2.52 10.5986 2.62881 10.71 2.74402 10.8156C2.78371 10.8636 2.86372 10.9033 2.76003 10.9673C2.30557 11.2227 1.8428 11.4858 1.38834 11.7412C1.37554 11.7297 1.3653 11.7162 1.35634 11.7015C1.62389 11.3027 1.89528 10.9116 2.16987 10.5129ZM2.61345 9.90671C2.68514 10.1621 2.74914 10.4175 2.82083 10.6882C2.30237 10.3215 2.28637 10.2735 2.61345 9.90671ZM2.80483 9.35625C2.71714 9.49194 2.62113 9.43626 2.58977 9.32424C2.47839 8.94148 2.3747 8.55871 2.27869 8.17595C2.239 8.04857 2.35038 8.07994 2.41438 8.07994H3.68238C3.37066 8.53503 3.09159 8.9498 2.80483 9.35625ZM3.93713 6.91563C3.45067 7.04301 2.96421 7.17103 2.45343 7.30672C2.48543 6.84395 2.64481 6.54119 3.0679 6.37349C3.38666 6.24611 3.67406 6.03873 4.01714 5.84735V6.80426C4.02418 6.85611 3.98961 6.90539 3.93713 6.91563ZM4.00882 4.4667V5.65532C3.71374 5.48762 3.45067 5.32824 3.19528 5.17655C3.10759 5.12854 3.0839 5.08053 3.1716 4.99284C3.38666 4.78546 3.59405 4.57807 3.80143 4.36301C3.84048 4.30604 3.91472 4.2862 3.97681 4.315C4.04082 4.33932 4.00882 4.41101 4.00882 4.4667ZM3.12359 4.79378C3.2036 4.22731 3.24328 4.18763 3.65805 4.315C3.47435 4.4827 3.29129 4.64208 3.12359 4.79378ZM3.94545 1.72333C3.96145 1.73101 3.98513 1.73101 4.00113 1.73933V2.79994C4.00113 3.23839 4.00113 3.23839 3.51468 3.3024C3.65805 2.76794 3.80143 2.24179 3.94545 1.72333ZM3.41866 3.62948C3.45067 3.4221 3.61005 3.44578 3.74574 3.39009C3.97681 3.29408 4.02482 3.39777 4.00113 3.59748V3.69349C4.00113 4.12426 3.78607 4.28364 3.38666 4.14026C3.33865 4.12426 3.30665 4.10826 3.31497 4.06025C3.34698 3.91623 3.39498 3.77286 3.41866 3.62948ZM1.5842 3.95656C2.15387 3.81318 2.72482 3.66148 3.32329 3.50979C3.27529 3.70117 3.2356 3.85287 3.19592 4.01225C3.16391 4.13962 3.06854 4.11594 2.98085 4.10826C2.51808 4.06857 2.04762 4.03657 1.57716 3.99688C1.58292 3.98408 1.58548 3.97 1.5842 3.95656ZM2.98789 4.22731C3.09927 4.23499 3.12359 4.27532 3.09927 4.38669C2.95589 5.04085 2.96357 5.04085 2.3971 4.70545C2.10203 4.53007 1.79863 4.35469 1.47155 4.1633C2.0073 4.11594 2.50143 4.20363 2.98789 4.22731ZM1.25713 4.26764C1.24944 4.24395 1.24944 4.22795 1.24112 4.20363C1.26481 4.20363 1.28081 4.21131 1.30513 4.21131C1.78391 4.49038 2.27037 4.77778 2.76451 5.05685C2.81251 5.08886 2.8842 5.10486 2.80419 5.19255C2.47711 5.52731 2.15835 5.87039 1.83895 6.21347C1.80823 6.20323 1.77879 6.19043 1.75126 6.17379C1.5842 5.53563 1.42483 4.90579 1.25713 4.26764ZM1.6719 6.48486C1.69558 6.50855 1.7199 6.51687 1.7199 6.52455C1.83127 6.93164 1.83127 6.93164 1.46451 7.13902C1.19312 7.2984 0.914044 7.4501 0.611288 7.6178C0.978052 7.21839 1.32113 6.85163 1.6719 6.48486ZM0.38022 8.07994C0.891001 8.07994 1.39346 8.07993 1.9036 8.07225C2.0393 8.07225 2.09499 8.09594 2.0393 8.25596C1.95929 8.47102 1.96761 8.8141 1.82423 8.88579C1.65653 8.97348 1.42547 8.71041 1.22576 8.60672C0.938367 8.45502 0.659293 8.27964 0.372539 8.12026C0.375099 8.10682 0.3783 8.09338 0.38022 8.07994ZM0.579284 8.43134L0.586965 8.42366C0.994054 8.57535 1.34482 8.83074 1.71926 9.03813C1.82295 9.09382 1.79927 9.23783 1.64757 9.54059C1.28145 9.17255 0.914044 8.82178 0.579284 8.43134ZM1.72758 9.84271C1.75126 9.85039 1.77559 9.85039 1.78327 9.85871C2.19804 10.2575 2.19804 10.2575 1.87096 10.7279C1.69558 10.9833 1.51188 11.2304 1.33649 11.4775L1.29681 11.4455L1.72758 9.84271ZM1.24112 11.9722C1.79927 11.6535 2.30173 11.3661 2.81251 11.0787C2.87652 11.039 2.90852 11.0467 2.93221 11.1267C3.0519 11.5812 3.1716 12.0279 3.30729 12.5304C2.59745 12.3313 1.95097 12.1559 1.24112 11.9722ZM3.96465 14.3015C3.94865 14.3015 3.93265 14.3092 3.91664 14.3092C3.77327 13.7907 3.63757 13.2722 3.49419 12.7378H3.49099C3.54668 12.7301 3.56268 12.7218 3.58188 12.7301C3.96465 12.8178 3.96465 12.8178 3.96465 13.2166V14.3015ZM3.97745 12.6744C3.92177 12.6821 3.91344 12.6904 3.91344 12.6904C3.56268 12.6667 3.3713 12.4907 3.32329 12.1323C3.27529 11.8289 3.17992 11.5421 3.14791 11.2227C3.4033 11.4781 3.67406 11.7175 3.90576 11.9966C4.07282 12.1956 3.91344 12.4433 3.97745 12.6744ZM4.00882 8.84611L3.98513 9.96304C3.98513 10.1064 3.96145 10.1704 3.80975 10.0744C3.53836 9.91504 3.26761 9.75566 2.98789 9.61164C2.8682 9.54763 2.8682 9.49194 2.93989 9.38825C3.21896 8.98948 3.49803 8.59072 3.76943 8.18363C3.80079 8.11322 3.87696 8.07353 3.95313 8.08762C4.0645 8.10362 4.00882 8.19131 4.00882 8.24699C4.01714 8.4467 4.00882 8.6464 4.00882 8.84611ZM10.8685 5.08117C10.6291 4.92179 10.3341 4.85779 10.2304 4.54671C10.1888 4.45774 10.192 4.35405 10.238 4.26764C10.4454 3.92456 10.6451 3.58147 10.8365 3.23839C10.9165 3.1027 10.9639 3.12702 11.0676 3.21471C11.243 3.36641 11.307 3.51811 11.227 3.74917C11.0919 4.18763 10.9882 4.6344 10.8685 5.08117ZM11.8658 11.0953C11.8658 11.7572 11.8658 11.7572 11.2039 11.7015C10.8852 11.6778 10.5581 11.6458 10.2387 11.6215C10.1587 11.6138 10.0953 11.6055 10.071 11.5101C10.0473 11.4141 10.135 11.4064 10.1907 11.3744C10.6931 11.0953 11.1879 10.8163 11.6821 10.5289C11.8338 10.4412 11.8818 10.4809 11.8658 10.6486C11.8574 10.8003 11.8658 10.9436 11.8658 11.0953ZM8.98605 13.1129C8.71466 12.9132 8.40358 12.7621 8.09251 12.5784C8.3799 12.419 8.64297 12.2673 8.91436 12.1079C8.96109 12.0721 9.02766 12.0791 9.06606 12.1239C9.41683 12.4747 9.77591 12.8261 10.1427 13.1929C10.0947 13.2326 10.087 13.2409 10.087 13.2409C9.6959 13.4163 9.33746 13.3843 8.98605 13.1129ZM9.31313 13.4483C8.89836 13.552 8.5316 13.6556 8.16483 13.7517C8.07714 13.7753 8.04514 13.7517 8.04514 13.6556V12.6987C8.48359 12.9535 8.87468 13.1845 9.31313 13.4483ZM5.26145 13.0572C5.15007 13.0252 5.20576 12.9612 5.23776 12.9055C5.44515 12.5464 5.66021 12.1873 5.8836 11.7969C6.11467 12.2833 6.33037 12.7301 6.53776 13.1769C6.61777 13.3362 6.53776 13.3919 6.41038 13.3606C6.02698 13.2729 5.64421 13.1609 5.26145 13.0572ZM6.31437 13.4643C5.78823 13.815 5.77223 13.8073 5.30945 13.1929C5.65189 13.2882 5.97129 13.3682 6.31437 13.4643ZM5.10527 11.071C5.11295 11.0313 5.13727 10.991 5.18528 11.023C5.35298 11.1267 5.55204 11.1747 5.67174 11.3501C5.79143 11.5255 5.83944 11.7008 5.68774 11.9082C5.50596 12.1751 5.34338 12.4555 5.20128 12.7455C5.08158 12.9765 4.98621 12.9605 4.85052 12.7775C4.79483 12.6974 4.68282 12.6578 4.70714 12.5304C4.83836 12.0446 4.96637 11.5575 5.10527 11.071ZM4.12083 3.44578C4.11955 3.43938 4.11827 3.43234 4.11827 3.42594C4.11123 3.33825 4.17716 3.26144 4.26485 3.25439C4.44023 3.22239 4.61561 3.17439 4.79099 3.12702C4.81211 3.12318 4.83387 3.12318 4.855 3.12702C4.84028 3.13662 4.82875 3.1507 4.82299 3.1667C4.59961 3.38177 4.37622 3.60516 4.12083 3.85287C4.12083 3.70117 4.12851 3.57379 4.12083 3.44578ZM4.17652 4.00456C4.46391 3.70117 4.75899 3.40609 5.07774 3.07901C5.32481 3.50979 5.54052 3.89255 5.79591 4.32332C5.22944 4.28364 4.71098 4.25163 4.20084 4.19595C4.04914 4.17995 4.11251 4.06793 4.17652 4.00456ZM6.8962 2.87995C7.19128 3.11102 7.54204 3.27872 7.90112 3.4861C7.61373 3.6538 7.35898 3.79718 7.10359 3.94888C7.03958 3.98856 6.99221 4.01289 6.92821 3.94888C6.57744 3.5898 6.21836 3.23903 5.84328 2.86395C6.22668 2.71225 6.54544 2.60856 6.8962 2.87995ZM6.68114 2.62456C7.08823 2.51319 7.44667 2.41717 7.81343 2.32116C7.90112 2.29748 7.94913 2.30516 7.94913 2.41717V3.36641C7.51836 3.1187 7.11959 2.87995 6.68114 2.62456ZM7.64957 5.9664C7.56956 5.87039 7.44219 5.97408 7.34618 5.9984C6.94741 6.09442 6.95509 6.1021 6.7477 5.74301C6.57232 5.42426 6.39694 5.10486 6.20556 4.79378C6.13387 4.6664 6.14155 4.6024 6.27725 4.54671C6.35726 4.51471 6.42895 4.47502 6.50063 4.44302C6.66833 4.37133 6.81939 4.17995 6.97941 4.21195C7.16311 4.25163 7.27449 4.46734 7.41787 4.60304C7.86144 5.04981 8.29989 5.50427 8.75499 5.93504C8.92653 6.0925 9.03214 6.30884 9.05006 6.54119C8.5348 6.4535 8.02914 6.37349 7.52988 6.27812C7.52988 6.26212 7.5222 6.24611 7.52988 6.23011C7.55356 6.1341 7.73726 6.07777 7.64957 5.9664ZM4.12851 4.95316L4.13171 4.87315C4.13171 4.30668 4.13171 4.30668 4.68218 4.34701C5.03294 4.37069 5.39202 4.41101 5.74278 4.4347C5.82279 4.44238 5.89128 4.44238 5.91496 4.53839C5.93865 4.6344 5.85096 4.64208 5.80359 4.67409L4.29621 5.53563C4.13683 5.63164 4.12083 5.55931 4.12851 5.42426C4.13683 5.26424 4.12851 5.11318 4.12851 4.95316ZM4.63097 5.48762C5.05342 5.28024 5.44451 5.04085 5.84328 4.80146C5.99497 4.70545 6.05066 4.75345 6.12235 4.88915C6.31373 5.25592 6.52112 5.615 6.73682 5.96576C6.82451 6.10914 6.80083 6.14946 6.64081 6.18915C5.88296 6.38053 5.12511 6.58791 4.3679 6.7953C4.2002 6.84331 4.13683 6.8273 4.16051 6.6436C4.16819 6.53223 4.16051 6.41253 4.16051 6.22883C4.02482 5.85503 4.27253 5.65532 4.63097 5.48762ZM4.13683 7.80086C4.14451 7.69717 4.16051 7.5858 4.16051 7.4821C4.16819 6.97964 4.16819 6.97964 4.63929 6.85227C5.25377 6.69289 5.8676 6.53351 6.48207 6.35749C6.72914 6.2858 6.96853 6.2538 7.2316 6.38117C6.89684 6.77994 6.56976 7.17871 6.25036 7.57747C6.13899 7.49746 6.18636 7.29008 6.05066 7.30608C5.93097 7.32208 5.96297 7.49746 5.92329 7.60116C5.89448 7.67861 5.87336 7.75862 5.85928 7.84055C5.85928 7.84247 5.85864 7.84503 5.85864 7.84695C5.84392 7.9372 5.75879 7.99864 5.66789 7.98392C5.21344 7.97624 4.75835 7.96792 4.30389 7.97624C4.16051 7.97624 4.12083 7.92056 4.13683 7.80086ZM5.8356 2.71993C5.75431 2.74937 5.66405 2.71097 5.62821 2.63224C5.57252 2.54455 5.66021 2.51255 5.6999 2.47286C5.89128 2.26548 5.8996 2.26548 6.33806 2.58423C6.15435 2.63224 5.98729 2.66424 5.8356 2.71993ZM5.65509 2.32948C5.5514 2.48118 5.45539 2.48886 5.32033 2.33716C5.12063 2.11378 4.89788 1.90639 4.68218 1.69133C4.68986 1.67533 4.69818 1.65164 4.70586 1.63564C5.07774 1.77902 5.38882 2.03441 5.72678 2.20211C5.7351 2.27316 5.67942 2.28916 5.65509 2.32948ZM5.95529 3.1507C6.25869 3.44578 6.55376 3.74085 6.88084 4.06025C6.7317 4.15882 6.57744 4.24971 6.41807 4.33164C6.19532 4.43214 5.93289 4.34125 5.81959 4.12426C5.61221 3.7575 5.40482 3.39841 5.19744 3.03165C5.65189 2.84795 5.65189 2.85563 5.95529 3.1507ZM4.11251 8.28732C4.11251 8.13562 4.13619 8.07225 4.31221 8.07994C4.74298 8.09594 5.17376 8.08762 5.60453 8.08762C5.7159 8.08762 5.77991 8.10362 5.74022 8.23931C5.50916 9.07653 5.28577 9.91439 5.05406 10.7759C4.91068 10.6882 4.79099 10.6242 4.67898 10.5609C4.08883 10.2261 4.08883 10.2261 4.10483 9.55595C4.12083 9.13286 4.12083 8.71041 4.11251 8.28732ZM6.0193 11.7732C5.97961 11.7015 5.95529 11.6375 6.02698 11.5735C6.08266 11.5178 6.13067 11.5735 6.17868 11.5972C6.72914 11.9159 7.27129 12.243 7.84544 12.5784C7.50235 12.7781 7.19128 12.9612 6.88852 13.1449C6.78483 13.2166 6.71314 13.2409 6.64913 13.0892C6.45007 12.6507 6.23436 12.2116 6.0193 11.7732ZM5.8676 11.2547C5.80359 11.215 5.7479 11.167 5.6839 11.1273C5.5162 11.0076 5.23712 10.984 5.19744 10.7926C5.15775 10.6172 5.27745 10.4015 5.33313 10.2024C5.49251 9.62828 5.66021 9.06181 5.79591 8.47934C5.84264 8.23419 5.98281 8.01721 6.187 7.87319C6.34638 8.31164 6.49807 8.74241 6.67346 9.1495C6.72146 9.29288 6.71314 9.34921 6.54608 9.3172C6.49039 9.30952 6.4187 9.2852 6.3867 9.34921C6.3547 9.41321 6.42639 9.44522 6.45839 9.49258C6.56976 9.64428 6.82515 9.73197 6.80915 9.93104C6.79315 10.0987 6.64145 10.2581 6.54608 10.4258C6.39438 10.6812 6.24268 10.9366 6.09931 11.1997C6.0353 11.3187 5.97129 11.3341 5.8676 11.2547ZM6.80851 9.24487C6.64081 8.79042 6.47375 8.32764 6.30605 7.87319C6.26189 7.79126 6.27853 7.69013 6.34574 7.62612C6.67282 7.25104 6.99157 6.86827 7.30265 6.4855C7.34938 6.41445 7.43643 6.38181 7.51772 6.40549C7.99649 6.49318 8.48295 6.58087 8.96109 6.66088C9.06862 6.67112 9.15823 6.74793 9.18448 6.85227C9.34386 7.29072 9.50324 7.73749 9.67094 8.17659C9.72022 8.2726 9.70038 8.38909 9.62293 8.46398C9.31185 8.82306 9.00846 9.19751 8.69738 9.56491C8.64169 9.62892 8.60137 9.70829 8.51368 9.6686C7.98753 9.58091 7.48443 9.49322 6.97429 9.40553C6.87252 9.38825 6.84052 9.32424 6.80851 9.24487ZM8.46759 9.78702C8.46759 9.92272 8.25253 9.98672 8.34022 10.0904C8.42791 10.1941 8.5796 10.0981 8.6833 10.0507C8.96237 9.92336 9.10575 10.027 9.23376 10.2818C9.39314 10.6166 9.59285 10.936 9.78423 11.2547C9.86424 11.3904 9.84824 11.4621 9.70422 11.5178C9.61141 11.5556 9.52116 11.5978 9.43283 11.6452C8.99437 11.8846 8.99437 11.8846 8.65129 11.5415C8.19684 11.087 7.75007 10.6319 7.29561 10.1858C7.12023 10.0104 6.95253 9.83502 6.95253 9.52395C7.46267 9.61164 7.96513 9.69933 8.46759 9.78702ZM10.151 13.3522C10.2329 13.3215 10.3245 13.3554 10.3661 13.4323C10.4141 13.5123 10.3264 13.5436 10.286 13.5916C10.0947 13.799 10.0947 13.799 9.65621 13.4803C9.83992 13.4323 9.9993 13.4003 10.151 13.3522ZM10.0473 12.9618C9.79191 12.6667 9.50516 12.4037 9.22544 12.1323C9.11407 12.0209 9.12175 11.9729 9.26513 11.9089C9.44051 11.8289 9.5762 11.6695 9.79959 11.7175C9.99097 11.6695 10.087 11.7815 10.1747 11.9486C10.3501 12.2756 10.5338 12.5944 10.7251 12.9138C10.7808 13.0175 10.7731 13.0572 10.6535 13.1052C10.4141 13.2005 10.2304 13.1769 10.0473 12.9618ZM11.3582 10.5769C10.9434 10.7843 10.5446 11.0313 10.1459 11.263C10.0185 11.3347 9.95449 11.343 9.87448 11.199C9.67478 10.8163 9.45971 10.4412 9.23632 10.0744C9.15631 9.94704 9.20432 9.90671 9.32401 9.87471C10.1055 9.67501 10.8794 9.47594 11.6533 9.26024C11.805 9.22055 11.853 9.24423 11.837 9.39593C11.8293 9.51563 11.837 9.643 11.837 9.83438H11.8338C11.9695 10.2095 11.7249 10.4092 11.3582 10.5769ZM11.8574 8.29564C11.8498 8.39165 11.8338 8.49534 11.8338 8.59072C11.8261 9.09318 11.8261 9.08549 11.3313 9.22055C10.7328 9.37993 10.135 9.53931 9.53652 9.70701C9.28113 9.7787 9.02574 9.83439 8.76267 9.68333L9.75159 8.50303C9.86296 8.57471 9.80727 8.79042 9.94297 8.7661C10.0787 8.74241 10.0543 8.55871 10.0863 8.44734C10.19 8.08825 10.19 8.08825 10.5568 8.08825C10.9236 8.08825 11.2987 8.09594 11.6737 8.08825C11.8338 8.08825 11.8734 8.15162 11.8574 8.29564ZM10.1824 7.68117C10.1267 7.90455 10.007 8.04793 9.81559 8.19963C9.63189 7.70485 9.46483 7.23439 9.28945 6.76394C9.40082 6.68393 9.57172 6.82794 9.60821 6.69225C9.64789 6.58856 9.48851 6.51687 9.4085 6.43686C9.14543 6.16546 9.14543 6.17379 9.33681 5.83839C9.52052 5.52731 9.7119 5.23223 9.87128 4.91283C9.96729 4.72145 10.0627 4.73745 10.206 4.84883C10.2521 4.88595 10.3001 4.92052 10.3494 4.95252C10.4928 5.06389 10.7565 5.0959 10.7962 5.2636C10.8359 5.4313 10.7245 5.63036 10.6765 5.81406C10.5178 6.43686 10.3341 7.05901 10.1824 7.68117ZM10.7328 3.01501C10.8365 3.03869 10.7885 3.11102 10.7565 3.1667C10.5491 3.52579 10.3417 3.88487 10.1107 4.27532C9.87128 3.78886 9.66389 3.3344 9.45651 2.89531C9.38482 2.74361 9.44883 2.68025 9.58389 2.71161C9.96729 2.79994 10.3501 2.91131 10.7328 3.01501ZM9.68822 2.60024C10.2624 2.24947 10.039 2.16946 10.7091 2.87931C10.3341 2.78394 10.023 2.69625 9.68822 2.60024ZM9.97497 4.27532C10.007 4.33933 10.0467 4.41101 9.98265 4.4827C9.90264 4.57039 9.84696 4.4827 9.79127 4.4507C9.24912 4.13962 8.71466 3.82086 8.14819 3.48546C8.50728 3.27808 8.84204 3.08669 9.16143 2.89531C9.26513 2.8313 9.30481 2.87163 9.34514 2.95932C9.55252 3.39777 9.76759 3.83686 9.97497 4.27532ZM11.1156 2.99132C11.0042 2.99132 11.0516 2.90363 11.0836 2.84795C11.2833 2.50486 11.4824 2.1701 11.6821 1.82702C11.7038 1.8283 11.7256 1.83406 11.7461 1.84303C11.6456 2.21811 11.5547 2.60856 11.4273 2.98364C11.371 3.1667 11.2276 2.99132 11.1156 2.99132ZM11.5144 1.86671C11.323 2.20147 11.1233 2.53687 10.9319 2.87163C10.7168 2.64824 10.5248 2.44086 10.3174 2.22579C10.7719 1.96272 11.2346 1.65164 11.7294 1.41225C11.7217 1.59532 11.5944 1.72333 11.5144 1.86671ZM10.0902 1.73933C10.5126 1.61964 10.9357 1.51595 11.3665 1.40457L11.3902 1.45258H11.387C11.0074 1.66764 10.6291 1.91535 10.2419 2.11442C10.0825 2.19443 9.97881 1.98704 9.9148 1.85903C9.8508 1.73101 10.0262 1.75469 10.0902 1.73933ZM9.64021 1.84303C9.81559 1.89871 9.90328 2.06641 10.0313 2.1701C10.0377 2.19251 10.0313 2.21683 10.0153 2.23411C9.84632 2.34805 9.66709 2.44662 9.48083 2.52919C9.34514 2.57719 9.01806 2.17843 9.05838 2.03441C9.05838 2.01073 9.09807 1.9864 9.12239 1.97872C9.28945 1.93072 9.45651 1.89039 9.64021 1.84303ZM9.53652 1.72333C9.53204 1.72717 9.52884 1.73293 9.52884 1.73933C9.0027 1.92304 8.99437 1.92304 8.75499 1.42057C8.62761 1.14918 8.49959 0.886111 8.3639 0.591035C8.5636 0.670405 9.40914 1.49994 9.53652 1.72333ZM8.07714 0.447018C8.10083 0.447018 8.11683 0.439337 8.14115 0.439337C8.35622 0.893791 8.57192 1.34889 8.78699 1.78734C8.82667 1.86735 8.835 1.91471 8.7313 1.95504C8.10915 2.20211 8.07714 2.18611 8.07714 1.53259V0.447018ZM8.22052 2.32948C8.49959 2.41717 8.77867 2.48886 9.05774 2.56055C9.12175 2.57655 9.18512 2.59256 9.20112 2.67192C9.2088 2.71993 9.17744 2.74361 9.13711 2.76794C8.78635 2.96764 8.44327 3.17503 8.0605 3.39777V2.44918C8.05282 2.32116 8.10083 2.28916 8.22052 2.32948ZM8.20004 3.65316C8.71082 3.96424 9.22096 4.26764 9.73942 4.56271C9.8668 4.6344 9.87512 4.69009 9.80343 4.80978C9.57236 5.17655 9.36498 5.55163 9.14927 5.92672C9.09359 6.03041 9.05326 6.07841 8.94189 5.9664C8.32741 5.36025 7.71358 4.76178 7.06774 4.13194H7.06454C7.3833 3.94824 7.64701 3.80486 7.90496 3.64548C7.99457 3.58403 8.11363 3.58723 8.20004 3.65316ZM6.54096 1.63564C6.99221 1.17286 7.43899 0.710089 7.88576 0.247954C7.90944 0.263956 7.92545 0.279958 7.94977 0.29596L7.95297 1.97872C7.95297 2.09842 7.90496 2.13042 7.80127 2.09842C7.3705 1.97872 6.93205 1.85903 6.47695 1.73165C6.49551 1.69709 6.51664 1.66508 6.54096 1.63564ZM6.44175 1.86671C6.84052 1.9704 7.2476 2.07409 7.64637 2.18547V2.24115C7.32761 2.32884 7.00053 2.41653 6.67346 2.51255C6.40206 2.57655 6.24268 2.34485 6.0353 2.24947C6.0193 2.24179 6.01162 2.20147 6.01162 2.18547C6.0193 2.09778 6.35406 1.84303 6.44175 1.86671ZM6.16267 1.7707C5.92329 2.16178 5.8996 2.16946 5.55652 1.96208C5.26145 1.77838 4.93437 1.62732 4.66297 1.40393C5.18464 1.46794 5.66341 1.67533 6.16267 1.7707ZM4.52728 1.69133C4.79867 1.96272 5.07774 2.23347 5.33313 2.52087C5.46883 2.68025 5.24544 2.71225 5.19744 2.79994C5.15775 2.87163 5.10143 2.87995 5.05406 2.79226C4.85436 2.4415 4.65529 2.09842 4.45559 1.74765C4.47991 1.73101 4.50359 1.70733 4.52728 1.69133ZM4.12083 2.48886C4.10483 2.1541 4.11315 1.82702 4.11315 1.49162C4.12979 1.4897 4.14643 1.48458 4.16115 1.47562C4.41654 1.92239 4.67194 2.36917 4.92669 2.82362C4.98237 2.91131 4.96637 2.95932 4.86268 2.97532C4.855 2.97532 4.84668 2.983 4.839 2.983C4.61561 3.03869 4.33653 3.20639 4.18484 3.12638C4.00882 3.03101 4.12851 2.71225 4.12083 2.48886ZM4.08883 11.6932C4.12851 11.2784 4.09651 10.8559 4.09651 10.3849C4.40758 10.5686 4.67065 10.7196 4.93373 10.8713C5.02142 10.927 4.99773 10.991 4.97341 11.0627C4.84604 11.5255 4.72634 11.9882 4.59065 12.4984C4.36022 12.2436 4.04914 12.1079 4.08883 11.6932ZM4.12083 12.22C4.2482 12.3473 4.3679 12.467 4.48759 12.579C4.55928 12.643 4.5356 12.7064 4.51128 12.7787C4.47927 12.8901 4.3999 12.8107 4.3519 12.8024C4.04914 12.7384 4.01714 12.6744 4.12083 12.22ZM4.09651 14.3098C4.08883 14.3098 4.0805 14.3021 4.07282 14.3021C4.07282 13.8317 4.07282 13.3689 4.06514 12.9061C4.08882 12.8984 4.10483 12.8824 4.11315 12.8824C4.46391 12.9541 4.45623 12.9624 4.36854 13.2972C4.28021 13.6313 4.18484 13.9744 4.09651 14.3098ZM4.24052 14.2458C4.34422 13.8707 4.44023 13.4879 4.5516 13.1135C4.61561 12.8824 4.77499 13.0738 4.87036 13.0815C5.02974 13.1052 4.91837 13.2089 4.88636 13.2652C4.71866 13.5603 4.5516 13.8477 4.37558 14.1427C4.34422 14.1901 4.33589 14.2535 4.24052 14.2458ZM4.2482 14.6362C4.5196 14.1575 4.79035 13.671 5.06174 13.1845C5.30881 13.3843 5.49251 13.607 5.70758 13.8304C5.2128 14.1095 4.75835 14.4129 4.26421 14.6522L4.2482 14.6362ZM4.60729 14.6522C4.95037 14.3732 5.34082 14.1735 5.72422 13.9744C5.93161 13.8784 5.97961 14.1581 6.187 14.2695C5.60453 14.4052 5.12575 14.5889 4.60729 14.6522ZM6.37006 14.2215C6.29005 14.2138 5.96297 13.9341 5.96297 13.8784C5.95785 13.8624 5.96041 13.8445 5.97065 13.8304C6.00266 13.7664 6.50512 13.527 6.5768 13.5353C6.83988 13.5673 6.82387 13.8304 6.93589 13.9898C6.96789 14.0378 6.92821 14.0775 6.88788 14.0858C6.71314 14.1338 6.53776 14.1818 6.37006 14.2215ZM6.92821 13.6313C7.1996 13.703 7.43067 13.767 7.68606 13.831C7.1676 14.0941 7.07222 14.0704 6.92821 13.6313ZM6.52944 14.4692C6.41806 14.3732 6.42575 14.3335 6.57744 14.2938C7.0159 14.1741 7.0159 14.1664 7.20728 14.5729C7.35898 14.9 7.51836 15.227 7.67006 15.5541C7.28729 15.179 6.90452 14.8199 6.52944 14.4692ZM7.90112 15.0913V15.6335C7.88512 15.6335 7.87744 15.6412 7.86144 15.6412C7.64637 15.1944 7.43067 14.7399 7.20728 14.2932C7.15159 14.1735 7.16759 14.1338 7.30329 14.0935C7.90944 13.9181 7.90944 13.9098 7.90944 14.5479C7.90944 14.7323 7.90112 14.9076 7.90112 15.0913ZM7.93313 13.2166C7.93313 13.783 7.93313 13.783 7.39098 13.639C7.2316 13.5993 7.07222 13.5513 6.9122 13.5116C6.8482 13.4956 6.80083 13.4636 6.79251 13.4003C6.78483 13.3362 6.84052 13.3202 6.8802 13.2966C7.17528 13.1212 7.47867 12.9535 7.77375 12.7704C7.92545 12.6744 7.94145 12.7467 7.93313 12.8741V13.2166ZM7.80895 12.4113C7.29049 12.1003 6.77203 11.7969 6.24588 11.4941C6.14987 11.4384 6.11851 11.3904 6.18188 11.2867C6.43727 10.8643 6.67666 10.4412 6.93973 9.9944C7.57788 10.6326 8.18852 11.2464 8.81387 11.8609C8.88556 11.9326 8.89388 11.9646 8.79787 12.0202C8.55848 12.1476 8.32741 12.2916 8.08803 12.4273C8.00033 12.4779 7.89024 12.4721 7.80895 12.4113ZM9.41682 14.4609C8.98605 14.9153 8.5476 15.3621 8.11683 15.8165L8.04514 15.7685C8.04514 15.2021 8.04514 14.6362 8.03746 14.0615C8.03746 13.9501 8.09315 13.9418 8.18084 13.9654C8.58792 14.0768 8.99437 14.1965 9.40146 14.3002C9.56852 14.3412 9.47251 14.4052 9.41682 14.4609ZM9.52052 14.2061C9.12943 14.1024 8.73066 13.991 8.34022 13.8874C8.34662 13.8694 8.34918 13.8502 8.3479 13.8317C8.67498 13.744 9.01294 13.6403 9.34514 13.5686C9.60053 13.5129 9.75222 13.7363 9.95961 13.8317C9.96985 13.8515 9.97497 13.8733 9.97561 13.8957C9.95897 13.9987 9.62421 14.2298 9.52052 14.2061ZM11.2513 14.6682C10.7808 14.5409 10.3104 14.4212 9.83928 14.2932C10.007 13.9341 10.1023 13.9021 10.4217 14.0935L11.2833 14.5959C11.2692 14.619 11.259 14.6433 11.2513 14.6682ZM11.3185 14.4852C10.9594 14.2701 10.6086 14.0544 10.2099 13.8233C10.2784 13.7677 10.3264 13.7433 10.3533 13.7036C10.457 13.5603 10.537 13.5763 10.6567 13.7036C10.832 13.9034 11.0317 14.0787 11.2148 14.2701C11.2705 14.3252 11.3582 14.3655 11.3185 14.4852ZM11.4587 14.3572C11.1873 14.0941 10.9325 13.831 10.6848 13.5673C10.5331 13.3919 10.7488 13.3522 10.8122 13.2722C10.8999 13.1365 10.9396 13.2799 10.9716 13.3362L11.426 14.1261C11.4843 14.1895 11.4971 14.281 11.4587 14.3572ZM11.8734 14.5729C11.8574 14.5806 11.8498 14.5806 11.8338 14.5889C11.5784 14.1504 11.3262 13.7037 11.0682 13.2569C11.0125 13.1609 11.0202 13.1135 11.1399 13.0892C11.3793 13.0335 11.6187 12.9618 11.8734 12.8978V14.5729ZM11.2673 12.9055C11.467 12.7141 11.6821 12.5067 11.8734 12.3153C11.8978 12.8421 11.8414 12.8978 11.2673 12.9055ZM11.8094 12.0843C11.5304 12.3877 11.243 12.6987 10.9319 13.0335C10.6688 12.5707 10.4531 12.1803 10.1984 11.7495C10.7565 11.7975 11.2673 11.8295 11.7697 11.8769C11.9451 11.8929 11.8818 12.0042 11.8094 12.0843ZM11.885 6.03809C11.8773 6.61224 11.8773 7.17871 11.8773 7.75285C11.885 7.92056 11.8453 7.99992 11.6462 7.99224C11.2238 7.96856 10.8007 7.98456 10.3782 7.98456C10.2745 7.98456 10.2188 7.97688 10.2508 7.84887C10.4819 7.00396 10.713 6.15906 10.944 5.29816C11.2302 5.4569 11.4926 5.60796 11.7499 5.77502C11.844 5.82686 11.8978 5.9312 11.885 6.03809ZM11.9054 4.49102C11.8574 4.86611 11.8978 5.24887 11.8978 5.67965C11.5867 5.50426 11.3268 5.34489 11.0605 5.20087C11.0605 5.20087 11.0599 5.20087 11.0599 5.20023C11.0049 5.17591 10.9805 5.1119 11.0049 5.05685C11.1406 4.57807 11.2679 4.09162 11.4036 3.58147C11.7057 3.82854 11.9611 4.05193 11.9054 4.49102ZM11.8574 3.90855C11.7249 3.74917 11.6264 3.62116 11.5144 3.50146C11.4612 3.44898 11.4484 3.36833 11.4824 3.30176C11.522 3.20575 11.5937 3.25375 11.6501 3.26208C11.9451 3.3184 11.9695 3.39009 11.8574 3.90855ZM11.805 3.17503C11.7173 3.13534 11.5099 3.21471 11.5656 2.99132C11.6693 2.59256 11.7806 2.20147 11.8843 1.8027H11.9208C11.9208 2.21747 11.9208 2.62456 11.9163 3.03869C11.9163 3.11102 11.9483 3.24671 11.805 3.17503ZM15.367 7.6178C15.3593 7.62548 15.3593 7.64148 15.351 7.6498C14.9842 7.44242 14.6091 7.25872 14.266 7.02765C14.0907 6.90027 14.3057 6.71657 14.3057 6.56487C14.6655 6.91563 15.0162 7.2664 15.367 7.6178ZM12.0251 8.40701C12.1365 8.17595 12.2965 8.00825 12.6153 8.11194C12.9219 8.11194 13.2451 8.11962 13.5805 8.11194C13.7079 8.11194 13.7322 8.15994 13.7079 8.27964C13.6599 8.50303 13.5882 8.65472 13.3168 8.70209C12.934 8.77378 12.5513 8.89347 12.1685 9.00549C12.0328 9.04517 11.9611 9.02149 11.9848 8.86979C12.0091 8.71809 11.9451 8.55871 12.0251 8.40701ZM12.0091 4.22731C12.3362 4.54607 12.6313 4.82578 12.9347 5.12086C12.6716 5.27256 12.4162 5.41593 12.1608 5.55931C12.0571 5.615 12.0091 5.60732 12.0091 5.4793V4.22731ZM12.8944 5.28856C12.9904 5.23287 13.0141 5.26488 13.0377 5.36025C13.1094 5.64764 13.1971 5.9344 13.2688 6.22179C13.297 6.28516 13.2803 6.35941 13.2291 6.40549C13.1651 6.44518 13.1254 6.38181 13.0774 6.35749C12.7427 6.17379 12.4073 5.9824 12.0482 5.77502C12.3522 5.59964 12.6236 5.44794 12.8944 5.28856ZM13.7111 4.8341C13.9902 4.67473 14.2692 4.52303 14.5483 4.36365C14.5643 4.35597 14.5803 4.36365 14.652 4.36365H14.6488C14.3454 4.8021 14.0663 5.20919 13.7988 5.60796C13.7431 5.69565 13.7111 5.69565 13.6311 5.62396C13.1293 5.16054 13.121 5.16886 13.7111 4.8341ZM13.3968 6.74793C13.5082 7.12302 13.6042 7.49746 13.7002 7.87255C13.7399 7.99993 13.6445 7.98392 13.5728 7.98392H12.3049C12.6236 7.52947 12.9033 7.12238 13.1664 6.70761C13.2694 6.56487 13.3571 6.62056 13.3968 6.74793ZM13.5805 9.29224C13.5728 9.10854 13.6522 8.94916 13.6919 8.78978C13.7079 8.71809 13.7719 8.69377 13.8436 8.68609C13.9396 8.67841 13.9396 8.75778 13.955 8.81346C14.051 9.08486 14.003 9.14886 13.5805 9.29224ZM12.0091 9.24487C12.1448 8.9978 12.5673 9.04517 12.8624 8.9498C13.0857 8.87811 13.3091 8.8301 13.5645 8.7661C13.5088 8.97348 13.4608 9.14118 13.4211 9.31656C13.4019 9.39785 13.3456 9.4657 13.2694 9.50027C13.0857 9.59628 12.9104 9.69997 12.7273 9.80366C12.4962 9.93936 12.2568 10.0667 12.0015 10.2107L12.0091 9.24487ZM13.3411 9.60332C13.2298 10.0258 13.1261 10.4009 13.0224 10.7759C12.9904 10.8873 12.9187 10.8239 12.8707 10.7919C12.6153 10.6486 12.3682 10.4969 12.0731 10.3215C12.5039 10.0744 12.8944 9.85103 13.3411 9.60332ZM13.4532 9.66733C13.4852 9.53995 13.8999 9.22055 14.0113 9.22887C14.0331 9.23335 14.0523 9.24423 14.067 9.26088C14.1867 9.39657 14.1707 9.73965 14.0433 9.86703C13.8199 10.0904 13.5965 10.3138 13.3731 10.5289C13.3251 10.5686 13.2855 10.6326 13.1894 10.6089C13.2771 10.2818 13.3648 9.97072 13.4532 9.66733ZM14.1022 8.88579C14.0945 8.7981 13.9825 8.66241 14.1259 8.6144C14.492 8.50303 14.8575 8.39165 15.255 8.37501C14.9042 8.56639 14.5611 8.76546 14.2136 8.95684C14.1342 9.00549 14.1099 8.94148 14.1022 8.88579ZM14.1067 8.4787C13.907 8.52671 13.9633 8.31932 13.9313 8.22331C13.8833 8.08762 14.0113 8.11194 14.083 8.11194H15.367C15.3689 8.1241 15.3747 8.13498 15.383 8.14394C14.9605 8.25532 14.5374 8.37501 14.1067 8.4787ZM13.8116 7.80086C13.7156 7.4341 13.6362 7.1307 13.5402 6.77994C14.083 7.05901 14.083 7.05901 13.8116 7.80086ZM13.987 6.88363C13.8308 6.8081 13.6817 6.72041 13.5402 6.62056C13.5338 6.61608 13.528 6.6116 13.5223 6.60648C13.4211 6.52135 13.4077 6.37093 13.4928 6.26916C13.5408 6.19747 13.5888 6.13346 13.6285 6.06177C13.7002 5.91007 13.7719 5.94208 13.8596 6.04577C13.971 6.18147 14.1227 6.28516 14.2104 6.42086C14.1707 6.57255 14.1387 6.69993 14.099 6.84331C14.083 6.89963 14.0433 6.91563 13.987 6.88363ZM14.2584 6.22947C14.2347 6.22179 14.2104 6.22179 14.2027 6.21347C13.7802 5.8307 13.7802 5.8307 14.099 5.36793C14.2744 5.12086 14.4421 4.87315 14.6174 4.62608C14.6411 4.63376 14.6655 4.64976 14.6891 4.65808C14.5458 5.17655 14.4101 5.70333 14.2584 6.22947ZM14.7531 4.09994C14.1707 4.42702 13.6362 4.72977 13.0864 5.04085C12.9507 4.54607 12.8233 4.05961 12.6876 3.54115C13.3808 3.72485 14.035 3.90855 14.7531 4.09994ZM12.5993 3.71717C12.6953 4.07625 12.7907 4.44302 12.8867 4.80978C12.8745 4.81938 12.8611 4.8277 12.847 4.83346C12.5916 4.57807 12.3362 4.32268 12.0815 4.07561C12.0258 4.01161 11.9938 3.49314 12.0418 3.42978C12.0539 3.41057 12.0751 3.39841 12.0975 3.39777C12.2805 3.35809 12.5513 3.53347 12.5993 3.71717ZM12.02 2.92732C12.052 2.52855 12.0277 2.12978 12.0277 1.73101H12.0725C12.2082 2.22579 12.3356 2.71993 12.4668 3.21471C12.4988 3.3344 12.4591 3.35041 12.3394 3.32608C12.1083 3.2864 11.9963 3.19871 12.02 2.92732ZM11.9855 7.80086V7.17871L12.0015 6.08609C12.0015 5.9504 12.0335 5.90239 12.1692 5.9824C12.4405 6.1501 12.7196 6.30948 13.0064 6.46118C13.1177 6.51687 13.1177 6.57255 13.0544 6.66857C12.7753 7.06733 12.4962 7.4661 12.2248 7.87319C12.1768 7.9532 12.1135 8.00056 12.0251 7.9692C11.9374 7.93656 11.9855 7.85655 11.9855 7.80086ZM11.9771 11.5978V10.4092C12.2837 10.5846 12.5353 10.7439 12.799 10.8956C12.895 10.9513 12.9027 10.9993 12.8227 11.0793C12.6153 11.279 12.4079 11.4864 12.2082 11.6938C12.1666 11.7476 12.1 11.7751 12.0328 11.7655C11.9374 11.7335 11.9771 11.6535 11.9771 11.5978ZM12.8784 11.1907C12.735 11.9326 12.7823 11.8449 12.3362 11.7649C12.4879 11.5498 12.6793 11.3981 12.8784 11.1907ZM12.0488 14.3412C12.0328 14.3412 12.0091 14.3335 11.9931 14.3335C11.9931 13.9264 12.0008 13.5116 11.9855 13.1052C11.9778 12.9215 12.0251 12.8261 12.2165 12.8101C12.3055 12.7947 12.3938 12.7736 12.4796 12.7461C12.3279 13.2966 12.1928 13.8227 12.0488 14.3412ZM12.3522 12.6507C11.9298 12.7544 12.0015 12.7704 11.9931 12.3793C11.9931 12.0042 12.0571 11.8929 12.3042 11.9166C12.4316 11.9242 12.6153 11.8449 12.6793 12.0042C12.7427 12.1636 12.4956 12.6104 12.3522 12.6507ZM14.4177 12.1079C13.8436 12.2596 13.2771 12.4113 12.671 12.5784C12.719 12.387 12.7587 12.2193 12.7984 12.0599C12.8304 11.9326 12.934 11.9639 13.0217 11.9722C13.4845 12.0042 13.939 12.0362 14.4017 12.0759C14.4101 12.0843 14.4101 12.1003 14.4177 12.1079ZM13.0537 11.8525C12.9264 11.8449 12.87 11.8129 12.9104 11.6528C13.0697 11.0467 13.0621 11.0467 13.6042 11.3654L14.5611 11.9639C14.035 11.9249 13.5408 11.8846 13.0537 11.8525ZM14.7851 11.9249C14.211 11.5818 13.6842 11.2707 13.1818 10.9756C13.5408 10.6166 13.8839 10.2658 14.2507 9.91504C14.4177 10.5609 14.5931 11.215 14.7851 11.9249ZM14.2981 9.54763C14.2885 9.53803 14.2808 9.52715 14.2744 9.51563C14.1547 9.12454 14.147 9.12454 14.5138 8.92548C14.7928 8.77378 15.0802 8.62208 15.3593 8.47102L15.3913 8.4947C15.0239 8.84611 14.6655 9.19687 14.2981 9.54763ZM15.5827 7.98456H14.083C13.9716 7.98456 13.9076 7.97688 13.9556 7.83286C14.0196 7.63316 14.067 7.4341 14.115 7.23439C14.1387 7.13838 14.1707 7.10702 14.2667 7.1627C14.7135 7.42578 15.1602 7.67349 15.6064 7.92824C15.6 7.94744 15.5916 7.96664 15.5827 7.98456Z" fill="#05BCA9"/>
<path d="M9.04175 2.40877C8.79468 2.40109 8.57898 2.2974 8.33959 2.24108C8.755 1.94664 8.95406 2.00233 9.04175 2.40877ZM13.2297 5.44016C13.2777 5.47984 13.3334 5.52016 13.3814 5.56753C13.6528 5.83892 13.6528 5.83892 13.4051 6.15768C13.3174 6.06167 13.3251 5.93429 13.2854 5.8306C13.2515 5.71283 13.2246 5.59313 13.2054 5.47152C13.2118 5.46 13.2195 5.44912 13.2297 5.44016ZM4.22778 14.6681C4.23546 14.6604 4.24378 14.6444 4.25146 14.6361L4.26746 14.6521L4.22778 14.6681ZM1.25721 4.26754C1.24953 4.24386 1.24953 4.22786 1.24121 4.20354C1.26489 4.20354 1.2809 4.21122 1.30522 4.21122C1.28922 4.22722 1.27641 4.25154 1.25721 4.26754Z" fill="#05BCA9"/>
<path d="M13.2859 6.60962H10.5437V14.2151H9.42456V6.60962H6.68823V5.68384H13.2859V6.60962ZM11.1355 27.5881C10.7136 28.0842 10.0945 28.3323 9.27808 28.3323C8.60229 28.3323 8.08667 28.137 7.7312 27.7463C7.37964 27.3518 7.2019 26.7698 7.198 26.0002V21.8752H8.28198V25.9709C8.28198 26.9319 8.67261 27.4124 9.45386 27.4124C10.282 27.4124 10.8328 27.1038 11.1062 26.4866V21.8752H12.1902V28.2151H11.1589L11.1355 27.5881ZM9.85229 42.3323C8.99292 42.3323 8.2937 42.051 7.75464 41.4885C7.21558 40.9221 6.94604 40.1663 6.94604 39.2209V39.0217C6.94604 38.3928 7.06519 37.8323 7.30347 37.3401C7.54565 36.844 7.88159 36.4573 8.31128 36.1799C8.74487 35.8987 9.21362 35.7581 9.71753 35.7581C10.5417 35.7581 11.1824 36.0295 11.6394 36.5725C12.0964 37.1155 12.325 37.8928 12.325 38.9045V39.3557H8.03003C8.04565 39.9807 8.22729 40.4866 8.57495 40.8733C8.92651 41.2561 9.37183 41.4475 9.91089 41.4475C10.2937 41.4475 10.6179 41.3694 10.8835 41.2131C11.1492 41.0569 11.3816 40.8499 11.5808 40.592L12.2429 41.1077C11.7117 41.9241 10.9148 42.3323 9.85229 42.3323ZM9.71753 36.6487C9.28003 36.6487 8.91284 36.8088 8.61597 37.1292C8.31909 37.4456 8.1355 37.8909 8.06519 38.4651H11.241V38.3831C11.2097 37.8323 11.0613 37.4065 10.7957 37.1057C10.53 36.801 10.1707 36.6487 9.71753 36.6487ZM8.29956 57.7971H7.42651V47.6838H8.29956V57.7971ZM12.7 70.2151H7.11011V69.4358L10.0632 66.1545C10.5007 65.6584 10.8015 65.2561 10.9656 64.9475C11.1335 64.635 11.2175 64.3127 11.2175 63.9807C11.2175 63.5354 11.0828 63.1702 10.8132 62.885C10.5437 62.5999 10.1843 62.4573 9.73511 62.4573C9.19604 62.4573 8.77612 62.6116 8.47534 62.9202C8.17847 63.2249 8.03003 63.6506 8.03003 64.1975H6.94604C6.94604 63.4124 7.198 62.7776 7.7019 62.2932C8.20972 61.8088 8.88745 61.5667 9.73511 61.5667C10.5281 61.5667 11.155 61.7756 11.616 62.1936C12.0769 62.6077 12.3074 63.1604 12.3074 63.8518C12.3074 64.6917 11.7722 65.6917 10.7019 66.8518L8.41675 69.3303H12.7V70.2151ZM12.4597 80.5764C12.4597 81.8459 12.2429 82.7893 11.8093 83.4065C11.3757 84.0237 10.698 84.3323 9.77612 84.3323C8.86597 84.3323 8.19214 84.0315 7.75464 83.4299C7.31714 82.8245 7.09058 81.9221 7.07495 80.7229V79.2756C7.07495 78.0217 7.29175 77.0901 7.72534 76.4807C8.15894 75.8713 8.83862 75.5667 9.7644 75.5667C10.6824 75.5667 11.3582 75.8616 11.7917 76.4514C12.2253 77.0374 12.448 77.9436 12.4597 79.1702V80.5764ZM11.3757 79.094C11.3757 78.176 11.2468 77.5081 10.989 77.0901C10.7312 76.6682 10.323 76.4573 9.7644 76.4573C9.20972 76.4573 8.80542 76.6663 8.55151 77.0842C8.29761 77.5022 8.16675 78.1448 8.15894 79.012V80.7463C8.15894 81.6682 8.29175 82.3499 8.55737 82.7913C8.8269 83.2288 9.23315 83.4475 9.77612 83.4475C10.3113 83.4475 10.7078 83.2405 10.9656 82.8264C11.2273 82.4124 11.364 81.76 11.3757 80.8694V79.094ZM12.7 98.2151H7.11011V97.4358L10.0632 94.1545C10.5007 93.6584 10.8015 93.2561 10.9656 92.9475C11.1335 92.635 11.2175 92.3127 11.2175 91.9807C11.2175 91.5354 11.0828 91.1702 10.8132 90.885C10.5437 90.5999 10.1843 90.4573 9.73511 90.4573C9.19604 90.4573 8.77612 90.6116 8.47534 90.9202C8.17847 91.2249 8.03003 91.6506 8.03003 92.1975H6.94604C6.94604 91.4124 7.198 90.7776 7.7019 90.2932C8.20972 89.8088 8.88745 89.5667 9.73511 89.5667C10.5281 89.5667 11.155 89.7756 11.616 90.1936C12.0769 90.6077 12.3074 91.1604 12.3074 91.8518C12.3074 92.6917 11.7722 93.6917 10.7019 94.8518L8.41675 97.3303H12.7V98.2151ZM12.4597 108.576C12.4597 109.846 12.2429 110.789 11.8093 111.406C11.3757 112.024 10.698 112.332 9.77612 112.332C8.86597 112.332 8.19214 112.031 7.75464 111.43C7.31714 110.824 7.09058 109.922 7.07495 108.723V107.276C7.07495 106.022 7.29175 105.09 7.72534 104.481C8.15894 103.871 8.83862 103.567 9.7644 103.567C10.6824 103.567 11.3582 103.862 11.7917 104.451C12.2253 105.037 12.448 105.944 12.4597 107.17V108.576ZM11.3757 107.094C11.3757 106.176 11.2468 105.508 10.989 105.09C10.7312 104.668 10.323 104.457 9.7644 104.457C9.20972 104.457 8.80542 104.666 8.55151 105.084C8.29761 105.502 8.16675 106.145 8.15894 107.012V108.746C8.15894 109.668 8.29175 110.35 8.55737 110.791C8.8269 111.229 9.23315 111.448 9.77612 111.448C10.3113 111.448 10.7078 111.24 10.9656 110.826C11.2273 110.412 11.364 109.76 11.3757 108.869V107.094ZM9.47729 123.033H6.61792V122.149H9.47729V123.033ZM10.6726 140.215H9.58276V132.99L7.39722 133.793V132.809L10.5027 131.643H10.6726V140.215ZM12.7 154.215H7.11011V153.436L10.0632 150.155C10.5007 149.658 10.8015 149.256 10.9656 148.948C11.1335 148.635 11.2175 148.313 11.2175 147.981C11.2175 147.535 11.0828 147.17 10.8132 146.885C10.5437 146.6 10.1843 146.457 9.73511 146.457C9.19604 146.457 8.77612 146.612 8.47534 146.92C8.17847 147.225 8.03003 147.651 8.03003 148.198H6.94604C6.94604 147.412 7.198 146.778 7.7019 146.293C8.20972 145.809 8.88745 145.567 9.73511 145.567C10.5281 145.567 11.155 145.776 11.616 146.194C12.0769 146.608 12.3074 147.16 12.3074 147.852C12.3074 148.692 11.7722 149.692 10.7019 150.852L8.41675 153.33H12.7V154.215ZM9.47729 165.033H6.61792V164.149H9.47729V165.033ZM12.7 182.215H7.11011V181.436L10.0632 178.155C10.5007 177.658 10.8015 177.256 10.9656 176.948C11.1335 176.635 11.2175 176.313 11.2175 175.981C11.2175 175.535 11.0828 175.17 10.8132 174.885C10.5437 174.6 10.1843 174.457 9.73511 174.457C9.19604 174.457 8.77612 174.612 8.47534 174.92C8.17847 175.225 8.03003 175.651 8.03003 176.198H6.94604C6.94604 175.412 7.198 174.778 7.7019 174.293C8.20972 173.809 8.88745 173.567 9.73511 173.567C10.5281 173.567 11.155 173.776 11.616 174.194C12.0769 174.608 12.3074 175.16 12.3074 175.852C12.3074 176.692 11.7722 177.692 10.7019 178.852L8.41675 181.33H12.7V182.215ZM11.2644 192.465C11.0378 192.735 10.7664 192.951 10.45 193.115C10.1375 193.28 9.7937 193.362 9.4187 193.362C8.92651 193.362 8.49683 193.24 8.12964 192.998C7.76636 192.756 7.48511 192.416 7.28589 191.979C7.08667 191.537 6.98706 191.051 6.98706 190.52C6.98706 189.949 7.09448 189.436 7.30933 188.979C7.52808 188.522 7.83667 188.172 8.23511 187.93C8.63354 187.688 9.09839 187.567 9.62964 187.567C10.4734 187.567 11.1375 187.883 11.6218 188.516C12.1101 189.145 12.3542 190.004 12.3542 191.094V191.41C12.3542 193.071 12.0261 194.283 11.3699 195.049C10.7136 195.811 9.72339 196.201 8.39917 196.221H8.18823V195.307H8.41675C9.31128 195.291 9.99878 195.059 10.4792 194.61C10.9597 194.156 11.2214 193.442 11.2644 192.465ZM9.59448 192.465C9.95776 192.465 10.2917 192.354 10.5964 192.131C10.905 191.908 11.1296 191.633 11.2703 191.305V190.871C11.2703 190.16 11.116 189.582 10.8074 189.137C10.4988 188.692 10.1082 188.469 9.6355 188.469C9.15894 188.469 8.77612 188.653 8.48706 189.02C8.198 189.383 8.05347 189.864 8.05347 190.461C8.05347 191.043 8.19214 191.524 8.46948 191.903C8.75073 192.278 9.12573 192.465 9.59448 192.465ZM7.18628 209.647C7.18628 209.459 7.24097 209.303 7.35034 209.178C7.46362 209.053 7.63159 208.99 7.85425 208.99C8.0769 208.99 8.24487 209.053 8.35815 209.178C8.47534 209.303 8.53394 209.459 8.53394 209.647C8.53394 209.826 8.47534 209.977 8.35815 210.098C8.24487 210.219 8.0769 210.28 7.85425 210.28C7.63159 210.28 7.46362 210.219 7.35034 210.098C7.24097 209.977 7.18628 209.826 7.18628 209.647ZM7.19214 204.473C7.19214 204.285 7.24683 204.129 7.3562 204.004C7.46948 203.879 7.63745 203.817 7.86011 203.817C8.08276 203.817 8.25073 203.879 8.36401 204.004C8.4812 204.129 8.53979 204.285 8.53979 204.473C8.53979 204.653 8.4812 204.803 8.36401 204.924C8.25073 205.045 8.08276 205.106 7.86011 205.106C7.63745 205.106 7.46948 205.045 7.3562 204.924C7.24683 204.803 7.19214 204.653 7.19214 204.473ZM10.6726 224.215H9.58276V216.99L7.39722 217.793V216.809L10.5027 215.643H10.6726V224.215ZM11.364 229.678V230.598H11.1648C10.321 230.614 9.64917 230.864 9.14917 231.348C8.64917 231.832 8.36011 232.514 8.28198 233.393C8.7312 232.877 9.34448 232.619 10.1218 232.619C10.864 232.619 11.4558 232.881 11.8972 233.405C12.3425 233.928 12.5652 234.604 12.5652 235.432C12.5652 236.311 12.325 237.014 11.8445 237.541C11.3679 238.069 10.7273 238.332 9.92261 238.332C9.1062 238.332 8.44409 238.02 7.93628 237.395C7.42847 236.766 7.17456 235.957 7.17456 234.969V234.553C7.17456 232.983 7.50854 231.783 8.17651 230.955C8.84839 230.123 9.84644 229.698 11.1707 229.678H11.364ZM9.94019 233.522C9.56909 233.522 9.22729 233.633 8.91479 233.856C8.60229 234.078 8.3855 234.358 8.2644 234.694V235.092C8.2644 235.795 8.42261 236.362 8.73901 236.791C9.05542 237.221 9.44995 237.436 9.92261 237.436C10.4109 237.436 10.7937 237.256 11.071 236.897C11.3523 236.537 11.4929 236.067 11.4929 235.485C11.4929 234.899 11.3503 234.426 11.0652 234.067C10.7839 233.703 10.4089 233.522 9.94019 233.522ZM8.29956 253.797H7.42651V243.684H8.29956V253.797ZM12.2136 262.272H8.51636V265.295H12.8113V266.215H7.39136V257.684H12.7527V258.61H8.51636V261.352H12.2136V262.272ZM7.18628 279.647C7.18628 279.459 7.24097 279.303 7.35034 279.178C7.46362 279.053 7.63159 278.99 7.85425 278.99C8.0769 278.99 8.24487 279.053 8.35815 279.178C8.47534 279.303 8.53394 279.459 8.53394 279.647C8.53394 279.826 8.47534 279.977 8.35815 280.098C8.24487 280.219 8.0769 280.28 7.85425 280.28C7.63159 280.28 7.46362 280.219 7.35034 280.098C7.24097 279.977 7.18628 279.826 7.18628 279.647ZM7.19214 274.473C7.19214 274.285 7.24683 274.129 7.3562 274.004C7.46948 273.879 7.63745 273.817 7.86011 273.817C8.08276 273.817 8.25073 273.879 8.36401 274.004C8.4812 274.129 8.53979 274.285 8.53979 274.473C8.53979 274.653 8.4812 274.803 8.36401 274.924C8.25073 275.045 8.08276 275.106 7.86011 275.106C7.63745 275.106 7.46948 275.045 7.3562 274.924C7.24683 274.803 7.19214 274.653 7.19214 274.473ZM10.6726 294.215H9.58276V286.99L7.39722 287.793V286.809L10.5027 285.643H10.6726V294.215ZM8.68628 303.422H9.50073C10.0125 303.414 10.4148 303.28 10.7078 303.018C11.0007 302.756 11.1472 302.403 11.1472 301.957C11.1472 300.957 10.6492 300.457 9.65308 300.457C9.18433 300.457 8.80933 300.592 8.52808 300.862C8.25073 301.127 8.11206 301.481 8.11206 301.922H7.02808C7.02808 301.246 7.27417 300.686 7.76636 300.24C8.26245 299.791 8.89136 299.567 9.65308 299.567C10.4578 299.567 11.0886 299.78 11.5457 300.205C12.0027 300.631 12.2312 301.223 12.2312 301.981C12.2312 302.352 12.1101 302.711 11.8679 303.059C11.6296 303.406 11.3035 303.666 10.8894 303.838C11.3582 303.987 11.7195 304.233 11.9734 304.576C12.2312 304.92 12.3601 305.34 12.3601 305.836C12.3601 306.602 12.1101 307.209 11.6101 307.658C11.1101 308.108 10.4597 308.332 9.65894 308.332C8.85815 308.332 8.20581 308.115 7.7019 307.682C7.2019 307.248 6.9519 306.676 6.9519 305.965H8.04175C8.04175 306.414 8.18823 306.774 8.4812 307.043C8.77417 307.313 9.16675 307.448 9.65894 307.448C10.1824 307.448 10.5828 307.311 10.8601 307.037C11.1375 306.764 11.2761 306.371 11.2761 305.86C11.2761 305.364 11.1238 304.983 10.8191 304.717C10.5144 304.451 10.075 304.315 9.50073 304.307H8.68628V303.422ZM12.2839 315.91C12.2839 316.336 12.1707 316.715 11.9441 317.047C11.7214 317.379 11.4187 317.639 11.0359 317.826C11.4812 318.018 11.8328 318.297 12.0906 318.664C12.3523 319.031 12.4832 319.448 12.4832 319.912C12.4832 320.651 12.2332 321.239 11.7332 321.676C11.2371 322.114 10.5828 322.332 9.77026 322.332C8.94995 322.332 8.29175 322.114 7.79565 321.676C7.30347 321.235 7.05737 320.647 7.05737 319.912C7.05737 319.451 7.18237 319.035 7.43237 318.664C7.68628 318.293 8.03589 318.012 8.4812 317.821C8.10229 317.633 7.80347 317.373 7.58472 317.041C7.36597 316.709 7.25659 316.332 7.25659 315.91C7.25659 315.192 7.48706 314.621 7.948 314.199C8.40894 313.778 9.01636 313.567 9.77026 313.567C10.5203 313.567 11.1257 313.778 11.5867 314.199C12.0515 314.621 12.2839 315.192 12.2839 315.91ZM11.3992 319.889C11.3992 319.412 11.2468 319.024 10.9421 318.723C10.6414 318.422 10.2468 318.272 9.75854 318.272C9.27026 318.272 8.87769 318.42 8.58081 318.717C8.28784 319.014 8.14136 319.405 8.14136 319.889C8.14136 320.373 8.28394 320.754 8.56909 321.031C8.85815 321.309 9.25854 321.448 9.77026 321.448C10.2781 321.448 10.6765 321.309 10.9656 321.031C11.2546 320.75 11.3992 320.369 11.3992 319.889ZM9.77026 314.457C9.34448 314.457 8.99878 314.59 8.73315 314.856C8.47144 315.117 8.34058 315.475 8.34058 315.928C8.34058 316.362 8.46948 316.713 8.72729 316.983C8.98901 317.248 9.33667 317.381 9.77026 317.381C10.2039 317.381 10.5496 317.248 10.8074 316.983C11.0691 316.713 11.2 316.362 11.2 315.928C11.2 315.494 11.0652 315.141 10.7957 314.867C10.5261 314.594 10.1843 314.457 9.77026 314.457ZM8.29956 337.797H7.42651V327.684H8.29956V337.797ZM9.90503 346.412C8.94019 346.135 8.23706 345.795 7.79565 345.393C7.35815 344.987 7.1394 344.487 7.1394 343.893C7.1394 343.221 7.40698 342.666 7.94214 342.229C8.4812 341.787 9.18042 341.567 10.0398 341.567C10.6257 341.567 11.1472 341.68 11.6042 341.906C12.0652 342.133 12.4207 342.446 12.6707 342.844C12.9246 343.242 13.0515 343.678 13.0515 344.151H11.9207C11.9207 343.635 11.7566 343.231 11.4285 342.938C11.1003 342.641 10.6375 342.492 10.0398 342.492C9.48511 342.492 9.05151 342.615 8.73901 342.862C8.43042 343.104 8.27612 343.442 8.27612 343.875C8.27612 344.223 8.42261 344.518 8.71558 344.76C9.01245 344.998 9.5144 345.217 10.2214 345.416C10.9324 345.615 11.4871 345.836 11.8855 346.078C12.2878 346.317 12.5847 346.596 12.7761 346.916C12.9714 347.237 13.0691 347.614 13.0691 348.047C13.0691 348.739 12.7996 349.293 12.2605 349.711C11.7214 350.125 11.0007 350.332 10.0984 350.332C9.51245 350.332 8.96558 350.221 8.45776 349.998C7.94995 349.772 7.55737 349.463 7.28003 349.073C7.00659 348.682 6.86987 348.239 6.86987 347.742H8.00073C8.00073 348.258 8.19019 348.666 8.56909 348.967C8.9519 349.264 9.46167 349.412 10.0984 349.412C10.6921 349.412 11.1472 349.291 11.4636 349.049C11.78 348.807 11.9382 348.477 11.9382 348.059C11.9382 347.641 11.7917 347.319 11.4988 347.092C11.2058 346.862 10.6746 346.635 9.90503 346.412ZM7.18628 363.647C7.18628 363.459 7.24097 363.303 7.35034 363.178C7.46362 363.053 7.63159 362.99 7.85425 362.99C8.0769 362.99 8.24487 363.053 8.35815 363.178C8.47534 363.303 8.53394 363.459 8.53394 363.647C8.53394 363.826 8.47534 363.977 8.35815 364.098C8.24487 364.219 8.0769 364.28 7.85425 364.28C7.63159 364.28 7.46362 364.219 7.35034 364.098C7.24097 363.977 7.18628 363.826 7.18628 363.647ZM7.19214 358.473C7.19214 358.285 7.24683 358.129 7.3562 358.004C7.46948 357.879 7.63745 357.817 7.86011 357.817C8.08276 357.817 8.25073 357.879 8.36401 358.004C8.4812 358.129 8.53979 358.285 8.53979 358.473C8.53979 358.653 8.4812 358.803 8.36401 358.924C8.25073 359.045 8.08276 359.106 7.86011 359.106C7.63745 359.106 7.46948 359.045 7.3562 358.924C7.24683 358.803 7.19214 358.653 7.19214 358.473ZM12.7 378.215H7.11011V377.436L10.0632 374.155C10.5007 373.658 10.8015 373.256 10.9656 372.948C11.1335 372.635 11.2175 372.313 11.2175 371.981C11.2175 371.535 11.0828 371.17 10.8132 370.885C10.5437 370.6 10.1843 370.457 9.73511 370.457C9.19604 370.457 8.77612 370.612 8.47534 370.92C8.17847 371.225 8.03003 371.651 8.03003 372.198H6.94604C6.94604 371.412 7.198 370.778 7.7019 370.293C8.20972 369.809 8.88745 369.567 9.73511 369.567C10.5281 369.567 11.155 369.776 11.616 370.194C12.0769 370.608 12.3074 371.16 12.3074 371.852C12.3074 372.692 11.7722 373.692 10.7019 374.852L8.41675 377.33H12.7V378.215ZM11.6863 389.35H12.8699V390.235H11.6863V392.215H10.5964V390.235H6.71167V389.596L10.532 383.684H11.6863V389.35ZM7.94214 389.35H10.5964V385.166L10.4675 385.401L7.94214 389.35ZM8.29956 407.797H7.42651V397.684H8.29956V407.797ZM8.51636 416.875V420.215H7.39136V411.684H10.5378C11.4714 411.684 12.2019 411.922 12.7292 412.399C13.2605 412.875 13.5261 413.506 13.5261 414.291C13.5261 415.119 13.2664 415.758 12.7468 416.207C12.2312 416.653 11.491 416.875 10.5261 416.875H8.51636ZM8.51636 415.955H10.5378C11.1394 415.955 11.6003 415.815 11.9207 415.533C12.241 415.248 12.4011 414.838 12.4011 414.303C12.4011 413.795 12.241 413.389 11.9207 413.084C11.6003 412.78 11.1609 412.621 10.6023 412.61H8.51636V415.955ZM7.18628 433.647C7.18628 433.459 7.24097 433.303 7.35034 433.178C7.46362 433.053 7.63159 432.99 7.85425 432.99C8.0769 432.99 8.24487 433.053 8.35815 433.178C8.47534 433.303 8.53394 433.459 8.53394 433.647C8.53394 433.826 8.47534 433.977 8.35815 434.098C8.24487 434.219 8.0769 434.28 7.85425 434.28C7.63159 434.28 7.46362 434.219 7.35034 434.098C7.24097 433.977 7.18628 433.826 7.18628 433.647ZM7.19214 428.473C7.19214 428.285 7.24683 428.129 7.3562 428.004C7.46948 427.879 7.63745 427.817 7.86011 427.817C8.08276 427.817 8.25073 427.879 8.36401 428.004C8.4812 428.129 8.53979 428.285 8.53979 428.473C8.53979 428.653 8.4812 428.803 8.36401 428.924C8.25073 429.045 8.08276 429.106 7.86011 429.106C7.63745 429.106 7.46948 429.045 7.3562 428.924C7.24683 428.803 7.19214 428.653 7.19214 428.473ZM7.60815 443.938L8.04175 439.684H12.4128V440.686H8.96167L8.70386 443.012C9.12183 442.766 9.59644 442.643 10.1277 442.643C10.905 442.643 11.5222 442.901 11.9792 443.416C12.4363 443.928 12.6648 444.621 12.6648 445.496C12.6648 446.375 12.4265 447.069 11.95 447.576C11.4773 448.08 10.8152 448.332 9.96362 448.332C9.20972 448.332 8.59448 448.123 8.11792 447.705C7.64136 447.287 7.36987 446.709 7.30347 445.971H8.32886C8.39526 446.459 8.56909 446.828 8.85034 447.078C9.13159 447.324 9.50269 447.448 9.96362 447.448C10.4675 447.448 10.8621 447.276 11.1472 446.932C11.4363 446.588 11.5808 446.114 11.5808 445.508C11.5808 444.938 11.4246 444.481 11.1121 444.137C10.8035 443.789 10.3914 443.615 9.87573 443.615C9.40308 443.615 9.03198 443.719 8.76245 443.926L8.47534 444.16L7.60815 443.938ZM12.7 462.215H7.11011V461.436L10.0632 458.155C10.5007 457.658 10.8015 457.256 10.9656 456.948C11.1335 456.635 11.2175 456.313 11.2175 455.981C11.2175 455.535 11.0828 455.17 10.8132 454.885C10.5437 454.6 10.1843 454.457 9.73511 454.457C9.19604 454.457 8.77612 454.612 8.47534 454.92C8.17847 455.225 8.03003 455.651 8.03003 456.198H6.94604C6.94604 455.412 7.198 454.778 7.7019 454.293C8.20972 453.809 8.88745 453.567 9.73511 453.567C10.5281 453.567 11.155 453.776 11.616 454.194C12.0769 454.608 12.3074 455.16 12.3074 455.852C12.3074 456.692 11.7722 457.692 10.7019 458.852L8.41675 461.33H12.7V462.215ZM13.2859 468.61H10.5437V476.215H9.42456V468.61H6.68823V467.684H13.2859V468.61ZM11.1355 489.588C10.7136 490.084 10.0945 490.332 9.27808 490.332C8.60229 490.332 8.08667 490.137 7.7312 489.746C7.37964 489.352 7.2019 488.77 7.198 488V483.875H8.28198V487.971C8.28198 488.932 8.67261 489.412 9.45386 489.412C10.282 489.412 10.8328 489.104 11.1062 488.487V483.875H12.1902V490.215H11.1589L11.1355 489.588ZM9.85229 504.332C8.99292 504.332 8.2937 504.051 7.75464 503.489C7.21558 502.922 6.94604 502.166 6.94604 501.221V501.022C6.94604 500.393 7.06519 499.832 7.30347 499.34C7.54565 498.844 7.88159 498.457 8.31128 498.18C8.74487 497.899 9.21362 497.758 9.71753 497.758C10.5417 497.758 11.1824 498.03 11.6394 498.573C12.0964 499.115 12.325 499.893 12.325 500.905V501.356H8.03003C8.04565 501.981 8.22729 502.487 8.57495 502.873C8.92651 503.256 9.37183 503.448 9.91089 503.448C10.2937 503.448 10.6179 503.369 10.8835 503.213C11.1492 503.057 11.3816 502.85 11.5808 502.592L12.2429 503.108C11.7117 503.924 10.9148 504.332 9.85229 504.332ZM9.71753 498.649C9.28003 498.649 8.91284 498.809 8.61597 499.129C8.31909 499.446 8.1355 499.891 8.06519 500.465H11.241V500.383C11.2097 499.832 11.0613 499.406 10.7957 499.106C10.53 498.801 10.1707 498.649 9.71753 498.649ZM8.29956 519.797H7.42651V509.684H8.29956V519.797ZM12.7 532.215H7.11011V531.436L10.0632 528.155C10.5007 527.658 10.8015 527.256 10.9656 526.948C11.1335 526.635 11.2175 526.313 11.2175 525.981C11.2175 525.535 11.0828 525.17 10.8132 524.885C10.5437 524.6 10.1843 524.457 9.73511 524.457C9.19604 524.457 8.77612 524.612 8.47534 524.92C8.17847 525.225 8.03003 525.651 8.03003 526.198H6.94604C6.94604 525.412 7.198 524.778 7.7019 524.293C8.20972 523.809 8.88745 523.567 9.73511 523.567C10.5281 523.567 11.155 523.776 11.616 524.194C12.0769 524.608 12.3074 525.16 12.3074 525.852C12.3074 526.692 11.7722 527.692 10.7019 528.852L8.41675 531.33H12.7V532.215ZM12.4597 542.576C12.4597 543.846 12.2429 544.789 11.8093 545.406C11.3757 546.024 10.698 546.332 9.77612 546.332C8.86597 546.332 8.19214 546.031 7.75464 545.43C7.31714 544.824 7.09058 543.922 7.07495 542.723V541.276C7.07495 540.022 7.29175 539.09 7.72534 538.481C8.15894 537.871 8.83862 537.567 9.7644 537.567C10.6824 537.567 11.3582 537.862 11.7917 538.451C12.2253 539.037 12.448 539.944 12.4597 541.17V542.576ZM11.3757 541.094C11.3757 540.176 11.2468 539.508 10.989 539.09C10.7312 538.668 10.323 538.457 9.7644 538.457C9.20972 538.457 8.80542 538.666 8.55151 539.084C8.29761 539.502 8.16675 540.145 8.15894 541.012V542.746C8.15894 543.668 8.29175 544.35 8.55737 544.791C8.8269 545.229 9.23315 545.448 9.77612 545.448C10.3113 545.448 10.7078 545.24 10.9656 544.826C11.2273 544.412 11.364 543.76 11.3757 542.869V541.094ZM12.7 560.215H7.11011V559.436L10.0632 556.155C10.5007 555.658 10.8015 555.256 10.9656 554.948C11.1335 554.635 11.2175 554.313 11.2175 553.981C11.2175 553.535 11.0828 553.17 10.8132 552.885C10.5437 552.6 10.1843 552.457 9.73511 552.457C9.19604 552.457 8.77612 552.612 8.47534 552.92C8.17847 553.225 8.03003 553.651 8.03003 554.198H6.94604C6.94604 553.412 7.198 552.778 7.7019 552.293C8.20972 551.809 8.88745 551.567 9.73511 551.567C10.5281 551.567 11.155 551.776 11.616 552.194C12.0769 552.608 12.3074 553.16 12.3074 553.852C12.3074 554.692 11.7722 555.692 10.7019 556.852L8.41675 559.33H12.7V560.215ZM12.4597 570.576C12.4597 571.846 12.2429 572.789 11.8093 573.406C11.3757 574.024 10.698 574.332 9.77612 574.332C8.86597 574.332 8.19214 574.031 7.75464 573.43C7.31714 572.824 7.09058 571.922 7.07495 570.723V569.276C7.07495 568.022 7.29175 567.09 7.72534 566.481C8.15894 565.871 8.83862 565.567 9.7644 565.567C10.6824 565.567 11.3582 565.862 11.7917 566.451C12.2253 567.037 12.448 567.944 12.4597 569.17V570.576ZM11.3757 569.094C11.3757 568.176 11.2468 567.508 10.989 567.09C10.7312 566.668 10.323 566.457 9.7644 566.457C9.20972 566.457 8.80542 566.666 8.55151 567.084C8.29761 567.502 8.16675 568.145 8.15894 569.012V570.746C8.15894 571.668 8.29175 572.35 8.55737 572.791C8.8269 573.229 9.23315 573.448 9.77612 573.448C10.3113 573.448 10.7078 573.24 10.9656 572.826C11.2273 572.412 11.364 571.76 11.3757 570.869V569.094ZM9.47729 585.033H6.61792V584.149H9.47729V585.033ZM10.6726 602.215H9.58276V594.99L7.39722 595.793V594.809L10.5027 593.643H10.6726V602.215ZM12.7 616.215H7.11011V615.436L10.0632 612.155C10.5007 611.658 10.8015 611.256 10.9656 610.948C11.1335 610.635 11.2175 610.313 11.2175 609.981C11.2175 609.535 11.0828 609.17 10.8132 608.885C10.5437 608.6 10.1843 608.457 9.73511 608.457C9.19604 608.457 8.77612 608.612 8.47534 608.92C8.17847 609.225 8.03003 609.651 8.03003 610.198H6.94604C6.94604 609.412 7.198 608.778 7.7019 608.293C8.20972 607.809 8.88745 607.567 9.73511 607.567C10.5281 607.567 11.155 607.776 11.616 608.194C12.0769 608.608 12.3074 609.16 12.3074 609.852C12.3074 610.692 11.7722 611.692 10.7019 612.852L8.41675 615.33H12.7V616.215ZM9.47729 627.033H6.61792V626.149H9.47729V627.033ZM12.7 644.215H7.11011V643.436L10.0632 640.155C10.5007 639.658 10.8015 639.256 10.9656 638.948C11.1335 638.635 11.2175 638.313 11.2175 637.981C11.2175 637.535 11.0828 637.17 10.8132 636.885C10.5437 636.6 10.1843 636.457 9.73511 636.457C9.19604 636.457 8.77612 636.612 8.47534 636.92C8.17847 637.225 8.03003 637.651 8.03003 638.198H6.94604C6.94604 637.412 7.198 636.778 7.7019 636.293C8.20972 635.809 8.88745 635.567 9.73511 635.567C10.5281 635.567 11.155 635.776 11.616 636.194C12.0769 636.608 12.3074 637.16 12.3074 637.852C12.3074 638.692 11.7722 639.692 10.7019 640.852L8.41675 643.33H12.7V644.215ZM11.2644 654.465C11.0378 654.735 10.7664 654.951 10.45 655.115C10.1375 655.28 9.7937 655.362 9.4187 655.362C8.92651 655.362 8.49683 655.24 8.12964 654.998C7.76636 654.756 7.48511 654.416 7.28589 653.979C7.08667 653.537 6.98706 653.051 6.98706 652.52C6.98706 651.949 7.09448 651.436 7.30933 650.979C7.52808 650.522 7.83667 650.172 8.23511 649.93C8.63354 649.688 9.09839 649.567 9.62964 649.567C10.4734 649.567 11.1375 649.883 11.6218 650.516C12.1101 651.145 12.3542 652.004 12.3542 653.094V653.41C12.3542 655.071 12.0261 656.283 11.3699 657.049C10.7136 657.811 9.72339 658.201 8.39917 658.221H8.18823V657.307H8.41675C9.31128 657.291 9.99878 657.059 10.4792 656.61C10.9597 656.156 11.2214 655.442 11.2644 654.465ZM9.59448 654.465C9.95776 654.465 10.2917 654.354 10.5964 654.131C10.905 653.908 11.1296 653.633 11.2703 653.305V652.871C11.2703 652.16 11.116 651.582 10.8074 651.137C10.4988 650.692 10.1082 650.469 9.6355 650.469C9.15894 650.469 8.77612 650.653 8.48706 651.02C8.198 651.383 8.05347 651.864 8.05347 652.461C8.05347 653.043 8.19214 653.524 8.46948 653.903C8.75073 654.278 9.12573 654.465 9.59448 654.465ZM7.18628 671.647C7.18628 671.459 7.24097 671.303 7.35034 671.178C7.46362 671.053 7.63159 670.99 7.85425 670.99C8.0769 670.99 8.24487 671.053 8.35815 671.178C8.47534 671.303 8.53394 671.459 8.53394 671.647C8.53394 671.826 8.47534 671.977 8.35815 672.098C8.24487 672.219 8.0769 672.28 7.85425 672.28C7.63159 672.28 7.46362 672.219 7.35034 672.098C7.24097 671.977 7.18628 671.826 7.18628 671.647ZM7.19214 666.473C7.19214 666.285 7.24683 666.129 7.3562 666.004C7.46948 665.879 7.63745 665.817 7.86011 665.817C8.08276 665.817 8.25073 665.879 8.36401 666.004C8.4812 666.129 8.53979 666.285 8.53979 666.473C8.53979 666.653 8.4812 666.803 8.36401 666.924C8.25073 667.045 8.08276 667.106 7.86011 667.106C7.63745 667.106 7.46948 667.045 7.3562 666.924C7.24683 666.803 7.19214 666.653 7.19214 666.473ZM10.6726 686.215H9.58276V678.99L7.39722 679.793V678.809L10.5027 677.643H10.6726V686.215ZM12.2839 693.91C12.2839 694.336 12.1707 694.715 11.9441 695.047C11.7214 695.379 11.4187 695.639 11.0359 695.826C11.4812 696.018 11.8328 696.297 12.0906 696.664C12.3523 697.031 12.4832 697.448 12.4832 697.912C12.4832 698.651 12.2332 699.239 11.7332 699.676C11.2371 700.114 10.5828 700.332 9.77026 700.332C8.94995 700.332 8.29175 700.114 7.79565 699.676C7.30347 699.235 7.05737 698.647 7.05737 697.912C7.05737 697.451 7.18237 697.035 7.43237 696.664C7.68628 696.293 8.03589 696.012 8.4812 695.821C8.10229 695.633 7.80347 695.373 7.58472 695.041C7.36597 694.709 7.25659 694.332 7.25659 693.91C7.25659 693.192 7.48706 692.621 7.948 692.199C8.40894 691.778 9.01636 691.567 9.77026 691.567C10.5203 691.567 11.1257 691.778 11.5867 692.199C12.0515 692.621 12.2839 693.192 12.2839 693.91ZM11.3992 697.889C11.3992 697.412 11.2468 697.024 10.9421 696.723C10.6414 696.422 10.2468 696.272 9.75854 696.272C9.27026 696.272 8.87769 696.42 8.58081 696.717C8.28784 697.014 8.14136 697.405 8.14136 697.889C8.14136 698.373 8.28394 698.754 8.56909 699.031C8.85815 699.309 9.25854 699.448 9.77026 699.448C10.2781 699.448 10.6765 699.309 10.9656 699.031C11.2546 698.75 11.3992 698.369 11.3992 697.889ZM9.77026 692.457C9.34448 692.457 8.99878 692.59 8.73315 692.856C8.47144 693.117 8.34058 693.475 8.34058 693.928C8.34058 694.362 8.46948 694.713 8.72729 694.983C8.98901 695.248 9.33667 695.381 9.77026 695.381C10.2039 695.381 10.5496 695.248 10.8074 694.983C11.0691 694.713 11.2 694.362 11.2 693.928C11.2 693.494 11.0652 693.141 10.7957 692.867C10.5261 692.594 10.1843 692.457 9.77026 692.457ZM8.29956 715.797H7.42651V705.684H8.29956V715.797ZM12.2136 724.272H8.51636V727.295H12.8113V728.215H7.39136V719.684H12.7527V720.61H8.51636V723.352H12.2136V724.272ZM7.18628 741.647C7.18628 741.459 7.24097 741.303 7.35034 741.178C7.46362 741.053 7.63159 740.99 7.85425 740.99C8.0769 740.99 8.24487 741.053 8.35815 741.178C8.47534 741.303 8.53394 741.459 8.53394 741.647C8.53394 741.826 8.47534 741.977 8.35815 742.098C8.24487 742.219 8.0769 742.28 7.85425 742.28C7.63159 742.28 7.46362 742.219 7.35034 742.098C7.24097 741.977 7.18628 741.826 7.18628 741.647ZM7.19214 736.473C7.19214 736.285 7.24683 736.129 7.3562 736.004C7.46948 735.879 7.63745 735.817 7.86011 735.817C8.08276 735.817 8.25073 735.879 8.36401 736.004C8.4812 736.129 8.53979 736.285 8.53979 736.473C8.53979 736.653 8.4812 736.803 8.36401 736.924C8.25073 737.045 8.08276 737.106 7.86011 737.106C7.63745 737.106 7.46948 737.045 7.3562 736.924C7.24683 736.803 7.19214 736.653 7.19214 736.473ZM10.6726 756.215H9.58276V748.99L7.39722 749.793V748.809L10.5027 747.643H10.6726V756.215ZM11.6863 767.35H12.8699V768.235H11.6863V770.215H10.5964V768.235H6.71167V767.596L10.532 761.684H11.6863V767.35ZM7.94214 767.35H10.5964V763.166L10.4675 763.401L7.94214 767.35ZM12.2839 777.91C12.2839 778.336 12.1707 778.715 11.9441 779.047C11.7214 779.379 11.4187 779.639 11.0359 779.826C11.4812 780.018 11.8328 780.297 12.0906 780.664C12.3523 781.031 12.4832 781.448 12.4832 781.912C12.4832 782.651 12.2332 783.239 11.7332 783.676C11.2371 784.114 10.5828 784.332 9.77026 784.332C8.94995 784.332 8.29175 784.114 7.79565 783.676C7.30347 783.235 7.05737 782.647 7.05737 781.912C7.05737 781.451 7.18237 781.035 7.43237 780.664C7.68628 780.293 8.03589 780.012 8.4812 779.821C8.10229 779.633 7.80347 779.373 7.58472 779.041C7.36597 778.709 7.25659 778.332 7.25659 777.91C7.25659 777.192 7.48706 776.621 7.948 776.199C8.40894 775.778 9.01636 775.567 9.77026 775.567C10.5203 775.567 11.1257 775.778 11.5867 776.199C12.0515 776.621 12.2839 777.192 12.2839 777.91ZM11.3992 781.889C11.3992 781.412 11.2468 781.024 10.9421 780.723C10.6414 780.422 10.2468 780.272 9.75854 780.272C9.27026 780.272 8.87769 780.42 8.58081 780.717C8.28784 781.014 8.14136 781.405 8.14136 781.889C8.14136 782.373 8.28394 782.754 8.56909 783.031C8.85815 783.309 9.25854 783.448 9.77026 783.448C10.2781 783.448 10.6765 783.309 10.9656 783.031C11.2546 782.75 11.3992 782.369 11.3992 781.889ZM9.77026 776.457C9.34448 776.457 8.99878 776.59 8.73315 776.856C8.47144 777.117 8.34058 777.475 8.34058 777.928C8.34058 778.362 8.46948 778.713 8.72729 778.983C8.98901 779.248 9.33667 779.381 9.77026 779.381C10.2039 779.381 10.5496 779.248 10.8074 778.983C11.0691 778.713 11.2 778.362 11.2 777.928C11.2 777.494 11.0652 777.141 10.7957 776.867C10.5261 776.594 10.1843 776.457 9.77026 776.457ZM8.29956 799.797H7.42651V789.684H8.29956V799.797ZM9.90503 808.412C8.94019 808.135 8.23706 807.795 7.79565 807.393C7.35815 806.987 7.1394 806.487 7.1394 805.893C7.1394 805.221 7.40698 804.666 7.94214 804.229C8.4812 803.787 9.18042 803.567 10.0398 803.567C10.6257 803.567 11.1472 803.68 11.6042 803.906C12.0652 804.133 12.4207 804.446 12.6707 804.844C12.9246 805.242 13.0515 805.678 13.0515 806.151H11.9207C11.9207 805.635 11.7566 805.231 11.4285 804.938C11.1003 804.641 10.6375 804.492 10.0398 804.492C9.48511 804.492 9.05151 804.615 8.73901 804.862C8.43042 805.104 8.27612 805.442 8.27612 805.875C8.27612 806.223 8.42261 806.518 8.71558 806.76C9.01245 806.998 9.5144 807.217 10.2214 807.416C10.9324 807.615 11.4871 807.836 11.8855 808.078C12.2878 808.317 12.5847 808.596 12.7761 808.916C12.9714 809.237 13.0691 809.614 13.0691 810.047C13.0691 810.739 12.7996 811.293 12.2605 811.711C11.7214 812.125 11.0007 812.332 10.0984 812.332C9.51245 812.332 8.96558 812.221 8.45776 811.998C7.94995 811.772 7.55737 811.463 7.28003 811.073C7.00659 810.682 6.86987 810.239 6.86987 809.742H8.00073C8.00073 810.258 8.19019 810.666 8.56909 810.967C8.9519 811.264 9.46167 811.412 10.0984 811.412C10.6921 811.412 11.1472 811.291 11.4636 811.049C11.78 810.807 11.9382 810.477 11.9382 810.059C11.9382 809.641 11.7917 809.319 11.4988 809.092C11.2058 808.862 10.6746 808.635 9.90503 808.412ZM7.18628 825.647C7.18628 825.459 7.24097 825.303 7.35034 825.178C7.46362 825.053 7.63159 824.99 7.85425 824.99C8.0769 824.99 8.24487 825.053 8.35815 825.178C8.47534 825.303 8.53394 825.459 8.53394 825.647C8.53394 825.826 8.47534 825.977 8.35815 826.098C8.24487 826.219 8.0769 826.28 7.85425 826.28C7.63159 826.28 7.46362 826.219 7.35034 826.098C7.24097 825.977 7.18628 825.826 7.18628 825.647ZM7.19214 820.473C7.19214 820.285 7.24683 820.129 7.3562 820.004C7.46948 819.879 7.63745 819.817 7.86011 819.817C8.08276 819.817 8.25073 819.879 8.36401 820.004C8.4812 820.129 8.53979 820.285 8.53979 820.473C8.53979 820.653 8.4812 820.803 8.36401 820.924C8.25073 821.045 8.08276 821.106 7.86011 821.106C7.63745 821.106 7.46948 821.045 7.3562 820.924C7.24683 820.803 7.19214 820.653 7.19214 820.473ZM12.7 840.215H7.11011V839.436L10.0632 836.155C10.5007 835.658 10.8015 835.256 10.9656 834.948C11.1335 834.635 11.2175 834.313 11.2175 833.981C11.2175 833.535 11.0828 833.17 10.8132 832.885C10.5437 832.6 10.1843 832.457 9.73511 832.457C9.19604 832.457 8.77612 832.612 8.47534 832.92C8.17847 833.225 8.03003 833.651 8.03003 834.198H6.94604C6.94604 833.412 7.198 832.778 7.7019 832.293C8.20972 831.809 8.88745 831.567 9.73511 831.567C10.5281 831.567 11.155 831.776 11.616 832.194C12.0769 832.608 12.3074 833.16 12.3074 833.852C12.3074 834.692 11.7722 835.692 10.7019 836.852L8.41675 839.33H12.7V840.215ZM7.60815 849.938L8.04175 845.684H12.4128V846.686H8.96167L8.70386 849.012C9.12183 848.766 9.59644 848.643 10.1277 848.643C10.905 848.643 11.5222 848.901 11.9792 849.416C12.4363 849.928 12.6648 850.621 12.6648 851.496C12.6648 852.375 12.4265 853.069 11.95 853.576C11.4773 854.08 10.8152 854.332 9.96362 854.332C9.20972 854.332 8.59448 854.123 8.11792 853.705C7.64136 853.287 7.36987 852.709 7.30347 851.971H8.32886C8.39526 852.459 8.56909 852.828 8.85034 853.078C9.13159 853.324 9.50269 853.448 9.96362 853.448C10.4675 853.448 10.8621 853.276 11.1472 852.932C11.4363 852.588 11.5808 852.114 11.5808 851.508C11.5808 850.938 11.4246 850.481 11.1121 850.137C10.8035 849.789 10.3914 849.615 9.87573 849.615C9.40308 849.615 9.03198 849.719 8.76245 849.926L8.47534 850.16L7.60815 849.938ZM8.29956 869.797H7.42651V859.684H8.29956V869.797ZM8.51636 878.875V882.215H7.39136V873.684H10.5378C11.4714 873.684 12.2019 873.922 12.7292 874.399C13.2605 874.875 13.5261 875.506 13.5261 876.291C13.5261 877.119 13.2664 877.758 12.7468 878.207C12.2312 878.653 11.491 878.875 10.5261 878.875H8.51636ZM8.51636 877.955H10.5378C11.1394 877.955 11.6003 877.815 11.9207 877.533C12.241 877.248 12.4011 876.838 12.4011 876.303C12.4011 875.795 12.241 875.389 11.9207 875.084C11.6003 874.78 11.1609 874.621 10.6023 874.61H8.51636V877.955ZM7.18628 895.647C7.18628 895.459 7.24097 895.303 7.35034 895.178C7.46362 895.053 7.63159 894.99 7.85425 894.99C8.0769 894.99 8.24487 895.053 8.35815 895.178C8.47534 895.303 8.53394 895.459 8.53394 895.647C8.53394 895.826 8.47534 895.977 8.35815 896.098C8.24487 896.219 8.0769 896.28 7.85425 896.28C7.63159 896.28 7.46362 896.219 7.35034 896.098C7.24097 895.977 7.18628 895.826 7.18628 895.647ZM7.19214 890.473C7.19214 890.285 7.24683 890.129 7.3562 890.004C7.46948 889.879 7.63745 889.817 7.86011 889.817C8.08276 889.817 8.25073 889.879 8.36401 890.004C8.4812 890.129 8.53979 890.285 8.53979 890.473C8.53979 890.653 8.4812 890.803 8.36401 890.924C8.25073 891.045 8.08276 891.106 7.86011 891.106C7.63745 891.106 7.46948 891.045 7.3562 890.924C7.24683 890.803 7.19214 890.653 7.19214 890.473ZM11.364 901.678V902.598H11.1648C10.321 902.614 9.64917 902.864 9.14917 903.348C8.64917 903.832 8.36011 904.514 8.28198 905.393C8.7312 904.877 9.34448 904.619 10.1218 904.619C10.864 904.619 11.4558 904.881 11.8972 905.405C12.3425 905.928 12.5652 906.604 12.5652 907.432C12.5652 908.311 12.325 909.014 11.8445 909.541C11.3679 910.069 10.7273 910.332 9.92261 910.332C9.1062 910.332 8.44409 910.02 7.93628 909.395C7.42847 908.766 7.17456 907.957 7.17456 906.969V906.553C7.17456 904.983 7.50854 903.783 8.17651 902.955C8.84839 902.123 9.84644 901.698 11.1707 901.678H11.364ZM9.94019 905.522C9.56909 905.522 9.22729 905.633 8.91479 905.856C8.60229 906.078 8.3855 906.358 8.2644 906.694V907.092C8.2644 907.795 8.42261 908.362 8.73901 908.791C9.05542 909.221 9.44995 909.436 9.92261 909.436C10.4109 909.436 10.7937 909.256 11.071 908.897C11.3523 908.537 11.4929 908.067 11.4929 907.485C11.4929 906.899 11.3503 906.426 11.0652 906.067C10.7839 905.703 10.4089 905.522 9.94019 905.522ZM12.4597 920.576C12.4597 921.846 12.2429 922.789 11.8093 923.406C11.3757 924.024 10.698 924.332 9.77612 924.332C8.86597 924.332 8.19214 924.031 7.75464 923.43C7.31714 922.824 7.09058 921.922 7.07495 920.723V919.276C7.07495 918.022 7.29175 917.09 7.72534 916.481C8.15894 915.871 8.83862 915.567 9.7644 915.567C10.6824 915.567 11.3582 915.862 11.7917 916.451C12.2253 917.037 12.448 917.944 12.4597 919.17V920.576ZM11.3757 919.094C11.3757 918.176 11.2468 917.508 10.989 917.09C10.7312 916.668 10.323 916.457 9.7644 916.457C9.20972 916.457 8.80542 916.666 8.55151 917.084C8.29761 917.502 8.16675 918.145 8.15894 919.012V920.746C8.15894 921.668 8.29175 922.35 8.55737 922.791C8.8269 923.229 9.23315 923.448 9.77612 923.448C10.3113 923.448 10.7078 923.24 10.9656 922.826C11.2273 922.412 11.364 921.76 11.3757 920.869V919.094Z" fill="black"/>
</g>
<defs>
<clipPath id="clip0_8504_12548">
<rect width="15.9571" height="16" fill="white" transform="translate(0 0.000244141)"/>
</clipPath>
</defs>
</svg>
