<svg width="17" height="16" viewBox="0 0 17 16" fill="none" xmlns="http://www.w3.org/2000/svg">
<g clip-path="url(#clip0_8504_12540)">
<path d="M8.29736 16.0002C12.7156 16.0002 16.2974 12.4185 16.2974 8.00024C16.2974 3.58197 12.7156 0.000244141 8.29736 0.000244141C3.87909 0.000244141 0.297363 3.58197 0.297363 8.00024C0.297363 12.4185 3.87909 16.0002 8.29736 16.0002Z" fill="#152743"/>
<path d="M8.32169 4.15826C7.66369 4.15826 7.13019 3.79176 7.13019 3.33926C7.13019 2.88676 7.66369 2.52026 8.32169 2.52026C8.97969 2.52026 9.51268 2.88676 9.51268 3.33926C9.51268 3.79176 8.97969 4.15826 8.32169 4.15826ZM7.70519 13.3003V4.55226H10.3612C10.4597 4.55226 10.5292 4.62576 10.5292 4.72426V9.57826C10.5292 9.67626 10.4592 9.76026 10.3612 9.76026H8.89719V13.3003C8.89719 13.3988 8.82219 13.4883 8.72369 13.4883H7.88969C7.84084 13.4864 7.79456 13.4659 7.76028 13.4311C7.726 13.3962 7.70629 13.3496 7.70519 13.3008V13.3003ZM7.25719 9.75976H6.25219C6.2036 9.75928 6.15706 9.74011 6.12224 9.70621C6.08741 9.67232 6.06698 9.62632 6.06519 9.57776V4.72426C6.06519 4.62576 6.15369 4.55226 6.25169 4.55226H7.25719V9.76026V9.75976Z" fill="white"/>
</g>
<defs>
<clipPath id="clip0_8504_12540">
<rect width="16" height="16" fill="white" transform="translate(0.297363 0.000244141)"/>
</clipPath>
</defs>
</svg>
