<svg width="17" height="16" viewBox="0 0 17 16" fill="none" xmlns="http://www.w3.org/2000/svg">
<g clip-path="url(#clip0_8504_12553)">
<path d="M15.9412 0.954834H1.9729V14.9231H15.9412V0.954834Z" fill="white"/>
<path d="M6.70691 9.84914H8.20025C8.62728 9.84851 9.04885 9.7531 9.43453 9.56978C9.79997 9.38998 10.1262 9.13967 10.3945 8.83327C10.6612 8.51605 10.8677 8.15286 11.0041 7.76152C11.1523 7.36517 11.228 6.94535 11.2275 6.52216C11.2289 6.11064 11.1477 5.70303 10.9888 5.32343C10.8339 4.93944 10.6159 4.58406 10.3437 4.272C10.0691 3.95858 9.73615 3.70154 9.36342 3.51517C8.98038 3.31771 8.55498 3.2166 8.12406 3.22057H4.19263V12.7647H6.73231L6.70691 9.84914ZM6.70691 5.5266H7.97675C8.1541 5.53791 8.31998 5.61812 8.43898 5.7501C8.62083 5.97787 8.7065 6.26768 8.67771 6.55771C8.70843 6.83528 8.63012 7.11393 8.45929 7.33486C8.40885 7.40105 8.3445 7.45537 8.27078 7.49399C8.19706 7.5326 8.11576 7.55457 8.03263 7.55835H6.70691V5.5266Z" fill="#2D8EFF"/>
<path d="M0.957031 0.919609V15.0809C0.957031 15.3247 1.05389 15.5586 1.22631 15.731C1.39872 15.9034 1.63257 16.0002 1.8764 16.0002H16.0377C16.2815 16.0002 16.5153 15.9034 16.6878 15.731C16.8602 15.5586 16.957 15.3247 16.957 15.0809V0.919609C16.957 0.675778 16.8602 0.441934 16.6878 0.26952C16.5153 0.0971055 16.2815 0.000244141 16.0377 0.000244141L1.8764 0.000244141C1.63257 0.000244141 1.39872 0.0971055 1.22631 0.26952C1.05389 0.441934 0.957031 0.675778 0.957031 0.919609H0.957031ZM14.1634 14.126H3.74052C3.49669 14.126 3.26285 14.0291 3.09043 13.8567C2.91802 13.6843 2.82116 13.4504 2.82116 13.2066V2.78374C2.82116 2.53991 2.91802 2.30606 3.09043 2.13365C3.26285 1.96123 3.49669 1.86437 3.74052 1.86437H14.1634C14.4072 1.86437 14.6411 1.96123 14.8135 2.13365C14.9859 2.30606 15.0827 2.53991 15.0827 2.78374V13.2066C15.0801 13.4487 14.982 13.6799 14.8099 13.8501C14.6378 14.0203 14.4055 14.1158 14.1634 14.1158V14.126Z" fill="#2D8EFF"/>
<path d="M13.7163 10.9719H7.82935V12.7802H13.7163V10.9719Z" fill="#2D8EFF"/>
</g>
<defs>
<clipPath id="clip0_8504_12553">
<rect width="16" height="16" fill="white" transform="translate(0.957031 0.000244141)"/>
</clipPath>
</defs>
</svg>
