<svg width="17" height="16" viewBox="0 0 17 16" fill="none" xmlns="http://www.w3.org/2000/svg">
<g clip-path="url(#clip0_8504_12562)">
<path d="M14.7818 13.291C14.7752 13.4434 14.7098 13.5874 14.5993 13.6926C14.4888 13.7979 14.3419 13.8562 14.1893 13.8553H5.49946C5.34207 13.8545 5.19137 13.7915 5.08034 13.6799C4.96931 13.5684 4.90697 13.4174 4.90698 13.26V13.0625C4.93886 12.7455 5.03485 12.4384 5.18911 12.1596C5.61232 11.3697 6.4023 10.8054 7.53085 10.4104L11.0011 9.25363C11.539 9.05316 12.0361 8.75683 12.4683 8.379C12.931 7.99164 13.3044 7.50857 13.5625 6.96305C13.8207 6.41754 13.9575 5.82255 13.9636 5.21907L14.2175 5.38835C14.3876 5.50512 14.5275 5.66069 14.6256 5.8422C14.7237 6.02372 14.7773 6.22597 14.7818 6.43226V13.2882V13.291ZM11.8193 5.19367C11.8247 5.48581 11.767 5.77566 11.6501 6.04346C11.5333 6.31125 11.36 6.55069 11.1422 6.74543C10.9045 6.95156 10.6384 7.12258 10.3522 7.25328L6.88194 8.41004C4.82234 9.08717 3.80664 10.2721 3.32701 11.1468C3.24008 11.3106 3.16466 11.4803 3.1013 11.6546C3.1013 11.6828 3.07309 11.6828 3.07309 11.711V6.46329C3.08004 6.25751 3.13461 6.05614 3.23252 5.87501C3.33043 5.69388 3.469 5.53792 3.63736 5.41938L8.37726 2.31587C8.54237 2.2131 8.73295 2.15863 8.92743 2.15863C9.12191 2.15863 9.3125 2.2131 9.4776 2.31587L11.8193 3.86763V5.19367ZM16.926 13.1782V6.46329C16.9168 5.90534 16.7735 5.35779 16.5084 4.86678C16.2432 4.37576 15.8639 3.95568 15.4025 3.64192L13.9918 2.71087V0.594838C13.9918 0.437439 13.9295 0.286446 13.8184 0.174885C13.7074 0.0633234 13.5567 0.000274291 13.3993 -0.000471672H12.4683C12.3899 -0.00240676 12.312 0.0115958 12.2392 0.0406861C12.1665 0.0697765 12.1004 0.113348 12.045 0.168756C11.9896 0.224164 11.946 0.290253 11.9169 0.363012C11.8878 0.43577 11.8738 0.513682 11.8758 0.592016V1.29736L10.6908 0.507375C10.1734 0.174226 9.57102 -0.00292969 8.95564 -0.00292969C8.34027 -0.00292969 7.7379 0.174226 7.2205 0.507375L2.4806 3.61088C2.01451 3.91991 1.6317 4.33897 1.36598 4.83104C1.10027 5.3231 0.959824 5.87304 0.957057 6.43226V13.1471C0.933933 13.7262 1.09171 14.2982 1.40848 14.7835C1.6429 15.1497 1.97521 15.4429 2.36774 15.6299C2.81064 15.84 3.28928 15.9645 3.77843 15.9967H14.1329C14.6245 15.9806 15.1064 15.8553 15.5435 15.6299C15.9441 15.4438 16.2858 15.1509 16.531 14.7835C16.8069 14.2935 16.9434 13.7374 16.926 13.1753" fill="#38A6FA"/>
</g>
<defs>
<clipPath id="clip0_8504_12562">
<rect width="15.969" height="16" fill="white" transform="translate(0.957031 0.000244141)"/>
</clipPath>
</defs>
</svg>
