<svg width="17" height="16" viewBox="0 0 17 16" fill="none" xmlns="http://www.w3.org/2000/svg">
<g clip-path="url(#clip0_8504_12625)">
<path d="M8.59839 0.000244141C13.0144 0.000244141 16.5984 3.58424 16.5984 8.00024C16.5984 12.4162 13.0144 16.0002 8.59839 16.0002C4.18239 16.0002 0.598389 12.4162 0.598389 8.00024C0.598389 3.58424 4.18239 0.000244141 8.59839 0.000244141Z" fill="#071630"/>
<path opacity="0.9" d="M13.7505 11.5519C13.7505 11.7759 13.5585 11.9359 13.2705 11.9359C13.0145 11.9359 12.8225 11.7759 12.8225 11.5519V5.69593C12.8225 5.66393 12.8225 5.66393 12.7905 5.66393C12.7585 5.66393 12.7585 5.66393 12.7265 5.66393L9.04646 10.3679C8.88646 10.5279 8.59846 10.5919 8.40646 10.4639C8.34246 10.4319 8.31046 10.3999 8.27846 10.3679L4.59846 5.66393C4.56646 5.66393 4.56646 5.66393 4.53446 5.66393L4.50246 5.69593V11.5839C4.50246 11.8079 4.27846 11.9679 4.02246 11.9679C3.76646 11.9679 3.57446 11.8079 3.57446 11.5839V4.54393C3.57446 4.41593 3.67046 4.28793 3.76646 4.22393C3.99046 4.09593 4.24646 4.15993 4.40646 4.31993L8.47046 9.47193C8.56646 9.56793 8.69446 9.56793 8.79046 9.50393C8.79046 9.50393 8.82246 9.50393 8.82246 9.47193L12.8865 4.31993C12.9825 4.19193 13.1425 4.12793 13.3025 4.12793C13.5585 4.12793 13.7825 4.28793 13.7825 4.51193L13.7505 11.5519Z" fill="url(#paint0_linear_8504_12625)"/>
<path d="M13.7504 11.5522C13.7504 11.7442 13.5584 11.9362 13.2704 11.9362C13.1104 11.9362 12.9504 11.8722 12.8544 11.7442L8.82245 6.59216C8.72645 6.49616 8.59845 6.49616 8.50245 6.56016C8.50245 6.56016 8.47045 6.59216 8.43845 6.65616L4.43845 11.7762C4.27845 11.9682 4.02245 12.0002 3.79845 11.8722C3.67045 11.8082 3.60645 11.6802 3.60645 11.5522V4.54416C3.60645 4.32016 3.79845 4.16016 4.05445 4.16016C4.31045 4.16016 4.53445 4.32016 4.53445 4.54416V10.4322C4.53445 10.4642 4.53445 10.4642 4.56645 10.4642C4.59845 10.4642 4.59845 10.4642 4.63045 10.4642L8.21445 5.88816C8.24645 5.82416 8.37445 5.69616 8.43845 5.66416C8.66245 5.53616 8.91845 5.56816 9.07845 5.76016L12.7264 10.4642C12.7264 10.4642 12.7584 10.4642 12.7904 10.4642C12.8224 10.4642 12.8224 10.4322 12.8224 10.4322V4.54416C12.8224 4.32016 13.0144 4.16016 13.2704 4.16016C13.5264 4.16016 13.7504 4.32016 13.7504 4.54416V11.5522Z" fill="url(#paint1_linear_8504_12625)"/>
</g>
<defs>
<linearGradient id="paint0_linear_8504_12625" x1="8.67846" y1="11.9424" x2="8.67846" y2="4.16297" gradientUnits="userSpaceOnUse">
<stop stop-color="#3F5CAA"/>
<stop offset="0.2" stop-color="#3F5FAC"/>
<stop offset="0.33" stop-color="#4168B2"/>
<stop offset="0.46" stop-color="#4378BD"/>
<stop offset="0.57" stop-color="#468ECC"/>
<stop offset="0.64" stop-color="#48A0D9"/>
<stop offset="0.8" stop-color="#3ABBEC"/>
<stop offset="0.9" stop-color="#35C6F4"/>
</linearGradient>
<linearGradient id="paint1_linear_8504_12625" x1="8.67845" y1="11.949" x2="8.67845" y2="4.16016" gradientUnits="userSpaceOnUse">
<stop stop-color="#4068B1"/>
<stop offset="0.13" stop-color="#3D7FC1"/>
<stop offset="0.39" stop-color="#39A5DD"/>
<stop offset="0.59" stop-color="#36BDEE"/>
<stop offset="0.72" stop-color="#35C6F4"/>
</linearGradient>
<clipPath id="clip0_8504_12625">
<rect width="16" height="16" fill="white" transform="translate(0.598389 0.000244141)"/>
</clipPath>
</defs>
</svg>
