<svg width="15" height="16" viewBox="0 0 15 16" fill="none" xmlns="http://www.w3.org/2000/svg">
<g clip-path="url(#clip0_8504_12609)">
<path d="M11.136 6.00104V9.99921L14.5986 8.00379V3.99829L11.136 6.00104Z" fill="#9290B0"/>
<path d="M14.5986 12.002L11.136 9.99927V14.0048L14.5986 16.0002V12.002Z" fill="#A2EEE3"/>
<path d="M7.67332 3.99841V0.000244141L0.740723 3.99841L4.20335 6.00116L7.67332 3.99841Z" fill="#46DDC8"/>
<path d="M7.67332 12.002L4.20335 9.99927L0.740723 12.002L4.20335 14.0048L7.67332 16.0002V12.002Z" fill="#262261"/>
<path d="M0.740723 3.99829V8.00379V12.002L4.20335 9.99921V6.00104L0.740723 3.99829Z" fill="#9290B0"/>
<path d="M11.136 9.99927L7.67334 12.002V16.0002L11.136 14.0048V9.99927Z" fill="#46DDC8"/>
<path d="M11.136 6.00116L14.5986 3.99841L11.136 2.003L7.67334 0.000244141V3.99841L11.136 6.00116Z" fill="#262261"/>
</g>
<defs>
<clipPath id="clip0_8504_12609">
<rect width="13.8579" height="16" fill="white" transform="translate(0.740723 0.000244141)"/>
</clipPath>
</defs>
</svg>
