<svg width="17" height="16" viewBox="0 0 17 16" fill="none" xmlns="http://www.w3.org/2000/svg">
<g clip-path="url(#clip0_8504_12617)">
<path d="M8.59839 16.0002C13.0167 16.0002 16.5984 12.4185 16.5984 8.00024C16.5984 3.58197 13.0167 0.000244141 8.59839 0.000244141C4.18011 0.000244141 0.598389 3.58197 0.598389 8.00024C0.598389 12.4185 4.18011 16.0002 8.59839 16.0002Z" fill="#454545"/>
<path fill-rule="evenodd" clip-rule="evenodd" d="M6.34839 8.00024C6.34839 6.75974 7.35789 5.75024 8.59839 5.75024C9.83889 5.75024 10.8484 6.75974 10.8484 8.00024C10.8484 8.32674 10.7769 8.63624 10.6514 8.91674L9.16639 7.43174L8.03039 8.56824L9.51539 10.0532C9.22711 10.1831 8.91455 10.2502 8.59839 10.2502C8.00185 10.2496 7.42994 10.0123 7.00813 9.5905C6.58632 9.16869 6.34905 8.59678 6.34839 8.00024ZM12.2549 8.00024C12.2555 7.29402 12.0505 6.60289 11.6649 6.01124L13.0984 4.57724L12.0214 3.50024L10.5874 4.93424C10.0144 4.56174 9.33239 4.34374 8.59839 4.34374C7.86439 4.34374 7.18239 4.56174 6.60939 4.93374L5.17539 3.50024L4.09839 4.57724L5.53239 6.01124C5.15989 6.58424 4.94189 7.26624 4.94189 8.00024C4.94189 8.73424 5.16039 9.41624 5.53239 9.98924L4.09839 11.4232L5.17539 12.5002L6.60939 11.0662C7.18239 11.4387 7.86439 11.6567 8.59839 11.6567C9.33239 11.6567 10.0144 11.4387 10.5874 11.0662L12.0214 12.5002L13.0984 11.4232L11.6644 9.98924C12.0502 9.39767 12.2554 8.70652 12.2549 8.00024Z" fill="white"/>
</g>
<defs>
<clipPath id="clip0_8504_12617">
<rect width="16" height="16" fill="white" transform="translate(0.598389 0.000244141)"/>
</clipPath>
</defs>
</svg>
