<svg width="17" height="16" viewBox="0 0 17 16" fill="none" xmlns="http://www.w3.org/2000/svg">
<g clip-path="url(#clip0_8504_12687)">
<path d="M8.97144 16.0002C13.3897 16.0002 16.9714 12.4185 16.9714 8.00024C16.9714 3.58197 13.3897 0.000244141 8.97144 0.000244141C4.55316 0.000244141 0.971436 3.58197 0.971436 8.00024C0.971436 12.4185 4.55316 16.0002 8.97144 16.0002Z" fill="#3555F9"/>
<path d="M8.15147 3.31372C8.57647 3.23472 9.01147 3.24372 9.44147 3.26522C9.93747 3.32322 10.4345 3.42722 10.8905 3.63222C11.8012 4.01278 12.5731 4.66378 13.102 5.49722C13.2985 5.78372 13.4305 6.10472 13.563 6.42322C13.686 6.22722 13.796 6.02322 13.903 5.81822C13.949 5.72172 14.0455 5.64722 14.158 5.65222C14.2328 5.64638 14.307 5.66963 14.3651 5.71713C14.4232 5.76463 14.4608 5.83272 14.47 5.90722C14.4825 6.02722 14.407 6.13072 14.3575 6.23472C14.2015 6.54972 14 6.84072 13.7915 7.12472C13.753 7.16572 13.769 7.22272 13.7735 7.27272C14.0055 8.64122 13.564 10.0977 12.6235 11.1287C12.0813 11.7314 11.398 12.1901 10.635 12.4637C9.75597 12.7712 8.78797 12.8407 7.87897 12.6257C6.56097 12.3402 5.39497 11.4712 4.73197 10.3182C4.58697 10.0847 4.49447 9.82522 4.37997 9.57722C4.25497 9.76972 4.14897 9.97222 4.04247 10.1742C4.01745 10.2243 3.97979 10.2669 3.93323 10.298C3.88666 10.329 3.8328 10.3474 3.77697 10.3512C3.58647 10.3512 3.41347 10.1462 3.48997 9.96372C3.65397 9.58672 3.87847 9.23772 4.12997 8.91172C4.18397 8.85522 4.17647 8.77522 4.16647 8.70472C4.07308 8.10304 4.10028 7.48879 4.24647 6.89772C4.63147 5.23572 6.01147 3.84772 7.68397 3.41522C7.83897 3.37872 7.99397 3.34022 8.15147 3.31372ZM6.97047 4.31872C6.08397 4.78472 5.37047 5.56422 5.00047 6.48472C4.78647 7.04072 4.67747 7.63872 4.71047 8.23372C4.80436 8.16324 4.89386 8.0871 4.97847 8.00572C5.47597 7.56172 6.05847 7.21772 6.66747 6.94372C7.79897 6.42922 9.04497 6.20772 10.283 6.14772C9.86447 5.71372 9.41047 5.31322 8.99197 4.87922C9.12397 4.73422 9.26697 4.60022 9.40997 4.46622C9.57247 4.61322 9.72247 4.77272 9.88147 4.92322C10.3965 5.43572 10.927 5.93322 11.4335 6.45272C10.8935 6.99122 10.3395 7.51622 9.79947 8.05472C9.75395 8.09753 9.70622 8.13792 9.65647 8.17572C9.52047 8.03872 9.36247 7.91872 9.25347 7.75822C9.58547 7.41022 9.96347 7.10522 10.282 6.74472C9.71097 6.75272 9.14297 6.83372 8.58397 6.94472C8.13247 7.02522 7.69847 7.17772 7.26497 7.32322C6.35697 7.66322 5.51947 8.20522 4.88097 8.93022C4.84297 8.96772 4.84847 9.02322 4.85847 9.07022C4.93397 9.39422 5.07647 9.69722 5.23247 9.99022C5.74747 10.9187 6.63747 11.6362 7.65997 11.9602C8.25797 12.1442 8.89597 12.2152 9.51797 12.1287C10.3874 12.0195 11.2027 11.647 11.8545 11.0612C12.787 10.2392 13.31 8.98672 13.2295 7.75722C13.131 7.83372 13.043 7.92072 12.951 8.00372C12.3255 8.54179 11.6061 8.95979 10.829 9.23672C9.81897 9.61172 8.74297 9.80572 7.66547 9.83622C7.75947 9.95922 7.87547 10.0622 7.98497 10.1717C8.30747 10.4857 8.62547 10.8037 8.95297 11.1127C8.82697 11.2612 8.67997 11.3907 8.54097 11.5267C8.40147 11.4132 8.28097 11.2812 8.15097 11.1567C7.66397 10.6847 7.18197 10.2067 6.69597 9.73272C6.62867 9.67149 6.56678 9.60457 6.51097 9.53272C6.72147 9.30672 6.96347 9.11172 7.17897 8.89072C7.54897 8.53322 7.90897 8.16522 8.28347 7.81222C8.42347 7.94822 8.57047 8.07822 8.69497 8.22872C8.36197 8.57372 8.00747 8.89822 7.66997 9.23872C8.03997 9.25722 8.40497 9.19372 8.77197 9.15872C9.03697 9.13072 9.29747 9.07072 9.55897 9.01622C10.9015 8.70622 12.209 8.06872 13.11 7.01822C12.765 5.52622 11.4965 4.29822 9.98697 3.95122C8.98147 3.69572 7.88497 3.84122 6.97047 4.31872Z" fill="white"/>
</g>
<defs>
<clipPath id="clip0_8504_12687">
<rect width="16" height="16" fill="white" transform="translate(0.971436 0.000244141)"/>
</clipPath>
</defs>
</svg>
