<svg width="17" height="16" viewBox="0 0 17 16" fill="none" xmlns="http://www.w3.org/2000/svg">
<g clip-path="url(#clip0_8504_12675)">
<path d="M8.27026 16.0002C12.6885 16.0002 16.2703 12.4185 16.2703 8.00024C16.2703 3.58197 12.6885 0.000244141 8.27026 0.000244141C3.85199 0.000244141 0.270264 3.58197 0.270264 8.00024C0.270264 12.4185 3.85199 16.0002 8.27026 16.0002Z" fill="url(#paint0_linear_8504_12675)"/>
<path d="M4.77017 4.65024L5.62017 4.20024L5.72017 4.40024L8.82017 2.60024L8.62017 2.45024L8.37017 2.30024L8.27017 2.25024L3.17017 5.20024V5.30024L4.62017 4.50024L4.77017 4.65024ZM4.77017 6.55024L7.22017 5.10024L7.32017 5.30024L10.4702 3.50024L10.2202 3.35024L9.97017 3.25024L9.87017 3.20024L3.17017 7.05024V7.15024L4.62017 6.35024L4.77017 6.55024ZM4.77017 7.45024L8.02017 5.60024L8.12017 5.75024L11.2702 3.95024L11.0202 3.85024L10.7702 3.70024L10.6702 3.65024L3.17017 7.95024V8.10024L4.62017 7.25024L4.77017 7.45024ZM4.77017 8.35024L8.82017 6.05024L8.92017 6.20024L12.0702 4.45024L11.8202 4.30024L11.5702 4.15024L11.4702 4.10024L3.17017 8.90024V9.00024L4.62017 8.20024L4.77017 8.35024ZM4.77017 9.30024L9.62017 6.50024L9.72017 6.70024L12.8702 4.90024L12.6202 4.75024L12.4202 4.65024L12.2702 4.55024L3.17017 9.80024V9.95024L4.62017 9.10024L4.77017 9.30024ZM13.1702 5.10024L13.0702 5.00024L3.17017 10.7502V10.8502L4.62017 10.0502L4.77017 10.2502L9.62017 7.40024L9.72017 7.60024L13.3702 5.55024V5.20024L13.1702 5.10024ZM3.82017 11.4502L4.62017 10.9502L4.72017 11.1502L9.62017 8.35024L9.72017 8.55024L13.3702 6.45024V5.80024L3.67017 11.3502L3.82017 11.4502ZM9.62017 9.30024L9.72017 9.50024L13.3702 7.35024V6.70024L4.47017 11.8502L4.62017 11.9002L5.42017 11.4002L5.57017 11.6002L9.62017 9.30024ZM5.42017 12.3502L6.27017 11.9002L6.37017 12.1002L9.62017 10.2002L9.72017 10.4002L13.3702 8.30024V7.65024L5.27017 12.3002L5.42017 12.3502ZM6.22017 12.8002L7.07017 12.3502L7.17017 12.5502L9.62017 11.1502L9.72017 11.3502L13.3702 9.25024V8.55024L6.07017 12.7502L6.22017 12.8002ZM6.87017 13.2002L7.02017 13.3002L7.87017 12.8002L7.97017 13.0002L9.62017 12.0502L9.72017 12.2502L13.3702 10.1502V9.50024L6.87017 13.2002ZM7.82017 13.7502L8.62017 13.2502L8.77017 13.4502L9.62017 13.0002L9.72017 13.2002L13.3702 11.1002V10.4002L7.72017 13.7002L7.82017 13.7502ZM9.67017 3.05024L9.42017 2.90024L9.17017 2.80024L9.07017 2.70024L3.17017 6.10024V6.25024L4.62017 5.40024L4.77017 5.60024L6.42017 4.65024L6.52017 4.85024L9.67017 3.05024Z" fill="white"/>
</g>
<defs>
<linearGradient id="paint0_linear_8504_12675" x1="0.270264" y1="8.00024" x2="16.2703" y2="8.00024" gradientUnits="userSpaceOnUse">
<stop stop-color="#001C3A"/>
<stop offset="0.6" stop-color="#001E3D"/>
<stop offset="0.7" stop-color="#001F3F"/>
<stop offset="1" stop-color="#002042"/>
</linearGradient>
<clipPath id="clip0_8504_12675">
<rect width="16" height="16" fill="white" transform="translate(0.270264 0.000244141)"/>
</clipPath>
</defs>
</svg>
