<svg width="17" height="16" viewBox="0 0 17 16" fill="none" xmlns="http://www.w3.org/2000/svg">
<g clip-path="url(#clip0_8504_10395)">
<path d="M8.98291 16C13.4012 16 16.9829 12.4183 16.9829 8C16.9829 3.58172 13.4012 0 8.98291 0C4.56463 0 0.98291 3.58172 0.98291 8C0.98291 12.4183 4.56463 16 8.98291 16Z" fill="#0E0E21"/>
<path d="M13.4494 9.86682L12.4994 8.25015C12.466 8.18348 12.3827 8.16682 12.3327 8.21682L11.716 8.61682C11.666 8.65015 11.6494 8.73348 11.6827 8.78348L12.2327 9.70015C12.2494 9.73348 12.2327 9.76682 12.216 9.78348L9.01603 11.8501C8.99936 11.8668 8.96603 11.8668 8.94936 11.8501L5.78269 9.78348C5.74936 9.76682 5.74936 9.73348 5.76603 9.70015L6.31603 8.78348C6.34936 8.73348 6.33269 8.65015 6.28269 8.61682L5.66603 8.21682C5.59936 8.18348 5.53269 8.20015 5.49936 8.25015L4.54936 9.86682C4.48269 9.98348 4.51603 10.1335 4.63269 10.2002L8.88269 12.9668C8.96603 13.0168 9.06603 13.0168 9.14936 12.9668L13.3994 10.2002C13.4827 10.1168 13.516 9.96682 13.4494 9.86682Z" fill="white"/>
<path d="M6.13319 7.35L6.74986 7.75C6.81653 7.78333 6.88319 7.76666 6.91653 7.71666L8.91653 4.31667C8.93319 4.28333 8.99986 4.28333 9.01653 4.31667L11.0165 7.71666C11.0499 7.78333 11.1332 7.8 11.1832 7.75L11.7999 7.35C11.8499 7.31667 11.8665 7.23333 11.8332 7.18333L9.4832 3.11667C9.4332 3.03333 9.36653 3 9.26653 3H8.69986C8.61653 3 8.5332 3.05 8.4832 3.11667L6.09986 7.18333C6.06653 7.23333 6.08319 7.31667 6.13319 7.35Z" fill="#2AE7A8"/>
</g>
<defs>
<clipPath id="clip0_8504_10395">
<rect width="16" height="16" fill="white" transform="translate(0.98291)"/>
</clipPath>
</defs>
</svg>
