<svg width="15" height="16" viewBox="0 0 15 16" fill="none" xmlns="http://www.w3.org/2000/svg">
<g clip-path="url(#clip0_8504_12679)">
<path d="M10.2054 8.99041L14.2201 4.98814C14.3693 4.83955 14.4876 4.66288 14.5681 4.46834C14.6486 4.2738 14.6899 4.06523 14.6894 3.85468L14.6962 0.619768C14.6958 0.453816 14.6317 0.294349 14.5171 0.174316L6.81521 7.85921C6.66552 8.00759 6.5467 8.18414 6.46561 8.37869C6.38452 8.57323 6.34277 8.78191 6.34277 8.99268C6.34277 9.20345 6.38452 9.41212 6.46561 9.60667C6.5467 9.80121 6.66552 9.97777 6.81521 10.1261L12.2456 15.5396C12.3945 15.6877 12.571 15.805 12.7652 15.8849C12.9594 15.9648 13.1675 16.0056 13.3774 16.0051C13.5874 16.0045 13.7952 15.9627 13.989 15.8818C14.1828 15.801 14.3588 15.6828 14.5069 15.5339C14.655 15.3851 14.7723 15.2085 14.8522 15.0143C14.9321 14.8201 14.9729 14.6121 14.9724 14.4021C14.9719 14.1921 14.93 13.9843 14.8491 13.7905C14.7683 13.5967 14.6501 13.4207 14.5012 13.2726L10.2054 8.99041Z" fill="#008C62"/>
<path d="M14.0681 0.000885192H1.97059C0.992413 0.000885192 0.270395 0.739905 0.270395 1.74869V14.3698C0.267651 14.5843 0.307886 14.7971 0.388726 14.9958C0.469566 15.1944 0.589374 15.3749 0.741081 15.5265C0.892788 15.6781 1.07332 15.7978 1.27203 15.8785C1.47074 15.9592 1.6836 15.9992 1.89805 15.9964C2.11266 16 2.32582 15.9605 2.52483 15.88C2.72383 15.7996 2.9046 15.6799 3.05638 15.5282C3.20816 15.3764 3.32783 15.1956 3.40827 14.9966C3.4887 14.7976 3.52826 14.5844 3.52457 14.3698V3.11452H11.5722L14.5192 0.18224C14.4602 0.123067 14.3898 0.0764855 14.3122 0.0453133C14.2347 0.014141 14.1516 -0.000973255 14.0681 0.000885192Z" fill="#00E6A0"/>
</g>
<defs>
<clipPath id="clip0_8504_12679">
<rect width="14.701" height="16" fill="white" transform="translate(0.270264 0.000244141)"/>
</clipPath>
</defs>
</svg>
