<svg width="17" height="16" viewBox="0 0 17 16" fill="none" xmlns="http://www.w3.org/2000/svg">
<g clip-path="url(#clip0_8504_12699)">
<path d="M8.11377 16.0002C12.532 16.0002 16.1138 12.4185 16.1138 8.00024C16.1138 3.58197 12.532 0.000244141 8.11377 0.000244141C3.69549 0.000244141 0.11377 3.58197 0.11377 8.00024C0.11377 12.4185 3.69549 16.0002 8.11377 16.0002Z" fill="#FFD800"/>
<path fill-rule="evenodd" clip-rule="evenodd" d="M11.9553 6.44324C11.9838 6.41474 12.0403 6.41474 12.0958 6.41474C12.9393 6.41474 13.6138 7.12874 13.6138 7.98624C13.6138 8.78624 13.0238 9.41474 12.2648 9.55724H12.0958C11.8148 9.55724 11.5338 9.47174 11.2808 9.32874C11.1987 9.27092 11.1002 9.24096 10.9998 9.24324C10.8873 9.24324 10.7748 9.27174 10.6908 9.32874C10.4938 9.44324 10.4098 9.64324 10.4098 9.87174V10.1287C10.3801 10.4817 10.2297 10.8137 9.98393 11.0687C9.73811 11.3237 9.4119 11.4862 9.06027 11.5287H8.89177C8.61077 11.5287 8.32977 11.4432 8.07677 11.3002C7.96427 11.2432 7.88027 11.2147 7.76777 11.2147C7.65527 11.2147 7.54277 11.2432 7.45827 11.3002C7.26177 11.4147 7.17727 11.6147 7.17727 11.8432V12.1002C7.12127 12.8432 6.53077 13.4147 5.80027 13.5002H5.65977C4.81627 13.5002 4.14177 12.7857 4.14177 11.9287C4.16977 11.1287 4.73177 10.4717 5.49077 10.3857H5.65977C5.94077 10.3857 6.22177 10.4717 6.47477 10.6147C6.55688 10.6726 6.65537 10.7025 6.75577 10.7002C6.86827 10.7002 6.98077 10.6717 7.06477 10.6147C7.26177 10.5002 7.34577 10.3002 7.34577 10.0717C7.28977 9.24324 7.88027 8.50024 8.69527 8.41474H8.86377C9.14477 8.41474 9.42577 8.50024 9.67877 8.64324C9.79127 8.70024 9.87577 8.72874 9.98827 8.72874C10.1003 8.72874 10.2133 8.70024 10.2973 8.64324C10.4938 8.52874 10.5783 8.32874 10.5783 8.10024C10.5223 7.27174 11.1403 6.52874 11.9553 6.44324ZM8.72377 4.47174C8.77977 4.44324 8.80827 4.44324 8.89227 4.44324C9.73577 4.44324 10.4103 5.15724 10.4103 6.01474C10.3823 6.81474 9.82027 7.47174 9.06077 7.55724H8.89227C8.61127 7.55724 8.33027 7.47174 8.07727 7.32874C7.99516 7.27092 7.89667 7.24096 7.79627 7.24324C7.68377 7.24324 7.57127 7.27174 7.48727 7.32874C7.29027 7.44324 7.20577 7.64324 7.20577 7.87174V8.12874C7.14977 8.87124 6.55977 9.44274 5.82877 9.52874H5.68827C4.84527 9.52874 4.17027 8.81474 4.17027 7.95724C4.17027 7.18624 4.73277 6.55724 5.49127 6.44324H5.66027C5.94127 6.44324 6.22227 6.52874 6.47527 6.67174C6.55738 6.72956 6.65587 6.75953 6.75627 6.75724C6.86877 6.75724 6.98127 6.72874 7.06527 6.67174C7.26227 6.55724 7.34627 6.35724 7.34627 6.12874C7.29027 5.30024 7.90877 4.55724 8.72377 4.47174ZM5.63177 2.50024C6.46977 2.50024 7.14927 3.19124 7.14927 4.04324C7.14927 4.89524 6.46927 5.58574 5.63177 5.58574C4.79327 5.58574 4.11377 4.89524 4.11377 4.04324C4.11377 3.19124 4.79377 2.50024 5.63177 2.50024Z" fill="white"/>
</g>
<defs>
<clipPath id="clip0_8504_12699">
<rect width="16" height="16" fill="white" transform="translate(0.11377 0.000244141)"/>
</clipPath>
</defs>
</svg>
