<svg width="17" height="16" viewBox="0 0 17 16" fill="none" xmlns="http://www.w3.org/2000/svg">
<g clip-path="url(#clip0_8504_12756)">
<path d="M8.20577 15.8693C12.5516 15.8693 16.0746 12.3463 16.0746 8.00044C16.0746 3.6546 12.5516 0.131592 8.20577 0.131592C3.85992 0.131592 0.336914 3.6546 0.336914 8.00044C0.336914 12.3463 3.85992 15.8693 8.20577 15.8693Z" fill="white" stroke="#FFCE45" stroke-width="10.3" stroke-miterlimit="10"/>
<path d="M8.20577 1.84155L14.2336 7.86932L8.20577 13.8971L2.17798 7.86932L8.20577 1.84155Z" fill="#FFCE45"/>
<path d="M8.20588 9.83646L2.1731 7.86925L8.20588 1.84155L14.2387 7.86925L8.20588 9.83646Z" fill="#FEBE44"/>
<path d="M4.27124 7.47583H7.02534L8.20567 6.16436L9.51714 7.47583H12.2712L8.20567 3.08252L4.27124 7.47583Z" fill="white"/>
<path opacity="0.42" d="M8.20581 13.8969V1.84155L14.2335 7.86925L8.20581 13.8969Z" fill="#D9A547"/>
</g>
<defs>
<clipPath id="clip0_8504_12756">
<rect width="16" height="16" fill="white" transform="translate(0.205811 0.000244141)"/>
</clipPath>
</defs>
</svg>
