<svg width="17" height="16" viewBox="0 0 17 16" fill="none" xmlns="http://www.w3.org/2000/svg">
<g clip-path="url(#clip0_8504_12748)">
<path d="M10.6074 7.99942V10.3992H8.20567C7.73104 10.3992 7.26707 10.2584 6.87243 9.99475C6.4778 9.73107 6.17021 9.35627 5.98858 8.91777C5.80695 8.47927 5.75943 7.99676 5.85202 7.53125C5.94462 7.06574 6.17317 6.63814 6.50878 6.30253C6.8444 5.96692 7.27199 5.73836 7.7375 5.64577C8.20301 5.55317 8.68552 5.60069 9.12402 5.78233C9.56251 5.96396 9.9373 6.27154 10.201 6.66618C10.4647 7.06082 10.6054 7.52479 10.6054 7.99942H10.6074ZM8.23735 3.99981C7.71211 3.98421 7.18895 4.07221 6.69773 4.2588C6.2065 4.44539 5.75684 4.7269 5.37441 5.08727C4.99198 5.44763 4.68428 5.8798 4.46887 6.35908C4.25345 6.83836 4.13455 7.35539 4.11895 7.88062C4.10335 8.40586 4.19136 8.92902 4.37794 9.42025C4.56453 9.91148 4.84604 10.3611 5.2064 10.7436C5.56677 11.126 5.99893 11.4337 6.47821 11.6491C6.9575 11.8645 7.47451 11.9834 7.99975 11.999H12.2053V8.04694C12.2053 5.84122 10.4431 4.01565 8.23735 3.99981Z" fill="#20EE82"/>
<path d="M13.8621 2.34358C12.5585 1.03989 10.8446 0.226521 9.01032 0.0410721C7.17603 -0.144377 5.33399 0.309476 3.79582 1.32585C3.88582 1.42537 3.96299 1.5358 4.0255 1.65453C5.48724 0.695069 7.23476 0.268152 8.97424 0.445561C10.7137 0.622971 12.3391 1.39389 13.577 2.6287C16.5391 5.58682 16.5391 10.4061 13.577 13.3682C10.6149 16.3303 5.79562 16.3303 2.83354 13.3682C1.59934 12.1298 0.829159 10.5042 0.652472 8.76473C0.475785 7.02526 0.903367 5.278 1.86333 3.8167C1.74451 3.75433 1.63407 3.67716 1.53465 3.58702C-0.902728 7.26982 0.109053 12.2345 3.79186 14.6719C7.47466 17.1092 12.4393 16.0975 14.8767 12.4147C15.8947 10.8764 16.3498 9.03357 16.1649 7.19824C15.98 5.36291 15.1665 3.64788 13.8621 2.34358Z" fill="#7F8C8D"/>
<path d="M2.04595 1.83645C2.15756 1.72432 2.2999 1.6478 2.45499 1.61657C2.61008 1.58534 2.77095 1.6008 2.91725 1.66099C3.06355 1.72118 3.18873 1.8234 3.27694 1.95473C3.36515 2.08606 3.41244 2.24059 3.41282 2.39879C3.41321 2.557 3.36668 2.71176 3.27911 2.84352C3.19155 2.97528 3.06688 3.07811 2.92087 3.13902C2.77486 3.19992 2.61407 3.21617 2.45883 3.1857C2.30359 3.15523 2.16088 3.07941 2.04873 2.96783L2.04595 2.96505C1.89675 2.81515 1.81299 2.61226 1.81299 2.40075C1.81299 2.18925 1.89675 1.98636 2.04595 1.83645Z" fill="#20EE82"/>
</g>
<defs>
<clipPath id="clip0_8504_12748">
<rect width="15.9996" height="16" fill="white" transform="translate(0.206299 0.000244141)"/>
</clipPath>
</defs>
</svg>
