<svg width="17" height="16" viewBox="0 0 17 16" fill="none" xmlns="http://www.w3.org/2000/svg">
<g clip-path="url(#clip0_8504_12742)">
<path d="M15.96 9.93567C15.5762 11.468 14.7468 12.8522 13.5767 13.9133C12.4065 14.9745 10.9481 15.6649 9.38561 15.8975C7.82316 16.13 6.22685 15.8942 4.79838 15.2198C3.36991 14.5454 2.1734 13.4627 1.36004 12.1086C0.546677 10.7544 0.152968 9.18955 0.228664 7.61171C0.304359 6.03387 0.846061 4.51387 1.78532 3.24379C2.72457 1.97371 4.01923 1.01054 5.5057 0.476001C6.99216 -0.0585399 8.60372 -0.140466 10.1367 0.240574C11.158 0.490811 12.1195 0.9408 12.9659 1.56457C13.8123 2.18835 14.5268 2.97356 15.0682 3.8749C15.6096 4.77625 15.9671 5.77587 16.1202 6.81611C16.2733 7.85634 16.2188 8.91659 15.96 9.93567Z" fill="#EC672F"/>
<path d="M5.02582 7.36466H7.89098V9.62582C7.67188 9.69771 7.48082 9.83649 7.34469 10.0226C7.20856 10.2088 7.13421 10.4329 7.1321 10.6635C7.1321 10.951 7.24632 11.2267 7.44963 11.4301C7.65295 11.6334 7.92869 11.7476 8.21622 11.7476C8.50375 11.7476 8.77949 11.6334 8.98281 11.4301C9.18612 11.2267 9.30034 10.951 9.30034 10.6635C9.2991 10.4348 9.22692 10.2122 9.09376 10.0264C8.9606 9.84048 8.77303 9.70053 8.55694 9.62582V7.36466H11.3911C11.4362 7.36426 11.4793 7.34618 11.5111 7.31432C11.543 7.28246 11.5611 7.23936 11.5615 7.1943V6.82261C11.5611 6.77755 11.543 6.73445 11.5111 6.70259C11.4793 6.67073 11.4362 6.65265 11.3911 6.65225H8.4795V2.70297H11.3911C11.4362 2.70256 11.4793 2.68448 11.5111 2.65262C11.543 2.62076 11.5611 2.57766 11.5615 2.53261V2.16865C11.5611 2.12359 11.543 2.0805 11.5111 2.04864C11.4793 2.01677 11.4362 1.9987 11.3911 1.99829H5.02582C4.98212 2.00066 4.94097 2.0196 4.91076 2.05125C4.88054 2.08291 4.86353 2.12489 4.8632 2.16865V2.54035C4.86361 2.58541 4.88169 2.6285 4.91355 2.66037C4.94541 2.69223 4.98851 2.71031 5.03357 2.71071H7.85227V6.65999H5.02582C4.98076 6.66039 4.93767 6.67847 4.9058 6.71033C4.87394 6.74219 4.85586 6.78529 4.85546 6.83035V7.20205C4.85423 7.2244 4.85785 7.24675 4.86609 7.26757C4.87432 7.28838 4.88697 7.30716 4.90316 7.32262C4.91935 7.33808 4.9387 7.34984 4.95988 7.3571C4.98105 7.36435 5.00355 7.36694 5.02582 7.36466ZM8.73505 10.6867C8.73505 10.7878 8.70507 10.8866 8.64891 10.9706C8.59276 11.0547 8.51293 11.1202 8.41955 11.1589C8.32616 11.1976 8.2234 11.2077 8.12426 11.188C8.02512 11.1682 7.93405 11.1196 7.86257 11.0481C7.7911 10.9766 7.74242 10.8856 7.7227 10.7864C7.70298 10.6873 7.7131 10.5845 7.75178 10.4911C7.79047 10.3977 7.85597 10.3179 7.94002 10.2618C8.02407 10.2056 8.12288 10.1756 8.22396 10.1756C8.29125 10.175 8.35799 10.1878 8.42028 10.2133C8.48257 10.2387 8.53915 10.2763 8.58674 10.3239C8.63432 10.3715 8.67194 10.4281 8.69741 10.4904C8.72287 10.5527 8.73567 10.6194 8.73505 10.6867Z" fill="white"/>
<path d="M10.7098 8.26307L10.6944 8.24758C10.6734 8.22787 10.6457 8.2169 10.6169 8.2169C10.5881 8.2169 10.5604 8.22787 10.5395 8.24758L10.2607 8.52635C10.2471 8.53794 10.236 8.55214 10.228 8.5681C10.2201 8.58406 10.2154 8.60147 10.2142 8.61928C10.2119 8.64111 10.2174 8.66306 10.2297 8.68123C10.2297 8.68534 10.2314 8.68928 10.2343 8.69218C10.2372 8.69508 10.2411 8.69672 10.2452 8.69672L10.2607 8.7122C10.7222 9.23429 10.9805 9.90491 10.9886 10.6017C10.9886 11.3369 10.6965 12.042 10.1766 12.5619C9.65675 13.0818 8.95162 13.3739 8.21637 13.3739C7.48113 13.3739 6.776 13.0818 6.2561 12.5619C5.73621 12.042 5.44413 11.3369 5.44413 10.6017C5.44413 9.88924 5.73839 9.26975 6.17204 8.7122L6.18753 8.69672C6.18753 8.69261 6.18916 8.68867 6.19206 8.68576C6.19497 8.68286 6.19891 8.68123 6.20302 8.68123C6.2185 8.66574 6.2185 8.65025 6.2185 8.61928C6.21902 8.60116 6.21504 8.5832 6.20694 8.56698C6.19883 8.55077 6.18684 8.53681 6.17204 8.52635L5.89327 8.24758C5.87248 8.22752 5.84472 8.21631 5.81583 8.21631C5.78694 8.21631 5.75918 8.22752 5.73839 8.24758L5.72291 8.26307C5.40278 8.56473 5.14924 8.92997 4.97855 9.33537C4.80785 9.74076 4.72378 10.1774 4.73172 10.6171C4.73007 11.5433 5.09618 12.4322 5.74959 13.0885C6.403 13.7448 7.29026 14.1148 8.21637 14.1173C9.14249 14.1148 10.0297 13.7448 10.6832 13.0885C11.3366 12.4322 11.7027 11.5433 11.701 10.6171C11.709 10.1774 11.6249 9.74076 11.4542 9.33537C11.2835 8.92997 11.03 8.56473 10.7098 8.26307Z" fill="white"/>
</g>
<defs>
<clipPath id="clip0_8504_12742">
<rect width="15.9892" height="16" fill="white" transform="translate(0.217041 0.000244141)"/>
</clipPath>
</defs>
</svg>
