<svg width="17" height="16" viewBox="0 0 17 16" fill="none" xmlns="http://www.w3.org/2000/svg">
<g clip-path="url(#clip0_8504_12762)">
<path d="M8.20581 16.0002C12.6241 16.0002 16.2058 12.4185 16.2058 8.00024C16.2058 3.58197 12.6241 0.000244141 8.20581 0.000244141C3.78753 0.000244141 0.205811 3.58197 0.205811 8.00024C0.205811 12.4185 3.78753 16.0002 8.20581 16.0002Z" fill="#B30D23"/>
<path d="M8.66231 10.6172L8.19631 11.4852L7.73031 10.6172C4.91531 10.3987 2.70581 8.29974 2.70581 8.29974C2.70581 8.29474 4.85281 6.26074 7.61031 5.99274L7.97531 5.36774L8.19631 5.00024L8.57131 5.62524L8.78231 5.99274C11.5393 6.25574 13.6868 8.29974 13.6868 8.29974C13.6868 8.29974 11.4768 10.3987 8.66181 10.6172H8.66231ZM3.17181 8.29974C3.16681 8.29974 5.29481 9.75374 7.43231 10.0612L6.39031 8.11124L6.67331 7.62024L6.93331 8.10624L6.92831 8.11124L7.94181 10.1062C8.02331 10.1112 8.10481 10.1112 8.18681 10.1112C8.26831 10.1112 8.34531 10.1112 8.42681 10.1062L9.17131 8.62224L9.71431 7.61024L9.99731 8.10124L8.95531 10.0562C11.0928 9.75374 13.2203 8.33474 13.2203 8.29474C13.2203 8.25974 11.1938 6.90574 9.10881 6.55824L9.42581 7.10924L9.16181 7.63974L8.47481 6.48874C8.38208 6.48294 8.28922 6.4796 8.19631 6.47874C8.10481 6.47874 8.00881 6.48374 7.91281 6.48874L7.21131 7.63974L6.95231 7.13374L7.28331 6.56324C5.19881 6.91574 3.17181 8.29974 3.17181 8.29974Z" fill="white"/>
</g>
<defs>
<clipPath id="clip0_8504_12762">
<rect width="16" height="16" fill="white" transform="translate(0.205811 0.000244141)"/>
</clipPath>
</defs>
</svg>
