<svg width="17" height="16" viewBox="0 0 17 16" fill="none" xmlns="http://www.w3.org/2000/svg">
<g clip-path="url(#clip0_8504_12790)">
<path d="M8.48242 16.0002C12.9007 16.0002 16.4824 12.4185 16.4824 8.00024C16.4824 3.58197 12.9007 0.000244141 8.48242 0.000244141C4.06414 0.000244141 0.482422 3.58197 0.482422 8.00024C0.482422 12.4185 4.06414 16.0002 8.48242 16.0002Z" fill="#0B1C26"/>
<path d="M8.48242 13.5002C5.44842 13.4912 2.98242 11.0287 2.98242 8.00024C2.98242 4.97174 5.44842 2.50924 8.48242 2.50024C11.5164 2.50924 13.9824 4.97174 13.9824 8.00024C13.9824 11.0287 11.5164 13.4942 8.48242 13.5002ZM13.3599 8.87524C13.3019 9.00912 13.1936 9.1149 13.0585 9.16987C12.9233 9.22483 12.7719 9.22461 12.6369 9.16924C12.8314 9.37224 12.9529 9.64474 12.9529 9.94424C12.9529 10.0322 12.9409 10.1142 12.9229 10.1962C13.1289 9.77824 13.2764 9.33374 13.3599 8.87574V8.87524ZM12.8499 8.93024C12.9231 8.93038 12.9934 8.90143 13.0452 8.84976C13.0971 8.79809 13.1263 8.72794 13.1264 8.65474C13.1266 8.58154 13.0976 8.51129 13.0459 8.45944C12.9943 8.40758 12.9241 8.37838 12.8509 8.37824C12.8147 8.37815 12.7788 8.38519 12.7452 8.39897C12.7117 8.41275 12.6812 8.43299 12.6555 8.45855C12.6036 8.51017 12.5744 8.58029 12.5742 8.65349C12.574 8.72669 12.6029 8.79697 12.6545 8.84888C12.7061 8.90078 12.7762 8.93005 12.8494 8.93024H12.8499ZM12.9739 5.91674C13.1101 6.29787 13.1437 6.70811 13.0712 7.10629C12.9987 7.50447 12.8227 7.87658 12.5609 8.18524C12.6472 8.13285 12.746 8.10453 12.8469 8.10324C13.1354 8.10324 13.3719 8.32424 13.3964 8.60924C13.4209 8.40924 13.4359 8.20924 13.4359 8.00324C13.4393 7.28201 13.2815 6.56913 12.9739 5.91674ZM12.6919 6.68874C12.6907 6.18212 12.4886 5.69668 12.1298 5.33896C11.7711 4.98124 11.285 4.78048 10.7784 4.78074C10.2718 4.78048 9.78577 4.98124 9.42702 5.33896C9.06827 5.69668 8.86611 6.18212 8.86492 6.68874C8.86611 7.19536 9.06827 7.68081 9.42702 8.03853C9.78577 8.39625 10.2718 8.59701 10.7784 8.59674C11.2849 8.59648 11.7706 8.39555 12.1292 8.03795C12.4879 7.68034 12.6902 7.1952 12.6919 6.68874ZM10.7024 9.94524C10.7024 9.53024 10.9324 9.14874 11.3009 8.95524C10.8341 9.06369 10.3452 9.02545 9.90092 8.84574C10.2787 9.13538 10.5585 9.534 10.7024 9.98774C10.7054 9.96924 10.7024 9.95724 10.7024 9.94524ZM10.8119 10.6842C10.8113 10.8679 10.7888 11.0509 10.7449 11.2292C10.8359 11.0477 11.0214 10.9327 11.2249 10.9327C11.2535 10.9326 11.282 10.9356 11.3099 10.9417C11.076 10.8215 10.8912 10.6235 10.7874 10.3817C10.8034 10.4817 10.8114 10.5827 10.8119 10.6842ZM11.8259 10.6507C12.0136 10.651 12.1938 10.5769 12.327 10.4447C12.4603 10.3125 12.5357 10.1329 12.5369 9.94524C12.5369 9.55474 12.2179 9.23974 11.8259 9.23974C11.4339 9.23974 11.1184 9.55774 11.1184 9.94474C11.1184 10.3357 11.4374 10.6507 11.8264 10.6507H11.8259ZM12.2934 8.65824C12.2944 8.56474 12.3184 8.47324 12.3634 8.39124C12.1616 8.57762 11.9294 8.72812 11.6769 8.83624C11.7259 8.83074 11.7744 8.82474 11.8259 8.82474C12.028 8.82426 12.2264 8.8787 12.3999 8.98224C12.3307 8.88822 12.2936 8.77447 12.2939 8.65774L12.2934 8.65824ZM8.48192 8.35824C8.78192 8.35824 9.07892 8.41574 9.35692 8.52774C8.89009 8.17016 8.57717 7.64803 8.48192 7.06774C8.38627 7.64776 8.07365 8.1697 7.60742 8.52774C7.88587 8.41679 8.18268 8.35912 8.48242 8.35774L8.48192 8.35824ZM8.48192 5.27174C8.27026 5.27217 8.06284 5.21234 7.88392 5.09924C8.19916 5.43202 8.4076 5.85151 8.48242 6.30374C8.55909 5.85196 8.76727 5.43282 9.08092 5.09874C8.90186 5.21193 8.69426 5.27177 8.48242 5.27124L8.48192 5.27174ZM9.61792 4.13924C9.61792 4.39274 9.53242 4.63924 9.37492 4.83924C9.61102 4.66058 9.8792 4.52887 10.1649 4.45124C10.1524 4.45124 10.1434 4.45424 10.1344 4.45424C9.90042 4.45424 9.69942 4.30924 9.61792 4.10274C9.61542 4.11474 9.61792 4.12724 9.61792 4.13924ZM10.4804 3.47024C10.6054 3.57324 10.6869 3.72424 10.6869 3.89724C10.6869 4.11624 10.5569 4.31474 10.3559 4.40274C10.7587 4.32856 11.174 4.36173 11.5599 4.49891C11.9458 4.6361 12.2888 4.87246 12.5544 5.18424C12.0322 4.43469 11.3152 3.84189 10.4809 3.46974L10.4804 3.47024ZM10.1314 3.62474C10.0952 3.62465 10.0593 3.63169 10.0257 3.64547C9.99222 3.65925 9.96174 3.67949 9.93604 3.70505C9.91034 3.73061 9.88993 3.76098 9.87597 3.79443C9.86201 3.82788 9.85477 3.86375 9.85467 3.89999C9.85457 3.93624 9.86161 3.97215 9.87539 4.00567C9.88917 4.0392 9.90942 4.06968 9.93498 4.09538C9.96054 4.12107 9.99091 4.14149 10.0244 4.15545C10.0578 4.16941 10.0937 4.17665 10.1299 4.17674C10.2032 4.17694 10.2735 4.14803 10.3255 4.09636C10.3774 4.0447 10.4067 3.97451 10.4069 3.90124C10.4071 3.82798 10.3782 3.75763 10.3265 3.70569C10.2749 3.65374 10.2047 3.62444 10.1314 3.62424V3.62474ZM8.82542 3.05824C9.00823 3.11627 9.17329 3.2198 9.30509 3.35913C9.4369 3.49846 9.53113 3.669 9.57892 3.85474C9.58914 3.71577 9.65149 3.58579 9.75348 3.49085C9.85547 3.3959 9.98958 3.343 10.1289 3.34274C10.1471 3.34328 10.1651 3.34529 10.1829 3.34874C9.74606 3.18952 9.28919 3.09175 8.82542 3.05824ZM7.76542 4.13924C7.77036 4.32606 7.84804 4.50357 7.98191 4.63396C8.11579 4.76435 8.29529 4.83731 8.48217 4.83731C8.66905 4.83731 8.84855 4.76435 8.98243 4.63396C9.11631 4.50357 9.19399 4.32606 9.19892 4.13924C9.19199 3.95385 9.11347 3.77836 8.97986 3.64964C8.84625 3.52093 8.66795 3.44902 8.48242 3.44902C8.2969 3.44902 8.11859 3.52093 7.98498 3.64964C7.85137 3.77836 7.77285 3.95385 7.76592 4.13924H7.76542ZM6.77892 3.34874C6.79689 3.34526 6.81512 3.34325 6.83342 3.34274C6.97294 3.34241 7.10737 3.39511 7.20949 3.49018C7.31161 3.58524 7.37378 3.71556 7.38342 3.85474C7.43117 3.66906 7.52532 3.49855 7.65704 3.35923C7.78875 3.21991 7.95371 3.11634 8.13642 3.05824C7.66242 3.09424 7.20642 3.19124 6.77892 3.34874ZM7.34642 4.13924C7.3459 4.127 7.3469 4.11474 7.34942 4.10274C7.30848 4.20625 7.23741 4.29509 7.14542 4.35776C7.05342 4.42043 6.94473 4.45404 6.83342 4.45424C6.82092 4.45424 6.81192 4.45124 6.80292 4.45124C7.08792 4.52924 7.35642 4.66124 7.59292 4.83874C7.43334 4.64054 7.34636 4.39371 7.34642 4.13924ZM6.55692 3.89974C6.55695 3.93599 6.56413 3.97187 6.57803 4.00535C6.59193 4.03882 6.61228 4.06923 6.63794 4.09483C6.66359 4.12044 6.69403 4.14074 6.72753 4.15458C6.76103 4.16842 6.79693 4.17553 6.83317 4.17549C6.86942 4.17546 6.9053 4.16829 6.93877 4.15439C6.97225 4.14049 7.00265 4.12013 7.02826 4.09448C7.05387 4.06883 7.07417 4.03838 7.08801 4.00488C7.10185 3.97139 7.10895 3.93549 7.10892 3.89924C7.10886 3.82604 7.07971 3.75587 7.02791 3.70416C6.9761 3.65244 6.90587 3.62343 6.83267 3.62349C6.75947 3.62356 6.6893 3.6527 6.63758 3.70451C6.58587 3.75632 6.55686 3.82654 6.55692 3.89974ZM4.40992 5.18724C4.67492 4.87469 5.01786 4.63777 5.40396 4.50052C5.79007 4.36327 6.2056 4.33057 6.60842 4.40574C6.52166 4.36791 6.44613 4.30832 6.38914 4.23275C6.33215 4.15717 6.29563 4.06817 6.28311 3.97435C6.27059 3.88053 6.2825 3.78506 6.31768 3.69719C6.35286 3.60931 6.41012 3.53201 6.48392 3.47274C5.64819 3.84283 4.9306 4.43604 4.40992 5.18724ZM4.27292 6.68924C4.27411 7.19586 4.47627 7.68131 4.83502 8.03903C5.19377 8.39675 5.6798 8.59751 6.18642 8.59724C6.69304 8.59751 7.17907 8.39675 7.53782 8.03903C7.89657 7.68131 8.09873 7.19586 8.09992 6.68924C8.09873 6.18262 7.89657 5.69718 7.53782 5.33946C7.17907 4.98174 6.69304 4.78098 6.18642 4.78124C5.13242 4.78424 4.27292 5.63824 4.27292 6.68924ZM6.26242 9.94524C6.26242 9.95724 6.25942 9.97274 6.25942 9.98474C6.40419 9.5314 6.6838 9.13301 7.06092 8.84274C6.61659 9.02228 6.12769 9.06034 5.66092 8.95174C5.8421 9.04693 5.99386 9.18976 6.09986 9.36483C6.20586 9.5399 6.26206 9.74058 6.26242 9.94524ZM4.67092 8.65774C4.67142 8.77524 4.63292 8.88924 4.56142 8.98174C4.73504 8.87847 4.93341 8.82421 5.13542 8.82474C5.18542 8.82424 5.23542 8.82824 5.28442 8.83674C5.0307 8.73088 4.79815 8.58013 4.59792 8.39174C4.64592 8.47174 4.67092 8.56424 4.67092 8.65774ZM4.42792 9.94524C4.42792 10.1329 4.50246 10.3128 4.63514 10.4455C4.76783 10.5782 4.94778 10.6527 5.13542 10.6527C5.32306 10.6527 5.50302 10.5782 5.6357 10.4455C5.76838 10.3128 5.84292 10.1329 5.84292 9.94524C5.84292 9.55424 5.52442 9.23924 5.13542 9.23924C5.04255 9.23891 4.95052 9.25694 4.86463 9.29228C4.77874 9.32763 4.70068 9.3796 4.63494 9.4452C4.5692 9.51081 4.51706 9.58875 4.48154 9.67457C4.44601 9.76038 4.42779 9.85237 4.42792 9.94524ZM5.65192 10.9417C5.67942 10.9387 5.70692 10.9322 5.73692 10.9322C5.94042 10.9327 6.12592 11.0472 6.21692 11.2292C6.173 11.0509 6.15051 10.8679 6.14992 10.6842C6.15092 10.5817 6.15792 10.4792 6.17142 10.3782C6.06992 10.6212 5.88642 10.8207 5.65192 10.9417ZM3.56542 8.60674C3.5774 8.46897 3.64048 8.34067 3.74225 8.24704C3.84402 8.1534 3.97713 8.10122 4.11542 8.10074C4.21592 8.10124 4.31492 8.12974 4.40042 8.18274C4.13864 7.87408 3.96268 7.50197 3.89018 7.10379C3.81769 6.70561 3.85123 6.29537 3.98742 5.91424C3.5948 6.75355 3.44846 7.68706 3.56542 8.60624V8.60674ZM4.11542 8.38224C4.07918 8.38218 4.04327 8.38925 4.00976 8.40306C3.97625 8.41687 3.94579 8.43715 3.92011 8.46273C3.89444 8.48831 3.87405 8.5187 3.86012 8.55216C3.84619 8.58562 3.83899 8.6215 3.83892 8.65774C3.83886 8.69399 3.84593 8.72989 3.85974 8.7634C3.87355 8.79691 3.89382 8.82738 3.91941 8.85305C3.94499 8.87873 3.97538 8.89911 4.00884 8.91304C4.0423 8.92697 4.07818 8.93418 4.11442 8.93424C4.18762 8.93438 4.25788 8.90543 4.30973 8.85376C4.36158 8.80209 4.39079 8.73194 4.39092 8.65874C4.39105 8.58554 4.3621 8.51529 4.31044 8.46344C4.25877 8.41158 4.18862 8.38238 4.11542 8.38224ZM4.01242 9.94524C4.01242 9.65524 4.12542 9.37724 4.32792 9.17024C4.1929 9.22548 4.04161 9.22563 3.90647 9.17068C3.77133 9.11573 3.66308 9.01004 3.60492 8.87624C3.68992 9.34224 3.83642 9.78474 4.04242 10.1962C4.02305 10.114 4.01299 10.0298 4.01242 9.94524ZM5.43342 11.0262C5.24917 11.0766 5.05512 11.0791 4.86963 11.0335C4.68414 10.9879 4.51335 10.8958 4.37342 10.7657C4.63842 11.1572 4.95742 11.5087 5.32092 11.8107C5.24138 11.7156 5.19738 11.5958 5.19642 11.4717C5.19642 11.2932 5.28542 11.1267 5.43342 11.0267V11.0262ZM5.47592 11.4712C5.47592 11.5405 5.50342 11.6069 5.55237 11.6558C5.60131 11.7047 5.6677 11.7322 5.73692 11.7322C5.80614 11.7322 5.87253 11.7047 5.92148 11.6558C5.97042 11.6069 5.99792 11.5405 5.99792 11.4712C5.99792 11.402 5.97042 11.3356 5.92148 11.2867C5.87253 11.2377 5.80614 11.2102 5.73692 11.2102C5.6677 11.2102 5.60131 11.2377 5.55237 11.2867C5.50342 11.3356 5.47592 11.402 5.47592 11.4712ZM7.81142 12.9102C7.45547 12.8025 7.13037 12.6114 6.86313 12.3528C6.5959 12.0941 6.39424 11.7755 6.27492 11.4232C6.27492 11.4382 6.28092 11.4532 6.28092 11.4717C6.28082 11.5631 6.25753 11.6529 6.21325 11.7327C6.16897 11.8126 6.10515 11.8799 6.02775 11.9284C5.95036 11.9768 5.86193 12.0049 5.77075 12.0098C5.67957 12.0148 5.58862 11.9965 5.50642 11.9567C6.1809 12.4659 6.97436 12.7941 7.81142 12.9102ZM10.3929 10.6842C10.3929 10.1776 10.1917 9.69173 9.83342 9.33349C9.47518 8.97525 8.9893 8.77399 8.48267 8.77399C7.97604 8.77399 7.49016 8.97525 7.13192 9.33349C6.77368 9.69173 6.57242 10.1776 6.57242 10.6842C6.57348 11.1903 6.77513 11.6752 7.13317 12.0328C7.49121 12.3903 7.97641 12.5913 8.48242 12.5917C8.98836 12.5908 9.47333 12.3896 9.83127 12.032C10.1892 11.6744 10.391 11.1897 10.3924 10.6837L10.3929 10.6842ZM11.4619 11.9562C11.3796 11.9963 11.2885 12.0148 11.1971 12.01C11.1057 12.0052 11.017 11.9772 10.9394 11.9287C10.862 11.8803 10.7982 11.8129 10.7541 11.733C10.71 11.653 10.6871 11.5631 10.6874 11.4717C10.6879 11.4554 10.6899 11.4392 10.6934 11.4232C10.5741 11.7755 10.3723 12.0942 10.105 12.3529C9.83766 12.6115 9.51246 12.8026 9.15642 12.9102C9.9932 12.7928 10.7864 12.4645 11.4614 11.9562H11.4619ZM11.4894 11.4712C11.4894 11.4196 11.4741 11.3692 11.4455 11.3263C11.4168 11.2834 11.3761 11.2499 11.3284 11.2302C11.2808 11.2104 11.2283 11.2052 11.1777 11.2152C11.1271 11.2253 11.0806 11.2501 11.044 11.2865C11.0075 11.323 10.9826 11.3694 10.9725 11.42C10.9624 11.4706 10.9675 11.5231 10.9871 11.5708C11.0068 11.6185 11.0402 11.6593 11.0831 11.688C11.1259 11.7168 11.1763 11.7321 11.2279 11.7322C11.2969 11.7317 11.3629 11.7041 11.4117 11.6554C11.4605 11.6067 11.4883 11.5407 11.4889 11.4717L11.4894 11.4712ZM12.5914 10.7662C12.4515 10.8963 12.2807 10.9884 12.0952 11.0339C11.9097 11.0794 11.7156 11.0768 11.5314 11.0262C11.6794 11.1262 11.7684 11.2932 11.7684 11.4712C11.7684 11.6017 11.7199 11.7167 11.6439 11.8107C12.0075 11.5089 12.3265 11.1571 12.5914 10.7657V10.7662Z" fill="white"/>
</g>
<defs>
<clipPath id="clip0_8504_12790">
<rect width="16" height="16" fill="white" transform="translate(0.482422 0.000244141)"/>
</clipPath>
</defs>
</svg>
