<svg width="17" height="16" viewBox="0 0 17 16" fill="none" xmlns="http://www.w3.org/2000/svg">
<g clip-path="url(#clip0_8504_12806)">
<path d="M8.48242 16.0002C12.9007 16.0002 16.4824 12.4185 16.4824 8.00024C16.4824 3.58197 12.9007 0.000244141 8.48242 0.000244141C4.06414 0.000244141 0.482422 3.58197 0.482422 8.00024C0.482422 12.4185 4.06414 16.0002 8.48242 16.0002Z" fill="#5B6DEE"/>
<path d="M7.13242 7.51042C6.85347 7.50899 6.57498 7.53309 6.30042 7.58242C6.52642 5.49242 8.26842 3.90942 10.3424 3.90942C11.6124 3.90942 12.4824 4.53142 12.4824 5.81842C12.4824 7.10592 11.4379 7.72792 9.91442 7.72792C8.78942 7.72792 8.25742 7.51092 7.13242 7.51092V7.51042ZM7.05042 8.27292C5.52692 8.27292 4.48242 8.89542 4.48242 10.1824C4.48242 11.4694 5.35242 12.0914 6.62242 12.0914C8.69642 12.0914 10.4384 10.5089 10.6644 8.41842C10.3899 8.46776 10.1114 8.49186 9.83242 8.49042C8.70742 8.49042 8.17492 8.27292 7.05042 8.27292Z" fill="white"/>
</g>
<defs>
<clipPath id="clip0_8504_12806">
<rect width="16" height="16" fill="white" transform="translate(0.482422 0.000244141)"/>
</clipPath>
</defs>
</svg>
