<svg width="17" height="16" viewBox="0 0 17 16" fill="none" xmlns="http://www.w3.org/2000/svg">
<g clip-path="url(#clip0_8504_12772)">
<path d="M8.20581 16.0002C12.6241 16.0002 16.2058 12.4185 16.2058 8.00024C16.2058 3.58197 12.6241 0.000244141 8.20581 0.000244141C3.78753 0.000244141 0.205811 3.58197 0.205811 8.00024C0.205811 12.4185 3.78753 16.0002 8.20581 16.0002Z" fill="#1C1C1C"/>
<path d="M8.06321 6.71662C8.21621 6.77912 8.36921 6.74762 8.49171 6.71662C8.58371 7.02862 8.73671 7.30912 8.88921 7.43362C8.79771 8.21362 8.52221 8.49412 8.21621 8.49412C7.78821 8.49412 7.57371 7.58962 7.57371 7.43412C7.66571 7.37162 7.94121 7.18412 8.06371 6.71662H8.06321ZM7.60421 9.46112C7.78821 9.30512 7.91021 9.05562 8.06321 8.65012C8.18571 8.71262 8.36921 8.68112 8.49171 8.65012C8.58371 9.08662 8.67521 9.36762 8.88921 9.49212C8.82821 9.99112 8.52221 10.3341 8.24671 10.3341C7.84921 10.3341 7.66571 9.71062 7.60421 9.46112ZM5.15671 10.4276C5.27921 10.2716 5.27921 10.0226 5.21821 9.55462C5.30971 9.58562 5.40171 9.58562 5.46321 9.55462C5.64621 9.99112 5.79921 10.2716 6.04421 10.4276C6.07471 10.6461 6.04421 10.8956 5.95221 10.9266C5.61571 11.0826 5.30971 10.6771 5.15721 10.4276H5.15671ZM3.87171 9.58562C3.93321 9.58562 3.96371 9.58562 4.02471 9.61712C4.23921 10.1781 4.60621 10.4901 4.60621 10.4901C4.72871 10.7396 4.78971 10.9891 4.69771 10.9891C4.42271 11.0201 4.20821 10.8331 3.99421 10.4276C4.02471 10.3341 3.99421 10.2716 3.87171 9.58562ZM3.04571 9.58562C3.35171 10.8956 3.93321 10.8331 3.90271 10.7706C3.78021 10.5526 3.65771 10.4591 3.53521 10.3656C3.26021 10.0846 3.04571 9.49212 3.04571 9.58562ZM6.77821 10.4276C6.99271 10.2716 7.02321 9.92862 7.05371 9.49262C7.17621 9.52312 7.32871 9.52312 7.42071 9.49262C7.48221 9.77262 7.57371 10.1781 7.84921 10.3656C7.81871 10.7086 7.72671 10.8956 7.51271 10.9266C7.35971 10.9891 6.93121 10.9891 6.77821 10.4276ZM4.14721 9.46112C4.26971 9.30512 4.30021 9.05562 4.33071 8.71262C4.42271 8.74362 4.54521 8.74362 4.60571 8.71262C4.69771 9.11762 4.85071 9.36762 5.03471 9.49262C5.09571 10.1471 5.03471 10.3656 4.91221 10.3656C4.63721 10.3656 4.26971 9.77262 4.14721 9.46062V9.46112ZM3.19871 9.46112C3.19871 9.39862 3.22921 8.99312 3.26021 8.71262H3.38221C3.53521 9.30512 3.74971 9.49262 3.74971 9.49262C3.90271 10.2096 3.90271 10.3966 3.77971 10.3341C3.50471 10.2406 3.29071 9.71062 3.19871 9.46112ZM5.64621 9.46112C5.79921 9.33612 5.89121 9.11812 5.95221 8.71262C6.10521 8.77462 6.25821 8.74362 6.35021 8.71262C6.44171 9.11762 6.59521 9.36762 6.80921 9.49262C6.80921 9.83512 6.77821 10.3966 6.35021 10.3026C5.98271 10.2096 5.67721 9.58562 5.64621 9.46112ZM5.37121 9.36762C5.00371 9.36762 4.78971 8.77462 4.78971 8.58762C4.97321 8.40062 5.06471 8.05762 5.15671 7.46512C5.21821 7.49612 5.30971 7.49612 5.40171 7.46512C5.43221 8.12012 5.61571 8.40062 5.76871 8.55662C5.70771 9.08662 5.55471 9.36762 5.37121 9.36762ZM3.47421 8.58762C3.53521 8.46262 3.53521 8.43162 3.71921 7.46512H3.87171C3.87171 8.12012 4.05521 8.43162 4.14721 8.55662C4.11671 8.89962 4.17771 9.36762 3.90221 9.36762C3.78021 9.36762 3.62721 9.21162 3.47421 8.58762ZM2.86221 7.49612C2.95421 7.52762 2.89271 8.33812 3.01521 8.61912C3.01521 8.61912 3.01521 9.39862 2.95421 9.33612C2.49521 8.77462 2.80121 7.46512 2.86221 7.49612ZM6.53371 8.58762C6.74771 8.43162 6.87021 8.08862 7.05371 7.46512C7.17621 7.49612 7.32871 7.49612 7.42071 7.46512C7.48221 7.93262 7.60421 8.27612 7.84921 8.52512C7.78821 9.02412 7.54321 9.36762 7.23721 9.36762C6.74771 9.36762 6.56421 8.68112 6.53371 8.58762ZM4.02471 7.37162C4.26971 7.27812 4.42271 6.74762 4.45321 6.68512C4.48687 6.7153 4.53049 6.73199 4.57571 6.73199C4.62092 6.73199 4.66454 6.7153 4.69821 6.68512C4.69821 7.09062 4.82021 7.27812 4.91221 7.34012C4.82021 7.87012 4.69771 8.49412 4.42221 8.49412C4.17771 8.49412 4.05521 7.93262 4.02471 7.37162ZM3.25971 8.52512C3.04571 8.52512 2.98471 7.71462 3.04571 7.37162C3.04571 7.37162 3.22921 7.09062 3.35171 6.68512C3.38221 6.68512 3.44371 6.71662 3.47421 6.68512C3.44371 7.09062 3.50471 7.27812 3.56571 7.37162C3.56571 7.37162 3.41321 8.52512 3.26021 8.52512H3.25971ZM5.58521 7.37162C5.70771 7.30912 5.95221 6.96612 6.07471 6.65412C6.19721 6.71662 6.31971 6.71662 6.47221 6.68512C6.53371 7.02862 6.62521 7.24662 6.83971 7.37162C6.74771 7.93262 6.56421 8.49412 6.16671 8.49412C5.79921 8.49412 5.61571 7.74562 5.58521 7.37162ZM5.86021 6.52962C5.67721 7.02862 5.49321 7.30912 5.24871 7.30912C4.94271 7.30912 4.91221 6.65412 4.91221 6.59162C5.15721 6.40462 5.34021 6.03062 5.49321 5.71862H5.70771C5.64621 6.18612 5.76871 6.40462 5.86071 6.52962H5.86021ZM4.36121 5.74962C4.20821 6.18612 4.26971 6.40462 4.33121 6.56062C4.08621 7.18412 3.96371 7.34062 3.78021 7.34062C3.59671 7.30912 3.59671 6.93462 3.65771 6.62312C3.84121 6.49812 4.23921 5.78112 4.23921 5.74962H4.36121ZM3.47421 5.78112C3.56571 5.74962 3.22921 6.21762 3.26021 6.43612C3.29021 6.74762 2.92321 7.27812 2.89271 7.24662C2.77071 7.21562 3.01521 6.09262 3.47421 5.78112ZM7.81871 6.52962C7.72671 6.87262 7.60421 7.30912 7.08421 7.30912C6.80921 7.27812 6.65621 6.90412 6.59471 6.59162C6.90071 6.37362 7.05371 5.99912 7.14571 5.71862C7.23721 5.74962 7.39071 5.74962 7.48221 5.71862C7.54321 6.18612 7.69621 6.40462 7.81871 6.52962ZM3.65771 5.68712C3.71871 5.65612 4.11671 5.12612 4.33071 5.12612C4.45321 5.15712 4.11671 5.46912 4.14721 5.62512C4.05521 5.78112 3.62721 6.56012 3.47421 6.56012C3.35171 6.56012 3.35171 6.15512 3.65771 5.68712ZM11.1842 9.55462C11.1532 10.0221 11.1532 10.2716 11.2452 10.4276C11.1227 10.6776 10.7862 11.0516 10.4502 10.9266C10.3272 10.8956 10.3272 10.6461 10.3577 10.4276C10.6332 10.2716 10.8167 9.96012 10.9392 9.55462C11.0002 9.58562 11.0922 9.58562 11.1842 9.55462ZM12.4077 9.55462C12.4382 9.58562 12.4997 9.58562 12.5607 9.52312C12.4382 10.2096 12.4077 10.2716 12.4382 10.3656C12.2242 10.7706 12.0102 10.9266 11.7347 10.9266C11.6122 10.9266 11.6737 10.7086 11.8267 10.4276C11.8267 10.4276 12.1937 10.1161 12.4077 9.55462ZM12.8977 10.3656C12.7747 10.4901 12.6527 10.5526 12.5607 10.7706C12.5302 10.8331 13.1117 10.8956 13.4172 9.58562C13.3562 9.49212 13.1722 10.0846 12.8972 10.3656H12.8977ZM9.37871 9.55462C9.37871 9.92862 9.47071 10.2716 9.65421 10.4901C9.50121 11.0201 9.07321 11.0201 8.92021 10.9891C8.70571 10.9266 8.64471 10.7396 8.58371 10.4276C8.82821 10.2096 8.95071 9.83512 9.01171 9.55462C9.13421 9.58562 9.25671 9.58562 9.37871 9.55462ZM12.1322 8.68112C12.1322 9.05562 12.1632 9.30512 12.3162 9.42962C12.1937 9.74162 11.7962 10.3346 11.5512 10.3346C11.4287 10.3346 11.3677 10.1161 11.4287 9.46112C11.6122 9.33612 11.7652 9.02412 11.8572 8.68112C11.8992 8.70468 11.9465 8.71706 11.9947 8.71706C12.0429 8.71706 12.0902 8.70468 12.1322 8.68112ZM13.2337 8.74362C13.2337 8.99362 13.2337 9.39862 13.2952 9.49212C13.1727 9.74212 12.9587 10.2721 12.7137 10.3656C12.5607 10.3966 12.5912 10.2096 12.7442 9.52312C12.7442 9.52312 12.9587 9.30512 13.1117 8.74362H13.2337ZM10.5107 8.68112C10.5722 9.11812 10.6332 9.33612 10.8167 9.42962C10.7867 9.58562 10.4497 10.2096 10.1132 10.2716C9.68471 10.3656 9.65421 9.77262 9.65421 9.46112C9.86821 9.33612 10.0212 9.05562 10.1132 8.68112C10.2052 8.71262 10.3582 8.74362 10.5107 8.68112ZM11.6737 8.58762C11.6427 8.77462 11.3982 9.36762 11.0922 9.36762C10.9087 9.36762 10.7557 9.05562 10.6947 8.55662C10.8477 8.43162 11.0312 8.12012 11.0617 7.46512C11.1404 7.49635 11.228 7.49635 11.3067 7.46512C11.4287 8.02662 11.5207 8.40062 11.6737 8.58762ZM12.7442 7.46512C12.8972 8.43162 12.9277 8.46312 12.9892 8.58762C12.8362 9.18012 12.6832 9.36762 12.5607 9.36762C12.2857 9.36762 12.3467 8.86862 12.3157 8.55662C12.4382 8.43162 12.5912 8.12012 12.5912 7.46512C12.6527 7.49612 12.6832 7.46512 12.7442 7.46512ZM13.3867 8.58762C13.5397 8.33812 13.4787 7.52762 13.5397 7.46512C13.6317 7.43362 13.9067 8.80612 13.4482 9.30512C13.3867 9.36762 13.3867 8.58762 13.3867 8.58762ZM9.47071 7.46512C9.56271 8.08862 9.71571 8.43162 9.99071 8.58762C9.96021 8.68112 9.71571 9.36762 9.28721 9.36762C8.95071 9.39862 8.76721 8.99312 8.67521 8.52512C8.88921 8.27612 9.04221 7.93262 9.10371 7.46512C9.16471 7.49612 9.31771 7.49612 9.47071 7.46512ZM12.0102 6.68512C12.0102 6.74762 12.1937 7.27812 12.4077 7.43362C12.4077 7.96362 12.2547 8.55662 12.0102 8.55662C11.7347 8.55662 11.6122 7.96412 11.5202 7.40262C11.6122 7.30912 11.7347 7.09062 11.7347 6.71662C11.7796 6.73448 11.8282 6.74095 11.8762 6.73546C11.9242 6.72996 11.97 6.71266 12.0097 6.68512H12.0102ZM13.3867 7.37162C13.4172 7.71462 13.3562 8.52512 13.2032 8.49412C13.0502 8.49412 12.8972 7.34012 12.8972 7.34012C12.9587 7.24662 13.0197 7.02862 12.9892 6.68512C13.006 6.70026 13.0278 6.70864 13.0505 6.70864C13.0731 6.70864 13.0949 6.70026 13.1117 6.68512C13.2337 7.09062 13.3867 7.37162 13.3867 7.37162ZM10.3887 6.68512C10.5107 6.96612 10.7252 7.30912 10.9087 7.40262C10.8782 7.77712 10.6637 8.52512 10.3272 8.52512C9.86821 8.55662 9.74621 7.99512 9.65421 7.40262C9.83771 7.27762 9.96021 7.02862 9.99071 6.71662C10.1132 6.74762 10.2657 6.74762 10.3887 6.68512ZM11.1537 7.27812C10.9392 7.30912 10.7557 7.02812 10.5417 6.52962C10.6637 6.40462 10.7557 6.15512 10.6947 5.71862C10.7862 5.74962 10.8477 5.74962 10.9087 5.71862C11.0922 6.06162 11.2757 6.40462 11.4897 6.56062C11.4897 6.65412 11.4597 7.27812 11.1532 7.27812H11.1537ZM12.1322 6.52962C12.1632 6.40462 12.2242 6.18612 12.0407 5.71862H12.1632C12.1632 5.74962 12.5912 6.49862 12.7442 6.59162C12.8057 6.93462 12.8057 7.27812 12.6217 7.30912C12.4692 7.30912 12.3467 7.15312 12.1322 6.52912V6.52962ZM13.1722 6.43562C13.2032 6.21762 12.8972 5.74962 12.9277 5.78062C13.4177 6.09262 13.6012 7.21562 13.5092 7.24662C13.4787 7.27812 13.1422 6.71662 13.1727 6.43562H13.1722ZM9.28721 7.27812C8.82821 7.30912 8.70571 6.87262 8.61421 6.52962C8.76721 6.43562 8.92021 6.15512 8.95071 5.71862C9.04221 5.74962 9.19571 5.74962 9.28721 5.71862C9.37871 5.99912 9.53221 6.37362 9.77671 6.56062C9.74621 6.93462 9.59321 7.24662 9.28671 7.27812H9.28721ZM12.1322 5.12612C12.2852 5.12612 12.7442 5.65612 12.7747 5.68712C13.1117 6.18612 13.1117 6.56062 12.9892 6.56062C12.8057 6.56062 12.4077 5.78062 12.3162 5.62512C12.3462 5.46912 12.0102 5.12612 12.1322 5.12612ZM5.34021 5.21962C5.27921 5.40662 5.24871 5.59362 5.34021 5.68712C5.15671 6.06162 4.85071 6.59212 4.57521 6.56062C4.26971 6.49812 4.51421 5.78062 4.54521 5.71862C4.72871 5.62512 5.15671 5.03262 5.31021 5.03262C5.40171 5.06362 5.34021 5.21962 5.34021 5.21962ZM6.77821 5.18862C6.77821 5.37562 6.80921 5.59362 6.96171 5.68712C6.83971 6.06162 6.59471 6.56062 6.19671 6.52962C5.92171 6.49812 5.86071 6.03062 5.92171 5.68712C6.19671 5.59362 6.44171 5.00112 6.62521 5.00112C6.77821 5.00112 6.77821 5.15712 6.77821 5.18862ZM11.1232 5.68712C11.1842 5.59362 11.1842 5.40712 11.1232 5.21962C11.1232 5.18862 11.0617 5.03262 11.1532 5.03262C11.3062 5.03262 11.7347 5.62512 11.9182 5.71862C11.9487 5.78112 12.1932 6.49862 11.8877 6.56062C11.5817 6.59162 11.3062 6.03062 11.1227 5.68712H11.1232ZM9.50121 5.68712C9.62371 5.59362 9.65421 5.37562 9.68471 5.18862C9.68471 5.15712 9.68471 5.00112 9.83771 5.00112C9.99071 4.97012 10.2967 5.59362 10.5417 5.68712C10.6332 6.09262 10.5717 6.49812 10.2662 6.52962C9.83771 6.59162 9.62371 6.03062 9.50121 5.68712ZM8.21621 5.00112C8.52221 5.00112 8.52221 5.59362 8.76721 5.71862C8.76721 5.87462 8.67521 6.56062 8.18571 6.56062C7.75721 6.56062 7.66571 5.99912 7.63521 5.71862C8.00221 5.56262 7.88021 5.00112 8.21621 5.00112Z" fill="white"/>
</g>
<defs>
<clipPath id="clip0_8504_12772">
<rect width="16" height="16" fill="white" transform="translate(0.205811 0.000244141)"/>
</clipPath>
</defs>
</svg>
