<svg width="16" height="16" viewBox="0 0 16 16" fill="none" xmlns="http://www.w3.org/2000/svg">
<g clip-path="url(#clip0_8504_12830)">
<path d="M6.49084 15.8493L13.1539 6.5555H8.79812L9.96254 0.215881C11.9648 0.73854 13.6866 2.01671 14.7664 3.78197C15.8462 5.54723 16.2 7.66223 15.7535 9.6828C15.3069 11.7034 14.0948 13.4723 12.3717 14.6181C10.6485 15.764 8.54843 16.1975 6.51241 15.8277L6.49084 15.8493ZM6.05958 15.7631C4.16384 15.2908 2.50643 14.1413 1.39994 12.5312C0.293462 10.921 -0.185594 8.96169 0.053136 7.02267C0.291866 5.08366 1.23188 3.29902 2.69587 2.00538C4.15986 0.711734 6.04662 -0.001485 8.00028 0.000247289C8.50701 0.00377992 9.01232 0.0543109 9.50971 0.151191L2.88976 9.44499H7.224L6.05958 15.7631Z" fill="#6B38DF"/>
</g>
<defs>
<clipPath id="clip0_8504_12830">
<rect width="16" height="16" fill="white" transform="translate(0 0.000244141)"/>
</clipPath>
</defs>
</svg>
