<svg width="17" height="16" viewBox="0 0 17 16" fill="none" xmlns="http://www.w3.org/2000/svg">
<g clip-path="url(#clip0_8504_12825)">
<path d="M2.64206 10.8813C2.55552 10.8813 2.47093 10.9069 2.39898 10.955C2.32704 11.0031 2.27096 11.0714 2.23784 11.1514C2.20473 11.2313 2.19606 11.3193 2.21294 11.4042C2.22983 11.489 2.2715 11.567 2.33268 11.6282C2.39387 11.6894 2.47183 11.731 2.5567 11.7479C2.64157 11.7648 2.72954 11.7561 2.80949 11.723C2.88944 11.6899 2.95777 11.6338 3.00584 11.5619C3.05392 11.4899 3.07958 11.4053 3.07958 11.3188C3.07958 11.2412 3.05838 11.1706 3.0231 11.1001C2.98398 11.0337 2.9283 10.9787 2.8615 10.9403C2.7947 10.902 2.71908 10.8817 2.64206 10.8814V10.8813ZM8.82334 1.36232C8.82334 1.27579 8.79768 1.1912 8.7496 1.11925C8.70153 1.0473 8.6332 0.991224 8.55325 0.958109C8.4733 0.924994 8.38533 0.91633 8.30046 0.933212C8.21559 0.950094 8.13763 0.991763 8.07644 1.05295C8.01526 1.11414 7.97359 1.1921 7.95671 1.27697C7.93982 1.36184 7.94849 1.44981 7.9816 1.52976C8.01472 1.6097 8.0708 1.67803 8.14275 1.72611C8.21469 1.77418 8.29928 1.79984 8.38582 1.79984C8.50166 1.79919 8.61256 1.75289 8.69447 1.67098C8.77638 1.58907 8.82269 1.47816 8.82334 1.36232ZM14.1583 5.15865C14.2448 5.15865 14.3294 5.13299 14.4014 5.08491C14.4733 5.03683 14.5294 4.9685 14.5625 4.88856C14.5956 4.80861 14.6043 4.72064 14.5874 4.63577C14.5705 4.5509 14.5289 4.47294 14.4677 4.41175C14.4065 4.35056 14.3285 4.30889 14.2437 4.29201C14.1588 4.27513 14.0708 4.28379 13.9909 4.31691C13.9109 4.35002 13.8426 4.4061 13.7945 4.47805C13.7464 4.55 13.7208 4.63459 13.7208 4.72113C13.7211 4.79537 13.7405 4.86829 13.7773 4.93281C13.8148 5.00103 13.87 5.05795 13.937 5.09766C14.004 5.13737 14.0804 5.15843 14.1583 5.15865ZM2.8463 4.31888C2.63462 4.19888 2.3735 4.26953 2.25358 4.48121C2.13366 4.69289 2.20422 4.954 2.4159 5.07393C2.62758 5.19384 2.8887 5.12329 3.00862 4.91161C3.12862 4.70697 3.05798 4.4388 2.8463 4.31888ZM14.3343 10.9659C14.2708 10.9236 14.1932 10.9094 14.1156 10.9024C14.0576 10.9016 14.0001 10.9124 13.9463 10.934C13.8926 10.9556 13.8436 10.9877 13.8024 11.0284C13.7611 11.0691 13.7284 11.1176 13.706 11.1711C13.6837 11.2246 13.6721 11.2819 13.6721 11.3399C13.6721 11.3978 13.6837 11.4552 13.706 11.5087C13.7284 11.5622 13.7611 11.6106 13.8024 11.6513C13.8436 11.692 13.8926 11.7241 13.9463 11.7458C14.0001 11.7674 14.0576 11.7781 14.1156 11.7774C14.2708 11.7774 14.4116 11.6927 14.4966 11.5586C14.6166 11.354 14.546 11.0858 14.3343 10.9659ZM7.9483 14.6139C7.9271 14.8115 8.0471 15.002 8.23054 15.0726C8.27286 15.0866 8.3223 15.1008 8.36462 15.1008C8.47162 15.1006 8.57522 15.0632 8.65763 14.995C8.74003 14.9267 8.79611 14.8319 8.81622 14.7268C8.83192 14.6132 8.80212 14.4979 8.73329 14.4062C8.66447 14.3144 8.56219 14.2535 8.44872 14.2368C8.33524 14.22 8.21974 14.2488 8.12734 14.3168C8.03494 14.3847 7.97313 14.4864 7.95534 14.5998C7.95152 14.6036 7.94904 14.6085 7.9483 14.6138" fill="#2683FF"/>
<path d="M14.7649 10.1613C14.7129 10.1312 14.6586 10.1053 14.6025 10.0837V5.99808C14.6661 5.97688 14.7296 5.9416 14.7931 5.91344C15.4491 5.54648 15.6891 4.71384 15.3223 4.05744C14.9555 3.40104 14.1227 3.16144 13.4663 3.52824C13.4098 3.55648 13.3605 3.59176 13.3111 3.62704L9.71237 1.54544C9.71941 1.48192 9.72645 1.42544 9.72645 1.362C9.72637 0.607044 9.11277 0.000244141 8.36477 0.000244141C7.61677 0.000244141 6.98877 0.621204 6.98877 1.36912C6.98877 1.43264 6.99581 1.48912 7.00285 1.55256L3.43237 3.62008C3.29034 3.50881 3.12764 3.42682 2.9537 3.37886C2.77976 3.3309 2.59803 3.31793 2.41905 3.34069C2.24006 3.36346 2.06736 3.4215 1.91096 3.51147C1.75456 3.60144 1.61756 3.72154 1.5079 3.86482C1.39824 4.0081 1.31809 4.17172 1.27211 4.34619C1.22612 4.52066 1.2152 4.70252 1.23998 4.88124C1.26476 5.05996 1.32476 5.23199 1.41649 5.38736C1.50822 5.54274 1.62986 5.67837 1.77437 5.7864C1.82373 5.82168 1.87317 5.85696 1.92957 5.89224C1.98721 5.92752 2.04877 5.95593 2.11301 5.97688V10.0554C1.41437 10.3377 1.07557 11.1282 1.35781 11.8266C1.64005 12.5249 2.43037 12.8638 3.12901 12.5816C3.19253 12.5604 3.24901 12.5251 3.30541 12.497C3.36189 12.4617 3.41829 12.4264 3.47477 12.3841L7.00997 14.4234C6.88997 15.1642 7.39805 15.8628 8.13901 15.9828C8.87997 16.1028 9.57853 15.5947 9.69845 14.8538C9.71253 14.7762 9.71253 14.7056 9.71253 14.6279C9.71161 14.5618 9.70691 14.4959 9.69845 14.4303L13.2125 12.4052C13.269 12.4475 13.3254 12.4898 13.3889 12.5252C14.0449 12.8922 14.8778 12.6593 15.2449 12.003C15.5975 11.3467 15.3858 10.5423 14.7649 10.1613ZM15.0118 11.8689C14.7225 12.3628 14.0804 12.5322 13.5865 12.2429C13.1913 12.01 12.9937 11.5514 13.0996 11.1069L11.4484 10.1402C11.1935 10.3986 10.868 10.5759 10.5128 10.6499C10.1575 10.7239 9.78823 10.6913 9.45141 10.5562C9.20445 10.6338 8.67541 10.6832 8.67541 10.6832V13.5904C9.25405 13.7668 9.57141 14.3807 9.39541 14.9593C9.21941 15.5378 8.60509 15.8553 8.02645 15.6793C8.01941 15.6793 8.01237 15.6722 8.00525 15.6722C7.95589 15.6582 7.91349 15.637 7.87117 15.6158C7.32781 15.3476 7.11613 14.6843 7.38429 14.1481C7.51837 13.8799 7.75829 13.6824 8.04029 13.5906V10.627C7.83305 10.5629 7.63031 10.4851 7.43341 10.3941C7.11814 10.4571 6.79287 10.4499 6.48068 10.3731C6.16849 10.2963 5.87704 10.1516 5.62701 9.94952L3.65829 11.0855C3.7064 11.2871 3.69366 11.4984 3.62167 11.6928C3.54968 11.8871 3.42168 12.0558 3.25386 12.1774C3.08604 12.299 2.88592 12.3681 2.67882 12.376C2.47172 12.3839 2.26692 12.3302 2.09033 12.2217C1.91374 12.1132 1.77328 11.9548 1.68671 11.7665C1.60015 11.5782 1.57136 11.3685 1.60399 11.1638C1.63661 10.9591 1.72919 10.7687 1.87002 10.6167C2.01085 10.4646 2.1936 10.3577 2.39517 10.3095C2.73389 10.2249 3.09373 10.3236 3.35517 10.5635L5.19685 9.498C4.57589 8.62304 4.67469 7.42344 5.43685 6.66136L3.34085 5.46176C2.92485 5.85688 2.26829 5.83576 1.87317 5.4124C1.77916 5.31254 1.70583 5.19507 1.6574 5.06676C1.60897 4.93844 1.5864 4.80181 1.59099 4.66473C1.59557 4.52766 1.62723 4.39284 1.68413 4.26805C1.74103 4.14326 1.82205 4.03096 1.92253 3.9376C2.34589 3.54248 2.99509 3.5636 3.39021 3.98696C3.63021 4.24096 3.72189 4.59376 3.64421 4.93248L5.96573 6.26608C6.26989 6.10247 6.60838 6.013 6.95365 6.00496C7.27837 5.73696 8.11037 5.46176 8.11037 5.46176V2.28648C7.59525 2.13128 7.30597 1.58792 7.46117 1.0728C7.61637 0.557684 8.16013 0.275444 8.67525 0.430644C9.19037 0.585844 9.47965 1.1292 9.32445 1.64432C9.27857 1.79789 9.19521 1.93763 9.08189 2.05096C8.96856 2.16429 8.82882 2.24764 8.67525 2.29352V5.40552C8.67525 5.40552 10.1994 5.78656 10.6793 6.35808L13.1489 4.95392C13.0219 4.38944 13.3677 3.82488 13.9322 3.69792C14.4968 3.57096 15.0613 3.91664 15.1882 4.4812C15.3152 5.04576 14.9695 5.61024 14.4049 5.7372C14.2369 5.77506 14.0621 5.77104 13.896 5.72551C13.7299 5.67998 13.5775 5.59432 13.4523 5.47608L11.0109 6.85896C11.0814 7.00712 11.1449 7.15496 11.1873 7.31056C11.9423 7.82568 12.2105 8.81352 11.8082 9.63912L13.4242 10.5776C13.587 10.4258 13.7946 10.3308 14.0158 10.3066C14.2371 10.2825 14.4602 10.3305 14.652 10.4435C15.1389 10.7328 15.308 11.3679 15.012 11.8689H15.0118Z" fill="#2683FF"/>
<path d="M10.4605 7.86103C10.4534 7.80456 10.4464 7.7552 10.4393 7.69872C10.4324 7.66051 10.4229 7.6228 10.411 7.58584C10.411 7.57176 10.404 7.5576 10.404 7.54352C10.3899 7.50121 10.3758 7.45177 10.3617 7.40945V7.40241C10.272 7.1657 10.1351 6.94966 9.95944 6.76739C9.91712 6.72507 9.88184 6.68979 9.8324 6.64739L9.82536 6.64035C9.78304 6.60507 9.74072 6.5698 9.69128 6.54156L9.68424 6.53452C9.64192 6.50628 9.59248 6.471 9.55016 6.44988L9.54312 6.44284C9.49754 6.41652 9.45041 6.39296 9.402 6.37228L9.38792 6.36524C9.33856 6.34404 9.28912 6.32292 9.23272 6.30172L9.22568 6.29468C9.1692 6.28061 9.11984 6.25941 9.06336 6.25237H9.05632C9.00049 6.23953 8.94394 6.2301 8.88696 6.22413H8.87992C8.57939 6.18143 8.27292 6.21791 7.9908 6.32996L7.95552 6.3582C7.9132 6.37228 7.84264 6.40756 7.80032 6.42876C7.7783 6.4433 7.75461 6.45515 7.72976 6.46404C7.70856 6.47108 7.67328 6.49932 7.65216 6.5134C7.63104 6.52748 7.5816 6.56276 7.55336 6.58396L7.53216 6.59804C7.48984 6.62627 7.45456 6.66155 7.41216 6.69683L7.37688 6.73211C7.33456 6.77443 7.29928 6.80971 7.264 6.85211C7.18007 6.83805 7.09511 6.83096 7.01 6.83091C6.98176 6.83091 6.96064 6.83091 6.93944 6.83795C6.61488 6.85203 6.3044 6.9861 6.06448 7.2049C5.94448 7.31073 5.84576 7.44489 5.76848 7.58592L5.76096 7.60032C5.73921 7.64131 5.72034 7.68375 5.70448 7.72736C5.69744 7.74144 5.69744 7.74856 5.6904 7.76264C5.67545 7.79919 5.66365 7.83695 5.65512 7.87551C5.64808 7.88959 5.64808 7.91079 5.64104 7.92487C5.634 7.96015 5.62696 7.99543 5.61984 8.03775C5.61984 8.05183 5.6128 8.06599 5.6128 8.08711C5.60694 8.141 5.60459 8.19522 5.60576 8.24942C5.60459 8.29423 5.60694 8.33906 5.6128 8.3835C5.6128 8.39758 5.61984 8.41174 5.61984 8.43285C5.62688 8.46109 5.62688 8.48933 5.63392 8.51749C5.64096 8.54565 5.64096 8.55277 5.648 8.57397C5.65603 8.59426 5.66078 8.6157 5.66208 8.63749C5.66208 8.65869 5.67616 8.67981 5.68328 8.70101C5.68905 8.71799 5.69614 8.73449 5.70448 8.75036C5.71511 8.77338 5.72454 8.79693 5.73272 8.82092C5.73976 8.835 5.7468 8.84212 5.7468 8.8562C5.84597 9.08861 6.01335 9.28544 6.2268 9.42066C6.33264 9.48418 6.43848 9.54066 6.55136 9.57586C6.59513 9.5909 6.63994 9.60269 6.68544 9.61114L6.69952 9.61818L6.82656 9.63938L6.8548 9.64641C6.90416 9.65345 6.9536 9.65345 7.01 9.65345C7.20056 9.65345 7.384 9.61818 7.55336 9.54058C7.59568 9.56882 7.63096 9.59706 7.67336 9.62522L7.68744 9.63226C7.72272 9.65345 7.76504 9.67457 7.80744 9.69577H7.81432C8.21764 9.9013 8.68309 9.94911 9.11976 9.82985H9.1268C9.19029 9.81614 9.25188 9.79482 9.31024 9.76633L9.5008 9.68169C9.68224 9.82324 9.90572 9.90021 10.1358 9.90041C10.1852 9.90041 10.2276 9.89337 10.277 9.89337L10.3122 9.88633C10.3575 9.8796 10.4022 9.87017 10.4463 9.85809C10.4898 9.84472 10.5323 9.82823 10.5734 9.80873L10.5946 9.80169C10.6369 9.78049 10.6722 9.75937 10.7146 9.73817C10.891 9.6253 11.025 9.45594 11.1026 9.26539C11.1309 9.20187 11.145 9.13835 11.1591 9.07491V9.05371C11.1662 9.02548 11.1662 8.99724 11.1732 8.96908C11.1732 8.9338 11.1802 8.89852 11.1802 8.86324C11.1802 8.39758 10.891 7.99535 10.4602 7.86127" fill="#2683FF"/>
</g>
<defs>
<clipPath id="clip0_8504_12825">
<rect width="16" height="16" fill="white" transform="translate(0.366455 0.000244141)"/>
</clipPath>
</defs>
</svg>
