<svg width="17" height="16" viewBox="0 0 17 16" fill="none" xmlns="http://www.w3.org/2000/svg">
<g clip-path="url(#clip0_8504_12164)">
<path d="M8.5336 15.5202L8.44672 15.4768C5.05849 13.4931 2.49559 10.2207 1.45306 6.31118C1.28654 5.69579 1.16347 5.06593 1.07659 4.42882C0.99695 3.79172 0.953511 3.14738 0.946272 2.50303C0.946272 2.39443 0.931792 2.40891 1.03315 2.35824C2.30736 1.63425 3.65396 1.10575 5.0802 0.772715C5.60871 0.649638 6.13722 0.555521 6.67296 0.490362C7.41142 0.403484 8.14989 0.367285 8.89559 0.381765C9.3155 0.389005 9.72816 0.417964 10.1408 0.461403C12.2187 0.685837 14.1662 1.30846 15.9906 2.32928C16.0196 2.34376 16.0413 2.35824 16.0702 2.37272C16.0992 2.38719 16.1137 2.40891 16.1137 2.44511V2.55371C16.1064 2.93018 16.092 3.29941 16.063 3.67588C16.0196 4.21163 15.9472 4.74014 15.8458 5.26864C15.6286 6.4053 15.2883 7.49851 14.8178 8.54828C14.0721 10.2207 13.0512 11.7121 11.7626 13.0153C10.8359 13.9564 9.80056 14.7673 8.65667 15.4406C8.61323 15.4695 8.57703 15.4913 8.5336 15.5202ZM1.64129 2.87226V2.95914C1.64129 3.48765 1.67749 4.02339 1.74265 4.54466C1.80057 5.02249 1.88021 5.49308 1.9888 5.96367C2.01052 6.0433 2.03224 6.12294 2.06844 6.20258C2.72003 7.58539 4.22591 8.32385 5.71731 7.98358C6.85396 7.72294 7.78065 6.84692 8.09197 5.72475C8.17884 5.41344 8.2078 5.09489 8.22228 4.77634C8.22952 4.56638 8.25124 4.35643 8.28744 4.14647C8.5336 2.87226 9.38065 1.82249 10.5752 1.32294C10.6404 1.29398 10.7128 1.27226 10.7779 1.2433C10.7852 1.23606 10.7997 1.23606 10.7997 1.22158C10.6114 1.15643 9.48925 1.04059 8.81595 1.02611C7.36799 0.99715 5.94898 1.18538 4.56618 1.60529C3.53812 1.91661 2.56799 2.33652 1.64129 2.87226ZM12.32 11.5456C12.3562 11.5238 12.3779 11.4949 12.3924 11.4732C12.682 11.1112 12.9571 10.7347 13.2105 10.3438C14.1155 8.93923 14.7526 7.42611 15.1073 5.78991C15.2304 5.23244 15.3101 4.67498 15.3607 4.11027C15.3969 3.72656 15.4114 3.34285 15.4114 2.9519C15.4114 2.92294 15.4114 2.90122 15.4042 2.87226L15.2956 2.8071C14.9987 2.64059 14.6947 2.48131 14.3906 2.33652C13.9417 2.12656 13.4929 1.93833 13.0223 1.78629C12.4503 1.60529 11.8711 1.58358 11.292 1.72837C9.63405 2.12656 8.56979 3.75552 8.88835 5.42792C9.0621 6.35462 9.56165 7.0786 10.358 7.58539C10.4087 7.62159 10.4666 7.65054 10.5173 7.68674C11.1037 8.04149 11.5598 8.52656 11.8856 9.12747C12.2331 9.75733 12.3852 10.4379 12.3417 11.1546C12.349 11.2777 12.3345 11.408 12.32 11.5456ZM8.5336 14.7818C8.56255 14.7673 8.59875 14.7456 8.62771 14.7238C9.53993 14.1881 10.3797 13.551 11.1472 12.827C11.1978 12.7836 11.234 12.7257 11.263 12.6677C11.3137 12.5736 11.3644 12.4723 11.4078 12.3781C11.7698 11.6252 11.8494 10.8433 11.6105 10.0324C11.1399 8.46864 9.63405 7.57091 8.12093 7.75914C7.68654 7.80982 7.28835 7.94738 6.91188 8.16457C6.19514 8.57 5.42772 8.73652 4.60238 8.65688C4.19695 8.62068 3.81324 8.51208 3.44401 8.35281C3.15441 8.22249 2.8793 8.06321 2.63315 7.86774C2.61867 7.85326 2.59695 7.84602 2.56075 7.8243C2.56799 7.8605 2.57523 7.88222 2.58247 7.8967C2.90826 8.72204 3.30645 9.50394 3.77704 10.2496C4.29106 11.0533 4.87749 11.799 5.54355 12.4795C6.20962 13.16 6.94084 13.7682 7.72998 14.2967C8.09197 14.5284 8.43224 14.7383 8.5336 14.7818Z" fill="black"/>
<path d="M1.64127 2.87248C2.56797 2.33673 3.53811 1.91682 4.55893 1.61275C5.94898 1.20008 7.36075 1.00461 8.80872 1.03357C9.48202 1.04805 10.6042 1.15664 10.7924 1.22904C10.7997 1.24352 10.7852 1.25076 10.7707 1.25076C10.7056 1.27972 10.6332 1.30144 10.568 1.3304C9.37342 1.82995 8.52636 2.87972 8.28021 4.15393C8.24401 4.36388 8.22229 4.57384 8.21505 4.78379C8.20781 5.10234 8.17885 5.4209 8.08473 5.73221C7.76618 6.85438 6.84672 7.7304 5.71006 7.99103C4.21866 8.3313 2.71277 7.59284 2.06118 6.21004C2.02498 6.1304 1.99603 6.05076 1.98155 5.97112C1.87295 5.50053 1.79331 5.02995 1.73539 4.55212C1.67023 4.02361 1.63403 3.4951 1.63403 2.9666C1.64127 2.9304 1.64127 2.90868 1.64127 2.87248Z" fill="#F7A800"/>
<path d="M12.3201 11.5458C12.3346 11.4083 12.349 11.2852 12.3563 11.1549C12.3925 10.4382 12.2404 9.75763 11.9002 9.12777C11.5744 8.52687 11.1183 8.04905 10.5319 7.68706C10.4812 7.65086 10.4233 7.62191 10.3726 7.58571C9.56899 7.07893 9.07669 6.36219 8.90294 5.42827C8.59163 3.74865 9.64863 2.12695 11.3065 1.72876C11.8929 1.59121 12.4649 1.60569 13.0368 1.78668C13.5074 1.93147 13.9562 2.12695 14.4051 2.3369C14.7164 2.48169 15.0132 2.64097 15.3101 2.80748C15.3463 2.8292 15.3752 2.84368 15.4187 2.87264C15.4187 2.9016 15.4259 2.92332 15.4259 2.95228C15.4259 3.33598 15.4042 3.72693 15.3752 4.11063C15.3245 4.67533 15.2377 5.24003 15.1218 5.79025C14.7671 7.42643 14.1372 8.93954 13.225 10.344C12.9716 10.735 12.6965 11.1115 12.407 11.4734C12.378 11.4952 12.3635 11.5241 12.3201 11.5458Z" fill="#67B2E8"/>
<path d="M8.53348 14.7821C8.42489 14.7387 8.09185 14.536 7.7371 14.2971C6.94796 13.7686 6.21674 13.1604 5.55068 12.4799C4.88461 11.7994 4.29095 11.0537 3.78416 10.2501C3.30633 9.50438 2.90814 8.72249 2.58959 7.89717C2.58235 7.87545 2.57511 7.86097 2.56787 7.82477C2.60407 7.84649 2.61855 7.85373 2.64027 7.86821C2.89366 8.06368 3.16154 8.23019 3.45113 8.35327C3.82036 8.51254 4.20407 8.62114 4.6095 8.65734C5.4276 8.73697 6.19502 8.57046 6.919 8.16504C7.29547 7.95509 7.7009 7.81753 8.12805 7.75961C9.64117 7.57138 11.1471 8.4691 11.6176 10.0329C11.8566 10.8365 11.7842 11.6184 11.4149 12.3785C11.3643 12.4799 11.3208 12.574 11.2701 12.6681C11.2412 12.726 11.205 12.784 11.1543 12.8274C10.3869 13.5514 9.54706 14.1885 8.63484 14.7242C8.59864 14.7459 8.56244 14.7676 8.53348 14.7821Z" fill="#00C4B3"/>
</g>
<defs>
<clipPath id="clip0_8504_12164">
<rect width="16.0004" height="16" fill="white" transform="translate(0.945557 0.000244141)"/>
</clipPath>
</defs>
</svg>
