<svg width="17" height="16" viewBox="0 0 17 16" fill="none" xmlns="http://www.w3.org/2000/svg">
<g clip-path="url(#clip0_8504_12855)">
<path d="M8.91344 16C13.3316 16 16.9133 12.4183 16.9133 8.00011C16.9133 3.58191 13.3316 0.000244141 8.91344 0.000244141C4.49524 0.000244141 0.913574 3.58191 0.913574 8.00011C0.913574 12.4183 4.49524 16 8.91344 16Z" fill="url(#paint0_linear_8504_12855)"/>
<path fill-rule="evenodd" clip-rule="evenodd" d="M8.62359 2.88641C8.1591 2.93995 7.72723 3.15188 7.40069 3.48654C7.15551 3.72928 6.92329 3.9785 6.67487 4.22368C6.55053 4.35125 6.42484 4.47532 6.29916 4.60128C6.17347 4.72724 6.03483 4.86102 5.90429 4.99318C5.77374 5.12534 5.66532 5.24132 5.54448 5.36405C5.35568 5.55285 5.16688 5.74165 4.97807 5.93234C4.83323 6.08204 4.69163 6.23658 4.54841 6.38601C4.46399 6.47528 4.37309 6.55809 4.29353 6.65195C3.96516 7.05257 3.78569 7.55456 3.78564 8.07256C3.78564 8.10303 3.78564 8.13432 3.78753 8.16453C3.79425 8.46197 3.87232 8.75344 4.01518 9.01441C4.0965 9.17212 4.19068 9.32287 4.29676 9.46511C4.36689 9.56383 4.41787 9.56221 4.51011 9.48588C4.52773 9.47122 4.54423 9.45526 4.55947 9.43814C4.65036 9.34239 4.73937 9.24691 4.83188 9.15143C4.96243 9.01441 5.09621 8.87766 5.22675 8.73903C5.3573 8.60039 5.4989 8.44773 5.63592 8.30451C5.70119 8.23439 5.77078 8.16965 5.83659 8.10061C5.97657 7.95253 6.11359 7.79987 6.25357 7.65341C6.39356 7.50696 6.53543 7.36994 6.67245 7.22672C6.80946 7.0835 6.97804 6.90818 7.13232 6.74905C7.2866 6.58992 7.41741 6.45613 7.56063 6.30968C7.74701 6.11683 7.92853 5.9194 8.11302 5.72682C8.22765 5.60895 8.34551 5.49594 8.46014 5.37969C8.61928 5.22056 8.76735 5.06142 8.92352 4.90229C9.07969 4.74315 9.19567 4.63635 9.32945 4.49933C9.62848 4.19724 9.92706 3.89336 10.2252 3.58768C10.2444 3.56871 10.2624 3.54853 10.2791 3.52726C10.3525 3.43475 10.3587 3.41425 10.2681 3.34898C10.1297 3.23996 9.98153 3.14398 9.82546 3.06227C9.54962 2.93327 9.24881 2.86642 8.94429 2.86646H8.92919C8.82747 2.86648 8.72586 2.87287 8.62494 2.88561L8.62332 2.88399L8.62359 2.88641ZM11.2585 4.84619H11.2393C11.1087 4.84623 10.9796 4.87475 10.8611 4.92977C10.7426 4.98478 10.6375 5.06496 10.5532 5.16472C10.5381 5.18144 10.5221 5.19737 10.5054 5.21246L10.0183 5.69013C9.85918 5.84954 9.6871 6.02297 9.51987 6.19019C9.3815 6.32856 9.24287 6.46396 9.10612 6.60259C8.96937 6.74123 8.82265 6.89551 8.67457 7.04034C8.52649 7.18518 8.36898 7.33703 8.21605 7.48619L7.6731 8.03372L6.66382 9.04327C6.21788 9.491 5.77257 9.93784 5.3279 10.3838C5.24213 10.4682 5.24051 10.4793 5.3279 10.5699C5.54125 10.7857 5.75783 10.9998 5.9647 11.2172C6.0927 11.3529 6.26162 11.4429 6.44561 11.4734C6.6192 11.5084 6.79854 11.5023 6.96941 11.4559C7.09742 11.4242 7.21558 11.3613 7.3133 11.2728L7.84195 10.7622C7.96602 10.643 8.09198 10.5251 8.21443 10.404C8.4596 10.1613 8.70154 9.91689 8.94672 9.67576C9.14577 9.47995 9.34968 9.28575 9.5517 9.08993L10.3805 8.28213C10.6384 8.02886 10.8979 7.77425 11.159 7.52098C11.1763 7.49511 11.2005 7.47451 11.2288 7.46141C11.2571 7.44832 11.2884 7.44323 11.3194 7.44671C11.3504 7.45019 11.3798 7.46209 11.4045 7.48113C11.4292 7.50017 11.4482 7.52561 11.4594 7.5547C11.5921 7.74851 11.6631 7.97792 11.6631 8.21281C11.663 8.25299 11.6609 8.29314 11.6569 8.3331C11.6354 8.56991 11.5378 8.79337 11.3785 8.96991C11.1873 9.17543 10.9836 9.36963 10.7851 9.56706C10.6435 9.70705 10.4987 9.84406 10.3568 9.98567C10.1737 10.1672 9.99377 10.3519 9.81063 10.5335C9.78366 10.5637 9.7583 10.5955 9.72971 10.6241L9.54981 10.8105C9.41495 10.9453 9.27766 11.0764 9.14523 11.2115C9.0128 11.3467 8.86068 11.5047 8.71907 11.6523C8.7064 11.6666 8.6921 11.676 8.67943 11.6887C8.52002 11.8367 8.37356 11.9854 8.22225 12.1345C8.15078 12.2046 8.08227 12.2761 8.01214 12.3462C7.89131 12.469 7.76697 12.589 7.65072 12.7141C7.57924 12.7888 7.57924 12.835 7.66366 12.894C7.80227 13.0004 7.94982 13.0946 8.10465 13.1756C8.48982 13.3498 8.91666 13.4105 9.33511 13.3507C9.75045 13.3014 10.1401 13.1238 10.4499 12.8428C10.6853 12.6359 10.8957 12.4034 11.1153 12.1806C11.2744 12.0212 11.4338 11.851 11.604 11.687L12.0641 11.2237C12.2044 11.0821 12.3427 10.9402 12.4846 10.8002C12.6265 10.6602 12.8029 10.493 12.962 10.3352C13.1212 10.1774 13.2806 10.017 13.4397 9.84811C13.5666 9.71891 13.6838 9.58053 13.7903 9.43409C13.989 9.13396 14.113 8.79069 14.152 8.4329C14.1736 8.25518 14.1736 8.0755 14.152 7.89778C14.1047 7.58155 13.9901 7.27914 13.816 7.01095C13.6907 6.82118 13.5409 6.64886 13.3704 6.49848C12.9294 6.06073 12.4897 5.61974 12.0585 5.17228C11.9645 5.0676 11.8495 4.98387 11.721 4.92653C11.5925 4.86919 11.4534 4.83952 11.3127 4.83944H11.3068L11.259 4.84592L11.2585 4.84619Z" fill="white"/>
</g>
<defs>
<linearGradient id="paint0_linear_8504_12855" x1="2.00366" y1="3.3569" x2="14.8429" y2="12.1417" gradientUnits="userSpaceOnUse">
<stop stop-color="#FF3B3B"/>
<stop offset="1" stop-color="#FF9914"/>
</linearGradient>
<clipPath id="clip0_8504_12855">
<rect width="16" height="16" fill="white" transform="translate(0.913574 0.000244141)"/>
</clipPath>
</defs>
</svg>
