<svg width="17" height="16" viewBox="0 0 17 16" fill="none" xmlns="http://www.w3.org/2000/svg">
<g clip-path="url(#clip0_8504_11877)">
<path d="M2.62693 6.14258L0.94458 7.82455H4.30903L2.62693 6.14258Z" fill="#A02870"/>
<path d="M4.30849 8.17603H0.945068L2.62672 9.85781L4.30849 8.17603Z" fill="#80286C"/>
<path d="M6.59043 5.89401L4.9082 4.21191V7.57591L6.59043 5.89401Z" fill="#C42C79"/>
<path d="M4.5571 7.57591V4.21191L2.875 5.89401L4.5571 7.57591Z" fill="#A02870"/>
<path d="M6.83909 5.64589L8.52106 3.96411H5.15674L6.83909 5.64589Z" fill="#C42C79"/>
<path d="M6.83904 1.93066L5.15649 3.61289H8.52081L6.83904 1.93066Z" fill="#E4327F"/>
<path d="M10.8024 1.68234L9.12036 0.000244141V3.36424L10.8024 1.68234Z" fill="#0A8B4B"/>
<path d="M8.76919 3.36437V0.000244141L7.08716 1.68234L8.76919 3.36437Z" fill="#E4327F"/>
<path d="M6.59043 10.1057L4.9082 8.42383V11.7879L6.59043 10.1057Z" fill="#632A69"/>
<path d="M2.87524 10.1057L4.55731 11.7876V8.42383L2.87524 10.1057Z" fill="#80286C"/>
<path d="M11.0509 5.64589L12.7329 3.96411H9.3689L11.0509 5.64589Z" fill="#167B55"/>
<path d="M9.36865 3.61276H12.7328L11.0507 1.93066L9.36865 3.61276Z" fill="#0A8B4B"/>
<path d="M8.52094 12.3875H5.15649L6.83859 14.0697L8.52094 12.3875Z" fill="#402863"/>
<path d="M6.83918 10.3552L5.15698 12.0371H8.5206L6.83918 10.3552Z" fill="#632A69"/>
<path d="M15.0143 5.89476L13.3323 4.21289V7.57651L15.0143 5.89476Z" fill="#21695E"/>
<path d="M11.2991 5.89401L12.9813 7.5761V4.21191L11.2991 5.89401Z" fill="#167B55"/>
<path d="M7.08716 14.3181L8.76906 16.0001V12.636L7.08716 14.3181Z" fill="#402863"/>
<path d="M9.12036 12.6363V16L10.8024 14.3182L9.12036 12.6363ZM11.0507 14.0699L12.733 12.3877H9.36844L11.0507 14.0699Z" fill="#223160"/>
<path d="M11.0507 10.3552L9.3689 12.0371H12.7324L11.0507 10.3552Z" fill="#1E4561"/>
<path d="M13.3325 8.42383V11.7876L15.0144 10.1056L13.3325 8.42383Z" fill="#245661"/>
<path d="M11.2991 10.1062L12.9813 11.7883V8.42432L11.2991 10.1062Z" fill="#1E4561"/>
<path d="M15.2626 9.85824L16.9449 8.17603H13.5806L15.2626 9.85824Z" fill="#245661"/>
<path d="M15.2629 6.14258L13.5806 7.82455H16.9451L15.2629 6.14258Z" fill="#21695E"/>
</g>
<defs>
<clipPath id="clip0_8504_11877">
<rect width="16.0004" height="16" fill="white" transform="translate(0.94458 0.000244141)"/>
</clipPath>
</defs>
</svg>
