<svg width="17" height="16" viewBox="0 0 17 16" fill="none" xmlns="http://www.w3.org/2000/svg">
<g clip-path="url(#clip0_8504_12888)">
<path d="M8.02124 16.0002C12.4395 16.0002 16.0212 12.4185 16.0212 8.00024C16.0212 3.58197 12.4395 0.000244141 8.02124 0.000244141C3.60296 0.000244141 0.0212402 3.58197 0.0212402 8.00024C0.0212402 12.4185 3.60296 16.0002 8.02124 16.0002Z" fill="#14C8FF"/>
<path d="M12.5612 5.73907C12.8777 5.99557 13.0772 6.52607 13.0072 6.91557L12.3272 10.6776C12.2562 11.0696 11.8812 11.5011 11.4952 11.6366L7.78574 12.9391C7.39974 13.0746 6.82574 12.9766 6.50974 12.7201L3.48074 10.2616C3.16424 10.0051 2.96424 9.47707 3.03574 9.08507L3.71574 5.32307C3.78624 4.93107 4.16124 4.50007 4.54774 4.36407L8.25774 3.06107C8.64424 2.92507 9.21774 3.02407 9.53424 3.28007L12.5612 5.73907ZM9.40574 7.42807L9.55674 6.66307L8.14074 6.66557L8.34074 5.65757H7.88324C7.55322 6.16331 7.07256 6.55249 6.50924 6.77007L6.38074 7.42957H6.99974C6.99974 7.42957 6.79024 8.37657 6.71974 8.72607C6.54474 9.61607 6.98474 10.2471 7.66074 10.2471H8.80474L9.00474 9.40207H8.04774C7.62274 9.40207 7.64524 9.16957 7.72774 8.75707L7.99124 7.42607L9.40574 7.42807Z" fill="white"/>
</g>
<defs>
<clipPath id="clip0_8504_12888">
<rect width="16" height="16" fill="white" transform="translate(0.0212402 0.000244141)"/>
</clipPath>
</defs>
</svg>
