<svg width="17" height="16" viewBox="0 0 17 16" fill="none" xmlns="http://www.w3.org/2000/svg">
<g clip-path="url(#clip0_8504_13016)">
<path d="M8.78711 16.0002C13.2054 16.0002 16.7871 12.4185 16.7871 8.00024C16.7871 3.58197 13.2054 0.000244141 8.78711 0.000244141C4.36883 0.000244141 0.787109 3.58197 0.787109 8.00024C0.787109 12.4185 4.36883 16.0002 8.78711 16.0002Z" fill="#0899CD"/>
<path d="M14.2721 8.43374C14.1786 9.76824 13.6461 10.9192 12.6746 11.8877C12.4296 12.1332 12.1731 12.3507 11.9046 12.5402C11.8929 12.5225 11.88 12.5054 11.8661 12.4892L14.2111 8.42674C14.2311 8.43024 14.2511 8.43274 14.2721 8.43374ZM11.6536 12.7077C10.8086 13.2362 9.85261 13.5002 8.78711 13.5002C7.76861 13.5002 6.85011 13.2587 6.03161 12.7762C6.15461 12.8487 6.27961 12.9152 6.40711 12.9762C6.41973 12.9556 6.43044 12.9338 6.43911 12.9112H11.1351C11.1436 12.9338 11.1541 12.9556 11.1666 12.9762C11.3331 12.8962 11.4951 12.8062 11.6536 12.7077ZM5.66961 12.5427C5.39293 12.3471 5.13364 12.1279 4.89461 11.8877C3.92611 10.9192 3.39561 9.76774 3.30211 8.43374C3.32242 8.43295 3.34265 8.43061 3.36261 8.42674L5.70811 12.4892C5.69378 12.506 5.6809 12.5239 5.66961 12.5427ZM3.28711 7.91524C3.30711 6.43174 3.84211 5.16224 4.89411 4.10724C5.96961 3.03624 7.26711 2.50024 8.78711 2.50024C10.3071 2.50024 11.6031 3.03624 12.6746 4.10774C13.7446 5.17774 14.2821 6.46874 14.2871 7.97974C14.2869 7.84511 14.2819 7.71052 14.2721 7.57624C14.2518 7.5772 14.2316 7.5797 14.2116 7.58374L11.8686 3.51374C11.8831 3.49684 11.8961 3.47878 11.9076 3.45974C11.6739 3.29425 11.4269 3.14841 11.1691 3.02374C11.1556 3.04631 11.1442 3.07008 11.1351 3.09474H6.43911C6.43003 3.07006 6.41864 3.04629 6.40511 3.02374C6.14961 3.14674 5.90361 3.29124 5.66711 3.45774C5.67861 3.47774 5.69211 3.49774 5.70811 3.51574L3.36261 7.58374C3.3425 7.57966 3.32211 7.57715 3.30161 7.57624C3.29411 7.68824 3.28911 7.80124 3.28761 7.91574L3.28711 7.91524ZM13.9601 7.72924C13.9265 7.76716 13.9001 7.81087 13.8821 7.85824H11.9436C11.9211 7.7996 11.8861 7.74655 11.8411 7.70274C11.7972 7.65767 11.7439 7.62269 11.6851 7.60024V3.78624L13.9601 7.72974V7.72924ZM13.8821 8.15074C13.9001 8.1981 13.9265 8.24181 13.9601 8.27974L11.6851 12.2187V8.40874C11.7439 8.38646 11.7971 8.35165 11.8411 8.30674C11.8862 8.26277 11.9211 8.20955 11.9436 8.15074H13.8821ZM3.69211 7.85874C3.67412 7.81138 3.64769 7.76767 3.61411 7.72974L5.88911 3.78624V7.60074C5.83029 7.62319 5.77706 7.65817 5.73311 7.70324C5.6881 7.74706 5.65314 7.80011 5.63061 7.85874H3.69211ZM6.43461 3.39674C6.43661 3.39359 6.43829 3.39024 6.43961 3.38674H11.1356C11.1538 3.434 11.1802 3.47767 11.2136 3.51574L9.77861 5.99574C9.68007 5.97633 9.57783 5.99358 9.49111 6.04424L6.43461 3.39674ZM6.43961 7.85874C6.4171 7.8001 6.38213 7.74705 6.33711 7.70324C6.29315 7.65818 6.23992 7.62321 6.18111 7.60074V3.78624L8.45861 7.72474C8.42568 7.76449 8.40027 7.80989 8.38361 7.85874H6.43961ZM10.1056 6.57024C10.1236 6.52108 10.1326 6.46909 10.1321 6.41674C10.1333 6.31598 10.0977 6.21823 10.0321 6.14174L11.3941 3.78674V7.60024C11.3721 7.60825 11.3509 7.61812 11.3306 7.62974L10.1056 6.56974V6.57024ZM9.30411 6.26374C9.28429 6.3123 9.27427 6.3643 9.27461 6.41674C9.27461 6.52174 9.30861 6.61374 9.37711 6.69224L8.86311 7.57874C8.81327 7.56882 8.76195 7.56882 8.71211 7.57874L6.59511 3.92024L9.30361 6.26374H9.30411ZM9.19411 7.85874C9.17642 7.80999 9.15018 7.76478 9.11661 7.72524L9.62811 6.83824C9.72665 6.85766 9.82889 6.84041 9.91561 6.78974L11.1406 7.84924C11.1392 7.85271 11.1375 7.85605 11.1356 7.85924H9.19411V7.85874ZM11.2381 8.30724C11.2821 8.35231 11.3353 8.38728 11.3941 8.40974V12.2187L9.11661 8.27324C9.14779 8.23708 9.17248 8.19581 9.18961 8.15124H11.1356C11.1581 8.21005 11.1931 8.26327 11.2381 8.30724ZM8.71711 8.42424C8.76563 8.43074 8.81484 8.4299 8.86311 8.42174L10.9796 12.0872L8.27361 9.74674C8.2918 9.69763 8.30095 9.64562 8.30061 9.59324C8.30182 9.49247 8.26627 9.39471 8.20061 9.31824L8.71711 8.42424ZM11.1406 12.6087C11.1392 12.6122 11.1375 12.6155 11.1356 12.6187H6.43961C6.42236 12.5714 6.39679 12.5276 6.36411 12.4892L7.79611 10.0142C7.89465 10.0337 7.99691 10.0165 8.08361 9.96574L11.1406 12.6087ZM7.94711 9.17174C7.84857 9.15223 7.7463 9.16949 7.65961 9.22024L6.43461 8.16124C6.43658 8.15807 6.43825 8.15472 6.43961 8.15124H8.38561C8.40261 8.19624 8.42761 8.23874 8.46111 8.27774L7.94711 9.17174ZM7.47211 9.43974C7.45238 9.48849 7.44253 9.54066 7.44311 9.59324C7.44311 9.69824 7.47711 9.78974 7.54561 9.86824L6.18111 12.2212V8.40924C6.20307 8.40142 6.22432 8.39172 6.24461 8.38024L7.47211 9.44024V9.43974ZM5.73311 8.30724C5.77708 8.3523 5.83031 8.38727 5.88911 8.40974V12.2187L3.61411 8.28024C3.64769 8.24231 3.67411 8.1986 3.69211 8.15124H5.63061C5.65309 8.21005 5.68806 8.26327 5.73311 8.30724Z" fill="white"/>
</g>
<defs>
<clipPath id="clip0_8504_13016">
<rect width="16" height="16" fill="white" transform="translate(0.787109 0.000244141)"/>
</clipPath>
</defs>
</svg>
