<svg width="28" height="16" viewBox="0 0 28 16" fill="none" xmlns="http://www.w3.org/2000/svg">
<g clip-path="url(#clip0_8504_12920)">
<path d="M8.83325 16.0002C13.2515 16.0002 16.8333 12.4185 16.8333 8.00024C16.8333 3.58197 13.2515 0.000244141 8.83325 0.000244141C4.41497 0.000244141 0.833252 3.58197 0.833252 8.00024C0.833252 12.4185 4.41497 16.0002 8.83325 16.0002Z" fill="url(#paint0_linear_8504_12920)"/>
<path d="M7.90688 10.7066C8.23798 10.7066 8.50639 10.4382 8.50639 10.1071C8.50639 9.77598 8.23798 9.50757 7.90688 9.50757C7.57578 9.50757 7.30737 9.77598 7.30737 10.1071C7.30737 10.4382 7.57578 10.7066 7.90688 10.7066Z" fill="black"/>
<path d="M9.67739 10.7066C10.0085 10.7066 10.2769 10.4382 10.2769 10.1071C10.2769 9.77598 10.0085 9.50757 9.67739 9.50757C9.34629 9.50757 9.07788 9.77598 9.07788 10.1071C9.07788 10.4382 9.34629 10.7066 9.67739 10.7066Z" fill="black"/>
<path d="M11.4474 10.7066C11.7785 10.7066 12.0469 10.4382 12.0469 10.1071C12.0469 9.77598 11.7785 9.50757 11.4474 9.50757C11.1163 9.50757 10.8479 9.77598 10.8479 10.1071C10.8479 10.4382 11.1163 10.7066 11.4474 10.7066Z" fill="black"/>
<path d="M13.2191 10.7066C13.5502 10.7066 13.8186 10.4382 13.8186 10.1071C13.8186 9.77598 13.5502 9.50757 13.2191 9.50757C12.888 9.50757 12.6196 9.77598 12.6196 10.1071C12.6196 10.4382 12.888 10.7066 13.2191 10.7066Z" fill="black"/>
<path d="M14.9906 10.7066C15.3217 10.7066 15.5901 10.4382 15.5901 10.1071C15.5901 9.77598 15.3217 9.50757 14.9906 9.50757C14.6595 9.50757 14.3911 9.77598 14.3911 10.1071C14.3911 10.4382 14.6595 10.7066 14.9906 10.7066Z" fill="black"/>
<path d="M16.7606 10.7066C17.0917 10.7066 17.3602 10.4382 17.3602 10.1071C17.3602 9.77598 17.0917 9.50757 16.7606 9.50757C16.4295 9.50757 16.1611 9.77598 16.1611 10.1071C16.1611 10.4382 16.4295 10.7066 16.7606 10.7066Z" fill="black"/>
<path d="M18.5324 10.7066C18.8635 10.7066 19.1319 10.4382 19.1319 10.1071C19.1319 9.77598 18.8635 9.50757 18.5324 9.50757C18.2013 9.50757 17.9329 9.77598 17.9329 10.1071C17.9329 10.4382 18.2013 10.7066 18.5324 10.7066Z" fill="black"/>
<path d="M20.3024 10.7066C20.6335 10.7066 20.9019 10.4382 20.9019 10.1071C20.9019 9.77598 20.6335 9.50757 20.3024 9.50757C19.9713 9.50757 19.7029 9.77598 19.7029 10.1071C19.7029 10.4382 19.9713 10.7066 20.3024 10.7066Z" fill="black"/>
<path d="M22.0729 10.7066C22.404 10.7066 22.6724 10.4382 22.6724 10.1071C22.6724 9.77598 22.404 9.50757 22.0729 9.50757C21.7418 9.50757 21.4734 9.77598 21.4734 10.1071C21.4734 10.4382 21.7418 10.7066 22.0729 10.7066Z" fill="black"/>
<path d="M23.0593 12.3148C23.2872 12.3148 23.472 12.13 23.472 11.902C23.472 11.6741 23.2872 11.4893 23.0593 11.4893C22.8313 11.4893 22.6465 11.6741 22.6465 11.902C22.6465 12.13 22.8313 12.3148 23.0593 12.3148Z" fill="black"/>
<path d="M21.2287 12.3148C21.4567 12.3148 21.6415 12.13 21.6415 11.902C21.6415 11.6741 21.4567 11.4893 21.2287 11.4893C21.0007 11.4893 20.8159 11.6741 20.8159 11.902C20.8159 12.13 21.0007 12.3148 21.2287 12.3148Z" fill="black"/>
<path d="M19.3996 12.3148C19.6276 12.3148 19.8124 12.13 19.8124 11.902C19.8124 11.6741 19.6276 11.4893 19.3996 11.4893C19.1716 11.4893 18.9868 11.6741 18.9868 11.902C18.9868 12.13 19.1716 12.3148 19.3996 12.3148Z" fill="black"/>
<path d="M17.5705 12.3148C17.7985 12.3148 17.9833 12.13 17.9833 11.902C17.9833 11.6741 17.7985 11.4893 17.5705 11.4893C17.3425 11.4893 17.1577 11.6741 17.1577 11.902C17.1577 12.13 17.3425 12.3148 17.5705 12.3148Z" fill="black"/>
<path d="M15.7399 12.3148C15.9679 12.3148 16.1527 12.13 16.1527 11.902C16.1527 11.6741 15.9679 11.4893 15.7399 11.4893C15.512 11.4893 15.3271 11.6741 15.3271 11.902C15.3271 12.13 15.512 12.3148 15.7399 12.3148Z" fill="black"/>
<path d="M13.9094 12.3148C14.1373 12.3148 14.3221 12.13 14.3221 11.902C14.3221 11.6741 14.1373 11.4893 13.9094 11.4893C13.6814 11.4893 13.4966 11.6741 13.4966 11.902C13.4966 12.13 13.6814 12.3148 13.9094 12.3148Z" fill="black"/>
<path d="M12.0803 12.3148C12.3082 12.3148 12.493 12.13 12.493 11.902C12.493 11.6741 12.3082 11.4893 12.0803 11.4893C11.8523 11.4893 11.6675 11.6741 11.6675 11.902C11.6675 12.13 11.8523 12.3148 12.0803 12.3148Z" fill="black"/>
<path d="M10.2497 12.3148C10.4777 12.3148 10.6625 12.13 10.6625 11.902C10.6625 11.6741 10.4777 11.4893 10.2497 11.4893C10.0217 11.4893 9.83691 11.6741 9.83691 11.902C9.83691 12.13 10.0217 12.3148 10.2497 12.3148Z" fill="black"/>
<path d="M8.42059 12.3148C8.64856 12.3148 8.83336 12.13 8.83336 11.902C8.83336 11.6741 8.64856 11.4893 8.42059 11.4893C8.19262 11.4893 8.00781 11.6741 8.00781 11.902C8.00781 12.13 8.19262 12.3148 8.42059 12.3148Z" fill="black"/>
<path d="M24.0311 13.5639C24.2523 13.5639 24.4316 13.3846 24.4316 13.1634C24.4316 12.9422 24.2523 12.7629 24.0311 12.7629C23.8099 12.7629 23.6306 12.9422 23.6306 13.1634C23.6306 13.3846 23.8099 13.5639 24.0311 13.5639Z" fill="black"/>
<path d="M22.1749 13.5639C22.3961 13.5639 22.5754 13.3846 22.5754 13.1634C22.5754 12.9422 22.3961 12.7629 22.1749 12.7629C21.9537 12.7629 21.7744 12.9422 21.7744 13.1634C21.7744 13.3846 21.9537 13.5639 22.1749 13.5639Z" fill="black"/>
<path d="M20.3185 13.5639C20.5396 13.5639 20.719 13.3846 20.719 13.1634C20.719 12.9422 20.5396 12.7629 20.3185 12.7629C20.0973 12.7629 19.918 12.9422 19.918 13.1634C19.918 13.3846 20.0973 13.5639 20.3185 13.5639Z" fill="black"/>
<path d="M18.4635 13.5639C18.6847 13.5639 18.864 13.3846 18.864 13.1634C18.864 12.9422 18.6847 12.7629 18.4635 12.7629C18.2423 12.7629 18.063 12.9422 18.063 13.1634C18.063 13.3846 18.2423 13.5639 18.4635 13.5639Z" fill="black"/>
<path d="M16.607 13.5639C16.8282 13.5639 17.0075 13.3846 17.0075 13.1634C17.0075 12.9422 16.8282 12.7629 16.607 12.7629C16.3858 12.7629 16.2065 12.9422 16.2065 13.1634C16.2065 13.3846 16.3858 13.5639 16.607 13.5639Z" fill="black"/>
<path d="M14.7511 13.5639C14.9723 13.5639 15.1516 13.3846 15.1516 13.1634C15.1516 12.9422 14.9723 12.7629 14.7511 12.7629C14.5299 12.7629 14.3506 12.9422 14.3506 13.1634C14.3506 13.3846 14.5299 13.5639 14.7511 13.5639Z" fill="black"/>
<path d="M12.8959 13.5639C13.117 13.5639 13.2963 13.3846 13.2963 13.1634C13.2963 12.9422 13.117 12.7629 12.8959 12.7629C12.6747 12.7629 12.4954 12.9422 12.4954 13.1634C12.4954 13.3846 12.6747 13.5639 12.8959 13.5639Z" fill="black"/>
<path d="M11.0399 13.5639C11.2611 13.5639 11.4404 13.3846 11.4404 13.1634C11.4404 12.9422 11.2611 12.7629 11.0399 12.7629C10.8187 12.7629 10.6394 12.9422 10.6394 13.1634C10.6394 13.3846 10.8187 13.5639 11.0399 13.5639Z" fill="black"/>
<path d="M9.18345 13.5639C9.40464 13.5639 9.58394 13.3846 9.58394 13.1634C9.58394 12.9422 9.40464 12.7629 9.18345 12.7629C8.96227 12.7629 8.78296 12.9422 8.78296 13.1634C8.78296 13.3846 8.96227 13.5639 9.18345 13.5639Z" fill="black"/>
<path d="M25.3245 14.7422C25.4934 14.7422 25.6304 14.6052 25.6304 14.4363C25.6304 14.2673 25.4934 14.1304 25.3245 14.1304C25.1555 14.1304 25.0186 14.2673 25.0186 14.4363C25.0186 14.6052 25.1555 14.7422 25.3245 14.7422Z" fill="black"/>
<path d="M23.4438 14.7422C23.6128 14.7422 23.7497 14.6052 23.7497 14.4363C23.7497 14.2673 23.6128 14.1304 23.4438 14.1304C23.2749 14.1304 23.1379 14.2673 23.1379 14.4363C23.1379 14.6052 23.2749 14.7422 23.4438 14.7422Z" fill="black"/>
<path d="M21.563 14.7422C21.7319 14.7422 21.8689 14.6052 21.8689 14.4363C21.8689 14.2673 21.7319 14.1304 21.563 14.1304C21.394 14.1304 21.2571 14.2673 21.2571 14.4363C21.2571 14.6052 21.394 14.7422 21.563 14.7422Z" fill="black"/>
<path d="M19.6831 14.7422C19.852 14.7422 19.989 14.6052 19.989 14.4363C19.989 14.2673 19.852 14.1304 19.6831 14.1304C19.5142 14.1304 19.3772 14.2673 19.3772 14.4363C19.3772 14.6052 19.5142 14.7422 19.6831 14.7422Z" fill="black"/>
<path d="M17.8025 14.7422C17.9714 14.7422 18.1084 14.6052 18.1084 14.4363C18.1084 14.2673 17.9714 14.1304 17.8025 14.1304C17.6335 14.1304 17.4966 14.2673 17.4966 14.4363C17.4966 14.6052 17.6335 14.7422 17.8025 14.7422Z" fill="black"/>
<path d="M15.9216 14.7422C16.0906 14.7422 16.2275 14.6052 16.2275 14.4363C16.2275 14.2673 16.0906 14.1304 15.9216 14.1304C15.7527 14.1304 15.6157 14.2673 15.6157 14.4363C15.6157 14.6052 15.7527 14.7422 15.9216 14.7422Z" fill="black"/>
<path d="M14.0408 14.7422C14.2097 14.7422 14.3467 14.6052 14.3467 14.4363C14.3467 14.2673 14.2097 14.1304 14.0408 14.1304C13.8718 14.1304 13.7349 14.2673 13.7349 14.4363C13.7349 14.6052 13.8718 14.7422 14.0408 14.7422Z" fill="black"/>
<path d="M12.1611 14.7422C12.3301 14.7422 12.467 14.6052 12.467 14.4363C12.467 14.2673 12.3301 14.1304 12.1611 14.1304C11.9922 14.1304 11.8552 14.2673 11.8552 14.4363C11.8552 14.6052 11.9922 14.7422 12.1611 14.7422Z" fill="black"/>
<path d="M10.2803 14.7422C10.4492 14.7422 10.5862 14.6052 10.5862 14.4363C10.5862 14.2673 10.4492 14.1304 10.2803 14.1304C10.1113 14.1304 9.97437 14.2673 9.97437 14.4363C9.97437 14.6052 10.1113 14.7422 10.2803 14.7422Z" fill="black"/>
<path d="M26.8308 15.8047C26.9604 15.8047 27.0655 15.6997 27.0655 15.5701C27.0655 15.4405 26.9604 15.3354 26.8308 15.3354C26.7012 15.3354 26.5962 15.4405 26.5962 15.5701C26.5962 15.6997 26.7012 15.8047 26.8308 15.8047Z" fill="black"/>
<path d="M24.9353 15.8047C25.0649 15.8047 25.17 15.6997 25.17 15.5701C25.17 15.4405 25.0649 15.3354 24.9353 15.3354C24.8057 15.3354 24.7007 15.4405 24.7007 15.5701C24.7007 15.6997 24.8057 15.8047 24.9353 15.8047Z" fill="black"/>
<path d="M23.0386 15.8047C23.1682 15.8047 23.2732 15.6997 23.2732 15.5701C23.2732 15.4405 23.1682 15.3354 23.0386 15.3354C22.909 15.3354 22.804 15.4405 22.804 15.5701C22.804 15.6997 22.909 15.8047 23.0386 15.8047Z" fill="black"/>
<path d="M21.1426 15.8047C21.2722 15.8047 21.3772 15.6997 21.3772 15.5701C21.3772 15.4405 21.2722 15.3354 21.1426 15.3354C21.013 15.3354 20.908 15.4405 20.908 15.5701C20.908 15.6997 21.013 15.8047 21.1426 15.8047Z" fill="black"/>
<path d="M19.2473 15.8047C19.3769 15.8047 19.482 15.6997 19.482 15.5701C19.482 15.4405 19.3769 15.3354 19.2473 15.3354C19.1177 15.3354 19.0127 15.4405 19.0127 15.5701C19.0127 15.6997 19.1177 15.8047 19.2473 15.8047Z" fill="black"/>
<path d="M17.3504 15.8047C17.48 15.8047 17.585 15.6997 17.585 15.5701C17.585 15.4405 17.48 15.3354 17.3504 15.3354C17.2208 15.3354 17.1157 15.4405 17.1157 15.5701C17.1157 15.6997 17.2208 15.8047 17.3504 15.8047Z" fill="black"/>
<path d="M15.4551 15.8047C15.5847 15.8047 15.6897 15.6997 15.6897 15.5701C15.6897 15.4405 15.5847 15.3354 15.4551 15.3354C15.3255 15.3354 15.2205 15.4405 15.2205 15.5701C15.2205 15.6997 15.3255 15.8047 15.4551 15.8047Z" fill="black"/>
<path d="M13.5591 15.8047C13.6887 15.8047 13.7938 15.6997 13.7938 15.5701C13.7938 15.4405 13.6887 15.3354 13.5591 15.3354C13.4295 15.3354 13.3245 15.4405 13.3245 15.5701C13.3245 15.6997 13.4295 15.8047 13.5591 15.8047Z" fill="black"/>
<path d="M11.6624 15.8047C11.792 15.8047 11.897 15.6997 11.897 15.5701C11.897 15.4405 11.792 15.3354 11.6624 15.3354C11.5328 15.3354 11.4277 15.4405 11.4277 15.5701C11.4277 15.6997 11.5328 15.8047 11.6624 15.8047Z" fill="black"/>
<path d="M7.04437 8.8258C7.27234 8.8258 7.45714 8.64099 7.45714 8.41302C7.45714 8.18505 7.27234 8.00024 7.04437 8.00024C6.8164 8.00024 6.63159 8.18505 6.63159 8.41302C6.63159 8.64099 6.8164 8.8258 7.04437 8.8258Z" fill="black"/>
<path d="M8.87396 8.8258C9.10193 8.8258 9.28673 8.64099 9.28673 8.41302C9.28673 8.18505 9.10193 8.00024 8.87396 8.00024C8.64599 8.00024 8.46118 8.18505 8.46118 8.41302C8.46118 8.64099 8.64599 8.8258 8.87396 8.8258Z" fill="black"/>
<path d="M10.704 8.8258C10.932 8.8258 11.1168 8.64099 11.1168 8.41302C11.1168 8.18505 10.932 8.00024 10.704 8.00024C10.4761 8.00024 10.2913 8.18505 10.2913 8.41302C10.2913 8.64099 10.4761 8.8258 10.704 8.8258Z" fill="black"/>
<path d="M12.5336 8.8258C12.7616 8.8258 12.9464 8.64099 12.9464 8.41302C12.9464 8.18505 12.7616 8.00024 12.5336 8.00024C12.3057 8.00024 12.1208 8.18505 12.1208 8.41302C12.1208 8.64099 12.3057 8.8258 12.5336 8.8258Z" fill="black"/>
<path d="M14.3642 8.8258C14.5922 8.8258 14.777 8.64099 14.777 8.41302C14.777 8.18505 14.5922 8.00024 14.3642 8.00024C14.1362 8.00024 13.9514 8.18505 13.9514 8.41302C13.9514 8.64099 14.1362 8.8258 14.3642 8.8258Z" fill="black"/>
<path d="M16.1943 8.8258C16.4222 8.8258 16.607 8.64099 16.607 8.41302C16.607 8.18505 16.4222 8.00024 16.1943 8.00024C15.9663 8.00024 15.7815 8.18505 15.7815 8.41302C15.7815 8.64099 15.9663 8.8258 16.1943 8.8258Z" fill="black"/>
<path d="M18.0239 8.8258C18.2518 8.8258 18.4366 8.64099 18.4366 8.41302C18.4366 8.18505 18.2518 8.00024 18.0239 8.00024C17.7959 8.00024 17.6111 8.18505 17.6111 8.41302C17.6111 8.64099 17.7959 8.8258 18.0239 8.8258Z" fill="black"/>
<path d="M19.8539 8.8258C20.0819 8.8258 20.2667 8.64099 20.2667 8.41302C20.2667 8.18505 20.0819 8.00024 19.8539 8.00024C19.626 8.00024 19.4412 8.18505 19.4412 8.41302C19.4412 8.64099 19.626 8.8258 19.8539 8.8258Z" fill="black"/>
<path d="M21.6835 8.8258C21.9115 8.8258 22.0963 8.64099 22.0963 8.41302C22.0963 8.18505 21.9115 8.00024 21.6835 8.00024C21.4556 8.00024 21.2708 8.18505 21.2708 8.41302C21.2708 8.64099 21.4556 8.8258 21.6835 8.8258Z" fill="black"/>
<path d="M6.07261 7.55172C6.2938 7.55172 6.4731 7.37241 6.4731 7.15122C6.4731 6.93004 6.2938 6.75073 6.07261 6.75073C5.85143 6.75073 5.67212 6.93004 5.67212 7.15122C5.67212 7.37241 5.85143 7.55172 6.07261 7.55172Z" fill="black"/>
<path d="M7.92905 7.55172C8.15024 7.55172 8.32954 7.37241 8.32954 7.15122C8.32954 6.93004 8.15024 6.75073 7.92905 6.75073C7.70787 6.75073 7.52856 6.93004 7.52856 7.15122C7.52856 7.37241 7.70787 7.55172 7.92905 7.55172Z" fill="black"/>
<path d="M9.7855 7.55172C10.0067 7.55172 10.186 7.37241 10.186 7.15122C10.186 6.93004 10.0067 6.75073 9.7855 6.75073C9.56432 6.75073 9.38501 6.93004 9.38501 7.15122C9.38501 7.37241 9.56432 7.55172 9.7855 7.55172Z" fill="black"/>
<path d="M11.6405 7.55172C11.8617 7.55172 12.041 7.37241 12.041 7.15122C12.041 6.93004 11.8617 6.75073 11.6405 6.75073C11.4193 6.75073 11.24 6.93004 11.24 7.15122C11.24 7.37241 11.4193 7.55172 11.6405 7.55172Z" fill="black"/>
<path d="M13.4967 7.55172C13.7179 7.55172 13.8972 7.37241 13.8972 7.15122C13.8972 6.93004 13.7179 6.75073 13.4967 6.75073C13.2755 6.75073 13.0962 6.93004 13.0962 7.15122C13.0962 7.37241 13.2755 7.55172 13.4967 7.55172Z" fill="black"/>
<path d="M15.3517 7.55172C15.5729 7.55172 15.7522 7.37241 15.7522 7.15122C15.7522 6.93004 15.5729 6.75073 15.3517 6.75073C15.1305 6.75073 14.9512 6.93004 14.9512 7.15122C14.9512 7.37241 15.1305 7.55172 15.3517 7.55172Z" fill="black"/>
<path d="M17.2081 7.55172C17.4293 7.55172 17.6086 7.37241 17.6086 7.15122C17.6086 6.93004 17.4293 6.75073 17.2081 6.75073C16.9869 6.75073 16.8076 6.93004 16.8076 7.15122C16.8076 7.37241 16.9869 7.55172 17.2081 7.55172Z" fill="black"/>
<path d="M19.0641 7.55172C19.2853 7.55172 19.4646 7.37241 19.4646 7.15122C19.4646 6.93004 19.2853 6.75073 19.0641 6.75073C18.8429 6.75073 18.6636 6.93004 18.6636 7.15122C18.6636 7.37241 18.8429 7.55172 19.0641 7.55172Z" fill="black"/>
<path d="M20.919 7.55172C21.1402 7.55172 21.3195 7.37241 21.3195 7.15122C21.3195 6.93004 21.1402 6.75073 20.919 6.75073C20.6979 6.75073 20.5186 6.93004 20.5186 7.15122C20.5186 7.37241 20.6979 7.55172 20.919 7.55172Z" fill="black"/>
<path d="M4.77929 6.18455C4.94823 6.18455 5.08518 6.04759 5.08518 5.87865C5.08518 5.70971 4.94823 5.57275 4.77929 5.57275C4.61034 5.57275 4.47339 5.70971 4.47339 5.87865C4.47339 6.04759 4.61034 6.18455 4.77929 6.18455Z" fill="black"/>
<path d="M6.66014 6.18455C6.82909 6.18455 6.96604 6.04759 6.96604 5.87865C6.96604 5.70971 6.82909 5.57275 6.66014 5.57275C6.4912 5.57275 6.35425 5.70971 6.35425 5.87865C6.35425 6.04759 6.4912 6.18455 6.66014 6.18455Z" fill="black"/>
<path d="M8.54076 6.18455C8.70971 6.18455 8.84666 6.04759 8.84666 5.87865C8.84666 5.70971 8.70971 5.57275 8.54076 5.57275C8.37182 5.57275 8.23486 5.70971 8.23486 5.87865C8.23486 6.04759 8.37182 6.18455 8.54076 6.18455Z" fill="black"/>
<path d="M10.4206 6.18455C10.5896 6.18455 10.7265 6.04759 10.7265 5.87865C10.7265 5.70971 10.5896 5.57275 10.4206 5.57275C10.2517 5.57275 10.1147 5.70971 10.1147 5.87865C10.1147 6.04759 10.2517 6.18455 10.4206 6.18455Z" fill="black"/>
<path d="M12.3015 6.18455C12.4704 6.18455 12.6074 6.04759 12.6074 5.87865C12.6074 5.70971 12.4704 5.57275 12.3015 5.57275C12.1326 5.57275 11.9956 5.70971 11.9956 5.87865C11.9956 6.04759 12.1326 6.18455 12.3015 6.18455Z" fill="black"/>
<path d="M14.1821 6.18455C14.3511 6.18455 14.488 6.04759 14.488 5.87865C14.488 5.70971 14.3511 5.57275 14.1821 5.57275C14.0132 5.57275 13.8762 5.70971 13.8762 5.87865C13.8762 6.04759 14.0132 6.18455 14.1821 6.18455Z" fill="black"/>
<path d="M16.063 6.18455C16.2319 6.18455 16.3689 6.04759 16.3689 5.87865C16.3689 5.70971 16.2319 5.57275 16.063 5.57275C15.894 5.57275 15.7571 5.70971 15.7571 5.87865C15.7571 6.04759 15.894 6.18455 16.063 6.18455Z" fill="black"/>
<path d="M17.9429 6.18455C18.1118 6.18455 18.2488 6.04759 18.2488 5.87865C18.2488 5.70971 18.1118 5.57275 17.9429 5.57275C17.7739 5.57275 17.637 5.70971 17.637 5.87865C17.637 6.04759 17.7739 6.18455 17.9429 6.18455Z" fill="black"/>
<path d="M19.8235 6.18455C19.9924 6.18455 20.1294 6.04759 20.1294 5.87865C20.1294 5.70971 19.9924 5.57275 19.8235 5.57275C19.6545 5.57275 19.5176 5.70971 19.5176 5.87865C19.5176 6.04759 19.6545 6.18455 19.8235 6.18455Z" fill="black"/>
<path d="M3.27297 4.9793C3.40256 4.9793 3.50762 4.87424 3.50762 4.74465C3.50762 4.61506 3.40256 4.51001 3.27297 4.51001C3.14338 4.51001 3.03833 4.61506 3.03833 4.74465C3.03833 4.87424 3.14338 4.9793 3.27297 4.9793Z" fill="black"/>
<path d="M5.16873 4.9793C5.29832 4.9793 5.40337 4.87424 5.40337 4.74465C5.40337 4.61506 5.29832 4.51001 5.16873 4.51001C5.03914 4.51001 4.93408 4.61506 4.93408 4.74465C4.93408 4.87424 5.03914 4.9793 5.16873 4.9793Z" fill="black"/>
<path d="M7.06423 4.9793C7.19382 4.9793 7.29888 4.87424 7.29888 4.74465C7.29888 4.61506 7.19382 4.51001 7.06423 4.51001C6.93464 4.51001 6.82959 4.61506 6.82959 4.74465C6.82959 4.87424 6.93464 4.9793 7.06423 4.9793Z" fill="black"/>
<path d="M8.96096 4.9793C9.09055 4.9793 9.1956 4.87424 9.1956 4.74465C9.1956 4.61506 9.09055 4.51001 8.96096 4.51001C8.83137 4.51001 8.72632 4.61506 8.72632 4.74465C8.72632 4.87424 8.83137 4.9793 8.96096 4.9793Z" fill="black"/>
<path d="M10.8565 4.9793C10.9861 4.9793 11.0911 4.87424 11.0911 4.74465C11.0911 4.61506 10.9861 4.51001 10.8565 4.51001C10.7269 4.51001 10.6218 4.61506 10.6218 4.74465C10.6218 4.87424 10.7269 4.9793 10.8565 4.9793Z" fill="black"/>
<path d="M12.7532 4.9793C12.8828 4.9793 12.9878 4.87424 12.9878 4.74465C12.9878 4.61506 12.8828 4.51001 12.7532 4.51001C12.6236 4.51001 12.5186 4.61506 12.5186 4.74465C12.5186 4.87424 12.6236 4.9793 12.7532 4.9793Z" fill="black"/>
<path d="M14.6492 4.9793C14.7788 4.9793 14.8838 4.87424 14.8838 4.74465C14.8838 4.61506 14.7788 4.51001 14.6492 4.51001C14.5196 4.51001 14.4146 4.61506 14.4146 4.74465C14.4146 4.87424 14.5196 4.9793 14.6492 4.9793Z" fill="black"/>
<path d="M16.5445 4.9793C16.6741 4.9793 16.7791 4.87424 16.7791 4.74465C16.7791 4.61506 16.6741 4.51001 16.5445 4.51001C16.4149 4.51001 16.3098 4.61506 16.3098 4.74465C16.3098 4.87424 16.4149 4.9793 16.5445 4.9793Z" fill="black"/>
<path d="M18.4414 4.9793C18.571 4.9793 18.6761 4.87424 18.6761 4.74465C18.6761 4.61506 18.571 4.51001 18.4414 4.51001C18.3118 4.51001 18.2068 4.61506 18.2068 4.74465C18.2068 4.87424 18.3118 4.9793 18.4414 4.9793Z" fill="black"/>
</g>
<defs>
<linearGradient id="paint0_linear_8504_12920" x1="-2.9407" y1="8.00024" x2="13.1048" y2="8.00024" gradientUnits="userSpaceOnUse">
<stop stop-color="#3B007F"/>
<stop offset="1" stop-color="#AA003D"/>
</linearGradient>
<clipPath id="clip0_8504_12920">
<rect width="26.2322" height="16" fill="white" transform="translate(0.833252 0.000244141)"/>
</clipPath>
</defs>
</svg>
