<svg width="17" height="16" viewBox="0 0 17 16" fill="none" xmlns="http://www.w3.org/2000/svg">
<g clip-path="url(#clip0_8504_13045)">
<path d="M15.6218 4.9981C14.9159 4.34633 13.9394 3.35104 13.1442 2.64515L13.0971 2.61221C13.0188 2.54934 12.9305 2.50003 12.8359 2.46633C10.9183 2.10868 1.99356 0.440449 1.81944 0.461626C1.77066 0.468459 1.72402 0.486148 1.68297 0.51339L1.63827 0.548684C1.58322 0.60459 1.54141 0.67213 1.51592 0.746331L1.50415 0.77692V0.943979V0.969861C2.50886 3.76751 6.47592 12.9322 7.25709 15.0828C7.30415 15.2287 7.39356 15.5063 7.56062 15.5204H7.59827C7.68768 15.5204 8.06886 15.0169 8.06886 15.0169C8.06886 15.0169 14.883 6.75339 15.5724 5.87339C15.6616 5.76499 15.7404 5.64839 15.8077 5.52515C15.8249 5.42873 15.8168 5.3295 15.7842 5.23714C15.7516 5.14477 15.6957 5.06242 15.6218 4.9981ZM9.81709 5.96045L12.7253 3.54868L14.4312 5.12045L9.81709 5.96045ZM8.68768 5.8028L3.68062 1.69927L11.7818 3.19339L8.68768 5.8028ZM9.13945 6.8781L14.2642 6.05221L8.40533 13.111L9.13945 6.8781ZM3.00062 2.10868L8.26886 6.57927L7.5065 13.1157L3.00062 2.10868Z" fill="#FF060A"/>
</g>
<defs>
<clipPath id="clip0_8504_13045">
<rect width="16" height="16" fill="white" transform="translate(0.697021 0.000244141)"/>
</clipPath>
</defs>
</svg>
