<svg width="17" height="16" viewBox="0 0 17 16" fill="none" xmlns="http://www.w3.org/2000/svg">
<g clip-path="url(#clip0_8504_13048)">
<path d="M8.69702 16.0002C4.29702 16.0002 0.697021 12.4002 0.697021 8.00024C0.697021 3.60024 4.29702 0.000244141 8.69702 0.000244141C13.097 0.000244141 16.697 3.60024 16.697 8.00024C16.697 12.4002 13.097 16.0002 8.69702 16.0002Z" fill="#002868"/>
<path d="M12.729 12.8002H4.66497C4.24257 12.8002 3.89697 12.4546 3.89697 12.0322V3.9682C3.89697 3.5458 4.24257 3.2002 4.66497 3.2002H12.729C13.1514 3.2002 13.497 3.5458 13.497 3.9682V12.0322C13.497 12.4546 13.1514 12.8002 12.729 12.8002Z" fill="white"/>
<path d="M5.77025 11.8342C5.74497 11.8342 5.72449 11.8111 5.72449 11.7858V10.4959C5.72449 10.4706 5.70401 10.4476 5.67873 10.4476H5.22337C5.19777 10.4476 5.17505 10.4271 5.17505 10.4018V10.1526C5.17505 10.1273 5.19809 10.1042 5.22337 10.1042H6.62497C6.65025 10.1042 6.67329 10.127 6.67329 10.1526V10.4018C6.67329 10.4271 6.65025 10.4476 6.62497 10.4476H6.17217C6.14689 10.4476 6.12385 10.4703 6.12385 10.4959V11.7858C6.12385 11.8111 6.10337 11.8342 6.07809 11.8342H5.77025Z" fill="#002868"/>
<path d="M8.07236 10.1526C8.07236 10.1273 8.09284 10.1042 8.11812 10.1042H8.4234C8.44868 10.1042 8.47172 10.127 8.47172 10.1526V11.0329C8.47172 11.5545 8.17668 11.8572 7.70852 11.8572C7.24292 11.8572 6.95044 11.5545 6.95044 11.0329V10.1526C6.95044 10.1273 6.97092 10.1042 6.9962 10.1042H7.30148C7.32676 10.1042 7.3498 10.127 7.3498 10.1526V11.0454C7.3498 11.3023 7.48196 11.4854 7.71108 11.4854C7.9402 11.4854 8.07236 11.3023 8.07236 11.0454V10.1526Z" fill="#002868"/>
<path d="M9.87341 10.6689C9.83277 10.6689 9.81997 10.6536 9.80461 10.6232C9.75117 10.4984 9.63405 10.4197 9.45612 10.4197C9.2958 10.4197 9.16108 10.4757 9.16108 10.5825C9.16108 10.6997 9.28588 10.748 9.56045 10.7809C9.97773 10.8293 10.2168 10.9566 10.2168 11.2872C10.2168 11.6587 9.89101 11.8545 9.47404 11.8545C9.11276 11.8545 8.80236 11.6789 8.75403 11.3102C8.74891 11.2747 8.76684 11.2619 8.80236 11.2619H9.08236C9.11788 11.2619 9.13836 11.2773 9.1486 11.3051C9.18668 11.4273 9.3166 11.5214 9.50476 11.5214C9.67021 11.5214 9.81517 11.4603 9.81517 11.3307C9.81517 11.1755 9.66253 11.1477 9.35724 11.1093C9.0062 11.0635 8.76203 10.9617 8.76203 10.6385C8.76203 10.3153 9.03948 10.084 9.47436 10.084C9.86605 10.084 10.1384 10.2952 10.1944 10.6107C10.2021 10.6462 10.1918 10.6693 10.1537 10.6693H9.87341V10.6689Z" fill="#002868"/>
<path d="M10.5628 11.8342C10.5376 11.8342 10.5171 11.8111 10.5171 11.7858V10.1526C10.5171 10.1273 10.5376 10.1042 10.5628 10.1042H11.2547C11.7686 10.1042 12.168 10.4578 12.168 10.9743C12.168 11.4831 11.7737 11.8342 11.2547 11.8342H10.5628ZM11.2547 11.4905C11.5321 11.4905 11.7481 11.2716 11.7481 10.9689C11.7481 10.6662 11.5318 10.4473 11.2521 10.4473H10.9648C10.9395 10.4473 10.919 10.47 10.919 10.4956V11.4444C10.919 11.4697 10.9395 11.4902 10.9648 11.4902H11.2547V11.4905Z" fill="#002868"/>
<path d="M13.2409 9.15213H4.1529C4.0825 9.15213 4.0249 9.09453 4.0249 9.02413V3.96813C4.0249 3.61613 4.3129 3.32812 4.6649 3.32812H12.7289C13.0809 3.32812 13.3689 3.61613 13.3689 3.96813V9.02413C13.3689 9.09453 13.3113 9.15213 13.2409 9.15213Z" fill="#002868"/>
<path d="M9.16847 8.1141H8.33648C8.28368 8.1141 8.24048 8.0709 8.24048 8.0181V4.4981C8.24048 4.4453 8.28368 4.4021 8.33648 4.4021H9.16847C9.22126 4.4021 9.26446 4.4453 9.26446 4.4981V8.0181C9.26446 8.0709 9.22126 8.1141 9.16847 8.1141Z" fill="white"/>
<path d="M10.5851 5.4261H6.80913C6.75633 5.4261 6.71313 5.3829 6.71313 5.3301V4.4981C6.71313 4.4453 6.75633 4.4021 6.80913 4.4021H10.5851C10.6379 4.4021 10.6811 4.4453 10.6811 4.4981V5.3301C10.6811 5.3829 10.6379 5.4261 10.5851 5.4261Z" fill="white"/>
</g>
<defs>
<clipPath id="clip0_8504_13048">
<rect width="16" height="16" fill="white" transform="translate(0.697021 0.000244141)"/>
</clipPath>
</defs>
</svg>
