<svg width="19" height="16" viewBox="0 0 19 16" fill="none" xmlns="http://www.w3.org/2000/svg">
<g clip-path="url(#clip0_8504_12910)">
<path fill-rule="evenodd" clip-rule="evenodd" d="M4.04609 0.535386L0.889686 7.16541C0.877675 7.19007 0.873868 7.21793 0.878824 7.2449C0.883779 7.27188 0.897236 7.29657 0.917226 7.31535L9.44191 15.484C9.46612 15.5073 9.49837 15.5202 9.53192 15.5202C9.56547 15.5202 9.59772 15.5073 9.62194 15.484L18.1466 7.31586C18.1666 7.29708 18.1801 7.27239 18.185 7.24541C18.19 7.21844 18.1862 7.19058 18.1742 7.16592L15.0178 0.535896C15.0076 0.513629 14.9912 0.494767 14.9706 0.481563C14.9499 0.468359 14.926 0.461371 14.9015 0.461436H4.16339C4.13878 0.46113 4.11462 0.467949 4.09381 0.48107C4.07299 0.494192 4.05642 0.513056 4.04609 0.535386Z" fill="#50AF95"/>
<path fill-rule="evenodd" clip-rule="evenodd" d="M10.6271 7.84652C10.5659 7.85111 10.2497 7.86997 9.54436 7.86997C8.98336 7.86997 8.58505 7.85315 8.44531 7.84652C6.27729 7.75114 4.65906 7.37374 4.65906 6.92188C4.65906 6.47002 6.27729 6.09313 8.44531 5.99623V7.47064C8.58709 7.48084 8.99305 7.50481 9.55405 7.50481C10.2272 7.50481 10.5644 7.47676 10.6251 7.47115V5.99725C12.7885 6.09364 14.4031 6.47104 14.4031 6.92188C14.4031 7.37272 12.789 7.75012 10.6251 7.846L10.6271 7.84652ZM10.6271 5.84476V4.52538H13.6463V2.51343H5.4261V4.52538H8.4448V5.84425C5.99118 5.95696 4.146 6.44299 4.146 7.02541C4.146 7.60783 5.99118 8.09336 8.4448 8.20658V12.4345H10.6266V8.20505C13.0746 8.09234 14.9167 7.60681 14.9167 7.0249C14.9167 6.44299 13.0761 5.95747 10.6266 5.84425L10.6271 5.84476Z" fill="white"/>
</g>
<defs>
<clipPath id="clip0_8504_12910">
<rect width="17.8824" height="16" fill="white" transform="translate(0.71582 0.000244141)"/>
</clipPath>
</defs>
</svg>
