<svg width="17" height="16" viewBox="0 0 17 16" fill="none" xmlns="http://www.w3.org/2000/svg">
<g clip-path="url(#clip0_8504_13183)">
<path d="M13.4547 3.35815L13.0154 3.79747C14.0637 4.94385 14.645 6.44102 14.645 7.99443C14.645 9.54784 14.0637 11.045 13.0154 12.1914L13.4547 12.6307C14.6205 11.3662 15.2678 9.70923 15.2678 7.98931C15.2678 6.26938 14.6205 4.61243 13.4547 3.3479V3.35815Z" fill="#5A5564"/>
<path d="M4.21544 3.39617C5.36182 2.34788 6.85899 1.76655 8.4124 1.76655C9.96581 1.76655 11.463 2.34788 12.6094 3.39617L13.0487 2.95685C11.7841 1.79104 10.1272 1.1438 8.40728 1.1438C6.68735 1.1438 5.0304 1.79104 3.76587 2.95685L4.21544 3.39617Z" fill="#5A5564"/>
<path d="M3.80413 12.1955C2.75708 11.0494 2.17652 9.55317 2.17652 8.00078C2.17652 6.4484 2.75708 4.95214 3.80413 3.80602L3.36481 3.3667C2.199 4.63123 1.55176 6.28818 1.55176 8.00811C1.55176 9.72803 2.199 11.385 3.36481 12.6495L3.80413 12.1955Z" fill="#5A5564"/>
<path d="M12.6037 12.6016C11.4574 13.6498 9.9602 14.2312 8.40679 14.2312C6.85338 14.2312 5.3562 13.6498 4.20983 12.6016L3.77051 13.0409C5.03504 14.2067 6.69199 14.8539 8.41191 14.8539C10.1318 14.8539 11.7888 14.2067 13.0533 13.0409L12.6037 12.6016Z" fill="#5A5564"/>
<path d="M11.1816 6.53437C11.0938 5.61766 10.303 5.31013 9.30282 5.21641V3.9541H8.52962V5.19298C8.32607 5.19298 8.11812 5.19298 7.91164 5.19298V3.9541H7.1443V5.2252H5.57593V6.05258C5.57593 6.05258 6.14704 6.04233 6.13826 6.05258C6.24123 6.04125 6.34459 6.07034 6.42654 6.13372C6.50849 6.19709 6.56264 6.28981 6.57758 6.39232V9.87173C6.57538 9.90788 6.56595 9.94323 6.54985 9.97568C6.53375 10.0081 6.51131 10.037 6.48385 10.0606C6.45691 10.0847 6.42538 10.1031 6.39116 10.1147C6.35693 10.1262 6.32072 10.1308 6.2847 10.128C6.29495 10.1368 5.72237 10.128 5.72237 10.128L5.57593 11.052H7.12965V12.3436H7.90286V11.0711H8.52083V12.3378H9.2955V11.0608C10.6017 10.9817 11.5126 10.6596 11.6268 9.4368C11.7191 8.45273 11.2563 8.01341 10.5168 7.83622C10.9664 7.61509 11.2446 7.20506 11.1816 6.53437ZM10.098 9.28451C10.098 10.2452 8.452 10.1353 7.92775 10.1353V8.43076C8.452 8.43223 10.098 8.28139 10.098 9.28451ZM9.73921 6.88289C9.73921 7.76153 8.36561 7.65463 7.92921 7.65463V6.1053C8.36561 6.1053 9.73921 5.96765 9.73921 6.88289Z" fill="#F09242"/>
<path d="M8.40674 16.0002C6.82462 16 5.2781 15.5306 3.96273 14.6514C2.64736 13.7722 1.62221 12.5228 1.01689 11.061C0.411571 9.59929 0.253267 7.99088 0.561996 6.43917C0.870724 4.88745 1.63262 3.46213 2.75135 2.34339C3.87008 1.22466 5.29541 0.462765 6.84713 0.154037C8.39884 -0.154692 10.0072 0.00361173 11.469 0.608931C12.9307 1.21425 14.1802 2.2394 15.0594 3.55477C15.9385 4.87014 16.4079 6.41666 16.4082 7.99878C16.4084 9.0496 16.2016 10.0902 15.7995 11.061C15.3975 12.0319 14.8081 12.9141 14.0651 13.6571C13.322 14.4001 12.4399 14.9895 11.469 15.3916C10.4981 15.7936 9.45756 16.0004 8.40674 16.0002ZM8.40674 0.624081C6.94912 0.625239 5.52455 1.0585 4.31311 1.86909C3.10166 2.67969 2.15771 3.83123 1.60057 5.17818C1.04343 6.52513 0.898108 8.00701 1.18297 9.43653C1.46784 10.866 2.1701 12.179 3.201 13.2095C4.2319 14.24 5.54517 14.9418 6.9748 15.2261C8.40443 15.5103 9.88625 15.3644 11.233 14.8068C12.5797 14.2491 13.7309 13.3047 14.541 12.0929C15.3511 10.8811 15.7838 9.45641 15.7844 7.99878C15.7848 7.02997 15.5942 6.07058 15.2235 5.17547C14.8529 4.28037 14.3094 3.46711 13.6242 2.78219C12.939 2.09727 12.1255 1.55413 11.2303 1.18382C10.335 0.813516 9.37556 0.623311 8.40674 0.624081Z" fill="#282138"/>
</g>
<defs>
<clipPath id="clip0_8504_13183">
<rect width="16" height="16" fill="white" transform="translate(0.408203 0.000244141)"/>
</clipPath>
</defs>
</svg>
