<svg width="17" height="16" viewBox="0 0 17 16" fill="none" xmlns="http://www.w3.org/2000/svg">
<g clip-path="url(#clip0_8504_13172)">
<path d="M8.4082 16.0002C12.8265 16.0002 16.4082 12.4185 16.4082 8.00024C16.4082 3.58197 12.8265 0.000244141 8.4082 0.000244141C3.98992 0.000244141 0.408203 3.58197 0.408203 8.00024C0.408203 12.4185 3.98992 16.0002 8.4082 16.0002Z" fill="#FFE600"/>
<path fill-rule="evenodd" clip-rule="evenodd" d="M2.40479 2.713C2.80038 2.26416 3.24479 1.86083 3.72979 1.5105L5.95579 9.4695L6.94229 5.2505H8.81229L9.79829 9.4695L10.9668 5.2505H12.8413L12.8588 5.3255L14.8958 12.6825C14.5266 13.1933 14.0987 13.659 13.6208 14.07L11.9023 7.865L10.9223 11.404L10.9048 11.479H8.81178L7.87729 8.013L6.94229 11.479H4.84929L4.83179 11.404L2.40479 2.713Z" fill="white"/>
</g>
<defs>
<clipPath id="clip0_8504_13172">
<rect width="16" height="16" fill="white" transform="translate(0.408203 0.000244141)"/>
</clipPath>
</defs>
</svg>
