<svg width="24" height="16" viewBox="0 0 24 16" fill="none" xmlns="http://www.w3.org/2000/svg">
<g clip-path="url(#clip0_8504_13147)">
<path d="M6.80835 10.6115L1.23344 12.284L1.04761 1.69168L6.62252 0.390869L6.80835 10.6115Z" fill="#8400FD"/>
<path d="M1.60522 12.6549C1.36364 12.6549 1.14064 12.5806 0.936227 12.4505C0.657482 12.2647 0.490234 11.9674 0.490234 11.6515V2.02544C0.490234 1.56086 0.843312 1.17062 1.32647 1.05912L5.87932 0.0370512C6.2324 -0.037281 6.60406 0.0184682 6.90138 0.222882C7.19871 0.427295 7.36596 0.743207 7.36596 1.0777V10.425C7.36596 10.8895 7.01288 11.317 6.51114 11.447L1.92113 12.6178C1.80963 12.6364 1.71672 12.6549 1.60522 12.6549ZM5.6749 1.17062C5.61915 1.17062 5.54482 1.17062 5.48907 1.1892L1.95829 2.08119C1.64238 2.15552 1.4008 2.45285 1.4008 2.78734V11.1497C1.4008 11.3727 1.5123 11.5957 1.69813 11.7258C1.88396 11.8559 2.10696 11.9116 2.32996 11.8373L5.8979 10.8152C6.2324 10.7223 6.47397 10.4064 6.47397 10.0533V1.9511C6.47397 1.70953 6.36248 1.48653 6.17665 1.33786C6.0094 1.22637 5.84215 1.17062 5.6749 1.17062Z" fill="white"/>
<path d="M10.7109 14.1423L5.13603 15.8148L4.9502 5.22244L10.5251 3.92163L10.7109 14.1423Z" fill="#02FFDB"/>
<path d="M5.63785 15.9819C5.41485 15.9819 5.19185 15.9076 5.00602 15.7775C4.74586 15.5917 4.57861 15.3129 4.57861 14.997V5.68692C4.57861 5.24093 4.91311 4.85069 5.37768 4.75777L9.68895 3.77287C10.0234 3.69854 10.3765 3.77287 10.6553 3.9587C10.934 4.16311 11.0827 4.46044 11.0827 4.77635V13.8263C11.0827 14.2909 10.7482 14.6997 10.265 14.8112L5.91659 15.9448C5.82368 15.9633 5.73076 15.9819 5.63785 15.9819ZM9.57745 4.51619C9.5217 4.51619 9.44737 4.51619 9.39162 4.53477L5.86084 5.42676C5.54493 5.50109 5.30335 5.79842 5.30335 6.13292V14.4953C5.30335 14.7183 5.41485 14.9413 5.60068 15.0714C5.78651 15.2014 6.00951 15.2572 6.2325 15.1829L9.80045 14.1608C10.1349 14.0679 10.3765 13.752 10.3765 13.3989V5.29668C10.3765 5.0551 10.265 4.8321 10.0792 4.68344C9.91195 4.57194 9.7447 4.51619 9.57745 4.51619Z" fill="white"/>
<path d="M14.9851 10.7973L9.4102 12.4698L9.22437 1.87747L14.7993 0.57666L14.9851 10.7973Z" fill="#8400FD"/>
<path d="M9.91177 12.6551C9.68878 12.6551 9.46578 12.5807 9.27995 12.4507C9.01979 12.2648 8.85254 11.9861 8.85254 11.6702V2.32291C8.85254 1.87692 9.18703 1.48667 9.65161 1.39376L13.9443 0.408855C14.2788 0.334523 14.6319 0.408855 14.9106 0.594686C15.1894 0.799099 15.338 1.09643 15.338 1.41234V10.4809C15.338 10.9454 15.0035 11.3543 14.5204 11.4658L10.1905 12.5993C10.0976 12.6365 10.0047 12.6551 9.91177 12.6551ZM13.8514 1.17076C13.7956 1.17076 13.7213 1.17076 13.6655 1.18934L10.1162 2.08133C9.80027 2.15566 9.55869 2.45299 9.55869 2.78748V11.1499C9.55869 11.3729 9.67019 11.5958 9.85602 11.7259C10.0419 11.856 10.2834 11.9118 10.5064 11.8374L14.0558 10.8154C14.3903 10.7224 14.6319 10.4065 14.6319 10.0535V1.95125C14.6319 1.70967 14.5204 1.48667 14.3345 1.33801C14.1859 1.22651 14.0186 1.17076 13.8514 1.17076Z" fill="white"/>
<path d="M19.259 14.1423L13.6841 15.8148L13.4983 5.22244L19.0732 3.92163L19.259 14.1423Z" fill="#02FFDB"/>
<path d="M14.0559 15.9999C13.8143 15.9999 13.5913 15.9256 13.3869 15.7955C13.1082 15.6097 12.9409 15.3123 12.9409 14.9964V5.37041C12.9409 4.90583 13.294 4.51559 13.7772 4.40409L18.33 3.38202C18.6831 3.30769 19.0547 3.36344 19.3521 3.56785C19.6494 3.77227 19.8166 4.08818 19.8166 4.40409V13.7514C19.8166 14.2159 19.4636 14.6433 18.9618 14.7734L14.3718 15.9442C14.2603 15.9813 14.1674 15.9999 14.0559 15.9999ZM18.1256 4.51559C18.0698 4.51559 17.9955 4.51559 17.9398 4.53417L14.409 5.42616C14.0931 5.50049 13.8515 5.79782 13.8515 6.13231V14.4947C13.8515 14.7177 13.963 14.9407 14.1488 15.0708C14.3346 15.2008 14.5576 15.2566 14.7806 15.1823L18.3486 14.1602C18.6831 14.0673 18.9247 13.7514 18.9247 13.3983V5.29608C18.9247 5.0545 18.8132 4.8315 18.6273 4.68283C18.4601 4.57134 18.2928 4.51559 18.1256 4.51559Z" fill="white"/>
<path d="M23.5332 10.6115L17.9583 12.284L17.7725 1.69168L23.3474 0.390869L23.5332 10.6115Z" fill="#8400FD"/>
<path d="M18.144 12.6549C17.9025 12.6549 17.6795 12.5806 17.475 12.4505C17.1963 12.2647 17.0291 11.9674 17.0291 11.6515V2.02544C17.0291 1.56086 17.3821 1.17062 17.8653 1.05912L22.4181 0.0370512C22.7712 -0.037281 23.1429 0.0184682 23.4402 0.222882C23.7375 0.427295 23.9048 0.743207 23.9048 1.05912V10.4064C23.9048 10.871 23.5517 11.2984 23.05 11.4285L18.4599 12.5992C18.3484 12.6364 18.2555 12.6549 18.144 12.6549ZM22.2137 1.17062C22.158 1.17062 22.0836 1.17062 22.0279 1.1892L18.4971 2.08119C18.1812 2.15552 17.9396 2.45285 17.9396 2.78734V11.1497C17.9396 11.3727 18.0511 11.5957 18.237 11.7258C18.4228 11.8559 18.6458 11.9116 18.8688 11.8373L22.4367 10.8152C22.7712 10.7223 23.0128 10.4064 23.0128 10.0533V1.9511C23.0128 1.70953 22.9013 1.48653 22.7155 1.33786C22.5482 1.22637 22.381 1.17062 22.2137 1.17062Z" fill="white"/>
</g>
<defs>
<clipPath id="clip0_8504_13147">
<rect width="23.4146" height="16" fill="white" transform="translate(0.490234 0.000244141)"/>
</clipPath>
</defs>
</svg>
