<svg width="19" height="16" viewBox="0 0 19 16" fill="none" xmlns="http://www.w3.org/2000/svg">
<g clip-path="url(#clip0_8504_12904)">
<path fill-rule="evenodd" clip-rule="evenodd" d="M3.69671 0.0817416L0.342433 7.12595C0.329021 7.15147 0.324401 7.1807 0.329291 7.20912C0.33418 7.23753 0.348306 7.26354 0.369479 7.28311L9.42412 15.9639C9.45017 15.9874 9.484 16.0004 9.51908 16.0004C9.55415 16.0004 9.58798 15.9874 9.61404 15.9639L18.6741 7.28311C18.695 7.2634 18.709 7.23741 18.7139 7.20905C18.7188 7.1807 18.7143 7.15153 18.7011 7.12595L15.3468 0.0817416C15.3379 0.0572401 15.3215 0.0361765 15.2999 0.0215533C15.2784 0.00693005 15.2527 -0.000506378 15.2266 0.00030399H3.81572C3.79 0.00100768 3.76502 0.00904763 3.74373 0.0234763C3.72243 0.0379049 3.7057 0.0581209 3.69551 0.0817416H3.69671Z" fill="url(#paint0_linear_8504_12904)"/>
<path fill-rule="evenodd" clip-rule="evenodd" d="M10.6869 7.84637C10.622 7.85178 10.286 7.87341 9.53802 7.87341C8.94211 7.87341 8.5193 7.85719 8.36754 7.84637C6.06474 7.74359 4.34703 7.34241 4.34703 6.86551C4.34703 6.3886 6.06474 5.98231 8.36754 5.87954V7.44549C8.5178 7.45631 8.94752 7.48335 9.54343 7.48335C10.2586 7.48335 10.6163 7.4509 10.6815 7.44549V5.87954C12.9789 5.98231 14.6966 6.38349 14.6966 6.8601C14.6966 7.3367 12.9837 7.74359 10.6869 7.84637ZM10.6869 5.72237V4.31869H13.8948V2.17847H5.15991V4.31869H8.36754V5.72237C5.76123 5.84257 3.7998 6.35614 3.7998 6.9794C3.7998 7.60265 5.76123 8.11202 8.36754 8.23643V12.7287H10.6869V8.23643C13.2878 8.11622 15.2441 7.60235 15.2441 6.98481C15.2441 6.36726 13.2878 5.84137 10.6869 5.72267V5.72237Z" fill="white"/>
</g>
<defs>
<linearGradient id="paint0_linear_8504_12904" x1="0.0363981" y1="7.71952" x2="17.8717" y2="7.71952" gradientUnits="userSpaceOnUse">
<stop stop-color="#D8B35D"/>
<stop offset="1" stop-color="#F5E7BF"/>
</linearGradient>
<clipPath id="clip0_8504_12904">
<rect width="18.3881" height="16" fill="white" transform="translate(0.327637 0.000244141)"/>
</clipPath>
</defs>
</svg>
