<svg width="17" height="16" viewBox="0 0 17 16" fill="none" xmlns="http://www.w3.org/2000/svg">
<g clip-path="url(#clip0_8504_12044)">
<path d="M8.47998 16.0002C12.8983 16.0002 16.48 12.4185 16.48 8.00024C16.48 3.58197 12.8983 0.000244141 8.47998 0.000244141C4.0617 0.000244141 0.47998 3.58197 0.47998 8.00024C0.47998 12.4185 4.0617 16.0002 8.47998 16.0002Z" fill="#1EB5FA"/>
<path d="M13.6825 3.57573L11.8675 4.38073C11.8145 4.40969 11.7704 4.45236 11.7396 4.50426C11.7088 4.55616 11.6925 4.61538 11.6925 4.67573V11.1657C11.6923 11.2267 11.709 11.2866 11.7408 11.3387C11.7726 11.3908 11.8182 11.433 11.8725 11.4607L13.6875 12.2457C13.7134 12.2599 13.7425 12.267 13.7719 12.2664C13.8014 12.2658 13.8302 12.2575 13.8554 12.2423C13.8807 12.2272 13.9016 12.2057 13.916 12.1799C13.9304 12.1542 13.9378 12.1252 13.9375 12.0957V3.72573C13.9365 3.69622 13.9281 3.66742 13.9131 3.64202C13.898 3.61663 13.8768 3.59546 13.8513 3.58049C13.8259 3.56552 13.797 3.55723 13.7675 3.5564C13.738 3.55556 13.7087 3.56222 13.6825 3.57573ZM4.98999 4.37073L3.22999 3.57073C3.20413 3.5566 3.17502 3.54949 3.14556 3.55008C3.11609 3.55068 3.0873 3.55897 3.06203 3.57413C3.03676 3.58929 3.0159 3.6108 3.0015 3.63652C2.98711 3.66223 2.9797 3.69126 2.97999 3.72073V12.0907C2.98001 12.1211 2.98813 12.1509 3.0035 12.177C3.01887 12.2032 3.04095 12.2247 3.06744 12.2395C3.09394 12.2543 3.1239 12.2617 3.15423 12.2611C3.18456 12.2604 3.21417 12.2517 3.23999 12.2357L5.00999 11.3007C5.05888 11.2709 5.09927 11.2291 5.1273 11.1792C5.15532 11.1293 5.17002 11.073 5.16999 11.0157V4.66573C5.16808 4.60519 5.15049 4.54617 5.11894 4.49446C5.08739 4.44276 5.04295 4.40012 4.98999 4.37073ZM10.51 6.58573L8.61499 5.50073C8.5641 5.47123 8.50631 5.45569 8.44749 5.45569C8.38866 5.45569 8.33088 5.47123 8.27999 5.50073L6.34999 6.57573C6.29836 6.60577 6.2555 6.64881 6.22567 6.70057C6.19584 6.75233 6.18009 6.81099 6.17999 6.87073V9.07073C6.17999 9.19223 6.24499 9.30473 6.34999 9.36573L8.27999 10.4757C8.38349 10.5357 8.51149 10.5357 8.61499 10.4757L10.51 9.37573C10.5616 9.34569 10.6045 9.30265 10.6343 9.25089C10.6641 9.19913 10.6799 9.14046 10.68 9.08073V6.88073C10.6805 6.82087 10.665 6.76197 10.6351 6.7101C10.6052 6.65824 10.562 6.6153 10.51 6.58573Z" fill="white"/>
</g>
<defs>
<clipPath id="clip0_8504_12044">
<rect width="16" height="16" fill="white" transform="translate(0.47998 0.000244141)"/>
</clipPath>
</defs>
</svg>
