<svg width="12" height="16" viewBox="0 0 12 16" fill="none" xmlns="http://www.w3.org/2000/svg">
<g clip-path="url(#clip0_8504_13240)">
<path d="M11.7453 6.61147L9.4415 7.63863L3.32992 10.7494L9.4415 13.6879V8.83086L11.7453 7.7927V14.9681L9.4415 15.9953L0.442871 11.6886V9.39947L6.67185 6.34367L0.442871 3.35024V1.02813L2.78332 0.000976562L11.7453 4.31504V6.61147Z" fill="black"/>
<path d="M0.442871 1.02813L9.4415 5.3422L11.7453 4.31504L2.78332 0.000976562L0.442871 1.02813Z" fill="black"/>
<path d="M9.44189 5.33284L11.7457 4.30566V6.60214L9.44189 7.62931V5.33284Z" fill="black"/>
<path d="M0.442871 1.03076V3.35287L6.67185 6.3463L0.442871 9.40209V11.6912L9.4415 15.9979V13.6941L3.32992 10.7521L9.4415 7.64125V5.34482L0.442871 1.03076Z" fill="black"/>
<path d="M9.44189 15.9804L11.7457 14.9533V7.77783L9.44189 8.816V15.9804Z" fill="black"/>
</g>
<defs>
<clipPath id="clip0_8504_13240">
<rect width="11.3024" height="16" fill="white" transform="translate(0.443359 0.000244141)"/>
</clipPath>
</defs>
</svg>
