<svg width="37" height="16" viewBox="0 0 37 16" fill="none" xmlns="http://www.w3.org/2000/svg">
<g clip-path="url(#clip0_8504_13251)">
<path d="M18.8035 15.9965H35.7125C36.4854 15.9965 37.0759 14.7154 35.7125 14.1607C34.4134 13.6347 22.3392 8.69258 21.1439 8.19873C19.784 9.84132 18.6711 11.1976 18.4743 11.4803C17.9518 12.2533 16.1875 14.4005 18.8035 15.9965Z" fill="url(#paint0_linear_8504_13251)"/>
<path d="M1.64408 0.000244141C1.40478 0.027211 1.18293 0.138566 1.01831 0.314329C0.853696 0.490093 0.757099 0.718763 0.74585 0.959314L0.74585 0.78754C0.770822 1.04504 0.868539 1.29012 1.02759 1.49417C1.18664 1.69821 1.40046 1.85279 1.64408 1.93986C3.10416 2.52317 15.4862 7.54755 15.4862 7.54755V7.73722C17.2361 5.72603 18.8179 3.70411 19.2223 3.221V3.42498C21.144 1.19908 17.4938 0.000244141 17.4938 0.000244141H1.64408Z" fill="url(#paint1_linear_8504_13251)"/>
<path d="M25.8643 0.000244141H17.3686C17.3686 0.000244141 20.9974 1.0452 19.0935 3.29973L15.3718 7.70143C12.9705 10.5321 10.2508 13.7242 9.8285 14.2109C9.11277 15.0376 9.47063 16.0002 10.6909 16.0002H18.9969C16.3774 14.3863 17.9627 12.2928 18.5066 11.5055C18.7035 11.2264 19.8128 9.88081 21.1727 8.24896C23.5883 5.35028 26.7983 1.55694 27.0918 1.19908C27.5462 0.647974 26.8198 0.000244141 25.8643 0.000244141Z" fill="#007AFF"/>
<path opacity="0.3" d="M18.0055 0.000244141H17.3685C17.3685 0.000244141 20.9973 1.0452 19.0934 3.29973L15.3717 7.70143C13.7708 9.58855 14.9792 12.3536 18.9968 15.9967C16.3701 14.3863 17.9519 12.2821 18.4958 11.5055C18.6926 11.2264 19.802 9.88081 21.1619 8.24896C23.5882 5.35028 26.7982 1.55694 27.0917 1.19908C27.5461 0.647974 26.8197 0.000244141 25.8642 0.000244141H17.9912H18.0055Z" fill="url(#paint2_linear_8504_13251)"/>
<g opacity="0.84">
<path opacity="0.84" d="M18.0056 0.000244141H17.3686C17.3686 0.000244141 20.9974 1.0452 19.0935 3.29973L15.3718 7.70143C12.9705 10.5321 10.2508 13.7242 9.8285 14.2109C9.11277 15.0376 9.47063 16.0002 10.6909 16.0002H18.9969C16.3702 14.3899 17.952 12.2856 18.4959 11.5091C18.6927 11.2299 19.8021 9.88439 21.162 8.25254C23.5883 5.35028 26.7983 1.55694 27.0918 1.19908C27.5462 0.647974 26.8198 0.000244141 25.8643 0.000244141H17.9913H18.0056Z" fill="#007AFF"/>
<path opacity="0.84" d="M18.0056 0.000244141H17.3686C17.3686 0.000244141 20.9974 1.0452 19.0935 3.29973L15.3718 7.70143C12.9705 10.5321 10.2508 13.7242 9.8285 14.2109C9.11277 15.0376 9.47063 16.0002 10.6909 16.0002H18.9969C16.3702 14.3899 17.952 12.2856 18.4959 11.5091C18.6927 11.2299 19.8021 9.88439 21.162 8.25254C23.5883 5.35028 26.7983 1.55694 27.0918 1.19908C27.5462 0.647974 26.8198 0.000244141 25.8643 0.000244141H17.9913H18.0056Z" fill="url(#paint3_linear_8504_13251)"/>
</g>
<path opacity="0.45" d="M17.3686 0.000244141C17.3686 0.000244141 20.9974 1.0452 19.0935 3.29973L15.3718 7.70143C12.9705 10.5321 10.2508 13.7242 9.8285 14.2109C9.11277 15.0376 9.47063 16.0002 10.6909 16.0002H18.9969C16.3702 14.3899 17.952 12.2856 18.4959 11.5091C18.6927 11.2299 19.8021 9.88439 21.162 8.25254C22.1246 7.09664 21.7167 3.91883 20.6252 2.16889C20.1409 1.39591 19.0554 0.673024 17.3686 0.000244141Z" fill="#B8CFFF" fill-opacity="0.5"/>
<path d="M17.3684 0.000244141C17.3684 0.000244141 20.9972 1.0452 19.0933 3.29973L15.3716 7.70143C12.8212 10.7146 14.0296 13.4797 18.9967 15.9967C16.37 14.3863 17.9518 12.2821 18.4957 11.5055C18.6925 11.2264 19.8305 9.8486 21.1618 8.24896C24.0127 4.83257 22.7483 2.083 17.3684 0.000244141Z" fill="url(#paint4_linear_8504_13251)"/>
</g>
<defs>
<linearGradient id="paint0_linear_8504_13251" x1="14.8915" y1="11.2103" x2="21.6849" y2="18.4716" gradientUnits="userSpaceOnUse">
<stop stop-color="#878A96"/>
<stop offset="1" stop-color="#DADDE6"/>
</linearGradient>
<linearGradient id="paint1_linear_8504_13251" x1="-1.92788e+06" y1="-140646" x2="-1.92793e+06" y2="-140806" gradientUnits="userSpaceOnUse">
<stop stop-color="#878A96"/>
<stop offset="1" stop-color="#DADDE6"/>
</linearGradient>
<linearGradient id="paint2_linear_8504_13251" x1="27.4588" y1="8.91709" x2="14.8702" y2="7.73245" gradientUnits="userSpaceOnUse">
<stop stop-color="white"/>
<stop offset="1" stop-color="#2B72FF"/>
</linearGradient>
<linearGradient id="paint3_linear_8504_13251" x1="18.4987" y1="0.61523" x2="18.4987" y2="16.5803" gradientUnits="userSpaceOnUse">
<stop stop-color="white" stop-opacity="0.5"/>
<stop offset="1" stop-opacity="0.5"/>
</linearGradient>
<linearGradient id="paint4_linear_8504_13251" x1="17.8745" y1="16.5803" x2="20.2241" y2="0.864322" gradientUnits="userSpaceOnUse">
<stop stop-color="#74ABE9"/>
<stop offset="1" stop-color="#2C5C96"/>
</linearGradient>
<clipPath id="clip0_8504_13251">
<rect width="35.7826" height="16" fill="white" transform="translate(0.74585 0.000244141)"/>
</clipPath>
</defs>
</svg>
