<svg width="16" height="16" viewBox="0 0 16 16" fill="none" xmlns="http://www.w3.org/2000/svg">
<g clip-path="url(#clip0_8504_10277)">
<path d="M12.2343 10.6492C12.7976 11.4062 13.3785 12.1807 13.9594 12.9553C12.7976 14.3284 11.3541 15.2086 9.61134 15.5782C7.67495 15.9831 5.84418 15.6839 4.06622 14.6981C5.65054 13.5186 7.19965 12.3568 8.76637 11.1949C9.11844 11.5294 9.45291 11.8639 9.78738 12.1807C10.1571 12.5328 10.0162 12.5504 10.4915 12.2864C11.1429 11.9167 11.6886 11.4062 12.111 10.7901C12.1287 10.7549 12.1639 10.7197 12.1815 10.6844C12.1639 10.6844 12.1815 10.6844 12.2343 10.6492ZM5.31607 12.1984C4.87598 12.5328 4.4711 12.8321 4.06622 13.1489C3.76696 13.3778 3.4677 13.589 3.16844 13.8179C3.04521 13.9235 2.95719 13.9235 2.81637 13.8003C1.4785 12.6032 0.633524 11.1245 0.31666 9.36418C-0.000204146 7.58622 0.281453 5.89628 1.12642 4.29435C1.14403 4.25914 1.17923 4.20633 1.19684 4.17113C1.19684 4.15352 1.21444 4.15352 1.24965 4.13592C2.41148 5.66743 3.59092 7.19894 4.75276 8.73045C4.71755 8.78326 4.69995 8.81847 4.66474 8.85367C4.31267 9.22335 3.9606 9.59302 3.59092 9.9451C3.4853 10.0507 3.4677 10.1387 3.53811 10.262C3.90779 10.9661 4.41829 11.547 5.05202 12.0223C5.14004 12.0751 5.21045 12.1279 5.31607 12.1984ZM11.8822 1.26654C11.3189 1.67142 10.7556 2.0763 10.1923 2.46358C9.22406 3.15012 8.25587 3.85426 7.30528 4.5408C7.18205 4.62882 7.09403 4.64642 6.98841 4.5232C6.67155 4.18873 6.33708 3.88947 6.02022 3.555C5.9322 3.46698 5.84418 3.44938 5.72095 3.50219C4.964 3.88947 4.36548 4.43518 3.87258 5.12172C3.83737 5.15693 3.80217 5.20974 3.76696 5.26255C3.4853 4.89287 3.22125 4.5584 2.95719 4.20633C2.67554 3.83666 2.41148 3.46698 2.14743 3.11491C2.05941 2.99169 2.04181 2.90367 2.16503 2.78044C3.52051 1.28414 5.19285 0.403964 7.19965 0.192721C8.78397 0.0166856 10.2979 0.33355 11.7062 1.0905C11.759 1.12571 11.8118 1.14331 11.8646 1.17852C11.8646 1.23133 11.8646 1.24893 11.8822 1.26654ZM14.7516 11.8287C14.3819 11.3534 14.0474 10.9133 13.713 10.4732C12.9384 9.4522 12.1639 8.41358 11.3717 7.39258C11.2661 7.25175 11.2661 7.16373 11.3893 7.04051C11.7238 6.70604 12.0406 6.37157 12.3751 6.0371C12.4631 5.94909 12.4983 5.86107 12.4279 5.73784C12.0406 4.99849 11.5125 4.38237 10.826 3.88947C10.7732 3.85426 10.7204 3.80145 10.65 3.76624C10.7028 3.71343 10.7556 3.67823 10.7908 3.64302C11.4597 3.13252 12.1287 2.63962 12.7976 2.12911C12.9032 2.04109 12.9912 2.00589 13.1145 2.12911C14.7868 3.64302 15.6846 5.5266 15.7726 7.79746C15.8078 9.11773 15.5085 10.3676 14.91 11.547C14.8572 11.6174 14.8044 11.7055 14.7516 11.8287Z" fill="#231815"/>
</g>
<defs>
<clipPath id="clip0_8504_10277">
<rect width="15.808" height="16" fill="white"/>
</clipPath>
</defs>
</svg>
